<?xml version="1.0" encoding="UTF-8" standalone="no"?>
<svg
   width="60mm"
   height="128.5mm"
   viewBox="0 0 60.000006 128.50002"
   version="1.1"
   id="svg8"
   inkscape:version="1.1 (c4e8f9ed74, 2021-05-24)"
   sodipodi:docname="Darwinism.svg"
   xmlns:inkscape="http://www.inkscape.org/namespaces/inkscape"
   xmlns:sodipodi="http://sodipodi.sourceforge.net/DTD/sodipodi-0.dtd"
   xmlns:xlink="http://www.w3.org/1999/xlink"
   xmlns="http://www.w3.org/2000/svg"
   xmlns:svg="http://www.w3.org/2000/svg"
   xmlns:rdf="http://www.w3.org/1999/02/22-rdf-syntax-ns#"
   xmlns:cc="http://creativecommons.org/ns#"
   xmlns:dc="http://purl.org/dc/elements/1.1/">
  <defs
     id="defs2">
    <linearGradient
       inkscape:collect="always"
       id="linearGradient16355">
      <stop
         style="stop-color:#262626;stop-opacity:1"
         offset="0"
         id="stop16351" />
      <stop
         style="stop-color:#0d0d0d;stop-opacity:1"
         offset="1"
         id="stop16353" />
    </linearGradient>
    <filter
       x="-0.30000001"
       width="1.6"
       y="-0.30000001"
       height="1.6"
       style="color-interpolation-filters:sRGB"
       inkscape:label="Felt Feather"
       id="filter3728">
      <feGaussianBlur
         stdDeviation="15 15"
         result="blur"
         id="feGaussianBlur3712" />
      <feComposite
         in="SourceGraphic"
         in2="blur"
         operator="atop"
         result="composite1"
         id="feComposite3714" />
      <feComposite
         in2="composite1"
         operator="in"
         result="composite2"
         id="feComposite3716" />
      <feComposite
         in2="composite2"
         operator="in"
         result="composite3"
         id="feComposite3718" />
      <feTurbulence
         type="fractalNoise"
         numOctaves="3"
         seed="1"
         baseFrequency="0.05 0.05"
         result="turbulence"
         id="feTurbulence3720" />
      <feDisplacementMap
         in="composite3"
         in2="turbulence"
         xChannelSelector="R"
         scale="30"
         yChannelSelector="G"
         result="map"
         id="feDisplacementMap3722" />
      <feColorMatrix
         values="1 0 0 0 0 0 1 0 0 0 0 0 1 0 0 0 0 0 1 -0 "
         result="colormatrix"
         id="feColorMatrix3724" />
      <feComposite
         in="composite3"
         in2="colormatrix"
         operator="atop"
         result="composite4"
         id="feComposite3726" />
    </filter>
    <filter
       inkscape:collect="always"
       style="color-interpolation-filters:sRGB"
       id="filter1927"
       x="-0.0010343177"
       width="1.0020686"
       y="-0.00038635989"
       height="1.0007727">
      <feGaussianBlur
         inkscape:collect="always"
         stdDeviation="0.020686142"
         id="feGaussianBlur1929" />
    </filter>
    <filter
       inkscape:collect="always"
       style="color-interpolation-filters:sRGB"
       id="filter12807"
       x="-0.0010343177"
       width="1.0020686"
       y="-0.00038635989"
       height="1.0007727">
      <feGaussianBlur
         inkscape:collect="always"
         stdDeviation="0.020686144"
         id="feGaussianBlur12805" />
    </filter>
    <linearGradient
       inkscape:collect="always"
       xlink:href="#linearGradient16355"
       id="linearGradient16349"
       x1="14.979209"
       y1="-11.974414"
       x2="11.963202"
       y2="67.196983"
       gradientUnits="userSpaceOnUse" />
  </defs>
  <sodipodi:namedview
     id="base"
     pagecolor="#ffffff"
     bordercolor="#666666"
     borderopacity="1.0"
     inkscape:pageopacity="0.0"
     inkscape:pageshadow="2"
     inkscape:zoom="2"
     inkscape:cx="41.25"
     inkscape:cy="97.75"
     inkscape:document-units="mm"
     inkscape:current-layer="layer2"
     showgrid="false"
     units="mm"
     inkscape:snap-bbox="true"
     inkscape:snap-page="true"
     inkscape:bbox-nodes="false"
     inkscape:snap-bbox-edge-midpoints="false"
     inkscape:window-width="1366"
     inkscape:window-height="768"
     inkscape:window-x="0"
     inkscape:window-y="0"
     inkscape:window-maximized="0"
     inkscape:snap-bbox-midpoints="true"
     inkscape:snap-nodes="false"
     inkscape:document-rotation="0"
     fit-margin-top="0"
     fit-margin-left="0"
     fit-margin-right="0"
     fit-margin-bottom="0"
     showguides="false"
     inkscape:pagecheckerboard="0" />
  <metadata
     id="metadata5">
    <rdf:RDF>
      <cc:Work
         rdf:about="">
        <dc:format>image/svg+xml</dc:format>
        <dc:type
           rdf:resource="http://purl.org/dc/dcmitype/StillImage" />
      </cc:Work>
    </rdf:RDF>
  </metadata>
  <g
     inkscape:groupmode="layer"
     id="layer4"
     inkscape:label="back 1"
     transform="translate(0,0.00971522)">
    <rect
       style="fill:url(#linearGradient16349);fill-opacity:1;stroke:#000000;stroke-width:0;stroke-opacity:1;filter:url(#filter12807)"
       id="rect1921"
       width="47.999996"
       height="128.5"
       x="0.03112038"
       y="0.048966013"
       transform="matrix(1.2901961,0,0,0.99928897,-0.00477836,-0.00310155)" />
  </g>
  <g
     inkscape:groupmode="layer"
     id="layer3"
     inkscape:label="back"
     style="filter:url(#filter1927)"
     transform="translate(0,0.00971522)" />
  <g
     inkscape:groupmode="layer"
     id="layer5"
     inkscape:label="Layer 2">
    <path
       style="fill:#ffffff;stroke-width:0.0121524"
       d="m 28.211313,120.86399 c -0.104627,-0.0512 -0.210833,-0.27177 -0.294254,-0.61063 -0.03597,-0.1461 -0.06582,-0.31072 -0.115963,-0.63963 -0.08499,-0.55744 -0.247215,-1.00909 -0.380582,-1.05962 -0.09397,-0.0357 -0.144057,0.0932 -0.161275,0.41446 -0.01482,0.27773 -0.04418,0.37836 -0.171052,0.58731 -0.14871,0.24495 -0.398037,0.50406 -0.737145,0.76609 -0.453735,0.35064 -0.747239,0.52525 -0.883416,0.5256 -0.06884,1.8e-4 -0.0878,-0.0191 -0.08668,-0.0883 0.0017,-0.11376 0.102899,-0.31408 0.343737,-0.68136 0.270703,-0.4128 0.386438,-0.65911 0.426777,-0.90825 0.02933,-0.18116 -0.0037,-0.32136 -0.100116,-0.42662 -0.111751,-0.12181 -0.271289,-0.17515 -0.524965,-0.17553 -0.17502,-2.6e-4 -0.285147,0.0227 -0.381735,0.0794 -0.152038,0.0893 -0.235156,0.22073 -0.320386,0.50645 -0.05936,0.199 -0.119746,0.33386 -0.207455,0.46336 -0.435848,0.6435 -1.326264,0.61231 -1.654934,-0.058 -0.111133,-0.22664 -0.1489,-0.47428 -0.124763,-0.81796 0.02807,-0.39968 0.09825,-0.65815 0.23962,-0.88248 0.08834,-0.14018 0.161693,-0.22356 0.279406,-0.31755 0.235026,-0.18768 0.528127,-0.31344 0.941767,-0.40407 0.234475,-0.0512 0.336922,-0.0674 0.745154,-0.11609 0.654548,-0.0782 0.769431,-0.10635 0.872867,-0.21411 0.06871,-0.0717 0.08839,-0.13324 0.08868,-0.27796 4.91e-4,-0.2331 -0.03924,-0.40347 -0.340739,-1.46074 -0.261197,-0.91602 -0.340789,-1.24371 -0.340789,-1.40315 0,-0.21304 0.198059,0.16407 0.472569,0.89976 0.05351,0.14343 0.166102,0.46373 0.250204,0.71175 0.268599,0.79226 0.461971,1.26225 0.625442,1.52016 0.09152,0.14441 0.146217,0.17322 0.230999,0.12173 0.127815,-0.0777 0.149477,-0.28851 0.149668,-1.45603 1.49e-4,-0.95822 0.01551,-1.32263 0.07994,-1.89228 0.06047,-0.53494 0.170373,-1.04923 0.224207,-1.04923 0.06215,0 0.08578,0.49529 0.109989,2.30468 0.01586,1.19073 0.03049,1.49426 0.08453,1.76118 0.05703,0.28167 0.154148,0.3555 0.467707,0.3555 0.192156,0 0.286288,-0.017 0.358161,-0.065 0.18635,-0.1243 0.240205,-0.3851 0.349769,-1.69379 0.04908,-0.58616 0.07646,-0.85489 0.128494,-1.26151 0.174485,-1.36295 0.453397,-2.54803 0.593204,-2.52048 0.01862,0.003 0.02048,0.0261 0.01877,0.22819 -0.0031,0.37505 -0.0889,1.16034 -0.296769,2.71869 -0.222988,1.67167 -0.260694,1.99665 -0.253365,2.18375 0.0031,0.0816 0.0093,0.11112 0.02581,0.12767 0.02076,0.0207 0.02449,0.02 0.08953,-0.0139 0.04162,-0.0217 0.07951,-0.0531 0.09797,-0.0807 0.104368,-0.15714 0.326174,-0.82703 0.543842,-1.64253 0.03027,-0.11339 0.121714,-0.47094 0.203201,-0.79451 0.221868,-0.88096 0.372243,-1.38866 0.522029,-1.7624 0.144961,-0.36172 0.281351,-0.5688 0.409862,-0.62229 0.0386,-0.016 0.12689,-0.0237 0.12689,-0.0114 0,0.0282 -0.936391,3.39001 -1.128526,4.0516 -0.167636,0.57722 -0.195285,0.68491 -0.205936,0.802 -0.0088,0.0941 0.0059,0.15452 0.04005,0.16757 0.07281,0.0278 0.250073,-0.16728 0.437318,-0.48137 0.392064,-0.65769 0.697238,-1.58299 0.825113,-2.50178 0.06314,-0.4536 0.06817,-0.6106 0.05014,-1.56171 -0.0067,-0.34899 -0.0053,-0.47004 0.0048,-0.47004 0.02585,0 0.104447,0.0569 0.156727,0.11351 0.02862,0.031 0.09878,0.12792 0.155925,0.21544 0.118612,0.18164 0.209722,0.28454 0.262103,0.29601 0.0626,0.0136 0.131648,-0.0398 0.271054,-0.2101 0.200949,-0.24541 0.275749,-0.3005 0.313239,-0.23072 0.04711,0.0877 -0.0507,0.47585 -0.240762,0.95544 -0.105277,0.26565 -0.14383,0.37887 -0.186018,0.54644 -0.229195,0.91025 -0.361741,2.62447 -0.248796,3.21766 0.04809,0.25263 0.143639,0.31339 0.228801,0.14552 0.06252,-0.12326 0.169465,-0.60651 0.291961,-1.31928 0.06662,-0.3877 0.103168,-0.61139 0.263033,-1.61027 0.13184,-0.82376 0.206107,-1.21026 0.2692,-1.40085 0.04584,-0.13844 0.06813,-0.11837 0.08515,0.0766 0.0277,0.31753 -0.04429,1.29033 -0.159253,2.15213 -0.0129,0.0967 -0.04805,0.34237 -0.07808,0.54584 -0.177783,1.20448 -0.173126,1.52352 0.02477,1.69709 0.06771,0.0594 0.255534,0.15232 0.344018,0.17024 0.291272,0.059 0.467384,-0.23219 0.645219,-1.06675 0.0206,-0.0967 0.06199,-0.30498 0.09193,-0.46275 0.162095,-0.85385 0.363172,-1.55792 0.454969,-1.59301 0.01043,-0.003 0.0275,7.8e-4 0.03801,0.0119 0.01621,0.0161 0.01896,0.0553 0.01797,0.25214 -0.0012,0.24222 -0.0059,0.28369 -0.101126,0.88804 -0.179043,1.13664 -0.1897,2.00222 -0.02679,2.17598 0.177408,0.18921 0.480646,-0.33029 0.841762,-1.44211 0.374771,-1.15387 0.835807,-2.2042 0.927441,-2.1129 0.03258,0.0325 -0.03791,0.38917 -0.162147,0.82074 -0.06692,0.23247 -0.12797,0.42747 -0.254953,0.81438 -0.277012,0.84404 -0.413648,1.38853 -0.41318,1.6465 2.76e-4,0.15232 0.03108,0.19122 0.109619,0.13849 0.11727,-0.0787 0.306901,-0.38508 0.602674,-0.97364 0.218834,-0.43544 0.311519,-0.59035 0.415485,-0.69444 0.06745,-0.0675 0.109114,-0.0804 0.139804,-0.0436 0.02766,0.0333 0.01843,0.19869 -0.01952,0.35038 -0.05348,0.21377 -0.119274,0.37779 -0.298954,0.74547 -0.217063,0.44414 -0.253913,0.55503 -0.219236,0.65972 0.05957,0.1798 0.241294,0.23684 1.186153,0.37225 0.706437,0.10123 0.945199,0.14772 1.218861,0.23725 0.266486,0.0873 0.412465,0.1765 0.45046,0.27561 0.02865,0.0746 0.01111,0.12317 -0.07224,0.19904 -0.23477,0.21377 -0.900405,0.38984 -2.003585,0.52998 -0.364756,0.0464 -0.399479,0.0535 -0.499374,0.10373 -0.188506,0.0948 -0.27875,0.28863 -0.34714,0.74587 -0.07955,0.53181 -0.126524,0.72359 -0.222315,0.90766 -0.199545,0.3835 -0.467106,0.23681 -0.715207,-0.39214 -0.123038,-0.31193 -0.225149,-0.48148 -0.385376,-0.63991 -0.200728,-0.19849 -0.398729,-0.29409 -0.609018,-0.29409 -0.170355,0 -0.30136,0.0668 -0.392606,0.20014 -0.101328,0.14808 -0.132764,0.33711 -0.09986,0.60043 0.02548,0.20391 0.02607,0.36417 0.0016,0.44603 -0.0858,0.28786 -0.42399,0.21585 -0.814798,-0.17352 -0.291503,-0.29043 -0.529111,-0.65807 -0.740562,-1.14587 -0.06073,-0.14011 -0.09001,-0.19107 -0.118508,-0.20626 -0.06523,-0.0349 -0.0877,0.13063 -0.109529,0.8067 -0.01691,0.52254 -0.05258,0.7623 -0.141181,0.94832 -0.0635,0.13335 -0.121426,0.16495 -0.206439,0.1126 -0.08118,-0.0499 -0.14918,-0.17993 -0.256883,-0.49083 -0.142802,-0.41221 -0.33117,-0.71563 -0.642899,-1.03551 -0.158695,-0.16283 -0.265401,-0.25215 -0.421567,-0.3528 -0.164482,-0.10601 -0.283492,-0.15021 -0.407648,-0.15131 -0.08705,-7.9e-4 -0.103898,0.002 -0.147664,0.0317 -0.06929,0.0456 -0.100296,0.11586 -0.113751,0.25762 -0.01307,0.13737 -0.01976,0.16768 -0.05127,0.23141 -0.04606,0.0932 -0.11375,0.14218 -0.213952,0.15498 -0.08213,0.0102 -0.127361,0.0662 -0.159567,0.19679 -0.02107,0.0853 -0.01849,0.33644 0.0053,0.51552 0.02626,0.19763 0.0267,0.41358 10e-4,0.5017 -0.04159,0.14251 -0.153031,0.21 -0.260033,0.15745 z m 2.598439,-4.17596 c 0.130411,-0.0792 0.207008,-0.50063 0.16206,-0.89156 -0.02135,-0.18575 -0.0583,-0.21832 -0.140988,-0.12426 -0.107364,0.12214 -0.227992,0.36083 -0.274062,0.54234 -0.03725,0.14674 -0.0296,0.31081 0.01829,0.39221 0.0548,0.0932 0.156902,0.12853 0.234704,0.0812 z"
       id="path1411" />
    <g
       aria-label="VIEW MODE:"
       id="text402"
       style="font-weight:600;font-size:3.52777px;line-height:1.25;font-family:'URW Gothic';-inkscape-font-specification:'URW Gothic, Semi-Bold';text-align:end;text-anchor:end;fill:#ffffff;stroke-width:0.264583">
      <path
         d="m 37.80058,90.819687 h 0.395111 l 1.008942,-2.607022 h -0.507999 l -0.702026,1.982607 -0.702026,-1.982607 h -0.507999 z"
         style="text-align:end;text-anchor:end;fill:#ffffff;stroke-width:0.264583"
         id="path434" />
      <path
         d="M 39.458625,90.819687 H 39.94193 V 88.212665 H 39.458625 Z"
         style="text-align:end;text-anchor:end;fill:#ffffff;stroke-width:0.264583"
         id="path436" />
      <path
         d="m 40.446397,90.819687 h 1.400524 v -0.462138 h -0.91722 v -0.606776 h 0.878415 v -0.462138 h -0.878415 v -0.613832 h 0.91722 v -0.462138 h -1.400524 z"
         style="text-align:end;text-anchor:end;fill:#ffffff;stroke-width:0.264583"
         id="path438" />
      <path
         d="m 42.841742,90.819687 h 0.380999 l 0.430388,-1.72508 0.419805,1.72508 h 0.384526 l 0.761999,-2.607022 h -0.493888 l -0.462138,1.820329 -0.437443,-1.820329 h -0.352777 l -0.444499,1.820329 -0.458611,-1.820329 h -0.493887 z"
         style="text-align:end;text-anchor:end;fill:#ffffff;stroke-width:0.264583"
         id="path440" />
      <path
         d="m 34.015286,95.229399 h 0.483304 v -1.954384 l 0.68086,1.954384 h 0.39511 l 0.68086,-1.954384 v 1.954384 h 0.483304 v -2.607022 h -0.663221 l -0.69497,1.975552 -0.702027,-1.975552 h -0.66322 z"
         style="text-align:end;text-anchor:end;fill:#ffffff;stroke-width:0.264583"
         id="path442" />
      <path
         d="m 38.432052,92.576516 c -0.776109,0 -1.37583,0.589138 -1.37583,1.351136 0,0.754943 0.606776,1.347608 1.372302,1.347608 0.758471,0 1.344081,-0.589137 1.344081,-1.347608 0,-0.751415 -0.596193,-1.351136 -1.340553,-1.351136 z m -0.0071,0.465666 c 0.483304,0 0.860776,0.388055 0.860776,0.888998 0,0.504471 -0.366888,0.878415 -0.860776,0.878415 -0.493888,0 -0.881943,-0.388055 -0.881943,-0.881943 0,-0.504471 0.380999,-0.88547 0.881943,-0.88547 z"
         style="text-align:end;text-anchor:end;fill:#ffffff;stroke-width:0.264583"
         id="path444" />
      <path
         d="m 40.153598,95.229399 h 0.606776 c 0.395111,0 0.631471,-0.0388 0.843137,-0.144638 0.402166,-0.197555 0.638527,-0.627943 0.638527,-1.153581 0,-0.497416 -0.204611,-0.903109 -0.567971,-1.121831 -0.204611,-0.123472 -0.515055,-0.186972 -0.924276,-0.186972 h -0.596193 z m 0.483304,-0.462137 v -1.682747 h 0.09525 c 0.310444,0 0.472721,0.02822 0.624416,0.105833 0.246943,0.127 0.398638,0.405694 0.398638,0.740832 0,0.313972 -0.144639,0.592665 -0.377472,0.719665 -0.144638,0.07761 -0.345721,0.116417 -0.634998,0.116417 z"
         style="text-align:end;text-anchor:end;fill:#ffffff;stroke-width:0.264583"
         id="path446" />
      <path
         d="m 42.644195,95.229399 h 1.400524 v -0.462137 h -0.91722 v -0.606777 h 0.878415 v -0.462138 h -0.878415 v -0.613832 h 0.91722 v -0.462138 h -1.400524 z"
         style="text-align:end;text-anchor:end;fill:#ffffff;stroke-width:0.264583"
         id="path448" />
      <path
         d="m 44.492741,95.229399 h 0.469194 v -0.451554 h -0.469194 z m 0,-1.301747 h 0.469194 v -0.469193 h -0.469194 z"
         style="text-align:end;text-anchor:end;fill:#ffffff;stroke-width:0.264583"
         id="path450" />
    </g>
    <g
       aria-label="NOTE RANGE:"
       id="text408"
       style="font-weight:600;font-size:3.52777px;line-height:1.25;font-family:'URW Gothic';-inkscape-font-specification:'URW Gothic, Semi-Bold';text-align:end;text-anchor:end;fill:#ffffff;stroke-width:0.264583">
      <path
         d="m 36.658645,104.80609 h 0.483304 v -1.89441 l 1.090081,1.89441 h 0.539749 v -2.60702 h -0.483304 v 1.89794 l -1.079498,-1.89794 h -0.550332 z"
         style="text-align:end;text-anchor:end;fill:#ffffff;stroke-width:0.264583"
         id="path412" />
      <path
         d="m 40.525079,102.15321 c -0.776109,0 -1.37583,0.58914 -1.37583,1.35113 0,0.75495 0.606776,1.34761 1.372302,1.34761 0.758471,0 1.344081,-0.58914 1.344081,-1.34761 0,-0.75141 -0.596194,-1.35113 -1.340553,-1.35113 z m -0.0071,0.46566 c 0.483305,0 0.860776,0.38806 0.860776,0.889 0,0.50447 -0.366888,0.87842 -0.860776,0.87842 -0.493887,0 -0.881942,-0.38806 -0.881942,-0.88195 0,-0.50447 0.380999,-0.88547 0.881942,-0.88547 z"
         style="text-align:end;text-anchor:end;fill:#ffffff;stroke-width:0.264583"
         id="path414" />
      <path
         d="m 42.419484,104.80609 h 0.483304 v -2.14488 h 0.483305 v -0.46214 h -1.449914 v 0.46214 h 0.483305 z"
         style="text-align:end;text-anchor:end;fill:#ffffff;stroke-width:0.264583"
         id="path416" />
      <path
         d="m 43.63303,104.80609 h 1.400525 v -0.46214 h -0.91722 v -0.60677 h 0.878414 v -0.46214 h -0.878414 v -0.61383 h 0.91722 v -0.46214 H 43.63303 Z"
         style="text-align:end;text-anchor:end;fill:#ffffff;stroke-width:0.264583"
         id="path418" />
      <path
         d="m 32.323015,109.2158 h 0.483305 v -0.99836 l 0.684387,0.99836 H 34.0869 l -0.705554,-0.96308 c 0.201083,-0.0494 0.299861,-0.0952 0.412749,-0.1905 0.179917,-0.15169 0.268111,-0.3563 0.268111,-0.61736 0,-0.26811 -0.09525,-0.49036 -0.275166,-0.64205 -0.169333,-0.14464 -0.356305,-0.19403 -0.71261,-0.19403 h -0.751415 z m 0.483305,-1.36172 v -0.78316 h 0.215194 c 0.225777,0 0.349249,0.0247 0.42686,0.0917 0.08467,0.067 0.127,0.16933 0.127,0.29633 0,0.27517 -0.15875,0.39511 -0.532694,0.39511 z"
         style="text-align:end;text-anchor:end;fill:#ffffff;stroke-width:0.264583"
         id="path420" />
      <path
         d="m 34.231536,109.2158 h 0.532693 l 0.289278,-0.6738 h 0.927803 l 0.278694,0.6738 h 0.532693 l -1.093609,-2.60702 h -0.380999 z m 0.998359,-1.13594 0.278694,-0.79022 0.278694,0.79022 z"
         style="text-align:end;text-anchor:end;fill:#ffffff;stroke-width:0.264583"
         id="path422" />
      <path
         d="m 37.057279,109.2158 h 0.483305 v -1.89441 l 1.090081,1.89441 h 0.539748 v -2.60702 h -0.483304 v 1.89794 l -1.079498,-1.89794 h -0.550332 z"
         style="text-align:end;text-anchor:end;fill:#ffffff;stroke-width:0.264583"
         id="path424" />
      <path
         d="m 40.623853,108.33739 h 1.079497 c -0.137583,0.28928 -0.419804,0.45861 -0.765526,0.45861 -0.511526,0 -0.903109,-0.381 -0.903109,-0.88194 0,-0.22578 0.09525,-0.47272 0.243416,-0.63147 0.151694,-0.16228 0.380999,-0.254 0.631471,-0.254 0.303388,0 0.557388,0.12347 0.716137,0.34572 h 0.567971 c -0.169333,-0.4692 -0.705554,-0.81139 -1.273525,-0.81139 -0.765526,0 -1.372302,0.59267 -1.372302,1.34408 0,0.76553 0.61736,1.35466 1.418163,1.35466 0.395111,0 0.730249,-0.13758 0.987776,-0.40216 0.239888,-0.25047 0.373944,-0.57503 0.373944,-0.91017 v -0.0635 h -1.703913 z"
         style="text-align:end;text-anchor:end;fill:#ffffff;stroke-width:0.264583"
         id="path426" />
      <path
         d="m 42.645259,109.2158 h 1.400525 v -0.46213 h -0.917221 v -0.60678 h 0.878415 v -0.46214 h -0.878415 v -0.61383 h 0.917221 v -0.46214 h -1.400525 z"
         style="text-align:end;text-anchor:end;fill:#ffffff;stroke-width:0.264583"
         id="path428" />
      <path
         d="m 44.493805,109.2158 h 0.469194 v -0.45155 h -0.469194 z m 0,-1.30174 h 0.469194 v -0.4692 h -0.469194 z"
         style="text-align:end;text-anchor:end;fill:#ffffff;stroke-width:0.264583"
         id="path430" />
    </g>
    <g
       aria-label="S&amp;H"
       id="text468"
       style="font-weight:600;font-size:3.52777px;line-height:1.25;font-family:'URW Gothic';-inkscape-font-specification:'URW Gothic, Semi-Bold';fill:#ffffff;stroke-width:0.264583"
       transform="translate(-2.6458335,-8.4666671)">
      <g
         aria-label="S&amp;H:"
         id="text480"
         style="font-weight:600;font-size:3.52777px;line-height:1.25;font-family:'URW Gothic';-inkscape-font-specification:'URW Gothic, Semi-Bold';stroke-width:0.0700042">
        <path
           d="m 5.4441818,125.76466 c 0.017639,0.20461 0.0635,0.33514 0.169333,0.47625 0.1552219,0.19755 0.4092213,0.31397 0.6879151,0.31397 0.4691935,0 0.8325538,-0.36336 0.8325538,-0.83608 0,-0.21872 -0.077611,-0.40217 -0.2328329,-0.54328 -0.1023053,-0.0953 -0.183444,-0.13758 -0.4409712,-0.23636 -0.2469439,-0.0917 -0.2539995,-0.0953 -0.2892772,-0.11642 -0.09525,-0.06 -0.1446385,-0.14111 -0.1446385,-0.23636 0,-0.15522 0.1093608,-0.26458 0.2681105,-0.26458 0.1622774,0 0.261055,0.0988 0.2751661,0.27517 h 0.5009433 c -0.010583,-0.19756 -0.056444,-0.33161 -0.1622774,-0.46214 -0.1411108,-0.17639 -0.3668881,-0.2787 -0.6103042,-0.2787 -0.4233324,0 -0.7584706,0.32809 -0.7584706,0.74084 0,0.32808 0.1904996,0.57855 0.5432766,0.70908 0.3492492,0.13053 0.3739436,0.14111 0.4515546,0.20108 0.077611,0.0635 0.1199441,0.15522 0.1199441,0.26458 0,0.18698 -0.1446385,0.3175 -0.352777,0.3175 -0.2151939,0 -0.3316103,-0.10583 -0.352777,-0.32455 z"
           style="stroke-width:0.0700042"
           id="path505" />
        <path
           d="m 9.0319189,124.98149 -0.2539995,0.41981 -0.2363606,-0.26811 c 0.1375831,-0.0847 0.1904996,-0.127 0.2504717,-0.1905 0.1023053,-0.11642 0.1587497,-0.27517 0.1587497,-0.4445 0,-0.36689 -0.2857494,-0.64206 -0.6738041,-0.64206 -0.3704159,0 -0.6561652,0.28223 -0.6561652,0.64559 0,0.18697 0.049389,0.28927 0.2187217,0.47977 -0.3386659,0.20109 -0.4868323,0.42334 -0.4868323,0.74084 0,0.46919 0.3704159,0.83255 0.8501926,0.83255 0.2786938,0 0.4409713,-0.0952 0.6632208,-0.39158 l 0.3704158,0.39158 0.3351382,-0.30339 -0.4656657,-0.49741 0.4515546,-0.77259 z m -0.783165,-0.16933 c -0.137583,-0.13758 -0.1799163,-0.20814 -0.1799163,-0.29986 0,-0.12347 0.091722,-0.21519 0.2187218,-0.21519 0.1269997,0 0.215194,0.0882 0.215194,0.21519 0,0.127 -0.0635,0.20108 -0.2539995,0.29986 z m 0.2928049,0.99836 c -0.1199441,0.21167 -0.2081384,0.27869 -0.3668881,0.27869 -0.2046106,0 -0.352777,-0.14111 -0.352777,-0.33866 0,-0.16581 0.091722,-0.2787 0.3139716,-0.37747 z"
           style="stroke-width:0.0700042"
           id="path507" />
        <path
           d="m 9.8679945,126.50902 h 0.4833045 v -1.09361 h 0.931331 v 1.09361 h 0.483305 V 123.902 H 11.28263 v 1.05127 H 10.351299 V 123.902 H 9.8679945 Z"
           style="stroke-width:0.0700042"
           id="path509" />
        <path
           d="m 12.280984,126.50902 h 0.469193 v -0.45156 h -0.469193 z m 0,-1.30175 h 0.469193 v -0.46919 h -0.469193 z"
           style="stroke-width:0.0700042"
           id="path511" />
      </g>
    </g>
    <g
       aria-label="AUTO S&amp;H:"
       id="text484"
       style="font-weight:600;font-size:3.52777px;line-height:1.25;font-family:'URW Gothic';-inkscape-font-specification:'URW Gothic, Semi-Bold';text-align:end;text-anchor:end;fill:#ffffff;stroke-width:0.264583"
       transform="translate(0,-2.1166667)">
      <path
         d="m 40.157412,118.74773 h 0.532693 l 0.289277,-0.67381 h 0.927804 l 0.278693,0.67381 h 0.532694 l -1.093609,-2.60703 h -0.380999 z m 0.998359,-1.13595 0.278693,-0.79022 0.278694,0.79022 z"
         style="text-align:end;text-anchor:end;fill:#ffffff;stroke-width:0.264583"
         id="path488" />
      <path
         d="m 42.863209,116.1407 v 1.651 c 0,0.27869 0.04233,0.45861 0.141111,0.61383 0.151694,0.23989 0.433916,0.38806 0.737304,0.38806 0.285749,0 0.550332,-0.127 0.705554,-0.33514 0.123472,-0.16933 0.176388,-0.36336 0.176388,-0.66675 v -1.651 h -0.483304 v 1.651 c 0,0.19403 -0.01411,0.27517 -0.0635,0.35983 -0.06703,0.10936 -0.1905,0.17639 -0.335138,0.17639 -0.141111,0 -0.264583,-0.067 -0.331611,-0.17639 -0.04939,-0.0847 -0.0635,-0.1658 -0.0635,-0.35983 v -1.651 z"
         style="text-align:end;text-anchor:end;fill:#ffffff;stroke-width:0.264583"
         id="path490" />
      <path
         d="m 45.371448,118.74773 h 0.483304 v -2.14489 h 0.483305 v -0.46214 h -1.449914 v 0.46214 h 0.483305 z"
         style="text-align:end;text-anchor:end;fill:#ffffff;stroke-width:0.264583"
         id="path492" />
      <path
         d="m 47.75268,116.09484 c -0.77611,0 -1.375831,0.58914 -1.375831,1.35114 0,0.75494 0.606777,1.34761 1.372303,1.34761 0.758471,0 1.34408,-0.58914 1.34408,-1.34761 0,-0.75142 -0.596193,-1.35114 -1.340552,-1.35114 z m -0.0071,0.46567 c 0.483305,0 0.860776,0.38805 0.860776,0.889 0,0.50447 -0.366888,0.87841 -0.860776,0.87841 -0.493888,0 -0.881942,-0.38805 -0.881942,-0.88194 0,-0.50447 0.380999,-0.88547 0.881942,-0.88547 z"
         style="text-align:end;text-anchor:end;fill:#ffffff;stroke-width:0.264583"
         id="path494" />
      <path
         d="m 41.663763,122.41308 c 0.01764,0.20461 0.0635,0.33514 0.169333,0.47625 0.155222,0.19755 0.409221,0.31397 0.687915,0.31397 0.469194,0 0.832554,-0.36336 0.832554,-0.83608 0,-0.21872 -0.07761,-0.40217 -0.232833,-0.54328 -0.102305,-0.0952 -0.183444,-0.13758 -0.440971,-0.23636 -0.246944,-0.0917 -0.254,-0.0953 -0.289277,-0.11642 -0.09525,-0.06 -0.144639,-0.14111 -0.144639,-0.23636 0,-0.15522 0.109361,-0.26458 0.268111,-0.26458 0.162277,0 0.261055,0.0988 0.275166,0.27517 h 0.500943 c -0.01058,-0.19756 -0.05644,-0.33161 -0.162277,-0.46214 -0.141111,-0.17639 -0.366888,-0.27869 -0.610305,-0.27869 -0.423332,0 -0.75847,0.32808 -0.75847,0.74083 0,0.32808 0.190499,0.57855 0.543276,0.70908 0.34925,0.13053 0.373944,0.14111 0.451555,0.20108 0.07761,0.0635 0.119944,0.15522 0.119944,0.26459 0,0.18697 -0.144638,0.31749 -0.352777,0.31749 -0.215194,0 -0.33161,-0.10583 -0.352777,-0.32455 z"
         style="text-align:end;text-anchor:end;fill:#ffffff;stroke-width:0.264583"
         id="path496" />
      <path
         d="m 45.2515,121.62991 -0.253999,0.41981 -0.236361,-0.26811 c 0.137583,-0.0847 0.1905,-0.127 0.250472,-0.1905 0.102305,-0.11642 0.158749,-0.27517 0.158749,-0.4445 0,-0.36689 -0.285749,-0.64205 -0.673804,-0.64205 -0.370416,0 -0.656165,0.28222 -0.656165,0.64558 0,0.18697 0.04939,0.28927 0.218722,0.47977 -0.338666,0.20109 -0.486832,0.42334 -0.486832,0.74084 0,0.46919 0.370415,0.83255 0.850192,0.83255 0.278694,0 0.440971,-0.0952 0.663221,-0.39158 l 0.370416,0.39158 0.335138,-0.30339 -0.465666,-0.49741 0.451555,-0.77259 z m -0.783165,-0.16933 c -0.137583,-0.13758 -0.179916,-0.20814 -0.179916,-0.29986 0,-0.12347 0.09172,-0.21519 0.218722,-0.21519 0.126999,0 0.215194,0.0882 0.215194,0.21519 0,0.127 -0.0635,0.20108 -0.254,0.29986 z m 0.292805,0.99836 c -0.119944,0.21167 -0.208138,0.27869 -0.366888,0.27869 -0.204611,0 -0.352777,-0.14111 -0.352777,-0.33866 0,-0.16581 0.09172,-0.2787 0.313972,-0.37747 z"
         style="text-align:end;text-anchor:end;fill:#ffffff;stroke-width:0.264583"
         id="path498" />
      <path
         d="m 46.087576,123.15744 h 0.483304 v -1.09361 h 0.931332 v 1.09361 h 0.483304 v -2.60702 h -0.483304 v 1.05127 H 46.57088 v -1.05127 h -0.483304 z"
         style="text-align:end;text-anchor:end;fill:#ffffff;stroke-width:0.264583"
         id="path500" />
      <path
         d="m 48.500565,123.15744 h 0.469193 v -0.45156 h -0.469193 z m 0,-1.30175 h 0.469193 v -0.46919 h -0.469193 z"
         style="text-align:end;text-anchor:end;fill:#ffffff;stroke-width:0.264583"
         id="path502" />
    </g>
    <path
       style="fill:#ffffff;stroke-width:0.0210438"
       d="m 28.494221,124.99091 v -2.3908 h 2.219925 2.219925 v 2.3908 2.3908 h -2.219925 -2.219925 z m 3.87694,1.9953 c 0.19568,-0.0365 0.209352,-0.0421 0.1946,-0.0797 -0.04424,-0.11286 -0.05762,-0.12861 -0.09844,-0.11597 -0.12296,0.038 -0.370726,0.0691 -0.463304,0.0581 -0.276722,-0.0329 -0.50527,-0.36907 -0.68568,-1.00843 -0.0647,-0.22926 -0.117219,-0.64955 -0.09314,-0.74517 0.0162,-0.0643 9.82e-4,-0.0789 -0.17484,-0.16757 l -0.12432,-0.0627 0.1517,-0.12768 c 0.16068,-0.13524 0.319119,-0.32976 0.379395,-0.46578 0.02066,-0.0466 0.03636,-0.1445 0.03636,-0.22671 0,-0.18902 -0.07608,-0.31334 -0.318559,-0.52059 -0.09756,-0.0834 -0.17738,-0.16793 -0.17738,-0.1879 0,-0.0351 -0.03292,-0.0367 -1.03004,-0.0496 -0.566519,-0.007 -1.032699,-0.0108 -1.035951,-0.008 -0.0032,0.003 -0.0116,0.0921 -0.0186,0.19785 l -0.0128,0.1922 h 0.19006 0.19006 l -0.0154,0.85788 c -0.0084,0.47179 -0.022,1.06957 -0.03014,1.32837 l -0.0148,0.47054 0.14876,0.0123 c 0.08182,0.007 0.1513,0.0102 0.15438,0.008 0.003,-0.003 0.0134,-0.33694 0.02302,-0.74298 l 0.0174,-0.73826 0.415892,0.009 c 0.470514,0.0104 0.607534,0.0355 0.87641,0.16033 l 0.1535,0.0713 0.0148,0.2522 c 0.03444,0.58343 0.315619,1.28521 0.607975,1.51734 0.19094,0.1516 0.374584,0.17927 0.738956,0.11135 z m -1.893177,-2.25129 c -0.04546,-0.01 -0.272868,-0.0227 -0.50535,-0.0288 l -0.422692,-0.0111 0.0154,-0.25351 c 0.0084,-0.13943 0.0154,-0.37013 0.0154,-0.51267 v -0.25915 l 0.678966,0.0114 0.678966,0.0114 0.06706,0.0492 c 0.1181,0.0866 0.19104,0.20567 0.19104,0.3118 0,0.17383 -0.221578,0.45931 -0.478194,0.61609 -0.0783,0.0478 -0.14582,0.0861 -0.15006,0.0851 -0.0042,-10e-4 -0.0449,-0.01 -0.09036,-0.0197 z m 3.416306,2.19677 c -0.02036,-0.0274 -0.06378,-0.12306 -0.09648,-0.21266 -0.056,-0.15344 -0.06088,-0.20288 -0.08404,-0.85175 -0.03384,-0.94774 -0.08636,-1.48714 -0.237592,-2.4406 -0.03832,-0.24153 -0.06484,-0.44296 -0.05898,-0.44763 0.0156,-0.0124 0.29903,-0.0749 0.54417,-0.12006 0.16756,-0.0309 0.284274,-0.0387 0.551384,-0.037 0.345621,0.002 0.453165,-0.014 0.548189,-0.0823 0.031,-0.0223 0.18146,-0.0313 0.766416,-0.0462 0.400314,-0.0102 0.730961,-0.016 0.734769,-0.013 0.0118,0.009 0.14576,0.62803 0.19566,0.90396 0.15112,0.83527 0.19572,1.62851 0.15192,2.70191 l -0.0154,0.37674 -0.332904,0.0328 c -0.459785,0.0453 -0.652565,0.0783 -0.899209,0.15384 l -0.212062,0.0649 -0.12712,-0.0494 c -0.245324,-0.0954 -0.688449,-0.0747 -1.164165,0.0543 l -0.227578,0.0617 z m 1.674883,-0.51098 c -0.007,-0.0954 -0.0186,-0.27049 -0.02582,-0.3891 -0.0072,-0.1186 -0.0391,-0.38018 -0.0709,-0.58129 -0.1197,-0.75677 -0.13432,-0.98355 -0.0643,-0.99809 0.02288,-0.005 0.23059,-0.0332 0.461586,-0.0631 0.391708,-0.0508 0.419232,-0.057 0.408702,-0.092 -0.0062,-0.0206 -0.02462,-0.10784 -0.0409,-0.1938 l -0.0296,-0.15631 -0.10778,0.0126 c -0.05928,0.007 -0.315014,0.0423 -0.568298,0.0787 -0.524504,0.0753 -0.872627,0.0946 -1.157021,0.0643 -0.10832,-0.0116 -0.201114,-0.0177 -0.206224,-0.0136 -0.0098,0.008 -0.07728,0.37419 -0.06988,0.37958 0.0186,0.0135 0.473686,0.0443 0.655556,0.0443 l 0.226123,6e-5 0.02826,0.30005 c 0.0156,0.16503 0.0545,0.45826 0.08656,0.65161 0.0481,0.29003 0.1036,0.8571 0.10554,1.07818 l 4.46e-4,0.0516 h 0.19036 0.19036 z m -10.933068,0.0539 c -0.34582,-1.79358 -0.415787,-2.34122 -0.416185,-3.25749 l -2.34e-4,-0.53624 0.289297,-0.0499 c 0.598664,-0.10319 1.09689,-0.15536 1.907011,-0.19966 0.389606,-0.0213 1.11968,-0.0533 1.124892,-0.0493 0.0017,0.001 -0.0078,0.17539 -0.02102,0.38681 -0.03826,0.60923 0.003,1.05506 0.217148,2.34186 0.08456,0.50826 0.115659,0.72934 0.154919,1.10097 l 0.014,0.13321 -0.455701,0.0584 c -0.476808,0.0611 -0.796976,0.0907 -1.660129,0.15375 -0.50318,0.0367 -0.89092,0.0778 -1.041056,0.11036 l -0.0728,0.0158 z m 1.700751,-0.30778 c 0.03522,-0.26526 0.03958,-0.8127 0.0084,-1.04463 -0.0126,-0.0928 -0.02994,-0.33542 -0.03874,-0.53911 l -0.016,-0.37034 h 0.238446 0.238446 l 0.0154,0.0813 c 0.02408,0.1275 0.02818,0.12944 0.209036,0.0993 0.08746,-0.0145 0.16556,-0.0316 0.17354,-0.038 0.008,-0.006 -0.0098,-0.10219 -0.03942,-0.21302 -0.02966,-0.11082 -0.05952,-0.27533 -0.06634,-0.36558 l -0.0124,-0.16407 h -0.18568 -0.18566 v 0.0656 0.0656 h -0.885609 -0.885608 v 0.23439 0.23439 h 0.448708 0.448708 l 6.26e-4,0.17345 c 5.68e-4,0.16195 0.0156,0.38103 0.06748,0.97976 0.0138,0.15862 0.0122,0.33875 -0.0046,0.51567 -0.014,0.14954 -0.02618,0.3183 -0.02688,0.37503 l -0.0013,0.10313 0.224355,0.0194 c 0.1234,0.0107 0.229212,0.0167 0.23515,0.0133 0.006,-0.003 0.02392,-0.10491 0.03996,-0.22568 z m -3.227478,0.2901 c -0.13658,-0.0436 -0.307748,-0.10583 -0.380386,-0.13838 l -0.13206,-0.0592 -0.156879,0.0452 -0.15688,0.0452 -0.17766,-0.0834 -0.17766,-0.0834 -0.354216,0.0256 -0.354216,0.0256 -0.11168,-0.0919 -0.11168,-0.0919 -0.295201,0.0248 c -0.16236,0.0136 -0.299112,0.0225 -0.30389,0.0196 -0.0048,-0.003 0.09062,-0.78191 0.212008,-1.73128 l 0.220697,-1.72612 0.22489,0.0102 c 0.568968,0.0258 0.929428,0.0571 1.826461,0.1585 0.530164,0.0599 0.970222,0.11396 0.977908,0.12006 0.0076,0.006 -0.06688,0.59973 -0.16572,1.31917 -0.09882,0.71943 -0.201952,1.48949 -0.229164,1.71122 -0.063,0.51338 -0.07376,0.5815 -0.0917,0.58039 -0.008,-4.6e-4 -0.12642,-0.0365 -0.262986,-0.0801 z m -0.248468,-0.78089 0.1632,-0.13059 -0.04554,-0.0429 c -0.02506,-0.0236 -0.09064,-0.0824 -0.14574,-0.1308 -0.11306,-0.0992 -0.15794,-0.16931 -0.279872,-0.4371 -0.04696,-0.10313 -0.105959,-0.21587 -0.131099,-0.25052 -0.02788,-0.0384 -0.0377,-0.0713 -0.02516,-0.0844 0.0114,-0.0118 0.174439,-0.17326 0.362515,-0.3589 0.18808,-0.18564 0.349344,-0.34744 0.358356,-0.35957 0.0162,-0.0218 -0.310258,-0.24985 -0.357724,-0.24985 -0.0126,0 -0.14834,0.12415 -0.301583,0.27588 l -0.27861,0.27589 -0.05456,-0.0931 c -0.05488,-0.0936 -0.06084,-0.20019 -0.0186,-0.33214 0.0126,-0.0392 0.008,-0.0516 -0.019,-0.0516 -0.11036,0 -0.35213,-0.0836 -0.512796,-0.17723 -0.09742,-0.0568 -0.19308,-0.10344 -0.2126,-0.10366 -0.03358,-4.6e-4 -0.26086,0.27187 -0.258718,0.30989 0.001,0.0188 0.286834,0.18249 0.41423,0.23733 0.05932,0.0255 0.07676,0.0471 0.087,0.10777 0.013,0.0767 0.11622,0.26334 0.20281,0.36658 l 0.04718,0.0562 -0.446964,0.43831 c -0.24583,0.24107 -0.446964,0.44093 -0.446964,0.44414 0,0.0135 0.352592,0.23326 0.374262,0.23326 0.013,0 0.17436,-0.14823 0.358452,-0.3294 0.1841,-0.18118 0.33827,-0.32659 0.342608,-0.32315 0.0044,0.003 0.04588,0.0896 0.09232,0.19147 0.04644,0.10186 0.11792,0.23167 0.15884,0.28845 0.06852,0.0951 0.359297,0.36015 0.395095,0.36015 0.0086,0 0.08892,-0.0588 0.1787,-0.13059 z m 14.58386,-0.97575 v -1.78138 h 1.476015 1.476011 v 1.78138 1.78139 H 38.920785 37.44477 Z m 2.515707,1.42343 c 0.156179,-0.0783 0.168859,-0.09 0.131659,-0.12114 -0.0126,-0.0105 -0.013,-0.16803 -0.0012,-0.38347 0.011,-0.20111 0.02064,-0.7306 0.02126,-1.17665 l 0.0012,-0.811 h -0.173659 -0.17366 l -0.0152,0.14346 c -0.0084,0.0789 -0.0152,0.48394 -0.0152,0.90007 0,0.42107 -0.0092,0.75661 -0.02072,0.75661 -0.0114,0 -0.0425,-0.0402 -0.06914,-0.0894 -0.251768,-0.4647 -0.601542,-1.00632 -0.82627,-1.27948 -0.07212,-0.0877 -0.12998,-0.17397 -0.12858,-0.19178 0.0015,-0.0178 -0.0313,-0.0511 -0.0727,-0.0739 -0.04138,-0.0228 -0.14176,-0.0903 -0.223078,-0.14997 -0.158739,-0.11648 -0.266917,-0.15184 -0.531133,-0.17358 l -0.1358,-0.0112 v 0.13846 c 0,0.0761 -0.0064,0.16391 -0.0142,0.19502 -0.0142,0.0562 -0.0134,0.0566 0.11218,0.069 0.06954,0.007 0.1489,0.0212 0.17636,0.032 0.0488,0.0191 0.04912,0.0221 0.0138,0.13336 -0.02964,0.0934 -0.03118,0.13283 -0.0086,0.21966 0.0186,0.0716 0.02752,0.38559 0.02752,0.97192 v 0.86612 h 0.16236 0.162359 l 0.0148,-0.0586 c 0.0082,-0.0322 0.0148,-0.46709 0.0148,-0.96636 0,-0.89133 8.94e-4,-0.9074 0.04562,-0.88836 0.07856,0.0334 0.351666,0.41529 0.603912,0.84449 0.35529,0.60453 0.46839,0.78711 0.606922,0.97976 0.07972,0.11087 0.14872,0.20158 0.1533,0.20158 0.0046,0 0.07718,-0.0345 0.16128,-0.0767 z"
       id="path365" />
  </g>
  <g
     inkscape:label="Layer 1"
     inkscape:groupmode="layer"
     id="layer1"
     transform="translate(0,-168.49025)"
     style="display:inline">
    <g
       aria-label="Pitch"
       style="font-style:normal;font-variant:normal;font-weight:300;font-stretch:normal;font-size:4.93889px;line-height:6.61458px;font-family:'Gotham Rounded';-inkscape-font-specification:'Gotham Rounded Light';font-variant-ligatures:normal;font-variant-caps:normal;font-variant-numeric:normal;font-feature-settings:normal;text-align:center;letter-spacing:0px;word-spacing:0px;writing-mode:lr-tb;text-anchor:middle;display:inline;fill:#000000;fill-opacity:1;stroke:#000000;stroke-width:0.264583px;stroke-linecap:butt;stroke-linejoin:miter;stroke-opacity:1"
       id="text4944"
       transform="translate(0,10.583334)" />
    <text
       xml:space="preserve"
       style="font-style:normal;font-weight:normal;font-size:10.5833px;line-height:1.25;font-family:sans-serif;fill:#000000;fill-opacity:1;stroke:#000000;stroke-width:0.264583"
       x="10.375626"
       y="254.64096"
       id="text72"><tspan
         sodipodi:role="line"
         id="tspan70"
         x="10.375626"
         y="254.64096"
         style="fill:#000000;stroke:#000000;stroke-width:0.264583" /></text>
  </g>
  <g
     inkscape:groupmode="layer"
     id="layer2"
     inkscape:label="components"
     transform="translate(0,0.00972625)">
    <g
       aria-label="ZERO:"
       id="text228"
       style="font-weight:600;font-size:3.52777px;line-height:1.25;font-family:'URW Gothic';-inkscape-font-specification:'URW Gothic, Semi-Bold';fill:#ffffff;stroke-width:0.264583">
      <path
         d="m 2.4788741,49.235604 v 0.409221 H 4.1087039 V 49.182687 H 3.0609562 L 4.0416763,47.471719 V 47.037803 H 2.5317907 v 0.462138 h 0.9348591 z"
         style="fill:#ffffff;stroke-width:0.264583"
         id="path238" />
      <path
         d="M 4.4508869,49.644825 H 5.8514116 V 49.182687 H 4.9341914 V 48.575911 H 5.8126061 V 48.113773 H 4.9341914 V 47.499941 H 5.8514116 V 47.037803 H 4.4508869 Z"
         style="fill:#ffffff;stroke-width:0.264583"
         id="path240" />
      <path
         d="m 6.2853224,49.644825 h 0.4833045 v -0.998359 l 0.6843873,0.998359 h 0.5961932 l -0.705554,-0.963081 c 0.2010829,-0.04939 0.2998604,-0.09525 0.4127491,-0.1905 0.1799162,-0.151694 0.2681105,-0.356305 0.2681105,-0.61736 0,-0.26811 -0.09525,-0.49036 -0.2751661,-0.642054 C 7.580014,47.087192 7.3930422,47.037803 7.0367374,47.037803 h -0.751415 z m 0.4833045,-1.361719 v -0.783165 h 0.2151939 c 0.2257773,0 0.3492493,0.02469 0.4268602,0.09172 0.084666,0.06703 0.1269997,0.169333 0.1269997,0.296333 0,0.275166 -0.1587496,0.39511 -0.5326933,0.39511 z"
         style="fill:#ffffff;stroke-width:0.264583"
         id="path242" />
      <path
         d="m 9.5873138,46.991942 c -0.7761094,0 -1.3758303,0.589138 -1.3758303,1.351136 0,0.754943 0.6067765,1.347608 1.3723026,1.347608 0.7584709,0 1.3440799,-0.589138 1.3440799,-1.347608 0,-0.751415 -0.596193,-1.351136 -1.3405522,-1.351136 z m -0.00706,0.465666 c 0.4833047,0 0.8607757,0.388054 0.8607757,0.888998 0,0.504471 -0.366888,0.878414 -0.8607757,0.878414 -0.4938878,0 -0.8819425,-0.388054 -0.8819425,-0.881942 0,-0.504471 0.3809992,-0.88547 0.8819425,-0.88547 z"
         style="fill:#ffffff;stroke-width:0.264583"
         id="path244" />
      <path
         d="M 11.471136,49.644825 H 11.94033 V 49.19327 h -0.469194 z m 0,-1.301747 h 0.469194 v -0.469194 h -0.469194 z"
         style="fill:#ffffff;stroke-width:0.264583"
         id="path246" />
    </g>
    <text
       xml:space="preserve"
       style="font-style:normal;font-weight:normal;font-size:10.5833px;line-height:1.25;font-family:sans-serif;fill:#000000;fill-opacity:1;stroke:#000000;stroke-width:0.264583"
       x="-65.249954"
       y="111.72212"
       id="text144"><tspan
         sodipodi:role="line"
         id="tspan142"
         x="-65.249954"
         y="111.72212"
         style="fill:#000000;stroke:#000000;stroke-width:0.264583" /></text>
    <text
       xml:space="preserve"
       style="font-size:3.52777px;line-height:1.25;font-family:sans-serif;fill:#000000;stroke:#000000;stroke-width:0.264583"
       x="17.94903"
       y="75.780609"
       id="text1055"><tspan
         sodipodi:role="line"
         id="tspan1053"
         x="17.94903"
         y="75.780609"
         style="fill:#000000;stroke:#000000;stroke-width:0.264583" /></text>
    <text
       xml:space="preserve"
       style="font-size:3.52777px;line-height:1.25;font-family:sans-serif;fill:#000000;stroke:#000000;stroke-width:0.264583"
       x="5.6367397"
       y="125.28948"
       id="text1388"><tspan
         sodipodi:role="line"
         id="tspan1386"
         x="5.6367397"
         y="125.28948"
         style="fill:#000000;stroke:#000000;stroke-width:0.264583" /></text>
    <text
       xml:space="preserve"
       style="font-weight:600;font-size:3.52777px;line-height:1.25;font-family:'URW Gothic';-inkscape-font-specification:'URW Gothic, Semi-Bold';fill:#ffffff;stroke-width:0.264583"
       x="3.3458118"
       y="78.44635"
       id="text123"><tspan
         sodipodi:role="line"
         id="tspan121"
         x="3.3458118"
         y="78.44635"
         style="fill:#ffffff;stroke-width:0.264583" /></text>
    <rect
       style="fill:#000000;stroke:#ffffff;stroke-width:0.3;stroke-opacity:1;stroke-miterlimit:4;stroke-dasharray:none;fill-opacity:0"
       id="rect156"
       width="31.499998"
       height="10.499999"
       x="23"
       y="17.990274" />
    <g
       aria-label="GATE/TRIG:"
       id="text160"
       style="font-weight:600;font-size:3.52777px;line-height:1.25;font-family:'URW Gothic';-inkscape-font-specification:'URW Gothic, Semi-Bold';fill:#f2f2f2;stroke-width:0.264583"
       transform="matrix(0.96709372,0,0,1,-2.1132842,-32.279181)">
      <g
         aria-label="GATE/TRIG/NOTE:"
         transform="scale(1.0168707,0.9834092)"
         id="text208"
         style="font-weight:600;font-size:3.58728px;line-height:1.25;font-family:'URW Gothic';-inkscape-font-specification:'URW Gothic, Semi-Bold';stroke-width:0.0711853">
        <path
           d="m 27.527646,49.245752 h 1.097707 c -0.139904,0.294157 -0.426886,0.466346 -0.77844,0.466346 -0.520155,0 -0.918343,-0.387426 -0.918343,-0.89682 0,-0.229586 0.09686,-0.480695 0.247522,-0.642123 0.154253,-0.165015 0.387426,-0.258284 0.642123,-0.258284 0.308506,0 0.56679,0.125555 0.728218,0.351554 h 0.577552 c -0.172189,-0.477109 -0.717456,-0.825075 -1.295008,-0.825075 -0.77844,0 -1.395452,0.602663 -1.395452,1.366754 0,0.77844 0.627774,1.377515 1.442087,1.377515 0.401775,0 0.742567,-0.139904 1.004438,-0.40895 0.243935,-0.254696 0.380252,-0.584726 0.380252,-0.925518 v -0.06457 h -1.732656 z"
           style="stroke-width:0.0711853"
           id="path239" />
        <path
           d="m 29.231595,50.138985 h 0.541679 l 0.294157,-0.685171 h 0.943455 l 0.283395,0.685171 h 0.541679 l -1.112056,-2.651 h -0.387427 z m 1.0152,-1.155104 0.283395,-0.803551 0.283396,0.803551 z"
           style="stroke-width:0.0711853"
           id="path241" />
        <path
           d="m 32.230559,50.138985 h 0.491457 v -2.181067 h 0.491458 v -0.469933 h -1.474372 v 0.469933 h 0.491457 z"
           style="stroke-width:0.0711853"
           id="path243" />
        <path
           d="m 33.464577,50.138985 h 1.42415 v -0.469934 h -0.932693 v -0.617012 h 0.893233 v -0.469934 h -0.893233 v -0.624187 h 0.932693 v -0.469933 h -1.42415 z"
           style="stroke-width:0.0711853"
           id="path245" />
        <path
           d="m 35.179292,50.598157 h 0.337204 l 1.158691,-3.110172 h -0.337204 z"
           style="stroke-width:0.0711853"
           id="path247" />
        <path
           d="m 37.331654,50.138985 h 0.491457 v -2.181067 h 0.491457 v -0.469933 h -1.474372 v 0.469933 h 0.491458 z"
           style="stroke-width:0.0711853"
           id="path249" />
        <path
           d="m 38.565671,50.138985 h 0.491458 v -1.015201 l 0.695932,1.015201 h 0.60625 l -0.717456,-0.979328 c 0.204475,-0.05022 0.304919,-0.09686 0.419712,-0.193713 0.182951,-0.154253 0.272633,-0.362315 0.272633,-0.627774 0,-0.272633 -0.09686,-0.498632 -0.279807,-0.652885 -0.17219,-0.147078 -0.362316,-0.1973 -0.724631,-0.1973 h -0.764091 z m 0.491458,-1.38469 v -0.796377 h 0.218824 c 0.229586,0 0.355141,0.02511 0.434061,0.09327 0.08609,0.06816 0.129142,0.172189 0.129142,0.301331 0,0.279808 -0.161428,0.401776 -0.541679,0.401776 z"
           style="stroke-width:0.0711853"
           id="path251" />
        <path
           d="m 40.696515,50.138985 h 0.491458 v -2.651 h -0.491458 z"
           style="stroke-width:0.0711853"
           id="path253" />
        <path
           d="m 42.658753,49.245752 h 1.097708 c -0.139904,0.294157 -0.426887,0.466346 -0.77844,0.466346 -0.520156,0 -0.918344,-0.387426 -0.918344,-0.89682 0,-0.229586 0.09686,-0.480695 0.247522,-0.642123 0.154253,-0.165015 0.387427,-0.258284 0.642124,-0.258284 0.308506,0 0.56679,0.125555 0.728217,0.351554 h 0.577553 c -0.17219,-0.477109 -0.717456,-0.825075 -1.295009,-0.825075 -0.778439,0 -1.395452,0.602663 -1.395452,1.366754 0,0.77844 0.627774,1.377515 1.442087,1.377515 0.401775,0 0.742567,-0.139904 1.004438,-0.40895 0.243936,-0.254696 0.380252,-0.584726 0.380252,-0.925518 v -0.06457 h -1.732656 z"
           style="stroke-width:0.0711853"
           id="path255" />
        <path
           d="m 44.563593,50.598157 h 0.337204 l 1.158692,-3.110172 h -0.337205 z"
           style="stroke-width:0.0711853"
           id="path257" />
        <path
           d="m 46.457671,50.138985 h 0.491457 v -1.92637 l 1.10847,1.92637 h 0.548853 v -2.651 h -0.491457 v 1.929956 l -1.097708,-1.929956 h -0.559615 z"
           style="stroke-width:0.0711853"
           id="path259" />
        <path
           d="m 50.389327,47.44135 c -0.789202,0 -1.399039,0.599076 -1.399039,1.373928 0,0.767678 0.617012,1.370341 1.395452,1.370341 0.771265,0 1.366753,-0.599075 1.366753,-1.370341 0,-0.76409 -0.60625,-1.373928 -1.363166,-1.373928 z m -0.0072,0.473521 c 0.491457,0 0.875296,0.394601 0.875296,0.903995 0,0.512981 -0.373077,0.893232 -0.875296,0.893232 -0.50222,0 -0.896821,-0.3946 -0.896821,-0.89682 0,-0.512981 0.387427,-0.900407 0.896821,-0.900407 z"
           style="stroke-width:0.0711853"
           id="path261" />
        <path
           d="m 52.315688,50.138985 h 0.491458 v -2.181067 h 0.491457 v -0.469933 h -1.474372 v 0.469933 h 0.491457 z"
           style="stroke-width:0.0711853"
           id="path263" />
        <path
           d="m 53.549706,50.138985 h 1.42415 v -0.469934 h -0.932693 v -0.617012 h 0.893233 v -0.469934 h -0.893233 v -0.624187 h 0.932693 v -0.469933 h -1.42415 z"
           style="stroke-width:0.0711853"
           id="path265" />
        <path
           d="m 55.429436,50.138985 h 0.477109 v -0.459172 h -0.477109 z m 0,-1.323707 h 0.477109 V 48.33817 h -0.477109 z"
           style="stroke-width:0.0711853"
           id="path267" />
      </g>
    </g>
    <rect
       style="fill:#ffffff;stroke:#ffffff;stroke-width:0.3;stroke-opacity:1;fill-opacity:0;stroke-miterlimit:4;stroke-dasharray:none"
       id="rect156-3"
       width="20.999998"
       height="10.499999"
       x="33.5"
       y="32.990273" />
    <g
       aria-label="CLOCK/STEP/EOP:"
       id="text272"
       style="font-weight:600;font-size:3.52777px;line-height:1.25;font-family:'URW Gothic';-inkscape-font-specification:'URW Gothic, Semi-Bold';fill:#ffffff;stroke-width:0.264583"
       transform="translate(0.00629,0.40993475)">
      <path
         d="m 25.501011,30.806502 c -0.215194,0.222249 -0.39511,0.306916 -0.645582,0.306916 -0.483305,0 -0.874887,-0.402166 -0.874887,-0.888998 0,-0.211667 0.08114,-0.437444 0.215194,-0.592666 0.15875,-0.186972 0.384527,-0.285749 0.64911,-0.285749 0.303388,0 0.507998,0.09878 0.684387,0.328082 h 0.539749 C 25.966676,29.44831 25.874954,29.324838 25.698566,29.1802 c -0.239888,-0.194028 -0.546804,-0.299861 -0.864304,-0.299861 -0.737304,0 -1.340552,0.603249 -1.340552,1.340553 0,0.754943 0.610304,1.358191 1.372302,1.358191 0.536221,0 0.998359,-0.296332 1.20297,-0.772581 z"
         style="fill:#ffffff;stroke-width:0.264583"
         id="path274" />
      <path
         d="m 26.379421,31.533222 h 1.280581 V 31.071084 H 26.862726 V 28.9262 h -0.483305 z"
         style="fill:#ffffff;stroke-width:0.264583"
         id="path276" />
      <path
         d="m 29.085211,28.880339 c -0.77611,0 -1.375831,0.589138 -1.375831,1.351136 0,0.754943 0.606777,1.347608 1.372303,1.347608 0.75847,0 1.34408,-0.589137 1.34408,-1.347608 0,-0.751415 -0.596193,-1.351136 -1.340552,-1.351136 z m -0.0071,0.465666 c 0.483304,0 0.860776,0.388054 0.860776,0.888998 0,0.504471 -0.366888,0.878415 -0.860776,0.878415 -0.493888,0 -0.881943,-0.388055 -0.881943,-0.881943 0,-0.504471 0.381,-0.88547 0.881943,-0.88547 z"
         style="fill:#ffffff;stroke-width:0.264583"
         id="path278" />
      <path
         d="m 32.680002,30.806502 c -0.215194,0.222249 -0.39511,0.306916 -0.645582,0.306916 -0.483304,0 -0.874887,-0.402166 -0.874887,-0.888998 0,-0.211667 0.08114,-0.437444 0.215194,-0.592666 0.15875,-0.186972 0.384527,-0.285749 0.64911,-0.285749 0.303388,0 0.507999,0.09878 0.684387,0.328082 h 0.539749 C 33.145668,29.44831 33.053946,29.324838 32.877557,29.1802 c -0.239888,-0.194028 -0.546804,-0.299861 -0.864303,-0.299861 -0.737304,0 -1.340553,0.603249 -1.340553,1.340553 0,0.754943 0.610304,1.358191 1.372302,1.358191 0.536222,0 0.998359,-0.296332 1.20297,-0.772581 z"
         style="fill:#ffffff;stroke-width:0.264583"
         id="path280" />
      <path
         d="m 33.572522,31.533222 h 0.483305 v -1.146525 l 0.807859,1.146525 h 0.582082 l -0.98072,-1.326441 0.98072,-1.280581 h -0.582082 l -0.807859,1.125359 V 28.9262 h -0.483305 z"
         style="fill:#ffffff;stroke-width:0.264583"
         id="path282" />
      <path
         d="m 35.61157,31.984777 h 0.33161 L 37.08265,28.9262 h -0.33161 z"
         style="fill:#ffffff;stroke-width:0.264583"
         id="path284" />
      <path
         d="m 37.192008,30.788863 c 0.01764,0.20461 0.0635,0.335138 0.169333,0.476249 0.155222,0.197555 0.409221,0.313971 0.687915,0.313971 0.469193,0 0.832554,-0.36336 0.832554,-0.836081 0,-0.218722 -0.07761,-0.402166 -0.232833,-0.543277 -0.102305,-0.09525 -0.183444,-0.137583 -0.440971,-0.23636 -0.246944,-0.09172 -0.254,-0.09525 -0.289277,-0.116417 -0.09525,-0.05997 -0.144639,-0.141111 -0.144639,-0.23636 0,-0.155222 0.109361,-0.264583 0.26811,-0.264583 0.162278,0 0.261055,0.09878 0.275167,0.275166 h 0.500943 c -0.01058,-0.197555 -0.05644,-0.331611 -0.162278,-0.462138 -0.14111,-0.176389 -0.366888,-0.278694 -0.610304,-0.278694 -0.423332,0 -0.75847,0.328083 -0.75847,0.740832 0,0.328082 0.190499,0.578554 0.543276,0.709082 0.34925,0.130527 0.373944,0.14111 0.451555,0.201083 0.07761,0.0635 0.119944,0.155221 0.119944,0.264582 0,0.186972 -0.144639,0.3175 -0.352777,0.3175 -0.215194,0 -0.33161,-0.105834 -0.352777,-0.324555 z"
         style="fill:#ffffff;stroke-width:0.264583"
         id="path286" />
      <path
         d="m 39.495631,31.533222 h 0.483304 V 29.388338 H 40.46224 V 28.9262 h -1.449914 v 0.462138 h 0.483305 z"
         style="fill:#ffffff;stroke-width:0.264583"
         id="path288" />
      <path
         d="m 40.709176,31.533222 h 1.400525 v -0.462138 h -0.91722 v -0.606776 h 0.878414 V 30.00217 h -0.878414 v -0.613832 h 0.91722 V 28.9262 h -1.400525 z"
         style="fill:#ffffff;stroke-width:0.264583"
         id="path290" />
      <path
         d="m 42.543613,31.533222 h 0.483304 v -0.991303 h 0.155222 c 0.370416,0 0.539749,-0.02822 0.684387,-0.116417 0.211667,-0.134055 0.342194,-0.39511 0.342194,-0.69497 0,-0.299861 -0.127,-0.546805 -0.352777,-0.684388 C 43.707777,28.95795 43.531388,28.9262 43.189195,28.9262 h -0.645582 z m 0.483304,-1.453441 v -0.691443 h 0.162278 c 0.158749,0 0.232832,0.0071 0.306916,0.02469 0.14111,0.03881 0.225777,0.162278 0.225777,0.324555 0,0.127 -0.05644,0.225778 -0.15875,0.282222 -0.07408,0.0388 -0.20461,0.05997 -0.39511,0.05997 z"
         style="fill:#ffffff;stroke-width:0.264583"
         id="path292" />
      <path
         d="m 44.370996,31.984777 h 0.33161 l 1.13947,-3.058577 h -0.33161 z"
         style="fill:#ffffff;stroke-width:0.264583"
         id="path294" />
      <path
         d="m 46.233651,31.533222 h 1.400525 v -0.462138 h -0.91722 v -0.606776 h 0.878415 V 30.00217 h -0.878415 v -0.613832 h 0.91722 V 28.9262 h -1.400525 z"
         style="fill:#ffffff;stroke-width:0.264583"
         id="path296" />
      <path
         d="m 49.295745,28.880339 c -0.77611,0 -1.375831,0.589138 -1.375831,1.351136 0,0.754943 0.606777,1.347608 1.372303,1.347608 0.75847,0 1.34408,-0.589137 1.34408,-1.347608 0,-0.751415 -0.596193,-1.351136 -1.340552,-1.351136 z m -0.0071,0.465666 c 0.483305,0 0.860776,0.388054 0.860776,0.888998 0,0.504471 -0.366888,0.878415 -0.860776,0.878415 -0.493888,0 -0.881942,-0.388055 -0.881942,-0.881943 0,-0.504471 0.380999,-0.88547 0.881942,-0.88547 z"
         style="fill:#ffffff;stroke-width:0.264583"
         id="path298" />
      <path
         d="m 51.027867,31.533222 h 0.483305 v -0.991303 h 0.155222 c 0.370416,0 0.539749,-0.02822 0.684387,-0.116417 0.211666,-0.134055 0.342194,-0.39511 0.342194,-0.69497 0,-0.299861 -0.127,-0.546805 -0.352777,-0.684388 C 52.192032,28.95795 52.015643,28.9262 51.673449,28.9262 h -0.645582 z m 0.483305,-1.453441 v -0.691443 h 0.162277 c 0.15875,0 0.232833,0.0071 0.306916,0.02469 0.141111,0.03881 0.225778,0.162278 0.225778,0.324555 0,0.127 -0.05644,0.225778 -0.15875,0.282222 -0.07408,0.0388 -0.204611,0.05997 -0.39511,0.05997 z"
         style="fill:#ffffff;stroke-width:0.264583"
         id="path300" />
      <path
         d="m 53.017528,31.533222 h 0.469194 v -0.451554 h -0.469194 z m 0,-1.301747 h 0.469194 v -0.469193 h -0.469194 z"
         style="fill:#ffffff;stroke-width:0.264583"
         id="path302" />
    </g>
    <g
       aria-label="R'ND'M:"
       id="text232"
       style="font-weight:600;font-size:3.52777px;line-height:1.25;font-family:'URW Gothic';-inkscape-font-specification:'URW Gothic, Semi-Bold';fill:#ffffff;stroke-width:0.264583">
      <path
         d="m 2.301485,59.334225 h 0.4833045 v -0.998359 l 0.6843874,0.998359 H 4.06537 L 3.359816,58.371143 c 0.2010829,-0.04939 0.2998605,-0.09525 0.4127491,-0.190499 0.1799163,-0.151694 0.2681105,-0.356305 0.2681105,-0.61736 0,-0.26811 -0.09525,-0.49036 -0.275166,-0.642054 C 3.5961766,56.776591 3.4092048,56.727203 3.0529,56.727203 H 2.301485 Z m 0.4833045,-1.36172 v -0.783164 h 0.215194 c 0.2257772,0 0.3492492,0.02469 0.4268601,0.09172 0.084666,0.06703 0.1269998,0.169332 0.1269998,0.296332 0,0.275166 -0.1587497,0.39511 -0.5326933,0.39511 z"
         style="fill:#ffffff;stroke-width:0.264583"
         id="path250" />
      <path
         d="M 4.7144771,57.524479 V 56.727203 H 4.4463665 v 0.797276 z"
         style="fill:#ffffff;stroke-width:0.264583"
         id="path252" />
      <path
         d="m 5.201307,59.334225 h 0.4833045 v -1.894413 l 1.0900809,1.894413 H 7.3144412 V 56.727203 H 6.8311368 v 1.89794 L 5.7516391,56.727203 H 5.201307 Z"
         style="fill:#ffffff;stroke-width:0.264583"
         id="path254" />
      <path
         d="m 7.8118557,59.334225 h 0.6067765 c 0.3951102,0 0.6314708,-0.03881 0.843137,-0.144639 0.4021658,-0.197555 0.6385264,-0.627943 0.6385264,-1.153581 0,-0.497415 -0.2046107,-0.903109 -0.567971,-1.121831 C 9.127714,56.790703 8.8172702,56.727203 8.4080489,56.727203 H 7.8118557 Z m 0.4833045,-0.462138 v -1.682746 h 0.09525 c 0.3104438,0 0.4727212,0.02822 0.6244153,0.105833 0.2469439,0.126999 0.398638,0.405693 0.398638,0.740831 0,0.313972 -0.1446385,0.592666 -0.3774714,0.719665 -0.1446385,0.07761 -0.3457214,0.116417 -0.6349986,0.116417 z"
         style="fill:#ffffff;stroke-width:0.264583"
         id="path256" />
      <path
         d="m 10.570568,57.524479 v -0.797276 h -0.26811 v 0.797276 z"
         style="fill:#ffffff;stroke-width:0.264583"
         id="path258" />
      <path
         d="m 11.057398,59.334225 h 0.483304 V 57.37984 l 0.68086,1.954385 h 0.39511 l 0.68086,-1.954385 v 1.954385 h 0.483304 v -2.607022 h -0.663221 l -0.69497,1.975551 -0.702026,-1.975551 h -0.663221 z"
         style="fill:#ffffff;stroke-width:0.264583"
         id="path260" />
      <path
         d="m 14.2465,59.334225 h 0.469194 V 58.88267 H 14.2465 Z m 0,-1.301747 h 0.469194 V 57.563284 H 14.2465 Z"
         style="fill:#ffffff;stroke-width:0.264583"
         id="path262" />
    </g>
    <g
       aria-label="MUTATE:"
       id="text236"
       style="font-weight:600;font-size:3.52777px;line-height:1.25;font-family:'URW Gothic';-inkscape-font-specification:'URW Gothic, Semi-Bold';fill:#ffffff;stroke-width:0.264583">
      <path
         d="M 2.2466823,68.799774 H 2.7299868 V 66.84539 l 0.6808597,1.954384 H 3.8059567 L 4.4868163,66.84539 v 1.954384 H 4.9701208 V 66.192752 H 4.3069 L 3.6119293,68.168303 2.9099031,66.192752 H 2.2466823 Z"
         style="fill:#ffffff;stroke-width:0.264583"
         id="path266" />
      <path
         d="m 5.4216739,66.192752 v 1.650996 c 0,0.278694 0.042333,0.458611 0.1411108,0.613832 0.1516942,0.239889 0.4339158,0.388055 0.737304,0.388055 0.2857494,0 0.5503321,-0.127 0.705554,-0.335138 0.1234719,-0.169333 0.1763885,-0.36336 0.1763885,-0.666749 V 66.192752 H 6.6987267 v 1.650996 c 0,0.194028 -0.014111,0.275167 -0.0635,0.359833 -0.067028,0.109361 -0.1904995,0.176389 -0.3351381,0.176389 -0.1411108,0 -0.2645828,-0.06703 -0.3316104,-0.176389 -0.049389,-0.08467 -0.0635,-0.165805 -0.0635,-0.359833 v -1.650996 z"
         style="fill:#ffffff;stroke-width:0.264583"
         id="path268" />
      <path
         d="M 7.9299125,68.799774 H 8.413217 V 66.65489 H 8.8965215 V 66.192752 H 7.446608 v 0.462138 h 0.4833045 z"
         style="fill:#ffffff;stroke-width:0.264583"
         id="path270" />
      <path
         d="M 8.790677,68.799774 H 9.3233703 L 9.6126474,68.12597 h 0.9278036 l 0.278694,0.673804 h 0.532693 L 10.258229,66.192752 H 9.8772302 Z m 0.9983589,-1.135942 0.2786941,-0.79022 0.278694,0.79022 z"
         style="fill:#ffffff;stroke-width:0.264583"
         id="path272" />
      <path
         d="m 11.739891,68.799774 h 0.483304 V 66.65489 H 12.7065 v -0.462138 h -1.449914 v 0.462138 h 0.483305 z"
         style="fill:#ffffff;stroke-width:0.264583"
         id="path275" />
      <path
         d="m 12.953437,68.799774 h 1.400525 v -0.462138 h -0.91722 V 67.73086 h 0.878414 V 67.268722 H 13.436742 V 66.65489 h 0.91722 v -0.462138 h -1.400525 z"
         style="fill:#ffffff;stroke-width:0.264583"
         id="path277" />
      <path
         d="m 14.801984,68.799774 h 0.469193 V 68.34822 h -0.469193 z m 0,-1.301747 h 0.469193 v -0.469193 h -0.469193 z"
         style="fill:#ffffff;stroke-width:0.264583"
         id="path279" />
    </g>
    <g
       aria-label="RESET:"
       id="text284"
       style="font-weight:600;font-size:3.52777px;line-height:1.25;font-family:'URW Gothic';-inkscape-font-specification:'URW Gothic, Semi-Bold';fill:#ffffff;stroke-width:0.264583">
      <path
         d="m 2.4,78.643158 h 0.4833045 v -0.998359 l 0.6843874,0.998359 H 4.163885 L 3.458331,77.680077 c 0.2010829,-0.04939 0.2998605,-0.09525 0.4127491,-0.1905 0.1799163,-0.151694 0.2681106,-0.356305 0.2681106,-0.61736 0,-0.26811 -0.09525,-0.49036 -0.2751661,-0.642054 C 3.6946916,76.085525 3.5077198,76.036136 3.151415,76.036136 H 2.4 Z m 0.4833045,-1.361719 v -0.783165 h 0.215194 c 0.2257773,0 0.3492492,0.02469 0.4268602,0.09172 0.084666,0.06703 0.1269997,0.169333 0.1269997,0.296332 0,0.275167 -0.1587497,0.395111 -0.5326933,0.395111 z"
         style="fill:#ffffff;stroke-width:0.264583"
         id="path287" />
      <path
         d="M 4.495495,78.643158 H 5.8960197 V 78.18102 H 4.9787995 V 77.574244 H 5.8572143 V 77.112106 H 4.9787995 V 76.498274 H 5.8960197 V 76.036136 H 4.495495 Z"
         style="fill:#ffffff;stroke-width:0.264583"
         id="path289" />
      <path
         d="m 6.1500083,77.898798 c 0.017639,0.204611 0.0635,0.335139 0.169333,0.476249 0.1552219,0.197556 0.4092213,0.313972 0.6879152,0.313972 0.4691934,0 0.8325537,-0.36336 0.8325537,-0.836082 0,-0.218721 -0.077611,-0.402165 -0.2328328,-0.543276 C 7.504672,77.214411 7.4235333,77.172078 7.1660061,77.0733 6.9190622,76.981578 6.9120067,76.97805 6.876729,76.956884 c -0.09525,-0.05997 -0.1446386,-0.141111 -0.1446386,-0.236361 0,-0.155222 0.1093609,-0.264582 0.2681105,-0.264582 0.1622774,0 0.261055,0.09878 0.2751661,0.275166 H 7.7763103 C 7.765727,76.533551 7.719866,76.399496 7.6140329,76.268969 7.4729221,76.09258 7.2471448,75.990275 7.0037287,75.990275 c -0.4233324,0 -0.7584706,0.328083 -0.7584706,0.740832 0,0.328082 0.1904996,0.578554 0.5432766,0.709081 0.3492492,0.130528 0.3739436,0.141111 0.4515546,0.201083 0.077611,0.0635 0.1199442,0.155222 0.1199442,0.264583 0,0.186972 -0.1446386,0.317499 -0.352777,0.317499 -0.215194,0 -0.3316104,-0.105833 -0.352777,-0.324555 z"
         style="fill:#ffffff;stroke-width:0.264583"
         id="path291" />
      <path
         d="M 8.1749434,78.643158 H 9.5754681 V 78.18102 H 8.6582479 V 77.574244 H 9.5366626 V 77.112106 H 8.6582479 V 76.498274 H 9.5754681 V 76.036136 H 8.1749434 Z"
         style="fill:#ffffff;stroke-width:0.264583"
         id="path293" />
      <path
         d="m 10.288067,78.643158 h 0.483304 v -2.144884 h 0.483305 V 76.036136 H 9.8047621 v 0.462138 h 0.4833049 z"
         style="fill:#ffffff;stroke-width:0.264583"
         id="path295" />
      <path
         d="m 11.56158,78.643158 h 0.469193 V 78.191603 H 11.56158 Z m 0,-1.301747 h 0.469193 V 76.872217 H 11.56158 Z"
         style="fill:#ffffff;stroke-width:0.264583"
         id="path297" />
    </g>
    <g
       aria-label="SEQUENCE LENGTH:"
       id="text302"
       style="font-weight:600;font-size:3.52777px;line-height:1.25;font-family:'URW Gothic';-inkscape-font-specification:'URW Gothic, Semi-Bold';text-align:center;text-anchor:middle;fill:#f9f9f9;stroke-width:0.264583"
       transform="translate(0,20.000357)">
      <path
         d="m 35.73574,46.316443 c 0.01764,0.204611 0.0635,0.335138 0.169333,0.476249 0.155222,0.197555 0.409221,0.313971 0.687915,0.313971 0.469194,0 0.832554,-0.36336 0.832554,-0.836081 0,-0.218722 -0.07761,-0.402166 -0.232833,-0.543277 -0.102305,-0.09525 -0.183444,-0.137583 -0.440971,-0.23636 -0.246944,-0.09172 -0.254,-0.09525 -0.289277,-0.116417 -0.09525,-0.05997 -0.144639,-0.14111 -0.144639,-0.23636 0,-0.155222 0.109361,-0.264583 0.268111,-0.264583 0.162277,0 0.261055,0.09878 0.275166,0.275166 h 0.500943 c -0.01058,-0.197555 -0.05644,-0.33161 -0.162277,-0.462138 -0.141111,-0.176388 -0.366889,-0.278694 -0.610305,-0.278694 -0.423332,0 -0.75847,0.328083 -0.75847,0.740832 0,0.328083 0.190499,0.578554 0.543276,0.709082 0.34925,0.130527 0.373944,0.141111 0.451555,0.201083 0.07761,0.0635 0.119944,0.155222 0.119944,0.264583 0,0.186971 -0.144638,0.317499 -0.352777,0.317499 -0.215194,0 -0.33161,-0.105833 -0.352777,-0.324555 z"
         style="text-align:center;text-anchor:middle;fill:#f9f9f9;stroke-width:0.264583"
         id="path306" />
      <path
         d="M 37.760675,47.060802 H 39.1612 v -0.462137 h -0.917221 v -0.606777 h 0.878415 V 45.52975 H 38.243979 V 44.915918 H 39.1612 V 44.45378 h -1.400525 z"
         style="text-align:center;text-anchor:middle;fill:#f9f9f9;stroke-width:0.264583"
         id="path308" />
      <path
         d="m 42.276215,46.672748 c -0.04586,0.0071 -0.06703,0.01058 -0.09878,0.01058 -0.08467,0 -0.148166,-0.01764 -0.261055,-0.07761 0.211666,-0.218722 0.313971,-0.49036 0.313971,-0.836081 0,-0.779638 -0.589137,-1.36172 -1.382885,-1.36172 -0.779638,0 -1.386414,0.589138 -1.386414,1.347609 0,0.754942 0.624415,1.351135 1.414636,1.351135 0.261055,0 0.536221,-0.07761 0.719665,-0.20461 0.222249,0.155222 0.391582,0.211666 0.620887,0.211666 0.01058,0 0.03175,0 0.05997,-0.0035 z m -1.09008,-0.09878 c -0.109361,0.05292 -0.179917,0.06703 -0.310444,0.06703 -0.331611,0 -0.575027,-0.119944 -0.77611,-0.380999 0.109361,-0.02117 0.162278,-0.02822 0.250472,-0.02822 0.285749,0 0.532693,0.09878 0.836082,0.342194 z m 0.345721,-0.232833 c -0.317499,-0.313971 -0.761998,-0.504471 -1.174747,-0.504471 -0.15875,0 -0.282222,0.01411 -0.405694,0.04586 -0.0071,-0.05997 -0.0071,-0.08467 -0.0071,-0.119944 0,-0.507999 0.384527,-0.888998 0.899582,-0.888998 0.515054,0 0.899581,0.384527 0.899581,0.903109 0,0.236361 -0.07055,0.419805 -0.211666,0.564443 z"
         style="text-align:center;text-anchor:middle;fill:#f9f9f9;stroke-width:0.264583"
         id="path310" />
      <path
         d="m 42.604287,44.45378 v 1.650997 c 0,0.278694 0.04233,0.45861 0.141111,0.613832 0.151694,0.239888 0.433915,0.388054 0.737303,0.388054 0.28575,0 0.550333,-0.126999 0.705554,-0.335138 0.123472,-0.169333 0.176389,-0.36336 0.176389,-0.666748 V 44.45378 h -0.483305 v 1.650997 c 0,0.194027 -0.01411,0.275166 -0.0635,0.359832 -0.06703,0.109361 -0.1905,0.176389 -0.335139,0.176389 -0.14111,0 -0.264582,-0.06703 -0.33161,-0.176389 -0.04939,-0.08467 -0.0635,-0.165805 -0.0635,-0.359832 V 44.45378 Z"
         style="text-align:center;text-anchor:middle;fill:#f9f9f9;stroke-width:0.264583"
         id="path312" />
      <path
         d="m 44.862057,47.060802 h 1.400525 v -0.462137 h -0.91722 v -0.606777 h 0.878415 V 45.52975 h -0.878415 v -0.613832 h 0.91722 V 44.45378 h -1.400525 z"
         style="text-align:center;text-anchor:middle;fill:#f9f9f9;stroke-width:0.264583"
         id="path314" />
      <path
         d="m 46.696493,47.060802 h 0.483304 V 45.16639 l 1.090081,1.894412 h 0.539749 V 44.45378 h -0.483304 v 1.897941 L 47.246825,44.45378 h -0.550332 z"
         style="text-align:center;text-anchor:middle;fill:#f9f9f9;stroke-width:0.264583"
         id="path316" />
      <path
         d="m 51.194398,46.334082 c -0.215194,0.222249 -0.39511,0.306916 -0.645582,0.306916 -0.483304,0 -0.874887,-0.402166 -0.874887,-0.888998 0,-0.211666 0.08114,-0.437444 0.215194,-0.592666 0.15875,-0.186971 0.384527,-0.285749 0.64911,-0.285749 0.303388,0 0.507999,0.09878 0.684387,0.328083 h 0.539749 c -0.102305,-0.225778 -0.194027,-0.34925 -0.370416,-0.493888 -0.239888,-0.194028 -0.546804,-0.299861 -0.864303,-0.299861 -0.737304,0 -1.340553,0.603249 -1.340553,1.340553 0,0.754943 0.610304,1.358191 1.372303,1.358191 0.536221,0 0.998358,-0.296332 1.202969,-0.772581 z"
         style="text-align:center;text-anchor:middle;fill:#f9f9f9;stroke-width:0.264583"
         id="path318" />
      <path
         d="m 52.072808,47.060802 h 1.400525 v -0.462137 h -0.917221 v -0.606777 h 0.878415 V 45.52975 h -0.878415 v -0.613832 h 0.917221 V 44.45378 h -1.400525 z"
         style="text-align:center;text-anchor:middle;fill:#f9f9f9;stroke-width:0.264583"
         id="path320" />
      <path
         d="m 38.034082,51.470515 h 1.28058 v -0.462138 h -0.797276 v -2.144884 h -0.483304 z"
         style="text-align:center;text-anchor:middle;fill:#f9f9f9;stroke-width:0.264583"
         id="path322" />
      <path
         d="M 39.586296,51.470515 H 40.98682 V 51.008377 H 40.0696 v -0.606776 h 0.878415 V 49.939463 H 40.0696 v -0.613832 h 0.91722 v -0.462138 h -1.400524 z"
         style="text-align:center;text-anchor:middle;fill:#f9f9f9;stroke-width:0.264583"
         id="path324" />
      <path
         d="m 41.420731,51.470515 h 0.483304 v -1.894413 l 1.090081,1.894413 h 0.539749 v -2.607022 h -0.483304 v 1.89794 l -1.079498,-1.89794 h -0.550332 z"
         style="text-align:center;text-anchor:middle;fill:#f9f9f9;stroke-width:0.264583"
         id="path326" />
      <path
         d="m 44.987305,50.5921 h 1.079498 c -0.137584,0.289277 -0.419805,0.45861 -0.765527,0.45861 -0.511526,0 -0.903109,-0.380999 -0.903109,-0.881942 0,-0.225777 0.09525,-0.472721 0.243416,-0.631471 0.151695,-0.162277 0.381,-0.253999 0.631471,-0.253999 0.303388,0 0.557388,0.123472 0.716138,0.345721 h 0.567971 c -0.169333,-0.469193 -0.705554,-0.811387 -1.273525,-0.811387 -0.765527,0 -1.372303,0.592665 -1.372303,1.34408 0,0.765526 0.61736,1.354664 1.418164,1.354664 0.39511,0 0.730248,-0.137583 0.987775,-0.402166 0.239889,-0.250471 0.373944,-0.575026 0.373944,-0.910164 v -0.0635 h -1.703913 z"
         style="text-align:center;text-anchor:middle;fill:#f9f9f9;stroke-width:0.264583"
         id="path328" />
      <path
         d="m 47.199206,51.470515 h 0.483304 v -2.144884 h 0.483305 v -0.462138 h -1.449914 v 0.462138 h 0.483305 z"
         style="text-align:center;text-anchor:middle;fill:#f9f9f9;stroke-width:0.264583"
         id="path330" />
      <path
         d="m 48.412752,51.470515 h 0.483305 v -1.093609 h 0.931331 v 1.093609 h 0.483305 v -2.607022 h -0.483305 v 1.051275 h -0.931331 v -1.051275 h -0.483305 z"
         style="text-align:center;text-anchor:middle;fill:#f9f9f9;stroke-width:0.264583"
         id="path332" />
      <path
         d="m 50.825741,51.470515 h 0.469194 V 51.01896 h -0.469194 z m 0,-1.301747 h 0.469194 v -0.469194 h -0.469194 z"
         style="text-align:center;text-anchor:middle;fill:#f9f9f9;stroke-width:0.264583"
         id="path334" />
    </g>
    <g
       aria-label="SAVE:  LOAD:"
       id="text339"
       style="font-weight:600;font-size:3.52777px;line-height:1.4;font-family:'URW Gothic';-inkscape-font-specification:'URW Gothic, Semi-Bold';fill:#f9f9f9;stroke-width:0.264583"
       transform="translate(0,-19.999586)">
      <path
         d="m 32.4632,67.903384 c 0.01764,0.20461 0.0635,0.335138 0.169332,0.476249 0.155222,0.197555 0.409222,0.313971 0.687916,0.313971 0.469193,0 0.832553,-0.36336 0.832553,-0.836081 0,-0.218722 -0.07761,-0.402166 -0.232832,-0.543277 -0.102306,-0.09525 -0.183445,-0.137583 -0.440972,-0.23636 -0.246944,-0.09172 -0.253999,-0.09525 -0.289277,-0.116417 -0.09525,-0.05997 -0.144638,-0.141111 -0.144638,-0.23636 0,-0.155222 0.10936,-0.264583 0.26811,-0.264583 0.162278,0 0.261055,0.09878 0.275166,0.275166 h 0.500944 c -0.01058,-0.197555 -0.05645,-0.331611 -0.162278,-0.462138 -0.141111,-0.176389 -0.366888,-0.278694 -0.610304,-0.278694 -0.423333,0 -0.758471,0.328083 -0.758471,0.740832 0,0.328082 0.1905,0.578554 0.543277,0.709082 0.349249,0.130527 0.373944,0.14111 0.451554,0.201083 0.07761,0.0635 0.119945,0.155221 0.119945,0.264582 0,0.186972 -0.144639,0.3175 -0.352777,0.3175 -0.215194,0 -0.331611,-0.105834 -0.352777,-0.324555 z"
         style="fill:#f9f9f9;stroke-width:0.264583"
         id="path345" />
      <path
         d="m 34.216493,68.647743 h 0.532694 l 0.289277,-0.673804 h 0.927803 l 0.278694,0.673804 h 0.532693 l -1.093608,-2.607022 h -0.380999 z m 0.998359,-1.135942 0.278694,-0.79022 0.278694,0.79022 z"
         style="fill:#f9f9f9;stroke-width:0.264583"
         id="path347" />
      <path
         d="m 37.589034,68.647743 h 0.39511 l 1.008943,-2.607022 h -0.507999 l -0.702027,1.982607 -0.702026,-1.982607 h -0.507999 z"
         style="fill:#f9f9f9;stroke-width:0.264583"
         id="path349" />
      <path
         d="m 39.247079,68.647743 h 1.400525 v -0.462138 h -0.91722 v -0.606776 h 0.878414 v -0.462138 h -0.878414 v -0.613832 h 0.91722 v -0.462138 h -1.400525 z"
         style="fill:#f9f9f9;stroke-width:0.264583"
         id="path351" />
      <path
         d="m 41.095626,68.647743 h 0.469193 v -0.451554 h -0.469193 z m 0,-1.301747 h 0.469193 v -0.469193 h -0.469193 z"
         style="fill:#f9f9f9;stroke-width:0.264583"
         id="path353" />
      <path
         d="M 32.653699,78.525499 H 33.93428 V 78.063361 H 33.137004 V 75.918477 H 32.653699 Z"
         style="fill:#f9f9f9;stroke-width:0.264583"
         id="path355" />
      <path
         d="m 35.359488,75.872616 c -0.776109,0 -1.37583,0.589138 -1.37583,1.351136 0,0.754943 0.606777,1.347608 1.372303,1.347608 0.75847,0 1.34408,-0.589137 1.34408,-1.347608 0,-0.751415 -0.596193,-1.351136 -1.340553,-1.351136 z m -0.0071,0.465666 c 0.483304,0 0.860776,0.388054 0.860776,0.888998 0,0.504471 -0.366888,0.878415 -0.860776,0.878415 -0.493888,0 -0.881943,-0.388055 -0.881943,-0.881943 0,-0.504471 0.381,-0.88547 0.881943,-0.88547 z"
         style="fill:#f9f9f9;stroke-width:0.264583"
         id="path357" />
      <path
         d="m 36.710616,78.525499 h 0.532693 l 0.289277,-0.673804 h 0.927804 l 0.278694,0.673804 h 0.532693 l -1.093609,-2.607022 h -0.380999 z m 0.998359,-1.135942 0.278694,-0.79022 0.278694,0.79022 z"
         style="fill:#f9f9f9;stroke-width:0.264583"
         id="path359" />
      <path
         d="m 39.536359,78.525499 h 0.606776 c 0.395111,0 0.631471,-0.0388 0.843137,-0.144638 0.402166,-0.197556 0.638527,-0.627943 0.638527,-1.153581 0,-0.497416 -0.204611,-0.903109 -0.567971,-1.121831 -0.204611,-0.123472 -0.515055,-0.186972 -0.924276,-0.186972 h -0.596193 z m 0.483305,-0.462138 v -1.682746 h 0.09525 c 0.310444,0 0.472721,0.02822 0.624416,0.105833 0.246943,0.127 0.398638,0.405694 0.398638,0.740832 0,0.313971 -0.144639,0.592665 -0.377472,0.719665 -0.144638,0.07761 -0.345721,0.116416 -0.634998,0.116416 z"
         style="fill:#f9f9f9;stroke-width:0.264583"
         id="path361" />
      <path
         d="m 42.019905,78.525499 h 0.469193 v -0.451554 h -0.469193 z m 0,-1.301747 h 0.469193 v -0.469193 h -0.469193 z"
         style="fill:#f9f9f9;stroke-width:0.264583"
         id="path363" />
    </g>
    <g
       aria-label="MUTATION RATE:"
       id="text415"
       style="font-weight:600;font-size:3.52777px;line-height:1.25;font-family:'URW Gothic';-inkscape-font-specification:'URW Gothic, Semi-Bold';text-align:end;text-anchor:end;fill:#ffffff;stroke-width:0.264583">
      <path
         d="m 2.0090771,90.684296 h 0.4833045 v -1.954385 l 0.6808596,1.954385 H 3.5683514 L 4.249211,88.729911 v 1.954385 H 4.7325155 V 88.077274 H 4.0692948 L 3.3743241,90.052825 2.6722978,88.077274 H 2.0090771 Z"
         style="text-align:end;text-anchor:end;fill:#ffffff;stroke-width:0.264583"
         id="path425" />
      <path
         d="m 5.1840687,88.077274 v 1.650996 c 0,0.278694 0.042333,0.45861 0.1411108,0.613832 0.1516941,0.239888 0.4339157,0.388055 0.7373039,0.388055 0.2857494,0 0.5503321,-0.127 0.705554,-0.335138 0.123472,-0.169333 0.1763885,-0.363361 0.1763885,-0.666749 V 88.077274 H 6.4611214 v 1.650996 c 0,0.194027 -0.014111,0.275166 -0.0635,0.359833 -0.067028,0.10936 -0.1904996,0.176388 -0.3351382,0.176388 -0.1411108,0 -0.2645827,-0.06703 -0.3316104,-0.176388 -0.049389,-0.08467 -0.0635,-0.165806 -0.0635,-0.359833 v -1.650996 z"
         style="text-align:end;text-anchor:end;fill:#ffffff;stroke-width:0.264583"
         id="path427" />
      <path
         d="M 7.6923072,90.684296 H 8.1756117 V 88.539411 H 8.6589162 V 88.077274 H 7.2090027 v 0.462137 h 0.4833045 z"
         style="text-align:end;text-anchor:end;fill:#ffffff;stroke-width:0.264583"
         id="path429" />
      <path
         d="M 8.5530717,90.684296 H 9.085765 l 0.2892772,-0.673804 h 0.9278038 l 0.278694,0.673804 h 0.532693 L 10.020624,88.077274 H 9.6396249 Z m 0.998359,-1.135942 0.2786938,-0.790221 0.2786935,0.790221 z"
         style="text-align:end;text-anchor:end;fill:#ffffff;stroke-width:0.264583"
         id="path431" />
      <path
         d="m 11.502285,90.684296 h 0.483305 v -2.144885 h 0.483304 v -0.462137 h -1.449913 v 0.462137 h 0.483304 z"
         style="text-align:end;text-anchor:end;fill:#ffffff;stroke-width:0.264583"
         id="path433" />
      <path
         d="m 12.715832,90.684296 h 0.483304 v -2.607022 h -0.483304 z"
         style="text-align:end;text-anchor:end;fill:#ffffff;stroke-width:0.264583"
         id="path435" />
      <path
         d="m 14.945378,88.031413 c -0.77611,0 -1.37583,0.589137 -1.37583,1.351136 0,0.754942 0.606776,1.347608 1.372302,1.347608 0.758471,0 1.34408,-0.589138 1.34408,-1.347608 0,-0.751416 -0.596193,-1.351136 -1.340552,-1.351136 z m -0.0071,0.465665 c 0.483305,0 0.860776,0.388055 0.860776,0.888998 0,0.504471 -0.366888,0.878415 -0.860776,0.878415 -0.493888,0 -0.881942,-0.388055 -0.881942,-0.881942 0,-0.504472 0.380999,-0.885471 0.881942,-0.885471 z"
         style="text-align:end;text-anchor:end;fill:#ffffff;stroke-width:0.264583"
         id="path437" />
      <path
         d="m 16.666924,90.684296 h 0.483304 v -1.894413 l 1.090081,1.894413 h 0.539749 v -2.607022 h -0.483305 v 1.89794 l -1.079497,-1.89794 h -0.550332 z"
         style="text-align:end;text-anchor:end;fill:#ffffff;stroke-width:0.264583"
         id="path439" />
      <path
         d="m 10.383985,95.094008 h 0.483304 v -0.998359 l 0.684388,0.998359 h 0.596193 l -0.705554,-0.963081 c 0.201083,-0.04939 0.29986,-0.09525 0.412749,-0.1905 0.179916,-0.151694 0.268111,-0.356304 0.268111,-0.617359 0,-0.268111 -0.09525,-0.49036 -0.275167,-0.642055 -0.169332,-0.144638 -0.356304,-0.194027 -0.712609,-0.194027 h -0.751415 z m 0.483304,-1.361719 v -0.783165 h 0.215194 c 0.225778,0 0.34925,0.02469 0.426861,0.09172 0.08467,0.06703 0.126999,0.169333 0.126999,0.296333 0,0.275166 -0.158749,0.39511 -0.532693,0.39511 z"
         style="text-align:end;text-anchor:end;fill:#ffffff;stroke-width:0.264583"
         id="path441" />
      <path
         d="m 12.292506,95.094008 h 0.532693 l 0.289277,-0.673804 h 0.927804 l 0.278694,0.673804 h 0.532693 l -1.093609,-2.607022 h -0.380999 z m 0.998359,-1.135942 0.278694,-0.79022 0.278693,0.79022 z"
         style="text-align:end;text-anchor:end;fill:#ffffff;stroke-width:0.264583"
         id="path443" />
      <path
         d="m 15.24172,95.094008 h 0.483304 v -2.144884 h 0.483305 v -0.462138 h -1.449914 v 0.462138 h 0.483305 z"
         style="text-align:end;text-anchor:end;fill:#ffffff;stroke-width:0.264583"
         id="path445" />
      <path
         d="m 16.455266,95.094008 h 1.400525 V 94.63187 H 16.93857 v -0.606776 h 0.878415 V 93.562956 H 16.93857 v -0.613832 h 0.917221 v -0.462138 h -1.400525 z"
         style="text-align:end;text-anchor:end;fill:#ffffff;stroke-width:0.264583"
         id="path447" />
      <path
         d="m 18.303812,95.094008 h 0.469194 v -0.451554 h -0.469194 z m 0,-1.301747 h 0.469194 v -0.469193 h -0.469194 z"
         style="text-align:end;text-anchor:end;fill:#ffffff;stroke-width:0.264583"
         id="path449" />
    </g>
    <g
       aria-label="GATE/TRIG DENSITY:"
       id="text421"
       style="font-weight:600;font-size:3.52777px;line-height:1.25;font-family:'URW Gothic';-inkscape-font-specification:'URW Gothic, Semi-Bold';text-align:end;text-anchor:end;fill:#ffffff;stroke-width:0.264583">
      <path
         d="m 3.0920207,104.12172 h 1.0794976 c -0.137583,0.28928 -0.4198046,0.45861 -0.7655261,0.45861 -0.5115266,0 -0.9031091,-0.381 -0.9031091,-0.88194 0,-0.22578 0.09525,-0.47272 0.2434161,-0.63147 0.1516941,-0.16228 0.3809992,-0.254 0.6314709,-0.254 0.3033882,0 0.5573876,0.12347 0.7161373,0.34572 h 0.567971 c -0.169333,-0.46919 -0.705554,-0.81139 -1.273525,-0.81139 -0.7655261,0 -1.3723026,0.59267 -1.3723026,1.34408 0,0.76553 0.6173598,1.35467 1.4181636,1.35467 0.3951102,0 0.7302484,-0.13758 0.9877756,-0.40217 0.2398884,-0.25047 0.3739436,-0.57502 0.3739436,-0.91016 v -0.0635 H 3.0920207 Z"
         style="text-align:end;text-anchor:end;fill:#ffffff;stroke-width:0.264583"
         id="path452" />
      <path
         d="m 4.767703,105.00014 h 0.5326933 l 0.2892771,-0.67381 h 0.9278035 l 0.2786938,0.67381 H 7.328864 L 6.2352553,102.39312 H 5.8542561 Z m 0.9983589,-1.13594 0.2786938,-0.79023 0.2786939,0.79023 z"
         style="text-align:end;text-anchor:end;fill:#ffffff;stroke-width:0.264583"
         id="path454" />
      <path
         d="m 7.716917,105.00014 h 0.4833044 v -2.14489 h 0.4833045 v -0.46213 H 7.2336125 v 0.46213 H 7.716917 Z"
         style="text-align:end;text-anchor:end;fill:#ffffff;stroke-width:0.264583"
         id="path456" />
      <path
         d="m 8.930463,105.00014 h 1.400525 V 104.538 H 9.4137675 v -0.60678 h 0.8784145 v -0.46213 H 9.4137675 v -0.61384 h 0.9172205 v -0.46213 H 8.930463 Z"
         style="text-align:end;text-anchor:end;fill:#ffffff;stroke-width:0.264583"
         id="path458" />
      <path
         d="m 10.616732,105.45169 h 0.33161 l 1.13947,-3.05857 h -0.331611 z"
         style="text-align:end;text-anchor:end;fill:#ffffff;stroke-width:0.264583"
         id="path460" />
      <path
         d="m 12.733389,105.00014 h 0.483304 v -2.14489 h 0.483305 v -0.46213 h -1.449914 v 0.46213 h 0.483305 z"
         style="text-align:end;text-anchor:end;fill:#ffffff;stroke-width:0.264583"
         id="path462" />
      <path
         d="m 13.946935,105.00014 h 0.483305 v -0.99836 l 0.684387,0.99836 h 0.596193 l -0.705554,-0.96308 c 0.201083,-0.0494 0.299861,-0.0952 0.412749,-0.1905 0.179917,-0.1517 0.268111,-0.35631 0.268111,-0.61736 0,-0.26811 -0.09525,-0.49036 -0.275166,-0.64206 -0.169333,-0.14464 -0.356305,-0.19402 -0.71261,-0.19402 h -0.751415 z m 0.483305,-1.36172 v -0.78317 h 0.215194 c 0.225777,0 0.349249,0.0247 0.42686,0.0917 0.08467,0.067 0.127,0.16933 0.127,0.29633 0,0.27516 -0.15875,0.39511 -0.532694,0.39511 z"
         style="text-align:end;text-anchor:end;fill:#ffffff;stroke-width:0.264583"
         id="path464" />
      <path
         d="m 16.042431,105.00014 h 0.483304 v -2.60702 h -0.483304 z"
         style="text-align:end;text-anchor:end;fill:#ffffff;stroke-width:0.264583"
         id="path466" />
      <path
         d="m 17.972116,104.12172 h 1.079498 c -0.137583,0.28928 -0.419805,0.45861 -0.765526,0.45861 -0.511527,0 -0.903109,-0.381 -0.903109,-0.88194 0,-0.22578 0.09525,-0.47272 0.243416,-0.63147 0.151694,-0.16228 0.380999,-0.254 0.631471,-0.254 0.303388,0 0.557387,0.12347 0.716137,0.34572 h 0.567971 c -0.169333,-0.46919 -0.705554,-0.81139 -1.273525,-0.81139 -0.765526,0 -1.372303,0.59267 -1.372303,1.34408 0,0.76553 0.61736,1.35467 1.418164,1.35467 0.39511,0 0.730248,-0.13758 0.987775,-0.40217 0.239889,-0.25047 0.373944,-0.57502 0.373944,-0.91016 v -0.0635 h -1.703913 z"
         style="text-align:end;text-anchor:end;fill:#ffffff;stroke-width:0.264583"
         id="path468" />
      <path
         d="m 5.5755732,109.40985 h 0.6067764 c 0.3951103,0 0.6314709,-0.0388 0.8431371,-0.14464 0.4021657,-0.19755 0.6385263,-0.62794 0.6385263,-1.15358 0,-0.49742 -0.2046106,-0.90311 -0.5679709,-1.12183 -0.2046107,-0.12347 -0.5150545,-0.18697 -0.9242758,-0.18697 H 5.5755732 Z m 0.4833045,-0.46214 v -1.68274 h 0.09525 c 0.3104437,0 0.4727211,0.0282 0.6244153,0.10583 0.2469439,0.127 0.398638,0.40569 0.398638,0.74083 0,0.31397 -0.1446386,0.59267 -0.3774714,0.71967 -0.1446386,0.0776 -0.3457215,0.11641 -0.6349986,0.11641 z"
         style="text-align:end;text-anchor:end;fill:#ffffff;stroke-width:0.264583"
         id="path470" />
      <path
         d="m 8.0661699,109.40985 h 1.4005248 v -0.46214 H 8.5494744 v -0.60677 H 9.4278892 V 107.8788 H 8.5494744 v -0.61383 h 0.9172203 v -0.46214 H 8.0661699 Z"
         style="text-align:end;text-anchor:end;fill:#ffffff;stroke-width:0.264583"
         id="path472" />
      <path
         d="M 9.9006054,109.40985 H 10.38391 v -1.89441 l 1.090081,1.89441 h 0.539749 v -2.60702 h -0.483305 v 1.89794 l -1.079497,-1.89794 H 9.9006054 Z"
         style="text-align:end;text-anchor:end;fill:#ffffff;stroke-width:0.264583"
         id="path474" />
      <path
         d="m 12.320655,108.66549 c 0.01764,0.20461 0.0635,0.33514 0.169333,0.47625 0.155222,0.19755 0.409221,0.31397 0.687915,0.31397 0.469193,0 0.832554,-0.36336 0.832554,-0.83608 0,-0.21872 -0.07761,-0.40217 -0.232833,-0.54328 -0.102306,-0.0953 -0.183444,-0.13758 -0.440971,-0.23636 -0.246944,-0.0917 -0.254,-0.0953 -0.289278,-0.11641 -0.09525,-0.06 -0.144638,-0.14111 -0.144638,-0.23636 0,-0.15523 0.109361,-0.26459 0.26811,-0.26459 0.162278,0 0.261055,0.0988 0.275166,0.27517 h 0.500944 c -0.01058,-0.19756 -0.05645,-0.33161 -0.162278,-0.46214 -0.14111,-0.17639 -0.366888,-0.27869 -0.610304,-0.27869 -0.423332,0 -0.75847,0.32808 -0.75847,0.74083 0,0.32808 0.190499,0.57855 0.543276,0.70908 0.349249,0.13053 0.373944,0.14111 0.451555,0.20108 0.07761,0.0635 0.119944,0.15523 0.119944,0.26459 0,0.18697 -0.144639,0.3175 -0.352777,0.3175 -0.215194,0 -0.33161,-0.10584 -0.352777,-0.32456 z"
         style="text-align:end;text-anchor:end;fill:#ffffff;stroke-width:0.264583"
         id="path476" />
      <path
         d="m 14.34559,109.40985 h 0.483304 v -2.60702 H 14.34559 Z"
         style="text-align:end;text-anchor:end;fill:#ffffff;stroke-width:0.264583"
         id="path478" />
      <path
         d="m 15.580303,109.40985 h 0.483304 v -2.14488 h 0.483305 v -0.46214 h -1.449914 v 0.46214 h 0.483305 z"
         style="text-align:end;text-anchor:end;fill:#ffffff;stroke-width:0.264583"
         id="path480" />
      <path
         d="m 17.527622,109.40985 h 0.483304 v -0.96308 l 0.857248,-1.64394 h -0.52211 l -0.578554,1.19944 -0.575027,-1.19944 h -0.52211 l 0.857249,1.64394 z"
         style="text-align:end;text-anchor:end;fill:#ffffff;stroke-width:0.264583"
         id="path482" />
      <path
         d="m 19.019862,109.40985 h 0.469193 v -0.45155 h -0.469193 z m 0,-1.30175 h 0.469193 v -0.46919 h -0.469193 z"
         style="text-align:end;text-anchor:end;fill:#ffffff;stroke-width:0.264583"
         id="path484" />
    </g>
    <g
       aria-label="HALLUCIGENIA"
       transform="matrix(0.84080084,0,0,0.88140189,0,1.261743)"
       id="text7236"
       style="font-weight:600;font-size:5.93232px;line-height:1.25;font-family:'URW Gothic';-inkscape-font-specification:'URW Gothic Semi-Bold';fill:#ffffff;stroke-width:0.222461">
      <path
         d="m 14.323511,8.558465 h 0.812728 V 6.7194458 h 1.566133 V 8.558465 H 17.5151 V 4.1744804 H 16.702372 V 5.9423118 H 15.136239 V 4.1744804 h -0.812728 z"
         id="path11535" />
      <path
         d="m 17.95407,8.558465 h 0.895781 l 0.48645,-1.1330731 h 1.5602 l 0.468654,1.1330731 h 0.89578 L 20.421916,4.1744804 h -0.640691 z m 1.678847,-1.9102071 0.468653,-1.3288397 0.468654,1.3288397 z"
         id="path11537" />
      <path
         d="M 22.705857,8.558465 H 24.85929 V 7.7813311 H 23.518585 V 4.1744804 h -0.812728 z"
         id="path11539" />
      <path
         d="m 25.316071,8.558465 h 2.153432 V 7.7813311 H 26.128799 V 4.1744804 h -0.812728 z"
         id="path11541" />
      <path
         d="m 27.84322,4.1744804 v 2.7763259 c 0,0.4686532 0.07119,0.7712016 0.237293,1.0322237 0.25509,0.4033977 0.729675,0.6525552 1.239855,0.6525552 0.480518,0 0.925442,-0.2135636 1.186464,-0.5635704 0.207631,-0.2847514 0.296616,-0.611029 0.296616,-1.1212085 V 4.1744804 H 29.99072 v 2.7763259 c 0,0.3262776 -0.02373,0.4627209 -0.106782,0.6050966 -0.112714,0.1839019 -0.320345,0.296616 -0.56357,0.296616 -0.237293,0 -0.444924,-0.1127141 -0.557638,-0.296616 C 28.67968,7.4135272 28.655948,7.2770839 28.655948,6.9508063 V 4.1744804 Z"
         id="path11543" />
      <path
         d="m 34.789962,7.3364071 c -0.361871,0.3737361 -0.664419,0.5161118 -1.085614,0.5161118 -0.812728,0 -1.471216,-0.6762845 -1.471216,-1.4949447 0,-0.3559392 0.136444,-0.7356077 0.361872,-0.9966297 0.266954,-0.314413 0.646623,-0.480518 1.091547,-0.480518 0.510179,0 0.854254,0.166105 1.15087,0.5517058 h 0.907645 C 35.573029,5.0524638 35.418788,4.8448326 35.122172,4.6016075 34.718775,4.2753299 34.202663,4.0973603 33.668754,4.0973603 c -1.239855,0 -2.254282,1.0144267 -2.254282,2.2542816 0,1.2695165 1.026292,2.2839433 2.307673,2.2839433 0.901712,0 1.678846,-0.4983149 2.022921,-1.2991781 z"
         id="path11545" />
      <path
         d="m 36.267103,8.558465 h 0.812728 V 4.1744804 h -0.812728 z"
         id="path11547" />
      <path
         d="m 39.512074,7.0813173 h 1.81529 c -0.23136,0.4864502 -0.705946,0.7712016 -1.287313,0.7712016 -0.860187,0 -1.518674,-0.6406906 -1.518674,-1.48308 0,-0.3796685 0.160172,-0.7949309 0.40933,-1.0618853 0.25509,-0.2728867 0.64069,-0.4271271 1.061885,-0.4271271 0.51018,0 0.937307,0.2076312 1.204261,0.5813674 h 0.955104 C 41.867205,4.6727953 40.965493,4.0973603 40.010389,4.0973603 c -1.287313,0 -2.307673,0.9966298 -2.307673,2.2602139 0,1.2873135 1.038157,2.278011 2.384793,2.278011 0.66442,0 1.22799,-0.2313605 1.66105,-0.6762845 0.403398,-0.4211948 0.628826,-0.9669682 0.628826,-1.5305386 V 6.3219803 h -2.865311 z"
         id="path11549" />
      <path
         d="m 42.911284,8.558465 h 2.355131 V 7.7813311 H 43.724012 V 6.760972 h 1.477147 V 5.9838381 H 43.724012 V 4.9516144 h 1.542403 v -0.777134 h -2.355131 z"
         id="path11551" />
      <path
         d="M 45.996083,8.558465 H 46.80881 V 5.3728091 l 1.833087,3.1856559 h 0.907645 V 4.1744804 h -0.812728 v 3.1915883 l -1.81529,-3.1915883 h -0.925441 z"
         id="path11553" />
      <path
         d="m 50.385996,8.558465 h 0.812728 V 4.1744804 h -0.812728 z"
         id="path11555" />
      <path
         d="m 51.643631,8.558465 h 0.895781 l 0.48645,-1.1330731 h 1.5602 l 0.468653,1.1330731 h 0.895781 L 54.111477,4.1744804 h -0.640691 z m 1.678847,-1.9102071 0.468653,-1.3288397 0.468654,1.3288397 z"
         id="path11557" />
    </g>
  </g>
</svg>
