<?xml version="1.0" encoding="UTF-8" standalone="no"?>
<svg
   width="60mm"
   height="128.5mm"
   viewBox="0 0 60.000006 128.50002"
   version="1.1"
   id="svg8"
   inkscape:version="1.1 (c4e8f9ed74, 2021-05-24)"
   sodipodi:docname="Ichneumonid.svg"
   xmlns:inkscape="http://www.inkscape.org/namespaces/inkscape"
   xmlns:sodipodi="http://sodipodi.sourceforge.net/DTD/sodipodi-0.dtd"
   xmlns:xlink="http://www.w3.org/1999/xlink"
   xmlns="http://www.w3.org/2000/svg"
   xmlns:svg="http://www.w3.org/2000/svg"
   xmlns:rdf="http://www.w3.org/1999/02/22-rdf-syntax-ns#"
   xmlns:cc="http://creativecommons.org/ns#"
   xmlns:dc="http://purl.org/dc/elements/1.1/">
  <defs
     id="defs2">
    <linearGradient
       inkscape:collect="always"
       id="linearGradient16355">
      <stop
         style="stop-color:#262626;stop-opacity:1"
         offset="0"
         id="stop16351" />
      <stop
         style="stop-color:#0d0d0d;stop-opacity:1"
         offset="1"
         id="stop16353" />
    </linearGradient>
    <filter
       x="-0.30000001"
       width="1.6"
       y="-0.30000001"
       height="1.6"
       style="color-interpolation-filters:sRGB"
       inkscape:label="Felt Feather"
       id="filter3728">
      <feGaussianBlur
         stdDeviation="15 15"
         result="blur"
         id="feGaussianBlur3712" />
      <feComposite
         in="SourceGraphic"
         in2="blur"
         operator="atop"
         result="composite1"
         id="feComposite3714" />
      <feComposite
         in2="composite1"
         operator="in"
         result="composite2"
         id="feComposite3716" />
      <feComposite
         in2="composite2"
         operator="in"
         result="composite3"
         id="feComposite3718" />
      <feTurbulence
         type="fractalNoise"
         numOctaves="3"
         seed="1"
         baseFrequency="0.05 0.05"
         result="turbulence"
         id="feTurbulence3720" />
      <feDisplacementMap
         in="composite3"
         in2="turbulence"
         xChannelSelector="R"
         scale="30"
         yChannelSelector="G"
         result="map"
         id="feDisplacementMap3722" />
      <feColorMatrix
         values="1 0 0 0 0 0 1 0 0 0 0 0 1 0 0 0 0 0 1 -0 "
         result="colormatrix"
         id="feColorMatrix3724" />
      <feComposite
         in="composite3"
         in2="colormatrix"
         operator="atop"
         result="composite4"
         id="feComposite3726" />
    </filter>
    <filter
       inkscape:collect="always"
       style="color-interpolation-filters:sRGB"
       id="filter1927"
       x="-0.0010343177"
       width="1.0020686"
       y="-0.00038635989"
       height="1.0007727">
      <feGaussianBlur
         inkscape:collect="always"
         stdDeviation="0.020686142"
         id="feGaussianBlur1929" />
    </filter>
    <filter
       inkscape:collect="always"
       style="color-interpolation-filters:sRGB"
       id="filter12807"
       x="-0.0010343177"
       width="1.0020686"
       y="-0.00038635989"
       height="1.0007727">
      <feGaussianBlur
         inkscape:collect="always"
         stdDeviation="0.020686144"
         id="feGaussianBlur12805" />
    </filter>
    <linearGradient
       inkscape:collect="always"
       xlink:href="#linearGradient16355"
       id="linearGradient16349"
       x1="14.979209"
       y1="-11.974414"
       x2="11.963202"
       y2="67.196983"
       gradientUnits="userSpaceOnUse" />
  </defs>
  <sodipodi:namedview
     id="base"
     pagecolor="#ffffff"
     bordercolor="#666666"
     borderopacity="1.0"
     inkscape:pageopacity="0.0"
     inkscape:pageshadow="2"
     inkscape:zoom="1"
     inkscape:cx="244.49999"
     inkscape:cy="275.49999"
     inkscape:document-units="mm"
     inkscape:current-layer="layer4"
     showgrid="false"
     units="mm"
     inkscape:snap-bbox="true"
     inkscape:snap-page="true"
     inkscape:bbox-nodes="false"
     inkscape:snap-bbox-edge-midpoints="false"
     inkscape:window-width="1366"
     inkscape:window-height="768"
     inkscape:window-x="0"
     inkscape:window-y="0"
     inkscape:window-maximized="0"
     inkscape:snap-bbox-midpoints="true"
     inkscape:snap-nodes="false"
     inkscape:document-rotation="0"
     fit-margin-top="0"
     fit-margin-left="0"
     fit-margin-right="0"
     fit-margin-bottom="0"
     showguides="false"
     inkscape:pagecheckerboard="0" />
  <metadata
     id="metadata5">
    <rdf:RDF>
      <cc:Work
         rdf:about="">
        <dc:format>image/svg+xml</dc:format>
        <dc:type
           rdf:resource="http://purl.org/dc/dcmitype/StillImage" />
      </cc:Work>
    </rdf:RDF>
  </metadata>
  <g
     inkscape:groupmode="layer"
     id="layer4"
     inkscape:label="back 1"
     transform="translate(0,0.00971522)">
    <rect
       style="fill:url(#linearGradient16349);fill-opacity:1;stroke:#000000;stroke-width:0;stroke-opacity:1;filter:url(#filter12807)"
       id="rect1921"
       width="47.999996"
       height="128.5"
       x="0.03112038"
       y="0.048966013"
       transform="matrix(1.2901961,0,0,0.99928897,-0.00477836,-0.00310155)" />
    <g
       aria-label="ICHNEUMONID"
       transform="matrix(1.2262963,0,0,1.3280428,-5.3650233,-1.4187378)"
       id="text7891"
       style="font-weight:600;font-size:4.42934px;line-height:1.25;font-family:'URW Gothic';-inkscape-font-specification:'URW Gothic, Semi-Bold';fill:#ffffff;stroke-width:0.332202">
      <path
         d="m 14.160545,7.798357 h 0.60682 V 4.5250748 h -0.60682 z"
         id="path858" />
      <path
         d="m 17.752735,6.885913 c -0.27019,0.2790484 -0.496086,0.3853526 -0.81057,0.3853526 -0.606819,0 -1.098476,-0.5049448 -1.098476,-1.1161937 0,-0.2657604 0.101875,-0.5492381 0.27019,-0.7441291 0.19932,-0.234755 0.482798,-0.3587765 0.814998,-0.3587765 0.380924,0 0.637825,0.1240215 0.859292,0.4119286 h 0.677689 C 18.337407,5.1806171 18.222245,5.0255902 18.000778,4.8439873 17.699583,4.6003736 17.31423,4.4674934 16.915589,4.4674934 c -0.925732,0 -1.683149,0.7574171 -1.683149,1.6831492 0,0.9478787 0.766276,1.7052958 1.723013,1.7052958 0.67326,0 1.253504,-0.3720645 1.510405,-0.9700254 z"
         id="path860" />
      <path
         d="m 18.873351,7.798357 h 0.60682 V 6.4252616 h 1.169345 V 7.798357 h 0.60682 V 4.5250748 h -0.60682 V 5.8450181 H 19.480171 V 4.5250748 h -0.60682 z"
         id="path862" />
      <path
         d="m 21.885295,7.798357 h 0.606819 V 5.4198015 L 23.86078,7.798357 h 0.677689 V 4.5250748 H 23.93165 V 6.9080597 L 22.576272,4.5250748 h -0.690977 z"
         id="path864" />
      <path
         d="m 25.163006,7.798357 h 1.758448 V 7.2181135 H 25.769825 V 6.456267 h 1.102906 V 5.8760235 H 25.769825 V 5.1053184 h 1.151629 V 4.5250748 h -1.758448 z"
         id="path866" />
      <path
         d="m 27.466255,4.5250748 v 2.0729311 c 0,0.3499179 0.05315,0.5758142 0.177174,0.7707051 0.190461,0.3011952 0.544809,0.4872274 0.925732,0.4872274 0.358776,0 0.690977,-0.1594562 0.885868,-0.4207873 0.155027,-0.2126083 0.221467,-0.456222 0.221467,-0.8371452 V 4.5250748 h -0.60682 v 2.0729311 c 0,0.2436137 -0.01772,0.3454885 -0.07973,0.4517927 -0.08416,0.1373095 -0.239184,0.221467 -0.420787,0.221467 -0.177174,0 -0.332201,-0.084158 -0.416358,-0.221467 -0.06201,-0.1063042 -0.07973,-0.208179 -0.07973,-0.4517927 V 4.5250748 Z"
         id="path868" />
      <path
         d="m 30.301031,7.798357 h 0.60682 V 5.3445027 l 0.854862,2.4538543 h 0.496086 L 33.113662,5.3445027 V 7.798357 h 0.606819 V 4.5250748 h -0.832715 l -0.87258,2.4804304 -0.881439,-2.4804304 h -0.832716 z"
         id="path870" />
      <path
         d="m 35.846561,4.4674934 c -0.974455,0 -1.727442,0.7396998 -1.727442,1.6964372 0,0.9478787 0.761846,1.6920078 1.723013,1.6920078 0.952308,0 1.687578,-0.7396997 1.687578,-1.6920078 0,-0.9434494 -0.748558,-1.6964372 -1.683149,-1.6964372 z m -0.0089,0.5846729 c 0.606819,0 1.080758,0.4872274 1.080758,1.1161936 0,0.6333956 -0.460651,1.1029057 -1.080758,1.1029057 -0.620108,0 -1.107335,-0.4872274 -1.107335,-1.107335 0,-0.6333956 0.478368,-1.1117643 1.107335,-1.1117643 z"
         id="path872" />
      <path
         d="m 38.008072,7.798357 h 0.606819 V 5.4198015 l 1.368666,2.3785555 h 0.677689 V 4.5250748 H 40.054427 V 6.9080597 L 38.699049,4.5250748 h -0.690977 z"
         id="path874" />
      <path
         d="m 41.285782,7.798357 h 0.606819 V 4.5250748 h -0.606819 z"
         id="path876" />
      <path
         d="m 42.525993,7.798357 h 0.761847 c 0.496086,0 0.792852,-0.048723 1.058612,-0.1816029 0.504945,-0.2480431 0.801711,-0.7884225 0.801711,-1.4483942 0,-0.6245369 -0.256902,-1.133911 -0.713124,-1.4085301 -0.256902,-0.1550268 -0.646684,-0.234755 -1.160487,-0.234755 h -0.748559 z m 0.60682,-0.5802435 V 5.1053184 h 0.119592 c 0.389782,0 0.593532,0.035435 0.783993,0.1328802 0.310054,0.1594562 0.500516,0.509374 0.500516,0.9301613 0,0.3942113 -0.181603,0.7441291 -0.47394,0.9035854 -0.181603,0.097445 -0.434075,0.1461682 -0.797281,0.1461682 z"
         id="path878" />
    </g>
    <g
       aria-label="SHAPES"
       id="text5314"
       style="font-weight:600;font-size:3.52777px;line-height:1.25;font-family:'URW Gothic';-inkscape-font-specification:'URW Gothic, Semi-Bold';fill:#ffffff;stroke-width:0.264583"
       transform="translate(3.486328,10.000001)">
      <path
         d="m 43.513672,18.898808 c 0.01764,0.204611 0.0635,0.335138 0.169333,0.476249 0.155222,0.197555 0.409221,0.313972 0.687915,0.313972 0.469193,0 0.832554,-0.363361 0.832554,-0.836082 0,-0.218722 -0.07761,-0.402166 -0.232833,-0.543277 -0.102306,-0.09525 -0.183444,-0.137583 -0.440971,-0.23636 -0.246944,-0.09172 -0.254,-0.09525 -0.289278,-0.116417 -0.09525,-0.05997 -0.144638,-0.14111 -0.144638,-0.23636 0,-0.155222 0.109361,-0.264583 0.26811,-0.264583 0.162278,0 0.261055,0.09878 0.275166,0.275166 h 0.500944 c -0.01058,-0.197555 -0.05645,-0.33161 -0.162278,-0.462138 -0.14111,-0.176388 -0.366888,-0.278694 -0.610304,-0.278694 -0.423332,0 -0.75847,0.328083 -0.75847,0.740832 0,0.328083 0.190499,0.578554 0.543276,0.709082 0.349249,0.130527 0.373944,0.141111 0.451555,0.201083 0.07761,0.0635 0.119944,0.155222 0.119944,0.264583 0,0.186971 -0.144639,0.317499 -0.352777,0.317499 -0.215194,0 -0.33161,-0.105833 -0.352777,-0.324555 z"
         id="path13277" />
      <path
         d="m 45.538607,19.643167 h 0.483304 v -1.093608 h 0.931331 v 1.093608 h 0.483305 v -2.607022 h -0.483305 v 1.051276 h -0.931331 v -1.051276 h -0.483304 z"
         id="path13279" />
      <path
         d="m 47.69759,19.643167 h 0.532693 l 0.289277,-0.673804 h 0.927804 l 0.278694,0.673804 h 0.532693 l -1.093609,-2.607022 h -0.380999 z m 0.998359,-1.135941 0.278694,-0.790221 0.278693,0.790221 z"
         id="path13281" />
      <path
         d="m 50.523333,19.643167 h 0.483304 v -0.991303 h 0.155222 c 0.370416,0 0.539749,-0.02822 0.684388,-0.116416 0.211666,-0.134056 0.342193,-0.395111 0.342193,-0.694971 0,-0.29986 -0.126999,-0.546804 -0.352777,-0.684387 -0.148166,-0.08819 -0.324555,-0.119945 -0.666748,-0.119945 h -0.645582 z m 0.483304,-1.453441 v -0.691443 h 0.162278 c 0.158749,0 0.232833,0.0071 0.306916,0.02469 0.14111,0.0388 0.225777,0.162277 0.225777,0.324555 0,0.126999 -0.05644,0.225777 -0.15875,0.282221 -0.07408,0.03881 -0.20461,0.05997 -0.39511,0.05997 z"
         id="path13283" />
      <path
         d="m 52.488298,19.643167 h 1.400524 V 19.18103 h -0.91722 v -0.606777 h 0.878415 v -0.462138 h -0.878415 v -0.613832 h 0.91722 v -0.462138 h -1.400524 z"
         id="path13285" />
      <path
         d="m 54.142811,18.898808 c 0.01764,0.204611 0.0635,0.335138 0.169333,0.476249 0.155222,0.197555 0.409221,0.313972 0.687915,0.313972 0.469193,0 0.832554,-0.363361 0.832554,-0.836082 0,-0.218722 -0.07761,-0.402166 -0.232833,-0.543277 -0.102306,-0.09525 -0.183444,-0.137583 -0.440972,-0.23636 -0.246943,-0.09172 -0.253999,-0.09525 -0.289277,-0.116417 -0.09525,-0.05997 -0.144638,-0.14111 -0.144638,-0.23636 0,-0.155222 0.109361,-0.264583 0.26811,-0.264583 0.162278,0 0.261055,0.09878 0.275166,0.275166 h 0.500944 c -0.01058,-0.197555 -0.05644,-0.33161 -0.162278,-0.462138 -0.141111,-0.176388 -0.366888,-0.278694 -0.610304,-0.278694 -0.423332,0 -0.75847,0.328083 -0.75847,0.740832 0,0.328083 0.190499,0.578554 0.543276,0.709082 0.349249,0.130527 0.373944,0.141111 0.451555,0.201083 0.07761,0.0635 0.119944,0.155222 0.119944,0.264583 0,0.186971 -0.144639,0.317499 -0.352777,0.317499 -0.215194,0 -0.331611,-0.105833 -0.352777,-0.324555 z"
         id="path13287" />
    </g>
    <g
       aria-label="SELECT"
       id="text15230"
       style="font-weight:600;font-size:3.52777px;line-height:1.25;font-family:'URW Gothic';-inkscape-font-specification:'URW Gothic, Semi-Bold';fill:#ffffff;stroke-width:0.264583"
       transform="translate(0.311001)">
      <path
         d="m 46.688999,43.89881 c 0.01764,0.204611 0.0635,0.335138 0.169333,0.476249 0.155222,0.197555 0.409221,0.313971 0.687915,0.313971 0.469194,0 0.832554,-0.36336 0.832554,-0.836081 0,-0.218722 -0.07761,-0.402166 -0.232833,-0.543277 -0.102305,-0.09525 -0.183444,-0.137583 -0.440971,-0.23636 -0.246944,-0.09172 -0.254,-0.09525 -0.289277,-0.116417 -0.09525,-0.05997 -0.144639,-0.14111 -0.144639,-0.23636 0,-0.155222 0.109361,-0.264583 0.268111,-0.264583 0.162277,0 0.261055,0.09878 0.275166,0.275166 h 0.500943 c -0.01058,-0.197555 -0.05644,-0.33161 -0.162277,-0.462138 -0.141111,-0.176388 -0.366888,-0.278694 -0.610305,-0.278694 -0.423332,0 -0.75847,0.328083 -0.75847,0.740832 0,0.328083 0.190499,0.578554 0.543276,0.709082 0.34925,0.130527 0.373944,0.141111 0.451555,0.201083 0.07761,0.0635 0.119944,0.155222 0.119944,0.264582 0,0.186972 -0.144638,0.3175 -0.352777,0.3175 -0.215194,0 -0.33161,-0.105833 -0.352777,-0.324555 z"
         id="path17572" />
      <path
         d="m 48.713934,44.643169 h 1.400525 v -0.462137 h -0.917221 v -0.606777 h 0.878415 v -0.462138 h -0.878415 v -0.613832 h 0.917221 v -0.462138 h -1.400525 z"
         id="path17574" />
      <path
         d="M 50.548369,44.643169 H 51.82895 V 44.181032 H 51.031674 V 42.036147 H 50.548369 Z"
         id="path17576" />
      <path
         d="m 52.100583,44.643169 h 1.400525 v -0.462137 h -0.91722 v -0.606777 h 0.878414 v -0.462138 h -0.878414 v -0.613832 h 0.91722 v -0.462138 h -1.400525 z"
         id="path17578" />
      <path
         d="m 55.794148,43.916449 c -0.215194,0.222249 -0.39511,0.306916 -0.645582,0.306916 -0.483305,0 -0.874887,-0.402166 -0.874887,-0.888998 0,-0.211666 0.08114,-0.437444 0.215194,-0.592666 0.15875,-0.186971 0.384527,-0.285749 0.64911,-0.285749 0.303388,0 0.507998,0.09878 0.684387,0.328083 h 0.539749 c -0.102306,-0.225778 -0.194028,-0.34925 -0.370416,-0.493888 -0.239888,-0.194028 -0.546804,-0.299861 -0.864304,-0.299861 -0.737304,0 -1.340552,0.603249 -1.340552,1.340553 0,0.754943 0.610304,1.358191 1.372302,1.358191 0.536221,0 0.998359,-0.296332 1.20297,-0.772581 z"
         id="path17580" />
      <path
         d="m 56.937136,44.643169 h 0.483305 v -2.144884 h 0.483304 v -0.462138 h -1.449913 v 0.462138 h 0.483304 z"
         id="path17582" />
    </g>
    <g
       aria-label="GATE"
       id="text18880"
       style="font-weight:600;font-size:3.52777px;line-height:1.25;font-family:'URW Gothic';-inkscape-font-specification:'URW Gothic, Semi-Bold';fill:#ffffff;stroke-width:0.264583">
      <path
         d="m 48.075968,58.764755 h 1.079498 c -0.137583,0.289277 -0.419805,0.45861 -0.765526,0.45861 -0.511527,0 -0.90311,-0.380999 -0.90311,-0.881943 0,-0.225777 0.09525,-0.472721 0.243417,-0.631471 0.151694,-0.162277 0.380999,-0.253999 0.63147,-0.253999 0.303389,0 0.557388,0.123472 0.716138,0.345721 h 0.567971 c -0.169333,-0.469193 -0.705554,-0.811387 -1.273525,-0.811387 -0.765526,0 -1.372303,0.592666 -1.372303,1.344081 0,0.765526 0.61736,1.354663 1.418164,1.354663 0.39511,0 0.730248,-0.137583 0.987775,-0.402165 0.239889,-0.250472 0.373944,-0.575027 0.373944,-0.910165 v -0.0635 h -1.703913 z"
         id="path22212" />
      <path
         d="m 49.75165,59.643169 h 0.532694 l 0.289277,-0.673804 h 0.927803 l 0.278694,0.673804 h 0.532693 l -1.093608,-2.607022 h -0.381 z m 0.998359,-1.135942 0.278694,-0.79022 0.278694,0.79022 z"
         id="path22214" />
      <path
         d="m 52.700864,59.643169 h 0.483305 v -2.144884 h 0.483304 V 57.036147 H 52.21756 v 0.462138 h 0.483304 z"
         id="path22216" />
      <path
         d="m 53.91441,59.643169 h 1.400525 v -0.462137 h -0.91722 v -0.606777 h 0.878415 v -0.462138 h -0.878415 v -0.613832 h 0.91722 V 57.036147 H 53.91441 Z"
         id="path22218" />
    </g>
    <rect
       style="fill:#ffffff;fill-opacity:0;stroke:#ffffff;stroke-width:0.290103;stroke-miterlimit:4;stroke-dasharray:none"
       id="rect22401"
       width="41.663517"
       height="9.959897"
       x="4.168242"
       y="52.135338" />
    <rect
       style="fill:#ffffff;fill-opacity:0;stroke:#ffffff;stroke-width:0.245706;stroke-miterlimit:4;stroke-dasharray:none"
       id="rect22401-6"
       width="29.754295"
       height="10.004294"
       x="25.122852"
       y="101.10213" />
    <g
       aria-label="ARRIVE"
       id="text2826"
       style="font-weight:600;font-size:3.52777px;line-height:1.25;font-family:'URW Gothic';-inkscape-font-specification:'URW Gothic, Semi-Bold';fill:#ffffff;stroke-width:0.264583"
       transform="translate(0,5.0000018)">
      <path
         d="m 47.000002,64.597305 h 0.532693 l 0.289277,-0.673804 h 0.927804 l 0.278694,0.673804 h 0.532693 l -1.093609,-2.607022 h -0.380999 z m 0.998359,-1.135942 0.278694,-0.79022 0.278693,0.79022 z"
         id="path18962" />
      <path
         d="m 49.825745,64.597305 h 0.483304 v -0.998359 l 0.684388,0.998359 h 0.596193 l -0.705554,-0.963081 c 0.201083,-0.04939 0.29986,-0.09525 0.412749,-0.1905 0.179916,-0.151694 0.26811,-0.356304 0.26811,-0.617359 0,-0.268111 -0.09525,-0.49036 -0.275166,-0.642054 -0.169333,-0.144639 -0.356304,-0.194028 -0.712609,-0.194028 h -0.751415 z m 0.483304,-1.361719 v -0.783165 h 0.215194 c 0.225778,0 0.34925,0.0247 0.42686,0.09172 0.08467,0.06703 0.127,0.169333 0.127,0.296333 0,0.275166 -0.158749,0.39511 -0.532693,0.39511 z"
         id="path18964" />
      <path
         d="m 51.92124,64.597305 h 0.483305 v -0.998359 l 0.684387,0.998359 h 0.596193 l -0.705554,-0.963081 c 0.201083,-0.04939 0.29986,-0.09525 0.412749,-0.1905 0.179916,-0.151694 0.268111,-0.356304 0.268111,-0.617359 0,-0.268111 -0.09525,-0.49036 -0.275166,-0.642054 -0.169333,-0.144639 -0.356305,-0.194028 -0.71261,-0.194028 H 51.92124 Z m 0.483305,-1.361719 v -0.783165 h 0.215193 c 0.225778,0 0.34925,0.0247 0.426861,0.09172 0.08467,0.06703 0.126999,0.169333 0.126999,0.296333 0,0.275166 -0.158749,0.39511 -0.532693,0.39511 z"
         id="path18966" />
      <path
         d="m 54.016735,64.597305 h 0.483304 v -2.607022 h -0.483304 z"
         id="path18968" />
      <path
         d="m 55.780611,64.597305 h 0.39511 l 1.008942,-2.607022 h -0.507998 l -0.702027,1.982607 -0.702026,-1.982607 h -0.507999 z"
         id="path18970" />
      <path
         d="m 57.438656,64.597305 h 1.400525 v -0.462138 h -0.91722 v -0.606776 h 0.878414 v -0.462138 h -0.878414 v -0.613832 h 0.91722 v -0.462138 h -1.400525 z"
         id="path18972" />
    </g>
    <g
       aria-label="DEPART"
       id="text18028"
       style="font-weight:600;font-size:3.52777px;line-height:1;font-family:'URW Gothic';-inkscape-font-specification:'URW Gothic, Semi-Bold';fill:#ffffff;stroke-width:0.264583">
      <path
         d="m 47.000001,79.597305 h 0.606777 c 0.39511,0 0.63147,-0.03881 0.843137,-0.144638 0.402165,-0.197555 0.638526,-0.627943 0.638526,-1.153581 0,-0.497416 -0.204611,-0.903109 -0.567971,-1.121831 -0.204611,-0.123472 -0.515054,-0.186972 -0.924276,-0.186972 h -0.596193 z m 0.483305,-0.462138 v -1.682746 h 0.09525 c 0.310444,0 0.472722,0.02822 0.624416,0.105833 0.246944,0.127 0.398638,0.405694 0.398638,0.740832 0,0.313971 -0.144639,0.592665 -0.377472,0.719665 -0.144638,0.07761 -0.345721,0.116416 -0.634998,0.116416 z"
         id="path18993" />
      <path
         d="m 49.490598,79.597305 h 1.400525 v -0.462138 h -0.917221 v -0.606776 h 0.878415 v -0.462138 h -0.878415 v -0.613832 h 0.917221 v -0.462138 h -1.400525 z"
         id="path18995" />
      <path
         d="m 51.325033,79.597305 h 0.483305 v -0.991303 h 0.155222 c 0.370416,0 0.539749,-0.02822 0.684387,-0.116416 0.211666,-0.134056 0.342194,-0.395111 0.342194,-0.694971 0,-0.299861 -0.127,-0.546805 -0.352777,-0.684388 -0.148167,-0.08819 -0.324555,-0.119944 -0.666749,-0.119944 h -0.645582 z m 0.483305,-1.453441 v -0.691443 h 0.162277 c 0.15875,0 0.232833,0.0071 0.306916,0.02469 0.141111,0.03881 0.225778,0.162277 0.225778,0.324554 0,0.127 -0.05645,0.225778 -0.15875,0.282222 -0.07408,0.0388 -0.204611,0.05997 -0.39511,0.05997 z"
         id="path18997" />
      <path
         d="m 52.863133,79.597305 h 0.532694 l 0.289277,-0.673804 h 0.927803 l 0.278694,0.673804 h 0.532693 l -1.093608,-2.607022 h -0.380999 z m 0.998359,-1.135942 0.278694,-0.79022 0.278694,0.79022 z"
         id="path18999" />
      <path
         d="m 55.688876,79.597305 h 0.483305 v -0.998359 l 0.684387,0.998359 h 0.596193 l -0.705554,-0.963081 c 0.201083,-0.04939 0.299861,-0.09525 0.412749,-0.1905 0.179917,-0.151694 0.268111,-0.356304 0.268111,-0.617359 0,-0.268111 -0.09525,-0.49036 -0.275166,-0.642054 -0.169333,-0.144639 -0.356305,-0.194028 -0.71261,-0.194028 h -0.751415 z m 0.483305,-1.361719 v -0.783165 h 0.215194 c 0.225777,0 0.349249,0.02469 0.42686,0.09172 0.08467,0.06703 0.127,0.169333 0.127,0.296333 0,0.275166 -0.15875,0.39511 -0.532694,0.39511 z"
         id="path19001" />
      <path
         d="m 58.045423,79.597305 h 0.483304 v -2.144884 h 0.483305 v -0.462138 h -1.449914 v 0.462138 h 0.483305 z"
         id="path19003" />
    </g>
    <path
       style="fill:#ffffff;stroke:#ffffff;stroke-width:0.453;stroke-linecap:butt;stroke-linejoin:miter;stroke-miterlimit:4;stroke-dasharray:none;stroke-opacity:1"
       d="M 50,94.216785 H 10"
       id="path1092" />
    <g
       aria-label="ENABLE"
       transform="scale(1.0000156,0.99998442)"
       id="text4193"
       style="font-weight:600;font-size:3.52782px;line-height:1.25;font-family:'URW Gothic';-inkscape-font-specification:'URW Gothic, Semi-Bold';fill:#ffffff;stroke-width:0.264587">
      <path
         d="m 46.999268,89.598701 h 1.400545 V 89.136557 H 47.48258 v -0.606785 h 0.878427 V 88.067628 H 47.48258 v -0.613841 h 0.917233 v -0.462145 h -1.400545 z"
         id="path5155" />
      <path
         d="m 48.83373,89.598701 h 0.483311 v -1.894439 l 1.090096,1.894439 h 0.539757 V 86.991642 H 50.463583 V 88.88961 L 49.38407,86.991642 h -0.55034 z"
         id="path5157" />
      <path
         d="m 51.20795,89.598701 h 0.532701 l 0.289281,-0.673813 h 0.927817 l 0.278697,0.673813 h 0.532701 l -1.093624,-2.607059 h -0.381004 z m 0.998373,-1.135958 0.278698,-0.790231 0.278698,0.790231 z"
         id="path5159" />
      <path
         d="m 54.023149,89.598701 h 0.69498 c 0.289282,0 0.500951,-0.04586 0.659703,-0.14464 0.215197,-0.130529 0.33867,-0.363366 0.33867,-0.63148 0,-0.165807 -0.04586,-0.321032 -0.127001,-0.426866 -0.07408,-0.09878 -0.148169,-0.148169 -0.317504,-0.218725 0.211669,-0.109362 0.289281,-0.24342 0.289281,-0.490367 0,-0.24342 -0.105834,-0.448033 -0.296337,-0.567979 -0.155224,-0.09878 -0.317503,-0.127002 -0.705564,-0.127002 h -0.536228 z m 0.483311,-0.462144 v -0.666758 h 0.229308 c 0.335143,0 0.493895,0.109362 0.493895,0.338671 0,0.229308 -0.14464,0.328087 -0.483311,0.328087 z m 0,-1.139486 V 87.46437 h 0.197558 c 0.254003,0 0.373949,0.08467 0.373949,0.264587 0,0.186974 -0.123474,0.268114 -0.416283,0.268114 z"
         id="path5161" />
      <path
         d="m 56.069284,89.598701 h 1.280599 v -0.462144 h -0.797287 v -2.144915 h -0.483312 z"
         id="path5163" />
      <path
         d="m 57.62152,89.598701 h 1.400544 v -0.462144 h -0.917233 v -0.606785 h 0.878427 v -0.462144 h -0.878427 v -0.613841 h 0.917233 V 86.991642 H 57.62152 Z"
         id="path5165" />
    </g>
    <g
       aria-label="CROSSING:"
       id="text7415"
       style="font-weight:600;font-size:3.52777px;line-height:1.25;font-family:'URW Gothic';-inkscape-font-specification:'URW Gothic, Semi-Bold';fill:#ffffff;stroke-width:0.264583"
       transform="translate(-3,-3.0000052)">
      <path
         d="m 7.0073012,101.91645 c -0.215194,0.22225 -0.3951102,0.30692 -0.6455819,0.30692 -0.4833045,0 -0.874887,-0.40217 -0.874887,-0.889 0,-0.21167 0.081139,-0.43744 0.215194,-0.59266 0.1587496,-0.18698 0.3845269,-0.28575 0.6491097,-0.28575 0.3033882,0 0.5079989,0.0988 0.6843874,0.32808 H 7.5752722 C 7.4729668,100.55826 7.3812448,100.43479 7.2048563,100.29015 6.964968,100.09612 6.658052,99.99029 6.3405527,99.99029 5.6032487,99.99029 5,100.59354 5,101.33084 c 0,0.75495 0.6103043,1.35819 1.3723026,1.35819 0.536221,0 0.9983589,-0.29633 1.2029696,-0.77258 z"
         id="path9499" />
      <path
         d="m 7.8857116,102.64317 h 0.4833045 v -0.99836 l 0.6843874,0.99836 h 0.5961931 l -0.705554,-0.96308 c 0.2010829,-0.0494 0.2998605,-0.0953 0.4127491,-0.1905 0.1799163,-0.15169 0.2681105,-0.3563 0.2681105,-0.61736 0,-0.26811 -0.09525,-0.49036 -0.275166,-0.64205 -0.169333,-0.14464 -0.3563048,-0.19403 -0.7126096,-0.19403 h -0.751415 z m 0.4833045,-1.36172 v -0.78316 h 0.215194 c 0.2257773,0 0.3492492,0.0247 0.4268601,0.0917 0.084666,0.067 0.1269998,0.16933 0.1269998,0.29633 0,0.27517 -0.1587497,0.39511 -0.5326933,0.39511 z"
         id="path9501" />
      <path
         d="m 11.187703,99.99029 c -0.77611,0 -1.3758305,0.58914 -1.3758305,1.35114 0,0.75494 0.6067765,1.3476 1.3723025,1.3476 0.758471,0 1.34408,-0.58913 1.34408,-1.3476 0,-0.75142 -0.596193,-1.35114 -1.340552,-1.35114 z m -0.0071,0.46567 c 0.483305,0 0.860776,0.38805 0.860776,0.88899 0,0.50447 -0.366888,0.87842 -0.860776,0.87842 -0.493887,0 -0.881942,-0.38806 -0.881942,-0.88194 0,-0.50448 0.380999,-0.88547 0.881942,-0.88547 z"
         id="path9503" />
      <path
         d="m 12.715217,101.89881 c 0.01764,0.20461 0.0635,0.33514 0.169332,0.47625 0.155222,0.19756 0.409222,0.31397 0.687916,0.31397 0.469193,0 0.832553,-0.36336 0.832553,-0.83608 0,-0.21872 -0.07761,-0.40216 -0.232832,-0.54327 -0.102306,-0.0953 -0.183444,-0.13759 -0.440972,-0.23636 -0.246944,-0.0917 -0.253999,-0.0952 -0.289277,-0.11642 -0.09525,-0.06 -0.144638,-0.14111 -0.144638,-0.23636 0,-0.15522 0.10936,-0.26458 0.26811,-0.26458 0.162278,0 0.261055,0.0988 0.275166,0.27516 h 0.500944 c -0.01058,-0.19755 -0.05645,-0.33161 -0.162278,-0.46214 -0.141111,-0.17638 -0.366888,-0.27869 -0.610304,-0.27869 -0.423333,0 -0.758471,0.32808 -0.758471,0.74083 0,0.32808 0.1905,0.57856 0.543277,0.70908 0.349249,0.13053 0.373944,0.14111 0.451554,0.20109 0.07761,0.0635 0.119945,0.15522 0.119945,0.26458 0,0.18697 -0.144639,0.3175 -0.352777,0.3175 -0.215194,0 -0.331611,-0.10583 -0.352777,-0.32456 z"
         id="path9505" />
      <path
         d="m 14.609618,101.89881 c 0.01764,0.20461 0.0635,0.33514 0.169333,0.47625 0.155222,0.19756 0.409221,0.31397 0.687915,0.31397 0.469194,0 0.832554,-0.36336 0.832554,-0.83608 0,-0.21872 -0.07761,-0.40216 -0.232833,-0.54327 -0.102305,-0.0953 -0.183444,-0.13759 -0.440971,-0.23636 -0.246944,-0.0917 -0.254,-0.0952 -0.289277,-0.11642 -0.09525,-0.06 -0.144639,-0.14111 -0.144639,-0.23636 0,-0.15522 0.109361,-0.26458 0.268111,-0.26458 0.162277,0 0.261055,0.0988 0.275166,0.27516 h 0.500943 c -0.01058,-0.19755 -0.05644,-0.33161 -0.162277,-0.46214 -0.141111,-0.17638 -0.366888,-0.27869 -0.610305,-0.27869 -0.423332,0 -0.75847,0.32808 -0.75847,0.74083 0,0.32808 0.190499,0.57856 0.543276,0.70908 0.34925,0.13053 0.373944,0.14111 0.451555,0.20109 0.07761,0.0635 0.119944,0.15522 0.119944,0.26458 0,0.18697 -0.144638,0.3175 -0.352777,0.3175 -0.215194,0 -0.33161,-0.10583 -0.352777,-0.32456 z"
         id="path9507" />
      <path
         d="m 16.634553,102.64317 h 0.483305 v -2.60702 h -0.483305 z"
         id="path9509" />
      <path
         d="m 17.622324,102.64317 h 0.483305 v -1.89441 l 1.090081,1.89441 h 0.539748 v -2.60702 h -0.483304 v 1.89794 l -1.079498,-1.89794 h -0.550332 z"
         id="path9511" />
      <path
         d="m 21.188897,101.76476 h 1.079498 c -0.137583,0.28928 -0.419805,0.45861 -0.765526,0.45861 -0.511527,0 -0.903109,-0.381 -0.903109,-0.88194 0,-0.22578 0.09525,-0.47273 0.243416,-0.63147 0.151694,-0.16228 0.380999,-0.254 0.631471,-0.254 0.303388,0 0.557387,0.12347 0.716137,0.34572 h 0.567971 c -0.169333,-0.4692 -0.705554,-0.81139 -1.273525,-0.81139 -0.765526,0 -1.372303,0.59267 -1.372303,1.34408 0,0.76553 0.61736,1.35466 1.418164,1.35466 0.39511,0 0.730248,-0.13758 0.987776,-0.40216 0.239888,-0.25047 0.373943,-0.57503 0.373943,-0.91017 v -0.0635 h -1.703913 z"
         id="path9513" />
      <path
         d="m 23.376106,102.64317 h 0.469193 v -0.45155 h -0.469193 z m 0,-1.30174 h 0.469193 v -0.4692 h -0.469193 z"
         id="path9515" />
    </g>
    <g
       aria-label="OUTPUT:"
       id="text23126"
       style="font-weight:600;font-size:3.52777px;line-height:1.25;font-family:'URW Gothic';-inkscape-font-specification:'URW Gothic, Semi-Bold';fill:#ffffff;stroke-width:0.264583"
       transform="translate(-17.963808,-2.6047112)">
      <g
         aria-label="OUTPUT/SWITCHED:"
         id="text41925"
         style="stroke-width:0.0700042">
        <path
           d="m 43.839638,99.594996 c -0.776109,0 -1.37583,0.589134 -1.37583,1.351134 0,0.75494 0.606777,1.34761 1.372303,1.34761 0.75847,0 1.34408,-0.58914 1.34408,-1.34761 0,-0.75141 -0.596193,-1.351134 -1.340553,-1.351134 z m -0.0071,0.465664 c 0.483304,0 0.860776,0.38806 0.860776,0.889 0,0.50447 -0.366888,0.87841 -0.860776,0.87841 -0.493888,0 -0.881943,-0.38805 -0.881943,-0.88194 0,-0.50447 0.381,-0.88547 0.881943,-0.88547 z"
           id="path43051" />
        <path
           d="m 45.561184,99.640857 v 1.650993 c 0,0.2787 0.04233,0.45861 0.141111,0.61384 0.151694,0.23988 0.433916,0.38805 0.737304,0.38805 0.285749,0 0.550332,-0.127 0.705554,-0.33514 0.123472,-0.16933 0.176388,-0.36336 0.176388,-0.66675 v -1.650993 h -0.483304 v 1.650993 c 0,0.19403 -0.01411,0.27517 -0.0635,0.35984 -0.06703,0.10936 -0.1905,0.17638 -0.335138,0.17638 -0.141111,0 -0.264583,-0.067 -0.331611,-0.17638 -0.04939,-0.0847 -0.0635,-0.16581 -0.0635,-0.35984 v -1.650993 z"
           id="path43053" />
        <path
           d="m 48.069423,102.24788 h 0.483304 v -2.14489 h 0.483305 v -0.462133 h -1.449914 v 0.462133 h 0.483305 z"
           id="path43055" />
        <path
           d="m 49.282969,102.24788 h 0.483305 v -0.9913 h 0.155222 c 0.370415,0 0.539748,-0.0282 0.684387,-0.11642 0.211666,-0.13406 0.342194,-0.39511 0.342194,-0.69497 0,-0.29986 -0.127,-0.546806 -0.352777,-0.684389 -0.148167,-0.08819 -0.324555,-0.119944 -0.666749,-0.119944 h -0.645582 z m 0.483305,-1.45344 v -0.69145 h 0.162277 c 0.15875,0 0.232833,0.007 0.306916,0.0247 0.141111,0.0388 0.225777,0.16228 0.225777,0.32455 0,0.127 -0.05644,0.22578 -0.158749,0.28223 -0.07408,0.0388 -0.204611,0.06 -0.395111,0.06 z"
           id="path43057" />
        <path
           d="m 51.23735,99.640857 v 1.650993 c 0,0.2787 0.04233,0.45861 0.14111,0.61384 0.151695,0.23988 0.433916,0.38805 0.737304,0.38805 0.28575,0 0.550333,-0.127 0.705554,-0.33514 0.123472,-0.16933 0.176389,-0.36336 0.176389,-0.66675 v -1.650993 h -0.483305 v 1.650993 c 0,0.19403 -0.01411,0.27517 -0.0635,0.35984 -0.06703,0.10936 -0.1905,0.17638 -0.335139,0.17638 -0.14111,0 -0.264582,-0.067 -0.33161,-0.17638 -0.04939,-0.0847 -0.0635,-0.16581 -0.0635,-0.35984 v -1.650993 z"
           id="path43059" />
        <path
           d="m 53.745589,102.24788 h 0.483304 v -2.14489 h 0.483305 v -0.462133 h -1.449914 v 0.462133 h 0.483305 z"
           id="path43061" />
        <path
           d="m 54.810969,102.69943 h 0.33161 l 1.13947,-3.058573 h -0.33161 z"
           id="path43063" />
        <path
           d="m 56.391406,101.50352 c 0.01764,0.20461 0.0635,0.33514 0.169333,0.47625 0.155222,0.19755 0.409221,0.31397 0.687915,0.31397 0.469193,0 0.832554,-0.36336 0.832554,-0.83608 0,-0.21872 -0.07761,-0.40217 -0.232833,-0.54328 -0.102305,-0.0952 -0.183444,-0.13758 -0.440971,-0.23636 -0.246944,-0.0917 -0.254,-0.0953 -0.289277,-0.11642 -0.09525,-0.06 -0.144639,-0.14111 -0.144639,-0.23636 0,-0.15522 0.109361,-0.26458 0.268111,-0.26458 0.162277,0 0.261055,0.0988 0.275166,0.27517 h 0.500943 c -0.01058,-0.19756 -0.05644,-0.33161 -0.162277,-0.46214 -0.141111,-0.176389 -0.366889,-0.278694 -0.610305,-0.278694 -0.423332,0 -0.75847,0.328083 -0.75847,0.740834 0,0.32808 0.190499,0.57855 0.543276,0.70908 0.34925,0.13053 0.373944,0.14111 0.451555,0.20108 0.07761,0.0635 0.119944,0.15522 0.119944,0.26459 0,0.18697 -0.144638,0.31749 -0.352777,0.31749 -0.215194,0 -0.33161,-0.10583 -0.352777,-0.32455 z"
           id="path43065" />
        <path
           d="m 58.934921,102.24788 h 0.380999 l 0.430388,-1.72508 0.419804,1.72508 h 0.384527 l 0.761999,-2.607023 H 60.81875 l -0.462138,1.820333 -0.437444,-1.820333 h -0.352777 l -0.444499,1.820333 -0.45861,-1.820333 h -0.493888 z"
           id="path43067" />
        <path
           d="m 61.559581,102.24788 h 0.483304 v -2.607023 h -0.483304 z"
           id="path43069" />
        <path
           d="m 62.794294,102.24788 h 0.483304 v -2.14489 h 0.483305 v -0.462133 h -1.449914 v 0.462133 h 0.483305 z"
           id="path43071" />
        <path
           d="m 65.80347,101.52116 c -0.215193,0.22225 -0.39511,0.30691 -0.645581,0.30691 -0.483305,0 -0.874887,-0.40216 -0.874887,-0.88899 0,-0.21167 0.08114,-0.43745 0.215194,-0.59267 0.158749,-0.18697 0.384527,-0.28575 0.649109,-0.28575 0.303388,0 0.507999,0.0988 0.684388,0.32808 h 0.539748 c -0.102305,-0.22577 -0.194027,-0.34925 -0.370415,-0.493884 -0.239889,-0.194027 -0.546805,-0.29986 -0.864304,-0.29986 -0.737304,0 -1.340553,0.603244 -1.340553,1.340554 0,0.75494 0.610305,1.35819 1.372303,1.35819 0.536221,0 0.998359,-0.29633 1.202969,-0.77258 z"
           id="path43073" />
        <path
           d="m 66.695991,102.24788 h 0.483304 v -1.09361 h 0.931332 v 1.09361 h 0.483304 v -2.607023 h -0.483304 v 1.051273 h -0.931332 v -1.051273 h -0.483304 z"
           id="path43075" />
        <path
           d="m 69.094869,102.24788 h 1.400525 v -0.46214 h -0.917221 v -0.60678 h 0.878415 v -0.46213 h -0.878415 v -0.61384 h 0.917221 v -0.462133 h -1.400525 z"
           id="path43077" />
        <path
           d="m 70.929303,102.24788 h 0.606777 c 0.39511,0 0.631471,-0.0388 0.843137,-0.14464 0.402166,-0.19755 0.638526,-0.62794 0.638526,-1.15358 0,-0.49742 -0.20461,-0.90311 -0.567971,-1.121831 -0.20461,-0.123472 -0.515054,-0.186972 -0.924276,-0.186972 h -0.596193 z m 0.483305,-0.46214 v -1.68275 h 0.09525 c 0.310443,0 0.472721,0.0282 0.624415,0.10584 0.246944,0.127 0.398638,0.40569 0.398638,0.74083 0,0.31397 -0.144639,0.59267 -0.377471,0.71966 -0.144639,0.0776 -0.345722,0.11642 -0.634999,0.11642 z"
           id="path43079" />
        <path
           d="m 73.412851,102.24788 h 0.469193 v -0.45156 h -0.469193 z m 0,-1.30175 h 0.469193 v -0.46919 h -0.469193 z"
           id="path43081" />
      </g>
    </g>
    <path
       style="fill:#ffffff;stroke-width:0.0137486"
       d="m 28.582624,122.95957 c -0.01487,-0.0133 -0.03999,-0.0568 -0.05432,-0.0952 -0.02846,-0.0765 -0.02772,-0.0759 -0.08872,-0.0558 -0.0357,0.0114 -0.04668,0.009 -0.069,-0.017 -0.02195,-0.0252 -0.02548,-0.0433 -0.02028,-0.10541 0.0057,-0.0618 0.01302,-0.0805 0.04333,-0.10485 0.02028,-0.017 0.07719,-0.0752 0.1261,-0.13079 0.0491,-0.0557 0.124426,-0.13039 0.16739,-0.16617 0.04296,-0.0358 0.12145,-0.11375 0.174643,-0.17355 0.210892,-0.23695 0.434468,-0.45725 0.516881,-0.50923 0.05431,-0.0343 0.152324,-0.15425 0.152324,-0.18644 0,-0.0547 -0.07292,-0.10013 -0.250917,-0.15613 -0.08258,-0.0259 -0.102851,-0.0379 -0.102851,-0.0603 0,-0.0206 0.01302,-0.031 0.05152,-0.04 0.120706,-0.0282 0.116243,-0.0232 0.111779,-0.12282 -0.0037,-0.0862 -0.0019,-0.0917 0.04222,-0.141 0.06398,-0.0709 0.0969,-0.20508 0.0969,-0.39548 0,-0.0783 0.0075,-0.16107 0.01488,-0.18359 0.0075,-0.0225 0.01953,-0.0543 0.02548,-0.0703 0.06379,-0.16939 0.101549,-0.31298 0.102108,-0.38686 2.97e-4,-0.0458 0.0057,-0.11299 0.01302,-0.14933 0.0075,-0.0363 0.0186,-0.1039 0.02381,-0.15027 0.0057,-0.0463 0.02363,-0.11242 0.03942,-0.14687 0.01674,-0.0345 0.03329,-0.0803 0.03888,-0.1018 0.01302,-0.0532 -0.01674,-0.10046 -0.06362,-0.10046 -0.01972,0 -0.168505,0.0435 -0.330632,0.0965 -0.555881,0.18225 -0.822682,0.26796 -1.041013,0.33455 -0.04241,0.0133 -0.221978,0.0636 -0.398909,0.11241 -0.176875,0.0487 -0.350644,0.0983 -0.386038,0.10977 -0.139306,0.0451 -0.233898,0.0797 -0.283092,0.1039 -0.02865,0.0133 -0.07905,0.0241 -0.113826,0.023 -0.03422,-8.3e-4 -0.09225,0.008 -0.128704,0.0189 -0.297692,0.0946 -0.317278,0.0979 -0.317278,0.0537 0,-0.0537 0.07626,-0.10014 0.232078,-0.14119 0.223242,-0.0589 0.233563,-0.0662 0.311827,-0.22684 0.03683,-0.0755 0.09393,-0.10712 0.188463,-0.10411 0.06528,0.002 0.09114,0.0209 0.09114,0.0662 0,0.0436 0.0238,0.0672 0.06807,0.0672 0.03347,0 0.307587,-0.0709 0.562465,-0.14553 0.05301,-0.0152 0.134097,-0.039 0.180223,-0.052 0.138934,-0.0395 0.412913,-0.12624 0.501853,-0.1588 0.04595,-0.017 0.144512,-0.0482 0.218741,-0.0699 0.07439,-0.0215 0.204606,-0.0638 0.289528,-0.0937 0.085,-0.0299 0.180409,-0.0606 0.212324,-0.0682 0.09652,-0.0235 0.188574,-0.0721 0.201983,-0.10674 0.06212,-0.16032 0.106945,-0.38396 0.11364,-0.56832 0.0019,-0.0507 0.01487,-0.11091 0.03665,-0.16163 0.01859,-0.0445 0.03366,-0.0952 0.03366,-0.113 1.86e-4,-0.0452 -0.02325,-0.11166 -0.04631,-0.1319 -0.01117,-0.009 -0.06397,-0.0657 -0.118475,-0.12529 -0.05431,-0.0597 -0.111035,-0.11792 -0.1261,-0.12985 -0.03292,-0.0261 -0.08203,-0.11525 -0.08221,-0.14875 -3.8e-5,-0.0133 -0.01878,-0.0426 -0.04185,-0.0648 -0.0969,-0.0933 -0.200551,-0.11489 -0.345548,-0.0721 -0.0664,0.0197 -0.08016,0.0198 -0.111222,8.3e-4 -0.04668,-0.028 -0.123681,-0.1213 -0.150835,-0.18338 -0.01117,-0.0273 -0.04054,-0.0801 -0.06343,-0.11754 -0.05506,-0.0898 -0.131309,-0.26186 -0.142095,-0.3204 -0.0057,-0.0258 -0.01674,-0.0538 -0.0253,-0.0624 -0.02901,-0.0274 -0.09652,-6.5e-4 -0.131865,0.0523 -0.02492,0.0372 -0.0398,0.0473 -0.061,0.0414 -0.04297,-0.0133 -0.09783,0.017 -0.09783,0.0525 0,0.0343 0.03441,0.10128 0.06548,0.12775 0.02754,0.0232 0.04146,0.2094 0.02398,0.31739 -0.02251,0.13911 -0.07123,0.25789 -0.139305,0.34011 -0.03478,0.042 -0.07905,0.11223 -0.0982,0.15594 -0.04408,0.10066 -0.07719,0.14177 -0.123312,0.15331 -0.02009,0.006 -0.05375,0.0318 -0.07496,0.0592 -0.02121,0.0277 -0.04482,0.0519 -0.05245,0.0542 -0.01878,0.006 -0.02753,-0.30183 -0.01115,-0.37709 0.01674,-0.0747 0.0956,-0.20685 0.166832,-0.27952 0.07496,-0.0765 0.08704,-0.10357 0.08872,-0.19883 7.99e-4,-0.0445 0.0093,-0.10733 0.01674,-0.13949 0.01487,-0.0512 0.01302,-0.0682 -0.0075,-0.1323 -0.03087,-0.0928 -0.03924,-0.10202 -0.07273,-0.0815 -0.01488,0.009 -0.0571,0.0199 -0.09355,0.024 -0.03646,0.005 -0.07067,0.009 -0.07588,0.0133 -0.0056,0.005 -0.03385,-0.017 -0.06342,-0.0447 -0.02958,-0.0282 -0.05877,-0.0515 -0.06473,-0.0515 -0.0057,0 -0.02306,0.0197 -0.03794,0.0436 l -0.02716,0.0436 -0.06696,-0.0533 c -0.03683,-0.0294 -0.122752,-0.12037 -0.190973,-0.20213 -0.06825,-0.082 -0.147117,-0.16712 -0.175387,-0.18954 -0.03776,-0.0299 -0.05543,-0.0569 -0.06659,-0.10252 -0.0075,-0.034 -0.04519,-0.10808 -0.08221,-0.16446 -0.05896,-0.0903 -0.07515,-0.10563 -0.135585,-0.12776 -0.06138,-0.0225 -0.07162,-0.023 -0.09802,-0.005 -0.02287,0.017 -0.03144,0.0411 -0.03812,0.10598 -0.01115,0.10561 -0.02883,0.17185 -0.053,0.19485 -0.02808,0.0264 -0.06993,-0.022 -0.06993,-0.0811 0,-0.12094 -0.103224,-0.10086 -0.110663,0.0213 -0.01674,0.27917 -0.01972,0.29194 -0.07142,0.35892 -0.04631,0.0602 -0.04948,0.0703 -0.04948,0.15748 0,0.12868 -0.01488,0.17449 -0.09021,0.29149 -0.05543,0.0854 -0.07645,0.10579 -0.133168,0.13003 -0.118102,0.0503 -0.192126,0.10882 -0.236429,0.18642 -0.02287,0.04 -0.05859,0.0992 -0.07923,0.13154 -0.0411,0.0639 -0.182084,0.41743 -0.208271,0.52244 -0.0093,0.0357 -0.04054,0.13133 -0.07011,0.21204 -0.02958,0.0808 -0.08518,0.25576 -0.123311,0.38881 l -0.06938,0.24189 -0.122194,0.14761 c -0.06714,0.0812 -0.136702,0.17868 -0.154184,0.21691 l -0.03199,0.0692 0.02772,0.0316 0.02772,0.0317 0.131122,-0.0755 c 0.07216,-0.0414 0.138375,-0.0755 0.147117,-0.0755 0.03069,0 0.09709,0.0463 0.09709,0.068 0,0.0811 -0.08239,0.1446 -0.14098,0.10863 -0.02753,-0.017 -0.111408,-0.006 -0.123123,0.0151 -0.01488,0.0284 -0.236801,0.14308 -0.291929,0.15141 -0.06659,0.009 -0.08313,-0.005 -0.06175,-0.0486 0.01116,-0.024 0.0093,-0.0297 -0.0057,-0.0297 -0.01117,0 -0.01897,-0.008 -0.01674,-0.0188 0.0016,-0.009 -0.0012,-0.0329 -0.0075,-0.0506 -0.01117,-0.0393 0.01488,-0.0882 0.15065,-0.28774 0.137073,-0.20021 0.164228,-0.26634 0.177805,-0.43419 0.01859,-0.22036 0.07458,-0.37878 0.287761,-0.80515 0.05989,-0.11979 0.10899,-0.22387 0.10899,-0.23126 0,-0.008 0.01488,-0.0369 0.03497,-0.0657 0.03031,-0.0454 0.03459,-0.0643 0.03255,-0.14536 -0.0057,-0.1994 0.11178,-0.40099 0.301991,-0.52022 0.143768,-0.0903 0.211915,-0.19533 0.266949,-0.41212 0.01859,-0.0699 0.04389,-0.14895 0.05822,-0.17564 0.01488,-0.0267 0.02603,-0.0668 0.02603,-0.0889 3.7e-5,-0.0336 -0.0057,-0.0402 -0.03292,-0.0402 -0.01917,0 -0.05004,0.0189 -0.07403,0.0451 -0.05543,0.0609 -0.08798,0.0734 -0.16367,0.0639 -0.0569,-0.008 -0.06398,-0.006 -0.06398,0.02 0,0.0496 -0.04389,0.0808 -0.09895,0.0703 -0.02697,-0.006 -0.06938,-0.002 -0.09411,0.008 -0.10192,0.0362 -0.300296,0.0876 -0.33794,0.0876 -0.168877,0 -0.450279,-0.0835 -0.575932,-0.17092 -0.03906,-0.0273 -0.07998,-0.0494 -0.09095,-0.0494 -0.03235,0 -0.142095,-0.0436 -0.207545,-0.0827 -0.05486,-0.0326 -0.06621,-0.0345 -0.115685,-0.0192 -0.03032,0.009 -0.07086,0.0299 -0.09039,0.0455 -0.04296,0.0349 -0.06138,0.025 -0.06138,-0.033 0,-0.0646 0.02939,-0.12849 0.10062,-0.21839 l 0.06343,-0.0803 0.120706,0.0189 c 0.21545,0.0336 0.287447,0.0485 0.313652,0.0649 0.01488,0.009 0.06044,0.017 0.102851,0.0188 0.04241,8.4e-4 0.08872,0.006 0.103038,0.008 0.04241,0.009 0.02585,-0.0726 -0.02735,-0.13514 -0.03497,-0.0414 -0.04315,-0.0609 -0.03701,-0.0887 0.0056,-0.025 4.65e-4,-0.0435 -0.01674,-0.0611 -0.02325,-0.024 -0.02623,-0.0238 -0.05748,0.005 -0.03738,0.0337 -0.07105,0.037 -0.118288,0.0133 -0.04836,-0.0252 -0.04836,-0.0694 2.97e-4,-0.12491 0.01674,-0.0197 0.03124,-0.0438 0.03124,-0.054 0,-0.009 -0.02251,-0.0468 -0.05004,-0.0814 -0.02753,-0.0347 -0.06008,-0.0906 -0.07216,-0.12433 -0.03665,-0.10087 -0.04427,-0.11773 -0.07756,-0.16978 -0.01674,-0.0274 -0.0318,-0.0662 -0.0318,-0.0862 0,-0.0451 -0.08891,-0.15028 -0.126844,-0.15028 -0.01487,0 -0.05022,0.0114 -0.07887,0.0237 -0.04799,0.0219 -0.05431,0.0219 -0.08499,-8.3e-4 -0.04779,-0.0359 -0.06975,-0.0197 -0.06975,0.0505 0,0.0434 -0.0075,0.0662 -0.02808,0.085 -0.06919,0.063 -0.219728,0.22357 -0.325871,0.34724 -0.06379,0.0742 -0.138933,0.15804 -0.167204,0.18643 -0.02827,0.0283 -0.07086,0.0776 -0.09467,0.10959 -0.0238,0.032 -0.101178,0.12546 -0.172225,0.20783 -0.07086,0.0823 -0.141165,0.1728 -0.156231,0.20087 -0.01487,0.028 -0.08518,0.1196 -0.155857,0.20334 -0.07086,0.0838 -0.157719,0.1977 -0.193019,0.25322 -0.03534,0.0553 -0.09188,0.13115 -0.125357,0.16825 -0.03366,0.037 -0.07997,0.0983 -0.103037,0.1359 -0.08351,0.13625 -0.133168,0.21008 -0.199529,0.29586 -0.0372,0.048 -0.06752,0.0935 -0.06752,0.10088 0,0.008 -0.02865,0.06 -0.06379,0.11695 -0.03516,0.057 -0.07273,0.13855 -0.08351,0.18112 -0.01115,0.0426 -0.02846,0.0965 -0.03905,0.11981 -0.01117,0.0232 -0.01934,0.0646 -0.01953,0.0918 -3.7e-5,0.0271 -0.0093,0.0866 -0.01878,0.13229 -0.02287,0.10107 -0.01674,0.32031 0.01115,0.40834 0.01117,0.0335 0.03329,0.0864 0.05059,0.11752 0.01674,0.031 0.04668,0.0875 0.06548,0.12549 0.01897,0.0384 0.06752,0.0988 0.10992,0.13683 0.07049,0.0632 0.102293,0.11508 0.140793,0.2296 0.01674,0.0524 0.14879,0.16522 0.227519,0.19567 0.069,0.0266 0.147676,0.0772 0.147676,0.0947 0,0.0219 0.101363,0.0709 0.173713,0.0845 0.03961,0.008 0.07049,0.0221 0.239032,0.11375 0.05356,0.0291 0.108617,0.0531 0.122195,0.0531 0.01302,5e-5 0.06528,0.017 0.11494,0.0363 0.04948,0.0199 0.09932,0.0365 0.110663,0.0367 0.03181,5.1e-4 0.101736,0.0445 0.10155,0.0639 -6.51e-4,0.0558 -0.08779,0.0854 -0.168877,0.0569 -0.285009,-0.0999 -0.404414,-0.14706 -0.476671,-0.18813 -0.04723,-0.0269 -0.128332,-0.0621 -0.180222,-0.0779 -0.124425,-0.0381 -0.265034,-0.11148 -0.313,-0.16295 -0.04165,-0.0449 -0.220749,-0.16088 -0.248852,-0.16125 -0.02157,-2.7e-4 -0.365635,-0.22467 -0.426714,-0.27829 -0.02474,-0.0219 -0.08686,-0.0706 -0.137817,-0.10844 -0.136144,-0.1011 -0.341141,-0.29327 -0.398183,-0.37356 -0.07682,-0.10825 -0.166831,-0.26732 -0.20587,-0.3641 -0.06528,-0.16182 -0.06379,-0.50367 0.0037,-0.70627 0.03869,-0.11773 0.135772,-0.33131 0.179479,-0.39511 0.113453,-0.1656 0.27902,-0.33058 0.406479,-0.40472 0.05821,-0.0338 0.118102,-0.0884 0.26706,-0.24272 0.04742,-0.049 0.114941,-0.10807 0.150092,-0.13097 0.03516,-0.023 0.09002,-0.0659 0.122009,-0.0954 0.05821,-0.0542 0.139678,-0.10638 0.241264,-0.15483 0.03441,-0.017 0.05467,-0.0356 0.05467,-0.0515 0,-0.0277 0.161252,-0.17166 0.249,-0.22217 0.05802,-0.0336 0.188946,-0.1374 0.239368,-0.19004 0.01674,-0.0189 0.07755,-0.065 0.133725,-0.10447 0.05617,-0.0393 0.125542,-0.0944 0.154184,-0.12246 0.02865,-0.028 0.05672,-0.0509 0.06231,-0.0509 0.0057,0 0.05952,-0.0266 0.119404,-0.0592 0.06008,-0.0326 0.147302,-0.07 0.193799,-0.0831 0.06305,-0.017 0.09076,-0.0338 0.109176,-0.063 0.01302,-0.0215 0.04799,-0.0659 0.07662,-0.0988 0.03292,-0.0377 0.05227,-0.073 0.05227,-0.096 0,-0.0478 0.05579,-0.11014 0.114384,-0.12794 0.02567,-0.008 0.09057,-0.0203 0.144326,-0.0278 0.149721,-0.0209 0.15251,-0.0238 0.15065,-0.16788 -0.0019,-0.17961 0.04241,-0.25369 0.214799,-0.35569 0.04948,-0.0294 0.104526,-0.0687 0.122194,-0.0876 0.07551,-0.0806 0.156974,-0.12149 0.260626,-0.13096 0.09969,-0.009 0.09988,-0.009 0.135027,0.037 0.01934,0.0254 0.06436,0.0607 0.09988,0.0789 0.03553,0.0188 0.08891,0.0562 0.118847,0.0848 0.06119,0.0583 0.09411,0.0583 0.129262,-5.8e-4 0.02194,-0.0365 0.08072,-0.11639 0.119778,-0.16276 0.01115,-0.0133 0.02398,-0.0533 0.02789,-0.0884 0.0093,-0.0857 0.09021,-0.19678 0.152324,-0.20959 0.02399,-0.006 0.06975,-0.0231 0.10155,-0.0401 0.0318,-0.017 0.07328,-0.0312 0.09225,-0.0314 0.01878,-1.7e-4 0.07105,-0.0225 0.115871,-0.0496 0.114197,-0.0691 0.335207,-0.0965 0.382523,-0.0478 0.02622,0.0271 0.101922,0.0309 0.147117,0.008 0.04241,-0.0221 0.160135,0.017 0.201221,0.0673 0.03366,0.0409 0.05989,0.0458 0.108245,0.0206 0.02381,-0.0133 0.06733,-0.0133 0.171109,6.7e-4 0.07662,0.009 0.188424,0.0205 0.248574,0.0241 0.117916,0.008 0.260217,0.0381 0.373167,0.0802 0.07607,0.0283 0.239943,0.0363 0.617667,0.0297 0.109732,-0.002 0.26894,-0.005 0.353862,-0.006 0.104712,-0.002 0.164785,-0.009 0.186472,-0.0231 0.04315,-0.0277 0.07105,-0.0318 0.251047,-0.0377 0.193948,-0.006 0.547606,-0.0438 0.627637,-0.0671 0.03329,-0.009 0.09969,-0.0133 0.147489,-0.009 0.0478,0.005 0.133353,-0.002 0.189894,-0.0133 0.05729,-0.0114 0.251549,-0.0223 0.437501,-0.0262 0.183942,-0.005 0.427215,-0.0114 0.540463,-0.017 0.24173,-0.0133 0.469547,-0.0133 0.971528,0.002 0.365617,0.0113 0.514333,0.0113 0.855716,0.009 0.19579,-0.002 0.320867,0.0133 0.431083,0.0553 0.03888,0.0151 0.117172,0.0379 0.173713,0.0515 0.05654,0.0133 0.129077,0.032 0.16088,0.0405 0.03181,0.009 0.110105,0.017 0.173713,0.0189 0.06863,0.002 0.157347,0.0151 0.217961,0.0347 0.05859,0.0189 0.140793,0.0312 0.193019,0.0312 0.05004,0 0.136329,0.009 0.191716,0.022 0.05543,0.0114 0.134656,0.022 0.176131,0.022 0.08779,0 0.234773,0.0328 0.331544,0.0738 0.03738,0.0151 0.09746,0.029 0.133353,0.029 0.05748,0 0.130192,0.0151 0.296001,0.0608 0.02585,0.008 0.05041,0.0232 0.05467,0.0361 0.01117,0.0309 -0.01115,0.0755 -0.0437,0.0869 -0.01488,0.006 -0.03236,0.0232 -0.04035,0.0403 -0.01302,0.0261 -0.0093,0.0354 0.01487,0.0577 0.01674,0.0151 0.03665,0.0266 0.04595,0.0266 0.03106,0 0.05673,0.0584 0.04204,0.0952 -0.02268,0.057 -0.08109,0.0757 -0.222982,0.0715 -0.111779,-0.005 -0.300985,-0.0429 -0.341269,-0.0714 -0.0075,-0.005 -0.02585,0.002 -0.04278,0.0151 -0.0333,0.0248 -0.08146,0.0297 -0.144513,0.0151 -0.03311,-0.008 -0.04315,-0.003 -0.06082,0.0274 -0.02846,0.0496 -0.06416,0.06 -0.110663,0.0326 -0.02121,-0.0133 -0.07216,-0.0231 -0.113268,-0.0237 -0.0411,-4.5e-4 -0.114011,-0.0114 -0.161996,-0.0259 -0.06825,-0.0197 -0.09095,-0.033 -0.103409,-0.0617 -0.01302,-0.0306 -0.02287,-0.0354 -0.06063,-0.0299 -0.06063,0.009 -0.101736,0.008 -0.240875,-0.006 -0.06919,-0.008 -0.118846,-0.008 -0.11866,8.3e-4 8.26e-4,0.0273 0.03459,0.063 0.069,0.0728 0.04519,0.0133 0.05784,0.0486 0.02678,0.0747 -0.03608,0.0302 -0.09671,0.0235 -0.153998,-0.017 -0.09318,-0.0656 -0.133354,-0.0808 -0.211618,-0.0808 -0.06156,0 -0.09709,-0.0114 -0.173527,-0.0515 -0.05282,-0.0282 -0.104525,-0.0515 -0.11457,-0.0515 -0.0093,0 -0.05059,-0.017 -0.09002,-0.0375 -0.05208,-0.0273 -0.0835,-0.0349 -0.114198,-0.0285 -0.02325,0.006 -0.138003,0.0113 -0.254692,0.0133 -0.19328,0.005 -0.221549,0.008 -0.315268,0.0443 -0.06454,0.0254 -0.116244,0.0372 -0.138376,0.032 -0.01953,-0.005 -0.05208,-0.0133 -0.07254,-0.017 -0.04984,-0.0114 -0.05802,0.009 -0.03422,0.0896 0.01117,0.0369 0.0199,0.0884 0.0199,0.11452 0,0.0395 0.01488,0.064 0.08983,0.14629 0.04948,0.0544 0.101737,0.12549 0.11643,0.15822 0.01487,0.0327 0.0716,0.13702 0.126472,0.23148 0.05505,0.0944 0.119219,0.21152 0.14284,0.26 0.02363,0.0485 0.06732,0.13117 0.09727,0.18359 0.07867,0.13796 0.315306,0.67902 0.315214,0.72058 -3.9e-5,0.0133 0.01674,0.0538 0.03793,0.0914 0.02101,0.0376 0.05096,0.10356 0.06659,0.14611 0.01488,0.0426 0.03553,0.0874 0.04408,0.0995 0.0093,0.0114 0.02827,0.0551 0.04352,0.0956 0.01488,0.0402 0.03292,0.0867 0.03906,0.10275 0.0057,0.0151 0.03516,0.0889 0.06454,0.16162 0.02939,0.0726 0.05859,0.16351 0.06509,0.20195 0.0056,0.0384 0.01972,0.088 0.02958,0.11016 0.0093,0.0221 0.02195,0.0668 0.02678,0.0992 0.0057,0.0324 0.02009,0.0984 0.03403,0.14686 0.07532,0.26355 0.08945,0.34121 0.08964,0.49423 1.49e-4,0.0837 0.0075,0.19437 0.01674,0.246 0.01302,0.0749 0.01488,0.10599 0.0015,0.15424 -0.0093,0.033 -0.01897,0.13174 -0.02325,0.21904 -0.0057,0.1323 -0.0037,0.16011 0.01117,0.16712 0.01115,0.005 0.147674,6e-4 0.304946,-0.009 0.302993,-0.0189 0.742892,-0.0368 1.25092,-0.0524 0.397626,-0.0114 0.755858,-0.031 0.958659,-0.0503 0.433205,-0.0409 1.204071,-0.048 1.685707,-0.0151 0.123868,0.008 0.367047,0.0215 0.540445,0.0295 0.173341,0.008 0.431084,0.0237 0.572621,0.0354 0.141537,0.0114 0.315269,0.0257 0.386038,0.0312 0.08722,0.008 0.151394,0.0206 0.199454,0.0433 0.03888,0.0189 0.09486,0.0376 0.12424,0.0432 0.02939,0.006 0.06416,0.0191 0.07719,0.0303 0.02287,0.0195 0.02287,0.022 -0.0019,0.0761 -0.02865,0.0624 -0.02567,0.0613 -0.272846,0.0944 -0.09486,0.0133 -0.223446,0.0133 -0.46324,0.005 -0.182642,-0.008 -0.366696,-0.0114 -0.409157,-0.009 -0.04241,0.002 -0.343576,0.006 -0.66913,0.008 -0.684885,0.003 -1.002348,0.017 -1.557022,0.0687 -0.08499,0.008 -0.258654,0.017 -0.386037,0.0209 -0.210372,0.006 -0.37778,0.0133 -0.66913,0.0314 -0.05654,0.005 -0.525659,0.008 -1.042298,0.009 -0.707333,0.005 -0.947314,-1.2e-4 -0.971529,-0.0133 -0.01859,-0.009 -0.05914,-0.0282 -0.09187,-0.0411 -0.03292,-0.0133 -0.09225,-0.0562 -0.132053,-0.096 -0.0398,-0.0397 -0.0969,-0.0916 -0.126844,-0.11545 -0.06919,-0.0548 -0.100061,-0.0941 -0.144885,-0.18567 -0.05208,-0.10598 -0.08203,-0.13948 -0.124798,-0.13948 -0.02046,0 -0.104713,0.0211 -0.187569,0.0466 -0.123868,0.0384 -0.174458,0.0466 -0.28566,0.0468 -0.116057,1.6e-4 -0.143211,-0.005 -0.193018,-0.0337 -0.0318,-0.0188 -0.07811,-0.0455 -0.103039,-0.0597 -0.118473,-0.0681 -0.208307,-0.0648 -0.398907,0.0151 -0.06025,0.0251 -0.144141,0.0557 -0.186583,0.0681 -0.09225,0.0271 -0.135028,0.0558 -0.135028,0.091 0,0.0291 0.09746,0.14176 0.169808,0.19632 0.07216,0.0543 0.304983,0.30459 0.325442,0.34975 0.02363,0.0525 0.01302,0.0971 -0.04389,0.17167 -0.0253,0.0337 -0.0664,0.11527 -0.09113,0.18151 -0.0385,0.10273 -0.06194,0.14005 -0.16181,0.25644 -0.07849,0.0917 -0.13726,0.14649 -0.179479,0.16787 -0.03441,0.017 -0.09839,0.0694 -0.142095,0.11565 -0.166274,0.17583 -0.246082,0.24939 -0.320792,0.29588 -0.04241,0.0264 -0.106201,0.0781 -0.141539,0.11487 -0.03533,0.0368 -0.105454,0.0972 -0.155671,0.13438 -0.1062,0.0786 -0.227892,0.1781 -0.307495,0.25127 -0.03087,0.0282 -0.115872,0.10618 -0.188871,0.17316 -0.07309,0.0671 -0.181153,0.16619 -0.239963,0.22037 -0.258486,0.23805 -0.309521,0.27893 -0.395784,0.317 -0.06044,0.0266 -0.122566,0.0709 -0.19339,0.13816 -0.347036,0.32882 -0.539533,0.54184 -0.557909,0.6174 -0.0075,0.0299 -0.01302,0.0659 -0.01302,0.0798 -3.7e-5,0.0133 -0.02567,0.0835 -0.05691,0.15424 -0.03124,0.0708 -0.06863,0.1675 -0.08332,0.21501 -0.04742,0.15462 -0.07886,0.18414 -0.139119,0.13002 z m 1.088851,-1.81222 c 0.03942,-0.0254 0.104898,-0.0717 0.145257,-0.10295 0.04035,-0.0312 0.08779,-0.063 0.105269,-0.0706 0.01674,-0.008 0.077,-0.0461 0.132424,-0.0857 0.05543,-0.0395 0.146931,-0.10013 0.203601,-0.13474 0.05654,-0.0345 0.11457,-0.0747 0.128704,-0.0889 0.02306,-0.0232 0.215765,-0.17034 0.544333,-0.41476 0.06249,-0.0464 0.117731,-0.0844 0.122938,-0.0844 0.01487,0 0.231985,-0.16957 0.250936,-0.19566 0.0093,-0.0133 0.03812,-0.0307 0.06416,-0.04 0.03347,-0.0114 0.08964,-0.0664 0.193856,-0.18813 0.176503,-0.2063 0.214257,-0.2659 0.198877,-0.31468 -0.01488,-0.0469 -0.105641,-0.1376 -0.166831,-0.16655 -0.02753,-0.0133 -0.05859,-0.0322 -0.06938,-0.0426 -0.02641,-0.0262 -0.221624,-0.13949 -0.240297,-0.13949 -0.0075,-1e-5 -0.04018,-0.0215 -0.07086,-0.0478 -0.156416,-0.134 -0.191698,-0.15292 -0.309633,-0.16598 -0.08964,-0.009 -0.10062,-0.008 -0.588858,0.14081 -0.166274,0.0505 -0.318413,0.10467 -0.337978,0.12018 -0.04315,0.0345 -0.06752,0.0866 -0.0783,0.16751 -0.0037,0.0333 -0.01953,0.0896 -0.03366,0.12491 -0.01487,0.0354 -0.02567,0.0848 -0.02585,0.10977 -1.49e-4,0.025 -0.0057,0.0648 -0.01302,0.0882 -0.0075,0.0234 -0.01488,0.0724 -0.01859,0.10864 -0.01302,0.1355 -0.05971,0.28401 -0.119963,0.38644 -0.02398,0.0408 -0.04241,0.0907 -0.04241,0.11488 0,0.0237 -0.0093,0.0675 -0.02028,0.0977 -0.02697,0.0728 -0.0783,0.29842 -0.09504,0.41862 -0.0075,0.0533 -0.02511,0.12757 -0.03924,0.16523 -0.03292,0.0876 -0.03459,0.21394 -0.0037,0.24519 0.05319,0.0531 0.09374,0.0517 0.182269,-0.006 z m 0.663736,-2.26662 c 0.330316,-0.0983 0.341011,-0.10337 0.341011,-0.16314 0,-0.0238 -0.01674,-0.0453 -0.05467,-0.0726 -0.124426,-0.0886 -0.232783,-0.15766 -0.271189,-0.17242 -0.02251,-0.009 -0.05467,-0.028 -0.07161,-0.0429 -0.01674,-0.0151 -0.04241,-0.0271 -0.0569,-0.0271 -0.02883,0 -0.07328,0.0393 -0.07328,0.0649 0,0.009 -0.01302,0.0426 -0.02753,0.0747 -0.04612,0.0981 -0.08834,0.23983 -0.08834,0.29642 0,0.072 0.03255,0.11185 0.08332,0.10273 0.0214,-0.005 0.119963,-0.0312 0.21902,-0.0606 z m -8.108202,-0.17413 c 0.02176,-0.0188 0.02121,-0.0258 -0.01115,-0.15064 -0.01878,-0.0724 -0.03608,-0.1711 -0.0385,-0.21965 -0.0075,-0.13022 0.01674,-0.38505 0.04408,-0.47741 0.01302,-0.0445 0.02772,-0.10066 0.03255,-0.12491 0.01674,-0.0797 0.132983,-0.33646 0.18731,-0.41092 0.02939,-0.0401 0.06379,-0.0963 0.07662,-0.12491 0.01302,-0.0285 0.04612,-0.0815 0.07403,-0.11791 0.02789,-0.0363 0.05952,-0.085 0.06993,-0.10807 0.01674,-0.0377 0.09671,-0.13683 0.335208,-0.41734 0.04297,-0.0505 0.09206,-0.11336 0.108801,-0.13948 0.01674,-0.0261 0.138936,-0.17583 0.271453,-0.33254 0.132422,-0.1567 0.253984,-0.30528 0.270054,-0.33009 0.01674,-0.0248 0.03776,-0.0506 0.04818,-0.0574 0.02157,-0.0133 0.05989,-0.0914 0.05041,-0.10221 -0.01488,-0.017 -0.07067,0.009 -0.131867,0.0627 -0.03608,0.0312 -0.08183,0.0671 -0.101549,0.0795 -0.01971,0.0133 -0.07942,0.0591 -0.132424,0.10357 -0.053,0.0445 -0.117917,0.0939 -0.143955,0.10996 -0.02604,0.0152 -0.06286,0.0458 -0.08203,0.0657 -0.01897,0.02 -0.06138,0.0542 -0.09411,0.0757 -0.03274,0.0215 -0.07979,0.0621 -0.104711,0.0898 -0.02474,0.0277 -0.06528,0.0635 -0.09002,0.0793 -0.121266,0.0771 -0.272325,0.20064 -0.558673,0.45739 -0.04315,0.0387 -0.104154,0.0882 -0.135586,0.11015 -0.07719,0.0538 -0.309782,0.31132 -0.386558,0.42787 -0.03404,0.0517 -0.07067,0.12776 -0.08146,0.16902 -0.01115,0.0411 -0.03124,0.11202 -0.04575,0.15727 -0.02232,0.0704 -0.0253,0.10598 -0.01971,0.24237 0.0057,0.13418 0.01302,0.17885 0.04725,0.2774 0.06267,0.18093 0.167761,0.32962 0.332268,0.47004 0.01897,0.0151 0.06473,0.0575 0.10155,0.0919 0.07477,0.0695 0.07643,0.0702 0.108431,0.0434 z m 9.504381,-0.28247 c 0.343855,-0.12851 0.353955,-0.13361 0.450371,-0.22675 0.03888,-0.0376 0.08518,-0.0753 0.102852,-0.0838 0.01859,-0.009 0.05654,-0.0379 0.08611,-0.0652 0.02976,-0.0273 0.06882,-0.0616 0.08686,-0.0761 0.0372,-0.0297 0.04241,-0.0781 0.01487,-0.13967 -0.0093,-0.0219 -0.02121,-0.0862 -0.02548,-0.14289 -0.0093,-0.12151 -0.05524,-0.26406 -0.110476,-0.34365 -0.02176,-0.0312 -0.03942,-0.0624 -0.03942,-0.0695 -1.8e-5,-0.008 -0.01674,-0.0425 -0.0385,-0.0788 -0.02381,-0.0409 -0.0385,-0.0852 -0.0385,-0.11602 -3.7e-5,-0.0274 -0.01859,-0.11336 -0.03924,-0.19094 -0.06063,-0.21847 -0.09746,-0.2928 -0.182269,-0.36758 -0.07682,-0.0677 -0.358754,-0.34008 -0.438468,-0.42355 -0.03385,-0.0354 -0.09467,-0.0812 -0.135028,-0.1018 -0.04054,-0.0205 -0.102293,-0.0532 -0.13726,-0.0725 -0.03497,-0.0192 -0.07272,-0.0349 -0.08369,-0.0349 -0.01117,5e-5 -0.04612,-0.009 -0.07793,-0.021 -0.0318,-0.0114 -0.08257,-0.0284 -0.112522,-0.0372 -0.0398,-0.0114 -0.05989,-0.028 -0.0742,-0.0594 -0.02325,-0.0512 -0.08164,-0.0895 -0.119404,-0.0781 -0.01488,0.003 -0.05859,-0.009 -0.101736,-0.032 -0.0411,-0.022 -0.106571,-0.0485 -0.145442,-0.0591 -0.108431,-0.0291 -0.250025,-0.091 -0.31817,-0.13911 -0.03385,-0.0238 -0.101923,-0.0545 -0.151581,-0.0681 -0.18731,-0.0511 -0.22525,-0.0657 -0.259844,-0.0997 -0.03515,-0.0345 -0.03533,-0.036 -0.02009,-0.11924 0.0093,-0.0463 0.01302,-0.0901 0.0093,-0.0971 -0.01674,-0.0299 -0.053,-0.008 -0.08668,0.054 -0.03627,0.0653 -0.220416,0.25466 -0.305003,0.31352 -0.02455,0.017 -0.05766,0.031 -0.07365,0.0312 -0.0372,6e-5 -0.08053,0.0494 -0.08035,0.0918 1.87e-4,0.0871 0.0292,0.14745 0.120149,0.25083 0.08313,0.0944 0.149906,0.20437 0.149906,0.24663 0,0.008 0.01859,0.066 0.03942,0.12775 0.05432,0.15482 0.07645,0.28745 0.07645,0.45855 0,0.16616 0.02176,0.24123 0.07403,0.25621 0.01674,0.006 0.08388,-0.006 0.148047,-0.0246 0.09002,-0.0262 0.117731,-0.0296 0.122009,-0.0152 0.0057,0.0212 0.07011,0.0621 0.09709,0.0621 0.0093,0 0.02455,-0.017 0.03255,-0.0368 0.01859,-0.0463 0.04185,-0.0463 0.08983,-2.7e-4 0.06119,0.0589 0.07458,0.11281 0.04799,0.19258 -0.02939,0.0876 -0.03812,0.42612 -0.01302,0.5128 0.0093,0.0323 0.02101,0.11053 0.02622,0.17375 0.0075,0.0909 0.01674,0.12377 0.04111,0.15784 0.01674,0.0237 0.03999,0.043 0.05022,0.043 0.04352,0 0.361282,0.20444 0.568399,0.36574 0.03738,0.0291 0.09206,0.068 0.12145,0.0863 0.02939,0.0189 0.06267,0.0427 0.07403,0.0545 0.01117,0.0114 0.04054,0.0314 0.06509,0.0441 0.08035,0.0414 0.182827,0.0211 0.514332,-0.10294 z m -5.594754,-2.08677 c -0.0037,-0.0855 0.01302,-0.1109 0.09411,-0.14119 0.04204,-0.0151 0.05691,-0.0322 0.08332,-0.0926 0.02789,-0.0636 0.03218,-0.0933 0.03255,-0.22219 2.43e-4,-0.10201 0.0057,-0.15615 0.01674,-0.17242 0.02363,-0.0326 0.0075,-0.0948 -0.02901,-0.11394 -0.01674,-0.008 -0.03961,-0.0347 -0.05189,-0.0584 -0.01302,-0.0235 -0.02735,-0.0427 -0.03348,-0.0427 -0.0057,0 -0.05413,-0.0452 -0.106572,-0.10066 -0.114568,-0.12132 -0.199807,-0.16655 -0.251176,-0.13343 -0.01859,0.0114 -0.06082,0.0639 -0.09541,0.1166 -0.03441,0.0524 -0.07979,0.11771 -0.100807,0.14459 -0.02101,0.0271 -0.04074,0.0635 -0.04371,0.0808 -0.0037,0.017 -0.0093,0.0492 -0.01302,0.0708 -0.0037,0.0215 -0.02195,0.0592 -0.03999,0.0837 -0.0214,0.029 -0.03515,0.0691 -0.03942,0.11489 -0.0037,0.0388 -0.01302,0.0882 -0.0199,0.10977 -0.02697,0.0805 0.03069,0.14725 0.08928,0.10357 0.01674,-0.0114 0.03217,-0.0189 0.0357,-0.0151 0.01302,0.0151 -0.0093,0.0494 -0.05933,0.0884 -0.05338,0.0422 -0.06454,0.0827 -0.03143,0.11395 0.02363,0.0223 0.294772,0.0461 0.387934,0.0343 l 0.0662,-0.008 0.03552,0.0611 c 0.04929,0.0848 0.07755,0.0763 0.07273,-0.0221 z m 3.414356,-1.55077 c 0.0703,-0.0862 0.183942,-0.20994 0.252479,-0.2752 0.06843,-0.0653 0.128331,-0.13229 0.132982,-0.14894 0.01859,-0.0673 -0.0037,-0.073 -0.286163,-0.073 -0.262374,0 -0.263749,-1.7e-4 -0.301803,-0.0368 -0.04742,-0.0458 -0.05412,-0.0458 -0.130564,8.3e-4 -0.03403,0.0209 -0.102665,0.0466 -0.15251,0.0574 -0.04965,0.0114 -0.09634,0.0264 -0.103596,0.0347 -0.02697,0.0309 0.0075,0.0993 0.09876,0.20047 0.05171,0.0568 0.112151,0.13721 0.134657,0.17866 0.02381,0.0441 0.05618,0.083 0.07773,0.0931 0.02028,0.009 0.05784,0.0438 0.08314,0.0763 0.02548,0.0323 0.05077,0.0566 0.05654,0.054 0.0057,-0.002 0.06789,-0.0753 0.138374,-0.16144 z m 5.937829,-0.59752 c 0,-0.0206 -0.01487,-0.0303 -0.03347,-0.022 -0.02678,0.0114 -0.02176,0.0342 0.0075,0.0342 0.01487,0 0.02567,-0.006 0.02567,-0.0114 z m -8.239641,-0.1444 c 0.06863,-0.054 0.09095,-0.10676 0.04595,-0.10865 -0.0982,-0.005 -0.144699,-0.025 -0.144699,-0.0648 0,-0.0382 -0.04779,-0.0654 -0.132052,-0.0752 -0.08092,-0.009 -0.08983,-0.008 -0.138003,0.0307 -0.02827,0.0223 -0.05152,0.046 -0.05152,0.0523 0,0.006 -0.0037,0.0219 -0.0075,0.0343 -0.0075,0.0228 0.03459,0.0773 0.09578,0.12377 0.02846,0.0215 0.163298,0.0564 0.232579,0.06 0.01674,8.4e-4 0.06212,-0.0225 0.09969,-0.0523 z m -2.392499,5.85501 c -0.03069,-0.0205 -0.02827,-0.063 0.0057,-0.10864 0.02417,-0.0318 0.03589,-0.0366 0.07086,-0.0283 0.05041,0.0114 0.05617,0.0547 0.01488,0.11412 -0.02808,0.0409 -0.05524,0.0476 -0.09244,0.023 z m 2.477087,-0.37644 c -0.02753,-0.0114 -0.01859,-0.0468 0.05171,-0.20069 0.03738,-0.0819 0.07905,-0.17865 0.09263,-0.21494 0.01302,-0.0363 0.03441,-0.0827 0.0465,-0.10274 0.01116,-0.0203 0.03106,-0.0687 0.04278,-0.10769 0.03516,-0.11847 0.05896,-0.15973 0.156416,-0.27061 0.05152,-0.0586 0.0969,-0.10656 0.100993,-0.10656 0.01302,0 0.04631,0.10619 0.04631,0.15123 0,0.0618 -0.04779,0.19505 -0.174829,0.48779 -0.05971,0.13741 -0.108431,0.25675 -0.108431,0.26533 5.6e-5,0.009 -0.01674,0.0341 -0.03738,0.0566 -0.0318,0.0347 -0.05004,0.0416 -0.119033,0.0451 -0.04483,0.002 -0.08872,8.5e-4 -0.09764,-0.003 z m -1.566023,-0.10391 c -0.0037,-0.003 -0.0075,-0.0356 -0.0075,-0.0692 0,-0.0578 0.0037,-0.0642 0.07346,-0.11867 0.04035,-0.0317 0.111407,-0.096 0.157718,-0.14308 0.04631,-0.0471 0.118475,-0.10883 0.160695,-0.13703 0.04203,-0.0284 0.09021,-0.0658 0.106943,-0.0835 0.06863,-0.0715 0.198357,-0.26811 0.235238,-0.3563 0.0357,-0.0855 0.05282,-0.10317 0.0928,-0.096 0.0057,8.4e-4 0.0093,-0.009 0.0093,-0.0215 0,-0.0133 0.03961,-0.0914 0.08816,-0.17487 l 0.08815,-0.1516 0.01117,-0.21069 c 0.0057,-0.11584 0.01115,-0.41563 0.01302,-0.66607 0.0019,-0.43831 0.01302,-0.58561 0.04519,-0.65564 0.01488,-0.0304 0.01674,-0.0309 0.03162,-0.008 0.0093,0.0133 0.0199,0.0532 0.02436,0.0871 0.0037,0.0338 0.01487,0.0869 0.0251,0.11772 0.01488,0.0466 0.01302,0.0688 -8.99e-4,0.13229 -0.02287,0.0981 -0.02213,0.27158 0.0019,0.47406 0.01115,0.0882 0.0186,0.19682 0.01674,0.24126 -0.0016,0.0639 0.0057,0.0967 0.03385,0.15634 0.04965,0.10428 0.05114,0.10035 -0.128333,0.34145 -0.02176,0.0291 -0.05822,0.0885 -0.0811,0.13155 -0.02287,0.0433 -0.06807,0.11015 -0.100434,0.14876 -0.03235,0.0388 -0.05784,0.0747 -0.05672,0.0799 0.0037,0.017 -0.06621,0.15368 -0.08221,0.16068 -0.0093,0.003 -0.05133,0.0751 -0.09504,0.1588 -0.09374,0.17923 -0.09969,0.18794 -0.149907,0.2245 -0.05505,0.0401 -0.203118,0.1907 -0.29429,0.29951 -0.04278,0.0511 -0.08964,0.10015 -0.103781,0.10881 -0.03441,0.0212 -0.107129,0.0393 -0.116057,0.0291 z m -1.524156,-1.7059 c -0.01302,-0.009 -0.01488,-0.0297 -0.01117,-0.0694 0.0037,-0.031 0.01953,-0.14915 0.03422,-0.26224 0.01487,-0.11317 0.03478,-0.25193 0.04482,-0.30848 0.0093,-0.0566 0.0251,-0.17033 0.03347,-0.25296 0.01302,-0.12245 0.02083,-0.15709 0.04538,-0.18738 0.03348,-0.0413 0.05971,-0.0469 0.08092,-0.0188 0.01488,0.0209 0.01302,0.10356 -0.01117,0.38365 -0.01115,0.13552 -0.01115,0.19541 -1.47e-4,0.26442 0.01302,0.0733 0.01115,0.10222 -0.0037,0.16258 -0.01117,0.0402 -0.02251,0.10045 -0.02697,0.13362 -0.0075,0.0496 -0.01917,0.0694 -0.07011,0.11394 -0.06361,0.0553 -0.08463,0.0627 -0.115498,0.0402 z"
       id="path1030" />
    <g
       aria-label="U2UD2D:"
       id="text38849"
       style="font-weight:600;font-size:3.52777px;line-height:1.25;font-family:'URW Gothic';-inkscape-font-specification:'URW Gothic, Semi-Bold';fill:#ffffff;stroke-width:0.264583"
       transform="translate(0,1.4999948)">
      <path
         d="m 42.000001,112.03615 v 1.651 c 0,0.27869 0.04233,0.45861 0.141111,0.61383 0.151694,0.23989 0.433916,0.38805 0.737304,0.38805 0.285749,0 0.550332,-0.127 0.705554,-0.33513 0.123472,-0.16934 0.176388,-0.36336 0.176388,-0.66675 v -1.651 h -0.483304 v 1.651 c 0,0.19402 -0.01411,0.27516 -0.0635,0.35983 -0.06703,0.10936 -0.1905,0.17639 -0.335138,0.17639 -0.141111,0 -0.264583,-0.067 -0.331611,-0.17639 -0.04939,-0.0847 -0.0635,-0.16581 -0.0635,-0.35983 v -1.651 z"
         id="path39393" />
      <path
         d="m 44.155467,114.64317 h 1.686274 V 114.2022 H 44.81516 l 0.532693,-0.4833 c 0.380999,-0.3422 0.504471,-0.56092 0.504471,-0.88195 0,-0.4833 -0.36336,-0.84666 -0.850193,-0.84666 -0.303388,0 -0.578554,0.14464 -0.72672,0.381 -0.09878,0.15522 -0.137583,0.31397 -0.137583,0.56444 h 0.462138 c 0,-0.31044 0.162277,-0.51505 0.405693,-0.51505 0.215194,0 0.377472,0.17639 0.377472,0.40922 0,0.16933 -0.08467,0.32103 -0.299861,0.52211 l -0.927803,0.87841 z"
         id="path39395" />
      <path
         d="m 46.233321,112.03615 v 1.651 c 0,0.27869 0.04233,0.45861 0.141111,0.61383 0.151694,0.23989 0.433916,0.38805 0.737304,0.38805 0.285749,0 0.550332,-0.127 0.705554,-0.33513 0.123472,-0.16934 0.176389,-0.36336 0.176389,-0.66675 v -1.651 h -0.483305 v 1.651 c 0,0.19402 -0.01411,0.27516 -0.0635,0.35983 -0.06703,0.10936 -0.190499,0.17639 -0.335138,0.17639 -0.141111,0 -0.264583,-0.067 -0.33161,-0.17639 -0.04939,-0.0847 -0.0635,-0.16581 -0.0635,-0.35983 v -1.651 z"
         id="path39397" />
      <path
         d="m 48.491092,114.64317 h 0.606776 c 0.395111,0 0.631471,-0.0388 0.843137,-0.14464 0.402166,-0.19755 0.638527,-0.62794 0.638527,-1.15358 0,-0.49741 -0.204611,-0.90311 -0.567971,-1.12183 -0.204611,-0.12347 -0.515055,-0.18697 -0.924276,-0.18697 h -0.596193 z m 0.483304,-0.46213 v -1.68275 h 0.09525 c 0.310444,0 0.472721,0.0282 0.624415,0.10583 0.246944,0.127 0.398638,0.4057 0.398638,0.74083 0,0.31398 -0.144638,0.59267 -0.377471,0.71967 -0.144638,0.0776 -0.345721,0.11642 -0.634999,0.11642 z"
         id="path39399" />
      <path
         d="m 50.858221,114.64317 h 1.686274 v -0.44097 h -1.026581 l 0.532694,-0.4833 c 0.380999,-0.3422 0.504471,-0.56092 0.504471,-0.88195 0,-0.4833 -0.363361,-0.84666 -0.850193,-0.84666 -0.303388,0 -0.578554,0.14464 -0.726721,0.381 -0.09878,0.15522 -0.137583,0.31397 -0.137583,0.56444 h 0.462138 c 0,-0.31044 0.162278,-0.51505 0.405694,-0.51505 0.215194,0 0.377471,0.17639 0.377471,0.40922 0,0.16933 -0.08467,0.32103 -0.29986,0.52211 l -0.927804,0.87841 z"
         id="path39401" />
      <path
         d="m 52.936076,114.64317 h 0.606777 c 0.39511,0 0.631471,-0.0388 0.843137,-0.14464 0.402166,-0.19755 0.638526,-0.62794 0.638526,-1.15358 0,-0.49741 -0.20461,-0.90311 -0.567971,-1.12183 -0.20461,-0.12347 -0.515054,-0.18697 -0.924276,-0.18697 h -0.596193 z m 0.483305,-0.46213 v -1.68275 h 0.09525 c 0.310443,0 0.472721,0.0282 0.624415,0.10583 0.246944,0.127 0.398638,0.4057 0.398638,0.74083 0,0.31398 -0.144639,0.59267 -0.377471,0.71967 -0.144639,0.0776 -0.345722,0.11642 -0.634999,0.11642 z"
         id="path39403" />
      <path
         d="m 55.419622,114.64317 h 0.469194 v -0.45155 h -0.469194 z m 0,-1.30174 h 0.469194 v -0.4692 h -0.469194 z"
         id="path39405" />
    </g>
    <g
       aria-label="ALWAYS:"
       id="text44577"
       style="font-weight:600;font-size:3.52777px;line-height:1.25;font-family:'URW Gothic';-inkscape-font-specification:'URW Gothic, Semi-Bold';fill:#ffffff;stroke-width:0.264583">
      <path
         d="m 1.7848061,116.14317 h 0.5326933 l 0.2892771,-0.6738 H 3.53458 l 0.2786939,0.6738 H 4.3459671 L 3.2523584,113.53615 H 2.8713593 Z m 0.9983589,-1.13594 0.2786938,-0.79022 0.2786939,0.79022 z"
         id="path54605" />
      <path
         d="m 4.610549,116.14317 h 1.2805806 v -0.46213 H 5.0938535 v -2.14489 H 4.610549 Z"
         id="path54607" />
      <path
         d="m 6.5261184,116.14317 h 0.3809992 l 0.4303879,-1.72508 0.4198046,1.72508 h 0.384527 l 0.7619983,-2.60702 H 8.4099476 l -0.4621379,1.82033 -0.4374435,-1.82033 h -0.352777 l -0.444499,1.82033 -0.4586101,-1.82033 H 5.7605923 Z"
         id="path54609" />
      <path
         d="M 8.7450817,116.14317 H 9.277775 l 0.2892771,-0.6738 h 0.9278039 l 0.278694,0.6738 h 0.532693 l -1.093609,-2.60702 H 9.8316349 Z m 0.998359,-1.13594 0.2786933,-0.79022 0.278694,0.79022 z"
         id="path54611" />
      <path
         d="m 11.909488,116.14317 h 0.483304 v -0.96308 l 0.857248,-1.64394 h -0.52211 l -0.578554,1.19944 -0.575026,-1.19944 h -0.52211 l 0.857248,1.64394 z"
         id="path54613" />
      <path
         d="m 13.214753,115.39881 c 0.01764,0.20461 0.0635,0.33514 0.169333,0.47625 0.155222,0.19756 0.409221,0.31397 0.687915,0.31397 0.469193,0 0.832554,-0.36336 0.832554,-0.83608 0,-0.21872 -0.07761,-0.40216 -0.232833,-0.54327 -0.102305,-0.0953 -0.183444,-0.13759 -0.440971,-0.23636 -0.246944,-0.0917 -0.254,-0.0952 -0.289277,-0.11642 -0.09525,-0.06 -0.144639,-0.14111 -0.144639,-0.23636 0,-0.15522 0.109361,-0.26458 0.268111,-0.26458 0.162277,0 0.261054,0.0988 0.275166,0.27516 h 0.500943 c -0.01058,-0.19755 -0.05644,-0.33161 -0.162278,-0.46214 -0.14111,-0.17638 -0.366888,-0.27869 -0.610304,-0.27869 -0.423332,0 -0.75847,0.32808 -0.75847,0.74083 0,0.32808 0.190499,0.57856 0.543276,0.70908 0.34925,0.13053 0.373944,0.14111 0.451555,0.20109 0.07761,0.0635 0.119944,0.15522 0.119944,0.26458 0,0.18697 -0.144639,0.3175 -0.352777,0.3175 -0.215194,0 -0.33161,-0.10583 -0.352777,-0.32456 z"
         id="path54615" />
      <path
         d="m 15.253799,116.14317 h 0.469193 v -0.45155 h -0.469193 z m 0,-1.30174 h 0.469193 v -0.4692 h -0.469193 z"
         id="path54617" />
    </g>
  </g>
  <g
     inkscape:groupmode="layer"
     id="layer3"
     inkscape:label="back"
     style="filter:url(#filter1927)"
     transform="translate(0,0.00971522)" />
  <g
     inkscape:groupmode="layer"
     id="layer5"
     inkscape:label="Layer 2">
    <path
       style="fill:#ffffff;stroke-width:0.0210438"
       d="m 28.494221,125.62625 v -2.3908 h 2.219925 2.219925 v 2.3908 2.3908 h -2.219925 -2.219925 z m 3.87694,1.9953 c 0.19568,-0.0365 0.209352,-0.0421 0.1946,-0.0797 -0.04424,-0.11286 -0.05762,-0.12861 -0.09844,-0.11597 -0.12296,0.038 -0.370726,0.0691 -0.463304,0.0581 -0.276722,-0.0329 -0.50527,-0.36907 -0.68568,-1.00843 -0.0647,-0.22926 -0.117219,-0.64955 -0.09314,-0.74517 0.0162,-0.0643 9.82e-4,-0.0789 -0.17484,-0.16757 l -0.12432,-0.0627 0.1517,-0.12768 c 0.16068,-0.13524 0.319119,-0.32976 0.379395,-0.46578 0.02066,-0.0466 0.03636,-0.1445 0.03636,-0.22671 0,-0.18902 -0.07608,-0.31334 -0.318559,-0.52059 -0.09756,-0.0834 -0.17738,-0.16793 -0.17738,-0.1879 0,-0.0351 -0.03292,-0.0367 -1.03004,-0.0496 -0.566519,-0.007 -1.032699,-0.0108 -1.035951,-0.008 -0.0032,0.003 -0.0116,0.0921 -0.0186,0.19785 l -0.0128,0.1922 h 0.19006 0.19006 l -0.0154,0.85788 c -0.0084,0.47179 -0.022,1.06957 -0.03014,1.32837 l -0.0148,0.47054 0.14876,0.0123 c 0.08182,0.007 0.1513,0.0102 0.15438,0.008 0.003,-0.003 0.0134,-0.33694 0.02302,-0.74298 l 0.0174,-0.73826 0.415892,0.009 c 0.470514,0.0104 0.607534,0.0355 0.87641,0.16033 l 0.1535,0.0713 0.0148,0.2522 c 0.03444,0.58343 0.315619,1.28521 0.607975,1.51734 0.19094,0.1516 0.374584,0.17927 0.738956,0.11135 z m -1.893177,-2.25129 c -0.04546,-0.01 -0.272868,-0.0227 -0.50535,-0.0288 l -0.422692,-0.0111 0.0154,-0.25351 c 0.0084,-0.13943 0.0154,-0.37013 0.0154,-0.51267 v -0.25915 l 0.678966,0.0114 0.678966,0.0114 0.06706,0.0492 c 0.1181,0.0866 0.19104,0.20567 0.19104,0.3118 0,0.17383 -0.221578,0.45931 -0.478194,0.61609 -0.0783,0.0478 -0.14582,0.0861 -0.15006,0.0851 -0.0042,-0.001 -0.0449,-0.01 -0.09036,-0.0197 z m 3.416306,2.19677 c -0.02036,-0.0274 -0.06378,-0.12306 -0.09648,-0.21266 -0.056,-0.15344 -0.06088,-0.20288 -0.08404,-0.85175 -0.03384,-0.94774 -0.08636,-1.48714 -0.237592,-2.4406 -0.03832,-0.24153 -0.06484,-0.44296 -0.05898,-0.44763 0.0156,-0.0124 0.29903,-0.0749 0.54417,-0.12006 0.16756,-0.0309 0.284274,-0.0387 0.551384,-0.037 0.345621,0.002 0.453165,-0.014 0.548189,-0.0823 0.031,-0.0223 0.18146,-0.0313 0.766416,-0.0462 0.400314,-0.0102 0.730961,-0.016 0.734769,-0.013 0.0118,0.009 0.14576,0.62803 0.19566,0.90396 0.15112,0.83527 0.19572,1.62851 0.15192,2.70191 l -0.0154,0.37674 -0.332904,0.0328 c -0.459785,0.0453 -0.652565,0.0783 -0.899209,0.15384 l -0.212062,0.0649 -0.12712,-0.0494 c -0.245324,-0.0954 -0.688449,-0.0747 -1.164165,0.0543 l -0.227578,0.0617 z m 1.674883,-0.51098 c -0.007,-0.0954 -0.0186,-0.27049 -0.02582,-0.3891 -0.0072,-0.1186 -0.0391,-0.38018 -0.0709,-0.58129 -0.1197,-0.75677 -0.13432,-0.98355 -0.0643,-0.99809 0.02288,-0.005 0.23059,-0.0332 0.461586,-0.0631 0.391708,-0.0508 0.419232,-0.057 0.408702,-0.092 -0.0062,-0.0206 -0.02462,-0.10784 -0.0409,-0.1938 l -0.0296,-0.15631 -0.10778,0.0126 c -0.05928,0.007 -0.315014,0.0423 -0.568298,0.0787 -0.524504,0.0753 -0.872627,0.0946 -1.157021,0.0643 -0.10832,-0.0116 -0.201114,-0.0177 -0.206224,-0.0136 -0.0098,0.008 -0.07728,0.37419 -0.06988,0.37958 0.0186,0.0135 0.473686,0.0443 0.655556,0.0443 l 0.226123,6e-5 0.02826,0.30005 c 0.0156,0.16503 0.0545,0.45826 0.08656,0.65161 0.0481,0.29003 0.1036,0.8571 0.10554,1.07818 l 4.46e-4,0.0516 h 0.19036 0.19036 z m -10.933068,0.0539 c -0.34582,-1.79358 -0.415787,-2.34122 -0.416185,-3.25749 l -2.34e-4,-0.53624 0.289297,-0.0499 c 0.598664,-0.10319 1.09689,-0.15536 1.907011,-0.19966 0.389606,-0.0213 1.11968,-0.0533 1.124892,-0.0493 0.0017,0.001 -0.0078,0.17539 -0.02102,0.38681 -0.03826,0.60923 0.003,1.05506 0.217148,2.34186 0.08456,0.50826 0.115659,0.72934 0.154919,1.10097 l 0.014,0.13321 -0.455701,0.0584 c -0.476808,0.0611 -0.796976,0.0907 -1.660129,0.15375 -0.50318,0.0367 -0.89092,0.0778 -1.041056,0.11036 l -0.0728,0.0158 z m 1.700751,-0.30778 c 0.03522,-0.26526 0.03958,-0.8127 0.0084,-1.04463 -0.0126,-0.0928 -0.02994,-0.33542 -0.03874,-0.53911 l -0.016,-0.37034 h 0.238446 0.238446 l 0.0154,0.0813 c 0.02408,0.1275 0.02818,0.12944 0.209036,0.0993 0.08746,-0.0145 0.16556,-0.0316 0.17354,-0.038 0.008,-0.006 -0.0098,-0.10219 -0.03942,-0.21302 -0.02966,-0.11082 -0.05952,-0.27533 -0.06634,-0.36558 l -0.0124,-0.16407 h -0.18568 -0.18566 v 0.0656 0.0656 h -0.885609 -0.885608 v 0.23439 0.23439 h 0.448708 0.448708 l 6.26e-4,0.17345 c 5.68e-4,0.16195 0.0156,0.38103 0.06748,0.97976 0.0138,0.15862 0.0122,0.33875 -0.0046,0.51567 -0.014,0.14954 -0.02618,0.3183 -0.02688,0.37503 l -0.0013,0.10313 0.224355,0.0194 c 0.1234,0.0107 0.229212,0.0167 0.23515,0.0133 0.006,-0.003 0.02392,-0.10491 0.03996,-0.22568 z m -3.227478,0.2901 c -0.13658,-0.0436 -0.307748,-0.10583 -0.380386,-0.13838 l -0.13206,-0.0592 -0.156879,0.0452 -0.15688,0.0452 -0.17766,-0.0834 -0.17766,-0.0834 -0.354216,0.0256 -0.354216,0.0256 -0.11168,-0.0919 -0.11168,-0.0919 -0.295201,0.0248 c -0.16236,0.0136 -0.299112,0.0225 -0.30389,0.0196 -0.0048,-0.003 0.09062,-0.78191 0.212008,-1.73128 l 0.220697,-1.72612 0.22489,0.0102 c 0.568968,0.0258 0.929428,0.0571 1.826461,0.1585 0.530164,0.0599 0.970222,0.11396 0.977908,0.12006 0.0076,0.006 -0.06688,0.59973 -0.16572,1.31917 -0.09882,0.71943 -0.201952,1.48949 -0.229164,1.71122 -0.063,0.51338 -0.07376,0.5815 -0.0917,0.58039 -0.008,-4.6e-4 -0.12642,-0.0365 -0.262986,-0.0801 z m -0.248468,-0.78089 0.1632,-0.13059 -0.04554,-0.0429 c -0.02506,-0.0236 -0.09064,-0.0824 -0.14574,-0.1308 -0.11306,-0.0992 -0.15794,-0.16931 -0.279872,-0.4371 -0.04696,-0.10313 -0.105959,-0.21587 -0.131099,-0.25052 -0.02788,-0.0384 -0.0377,-0.0713 -0.02516,-0.0844 0.0114,-0.0118 0.174439,-0.17326 0.362515,-0.3589 0.18808,-0.18564 0.349344,-0.34744 0.358356,-0.35957 0.0162,-0.0218 -0.310258,-0.24985 -0.357724,-0.24985 -0.0126,0 -0.14834,0.12415 -0.301583,0.27588 l -0.27861,0.27589 -0.05456,-0.0931 c -0.05488,-0.0936 -0.06084,-0.20019 -0.0186,-0.33214 0.0126,-0.0392 0.008,-0.0516 -0.019,-0.0516 -0.11036,0 -0.35213,-0.0836 -0.512796,-0.17723 -0.09742,-0.0568 -0.19308,-0.10344 -0.2126,-0.10366 -0.03358,-4.6e-4 -0.26086,0.27187 -0.258718,0.30989 0.001,0.0188 0.286834,0.18249 0.41423,0.23733 0.05932,0.0255 0.07676,0.0471 0.087,0.10777 0.013,0.0767 0.11622,0.26334 0.20281,0.36658 l 0.04718,0.0562 -0.446964,0.43831 c -0.24583,0.24107 -0.446964,0.44093 -0.446964,0.44414 0,0.0135 0.352592,0.23326 0.374262,0.23326 0.013,0 0.17436,-0.14823 0.358452,-0.3294 0.1841,-0.18118 0.33827,-0.32659 0.342608,-0.32315 0.0044,0.003 0.04588,0.0896 0.09232,0.19147 0.04644,0.10186 0.11792,0.23167 0.15884,0.28845 0.06852,0.0951 0.359297,0.36015 0.395095,0.36015 0.0086,0 0.08892,-0.0588 0.1787,-0.13059 z m 14.58386,-0.97575 v -1.78138 h 1.476015 1.476011 v 1.78138 1.78139 H 38.920785 37.44477 Z m 2.515707,1.42343 c 0.156179,-0.0783 0.168859,-0.09 0.131659,-0.12114 -0.0126,-0.0105 -0.013,-0.16803 -0.0012,-0.38347 0.011,-0.20111 0.02064,-0.7306 0.02126,-1.17665 l 0.0012,-0.811 h -0.173659 -0.17366 l -0.0152,0.14346 c -0.0084,0.0789 -0.0152,0.48394 -0.0152,0.90007 0,0.42107 -0.0092,0.75661 -0.02072,0.75661 -0.0114,0 -0.0425,-0.0402 -0.06914,-0.0894 -0.251768,-0.4647 -0.601542,-1.00632 -0.82627,-1.27948 -0.07212,-0.0877 -0.12998,-0.17397 -0.12858,-0.19178 0.0015,-0.0178 -0.0313,-0.0511 -0.0727,-0.0739 -0.04138,-0.0228 -0.14176,-0.0903 -0.223078,-0.14997 -0.158739,-0.11648 -0.266917,-0.15184 -0.531133,-0.17358 l -0.1358,-0.0112 v 0.13846 c 0,0.0761 -0.0064,0.16391 -0.0142,0.19502 -0.0142,0.0562 -0.0134,0.0566 0.11218,0.069 0.06954,0.007 0.1489,0.0212 0.17636,0.032 0.0488,0.0191 0.04912,0.0221 0.0138,0.13336 -0.02964,0.0934 -0.03118,0.13283 -0.0086,0.21966 0.0186,0.0716 0.02752,0.38559 0.02752,0.97192 v 0.86612 h 0.16236 0.162359 l 0.0148,-0.0586 c 0.0082,-0.0322 0.0148,-0.46709 0.0148,-0.96636 0,-0.89133 8.94e-4,-0.9074 0.04562,-0.88836 0.07856,0.0334 0.351666,0.41529 0.603912,0.84449 0.35529,0.60453 0.46839,0.78711 0.606922,0.97976 0.07972,0.11087 0.14872,0.20158 0.1533,0.20158 0.0046,0 0.07718,-0.0345 0.16128,-0.0767 z"
       id="path365" />
  </g>
  <g
     inkscape:label="Layer 1"
     inkscape:groupmode="layer"
     id="layer1"
     transform="translate(0,-168.49025)"
     style="display:inline">
    <g
       aria-label="Pitch"
       style="font-style:normal;font-variant:normal;font-weight:300;font-stretch:normal;font-size:4.93889px;line-height:6.61458px;font-family:'Gotham Rounded';-inkscape-font-specification:'Gotham Rounded Light';font-variant-ligatures:normal;font-variant-caps:normal;font-variant-numeric:normal;font-feature-settings:normal;text-align:center;letter-spacing:0px;word-spacing:0px;writing-mode:lr-tb;text-anchor:middle;display:inline;fill:#000000;fill-opacity:1;stroke:#000000;stroke-width:0.264583px;stroke-linecap:butt;stroke-linejoin:miter;stroke-opacity:1"
       id="text4944"
       transform="translate(0,10.583334)" />
    <text
       xml:space="preserve"
       style="font-style:normal;font-weight:normal;font-size:10.5833px;line-height:1.25;font-family:sans-serif;fill:#000000;fill-opacity:1;stroke:#000000;stroke-width:0.264583"
       x="10.375626"
       y="254.64096"
       id="text72"><tspan
         sodipodi:role="line"
         id="tspan70"
         x="10.375626"
         y="254.64096"
         style="fill:#000000;stroke:#000000;stroke-width:0.264583" /></text>
  </g>
  <g
     inkscape:groupmode="layer"
     id="layer2"
     inkscape:label="components"
     transform="translate(0,0.00972625)">
    <text
       xml:space="preserve"
       style="font-style:normal;font-weight:normal;font-size:10.5833px;line-height:1.25;font-family:sans-serif;fill:#000000;fill-opacity:1;stroke:#000000;stroke-width:0.264583"
       x="-65.249954"
       y="111.72212"
       id="text144"><tspan
         sodipodi:role="line"
         id="tspan142"
         x="-65.249954"
         y="111.72212"
         style="fill:#000000;stroke:#000000;stroke-width:0.264583" /></text>
    <text
       xml:space="preserve"
       style="font-size:3.52777px;line-height:1.25;font-family:sans-serif;fill:#000000;stroke:#000000;stroke-width:0.264583"
       x="17.94903"
       y="75.780609"
       id="text1055"><tspan
         sodipodi:role="line"
         id="tspan1053"
         x="17.94903"
         y="75.780609"
         style="fill:#000000;stroke:#000000;stroke-width:0.264583" /></text>
    <text
       xml:space="preserve"
       style="font-size:3.52777px;line-height:1.25;font-family:sans-serif;fill:#000000;stroke:#000000;stroke-width:0.264583"
       x="5.6367397"
       y="125.28948"
       id="text1388"><tspan
         sodipodi:role="line"
         id="tspan1386"
         x="5.6367397"
         y="125.28948"
         style="fill:#000000;stroke:#000000;stroke-width:0.264583" /></text>
    <text
       xml:space="preserve"
       style="font-weight:600;font-size:3.52777px;line-height:1.25;font-family:'URW Gothic';-inkscape-font-specification:'URW Gothic, Semi-Bold';fill:#ffffff;stroke-width:0.264583"
       x="3.3458118"
       y="78.44635"
       id="text123"><tspan
         sodipodi:role="line"
         id="tspan121"
         x="3.3458118"
         y="78.44635"
         style="fill:#ffffff;stroke-width:0.264583" /></text>
  </g>
</svg>
