<?xml version="1.0" encoding="UTF-8" standalone="no"?>
<svg
   width="40.011112mm"
   height="128.52271mm"
   viewBox="0 0 40.011116 128.52273"
   version="1.1"
   id="svg8"
   inkscape:version="1.1 (c4e8f9ed74, 2021-05-24)"
   sodipodi:docname="Meganeura.svg"
   xmlns:inkscape="http://www.inkscape.org/namespaces/inkscape"
   xmlns:sodipodi="http://sodipodi.sourceforge.net/DTD/sodipodi-0.dtd"
   xmlns:xlink="http://www.w3.org/1999/xlink"
   xmlns="http://www.w3.org/2000/svg"
   xmlns:svg="http://www.w3.org/2000/svg"
   xmlns:rdf="http://www.w3.org/1999/02/22-rdf-syntax-ns#"
   xmlns:cc="http://creativecommons.org/ns#"
   xmlns:dc="http://purl.org/dc/elements/1.1/">
  <defs
     id="defs2">
    <linearGradient
       inkscape:collect="always"
       id="linearGradient16355">
      <stop
         style="stop-color:#262626;stop-opacity:1"
         offset="0"
         id="stop16351" />
      <stop
         style="stop-color:#0d0d0d;stop-opacity:1"
         offset="1"
         id="stop16353" />
    </linearGradient>
    <filter
       x="-0.30000001"
       width="1.6"
       y="-0.30000001"
       height="1.6"
       style="color-interpolation-filters:sRGB"
       inkscape:label="Felt Feather"
       id="filter3728">
      <feGaussianBlur
         stdDeviation="15 15"
         result="blur"
         id="feGaussianBlur3712" />
      <feComposite
         in="SourceGraphic"
         in2="blur"
         operator="atop"
         result="composite1"
         id="feComposite3714" />
      <feComposite
         in2="composite1"
         operator="in"
         result="composite2"
         id="feComposite3716" />
      <feComposite
         in2="composite2"
         operator="in"
         result="composite3"
         id="feComposite3718" />
      <feTurbulence
         type="fractalNoise"
         numOctaves="3"
         seed="1"
         baseFrequency="0.05 0.05"
         result="turbulence"
         id="feTurbulence3720" />
      <feDisplacementMap
         in="composite3"
         in2="turbulence"
         xChannelSelector="R"
         scale="30"
         yChannelSelector="G"
         result="map"
         id="feDisplacementMap3722" />
      <feColorMatrix
         values="1 0 0 0 0 0 1 0 0 0 0 0 1 0 0 0 0 0 1 -0 "
         result="colormatrix"
         id="feColorMatrix3724" />
      <feComposite
         in="composite3"
         in2="colormatrix"
         operator="atop"
         result="composite4"
         id="feComposite3726" />
    </filter>
    <filter
       inkscape:collect="always"
       style="color-interpolation-filters:sRGB"
       id="filter1927"
       x="-0.0010343177"
       width="1.0020686"
       y="-0.0003863599"
       height="1.0007727">
      <feGaussianBlur
         inkscape:collect="always"
         stdDeviation="0.020686142"
         id="feGaussianBlur1929" />
    </filter>
    <filter
       inkscape:collect="always"
       style="color-interpolation-filters:sRGB"
       id="filter12807"
       x="-0.0010343177"
       width="1.0020686"
       y="-0.00038635989"
       height="1.0007727">
      <feGaussianBlur
         inkscape:collect="always"
         stdDeviation="0.020686144"
         id="feGaussianBlur12805" />
    </filter>
    <linearGradient
       inkscape:collect="always"
       xlink:href="#linearGradient16355"
       id="linearGradient16349"
       x1="14.979209"
       y1="-11.974414"
       x2="11.963202"
       y2="67.196983"
       gradientUnits="userSpaceOnUse" />
  </defs>
  <sodipodi:namedview
     id="base"
     pagecolor="#ffffff"
     bordercolor="#666666"
     borderopacity="1.0"
     inkscape:pageopacity="0.0"
     inkscape:pageshadow="2"
     inkscape:zoom="2"
     inkscape:cx="61.5"
     inkscape:cy="92.75"
     inkscape:document-units="mm"
     inkscape:current-layer="layer4"
     showgrid="false"
     units="mm"
     inkscape:snap-bbox="true"
     inkscape:snap-page="true"
     inkscape:bbox-nodes="false"
     inkscape:snap-bbox-edge-midpoints="false"
     inkscape:window-width="1366"
     inkscape:window-height="768"
     inkscape:window-x="0"
     inkscape:window-y="0"
     inkscape:window-maximized="0"
     inkscape:snap-bbox-midpoints="true"
     inkscape:snap-nodes="false"
     inkscape:document-rotation="0"
     fit-margin-top="0"
     fit-margin-left="0"
     fit-margin-right="0"
     fit-margin-bottom="0"
     showguides="false"
     inkscape:pagecheckerboard="0" />
  <metadata
     id="metadata5">
    <rdf:RDF>
      <cc:Work
         rdf:about="">
        <dc:format>image/svg+xml</dc:format>
        <dc:type
           rdf:resource="http://purl.org/dc/dcmitype/StillImage" />
      </cc:Work>
    </rdf:RDF>
  </metadata>
  <g
     inkscape:groupmode="layer"
     id="layer4"
     inkscape:label="back 1"
     transform="translate(0.02065398,0.01120977)">
    <rect
       style="fill:url(#linearGradient16349);fill-opacity:1;stroke:#000000;stroke-width:0;stroke-opacity:1;filter:url(#filter12807)"
       id="rect1921"
       width="47.999996"
       height="128.5"
       x="0.03112038"
       y="0.048966013"
       transform="matrix(0.83184413,0,0,0.99940448,-0.00524252,-0.01052894)" />
    <rect
       style="fill:#ffffff;fill-opacity:0;stroke:#ffffff;stroke-width:0.143923;stroke-miterlimit:4;stroke-dasharray:none"
       id="rect22401"
       width="10.106077"
       height="10.106077"
       x="4.0951519"
       y="52.062248" />
    <g
       aria-label="MEGANEURA"
       transform="matrix(1.1948744,0,0,1.0810035,-6.5703039,0.99852509)"
       id="text3538"
       style="font-weight:600;font-size:4.23233px;line-height:1.25;font-family:'URW Gothic';-inkscape-font-specification:'URW Gothic, Semi-Bold';fill:#ffffff;stroke-width:0.317425">
      <path
         d="M 9.6659951,7.7990384 H 10.245824 V 5.4543277 l 0.81684,2.3447107 h 0.474021 l 0.81684,-2.3447107 v 2.3447107 h 0.579829 V 4.6713467 H 12.137676 L 11.303907,7.0414514 10.461673,4.6713467 H 9.6659951 Z"
         id="path10789" />
      <path
         d="m 13.47509,7.7990384 h 1.680235 V 7.2446032 H 14.054919 V 6.5166425 H 15.10877 V 5.9622073 H 14.054919 V 5.2257819 h 1.100406 V 4.6713467 H 13.47509 Z"
         id="path10791" />
      <path
         d="m 16.805928,6.7451883 h 1.295093 c -0.165061,0.347051 -0.503648,0.5502029 -0.918416,0.5502029 -0.613688,0 -1.083476,-0.4570917 -1.083476,-1.0580825 0,-0.2708691 0.114273,-0.5671322 0.29203,-0.757587 0.181991,-0.1946872 0.457092,-0.3047278 0.757588,-0.3047278 0.36398,0 0.668708,0.1481316 0.859162,0.4147683 h 0.681406 C 18.486163,5.0268624 17.842849,4.6163264 17.161443,4.6163264 c -0.918415,0 -1.646376,0.7110314 -1.646376,1.6125176 0,0.9184156 0.740658,1.6252147 1.701397,1.6252147 0.474021,0 0.876092,-0.1650609 1.185052,-0.4824856 0.287799,-0.3004954 0.448627,-0.6898698 0.448627,-1.0919411 V 6.20345 h -2.044215 z"
         id="path10793" />
      <path
         d="m 18.816274,7.7990384 h 0.639082 l 0.347051,-0.808375 h 1.113103 l 0.334354,0.808375 h 0.639082 L 20.576923,4.6713467 h -0.457091 z m 1.197749,-1.3628102 0.334355,-0.9480419 0.334354,0.9480419 z"
         id="path10795" />
      <path
         d="m 22.20637,7.7990384 h 0.579829 V 5.5262773 l 1.30779,2.2727611 h 0.647546 V 4.6713467 H 24.161706 V 6.9483401 L 22.866613,4.6713467 H 22.20637 Z"
         id="path10797" />
      <path
         d="m 25.338293,7.7990384 h 1.680235 V 7.2446032 H 25.918122 V 6.5166425 h 1.05385 V 5.9622073 h -1.05385 V 5.2257819 h 1.100406 V 4.6713467 h -1.680235 z"
         id="path10799" />
      <path
         d="M 27.539099,4.6713467 V 6.652077 c 0,0.3343541 0.05079,0.5502029 0.169293,0.7364254 0.181991,0.2877984 0.520577,0.4655563 0.884557,0.4655563 0.342819,0 0.660244,-0.1523639 0.846466,-0.4020713 0.148132,-0.2031519 0.211617,-0.43593 0.211617,-0.7999104 V 4.6713467 H 29.071203 V 6.652077 c 0,0.2327782 -0.01693,0.3301218 -0.07618,0.4316977 -0.08042,0.1312022 -0.228546,0.2116165 -0.402072,0.2116165 -0.169293,0 -0.317424,-0.080414 -0.397839,-0.2116165 -0.05925,-0.1015759 -0.07618,-0.1989195 -0.07618,-0.4316977 V 4.6713467 Z"
         id="path10801" />
      <path
         d="m 30.247786,7.7990384 h 0.579829 V 6.6012891 l 0.821072,1.1977493 h 0.715264 l -0.846466,-1.155426 c 0.241243,-0.059253 0.359748,-0.1142729 0.495183,-0.2285458 0.215848,-0.1819902 0.321657,-0.4274654 0.321657,-0.7406578 0,-0.321657 -0.114273,-0.5882938 -0.330122,-0.770284 C 31.801051,4.7305993 31.576738,4.6713467 31.149272,4.6713467 H 30.247786 Z M 30.827615,6.1653591 V 5.2257819 h 0.258172 c 0.270869,0 0.419001,0.029626 0.512112,0.1100405 0.101576,0.080414 0.152364,0.2031519 0.152364,0.3555157 0,0.3301218 -0.190455,0.474021 -0.639082,0.474021 z"
         id="path10803" />
      <path
         d="m 32.537473,7.7990384 h 0.639082 l 0.347051,-0.808375 h 1.113103 l 0.334354,0.808375 h 0.639082 L 34.298122,4.6713467 h -0.457091 z m 1.197749,-1.3628102 0.334355,-0.9480419 0.334354,0.9480419 z"
         id="path10805" />
    </g>
    <text
       xml:space="preserve"
       style="font-weight:600;font-size:3.52777px;line-height:1.25;font-family:'URW Gothic';-inkscape-font-specification:'URW Gothic, Semi-Bold';stroke-width:0.264583"
       x="-108.7295"
       y="48.709389"
       id="text7898"><tspan
         sodipodi:role="line"
         id="tspan7896"
         style="stroke-width:0.264583"
         x="-108.7295"
         y="48.709389" /></text>
  </g>
  <g
     inkscape:groupmode="layer"
     id="layer3"
     inkscape:label="back"
     style="filter:url(#filter1927)"
     transform="translate(0.02065398,0.01120977)" />
  <g
     inkscape:groupmode="layer"
     id="layer5"
     inkscape:label="Layer 2"
     transform="translate(0.02065398,0.00149455)">
    <path
       style="fill:#ffffff;stroke-width:0.0189395"
       d="m 18.267028,124.307 v -2.15173 h 1.997932 1.997933 v 2.15173 2.15174 H 20.26496 18.267028 Z m 3.489246,1.79579 c 0.176112,-0.0328 0.188417,-0.0379 0.17514,-0.0717 -0.03982,-0.10158 -0.05186,-0.11576 -0.0886,-0.10437 -0.110664,0.0342 -0.333653,0.0622 -0.416974,0.0523 -0.249049,-0.0296 -0.454743,-0.33216 -0.617112,-0.90759 -0.05823,-0.20634 -0.105497,-0.5846 -0.08383,-0.67066 0.01458,-0.0578 8.84e-4,-0.071 -0.157356,-0.15081 l -0.111888,-0.0564 0.13653,-0.11491 c 0.144612,-0.12172 0.287208,-0.29679 0.341456,-0.41921 0.01859,-0.0419 0.03272,-0.13005 0.03272,-0.20404 0,-0.17012 -0.06847,-0.28201 -0.286703,-0.46853 -0.0878,-0.0751 -0.159642,-0.15114 -0.159642,-0.16911 0,-0.0316 -0.02963,-0.033 -0.927036,-0.0446 -0.509867,-0.007 -0.929429,-0.01 -0.932356,-0.007 -0.0029,0.003 -0.01044,0.0829 -0.01674,0.17807 l -0.01152,0.17298 h 0.171054 0.171054 l -0.01386,0.7721 c -0.0076,0.42461 -0.0198,0.96262 -0.02713,1.19554 l -0.01332,0.42349 0.133884,0.0111 c 0.07364,0.007 0.13617,0.009 0.138942,0.007 0.0027,-0.003 0.01206,-0.30325 0.02072,-0.66869 l 0.01566,-0.66443 0.374303,0.008 c 0.423462,0.009 0.54678,0.032 0.788769,0.14429 l 0.13815,0.0641 0.01332,0.22698 c 0.031,0.5251 0.284057,1.1567 0.547177,1.36562 0.171846,0.13644 0.337126,0.16134 0.665061,0.10021 z m -1.703859,-2.02617 c -0.04091,-0.009 -0.245582,-0.0204 -0.454815,-0.026 l -0.380423,-0.01 0.01386,-0.22816 c 0.0076,-0.12549 0.01386,-0.33312 0.01386,-0.46141 v -0.23324 l 0.611069,0.0102 0.61107,0.0102 0.06035,0.0443 c 0.10629,0.0779 0.171936,0.18511 0.171936,0.28063 0,0.15644 -0.199421,0.41338 -0.430375,0.55448 -0.07047,0.043 -0.131238,0.0775 -0.135054,0.0766 -0.0038,-9e-4 -0.04041,-0.009 -0.08132,-0.0177 z m 3.074675,1.9771 c -0.01832,-0.0247 -0.0574,-0.11076 -0.08683,-0.19139 -0.0504,-0.1381 -0.05479,-0.18259 -0.07564,-0.76659 -0.03046,-0.85297 -0.07772,-1.33843 -0.213833,-2.19655 -0.03449,-0.21737 -0.05836,-0.39867 -0.05308,-0.40287 0.01404,-0.0112 0.269127,-0.0674 0.489753,-0.10806 0.150804,-0.0278 0.255847,-0.0348 0.496246,-0.0333 0.311059,0.002 0.407849,-0.0126 0.49337,-0.0741 0.0279,-0.0201 0.163314,-0.0282 0.689775,-0.0415 0.360282,-0.009 0.657864,-0.0144 0.661292,-0.0117 0.01062,0.008 0.131184,0.56522 0.176094,0.81356 0.136008,0.75175 0.176148,1.46567 0.136728,2.43174 l -0.01386,0.33907 -0.299614,0.0295 c -0.413806,0.0408 -0.587308,0.0705 -0.809288,0.13846 l -0.190856,0.0584 -0.114408,-0.0444 c -0.220791,-0.0859 -0.619604,-0.0672 -1.047748,0.0488 l -0.204821,0.0555 z m 1.507395,-0.45989 c -0.0063,-0.0859 -0.01674,-0.24343 -0.02324,-0.35019 -0.0065,-0.10673 -0.03519,-0.34216 -0.06381,-0.52316 -0.10773,-0.6811 -0.120888,-0.88521 -0.05787,-0.89828 0.02059,-0.005 0.207531,-0.0299 0.415427,-0.0568 0.352538,-0.0457 0.377309,-0.0513 0.367832,-0.0828 -0.0056,-0.0186 -0.02216,-0.0971 -0.03681,-0.17442 l -0.02664,-0.14068 -0.097,0.0113 c -0.05335,0.007 -0.283512,0.0381 -0.511468,0.0709 -0.472054,0.0678 -0.785364,0.0851 -1.041319,0.0579 -0.09749,-0.0104 -0.181003,-0.0159 -0.185602,-0.0123 -0.0088,0.008 -0.06955,0.33677 -0.06289,0.34162 0.01674,0.0122 0.426318,0.0398 0.590001,0.0398 l 0.203511,6e-5 0.02543,0.27004 c 0.01404,0.14853 0.04905,0.41244 0.0779,0.58645 0.04329,0.26103 0.09324,0.77139 0.09499,0.97037 l 4.01e-4,0.0464 h 0.171324 0.171324 z m -9.839762,0.0486 c -0.311238,-1.61423 -0.374208,-2.10711 -0.374566,-2.93176 l -2.11e-4,-0.48262 0.260368,-0.0449 c 0.538797,-0.0929 0.987201,-0.13983 1.71631,-0.17971 0.350645,-0.0191 1.007712,-0.048 1.012402,-0.0443 0.0015,9e-4 -0.007,0.15785 -0.01892,0.34813 -0.03443,0.54831 0.0027,0.94955 0.195434,2.10768 0.0761,0.45744 0.104093,0.65641 0.139427,0.99089 l 0.0126,0.11989 -0.410131,0.0526 c -0.429127,0.055 -0.717279,0.0817 -1.494116,0.13838 -0.452862,0.033 -0.801828,0.07 -0.936951,0.0993 l -0.06552,0.0143 z m 1.530676,-0.277 c 0.0317,-0.23874 0.03562,-0.73144 0.0076,-0.94018 -0.01134,-0.0835 -0.02695,-0.30188 -0.03487,-0.4852 l -0.0144,-0.3333 h 0.214602 0.214601 l 0.01386,0.0731 c 0.02167,0.11476 0.02536,0.11651 0.188133,0.0894 0.07871,-0.013 0.149004,-0.0284 0.156186,-0.0342 0.0072,-0.006 -0.0088,-0.092 -0.03548,-0.19172 -0.02669,-0.0997 -0.05357,-0.24779 -0.05971,-0.32902 l -0.01116,-0.14767 h -0.167142 -0.167094 v 0.0591 0.0591 h -0.797049 -0.797047 v 0.21096 0.21095 h 0.403837 0.403838 l 5.63e-4,0.1561 c 5.11e-4,0.14576 0.01404,0.34293 0.06073,0.88179 0.01242,0.14276 0.01098,0.30488 -0.0041,0.4641 -0.0126,0.13459 -0.02356,0.28648 -0.02419,0.33754 l -0.0012,0.0928 0.20192,0.0174 c 0.11106,0.01 0.20629,0.015 0.211635,0.012 0.0054,-0.003 0.02153,-0.0944 0.03596,-0.20311 z m -2.90473,0.2611 c -0.122922,-0.0393 -0.276973,-0.0953 -0.342347,-0.12455 l -0.118854,-0.0533 -0.141192,0.0407 -0.141192,0.0407 -0.159894,-0.0751 -0.159894,-0.0751 -0.318794,0.0231 -0.318794,0.0231 -0.100512,-0.0827 -0.100512,-0.0827 -0.265681,0.0223 c -0.146124,0.0122 -0.269201,0.0203 -0.273501,0.0176 -0.0043,-0.003 0.08156,-0.70372 0.190807,-1.55816 l 0.198627,-1.55352 0.202401,0.009 c 0.512071,0.0232 0.836485,0.0514 1.643815,0.14265 0.477148,0.0539 0.8732,0.10256 0.880117,0.10806 0.0068,0.006 -0.06019,0.53976 -0.149148,1.18725 -0.08894,0.64749 -0.181756,1.34056 -0.206247,1.54012 -0.0567,0.46204 -0.06638,0.52335 -0.08253,0.52235 -0.0072,-4.2e-4 -0.113778,-0.0328 -0.236688,-0.0721 z m -0.223621,-0.70281 0.14688,-0.11754 -0.04099,-0.0386 c -0.02255,-0.0213 -0.08158,-0.0742 -0.131166,-0.11773 -0.101754,-0.0892 -0.142146,-0.15238 -0.251885,-0.39339 -0.04226,-0.0928 -0.09536,-0.19429 -0.117989,-0.22547 -0.02509,-0.0346 -0.03393,-0.0641 -0.02264,-0.0759 0.01026,-0.0106 0.156995,-0.15592 0.326263,-0.32301 0.169272,-0.16707 0.31441,-0.31269 0.322521,-0.32361 0.01458,-0.0196 -0.279232,-0.22487 -0.321952,-0.22487 -0.01134,0 -0.133506,0.11174 -0.271425,0.2483 l -0.250749,0.2483 -0.0491,-0.0838 c -0.04939,-0.0842 -0.05476,-0.18017 -0.01674,-0.29893 0.01134,-0.0353 0.0072,-0.0464 -0.0171,-0.0464 -0.09932,0 -0.316917,-0.0753 -0.461516,-0.15951 -0.08768,-0.0511 -0.173772,-0.0931 -0.19134,-0.0933 -0.03022,-4.1e-4 -0.234774,0.2447 -0.232846,0.27891 9e-4,0.0169 0.25815,0.16424 0.372807,0.2136 0.05339,0.023 0.06908,0.0424 0.0783,0.097 0.0117,0.069 0.104598,0.23701 0.182529,0.32992 l 0.04246,0.0506 -0.402268,0.39448 c -0.221247,0.21696 -0.402267,0.39684 -0.402267,0.39972 0,0.0122 0.317332,0.20994 0.336835,0.20994 0.0117,0 0.156924,-0.13341 0.322607,-0.29646 0.16569,-0.16306 0.304443,-0.29394 0.308347,-0.29084 0.004,0.003 0.04129,0.0806 0.08309,0.17233 0.0418,0.0917 0.106128,0.2085 0.142956,0.25961 0.06167,0.0856 0.323368,0.32413 0.355586,0.32413 0.0077,0 0.08003,-0.053 0.16083,-0.11753 z m 13.125474,-0.87819 v -1.60325 h 1.328414 1.32841 v 1.60325 1.60326 h -1.32841 -1.328414 z m 2.264137,1.2811 c 0.140561,-0.0705 0.151973,-0.081 0.118493,-0.10903 -0.01134,-0.009 -0.0117,-0.15123 -0.0011,-0.34513 0.0099,-0.18099 0.01858,-0.65754 0.01913,-1.05898 l 0.0011,-0.72991 h -0.156289 -0.156294 l -0.01368,0.12911 c -0.0076,0.071 -0.01368,0.43555 -0.01368,0.81007 0,0.37897 -0.0083,0.68095 -0.01865,0.68095 -0.01026,0 -0.03825,-0.0362 -0.06223,-0.0804 -0.226591,-0.41823 -0.541388,-0.90569 -0.743643,-1.15153 -0.06491,-0.0789 -0.116982,-0.15658 -0.115722,-0.17261 0.0014,-0.016 -0.02817,-0.046 -0.06543,-0.0665 -0.03724,-0.0205 -0.127584,-0.0813 -0.200771,-0.13497 -0.142865,-0.10483 -0.240225,-0.13666 -0.478019,-0.15623 l -0.12222,-0.0101 v 0.12461 c 0,0.0685 -0.0058,0.14752 -0.01278,0.17552 -0.01278,0.0506 -0.01206,0.0509 0.100962,0.0621 0.06259,0.007 0.13401,0.019 0.158724,0.0288 0.04392,0.0171 0.04421,0.0199 0.01242,0.12002 -0.02668,0.0841 -0.02806,0.11955 -0.0077,0.19769 0.01674,0.0644 0.02477,0.34704 0.02477,0.87474 v 0.77951 h 0.146124 0.146123 l 0.01332,-0.0527 c 0.0074,-0.029 0.01332,-0.42039 0.01332,-0.86973 0,-0.80221 8.04e-4,-0.81667 0.04106,-0.79953 0.0707,0.0301 0.316499,0.37376 0.543521,0.76004 0.319761,0.54409 0.421551,0.70841 0.54623,0.88179 0.07175,0.0998 0.133848,0.18143 0.13797,0.18143 0.0041,0 0.06946,-0.031 0.145152,-0.069 z"
       id="path365" />
  </g>
  <g
     inkscape:label="Layer 1"
     inkscape:groupmode="layer"
     id="layer1"
     transform="translate(0.02065398,-168.48876)"
     style="display:inline">
    <g
       aria-label="Pitch"
       style="font-style:normal;font-variant:normal;font-weight:300;font-stretch:normal;font-size:4.93889px;line-height:6.61458px;font-family:'Gotham Rounded';-inkscape-font-specification:'Gotham Rounded Light';font-variant-ligatures:normal;font-variant-caps:normal;font-variant-numeric:normal;font-feature-settings:normal;text-align:center;letter-spacing:0px;word-spacing:0px;writing-mode:lr-tb;text-anchor:middle;display:inline;fill:#000000;fill-opacity:1;stroke:#000000;stroke-width:0.264583px;stroke-linecap:butt;stroke-linejoin:miter;stroke-opacity:1"
       id="text4944"
       transform="translate(0,10.583334)" />
    <text
       xml:space="preserve"
       style="font-style:normal;font-weight:normal;font-size:10.5833px;line-height:1.25;font-family:sans-serif;fill:#000000;fill-opacity:1;stroke:#000000;stroke-width:0.264583"
       x="10.375626"
       y="254.64096"
       id="text72"><tspan
         sodipodi:role="line"
         id="tspan70"
         x="10.375626"
         y="254.64096"
         style="fill:#000000;stroke:#000000;stroke-width:0.264583" /></text>
  </g>
  <g
     inkscape:groupmode="layer"
     id="layer2"
     inkscape:label="components"
     transform="translate(0.02065398,0.0112208)">
    <text
       xml:space="preserve"
       style="font-style:normal;font-weight:normal;font-size:10.5833px;line-height:1.25;font-family:sans-serif;fill:#000000;fill-opacity:1;stroke:#000000;stroke-width:0.264583"
       x="-65.249954"
       y="111.72212"
       id="text144"><tspan
         sodipodi:role="line"
         id="tspan142"
         x="-65.249954"
         y="111.72212"
         style="fill:#000000;stroke:#000000;stroke-width:0.264583" /></text>
    <text
       xml:space="preserve"
       style="font-size:3.52777px;line-height:1.25;font-family:sans-serif;fill:#000000;stroke:#000000;stroke-width:0.264583"
       x="17.94903"
       y="75.780609"
       id="text1055"><tspan
         sodipodi:role="line"
         id="tspan1053"
         x="17.94903"
         y="75.780609"
         style="fill:#000000;stroke:#000000;stroke-width:0.264583" /></text>
    <text
       xml:space="preserve"
       style="font-size:3.52777px;line-height:1.25;font-family:sans-serif;fill:#000000;stroke:#000000;stroke-width:0.264583"
       x="5.6367397"
       y="125.28948"
       id="text1388"><tspan
         sodipodi:role="line"
         id="tspan1386"
         x="5.6367397"
         y="125.28948"
         style="fill:#000000;stroke:#000000;stroke-width:0.264583" /></text>
    <text
       xml:space="preserve"
       style="font-weight:600;font-size:3.52777px;line-height:1.25;font-family:'URW Gothic';-inkscape-font-specification:'URW Gothic, Semi-Bold';fill:#ffffff;stroke-width:0.264583"
       x="3.3458118"
       y="78.44635"
       id="text123"><tspan
         sodipodi:role="line"
         id="tspan121"
         x="3.3458118"
         y="78.44635"
         style="fill:#ffffff;stroke-width:0.264583" /></text>
  </g>
</svg>
