<?xml version="1.0" encoding="UTF-8" standalone="no"?>
<svg
   width="40.011112mm"
   height="128.52271mm"
   viewBox="0 0 40.011116 128.52273"
   version="1.1"
   id="svg8"
   inkscape:version="1.1.1 (3bf5ae0d25, 2021-09-20)"
   sodipodi:docname="Mesoglea2.svg"
   xmlns:inkscape="http://www.inkscape.org/namespaces/inkscape"
   xmlns:sodipodi="http://sodipodi.sourceforge.net/DTD/sodipodi-0.dtd"
   xmlns:xlink="http://www.w3.org/1999/xlink"
   xmlns="http://www.w3.org/2000/svg"
   xmlns:svg="http://www.w3.org/2000/svg"
   xmlns:rdf="http://www.w3.org/1999/02/22-rdf-syntax-ns#"
   xmlns:cc="http://creativecommons.org/ns#"
   xmlns:dc="http://purl.org/dc/elements/1.1/">
  <defs
     id="defs2">
    <rect
       x="128.66324"
       y="444.44227"
       width="40.905959"
       height="47.138006"
       id="rect85662" />
    <rect
       x="120.09074"
       y="92.121567"
       width="34.87381"
       height="39.811722"
       id="rect52446" />
    <rect
       x="146.70808"
       y="103.82497"
       width="53.157333"
       height="36.018356"
       id="rect18834" />
    <linearGradient
       inkscape:collect="always"
       id="linearGradient16355">
      <stop
         style="stop-color:#262626;stop-opacity:1"
         offset="0"
         id="stop16351" />
      <stop
         style="stop-color:#0d0d0d;stop-opacity:1"
         offset="1"
         id="stop16353" />
    </linearGradient>
    <filter
       x="-0.30000001"
       width="1.6"
       y="-0.30000001"
       height="1.6"
       style="color-interpolation-filters:sRGB"
       inkscape:label="Felt Feather"
       id="filter3728">
      <feGaussianBlur
         stdDeviation="15 15"
         result="blur"
         id="feGaussianBlur3712" />
      <feComposite
         in="SourceGraphic"
         in2="blur"
         operator="atop"
         result="composite1"
         id="feComposite3714" />
      <feComposite
         in2="composite1"
         operator="in"
         result="composite2"
         id="feComposite3716" />
      <feComposite
         in2="composite2"
         operator="in"
         result="composite3"
         id="feComposite3718" />
      <feTurbulence
         type="fractalNoise"
         numOctaves="3"
         seed="1"
         baseFrequency="0.05 0.05"
         result="turbulence"
         id="feTurbulence3720" />
      <feDisplacementMap
         in="composite3"
         in2="turbulence"
         xChannelSelector="R"
         scale="30"
         yChannelSelector="G"
         result="map"
         id="feDisplacementMap3722" />
      <feColorMatrix
         values="1 0 0 0 0 0 1 0 0 0 0 0 1 0 0 0 0 0 1 -0 "
         result="colormatrix"
         id="feColorMatrix3724" />
      <feComposite
         in="composite3"
         in2="colormatrix"
         operator="atop"
         result="composite4"
         id="feComposite3726" />
    </filter>
    <filter
       inkscape:collect="always"
       style="color-interpolation-filters:sRGB"
       id="filter1927"
       x="-0.0010343177"
       width="1.0020686"
       y="-0.0003863599"
       height="1.0007727">
      <feGaussianBlur
         inkscape:collect="always"
         stdDeviation="0.020686142"
         id="feGaussianBlur1929" />
    </filter>
    <filter
       inkscape:collect="always"
       style="color-interpolation-filters:sRGB"
       id="filter12807"
       x="-0.0010343051"
       width="1.0020686"
       y="-0.00038635989"
       height="1.0007727">
      <feGaussianBlur
         inkscape:collect="always"
         stdDeviation="0.020686144"
         id="feGaussianBlur12805" />
    </filter>
    <linearGradient
       inkscape:collect="always"
       xlink:href="#linearGradient16355"
       id="linearGradient16349"
       x1="14.979209"
       y1="-11.974414"
       x2="11.963202"
       y2="67.196983"
       gradientUnits="userSpaceOnUse" />
  </defs>
  <sodipodi:namedview
     id="base"
     pagecolor="#ffffff"
     bordercolor="#666666"
     borderopacity="1.0"
     inkscape:pageopacity="0.0"
     inkscape:pageshadow="2"
     inkscape:zoom="1"
     inkscape:cx="26.499999"
     inkscape:cy="87.999998"
     inkscape:document-units="mm"
     inkscape:current-layer="layer4"
     showgrid="false"
     units="mm"
     inkscape:snap-bbox="true"
     inkscape:snap-page="true"
     inkscape:bbox-nodes="false"
     inkscape:snap-bbox-edge-midpoints="false"
     inkscape:window-width="1334"
     inkscape:window-height="708"
     inkscape:window-x="13"
     inkscape:window-y="13"
     inkscape:window-maximized="1"
     inkscape:snap-bbox-midpoints="true"
     inkscape:snap-nodes="false"
     inkscape:document-rotation="0"
     fit-margin-top="0"
     fit-margin-left="0"
     fit-margin-right="0"
     fit-margin-bottom="0"
     showguides="false"
     inkscape:pagecheckerboard="0" />
  <metadata
     id="metadata5">
    <rdf:RDF>
      <cc:Work
         rdf:about="">
        <dc:format>image/svg+xml</dc:format>
        <dc:type
           rdf:resource="http://purl.org/dc/dcmitype/StillImage" />
      </cc:Work>
    </rdf:RDF>
  </metadata>
  <g
     inkscape:groupmode="layer"
     id="layer4"
     inkscape:label="back 1"
     transform="translate(0.02065398,0.01120977)">
    <rect
       style="fill:url(#linearGradient16349);fill-opacity:1;stroke:#000000;stroke-width:0;stroke-opacity:1;filter:url(#filter12807)"
       id="rect1921"
       width="48.00058"
       height="128.5"
       x="0.03112038"
       y="0.048966013"
       transform="matrix(0.83184413,0,0,0.99940448,-0.00524252,-0.01052894)" />
    <rect
       style="fill:#ffffff;fill-opacity:0;stroke:#ffffff;stroke-width:0.551925;stroke-miterlimit:4;stroke-dasharray:none"
       id="rect22401-3-6-3"
       width="10.573076"
       height="79.448074"
       x="26.692307"
       y="36.201752" />
    <text
       xml:space="preserve"
       style="font-weight:600;font-size:3.52777px;line-height:1.25;font-family:'URW Gothic';-inkscape-font-specification:'URW Gothic, Semi-Bold';stroke-width:0.264583"
       x="-108.7295"
       y="48.709389"
       id="text7898"><tspan
         sodipodi:role="line"
         id="tspan7896"
         style="stroke-width:0.264583"
         x="-108.7295"
         y="48.709389" /></text>
    <text
       xml:space="preserve"
       style="font-weight:600;font-size:3.52777px;line-height:1.25;font-family:'URW Gothic';-inkscape-font-specification:'URW Gothic, Semi-Bold';text-align:center;text-anchor:middle;fill:#ffffff;stroke-width:0.264583"
       x="9.0217934"
       y="85.662231"
       id="text35018"><tspan
         sodipodi:role="line"
         id="tspan35016"
         style="fill:#ffffff;stroke-width:0.264583"
         x="9.0217934"
         y="85.662231" /></text>
    <path
       style="fill:#ffffff;stroke:#ffffff;stroke-width:0.344922px;stroke-linecap:butt;stroke-linejoin:miter;stroke-opacity:1"
       d="M 4.9815449,28.16121 34.974014,28.816317"
       id="path219-3-3" />
    <text
       xml:space="preserve"
       style="font-size:5.64444px;line-height:1.25;font-family:'URW Gothic';-inkscape-font-specification:'URW Gothic';stroke-width:0.264583"
       x="3.8571079"
       y="22.360027"
       id="text34966"><tspan
         sodipodi:role="line"
         id="tspan34964"
         style="stroke-width:0.264583"
         x="3.8571079"
         y="22.360027" /></text>
    <g
       aria-label="GLOBAL S&amp;H:"
       id="text92443"
       style="font-weight:600;font-size:3.52778px;line-height:1.25;font-family:'URW Gothic';-inkscape-font-specification:'URW Gothic Semi-Bold';stroke-width:0.264583">
      <path
         d="m 9.9397752,14.553615 h 1.0795008 c -0.137584,0.289278 -0.419806,0.458612 -0.765528,0.458612 -0.5115285,0 -0.903112,-0.381 -0.903112,-0.881945 0,-0.225778 0.09525,-0.472723 0.2434168,-0.631473 0.1516945,-0.162278 0.3810002,-0.254 0.6314722,-0.254 0.303389,0 0.55739,0.123472 0.71614,0.345722 h 0.567972 c -0.169333,-0.469194 -0.705556,-0.811389 -1.273528,-0.811389 -0.7655285,0 -1.3723067,0.592667 -1.3723067,1.344084 0,0.765528 0.6173615,1.354668 1.4181677,1.354668 0.395111,0 0.73025,-0.137584 0.987778,-0.402167 0.239889,-0.250473 0.373945,-0.575028 0.373945,-0.910167 v -0.0635 H 9.9397752 Z"
         style="fill:#ffffff"
         id="path114555" />
      <path
         d="m 11.961187,15.432033 h 1.280584 v -0.46214 h -0.797278 v -2.14489 h -0.483306 z"
         style="fill:#ffffff"
         id="path114557" />
      <path
         d="m 14.666984,12.779142 c -0.776111,0 -1.375834,0.589139 -1.375834,1.35114 0,0.754945 0.606778,1.347612 1.372306,1.347612 0.758473,0 1.344085,-0.58914 1.344085,-1.347612 0,-0.751417 -0.596195,-1.35114 -1.340557,-1.35114 z m -0.0071,0.465667 c 0.483305,0 0.860778,0.388056 0.860778,0.889001 0,0.504472 -0.366889,0.878417 -0.860778,0.878417 -0.49389,0 -0.881945,-0.388056 -0.881945,-0.881945 0,-0.504473 0.381,-0.885473 0.881945,-0.885473 z"
         style="fill:#ffffff"
         id="path114559" />
      <path
         d="m 16.388534,15.432033 h 0.694973 c 0.289278,0 0.500945,-0.04586 0.659695,-0.144639 0.215195,-0.130528 0.338667,-0.363362 0.338667,-0.631473 0,-0.165806 -0.04586,-0.321028 -0.127,-0.426861 -0.07408,-0.09878 -0.148167,-0.148167 -0.3175,-0.218723 0.211666,-0.109361 0.289278,-0.243417 0.289278,-0.490361 0,-0.243417 -0.105834,-0.448028 -0.296334,-0.567973 -0.155222,-0.09878 -0.3175,-0.127 -0.705556,-0.127 h -0.536223 z m 0.483306,-0.46214 v -0.66675 h 0.229306 c 0.335139,0 0.493889,0.109361 0.493889,0.338667 0,0.229306 -0.144639,0.328083 -0.483306,0.328083 z m 0,-1.139473 v -0.532694 h 0.197556 c 0.254,0 0.373945,0.08467 0.373945,0.264583 0,0.186972 -0.123473,0.268111 -0.416278,0.268111 z"
         style="fill:#ffffff"
         id="path114561" />
      <path
         d="m 18.152421,15.432033 h 0.532695 l 0.289278,-0.673806 H 19.9022 l 0.278695,0.673806 h 0.532694 l -1.093611,-2.60703 h -0.381001 z m 0.998362,-1.135946 0.278694,-0.790222 0.278695,0.790222 z"
         style="fill:#ffffff"
         id="path114563" />
      <path
         d="m 20.978172,15.432033 h 1.280584 v -0.46214 h -0.797278 v -2.14489 h -0.483306 z"
         style="fill:#ffffff"
         id="path114565" />
      <path
         d="m 23.327664,14.687671 c 0.01764,0.204611 0.0635,0.335139 0.169334,0.47625 0.155222,0.197556 0.409222,0.313973 0.687917,0.313973 0.469195,0 0.832556,-0.363362 0.832556,-0.836084 0,-0.218723 -0.07761,-0.402167 -0.232833,-0.543278 -0.102306,-0.09525 -0.183445,-0.137584 -0.440973,-0.236362 -0.246945,-0.09172 -0.254,-0.09525 -0.289278,-0.116416 -0.09525,-0.05997 -0.144639,-0.141111 -0.144639,-0.236362 0,-0.155222 0.109361,-0.264583 0.268111,-0.264583 0.162278,0 0.261056,0.09878 0.275167,0.275167 h 0.500945 c -0.01058,-0.197556 -0.05644,-0.331612 -0.162278,-0.462139 -0.141111,-0.176389 -0.366889,-0.278695 -0.610306,-0.278695 -0.423333,0 -0.758473,0.328084 -0.758473,0.740834 0,0.328083 0.190501,0.578556 0.543279,0.709084 0.34925,0.130527 0.373944,0.141111 0.451555,0.201083 0.07761,0.0635 0.119945,0.155222 0.119945,0.264584 0,0.186972 -0.144639,0.3175 -0.352778,0.3175 -0.215195,0 -0.331611,-0.105834 -0.352778,-0.324556 z"
         style="fill:#ffffff"
         id="path114567" />
      <path
         d="m 26.915412,13.904504 -0.254,0.419806 -0.236361,-0.268112 c 0.137583,-0.08467 0.1905,-0.127 0.250472,-0.1905 0.102306,-0.116417 0.15875,-0.275167 0.15875,-0.4445 0,-0.366889 -0.28575,-0.642056 -0.673806,-0.642056 -0.370417,0 -0.656167,0.282222 -0.656167,0.645584 0,0.186972 0.04939,0.289278 0.218723,0.479778 -0.338667,0.201083 -0.486834,0.423333 -0.486834,0.740834 0,0.469194 0.370417,0.832556 0.850195,0.832556 0.278695,0 0.440972,-0.09525 0.663223,-0.391584 l 0.370417,0.391584 0.335139,-0.303389 -0.465667,-0.497417 0.451556,-0.772584 z M 26.132245,13.73517 c -0.137583,-0.137583 -0.179917,-0.208139 -0.179917,-0.299861 0,-0.123472 0.09172,-0.215195 0.218723,-0.215195 0.127,0 0.215194,0.08819 0.215194,0.215195 0,0.127 -0.0635,0.201084 -0.254,0.299861 z m 0.292806,0.998362 c -0.119945,0.211667 -0.208139,0.278695 -0.366889,0.278695 -0.204612,0 -0.352778,-0.141111 -0.352778,-0.338667 0,-0.165806 0.09172,-0.278695 0.313972,-0.377473 z"
         style="fill:#ffffff"
         id="path114569" />
      <path
         d="m 27.75149,15.432033 h 0.483305 v -1.093612 h 0.931334 v 1.093612 h 0.483306 v -2.60703 h -0.483306 v 1.051279 H 28.234795 V 12.825003 H 27.75149 Z"
         style="fill:#ffffff"
         id="path114571" />
      <path
         d="m 30.164484,15.432033 h 0.469195 v -0.451556 h -0.469195 z m 0,-1.301751 h 0.469195 v -0.469195 h -0.469195 z"
         style="fill:#ffffff"
         id="path114573" />
    </g>
    <text
       xml:space="preserve"
       style="font-weight:bold;font-size:7.05556px;line-height:1.25;font-family:'URW Gothic';-inkscape-font-specification:'URW Gothic Bold';stroke-width:0.264583;fill:#ffffff;font-style:normal;font-stretch:normal;font-variant:normal"
       x="23.386223"
       y="18.721266"
       id="text3424"><tspan
         sodipodi:role="line"
         id="tspan3422"
         style="stroke-width:0.264583;fill:#ffffff;-inkscape-font-specification:'URW Gothic Bold';font-family:'URW Gothic';font-weight:bold;font-style:normal;font-stretch:normal;font-variant:normal"
         x="23.386223"
         y="18.721266" /></text>
    <text
       xml:space="preserve"
       style="font-weight:600;font-size:7.05555791px;line-height:1.25;font-family:'URW Bookman';-inkscape-font-specification:'URW Bookman, Semi-Bold';stroke-width:0.264583;font-style:normal;font-stretch:normal;font-variant:normal;font-variant-ligatures:normal;font-variant-caps:normal;font-variant-numeric:normal;font-variant-east-asian:normal"
       x="20.279228"
       y="21.157564"
       id="text9060"><tspan
         sodipodi:role="line"
         style="stroke-width:0.264583;-inkscape-font-specification:'URW Bookman, Semi-Bold';font-family:'URW Bookman';font-weight:600;font-style:normal;font-stretch:normal;font-variant:normal;font-size:7.05555791px;font-variant-ligatures:normal;font-variant-caps:normal;font-variant-numeric:normal;font-variant-east-asian:normal"
         x="20.279228"
         y="21.157564"
         id="tspan13322" /></text>
    <text
       xml:space="preserve"
       transform="matrix(0.26458333,0,0,0.26458333,-0.02065398,-0.01120977)"
       id="text18832"
       style="line-height:1.25;font-family:'URW Bookman';font-size:26.66667591px;-inkscape-font-specification:'URW Bookman, Semi-Bold';font-weight:600;white-space:pre;shape-inside:url(#rect18834);font-style:normal;font-stretch:normal;font-variant:normal;font-variant-ligatures:normal;font-variant-caps:normal;font-variant-numeric:normal;font-variant-east-asian:normal" />
    <text
       xml:space="preserve"
       style="font-style:normal;font-variant:normal;font-weight:600;font-stretch:normal;font-size:7.05556px;line-height:1.25;font-family:'URW Bookman';-inkscape-font-specification:'URW Bookman, Semi-Bold';font-variant-ligatures:normal;font-variant-caps:normal;font-variant-numeric:normal;font-variant-east-asian:normal;stroke-width:0.264583"
       x="24.087706"
       y="20.903578"
       id="text33098"><tspan
         sodipodi:role="line"
         id="tspan33096"
         style="font-style:normal;font-variant:normal;font-weight:600;font-stretch:normal;font-size:7.05556px;font-family:'URW Bookman';-inkscape-font-specification:'URW Bookman, Semi-Bold';font-variant-ligatures:normal;font-variant-caps:normal;font-variant-numeric:normal;font-variant-east-asian:normal;stroke-width:0.264583"
         x="24.087706"
         y="20.903578" /><tspan
         sodipodi:role="line"
         style="font-style:normal;font-variant:normal;font-weight:600;font-stretch:normal;font-size:7.05556px;font-family:'URW Bookman';-inkscape-font-specification:'URW Bookman, Semi-Bold';font-variant-ligatures:normal;font-variant-caps:normal;font-variant-numeric:normal;font-variant-east-asian:normal;stroke-width:0.264583"
         x="24.087706"
         y="29.723028"
         id="tspan33100" /></text>
    <g
       aria-label="AND OR"
       id="text39798"
       style="font-weight:bold;font-size:2.82222px;line-height:1.85;font-family:'URW Gothic';-inkscape-font-specification:'URW Gothic, Bold';stroke-width:0.264583"
       transform="translate(0.52916667,0.52916667)">
      <path
         d="m 27.951228,20.081314 h 0.426156 l 0.231422,-0.539044 h 0.742243 l 0.222956,0.539044 h 0.426155 l -0.874888,-2.085621 h -0.3048 z m 0.798689,-0.908755 0.222955,-0.632177 0.222955,0.632177 z"
         style="fill:#ffffff"
         id="path68241" />
      <path
         d="m 30.211826,20.081314 h 0.386644 v -1.515532 l 0.872066,1.515532 h 0.4318 v -2.085621 h -0.386644 v 1.518355 l -0.8636,-1.518355 h -0.440266 z"
         style="fill:#ffffff"
         id="path68243" />
      <path
         d="m 32.300268,20.081314 h 0.485422 c 0.316089,0 0.505178,-0.03104 0.674511,-0.115711 0.321733,-0.158044 0.510822,-0.502355 0.510822,-0.922866 0,-0.397933 -0.163689,-0.722488 -0.454378,-0.897466 -0.163689,-0.09878 -0.412044,-0.149578 -0.739421,-0.149578 h -0.476956 z m 0.386645,-0.369711 v -1.346199 h 0.0762 c 0.248356,0 0.378178,0.02258 0.499533,0.08467 0.197556,0.1016 0.318911,0.324555 0.318911,0.592666 0,0.251178 -0.115711,0.474133 -0.301977,0.575733 -0.115711,0.06209 -0.276578,0.09313 -0.508,0.09313 z"
         style="fill:#ffffff"
         id="path68245" />
      <path
         d="m 29.116805,23.180112 c -0.620888,0 -1.100666,0.471311 -1.100666,1.08091 0,0.603955 0.485422,1.078088 1.097844,1.078088 0.606777,0 1.075266,-0.471311 1.075266,-1.078088 0,-0.601133 -0.476955,-1.08091 -1.072444,-1.08091 z m -0.0056,0.372533 c 0.386644,0 0.688621,0.310444 0.688621,0.711199 0,0.403578 -0.29351,0.702733 -0.688621,0.702733 -0.395111,0 -0.705555,-0.310444 -0.705555,-0.705555 0,-0.403577 0.3048,-0.708377 0.705555,-0.708377 z"
         style="fill:#ffffff"
         id="path68247" />
      <path
         d="m 30.494044,25.302421 h 0.386644 v -0.798688 l 0.54751,0.798688 h 0.476956 L 31.34071,24.531955 c 0.160866,-0.03951 0.239888,-0.0762 0.330199,-0.1524 0.143934,-0.121355 0.214489,-0.285044 0.214489,-0.493888 0,-0.214489 -0.0762,-0.392289 -0.220133,-0.513644 -0.135467,-0.115711 -0.285044,-0.155222 -0.570089,-0.155222 h -0.601132 z m 0.386644,-1.089377 v -0.626532 h 0.172155 c 0.180622,0 0.2794,0.01975 0.341489,0.07338 0.06773,0.05362 0.1016,0.135467 0.1016,0.237067 0,0.220133 -0.127,0.316088 -0.426156,0.316088 z"
         style="fill:#ffffff"
         id="path68249" />
    </g>
    <text
       xml:space="preserve"
       transform="matrix(0.26458333,0,0,0.26458333,-0.02065398,-0.01120977)"
       id="text52444"
       style="line-height:1.25;font-family:'URW Gothic';font-size:13.3333416px;-inkscape-font-specification:'URW Gothic, Bold';font-weight:bold;white-space:pre;shape-inside:url(#rect52446)" />
    <text
       xml:space="preserve"
       style="font-weight:bold;font-size:3.52777px;line-height:1.25;font-family:'URW Gothic';-inkscape-font-specification:'URW Gothic, Bold';stroke-width:0.264583;fill:#ffffff"
       x="24.010893"
       y="112.4413"
       id="text71970"><tspan
         sodipodi:role="line"
         id="tspan71968"
         style="stroke-width:0.264583;fill:#ffffff"
         x="24.010893"
         y="112.4413" /></text>
    <text
       xml:space="preserve"
       transform="matrix(0.26458333,0,0,0.26458333,-0.02065398,-0.01120977)"
       id="text85660"
       style="line-height:1.25;font-family:'URW Gothic';font-size:13.3333416px;-inkscape-font-specification:'URW Gothic, Bold';font-weight:bold;white-space:pre;shape-inside:url(#rect85662)" />
    <g
       aria-label="MESOGLEA II"
       id="text3407"
       style="font-weight:bold;font-size:4.93889px;line-height:1.25;font-family:'URW Gothic';-inkscape-font-specification:'URW Gothic, Bold';fill:#ffffff;stroke-width:0.264583"
       transform="translate(0,1.5875)">
      <path
         d="m 5.5319676,8.8520451 h 0.676628 V 6.1159 L 7.1618013,8.8520451 H 7.714957 L 8.6681628,6.1159 V 8.8520451 H 9.3447907 V 5.2022054 H 8.4162794 L 7.4433181,7.9679838 6.460479,5.2022054 H 5.5319676 Z"
         id="path10834" />
      <path
         d="M 9.9769669,8.8520451 H 11.937706 V 8.2050505 H 10.653595 V 7.3555614 h 1.229783 V 6.7085668 H 10.653595 V 5.8492 h 1.284111 V 5.2022054 H 9.9769669 Z"
         id="path10836" />
      <path
         d="m 12.293291,7.8099393 c 0.02469,0.2864556 0.0889,0.4691945 0.237067,0.6667501 0.217311,0.2765779 0.572911,0.4395612 0.963084,0.4395612 0.656872,0 1.165578,-0.5087056 1.165578,-1.1705169 0,-0.3062112 -0.108656,-0.5630335 -0.325967,-0.7605891 C 14.189825,6.8517946 14.076231,6.7925279 13.715692,6.654239 13.369969,6.5258279 13.360092,6.520889 13.310703,6.4912556 13.177353,6.4072945 13.108208,6.2937 13.108208,6.16035 c 0,-0.2173111 0.153106,-0.3704167 0.375356,-0.3704167 0.227189,0 0.365478,0.1382889 0.385233,0.3852334 H 14.57012 C 14.555303,5.8985889 14.491097,5.710911 14.342931,5.5281721 14.145375,5.2812276 13.829286,5.1379998 13.488503,5.1379998 c -0.592667,0 -1.061862,0.4593168 -1.061862,1.0371669 0,0.4593168 0.2667,0.8099779 0.760589,0.9927169 0.48895,0.1827389 0.523523,0.1975556 0.632178,0.2815167 0.108656,0.0889 0.167923,0.2173112 0.167923,0.3704168 0,0.2617611 -0.202495,0.4445001 -0.493889,0.4445001 -0.301273,0 -0.464256,-0.1481667 -0.493889,-0.4543779 z"
         id="path10838" />
      <path
         d="m 16.881505,5.1379998 c -1.086556,0 -1.926167,0.8247946 -1.926167,1.8915949 0,1.0569224 0.849489,1.8866559 1.921228,1.8866559 1.061861,0 1.881717,-0.8247946 1.881717,-1.8866559 0,-1.0519836 -0.834673,-1.8915949 -1.876778,-1.8915949 z m -0.0099,0.6519335 c 0.676628,0 1.205089,0.5432779 1.205089,1.2446002 0,0.7062613 -0.513645,1.2297837 -1.205089,1.2297837 -0.691445,0 -1.234723,-0.5432779 -1.234723,-1.2347225 0,-0.7062613 0.533401,-1.2396614 1.234723,-1.2396614 z"
         id="path10840" />
      <path
         d="m 20.610358,7.6222615 h 1.5113 c -0.192617,0.4049889 -0.587728,0.6420557 -1.071739,0.6420557 -0.716139,0 -1.264356,-0.5334002 -1.264356,-1.2347225 0,-0.316089 0.13335,-0.6618113 0.340784,-0.8840614 0.212372,-0.2271889 0.5334,-0.3556 0.884061,-0.3556 0.424744,0 0.780344,0.1728611 1.002595,0.4840112 h 0.795161 C 22.571097,5.6170721 21.820386,5.1379998 21.025225,5.1379998 c -1.07174,0 -1.921229,0.8297335 -1.921229,1.8817171 0,1.0717391 0.864306,1.8965337 1.985434,1.8965337 0.553156,0 1.02235,-0.1926167 1.382889,-0.5630334 0.335845,-0.3506612 0.523523,-0.8050391 0.523523,-1.2742336 v -0.0889 h -2.385484 z"
         id="path10842" />
      <path
         d="M 23.440333,8.8520451 H 25.23315 V 8.2050505 H 24.116961 V 5.2022054 h -0.676628 z"
         id="path10844" />
      <path
         d="m 25.613438,8.8520451 h 1.960739 V 8.2050505 H 26.290066 V 7.3555614 H 27.51985 V 6.7085668 H 26.290066 V 5.8492 h 1.284111 V 5.2022054 h -1.960739 z"
         id="path10846" />
      <path
         d="m 27.890253,8.8520451 h 0.745772 l 0.404989,-0.943328 h 1.298928 l 0.390172,0.943328 h 0.745773 L 29.944831,5.2022054 h -0.5334 z m 1.397706,-1.5903226 0.390172,-1.1063114 0.390172,1.1063114 z"
         id="path10848" />
      <path
         d="m 33.229186,8.8520451 h 0.676628 V 5.2022054 h -0.676628 z"
         id="path10850" />
      <path
         d="m 34.612069,8.8520451 h 0.676628 V 5.2022054 h -0.676628 z"
         id="path10852" />
    </g>
    <text
       xml:space="preserve"
       style="font-weight:bold;font-size:7.05556px;line-height:1.25;font-family:'URW Gothic';-inkscape-font-specification:'URW Gothic, Bold';stroke-width:0.264583"
       x="7.0189967"
       y="32.040794"
       id="text2610"><tspan
         sodipodi:role="line"
         id="tspan2608"
         style="stroke-width:0.264583"
         x="7.0189967"
         y="32.040794" /></text>
    <g
       aria-label="S&amp;H TOMUTE OUTPUT"
       id="text6951"
       style="font-weight:bold;font-size:3.88056px;line-height:1.25;font-family:'URW Gothic';-inkscape-font-specification:'URW Gothic, Bold';stroke-width:0.264583"
       transform="translate(1.0583333,1.0583333)">
      <path
         d="m 3.3046654,31.868132 c 0.016757,0.194381 0.060325,0.318382 0.1608668,0.452438 0.1474611,0.187678 0.3887612,0.298273 0.653521,0.298273 0.4457348,0 0.790928,-0.345193 0.790928,-0.794279 0,-0.207786 -0.073731,-0.382058 -0.2211917,-0.516114 -0.09719,-0.09049 -0.1742723,-0.130704 -0.4189238,-0.224543 -0.2345973,-0.08714 -0.2413,-0.09049 -0.2748139,-0.110596 -0.090488,-0.05697 -0.137407,-0.134056 -0.137407,-0.224543 0,-0.147461 0.1038931,-0.251354 0.2547056,-0.251354 0.1541639,0 0.2480029,0.09384 0.2614084,0.261408 H 4.8496562 C 4.839602,30.571144 4.7960339,30.443791 4.6954922,30.31979 4.5614366,30.152221 4.3469477,30.05503 4.1157018,30.05503 c -0.4021668,0 -0.7205488,0.311679 -0.7205488,0.703792 0,0.311679 0.180975,0.549628 0.516114,0.673629 0.3317876,0.124002 0.3552473,0.134056 0.4289779,0.19103 0.073731,0.06032 0.1139473,0.147461 0.1139473,0.251354 0,0.177624 -0.137407,0.301625 -0.335139,0.301625 -0.2044348,0 -0.3150307,-0.100542 -0.335139,-0.308328 z"
         style="font-size:3.35139px;fill:#ffffff"
         id="path21292" />
      <path
         d="M 6.7130241,31.124124 6.471724,31.522939 6.2471809,31.268233 c 0.1307042,-0.08043 0.180975,-0.12065 0.2379487,-0.180975 0.09719,-0.110596 0.1508125,-0.261408 0.1508125,-0.422275 0,-0.348544 -0.2714626,-0.609953 -0.6401155,-0.609953 -0.3518959,0 -0.6233585,0.268111 -0.6233585,0.613305 0,0.177623 0.04692,0.274814 0.2077862,0.455789 -0.3217334,0.191029 -0.4624918,0.402166 -0.4624918,0.703791 0,0.445735 0.3518959,0.790928 0.807685,0.790928 0.2647598,0 0.4189237,-0.09049 0.6300612,-0.372004 l 0.351896,0.372004 0.318382,-0.288219 -0.4423834,-0.472546 0.4289779,-0.733954 z M 5.9690155,30.963257 C 5.8383113,30.832553 5.7980946,30.765525 5.7980946,30.678389 c 0,-0.117299 0.087136,-0.204435 0.2077862,-0.204435 0.12065,0 0.2044348,0.08379 0.2044348,0.204435 0,0.12065 -0.060325,0.191029 -0.2413001,0.284868 z M 6.2471809,31.9117 c -0.1139473,0.201084 -0.197732,0.26476 -0.3485446,0.26476 -0.1943806,0 -0.335139,-0.134056 -0.335139,-0.321733 0,-0.157516 0.087136,-0.26476 0.2982737,-0.358599 z"
         style="font-size:3.35139px;fill:#ffffff"
         id="path21294" />
      <path
         d="m 7.507298,32.575275 h 0.4591404 v -1.03893 h 0.8847669 v 1.03893 H 9.3103457 V 30.098598 H 8.8512053 v 0.998714 H 7.9664384 V 30.098598 H 7.507298 Z"
         style="font-size:3.35139px;fill:#ffffff"
         id="path21296" />
      <path
         d="m 10.979328,32.575275 h 0.459141 V 30.53763 h 0.45914 v -0.439032 h -1.377421 v 0.439032 h 0.45914 z"
         style="font-size:3.35139px;fill:#ffffff"
         id="path21298" />
      <path
         d="m 13.241504,30.05503 c -0.737305,0 -1.307042,0.559682 -1.307042,1.283583 0,0.717197 0.576439,1.28023 1.303691,1.28023 0.720549,0 1.27688,-0.559682 1.27688,-1.28023 0,-0.713846 -0.566385,-1.283583 -1.273529,-1.283583 z m -0.0067,0.442384 c 0.45914,0 0.817739,0.368653 0.817739,0.84455 0,0.479249 -0.348545,0.834496 -0.817739,0.834496 -0.469195,0 -0.837848,-0.368653 -0.837848,-0.837847 0,-0.479249 0.36195,-0.841199 0.837848,-0.841199 z"
         style="font-size:3.35139px;fill:#ffffff"
         id="path21300" />
      <path
         d="m 14.876977,32.575275 h 0.45914 v -1.85667 l 0.646819,1.85667 h 0.375355 l 0.646819,-1.85667 v 1.85667 h 0.45914 v -2.476677 h -0.630061 l -0.660224,1.876779 -0.666927,-1.876779 h -0.630061 z"
         style="font-size:3.35139px;fill:#ffffff"
         id="path21302" />
      <path
         d="m 17.893227,30.098598 v 1.568451 c 0,0.26476 0.04022,0.43568 0.134055,0.583142 0.14411,0.227894 0.412221,0.368652 0.700441,0.368652 0.271462,0 0.522816,-0.12065 0.670278,-0.318382 0.117298,-0.160866 0.167569,-0.345193 0.167569,-0.633412 v -1.568451 h -0.45914 v 1.568451 c 0,0.184326 -0.01341,0.261408 -0.06032,0.341842 -0.06368,0.103893 -0.180975,0.167569 -0.318382,0.167569 -0.134056,0 -0.251355,-0.06368 -0.315031,-0.167569 -0.04692,-0.08043 -0.06032,-0.157516 -0.06032,-0.341842 v -1.568451 z"
         style="font-size:3.35139px;fill:#ffffff"
         id="path21304" />
      <path
         d="M 20.276059,32.575275 H 20.7352 V 30.53763 h 0.45914 v -0.439032 h -1.377421 v 0.439032 h 0.45914 z"
         style="font-size:3.35139px;fill:#ffffff"
         id="path21306" />
      <path
         d="m 21.428931,32.575275 h 1.330502 v -0.439032 h -0.871361 v -0.576439 h 0.834496 V 31.120772 H 21.888072 V 30.53763 h 0.871361 v -0.439032 h -1.330502 z"
         style="font-size:3.35139px;fill:#ffffff"
         id="path21308" />
      <path
         d="m 25.289723,30.05503 c -0.737306,0 -1.307042,0.559682 -1.307042,1.283583 0,0.717197 0.576439,1.28023 1.303691,1.28023 0.720549,0 1.276879,-0.559682 1.276879,-1.28023 0,-0.713846 -0.566385,-1.283583 -1.273528,-1.283583 z m -0.0067,0.442384 c 0.459141,0 0.81774,0.368653 0.81774,0.84455 0,0.479249 -0.348545,0.834496 -0.81774,0.834496 -0.469194,0 -0.837847,-0.368653 -0.837847,-0.837847 0,-0.479249 0.36195,-0.841199 0.837847,-0.841199 z"
         style="font-size:3.35139px;fill:#ffffff"
         id="path21310" />
      <path
         d="m 26.925197,30.098598 v 1.568451 c 0,0.26476 0.04022,0.43568 0.134055,0.583142 0.14411,0.227894 0.412221,0.368652 0.700441,0.368652 0.271462,0 0.522817,-0.12065 0.670278,-0.318382 0.117298,-0.160866 0.167569,-0.345193 0.167569,-0.633412 V 30.098598 H 28.1384 v 1.568451 c 0,0.184326 -0.01341,0.261408 -0.06033,0.341842 -0.06368,0.103893 -0.180975,0.167569 -0.318382,0.167569 -0.134056,0 -0.251355,-0.06368 -0.315031,-0.167569 -0.04692,-0.08043 -0.06033,-0.157516 -0.06033,-0.341842 v -1.568451 z"
         style="font-size:3.35139px;fill:#ffffff"
         id="path21312" />
      <path
         d="m 29.308028,32.575275 h 0.459141 V 30.53763 h 0.45914 v -0.439032 h -1.377421 v 0.439032 h 0.45914 z"
         style="font-size:3.35139px;fill:#ffffff"
         id="path21314" />
      <path
         d="m 30.4609,32.575275 h 0.459141 v -0.94174 h 0.147461 c 0.351896,0 0.512762,-0.02681 0.650169,-0.110596 0.201084,-0.127353 0.325085,-0.375356 0.325085,-0.660224 0,-0.284868 -0.12065,-0.519465 -0.335139,-0.650169 -0.140758,-0.08378 -0.308328,-0.113948 -0.633412,-0.113948 H 30.4609 Z m 0.459141,-1.380772 V 30.53763 h 0.154164 c 0.150812,0 0.221191,0.0067 0.291571,0.02346 0.134055,0.03686 0.214488,0.154164 0.214488,0.308328 0,0.12065 -0.05362,0.214489 -0.150812,0.268111 -0.07038,0.03686 -0.194381,0.05697 -0.375356,0.05697 z"
         style="font-size:3.35139px;fill:#ffffff"
         id="path21316" />
      <path
         d="m 32.317567,30.098598 v 1.568451 c 0,0.26476 0.04022,0.43568 0.134055,0.583142 0.14411,0.227894 0.412221,0.368652 0.700441,0.368652 0.271463,0 0.522817,-0.12065 0.670278,-0.318382 0.117299,-0.160866 0.167569,-0.345193 0.167569,-0.633412 v -1.568451 h -0.45914 v 1.568451 c 0,0.184326 -0.01341,0.261408 -0.06032,0.341842 -0.06368,0.103893 -0.180975,0.167569 -0.318382,0.167569 -0.134056,0 -0.251354,-0.06368 -0.315031,-0.167569 -0.04692,-0.08043 -0.06032,-0.157516 -0.06032,-0.341842 v -1.568451 z"
         style="font-size:3.35139px;fill:#ffffff"
         id="path21318" />
      <path
         d="m 34.700399,32.575275 h 0.45914 V 30.53763 h 0.45914 v -0.439032 h -1.377421 v 0.439032 h 0.459141 z"
         style="font-size:3.35139px;fill:#ffffff"
         id="path21320" />
    </g>
  </g>
  <g
     inkscape:groupmode="layer"
     id="layer3"
     inkscape:label="back"
     style="filter:url(#filter1927)"
     transform="translate(0.02065398,0.01120977)" />
  <g
     inkscape:groupmode="layer"
     id="layer5"
     inkscape:label="Layer 2"
     transform="translate(0.02065398,0.00149455)">
    <path
       style="fill:#ffffff;stroke-width:0.0189395"
       d="m 18.267028,124.307 v -2.15173 h 1.997932 1.997933 v 2.15173 2.15174 H 20.26496 18.267028 Z m 3.489246,1.79579 c 0.176112,-0.0328 0.188417,-0.0379 0.17514,-0.0717 -0.03982,-0.10158 -0.05186,-0.11576 -0.0886,-0.10437 -0.110664,0.0342 -0.333653,0.0622 -0.416974,0.0523 -0.249049,-0.0296 -0.454743,-0.33216 -0.617112,-0.90759 -0.05823,-0.20634 -0.105497,-0.5846 -0.08383,-0.67066 0.01458,-0.0578 8.84e-4,-0.071 -0.157356,-0.15081 l -0.111888,-0.0564 0.13653,-0.11491 c 0.144612,-0.12172 0.287208,-0.29679 0.341456,-0.41921 0.01859,-0.0419 0.03272,-0.13005 0.03272,-0.20404 0,-0.17012 -0.06847,-0.28201 -0.286703,-0.46853 -0.0878,-0.0751 -0.159642,-0.15114 -0.159642,-0.16911 0,-0.0316 -0.02963,-0.033 -0.927036,-0.0446 -0.509867,-0.007 -0.929429,-0.01 -0.932356,-0.007 -0.0029,0.003 -0.01044,0.0829 -0.01674,0.17807 l -0.01152,0.17298 h 0.171054 0.171054 l -0.01386,0.7721 c -0.0076,0.42461 -0.0198,0.96262 -0.02713,1.19554 l -0.01332,0.42349 0.133884,0.0111 c 0.07364,0.007 0.13617,0.009 0.138942,0.007 0.0027,-0.003 0.01206,-0.30325 0.02072,-0.66869 l 0.01566,-0.66443 0.374303,0.008 c 0.423462,0.009 0.54678,0.032 0.788769,0.14429 l 0.13815,0.0641 0.01332,0.22698 c 0.031,0.5251 0.284057,1.1567 0.547177,1.36562 0.171846,0.13644 0.337126,0.16134 0.665061,0.10021 z m -1.703859,-2.02617 c -0.04091,-0.009 -0.245582,-0.0204 -0.454815,-0.026 l -0.380423,-0.01 0.01386,-0.22816 c 0.0076,-0.12549 0.01386,-0.33312 0.01386,-0.46141 v -0.23324 l 0.611069,0.0102 0.61107,0.0102 0.06035,0.0443 c 0.10629,0.0779 0.171936,0.18511 0.171936,0.28063 0,0.15644 -0.199421,0.41338 -0.430375,0.55448 -0.07047,0.043 -0.131238,0.0775 -0.135054,0.0766 -0.0038,-9e-4 -0.04041,-0.009 -0.08132,-0.0177 z m 3.074675,1.9771 c -0.01832,-0.0247 -0.0574,-0.11076 -0.08683,-0.19139 -0.0504,-0.1381 -0.05479,-0.18259 -0.07564,-0.76659 -0.03046,-0.85297 -0.07772,-1.33843 -0.213833,-2.19655 -0.03449,-0.21737 -0.05836,-0.39867 -0.05308,-0.40287 0.01404,-0.0112 0.269127,-0.0674 0.489753,-0.10806 0.150804,-0.0278 0.255847,-0.0348 0.496246,-0.0333 0.311059,0.002 0.407849,-0.0126 0.49337,-0.0741 0.0279,-0.0201 0.163314,-0.0282 0.689775,-0.0415 0.360282,-0.009 0.657864,-0.0144 0.661292,-0.0117 0.01062,0.008 0.131184,0.56522 0.176094,0.81356 0.136008,0.75175 0.176148,1.46567 0.136728,2.43174 l -0.01386,0.33907 -0.299614,0.0295 c -0.413806,0.0408 -0.587308,0.0705 -0.809288,0.13846 l -0.190856,0.0584 -0.114408,-0.0444 c -0.220791,-0.0859 -0.619604,-0.0672 -1.047748,0.0488 l -0.204821,0.0555 z m 1.507395,-0.45989 c -0.0063,-0.0859 -0.01674,-0.24343 -0.02324,-0.35019 -0.0065,-0.10673 -0.03519,-0.34216 -0.06381,-0.52316 -0.10773,-0.6811 -0.120888,-0.88521 -0.05787,-0.89828 0.02059,-0.005 0.207531,-0.0299 0.415427,-0.0568 0.352538,-0.0457 0.377309,-0.0513 0.367832,-0.0828 -0.0056,-0.0186 -0.02216,-0.0971 -0.03681,-0.17442 l -0.02664,-0.14068 -0.097,0.0113 c -0.05335,0.007 -0.283512,0.0381 -0.511468,0.0709 -0.472054,0.0678 -0.785364,0.0851 -1.041319,0.0579 -0.09749,-0.0104 -0.181003,-0.0159 -0.185602,-0.0123 -0.0088,0.008 -0.06955,0.33677 -0.06289,0.34162 0.01674,0.0122 0.426318,0.0398 0.590001,0.0398 l 0.203511,6e-5 0.02543,0.27004 c 0.01404,0.14853 0.04905,0.41244 0.0779,0.58645 0.04329,0.26103 0.09324,0.77139 0.09499,0.97037 l 4.01e-4,0.0464 h 0.171324 0.171324 z m -9.839762,0.0486 c -0.311238,-1.61423 -0.374208,-2.10711 -0.374566,-2.93176 l -2.11e-4,-0.48262 0.260368,-0.0449 c 0.538797,-0.0929 0.987201,-0.13983 1.71631,-0.17971 0.350645,-0.0191 1.007712,-0.048 1.012402,-0.0443 0.0015,9e-4 -0.007,0.15785 -0.01892,0.34813 -0.03443,0.54831 0.0027,0.94955 0.195434,2.10768 0.0761,0.45744 0.104093,0.65641 0.139427,0.99089 l 0.0126,0.11989 -0.410131,0.0526 c -0.429127,0.055 -0.717279,0.0817 -1.494116,0.13838 -0.452862,0.033 -0.801828,0.07 -0.936951,0.0993 l -0.06552,0.0143 z m 1.530676,-0.277 c 0.0317,-0.23874 0.03562,-0.73144 0.0076,-0.94018 -0.01134,-0.0835 -0.02695,-0.30188 -0.03487,-0.4852 l -0.0144,-0.3333 h 0.214602 0.214601 l 0.01386,0.0731 c 0.02167,0.11476 0.02536,0.11651 0.188133,0.0894 0.07871,-0.013 0.149004,-0.0284 0.156186,-0.0342 0.0072,-0.006 -0.0088,-0.092 -0.03548,-0.19172 -0.02669,-0.0997 -0.05357,-0.24779 -0.05971,-0.32902 l -0.01116,-0.14767 h -0.167142 -0.167094 v 0.0591 0.0591 h -0.797049 -0.797047 v 0.21096 0.21095 h 0.403837 0.403838 l 5.63e-4,0.1561 c 5.11e-4,0.14576 0.01404,0.34293 0.06073,0.88179 0.01242,0.14276 0.01098,0.30488 -0.0041,0.4641 -0.0126,0.13459 -0.02356,0.28648 -0.02419,0.33754 l -0.0012,0.0928 0.20192,0.0174 c 0.11106,0.01 0.20629,0.015 0.211635,0.012 0.0054,-0.003 0.02153,-0.0944 0.03596,-0.20311 z m -2.90473,0.2611 c -0.122922,-0.0393 -0.276973,-0.0953 -0.342347,-0.12455 l -0.118854,-0.0533 -0.141192,0.0407 -0.141192,0.0407 -0.159894,-0.0751 -0.159894,-0.0751 -0.318794,0.0231 -0.318794,0.0231 -0.100512,-0.0827 -0.100512,-0.0827 -0.265681,0.0223 c -0.146124,0.0122 -0.269201,0.0203 -0.273501,0.0176 -0.0043,-0.003 0.08156,-0.70372 0.190807,-1.55816 l 0.198627,-1.55352 0.202401,0.009 c 0.512071,0.0232 0.836485,0.0514 1.643815,0.14265 0.477148,0.0539 0.8732,0.10256 0.880117,0.10806 0.0068,0.006 -0.06019,0.53976 -0.149148,1.18725 -0.08894,0.64749 -0.181756,1.34056 -0.206247,1.54012 -0.0567,0.46204 -0.06638,0.52335 -0.08253,0.52235 -0.0072,-4.2e-4 -0.113778,-0.0328 -0.236688,-0.0721 z m -0.223621,-0.70281 0.14688,-0.11754 -0.04099,-0.0386 c -0.02255,-0.0213 -0.08158,-0.0742 -0.131166,-0.11773 -0.101754,-0.0892 -0.142146,-0.15238 -0.251885,-0.39339 -0.04226,-0.0928 -0.09536,-0.19429 -0.117989,-0.22547 -0.02509,-0.0346 -0.03393,-0.0641 -0.02264,-0.0759 0.01026,-0.0106 0.156995,-0.15592 0.326263,-0.32301 0.169272,-0.16707 0.31441,-0.31269 0.322521,-0.32361 0.01458,-0.0196 -0.279232,-0.22487 -0.321952,-0.22487 -0.01134,0 -0.133506,0.11174 -0.271425,0.2483 l -0.250749,0.2483 -0.0491,-0.0838 c -0.04939,-0.0842 -0.05476,-0.18017 -0.01674,-0.29893 0.01134,-0.0353 0.0072,-0.0464 -0.0171,-0.0464 -0.09932,0 -0.316917,-0.0753 -0.461516,-0.15951 -0.08768,-0.0511 -0.173772,-0.0931 -0.19134,-0.0933 -0.03022,-4.1e-4 -0.234774,0.2447 -0.232846,0.27891 9e-4,0.0169 0.25815,0.16424 0.372807,0.2136 0.05339,0.023 0.06908,0.0424 0.0783,0.097 0.0117,0.069 0.104598,0.23701 0.182529,0.32992 l 0.04246,0.0506 -0.402268,0.39448 c -0.221247,0.21696 -0.402267,0.39684 -0.402267,0.39972 0,0.0122 0.317332,0.20994 0.336835,0.20994 0.0117,0 0.156924,-0.13341 0.322607,-0.29646 0.16569,-0.16306 0.304443,-0.29394 0.308347,-0.29084 0.004,0.003 0.04129,0.0806 0.08309,0.17233 0.0418,0.0917 0.106128,0.2085 0.142956,0.25961 0.06167,0.0856 0.323368,0.32413 0.355586,0.32413 0.0077,0 0.08003,-0.053 0.16083,-0.11753 z m 13.125474,-0.87819 v -1.60325 h 1.328414 1.32841 v 1.60325 1.60326 h -1.32841 -1.328414 z m 2.264137,1.2811 c 0.140561,-0.0705 0.151973,-0.081 0.118493,-0.10903 -0.01134,-0.009 -0.0117,-0.15123 -0.0011,-0.34513 0.0099,-0.18099 0.01858,-0.65754 0.01913,-1.05898 l 0.0011,-0.72991 h -0.156289 -0.156294 l -0.01368,0.12911 c -0.0076,0.071 -0.01368,0.43555 -0.01368,0.81007 0,0.37897 -0.0083,0.68095 -0.01865,0.68095 -0.01026,0 -0.03825,-0.0362 -0.06223,-0.0804 -0.226591,-0.41823 -0.541388,-0.90569 -0.743643,-1.15153 -0.06491,-0.0789 -0.116982,-0.15658 -0.115722,-0.17261 0.0014,-0.016 -0.02817,-0.046 -0.06543,-0.0665 -0.03724,-0.0205 -0.127584,-0.0813 -0.200771,-0.13497 -0.142865,-0.10483 -0.240225,-0.13666 -0.478019,-0.15623 l -0.12222,-0.0101 v 0.12461 c 0,0.0685 -0.0058,0.14752 -0.01278,0.17552 -0.01278,0.0506 -0.01206,0.0509 0.100962,0.0621 0.06259,0.007 0.13401,0.019 0.158724,0.0288 0.04392,0.0171 0.04421,0.0199 0.01242,0.12002 -0.02668,0.0841 -0.02806,0.11955 -0.0077,0.19769 0.01674,0.0644 0.02477,0.34704 0.02477,0.87474 v 0.77951 h 0.146124 0.146123 l 0.01332,-0.0527 c 0.0074,-0.029 0.01332,-0.42039 0.01332,-0.86973 0,-0.80221 8.04e-4,-0.81667 0.04106,-0.79953 0.0707,0.0301 0.316499,0.37376 0.543521,0.76004 0.319761,0.54409 0.421551,0.70841 0.54623,0.88179 0.07175,0.0998 0.133848,0.18143 0.13797,0.18143 0.0041,0 0.06946,-0.031 0.145152,-0.069 z"
       id="path365" />
  </g>
  <g
     inkscape:label="Layer 1"
     inkscape:groupmode="layer"
     id="layer1"
     transform="translate(0.02065398,-168.48876)"
     style="display:inline">
    <g
       aria-label="Pitch"
       style="font-style:normal;font-variant:normal;font-weight:300;font-stretch:normal;font-size:4.93889px;line-height:6.61458px;font-family:'Gotham Rounded';-inkscape-font-specification:'Gotham Rounded Light';font-variant-ligatures:normal;font-variant-caps:normal;font-variant-numeric:normal;font-feature-settings:normal;text-align:center;letter-spacing:0px;word-spacing:0px;writing-mode:lr-tb;text-anchor:middle;display:inline;fill:#000000;fill-opacity:1;stroke:#000000;stroke-width:0.264583px;stroke-linecap:butt;stroke-linejoin:miter;stroke-opacity:1"
       id="text4944"
       transform="translate(0,10.583334)" />
    <text
       xml:space="preserve"
       style="font-style:normal;font-weight:normal;font-size:10.5833px;line-height:1.25;font-family:sans-serif;fill:#000000;fill-opacity:1;stroke:#000000;stroke-width:0.264583"
       x="10.375626"
       y="254.64096"
       id="text72"><tspan
         sodipodi:role="line"
         id="tspan70"
         x="10.375626"
         y="254.64096"
         style="fill:#000000;stroke:#000000;stroke-width:0.264583" /></text>
  </g>
  <g
     inkscape:groupmode="layer"
     id="layer2"
     inkscape:label="components"
     transform="translate(0.02065398,0.0112208)">
    <text
       xml:space="preserve"
       style="font-style:normal;font-weight:normal;font-size:10.5833px;line-height:1.25;font-family:sans-serif;fill:#000000;fill-opacity:1;stroke:#000000;stroke-width:0.264583"
       x="-65.249954"
       y="111.72212"
       id="text144"><tspan
         sodipodi:role="line"
         id="tspan142"
         x="-65.249954"
         y="111.72212"
         style="fill:#000000;stroke:#000000;stroke-width:0.264583" /></text>
    <text
       xml:space="preserve"
       style="font-size:3.52777px;line-height:1.25;font-family:sans-serif;fill:#000000;stroke:#000000;stroke-width:0.264583"
       x="17.94903"
       y="75.780609"
       id="text1055"><tspan
         sodipodi:role="line"
         id="tspan1053"
         x="17.94903"
         y="75.780609"
         style="fill:#000000;stroke:#000000;stroke-width:0.264583" /></text>
    <text
       xml:space="preserve"
       style="font-size:3.52777px;line-height:1.25;font-family:sans-serif;fill:#000000;stroke:#000000;stroke-width:0.264583"
       x="5.6367397"
       y="125.28948"
       id="text1388"><tspan
         sodipodi:role="line"
         id="tspan1386"
         x="5.6367397"
         y="125.28948"
         style="fill:#000000;stroke:#000000;stroke-width:0.264583" /></text>
    <text
       xml:space="preserve"
       style="font-weight:600;font-size:3.52777px;line-height:1.25;font-family:'URW Gothic';-inkscape-font-specification:'URW Gothic, Semi-Bold';fill:#ffffff;stroke-width:0.264583"
       x="3.3458118"
       y="78.44635"
       id="text123"><tspan
         sodipodi:role="line"
         id="tspan121"
         x="3.3458118"
         y="78.44635"
         style="fill:#ffffff;stroke-width:0.264583" /></text>
  </g>
</svg>
