<?xml version="1.0" encoding="UTF-8" standalone="no"?>
<svg
   width="40.011112mm"
   height="128.52271mm"
   viewBox="0 0 40.011116 128.52273"
   version="1.1"
   id="svg8"
   inkscape:version="1.1 (c4e8f9ed74, 2021-05-24)"
   sodipodi:docname="Mesoglea.svg"
   xmlns:inkscape="http://www.inkscape.org/namespaces/inkscape"
   xmlns:sodipodi="http://sodipodi.sourceforge.net/DTD/sodipodi-0.dtd"
   xmlns:xlink="http://www.w3.org/1999/xlink"
   xmlns="http://www.w3.org/2000/svg"
   xmlns:svg="http://www.w3.org/2000/svg"
   xmlns:rdf="http://www.w3.org/1999/02/22-rdf-syntax-ns#"
   xmlns:cc="http://creativecommons.org/ns#"
   xmlns:dc="http://purl.org/dc/elements/1.1/">
  <defs
     id="defs2">
    <linearGradient
       inkscape:collect="always"
       id="linearGradient16355">
      <stop
         style="stop-color:#262626;stop-opacity:1"
         offset="0"
         id="stop16351" />
      <stop
         style="stop-color:#0d0d0d;stop-opacity:1"
         offset="1"
         id="stop16353" />
    </linearGradient>
    <filter
       x="-0.30000001"
       width="1.6"
       y="-0.30000001"
       height="1.6"
       style="color-interpolation-filters:sRGB"
       inkscape:label="Felt Feather"
       id="filter3728">
      <feGaussianBlur
         stdDeviation="15 15"
         result="blur"
         id="feGaussianBlur3712" />
      <feComposite
         in="SourceGraphic"
         in2="blur"
         operator="atop"
         result="composite1"
         id="feComposite3714" />
      <feComposite
         in2="composite1"
         operator="in"
         result="composite2"
         id="feComposite3716" />
      <feComposite
         in2="composite2"
         operator="in"
         result="composite3"
         id="feComposite3718" />
      <feTurbulence
         type="fractalNoise"
         numOctaves="3"
         seed="1"
         baseFrequency="0.05 0.05"
         result="turbulence"
         id="feTurbulence3720" />
      <feDisplacementMap
         in="composite3"
         in2="turbulence"
         xChannelSelector="R"
         scale="30"
         yChannelSelector="G"
         result="map"
         id="feDisplacementMap3722" />
      <feColorMatrix
         values="1 0 0 0 0 0 1 0 0 0 0 0 1 0 0 0 0 0 1 -0 "
         result="colormatrix"
         id="feColorMatrix3724" />
      <feComposite
         in="composite3"
         in2="colormatrix"
         operator="atop"
         result="composite4"
         id="feComposite3726" />
    </filter>
    <filter
       inkscape:collect="always"
       style="color-interpolation-filters:sRGB"
       id="filter1927"
       x="-0.0010343177"
       width="1.0020686"
       y="-0.0003863599"
       height="1.0007727">
      <feGaussianBlur
         inkscape:collect="always"
         stdDeviation="0.020686142"
         id="feGaussianBlur1929" />
    </filter>
    <filter
       inkscape:collect="always"
       style="color-interpolation-filters:sRGB"
       id="filter12807"
       x="-0.0010343177"
       width="1.0020686"
       y="-0.00038635989"
       height="1.0007727">
      <feGaussianBlur
         inkscape:collect="always"
         stdDeviation="0.020686144"
         id="feGaussianBlur12805" />
    </filter>
    <linearGradient
       inkscape:collect="always"
       xlink:href="#linearGradient16355"
       id="linearGradient16349"
       x1="14.979209"
       y1="-11.974414"
       x2="11.963202"
       y2="67.196983"
       gradientUnits="userSpaceOnUse" />
  </defs>
  <sodipodi:namedview
     id="base"
     pagecolor="#ffffff"
     bordercolor="#666666"
     borderopacity="1.0"
     inkscape:pageopacity="0.0"
     inkscape:pageshadow="2"
     inkscape:zoom="1.4142136"
     inkscape:cx="109.24799"
     inkscape:cy="395.62623"
     inkscape:document-units="mm"
     inkscape:current-layer="layer4"
     showgrid="false"
     units="mm"
     inkscape:snap-bbox="true"
     inkscape:snap-page="true"
     inkscape:bbox-nodes="false"
     inkscape:snap-bbox-edge-midpoints="false"
     inkscape:window-width="1366"
     inkscape:window-height="768"
     inkscape:window-x="0"
     inkscape:window-y="0"
     inkscape:window-maximized="0"
     inkscape:snap-bbox-midpoints="true"
     inkscape:snap-nodes="false"
     inkscape:document-rotation="0"
     fit-margin-top="0"
     fit-margin-left="0"
     fit-margin-right="0"
     fit-margin-bottom="0"
     showguides="false"
     inkscape:pagecheckerboard="0" />
  <metadata
     id="metadata5">
    <rdf:RDF>
      <cc:Work
         rdf:about="">
        <dc:format>image/svg+xml</dc:format>
        <dc:type
           rdf:resource="http://purl.org/dc/dcmitype/StillImage" />
      </cc:Work>
    </rdf:RDF>
  </metadata>
  <g
     inkscape:groupmode="layer"
     id="layer4"
     inkscape:label="back 1"
     transform="translate(0.02065398,0.01120977)">
    <rect
       style="fill:url(#linearGradient16349);fill-opacity:1;stroke:#000000;stroke-width:0;stroke-opacity:1;filter:url(#filter12807)"
       id="rect1921"
       width="47.999996"
       height="128.5"
       x="0.03112038"
       y="0.048966013"
       transform="matrix(0.83184413,0,0,0.99940448,-0.00524252,-0.01052894)" />
    <rect
       style="fill:#ffffff;fill-opacity:0;stroke:#ffffff;stroke-width:0.345;stroke-miterlimit:4;stroke-dasharray:none"
       id="rect22401-3-6"
       width="10.352567"
       height="10.352567"
       x="26.803062"
       y="99.161293" />
    <text
       xml:space="preserve"
       style="font-weight:600;font-size:3.52777px;line-height:1.25;font-family:'URW Gothic';-inkscape-font-specification:'URW Gothic, Semi-Bold';stroke-width:0.264583"
       x="-108.7295"
       y="48.709389"
       id="text7898"><tspan
         sodipodi:role="line"
         id="tspan7896"
         style="stroke-width:0.264583"
         x="-108.7295"
         y="48.709389" /></text>
    <text
       xml:space="preserve"
       style="font-weight:600;font-size:3.52777px;line-height:1.25;font-family:'URW Gothic';-inkscape-font-specification:'URW Gothic, Semi-Bold';text-align:center;text-anchor:middle;fill:#ffffff;stroke-width:0.264583"
       x="9.0217934"
       y="85.662231"
       id="text35018"><tspan
         sodipodi:role="line"
         id="tspan35016"
         style="fill:#ffffff;stroke-width:0.264583"
         x="9.0217934"
         y="85.662231" /></text>
    <g
       aria-label="MESOGLEA"
       id="text3092"
       style="font-weight:600;font-size:4.93889px;line-height:1.25;font-family:'URW Gothic';-inkscape-font-specification:'URW Gothic, Semi-Bold';text-align:center;text-anchor:middle;fill:#ffffff;stroke-width:0.264583"
       transform="translate(5.2e-7,2.0000004)">
      <path
         d="M 7.9793455,8.7028351 H 8.6559734 V 5.96669 L 9.6091792,8.7028351 H 10.162335 L 11.115541,5.96669 v 2.7361451 h 0.676628 V 5.0529954 H 10.863657 L 9.8906959,7.8187738 8.9078568,5.0529954 H 7.9793455 Z"
         id="path14973" />
      <path
         d="m 12.424345,8.7028351 h 1.960739 V 8.0558405 H 13.100973 V 7.2063514 h 1.229783 V 6.5593568 H 13.100973 V 5.69999 h 1.284111 V 5.0529954 h -1.960739 z"
         id="path14975" />
      <path
         d="m 14.740669,7.6607293 c 0.02469,0.2864556 0.0889,0.4691945 0.237067,0.6667501 0.217311,0.2765779 0.572911,0.4395613 0.963083,0.4395613 0.656873,0 1.165578,-0.5087057 1.165578,-1.170517 0,-0.3062112 -0.108655,-0.5630334 -0.325966,-0.760589 C 16.637203,6.7025846 16.523608,6.643318 16.163069,6.505029 15.817347,6.3766179 15.807469,6.371679 15.75808,6.3420457 15.62473,6.2580845 15.555586,6.1444901 15.555586,6.01114 c 0,-0.2173111 0.153106,-0.3704167 0.375356,-0.3704167 0.227189,0 0.365477,0.1382889 0.385233,0.3852334 h 0.701322 C 17.002681,5.7493789 16.938475,5.5617011 16.790308,5.3789621 16.592753,5.1320176 16.276664,4.9887898 15.935881,4.9887898 c -0.592667,0 -1.061862,0.4593168 -1.061862,1.0371669 0,0.4593168 0.2667,0.809978 0.760589,0.9927169 0.48895,0.1827389 0.523523,0.1975556 0.632178,0.2815167 0.108656,0.0889 0.167922,0.2173112 0.167922,0.3704168 0,0.2617611 -0.202494,0.4445001 -0.493889,0.4445001 -0.301272,0 -0.464255,-0.1481667 -0.493889,-0.4543779 z"
         id="path14977" />
      <path
         d="m 19.328883,4.9887898 c -1.086556,0 -1.926168,0.8247946 -1.926168,1.8915949 0,1.0569224 0.849489,1.886656 1.921229,1.886656 1.061861,0 1.881717,-0.8247947 1.881717,-1.886656 0,-1.0519836 -0.834673,-1.8915949 -1.876778,-1.8915949 z m -0.0099,0.6519335 c 0.676628,0 1.205089,0.5432779 1.205089,1.2446003 0,0.7062612 -0.513645,1.2297836 -1.205089,1.2297836 -0.691445,0 -1.234723,-0.5432779 -1.234723,-1.2347225 0,-0.7062613 0.5334,-1.2396614 1.234723,-1.2396614 z"
         id="path14979" />
      <path
         d="m 23.057736,7.4730515 h 1.5113 c -0.192617,0.404989 -0.587728,0.6420557 -1.071739,0.6420557 -0.716139,0 -1.264356,-0.5334001 -1.264356,-1.2347225 0,-0.316089 0.13335,-0.6618113 0.340783,-0.8840613 0.212373,-0.227189 0.533401,-0.3556001 0.884062,-0.3556001 0.424744,0 0.780344,0.1728611 1.002594,0.4840112 h 0.795162 c -0.237067,-0.6568724 -0.987778,-1.1359447 -1.78294,-1.1359447 -1.071739,0 -1.921228,0.8297335 -1.921228,1.8817171 0,1.0717391 0.864306,1.8965338 1.985434,1.8965338 0.553156,0 1.02235,-0.1926168 1.382889,-0.5630335 0.335845,-0.3506612 0.523522,-0.8050391 0.523522,-1.2742336 v -0.0889 h -2.385483 z"
         id="path14981" />
      <path
         d="m 25.887711,8.7028351 h 1.792817 V 8.0558405 H 26.564339 V 5.0529954 h -0.676628 z"
         id="path14983" />
      <path
         d="m 28.060816,8.7028351 h 1.960739 V 8.0558405 H 28.737444 V 7.2063514 h 1.229784 V 6.5593568 H 28.737444 V 5.69999 h 1.284111 V 5.0529954 h -1.960739 z"
         id="path14985" />
      <path
         d="m 30.337631,8.7028351 h 0.745772 l 0.404989,-0.943328 h 1.298928 l 0.390172,0.943328 h 0.745773 L 32.392209,5.0529954 h -0.5334 z m 1.397705,-1.5903226 0.390173,-1.1063113 0.390172,1.1063113 z"
         id="path14987" />
    </g>
    <g
       aria-label="S&amp;H:"
       id="text12018"
       style="font-weight:600;font-size:3.52777px;line-height:1.25;font-family:'URW Gothic';-inkscape-font-specification:'URW Gothic, Semi-Bold';text-align:center;text-anchor:middle;fill:#ffffff;stroke-width:0.264583"
       transform="translate(4.6389287,0.10642323)">
      <path
         d="m 3.3404173,15.79089 c 0.017639,0.204611 0.0635,0.335138 0.169333,0.476249 0.1552219,0.197555 0.4092213,0.313972 0.6879152,0.313972 0.4691934,0 0.8325537,-0.363361 0.8325537,-0.836082 0,-0.218722 -0.077611,-0.402166 -0.2328328,-0.543276 C 4.695081,15.106503 4.6139423,15.06417 4.3564151,14.965392 4.1094712,14.87367 4.1024157,14.870142 4.067138,14.848976 3.971888,14.789006 3.9224994,14.707865 3.9224994,14.612615 c 0,-0.155222 0.1093609,-0.264583 0.2681105,-0.264583 0.1622774,0 0.261055,0.09878 0.2751661,0.275166 H 4.9667193 C 4.956136,14.425643 4.910275,14.291588 4.8044419,14.16106 4.6633311,13.984672 4.4375538,13.882367 4.1941377,13.882367 c -0.4233324,0 -0.7584706,0.328082 -0.7584706,0.740831 0,0.328083 0.1904996,0.578555 0.5432766,0.709082 0.3492493,0.130528 0.3739436,0.141111 0.4515546,0.201083 0.077611,0.0635 0.1199442,0.155222 0.1199442,0.264583 0,0.186972 -0.1446386,0.317499 -0.352777,0.317499 -0.215194,0 -0.3316104,-0.105833 -0.352777,-0.324555 z"
         id="path15008" />
      <path
         d="M 6.9281544,15.007725 6.674155,15.42753 6.4377944,15.159419 c 0.137583,-0.08467 0.1904995,-0.126999 0.2504716,-0.190499 0.1023054,-0.116417 0.1587497,-0.275166 0.1587497,-0.444499 0,-0.366888 -0.2857494,-0.642054 -0.6738041,-0.642054 -0.3704158,0 -0.6561652,0.282221 -0.6561652,0.645582 0,0.186971 0.049389,0.289277 0.2187217,0.479776 -0.3386659,0.201083 -0.4868322,0.423333 -0.4868322,0.740832 0,0.469193 0.3704158,0.832554 0.8501925,0.832554 0.2786939,0 0.4409713,-0.09525 0.6632208,-0.391583 l 0.3704159,0.391583 0.3351381,-0.303389 -0.4656656,-0.497415 0.4515545,-0.772582 z m -0.783165,-0.169333 c -0.137583,-0.137583 -0.1799162,-0.208138 -0.1799162,-0.29986 0,-0.123472 0.091722,-0.215194 0.2187217,-0.215194 0.1269997,0 0.215194,0.08819 0.215194,0.215194 0,0.127 -0.0635,0.201083 -0.2539995,0.29986 z m 0.292805,0.998359 c -0.1199442,0.211666 -0.2081385,0.278694 -0.3668881,0.278694 -0.2046107,0 -0.352777,-0.141111 -0.352777,-0.338666 0,-0.165805 0.091722,-0.278694 0.3139715,-0.377471 z"
         id="path15010" />
      <path
         d="M 7.76423,16.53525 H 8.2475345 V 15.441641 H 9.1788658 V 16.53525 H 9.6621703 V 13.928228 H 9.1788658 v 1.051275 H 8.2475345 V 13.928228 H 7.76423 Z"
         id="path15012" />
      <path
         d="m 10.177219,16.53525 h 0.469194 v -0.451555 h -0.469194 z m 0,-1.301747 h 0.469194 v -0.469194 h -0.469194 z"
         id="path15014" />
    </g>
    <g
       aria-label="OFF     MONO     POLY"
       id="text18447"
       style="font-weight:600;font-size:2.82222px;line-height:1.25;font-family:'URW Gothic';-inkscape-font-specification:'URW Gothic, Semi-Bold';text-align:center;text-anchor:middle;fill:#ffffff;stroke-width:0.264583"
       transform="translate(0,2.0000002)">
      <path
         d="m 7.379175,27.98879 c -0.6208884,0 -1.1006658,0.47131 -1.1006658,1.08091 0,0.603955 0.4854219,1.078088 1.0978436,1.078088 0.6067773,0 1.0752659,-0.471311 1.0752659,-1.078088 0,-0.601133 -0.4769552,-1.08091 -1.0724437,-1.08091 z m -0.00564,0.372533 c 0.3866441,0 0.6886217,0.310444 0.6886217,0.711199 0,0.403578 -0.2935109,0.702733 -0.6886217,0.702733 -0.3951108,0 -0.705555,-0.310444 -0.705555,-0.705555 0,-0.403577 0.3047997,-0.708377 0.705555,-0.708377 z"
         id="path27998" />
      <path
         d="M 8.7564134,30.111099 H 9.1430575 V 29.255967 H 9.7865237 V 28.886256 H 9.1430575 v -0.491067 h 0.6745106 v -0.36971 H 8.7564134 Z"
         id="path28000" />
      <path
         d="m 10.111078,30.111099 h 0.386644 v -0.855132 h 0.643466 v -0.369711 h -0.643466 v -0.491067 h 0.67451 v -0.36971 h -1.061154 z"
         id="path28002" />
      <path
         d="m 15.416833,30.111099 h 0.386644 v -1.56351 l 0.544688,1.56351 h 0.316089 l 0.544689,-1.56351 v 1.56351 h 0.386644 v -2.08562 h -0.530578 l -0.555977,1.580443 -0.561622,-1.580443 h -0.530577 z"
         id="path28004" />
      <path
         d="m 18.950251,27.98879 c -0.620888,0 -1.100665,0.47131 -1.100665,1.08091 0,0.603955 0.485421,1.078088 1.097843,1.078088 0.606778,0 1.075266,-0.471311 1.075266,-1.078088 0,-0.601133 -0.476955,-1.08091 -1.072444,-1.08091 z m -0.0056,0.372533 c 0.386644,0 0.688622,0.310444 0.688622,0.711199 0,0.403578 -0.293511,0.702733 -0.688622,0.702733 -0.395111,0 -0.705555,-0.310444 -0.705555,-0.705555 0,-0.403577 0.3048,-0.708377 0.705555,-0.708377 z"
         id="path28006" />
      <path
         d="m 20.32749,30.111099 h 0.386644 v -1.515532 l 0.872066,1.515532 h 0.4318 v -2.08562 h -0.386645 v 1.518354 L 20.767756,28.025479 H 20.32749 Z"
         id="path28008" />
      <path
         d="m 23.420641,27.98879 c -0.620889,0 -1.100666,0.47131 -1.100666,1.08091 0,0.603955 0.485422,1.078088 1.097844,1.078088 0.606777,0 1.075265,-0.471311 1.075265,-1.078088 0,-0.601133 -0.476955,-1.08091 -1.072443,-1.08091 z m -0.0056,0.372533 c 0.386645,0 0.688622,0.310444 0.688622,0.711199 0,0.403578 -0.293511,0.702733 -0.688622,0.702733 -0.39511,0 -0.705555,-0.310444 -0.705555,-0.705555 0,-0.403577 0.3048,-0.708377 0.705555,-0.708377 z"
         id="path28010" />
      <path
         d="m 28.74897,30.111099 h 0.386644 v -0.793044 h 0.124178 c 0.296333,0 0.431799,-0.02258 0.54751,-0.09313 0.169334,-0.107244 0.273756,-0.316089 0.273756,-0.555977 0,-0.239889 -0.1016,-0.437444 -0.282222,-0.547511 -0.118533,-0.07056 -0.259644,-0.09596 -0.5334,-0.09596 H 28.74897 Z m 0.386644,-1.162754 v -0.553156 h 0.129822 c 0.127,0 0.186267,0.0056 0.245533,0.01976 0.112889,0.03104 0.180622,0.129822 0.180622,0.259644 0,0.1016 -0.04515,0.180622 -0.126999,0.225778 -0.05927,0.03104 -0.163689,0.04798 -0.316089,0.04798 z"
         id="path28012" />
      <path
         d="m 31.331297,27.98879 c -0.620889,0 -1.100666,0.47131 -1.100666,1.08091 0,0.603955 0.485422,1.078088 1.097844,1.078088 0.606777,0 1.075265,-0.471311 1.075265,-1.078088 0,-0.601133 -0.476955,-1.08091 -1.072443,-1.08091 z m -0.0056,0.372533 c 0.386644,0 0.688622,0.310444 0.688622,0.711199 0,0.403578 -0.293511,0.702733 -0.688622,0.702733 -0.39511,0 -0.705555,-0.310444 -0.705555,-0.705555 0,-0.403577 0.3048,-0.708377 0.705555,-0.708377 z"
         id="path28014" />
      <path
         d="M 32.708534,30.111099 H 33.733 v -0.369711 h -0.637822 v -1.715909 h -0.386644 z"
         id="path28016" />
      <path
         d="m 34.221239,30.111099 h 0.386644 v -0.770466 l 0.685799,-1.315154 h -0.417688 l -0.462844,0.959554 -0.460022,-0.959554 h -0.417689 l 0.6858,1.315154 z"
         id="path28018" />
    </g>
    <g
       aria-label="MODE:"
       id="text3029"
       style="font-weight:600;font-size:3.52777px;line-height:1.25;font-family:'URW Gothic';-inkscape-font-specification:'URW Gothic, Semi-Bold';text-align:center;text-anchor:middle;fill:#ffffff;stroke-width:0.264583"
       transform="translate(0.85443702,-0.21726277)">
      <path
         d="m 21.124909,16.858936 h 0.483305 v -1.954384 l 0.680859,1.954384 h 0.39511 l 0.68086,-1.954384 v 1.954384 h 0.483305 v -2.607022 h -0.663221 l -0.694971,1.975551 -0.702026,-1.975551 h -0.663221 z"
         id="path5575" />
      <path
         d="m 25.541676,14.206053 c -0.77611,0 -1.375831,0.589138 -1.375831,1.351136 0,0.754943 0.606777,1.347608 1.372303,1.347608 0.758471,0 1.34408,-0.589137 1.34408,-1.347608 0,-0.751415 -0.596193,-1.351136 -1.340552,-1.351136 z m -0.0071,0.465666 c 0.483305,0 0.860776,0.388055 0.860776,0.888998 0,0.504471 -0.366888,0.878415 -0.860776,0.878415 -0.493888,0 -0.881942,-0.388055 -0.881942,-0.881943 0,-0.504471 0.380999,-0.88547 0.881942,-0.88547 z"
         id="path5577" />
      <path
         d="m 27.263221,16.858936 h 0.606777 c 0.39511,0 0.631471,-0.0388 0.843137,-0.144638 0.402166,-0.197555 0.638526,-0.627943 0.638526,-1.153581 0,-0.497416 -0.20461,-0.903109 -0.567971,-1.121831 -0.20461,-0.123472 -0.515054,-0.186972 -0.924275,-0.186972 h -0.596194 z m 0.483305,-0.462138 v -1.682746 h 0.09525 c 0.310443,0 0.472721,0.02822 0.624415,0.105833 0.246944,0.127 0.398638,0.405694 0.398638,0.740832 0,0.313971 -0.144639,0.592665 -0.377471,0.719665 -0.144639,0.07761 -0.345722,0.116416 -0.634999,0.116416 z"
         id="path5579" />
      <path
         d="m 29.753818,16.858936 h 1.400525 v -0.462138 h -0.91722 v -0.606776 h 0.878414 v -0.462138 h -0.878414 v -0.613832 h 0.91722 v -0.462138 h -1.400525 z"
         id="path5581" />
      <path
         d="m 31.602365,16.858936 h 0.469193 v -0.451554 h -0.469193 z m 0,-1.301747 h 0.469193 v -0.469193 h -0.469193 z"
         id="path5583" />
    </g>
    <path
       style="fill:#ffffff;stroke:#ffffff;stroke-width:0.344922px;stroke-linecap:butt;stroke-linejoin:miter;stroke-opacity:1"
       d="M 4.9815448,40.161236 34.974014,40.816343"
       id="path219" />
    <path
       style="fill:#ffffff;stroke:#ffffff;stroke-width:0.344922px;stroke-linecap:butt;stroke-linejoin:miter;stroke-opacity:1"
       d="M 4.9815448,92.16121 34.974014,92.816317"
       id="path219-3" />
    <g
       aria-label="FLIP / TO MUTE / OUT:"
       id="text1886"
       style="font-weight:600;font-size:3.52777px;line-height:1.25;font-family:'URW Gothic';-inkscape-font-specification:'URW Gothic, Semi-Bold';text-align:center;text-anchor:middle;fill:#ffffff;stroke-width:0.264583"
       transform="translate(0,-2.3105518)">
      <path
         d="M 2.8440515,99.952225 H 3.327356 V 98.88331 H 4.1316876 V 98.421173 H 3.327356 V 97.807341 H 4.1704931 V 97.345203 H 2.8440515 Z"
         id="path10356" />
      <path
         d="M 4.5373796,99.952225 H 5.8179601 V 99.490087 H 5.0206841 V 97.345203 H 4.5373796 Z"
         id="path10358" />
      <path
         d="M 6.0895936,99.952225 H 6.5728981 V 97.345203 H 6.0895936 Z"
         id="path10360" />
      <path
         d="m 7.0773651,99.952225 h 0.4833045 v -0.991304 h 0.1552219 c 0.3704158,0 0.5397488,-0.02822 0.6843874,-0.116416 0.2116662,-0.134055 0.3421937,-0.39511 0.3421937,-0.694971 0,-0.29986 -0.1269998,-0.546804 -0.352777,-0.684387 C 8.2415292,97.376953 8.0651407,97.345203 7.722947,97.345203 H 7.0773651 Z M 7.5606696,98.498783 V 97.807341 H 7.722947 c 0.1587497,0 0.2328328,0.0071 0.306916,0.02469 0.1411108,0.0388 0.2257773,0.162277 0.2257773,0.324555 0,0.127 -0.056444,0.225777 -0.1587497,0.282221 -0.074083,0.03881 -0.2046106,0.05997 -0.3951102,0.05997 z"
         id="path10362" />
      <path
         d="M 9.8925195,100.40378 H 10.22413 l 1.13947,-3.058577 h -0.331611 z"
         id="path10364" />
      <path
         d="m 12.919339,99.952225 h 0.483304 v -2.144884 h 0.483305 v -0.462138 h -1.449914 v 0.462138 h 0.483305 z"
         id="path10366" />
      <path
         d="m 15.30057,97.299342 c -0.776109,0 -1.37583,0.589137 -1.37583,1.351136 0,0.754942 0.606776,1.347608 1.372302,1.347608 0.758471,0 1.344081,-0.589138 1.344081,-1.347608 0,-0.751415 -0.596193,-1.351136 -1.340553,-1.351136 z m -0.0071,0.465665 c 0.483304,0 0.860776,0.388055 0.860776,0.888998 0,0.504471 -0.366889,0.878415 -0.860776,0.878415 -0.493888,0 -0.881943,-0.388055 -0.881943,-0.881942 0,-0.504472 0.380999,-0.885471 0.881943,-0.885471 z"
         id="path10368" />
      <path
         d="m 18.009888,99.952225 h 0.483304 V 97.99784 l 0.68086,1.954385 h 0.39511 l 0.68086,-1.954385 v 1.954385 h 0.483304 v -2.607022 h -0.66322 l -0.694971,1.975551 -0.702026,-1.975551 h -0.663221 z"
         id="path10370" />
      <path
         d="m 21.184879,97.345203 v 1.650996 c 0,0.278694 0.04233,0.45861 0.141111,0.613832 0.151694,0.239888 0.433916,0.388055 0.737304,0.388055 0.28575,0 0.550332,-0.127 0.705554,-0.335138 0.123472,-0.169333 0.176389,-0.363361 0.176389,-0.666749 v -1.650996 h -0.483305 v 1.650996 c 0,0.194027 -0.01411,0.275166 -0.0635,0.359833 -0.06703,0.10936 -0.190499,0.176388 -0.335138,0.176388 -0.141111,0 -0.264583,-0.06703 -0.33161,-0.176388 -0.04939,-0.08467 -0.0635,-0.165806 -0.0635,-0.359833 v -1.650996 z"
         id="path10372" />
      <path
         d="m 23.693118,99.952225 h 0.483304 v -2.144884 h 0.483305 v -0.462138 h -1.449914 v 0.462138 h 0.483305 z"
         id="path10374" />
      <path
         d="m 24.906664,99.952225 h 1.400525 v -0.462138 h -0.91722 V 98.88331 h 0.878414 v -0.462137 h -0.878414 v -0.613832 h 0.91722 v -0.462138 h -1.400525 z"
         id="path10376" />
      <path
         d="m 27.580704,100.40378 h 0.331611 l 1.139469,-3.058577 h -0.33161 z"
         id="path10378" />
      <path
         d="m 31.581188,97.299342 c -0.776109,0 -1.37583,0.589137 -1.37583,1.351136 0,0.754942 0.606776,1.347608 1.372302,1.347608 0.758471,0 1.344081,-0.589138 1.344081,-1.347608 0,-0.751415 -0.596194,-1.351136 -1.340553,-1.351136 z m -0.0071,0.465665 c 0.483305,0 0.860776,0.388055 0.860776,0.888998 0,0.504471 -0.366888,0.878415 -0.860776,0.878415 -0.493887,0 -0.881942,-0.388055 -0.881942,-0.881942 0,-0.504472 0.380999,-0.885471 0.881942,-0.885471 z"
         id="path10380" />
      <path
         d="m 33.302735,97.345203 v 1.650996 c 0,0.278694 0.04233,0.45861 0.14111,0.613832 0.151694,0.239888 0.433916,0.388055 0.737304,0.388055 0.28575,0 0.550332,-0.127 0.705554,-0.335138 0.123472,-0.169333 0.176389,-0.363361 0.176389,-0.666749 v -1.650996 h -0.483305 v 1.650996 c 0,0.194027 -0.01411,0.275166 -0.0635,0.359833 -0.06703,0.10936 -0.190499,0.176388 -0.335138,0.176388 -0.141111,0 -0.264582,-0.06703 -0.33161,-0.176388 -0.04939,-0.08467 -0.0635,-0.165806 -0.0635,-0.359833 v -1.650996 z"
         id="path10382" />
      <path
         d="m 35.810973,99.952225 h 0.483304 v -2.144884 h 0.483305 v -0.462138 h -1.449914 v 0.462138 h 0.483305 z"
         id="path10384" />
      <path
         d="m 37.084485,99.952225 h 0.469193 V 99.50067 h -0.469193 z m 0,-1.301747 h 0.469193 v -0.469194 h -0.469193 z"
         id="path10386" />
    </g>
    <path
       style="fill:#ffffff;stroke-width:0.0317305"
       d="m 22.59432,120.89169 c -0.06609,-0.0218 -0.120792,-0.0644 -0.133378,-0.10376 -0.01173,-0.0367 -0.06199,-0.0814 -0.111683,-0.0991 -0.06528,-0.0234 -0.09035,-0.0542 -0.09035,-0.11107 0,-0.0452 -0.03205,-0.10029 -0.07524,-0.12935 -0.0737,-0.0496 -0.07752,-0.10528 -0.01522,-0.22167 0.01947,-0.0364 0.003,-0.0557 -0.06443,-0.0759 -0.06185,-0.0185 -0.09422,-0.052 -0.102079,-0.10587 -0.01006,-0.0689 -0.02497,-0.0778 -0.118895,-0.071 -0.109699,0.008 -0.145681,-0.0273 -0.212865,-0.20894 -0.01231,-0.0333 -0.06182,-0.0683 -0.110039,-0.0778 -0.088,-0.0174 -0.131676,-0.092 -0.11514,-0.1968 0.0062,-0.0394 -0.02269,-0.0603 -0.107849,-0.0781 -0.128034,-0.0268 -0.143985,-0.0541 -0.06264,-0.10713 0.06023,-0.0393 0.07313,-0.14063 0.0179,-0.14063 -0.01969,0 -0.0358,-0.0482 -0.0358,-0.10713 0,-0.0589 -0.0227,-0.13152 -0.05044,-0.16133 -0.03613,-0.0388 -0.04033,-0.069 -0.01481,-0.1065 0.02751,-0.0404 0.01861,-0.0648 -0.03905,-0.10697 -0.04107,-0.0301 -0.07468,-0.0858 -0.07468,-0.12389 0,-0.0386 -0.02091,-0.0692 -0.04734,-0.0692 -0.02604,0 -0.09199,-0.0536 -0.146565,-0.11908 -0.07442,-0.0893 -0.09026,-0.13038 -0.06334,-0.16425 0.04253,-0.0535 0.02207,-0.081 -0.108928,-0.14651 -0.05373,-0.0269 -0.124585,-0.0897 -0.15745,-0.13963 -0.03286,-0.0499 -0.105688,-0.12451 -0.161828,-0.16572 -0.06159,-0.0452 -0.102073,-0.10391 -0.102073,-0.14801 0,-0.0452 -0.01987,-0.0731 -0.05201,-0.0731 -0.130444,0 -0.23436,-0.0655 -0.23436,-0.14767 0,-0.0508 -0.03,-0.10147 -0.07814,-0.1321 -0.0678,-0.0431 -0.07726,-0.0748 -0.0715,-0.23917 0.0058,-0.16604 -0.0019,-0.1912 -0.06257,-0.20367 -0.0971,-0.02 -0.117017,-0.0805 -0.07082,-0.21531 0.02191,-0.0639 0.03052,-0.16961 0.01914,-0.23484 -0.01138,-0.0652 -0.0056,-0.12594 0.01286,-0.1349 0.02025,-0.01 0.01713,-0.0446 -0.0079,-0.0877 -0.03666,-0.0632 -0.05601,-0.0693 -0.1686,-0.0527 -0.131982,0.0194 -0.179563,0.0531 -0.180499,0.1275 -2.87e-4,0.024 -0.02002,0.0589 -0.04383,0.0776 -0.02605,0.0205 -0.04295,0.1151 -0.04246,0.23767 8.49e-4,0.21157 0.04628,0.34035 0.233237,0.66108 0.05669,0.0973 0.103326,0.22398 0.103628,0.2816 7.55e-4,0.14393 0.117675,0.49619 0.227059,0.68409 0.04982,0.0856 0.167994,0.23579 0.262604,0.3338 0.09461,0.098 0.208081,0.21686 0.252157,0.26412 0.131429,0.14095 0.246146,0.52442 0.15688,0.52442 -0.0173,0 -0.04777,-0.0348 -0.06771,-0.0774 -0.186823,-0.39852 -0.274499,-0.5336 -0.533964,-0.8227 -0.32111,-0.35779 -0.397409,-0.50055 -0.439102,-0.82158 -0.02214,-0.17051 -0.0517,-0.24568 -0.138259,-0.35168 -0.162832,-0.19938 -0.280571,-0.42472 -0.30998,-0.59327 -0.02454,-0.14063 -0.03152,-0.14876 -0.120845,-0.14063 -0.08325,0.008 -0.09368,0.0198 -0.08561,0.10066 0.0076,0.0757 -0.0068,0.0968 -0.08054,0.11884 -0.05562,0.0166 -0.08974,0.0488 -0.08974,0.0846 0,0.0318 -0.02382,0.065 -0.05293,0.0738 -0.0712,0.0215 -0.04114,0.28179 0.04075,0.35288 0.05543,0.0481 0.05431,0.0513 -0.01807,0.0513 -0.04388,0 -0.07714,0.0178 -0.07714,0.0412 0,0.0227 -0.03512,0.056 -0.07804,0.074 -0.07302,0.0307 -0.07401,0.0351 -0.01551,0.0687 0.03439,0.0198 0.05743,0.0466 0.0512,0.0596 -0.0062,0.013 0.02491,0.0277 0.06921,0.0327 0.04961,0.006 0.08054,0.0285 0.08054,0.0598 0,0.028 0.02416,0.0666 0.0537,0.0859 0.02953,0.0192 0.05369,0.0643 0.05369,0.1 0,0.0403 0.02722,0.0718 0.07159,0.0828 0.05296,0.0132 0.07159,0.0425 0.07159,0.11274 0,0.0522 -0.01751,0.10339 -0.03891,0.11378 -0.0214,0.0104 -0.03162,0.0408 -0.02271,0.0676 0.0092,0.0277 -0.01261,0.0628 -0.05058,0.0814 -0.03673,0.018 -0.06678,0.0502 -0.06678,0.0714 0,0.0465 -0.175245,0.0778 -0.250574,0.0447 -0.03853,-0.0169 -0.05425,-0.0738 -0.05566,-0.20137 -0.0017,-0.14976 -0.02298,-0.2086 -0.1354,-0.37357 -0.201096,-0.2951 -0.317211,-0.62442 -0.32181,-0.9127 -0.0049,-0.30995 0.02665,-0.35593 0.49494,-0.72034 0.202038,-0.15721 0.384953,-0.3117 0.406476,-0.3433 0.05806,-0.0852 -0.168704,-0.34335 -0.634667,-0.72242 -0.604353,-0.49165 -0.74813,-0.67254 -0.767846,-0.96603 l -0.01274,-0.18961 -0.17202,-0.009 c -0.116786,-0.006 -0.210449,-0.0318 -0.291703,-0.0805 -0.08868,-0.0531 -0.143836,-0.067 -0.212931,-0.0533 -0.06199,0.0122 -0.131829,5e-4 -0.208365,-0.035 -0.0732,-0.0339 -0.156117,-0.0486 -0.227704,-0.0404 -0.08805,0.0102 -0.130485,-0.003 -0.194706,-0.0591 -0.06375,-0.0559 -0.104378,-0.0684 -0.181645,-0.0558 -0.222306,0.0363 -0.199482,0.23168 0.05933,0.50793 0.08562,0.0914 0.430793,0.36508 0.767044,0.6082 0.84105,0.60811 0.897003,0.67109 0.823784,0.92714 -0.05484,0.19178 -0.104666,0.21621 -0.44095,0.21621 -0.335386,0 -0.411658,0.0364 -0.411658,0.19671 0,0.0765 0.04005,0.12661 0.217077,0.27146 0.216573,0.17722 0.217025,0.17794 0.194925,0.31178 -0.01218,0.0738 -0.02932,0.16167 -0.03809,0.19529 -0.01001,0.0384 0.01836,0.0932 0.07628,0.14724 0.05072,0.0474 0.08605,0.10845 0.07853,0.13575 -0.02682,0.0973 -0.232501,-0.20619 -0.277032,-0.40872 -0.04785,-0.21763 -0.160765,-0.38572 -0.321576,-0.47873 -0.195505,-0.11306 -0.225218,-0.29242 -0.07012,-0.42324 0.06004,-0.0506 0.111836,-0.0601 0.330318,-0.0601 0.309994,0 0.400077,-0.0395 0.454844,-0.19928 0.05348,-0.15604 -0.0061,-0.22254 -0.544864,-0.60796 -0.991288,-0.70916 -1.23661,-0.96313 -1.272834,-1.31771 -0.01549,-0.15166 -0.02927,-0.18142 -0.08397,-0.18142 -0.08275,0 -0.139443,-0.0819 -0.139891,-0.20207 -2.4e-4,-0.0639 -0.03966,-0.13211 -0.125287,-0.21675 -0.140938,-0.13931 -0.156246,-0.23522 -0.07456,-0.46716 0.100569,-0.28558 0.241589,-0.52757 0.558255,-0.95796 0.383705,-0.52151 0.525927,-0.67164 0.962549,-1.01604 0.285585,-0.22527 0.374252,-0.27616 0.693645,-0.3981 0.605962,-0.23135 0.838382,-0.27973 1.503071,-0.31286 1.248886,-0.0623 1.705673,-0.0314 2.153777,0.14544 0.63991,0.25256 0.930411,0.45183 1.672494,1.14726 0.681878,0.639 0.952631,0.95722 1.03454,1.21589 0.05081,0.16046 0.02884,0.24188 -0.09697,0.35936 l -0.09519,0.0889 0.07728,0.12498 c 0.0425,0.0687 0.07712,0.15945 0.07693,0.20158 -6.77e-4,0.14835 -0.167893,0.35704 -0.534657,0.66725 -0.483255,0.40874 -0.557345,0.50844 -0.554856,0.74668 0.002,0.19427 -0.0017,0.18738 0.414823,0.77215 0.105178,0.14767 0.120023,0.19336 0.118801,0.36564 -0.0012,0.17071 -0.01983,0.22619 -0.140032,0.4173 -0.08806,0.14 -0.184259,0.24775 -0.263682,0.29533 -0.379723,0.22749 -0.48245,0.37073 -0.336022,0.46857 0.394042,0.26326 0.437762,0.35797 0.265666,0.5755 -0.05951,0.0752 -0.12969,0.18345 -0.155949,0.24051 -0.04586,0.0996 -0.0438,0.1064 0.05221,0.17129 0.05497,0.0372 0.143349,0.0683 0.196393,0.0691 0.05304,8.7e-4 0.15167,0.0167 0.219169,0.0352 0.150118,0.0411 0.288932,0.22868 0.288932,0.39051 0,0.0613 0.04024,0.17141 0.09193,0.25156 0.05056,0.0784 0.08328,0.16025 0.07272,0.18189 -0.02474,0.0507 -0.151236,0.0511 -0.175893,6.3e-4 -0.01177,-0.0241 -0.05249,-0.0337 -0.107829,-0.0254 -0.06998,0.0105 -0.08774,0.002 -0.08336,-0.0386 0.004,-0.0376 -0.02269,-0.0545 -0.09635,-0.0612 -0.08139,-0.007 -0.0982,-0.0203 -0.08349,-0.0645 0.01178,-0.0354 -0.0063,-0.0675 -0.05023,-0.089 -0.03775,-0.0185 -0.06864,-0.0546 -0.06864,-0.0802 0,-0.0256 -0.02416,-0.0538 -0.05369,-0.0627 -0.02953,-0.009 -0.0537,-0.0356 -0.0537,-0.0593 0,-0.0465 -0.09034,-0.0594 -0.123198,-0.0176 -0.02586,0.0329 -0.198317,-0.029 -0.198689,-0.0712 -1.43e-4,-0.0174 -0.02273,-0.0464 -0.05018,-0.0643 -0.03853,-0.0251 -0.063,-0.0222 -0.107389,0.0126 -0.03162,0.0248 -0.05749,0.0325 -0.05749,0.0169 0,-0.0155 -0.03186,-0.0362 -0.07079,-0.0459 -0.0462,-0.0115 -0.06796,-0.039 -0.06264,-0.0792 0.0063,-0.0477 -0.01321,-0.0635 -0.08651,-0.0702 -0.114539,-0.0104 -0.16589,-0.13794 -0.07628,-0.18942 0.0448,-0.0257 0.0469,-0.0429 0.01163,-0.0947 -0.04706,-0.0691 -0.024,-0.15735 0.03377,-0.1293 0.0482,0.0234 0.0455,-0.003 -0.0071,-0.069 -0.0356,-0.0448 -0.03131,-0.0646 0.02445,-0.113 0.06238,-0.0542 0.06311,-0.0622 0.0095,-0.10436 -0.0533,-0.0419 -0.06531,-0.0419 -0.145376,-7.2e-4 -0.05595,0.0288 -0.09595,0.0834 -0.111445,0.152 -0.03886,0.17213 -0.0577,0.20552 -0.115983,0.20552 -0.04696,0 -0.05134,-0.0326 -0.02993,-0.22257 0.02293,-0.20356 0.01907,-0.2251 -0.04526,-0.25215 -0.08258,-0.0347 -0.115495,-0.0164 -0.11568,0.0645 -7.1e-5,0.0322 -0.03229,0.10004 -0.07159,0.15069 -0.04888,0.063 -0.07146,0.14169 -0.07146,0.24911 0,0.14146 0.01451,0.17134 0.146348,0.30145 0.08049,0.0794 0.212734,0.25211 0.293871,0.38373 0.137837,0.2236 0.149155,0.26054 0.1724,0.56277 0.02799,0.36393 0.06229,0.43687 0.284356,0.60471 0.306854,0.23194 0.606469,0.60329 0.606469,0.75169 0,0.0488 -0.019,0.16101 -0.04223,0.24937 -0.03673,0.13971 -0.03439,0.17003 0.0179,0.23274 0.06261,0.0751 0.07961,0.17471 0.03328,0.19507 -0.01477,0.006 -0.07727,-0.005 -0.138891,-0.0252 z m -1.445583,-3.51051 c -6.03e-4,-0.2115 -0.02816,-0.298 -0.09495,-0.298 -0.101151,0 -0.261883,-0.0867 -0.282928,-0.15254 -0.02687,-0.0841 -0.17618,-0.19713 -0.227515,-0.1722 -0.02115,0.0103 -0.03845,0.0679 -0.03845,0.128 0,0.12306 0.204874,0.45938 0.394335,0.64734 0.11013,0.10925 0.118529,0.11232 0.182717,0.0667 0.05195,-0.0369 0.06717,-0.0869 0.06679,-0.21927 z m 1.074377,-0.6722 c 0,-0.0809 0.155315,-0.27144 0.371258,-0.45553 0.195587,-0.16674 0.273075,-0.32664 0.273075,-0.56351 0,-0.15748 -0.02005,-0.20408 -0.213816,-0.49699 -0.486523,-0.73545 -0.449793,-0.8598 0.496775,-1.68183 0.08016,-0.0696 0.186206,-0.18917 0.23566,-0.26569 0.143618,-0.22221 0.102166,-0.36005 -0.05966,-0.1984 -0.04344,0.0434 -0.107095,0.0705 -0.166235,0.0708 -0.115497,5.2e-4 -0.150088,0.0183 -0.23173,0.11911 -0.06618,0.0817 -0.161463,0.0997 -0.232567,0.0438 -0.03308,-0.026 -0.06665,-0.0197 -0.148895,0.0281 -0.06227,0.0362 -0.158608,0.0617 -0.232922,0.0617 -0.09758,0 -0.126737,0.0115 -0.126737,0.05 0,0.0911 -0.104566,0.17502 -0.218067,0.17502 -0.09802,0 -0.103293,0.005 -0.06542,0.0605 0.07306,0.10726 0.04125,0.25618 -0.108131,0.50618 -0.105363,0.17634 -0.145329,0.27956 -0.145329,0.37537 0,0.15493 0.05208,0.22221 0.392373,0.50693 0.318922,0.26684 0.374341,0.36419 0.347978,0.61127 -0.02356,0.22077 -0.136313,0.40165 -0.311474,0.49965 -0.05928,0.0332 -0.13171,0.0966 -0.160945,0.14107 -0.06319,0.096 -0.0712,0.38087 -0.01153,0.40984 0.03598,0.0175 0.208058,0.0559 0.289495,0.0646 0.01477,0.002 0.02685,-0.0263 0.02685,-0.0619 z m -0.562039,-0.2898 c 0.01734,-0.13203 0.05664,-0.20053 0.241263,-0.42053 0.317433,-0.37825 0.299978,-0.48569 -0.140852,-0.86704 -0.240394,-0.20795 -0.376297,-0.3845 -0.413844,-0.53762 -0.02727,-0.11122 0.05735,-0.35812 0.19331,-0.56403 0.06018,-0.0911 0.109421,-0.18666 0.109421,-0.21226 0,-0.0513 -0.08414,-0.11858 -0.116501,-0.0932 -0.01123,0.009 -0.106401,0.0226 -0.211484,0.0305 -0.105083,0.008 -0.216492,0.0323 -0.247574,0.054 -0.03108,0.0217 -0.119678,0.0397 -0.196879,0.04 -0.225289,6.9e-4 -0.245127,0.0229 -0.177909,0.19951 0.06062,0.15925 0.140798,0.45944 0.178964,0.67006 0.01926,0.1063 0.06231,0.15731 0.292551,0.34667 0.148481,0.12211 0.292797,0.26496 0.320704,0.31744 0.08695,0.16352 0.06501,0.35204 -0.06255,0.53736 -0.245917,0.35727 -0.258006,0.38072 -0.220802,0.42826 0.03473,0.0444 0.364474,0.22853 0.409211,0.22853 0.01224,0 0.03157,-0.071 0.04297,-0.15772 z m -0.534402,-0.45403 c 0.139172,-0.21609 0.168048,-0.33239 0.121704,-0.49014 -0.0224,-0.0762 -0.08188,-0.17276 -0.132183,-0.21449 l -0.09146,-0.0759 -0.02411,0.14064 c -0.03831,0.2235 -0.03489,0.77347 0.0048,0.77347 0.01936,0 0.07391,-0.0601 0.121236,-0.1336 z m -1.288662,0.0833 c 0.01996,-0.0254 -0.03369,-0.39699 -0.06034,-0.41793 -0.0096,-0.008 -0.05027,0.002 -0.09028,0.0219 -0.05645,0.0277 -0.0682,0.0549 -0.05245,0.12148 0.01117,0.0472 0.03428,0.0978 0.05137,0.11251 0.01708,0.0147 0.03106,0.0537 0.03106,0.0867 0,0.085 0.07581,0.13229 0.120637,0.0753 z m -0.114506,-0.47435 c 0.036,-0.0256 0.06546,-0.0835 0.06546,-0.12873 v -0.0822 l -0.08949,0.0836 c -0.13626,0.12724 -0.11728,0.22782 0.02403,0.12734 z m -0.04672,-0.1855 c 0.05358,-0.13396 0.08735,-0.39965 0.05955,-0.46848 -0.02767,-0.0685 -0.09055,-0.0524 -0.09055,0.0233 0,0.0279 -0.04837,0.14289 -0.107488,0.25554 -0.08188,0.15601 -0.09789,0.21389 -0.06721,0.24294 0.07238,0.0685 0.166766,0.0441 0.205704,-0.0533 z m -0.583947,-0.15193 c 0.03206,-0.23526 -0.01003,-0.8504 -0.07092,-1.03641 -0.04599,-0.14051 -0.04619,-0.14065 -0.221184,-0.1592 -0.09633,-0.0102 -0.228786,-0.0118 -0.294343,-0.003 -0.06654,0.008 -0.157266,-9.2e-4 -0.205371,-0.0211 -0.06904,-0.029 -0.11528,-0.0294 -0.232529,-0.002 -0.08049,0.019 -0.193459,0.0263 -0.251032,0.0164 -0.09839,-0.017 -0.104678,-0.0127 -0.104678,0.0704 0,0.0487 0.05578,0.18332 0.123959,0.29926 0.10175,0.17304 0.186728,0.25986 0.474301,0.48458 0.192687,0.15058 0.41786,0.33334 0.500384,0.40614 0.207641,0.18316 0.250117,0.1749 0.281415,-0.0547 z"
       id="path427" />
  </g>
  <g
     inkscape:groupmode="layer"
     id="layer3"
     inkscape:label="back"
     style="filter:url(#filter1927)"
     transform="translate(0.02065398,0.01120977)" />
  <g
     inkscape:groupmode="layer"
     id="layer5"
     inkscape:label="Layer 2"
     transform="translate(0.02065398,0.00149455)">
    <path
       style="fill:#ffffff;stroke-width:0.0189395"
       d="m 18.267028,124.307 v -2.15173 h 1.997932 1.997933 v 2.15173 2.15174 H 20.26496 18.267028 Z m 3.489246,1.79579 c 0.176112,-0.0328 0.188417,-0.0379 0.17514,-0.0717 -0.03982,-0.10158 -0.05186,-0.11576 -0.0886,-0.10437 -0.110664,0.0342 -0.333653,0.0622 -0.416974,0.0523 -0.249049,-0.0296 -0.454743,-0.33216 -0.617112,-0.90759 -0.05823,-0.20634 -0.105497,-0.5846 -0.08383,-0.67066 0.01458,-0.0578 8.84e-4,-0.071 -0.157356,-0.15081 l -0.111888,-0.0564 0.13653,-0.11491 c 0.144612,-0.12172 0.287208,-0.29679 0.341456,-0.41921 0.01859,-0.0419 0.03272,-0.13005 0.03272,-0.20404 0,-0.17012 -0.06847,-0.28201 -0.286703,-0.46853 -0.0878,-0.0751 -0.159642,-0.15114 -0.159642,-0.16911 0,-0.0316 -0.02963,-0.033 -0.927036,-0.0446 -0.509867,-0.007 -0.929429,-0.01 -0.932356,-0.007 -0.0029,0.003 -0.01044,0.0829 -0.01674,0.17807 l -0.01152,0.17298 h 0.171054 0.171054 l -0.01386,0.7721 c -0.0076,0.42461 -0.0198,0.96262 -0.02713,1.19554 l -0.01332,0.42349 0.133884,0.0111 c 0.07364,0.007 0.13617,0.009 0.138942,0.007 0.0027,-0.003 0.01206,-0.30325 0.02072,-0.66869 l 0.01566,-0.66443 0.374303,0.008 c 0.423462,0.009 0.54678,0.032 0.788769,0.14429 l 0.13815,0.0641 0.01332,0.22698 c 0.031,0.5251 0.284057,1.1567 0.547177,1.36562 0.171846,0.13644 0.337126,0.16134 0.665061,0.10021 z m -1.703859,-2.02617 c -0.04091,-0.009 -0.245582,-0.0204 -0.454815,-0.026 l -0.380423,-0.01 0.01386,-0.22816 c 0.0076,-0.12549 0.01386,-0.33312 0.01386,-0.46141 v -0.23324 l 0.611069,0.0102 0.61107,0.0102 0.06035,0.0443 c 0.10629,0.0779 0.171936,0.18511 0.171936,0.28063 0,0.15644 -0.199421,0.41338 -0.430375,0.55448 -0.07047,0.043 -0.131238,0.0775 -0.135054,0.0766 -0.0038,-9e-4 -0.04041,-0.009 -0.08132,-0.0177 z m 3.074675,1.9771 c -0.01832,-0.0247 -0.0574,-0.11076 -0.08683,-0.19139 -0.0504,-0.1381 -0.05479,-0.18259 -0.07564,-0.76659 -0.03046,-0.85297 -0.07772,-1.33843 -0.213833,-2.19655 -0.03449,-0.21737 -0.05836,-0.39867 -0.05308,-0.40287 0.01404,-0.0112 0.269127,-0.0674 0.489753,-0.10806 0.150804,-0.0278 0.255847,-0.0348 0.496246,-0.0333 0.311059,0.002 0.407849,-0.0126 0.49337,-0.0741 0.0279,-0.0201 0.163314,-0.0282 0.689775,-0.0415 0.360282,-0.009 0.657864,-0.0144 0.661292,-0.0117 0.01062,0.008 0.131184,0.56522 0.176094,0.81356 0.136008,0.75175 0.176148,1.46567 0.136728,2.43174 l -0.01386,0.33907 -0.299614,0.0295 c -0.413806,0.0408 -0.587308,0.0705 -0.809288,0.13846 l -0.190856,0.0584 -0.114408,-0.0444 c -0.220791,-0.0859 -0.619604,-0.0672 -1.047748,0.0488 l -0.204821,0.0555 z m 1.507395,-0.45989 c -0.0063,-0.0859 -0.01674,-0.24343 -0.02324,-0.35019 -0.0065,-0.10673 -0.03519,-0.34216 -0.06381,-0.52316 -0.10773,-0.6811 -0.120888,-0.88521 -0.05787,-0.89828 0.02059,-0.005 0.207531,-0.0299 0.415427,-0.0568 0.352538,-0.0457 0.377309,-0.0513 0.367832,-0.0828 -0.0056,-0.0186 -0.02216,-0.0971 -0.03681,-0.17442 l -0.02664,-0.14068 -0.097,0.0113 c -0.05335,0.007 -0.283512,0.0381 -0.511468,0.0709 -0.472054,0.0678 -0.785364,0.0851 -1.041319,0.0579 -0.09749,-0.0104 -0.181003,-0.0159 -0.185602,-0.0123 -0.0088,0.008 -0.06955,0.33677 -0.06289,0.34162 0.01674,0.0122 0.426318,0.0398 0.590001,0.0398 l 0.203511,6e-5 0.02543,0.27004 c 0.01404,0.14853 0.04905,0.41244 0.0779,0.58645 0.04329,0.26103 0.09324,0.77139 0.09499,0.97037 l 4.01e-4,0.0464 h 0.171324 0.171324 z m -9.839762,0.0486 c -0.311238,-1.61423 -0.374208,-2.10711 -0.374566,-2.93176 l -2.11e-4,-0.48262 0.260368,-0.0449 c 0.538797,-0.0929 0.987201,-0.13983 1.71631,-0.17971 0.350645,-0.0191 1.007712,-0.048 1.012402,-0.0443 0.0015,9e-4 -0.007,0.15785 -0.01892,0.34813 -0.03443,0.54831 0.0027,0.94955 0.195434,2.10768 0.0761,0.45744 0.104093,0.65641 0.139427,0.99089 l 0.0126,0.11989 -0.410131,0.0526 c -0.429127,0.055 -0.717279,0.0817 -1.494116,0.13838 -0.452862,0.033 -0.801828,0.07 -0.936951,0.0993 l -0.06552,0.0143 z m 1.530676,-0.277 c 0.0317,-0.23874 0.03562,-0.73144 0.0076,-0.94018 -0.01134,-0.0835 -0.02695,-0.30188 -0.03487,-0.4852 l -0.0144,-0.3333 h 0.214602 0.214601 l 0.01386,0.0731 c 0.02167,0.11476 0.02536,0.11651 0.188133,0.0894 0.07871,-0.013 0.149004,-0.0284 0.156186,-0.0342 0.0072,-0.006 -0.0088,-0.092 -0.03548,-0.19172 -0.02669,-0.0997 -0.05357,-0.24779 -0.05971,-0.32902 l -0.01116,-0.14767 h -0.167142 -0.167094 v 0.0591 0.0591 h -0.797049 -0.797047 v 0.21096 0.21095 h 0.403837 0.403838 l 5.63e-4,0.1561 c 5.11e-4,0.14576 0.01404,0.34293 0.06073,0.88179 0.01242,0.14276 0.01098,0.30488 -0.0041,0.4641 -0.0126,0.13459 -0.02356,0.28648 -0.02419,0.33754 l -0.0012,0.0928 0.20192,0.0174 c 0.11106,0.01 0.20629,0.015 0.211635,0.012 0.0054,-0.003 0.02153,-0.0944 0.03596,-0.20311 z m -2.90473,0.2611 c -0.122922,-0.0393 -0.276973,-0.0953 -0.342347,-0.12455 l -0.118854,-0.0533 -0.141192,0.0407 -0.141192,0.0407 -0.159894,-0.0751 -0.159894,-0.0751 -0.318794,0.0231 -0.318794,0.0231 -0.100512,-0.0827 -0.100512,-0.0827 -0.265681,0.0223 c -0.146124,0.0122 -0.269201,0.0203 -0.273501,0.0176 -0.0043,-0.003 0.08156,-0.70372 0.190807,-1.55816 l 0.198627,-1.55352 0.202401,0.009 c 0.512071,0.0232 0.836485,0.0514 1.643815,0.14265 0.477148,0.0539 0.8732,0.10256 0.880117,0.10806 0.0068,0.006 -0.06019,0.53976 -0.149148,1.18725 -0.08894,0.64749 -0.181756,1.34056 -0.206247,1.54012 -0.0567,0.46204 -0.06638,0.52335 -0.08253,0.52235 -0.0072,-4.2e-4 -0.113778,-0.0328 -0.236688,-0.0721 z m -0.223621,-0.70281 0.14688,-0.11754 -0.04099,-0.0386 c -0.02255,-0.0213 -0.08158,-0.0742 -0.131166,-0.11773 -0.101754,-0.0892 -0.142146,-0.15238 -0.251885,-0.39339 -0.04226,-0.0928 -0.09536,-0.19429 -0.117989,-0.22547 -0.02509,-0.0346 -0.03393,-0.0641 -0.02264,-0.0759 0.01026,-0.0106 0.156995,-0.15592 0.326263,-0.32301 0.169272,-0.16707 0.31441,-0.31269 0.322521,-0.32361 0.01458,-0.0196 -0.279232,-0.22487 -0.321952,-0.22487 -0.01134,0 -0.133506,0.11174 -0.271425,0.2483 l -0.250749,0.2483 -0.0491,-0.0838 c -0.04939,-0.0842 -0.05476,-0.18017 -0.01674,-0.29893 0.01134,-0.0353 0.0072,-0.0464 -0.0171,-0.0464 -0.09932,0 -0.316917,-0.0753 -0.461516,-0.15951 -0.08768,-0.0511 -0.173772,-0.0931 -0.19134,-0.0933 -0.03022,-4.1e-4 -0.234774,0.2447 -0.232846,0.27891 9e-4,0.0169 0.25815,0.16424 0.372807,0.2136 0.05339,0.023 0.06908,0.0424 0.0783,0.097 0.0117,0.069 0.104598,0.23701 0.182529,0.32992 l 0.04246,0.0506 -0.402268,0.39448 c -0.221247,0.21696 -0.402267,0.39684 -0.402267,0.39972 0,0.0122 0.317332,0.20994 0.336835,0.20994 0.0117,0 0.156924,-0.13341 0.322607,-0.29646 0.16569,-0.16306 0.304443,-0.29394 0.308347,-0.29084 0.004,0.003 0.04129,0.0806 0.08309,0.17233 0.0418,0.0917 0.106128,0.2085 0.142956,0.25961 0.06167,0.0856 0.323368,0.32413 0.355586,0.32413 0.0077,0 0.08003,-0.053 0.16083,-0.11753 z m 13.125474,-0.87819 v -1.60325 h 1.328414 1.32841 v 1.60325 1.60326 h -1.32841 -1.328414 z m 2.264137,1.2811 c 0.140561,-0.0705 0.151973,-0.081 0.118493,-0.10903 -0.01134,-0.009 -0.0117,-0.15123 -0.0011,-0.34513 0.0099,-0.18099 0.01858,-0.65754 0.01913,-1.05898 l 0.0011,-0.72991 h -0.156289 -0.156294 l -0.01368,0.12911 c -0.0076,0.071 -0.01368,0.43555 -0.01368,0.81007 0,0.37897 -0.0083,0.68095 -0.01865,0.68095 -0.01026,0 -0.03825,-0.0362 -0.06223,-0.0804 -0.226591,-0.41823 -0.541388,-0.90569 -0.743643,-1.15153 -0.06491,-0.0789 -0.116982,-0.15658 -0.115722,-0.17261 0.0014,-0.016 -0.02817,-0.046 -0.06543,-0.0665 -0.03724,-0.0205 -0.127584,-0.0813 -0.200771,-0.13497 -0.142865,-0.10483 -0.240225,-0.13666 -0.478019,-0.15623 l -0.12222,-0.0101 v 0.12461 c 0,0.0685 -0.0058,0.14752 -0.01278,0.17552 -0.01278,0.0506 -0.01206,0.0509 0.100962,0.0621 0.06259,0.007 0.13401,0.019 0.158724,0.0288 0.04392,0.0171 0.04421,0.0199 0.01242,0.12002 -0.02668,0.0841 -0.02806,0.11955 -0.0077,0.19769 0.01674,0.0644 0.02477,0.34704 0.02477,0.87474 v 0.77951 h 0.146124 0.146123 l 0.01332,-0.0527 c 0.0074,-0.029 0.01332,-0.42039 0.01332,-0.86973 0,-0.80221 8.04e-4,-0.81667 0.04106,-0.79953 0.0707,0.0301 0.316499,0.37376 0.543521,0.76004 0.319761,0.54409 0.421551,0.70841 0.54623,0.88179 0.07175,0.0998 0.133848,0.18143 0.13797,0.18143 0.0041,0 0.06946,-0.031 0.145152,-0.069 z"
       id="path365" />
  </g>
  <g
     inkscape:label="Layer 1"
     inkscape:groupmode="layer"
     id="layer1"
     transform="translate(0.02065398,-168.48876)"
     style="display:inline">
    <g
       aria-label="Pitch"
       style="font-style:normal;font-variant:normal;font-weight:300;font-stretch:normal;font-size:4.93889px;line-height:6.61458px;font-family:'Gotham Rounded';-inkscape-font-specification:'Gotham Rounded Light';font-variant-ligatures:normal;font-variant-caps:normal;font-variant-numeric:normal;font-feature-settings:normal;text-align:center;letter-spacing:0px;word-spacing:0px;writing-mode:lr-tb;text-anchor:middle;display:inline;fill:#000000;fill-opacity:1;stroke:#000000;stroke-width:0.264583px;stroke-linecap:butt;stroke-linejoin:miter;stroke-opacity:1"
       id="text4944"
       transform="translate(0,10.583334)" />
    <text
       xml:space="preserve"
       style="font-style:normal;font-weight:normal;font-size:10.5833px;line-height:1.25;font-family:sans-serif;fill:#000000;fill-opacity:1;stroke:#000000;stroke-width:0.264583"
       x="10.375626"
       y="254.64096"
       id="text72"><tspan
         sodipodi:role="line"
         id="tspan70"
         x="10.375626"
         y="254.64096"
         style="fill:#000000;stroke:#000000;stroke-width:0.264583" /></text>
  </g>
  <g
     inkscape:groupmode="layer"
     id="layer2"
     inkscape:label="components"
     transform="translate(0.02065398,0.0112208)">
    <text
       xml:space="preserve"
       style="font-style:normal;font-weight:normal;font-size:10.5833px;line-height:1.25;font-family:sans-serif;fill:#000000;fill-opacity:1;stroke:#000000;stroke-width:0.264583"
       x="-65.249954"
       y="111.72212"
       id="text144"><tspan
         sodipodi:role="line"
         id="tspan142"
         x="-65.249954"
         y="111.72212"
         style="fill:#000000;stroke:#000000;stroke-width:0.264583" /></text>
    <text
       xml:space="preserve"
       style="font-size:3.52777px;line-height:1.25;font-family:sans-serif;fill:#000000;stroke:#000000;stroke-width:0.264583"
       x="17.94903"
       y="75.780609"
       id="text1055"><tspan
         sodipodi:role="line"
         id="tspan1053"
         x="17.94903"
         y="75.780609"
         style="fill:#000000;stroke:#000000;stroke-width:0.264583" /></text>
    <text
       xml:space="preserve"
       style="font-size:3.52777px;line-height:1.25;font-family:sans-serif;fill:#000000;stroke:#000000;stroke-width:0.264583"
       x="5.6367397"
       y="125.28948"
       id="text1388"><tspan
         sodipodi:role="line"
         id="tspan1386"
         x="5.6367397"
         y="125.28948"
         style="fill:#000000;stroke:#000000;stroke-width:0.264583" /></text>
    <text
       xml:space="preserve"
       style="font-weight:600;font-size:3.52777px;line-height:1.25;font-family:'URW Gothic';-inkscape-font-specification:'URW Gothic, Semi-Bold';fill:#ffffff;stroke-width:0.264583"
       x="3.3458118"
       y="78.44635"
       id="text123"><tspan
         sodipodi:role="line"
         id="tspan121"
         x="3.3458118"
         y="78.44635"
         style="fill:#ffffff;stroke-width:0.264583" /></text>
  </g>
</svg>
