<?xml version="1.0" encoding="UTF-8" standalone="no"?>
<svg
   xmlns:dc="http://purl.org/dc/elements/1.1/"
   xmlns:cc="http://creativecommons.org/ns#"
   xmlns:rdf="http://www.w3.org/1999/02/22-rdf-syntax-ns#"
   xmlns:svg="http://www.w3.org/2000/svg"
   xmlns="http://www.w3.org/2000/svg"
   xmlns:sodipodi="http://sodipodi.sourceforge.net/DTD/sodipodi-0.dtd"
   xmlns:inkscape="http://www.inkscape.org/namespaces/inkscape"
   width="30.48mm"
   height="128.5mm"
   viewBox="0 0 30.480002 128.50002"
   version="1.1"
   id="svg8"
   inkscape:version="1.0.2 (e86c870879, 2021-01-15, custom)"
   sodipodi:docname="Modulo.svg">
  <defs
     id="defs2" />
  <sodipodi:namedview
     id="base"
     pagecolor="#ffffff"
     bordercolor="#666666"
     borderopacity="1.0"
     inkscape:pageopacity="0.0"
     inkscape:pageshadow="2"
     inkscape:zoom="0.49497475"
     inkscape:cx="944.8943"
     inkscape:cy="235.47788"
     inkscape:document-units="mm"
     inkscape:current-layer="layer2"
     showgrid="false"
     units="mm"
     inkscape:snap-bbox="true"
     inkscape:snap-page="true"
     inkscape:bbox-nodes="false"
     inkscape:snap-bbox-edge-midpoints="false"
     inkscape:window-width="1366"
     inkscape:window-height="768"
     inkscape:window-x="0"
     inkscape:window-y="0"
     inkscape:window-maximized="0"
     inkscape:snap-bbox-midpoints="true"
     inkscape:snap-nodes="false"
     inkscape:document-rotation="0" />
  <metadata
     id="metadata5">
    <rdf:RDF>
      <cc:Work
         rdf:about="">
        <dc:format>image/svg+xml</dc:format>
        <dc:type
           rdf:resource="http://purl.org/dc/dcmitype/StillImage" />
        <dc:title />
      </cc:Work>
    </rdf:RDF>
  </metadata>
  <g
     inkscape:label="Layer 1"
     inkscape:groupmode="layer"
     id="layer1"
     transform="translate(0,-168.49998)">
    <rect
       style="display:inline;opacity:1;vector-effect:none;fill:#333333;fill-opacity:1;fill-rule:evenodd;stroke:none;stroke-width:0.64935839;stroke-linecap:butt;stroke-linejoin:miter;stroke-miterlimit:4;stroke-dasharray:none;stroke-dashoffset:0;stroke-opacity:1;paint-order:normal"
       id="rect420"
       width="30.48"
       height="128.5"
       x="5.9211732e-17"
       y="168.49997" />
    <g
       aria-label="Pitch"
       style="font-style:normal;font-variant:normal;font-weight:300;font-stretch:normal;font-size:4.93888855px;line-height:6.61458302px;font-family:'Gotham Rounded';-inkscape-font-specification:'Gotham Rounded Light';font-variant-ligatures:normal;font-variant-caps:normal;font-variant-numeric:normal;font-feature-settings:normal;text-align:center;letter-spacing:0px;word-spacing:0px;writing-mode:lr-tb;text-anchor:middle;display:inline;fill:#000000;fill-opacity:1;stroke:none;stroke-width:0.26458332px;stroke-linecap:butt;stroke-linejoin:miter;stroke-opacity:1"
       id="text4944"
       transform="translate(0,10.583334)" />
    <g
       aria-label="XTRTN"
       id="text42"
       style="font-style:normal;font-weight:normal;font-size:10.5833px;line-height:1.25;font-family:sans-serif;fill:#ffffff;fill-opacity:1;stroke:none;stroke-width:0.264583"
       transform="translate(-0.23269329,8.6736837)">
      <path
         d="m 7.2837105,177.12181 h 1.4746121 l -1.8132789,-2.58939 1.6157232,-2.30717 H 7.1284882 l -0.8184449,1.3335 -0.818445,-1.3335 H 4.0452085 l 1.6086677,2.34245 -1.7215567,2.55411 h 1.4181676 l 0.9313339,-1.60867 z"
         style="font-style:normal;font-variant:normal;font-weight:800;font-stretch:normal;font-size:7.05556px;font-family:Cantarell;-inkscape-font-specification:'Cantarell, Ultra-Bold';font-variant-ligatures:normal;font-variant-caps:normal;font-variant-numeric:normal;font-variant-east-asian:normal;fill:#ffffff;stroke-width:0.264583"
         id="path55" />
      <path
         d="m 10.204702,177.12181 h 1.199445 v -3.82411 h 1.524001 v -1.07245 H 8.6948123 v 1.07245 h 1.5098897 z"
         style="font-style:normal;font-variant:normal;font-weight:800;font-stretch:normal;font-size:7.05556px;font-family:Cantarell;-inkscape-font-specification:'Cantarell, Ultra-Bold';font-variant-ligatures:normal;font-variant-caps:normal;font-variant-numeric:normal;font-variant-east-asian:normal;fill:#ffffff;stroke-width:0.264583"
         id="path57" />
      <path
         d="m 13.478471,177.12181 h 1.220612 v -1.67217 h 0.543278 l 0.952501,1.67217 h 1.467556 l -1.220612,-1.92617 c 0.550334,-0.29633 0.881945,-0.8255 0.881945,-1.48872 0,-0.94545 -0.677334,-1.48167 -1.82739,-1.48167 h -2.01789 z m 1.220612,-2.70933 v -1.12184 h 0.627945 c 0.458611,0 0.726722,0.21872 0.726722,0.58561 0,0.33161 -0.197555,0.53623 -0.557389,0.53623 z"
         style="font-style:normal;font-variant:normal;font-weight:800;font-stretch:normal;font-size:7.05556px;font-family:Cantarell;-inkscape-font-specification:'Cantarell, Ultra-Bold';font-variant-ligatures:normal;font-variant-caps:normal;font-variant-numeric:normal;font-variant-east-asian:normal;fill:#ffffff;stroke-width:0.264583"
         id="path59" />
      <path
         d="m 19.271083,177.12181 h 1.199445 v -3.82411 h 1.524001 v -1.07245 h -4.233336 v 1.07245 h 1.50989 z"
         style="font-style:normal;font-variant:normal;font-weight:800;font-stretch:normal;font-size:7.05556px;font-family:Cantarell;-inkscape-font-specification:'Cantarell, Ultra-Bold';font-variant-ligatures:normal;font-variant-caps:normal;font-variant-numeric:normal;font-variant-east-asian:normal;fill:#ffffff;stroke-width:0.264583"
         id="path61" />
      <path
         d="m 22.544852,177.12181 h 1.157112 v -3.21733 l 2.032002,3.21733 h 1.368778 v -4.89656 h -1.171223 l -0.01411,3.18912 -1.975557,-3.18912 h -1.397001 z"
         style="font-style:normal;font-variant:normal;font-weight:800;font-stretch:normal;font-size:7.05556px;font-family:Cantarell;-inkscape-font-specification:'Cantarell, Ultra-Bold';font-variant-ligatures:normal;font-variant-caps:normal;font-variant-numeric:normal;font-variant-east-asian:normal;fill:#ffffff;stroke-width:0.264583"
         id="path63" />
    </g>
    <text
       xml:space="preserve"
       style="font-style:normal;font-weight:normal;font-size:10.5833px;line-height:1.25;font-family:sans-serif;fill:#000000;fill-opacity:1;stroke:none;stroke-width:0.264583"
       x="10.375626"
       y="254.64096"
       id="text72"><tspan
         sodipodi:role="line"
         id="tspan70"
         x="10.375626"
         y="254.64096"
         style="stroke-width:0.264583" /></text>
  </g>
  <g
     inkscape:groupmode="layer"
     id="layer2"
     inkscape:label="components">
    <g
       aria-label="mod                off"
       id="text130-3"
       style="font-style:normal;font-weight:normal;font-size:2.82222px;line-height:1.25;font-family:sans-serif;fill:#ffffff;fill-opacity:1;stroke:none;stroke-width:0.264583"
       transform="translate(0,-0.800003)">
      <path
         d="m 4.5082947,94.823105 q 0.095085,-0.170877 0.2273762,-0.252181 0.1322915,-0.0813 0.3114364,-0.0813 0.2411565,0 0.37207,0.169499 0.1309135,0.16812 0.1309135,0.479556 v 0.931554 H 5.295154 v -0.923285 q 0,-0.221864 -0.078548,-0.329351 -0.078548,-0.107487 -0.2397784,-0.107487 -0.1970593,0 -0.3114364,0.130913 -0.1143771,0.130914 -0.1143771,0.356912 v 0.872298 H 4.296077 v -0.923285 q 0,-0.223242 -0.078548,-0.329351 -0.078548,-0.107487 -0.2425345,-0.107487 -0.1943033,0 -0.3086804,0.132291 -0.114377,0.130914 -0.114377,0.355534 v 0.872298 H 3.2970001 V 94.526827 H 3.551937 v 0.239778 q 0.086816,-0.141937 0.2080836,-0.209461 0.1212672,-0.06752 0.2880097,-0.06752 0.1681206,0 0.2852537,0.08544 0.1185112,0.08544 0.1750107,0.248047 z"
         style="font-size:2.82222px;fill:#ffffff;stroke-width:0.264583"
         id="path168" />
      <path
         d="m 6.6538986,94.704594 q -0.2039495,0 -0.3224607,0.159852 -0.1185112,0.158474 -0.1185112,0.43546 0,0.276985 0.1171332,0.436838 0.1185112,0.158474 0.3238387,0.158474 0.2025715,0 0.3210827,-0.159852 0.1185112,-0.159853 0.1185112,-0.43546 0,-0.27423 -0.1185112,-0.434082 -0.1185112,-0.16123 -0.3210827,-0.16123 z m 0,-0.214974 q 0.3307289,0 0.51952,0.214974 0.1887911,0.214974 0.1887911,0.595312 0,0.37896 -0.1887911,0.595312 -0.1887911,0.214974 -0.51952,0.214974 -0.332107,0 -0.520898,-0.214974 -0.1874131,-0.216352 -0.1874131,-0.595312 0,-0.380338 0.1874131,-0.595312 0.188791,-0.214974 0.520898,-0.214974 z"
         style="font-size:2.82222px;fill:#ffffff;stroke-width:0.264583"
         id="path170" />
      <path
         d="m 8.7981241,94.761093 v -0.83509 H 9.051683 v 2.144226 H 8.7981241 v -0.231511 q -0.079926,0.137804 -0.2025714,0.205328 -0.1212673,0.06615 -0.2921439,0.06615 -0.2797415,0 -0.4561303,-0.223242 -0.1750107,-0.223242 -0.1750107,-0.587044 0,-0.363802 0.1750107,-0.587044 0.1763888,-0.223242 0.4561303,-0.223242 0.1708766,0 0.2921439,0.06752 0.1226453,0.06615 0.2025714,0.203949 z m -0.8640293,0.538813 q 0,0.279741 0.1143771,0.439594 0.1157551,0.158474 0.3169486,0.158474 0.2011934,0 0.3169485,-0.158474 0.1157551,-0.159853 0.1157551,-0.439594 0,-0.279742 -0.1157551,-0.438216 -0.1157551,-0.159852 -0.3169485,-0.159852 -0.2011935,0 -0.3169486,0.159852 -0.1143771,0.158474 -0.1143771,0.438216 z"
         style="font-size:2.82222px;fill:#ffffff;stroke-width:0.264583"
         id="path172" />
      <path
         d="m 24.525663,94.704594 q -0.203949,0 -0.32246,0.159852 -0.118512,0.158474 -0.118512,0.43546 0,0.276985 0.117134,0.436838 0.118511,0.158474 0.323838,0.158474 0.202572,0 0.321083,-0.159852 0.118511,-0.159853 0.118511,-0.43546 0,-0.27423 -0.118511,-0.434082 -0.118511,-0.16123 -0.321083,-0.16123 z m 0,-0.214974 q 0.330729,0 0.51952,0.214974 0.188791,0.214974 0.188791,0.595312 0,0.37896 -0.188791,0.595312 -0.188791,0.214974 -0.51952,0.214974 -0.332107,0 -0.520898,-0.214974 -0.187413,-0.216352 -0.187413,-0.595312 0,-0.380338 0.187413,-0.595312 0.188791,-0.214974 0.520898,-0.214974 z"
         style="font-size:2.82222px;fill:#ffffff;stroke-width:0.264583"
         id="path174" />
      <path
         d="m 27.386467,93.926003 v 0.210839 h -0.242535 q -0.136426,0 -0.190169,0.05512 -0.05236,0.05512 -0.05236,0.198437 v 0.136426 h 0.417545 v 0.197059 h -0.417545 v 1.346343 h -0.254937 v -1.346343 h -0.695909 v 1.346343 H 25.69562 V 94.723884 H 25.453086 V 94.526825 H 25.69562 V 94.41934 q 0,-0.257693 0.119889,-0.374826 0.11989,-0.118511 0.380339,-0.118511 h 0.239778 v 0.210839 h -0.242534 q -0.136426,0 -0.19017,0.05512 -0.05237,0.05512 -0.05237,0.198437 v 0.136426 h 0.695909 V 94.41934 q 0,-0.257693 0.119889,-0.374826 0.119889,-0.118511 0.380338,-0.118511 z"
         style="font-size:2.82222px;fill:#ffffff;stroke-width:0.264583"
         id="path176" />
    </g>
    <g
       aria-label="modulo"
       transform="scale(0.93470295,1.0698586)"
       id="text74"
       style="font-style:normal;font-weight:normal;font-size:6.25119px;line-height:1.25;font-family:sans-serif;fill:#008080;fill-opacity:1;stroke:none;stroke-width:0.156281">
      <path
         d="m 8.1934986,19.534239 q 0.2106114,-0.37849 0.5036359,-0.558578 0.2930246,-0.180088 0.6898286,-0.180088 0.5341593,0 0.8241319,0.375438 0.289972,0.372385 0.289972,1.062214 v 2.063381 H 9.9363841 v -2.045067 q 0,-0.491427 -0.1739833,-0.729509 -0.1739833,-0.238082 -0.531107,-0.238082 -0.4364844,0 -0.6898286,0.289972 -0.2533441,0.289972 -0.2533441,0.790556 v 1.93213 H 7.7234384 v -2.045067 q 0,-0.494479 -0.1739833,-0.729509 -0.1739833,-0.238082 -0.5372117,-0.238082 -0.4303798,0 -0.6837239,0.293024 -0.2533441,0.289972 -0.2533441,0.787504 v 1.93213 H 5.5104927 v -3.41862 h 0.5646827 v 0.531107 q 0.1922973,-0.314391 0.4609031,-0.463955 0.2686059,-0.149565 0.6379389,-0.149565 0.3723853,0 0.6318341,0.189245 0.2625012,0.189245 0.3876471,0.549421 z"
         style="fill:#008080;stroke-width:0.156281"
         id="path97" />
      <path
         d="m 12.94599,19.271738 q -0.451746,0 -0.714247,0.354071 -0.262501,0.351019 -0.262501,0.96454 0,0.61352 0.259449,0.967591 0.262501,0.351019 0.717299,0.351019 0.448694,0 0.711195,-0.354071 0.262501,-0.354072 0.262501,-0.964539 0,-0.607416 -0.262501,-0.961487 -0.262501,-0.357124 -0.711195,-0.357124 z m 0,-0.476165 q 0.732562,0 1.150732,0.476165 0.41817,0.476165 0.41817,1.318611 0,0.839393 -0.41817,1.31861 -0.41817,0.476165 -1.150732,0.476165 -0.735614,0 -1.153784,-0.476165 -0.415118,-0.479217 -0.415118,-1.31861 0,-0.842446 0.415118,-1.318611 0.41817,-0.476165 1.153784,-0.476165 z"
         style="fill:#008080;stroke-width:0.156281"
         id="path99" />
      <path
         d="m 17.69543,19.396884 v -1.849717 h 0.56163 v 4.749439 h -0.56163 v -0.512793 q -0.177036,0.305234 -0.448694,0.454799 -0.268606,0.146512 -0.647096,0.146512 -0.619625,0 -1.010324,-0.494479 -0.387647,-0.494479 -0.387647,-1.300296 0,-0.805818 0.387647,-1.300297 0.390699,-0.494479 1.010324,-0.494479 0.37849,0 0.647096,0.149565 0.271658,0.146512 0.448694,0.451746 z m -1.913817,1.193465 q 0,0.619624 0.253344,0.973696 0.256397,0.351019 0.702038,0.351019 0.445642,0 0.702038,-0.351019 0.256397,-0.354072 0.256397,-0.973696 0,-0.619625 -0.256397,-0.970644 -0.256396,-0.354072 -0.702038,-0.354072 -0.445641,0 -0.702038,0.354072 -0.253344,0.351019 -0.253344,0.970644 z"
         style="fill:#008080;stroke-width:0.156281"
         id="path101" />
      <path
         d="m 19.355902,20.947472 v -2.069486 h 0.56163 v 2.04812 q 0,0.485322 0.189245,0.729509 0.189245,0.241135 0.567735,0.241135 0.454799,0 0.7173,-0.289973 0.265553,-0.289972 0.265553,-0.790555 v -1.938236 h 0.561631 v 3.41862 h -0.561631 v -0.525002 q -0.204506,0.311338 -0.476165,0.463955 -0.268605,0.149565 -0.625729,0.149565 -0.589101,0 -0.894335,-0.366281 -0.305234,-0.36628 -0.305234,-1.071371 z m 1.413233,-2.151899 z"
         style="fill:#008080;stroke-width:0.156281"
         id="path103" />
      <path
         d="m 23.375832,17.547167 h 0.561631 v 4.749439 h -0.561631 z"
         style="fill:#008080;stroke-width:0.156281"
         id="path105" />
      <path
         d="m 26.437327,19.271738 q -0.451746,0 -0.714247,0.354071 -0.262501,0.351019 -0.262501,0.96454 0,0.61352 0.259449,0.967591 0.262501,0.351019 0.717299,0.351019 0.448694,0 0.711195,-0.354071 0.262502,-0.354072 0.262502,-0.964539 0,-0.607416 -0.262502,-0.961487 -0.262501,-0.357124 -0.711195,-0.357124 z m 0,-0.476165 q 0.732562,0 1.150732,0.476165 0.418171,0.476165 0.418171,1.318611 0,0.839393 -0.418171,1.31861 -0.41817,0.476165 -1.150732,0.476165 -0.735613,0 -1.153784,-0.476165 -0.415118,-0.479217 -0.415118,-1.31861 0,-0.842446 0.415118,-1.318611 0.418171,-0.476165 1.153784,-0.476165 z"
         style="fill:#008080;stroke-width:0.156281"
         id="path107" />
    </g>
    <g
       aria-label="------"
       id="text140"
       style="font-style:normal;font-weight:normal;font-size:10.5833px;line-height:1.25;font-family:sans-serif;fill:#ffffff;fill-opacity:1;stroke:none;stroke-width:0.264583">
      <path
         d="M 4.9236345,74.857949 H 7.7089853 V 75.70544 H 4.9236345 Z"
         style="fill:#ffffff;stroke-width:0.264583"
         id="path146" />
      <path
         d="M 8.7425107,74.857949 H 11.527862 V 75.70544 H 8.7425107 Z"
         style="fill:#ffffff;stroke-width:0.264583"
         id="path148" />
      <path
         d="m 12.561387,74.857949 h 2.785351 v 0.847491 h -2.785351 z"
         style="fill:#ffffff;stroke-width:0.264583"
         id="path150" />
      <path
         d="m 16.380263,74.857949 h 2.785351 v 0.847491 h -2.785351 z"
         style="fill:#ffffff;stroke-width:0.264583"
         id="path152" />
      <path
         d="m 20.19914,74.857949 h 2.78535 v 0.847491 h -2.78535 z"
         style="fill:#ffffff;stroke-width:0.264583"
         id="path154" />
      <path
         d="m 24.018016,74.857949 h 2.785351 v 0.847491 h -2.785351 z"
         style="fill:#ffffff;stroke-width:0.264583"
         id="path156" />
    </g>
    <text
       xml:space="preserve"
       style="font-style:normal;font-weight:normal;font-size:10.5833px;line-height:1.25;font-family:sans-serif;fill:#000000;fill-opacity:1;stroke:none;stroke-width:0.264583"
       x="-65.249954"
       y="111.72212"
       id="text144"><tspan
         sodipodi:role="line"
         id="tspan142"
         x="-65.249954"
         y="111.72212"
         style="stroke-width:0.264583" /></text>
    <g
       aria-label="mod                off"
       id="text130"
       style="font-style:normal;font-weight:normal;font-size:2.82222px;line-height:1.25;font-family:sans-serif;fill:#ffffff;fill-opacity:1;stroke:none;stroke-width:0.264583"
       transform="translate(0,-2.199519)">
      <path
         d="m 4.5291759,45.896626 q 0.095085,-0.170877 0.2273761,-0.252181 0.1322916,-0.0813 0.3114364,-0.0813 0.2411565,0 0.3720701,0.169498 0.1309135,0.168121 0.1309135,0.479557 v 0.931553 H 5.3160351 v -0.923285 q 0,-0.221864 -0.078548,-0.329351 -0.078548,-0.107486 -0.2397784,-0.107486 -0.1970594,0 -0.3114364,0.130913 -0.1143771,0.130914 -0.1143771,0.356912 v 0.872297 h -0.254937 v -0.923285 q 0,-0.223242 -0.078548,-0.329351 -0.078548,-0.107486 -0.2425346,-0.107486 -0.1943032,0 -0.3086803,0.132291 -0.1143771,0.130914 -0.1143771,0.355534 v 0.872297 H 3.3178813 v -1.543401 h 0.2549368 v 0.239778 q 0.086816,-0.141938 0.2080836,-0.209462 0.1212673,-0.06752 0.2880098,-0.06752 0.1681205,0 0.2852537,0.08544 0.1185112,0.08544 0.1750107,0.248047 z"
         style="font-size:2.82222px;fill:#ffffff;stroke-width:0.264583"
         id="path157" />
      <path
         d="m 6.6747798,45.778114 q -0.2039495,0 -0.3224607,0.159853 -0.1185112,0.158474 -0.1185112,0.435459 0,0.276986 0.1171331,0.436838 0.1185112,0.158475 0.3238388,0.158475 0.2025714,0 0.3210826,-0.159853 0.1185112,-0.159852 0.1185112,-0.43546 0,-0.274229 -0.1185112,-0.434081 -0.1185112,-0.161231 -0.3210826,-0.161231 z m 0,-0.214973 q 0.3307289,0 0.51952,0.214973 0.1887911,0.214974 0.1887911,0.595312 0,0.378961 -0.1887911,0.595313 -0.1887911,0.214973 -0.51952,0.214973 -0.332107,0 -0.5208981,-0.214973 -0.187413,-0.216352 -0.187413,-0.595313 0,-0.380338 0.187413,-0.595312 0.1887911,-0.214973 0.5208981,-0.214973 z"
         style="font-size:2.82222px;fill:#ffffff;stroke-width:0.264583"
         id="path159" />
      <path
         d="m 8.8190053,45.834614 v -0.835091 h 0.2535589 v 2.144226 H 8.8190053 v -0.23151 q -0.079926,0.137804 -0.2025714,0.205328 -0.1212673,0.06614 -0.2921439,0.06614 -0.2797416,0 -0.4561303,-0.223242 -0.1750107,-0.223242 -0.1750107,-0.587044 0,-0.363801 0.1750107,-0.587043 0.1763887,-0.223242 0.4561303,-0.223242 0.1708766,0 0.2921439,0.06752 0.1226453,0.06615 0.2025714,0.20395 z M 7.954976,46.373426 q 0,0.279742 0.1143771,0.439594 0.1157551,0.158475 0.3169485,0.158475 0.2011935,0 0.3169486,-0.158475 0.1157551,-0.159852 0.1157551,-0.439594 0,-0.279741 -0.1157551,-0.438215 -0.1157551,-0.159853 -0.3169486,-0.159853 -0.2011934,0 -0.3169485,0.159853 -0.1143771,0.158474 -0.1143771,0.438215 z"
         style="font-size:2.82222px;fill:#ffffff;stroke-width:0.264583"
         id="path161" />
      <path
         d="m 24.546544,45.778114 q -0.203949,0 -0.32246,0.159853 -0.118511,0.158474 -0.118511,0.435459 0,0.276986 0.117133,0.436838 0.118511,0.158475 0.323838,0.158475 0.202572,0 0.321083,-0.159853 0.118511,-0.159852 0.118511,-0.43546 0,-0.274229 -0.118511,-0.434081 -0.118511,-0.161231 -0.321083,-0.161231 z m 0,-0.214973 q 0.330729,0 0.51952,0.214973 0.188792,0.214974 0.188792,0.595312 0,0.378961 -0.188792,0.595313 -0.188791,0.214973 -0.51952,0.214973 -0.332107,0 -0.520898,-0.214973 -0.187413,-0.216352 -0.187413,-0.595313 0,-0.380338 0.187413,-0.595312 0.188791,-0.214973 0.520898,-0.214973 z"
         style="font-size:2.82222px;fill:#ffffff;stroke-width:0.264583"
         id="path163" />
      <path
         d="m 27.407348,44.999523 v 0.21084 h -0.242535 q -0.136425,0 -0.190169,0.05512 -0.05237,0.05512 -0.05237,0.198437 v 0.136426 h 0.417545 v 0.197059 h -0.417545 v 1.346342 h -0.254937 v -1.346342 h -0.695909 v 1.346342 h -0.254937 v -1.346342 h -0.242534 v -0.197059 h 0.242534 v -0.107487 q 0,-0.257693 0.11989,-0.374826 0.119889,-0.118512 0.380338,-0.118512 h 0.239778 v 0.21084 h -0.242534 q -0.136426,0 -0.190169,0.05512 -0.05237,0.05512 -0.05237,0.198437 v 0.136426 h 0.695909 v -0.107487 q 0,-0.257693 0.119889,-0.374826 0.119889,-0.118512 0.380338,-0.118512 z"
         style="font-size:2.82222px;fill:#ffffff;stroke-width:0.264583"
         id="path165" />
    </g>
    <path
       id="rect179"
       style="fill:#000000;stroke-width:0.264583"
       d="M 2.1266041,58.988586 H 28.353395 V 69.511395 H 2.1266041 Z" />
    <path
       id="rect179-7"
       style="fill:#000000;stroke-width:0.264583"
       d="M 2.1266041,108.989 H 28.353395 v 10.52281 H 2.1266041 Z" />
    <g
       aria-label="out               abs"
       id="text216"
       style="font-style:normal;font-weight:normal;font-size:2.82222px;line-height:1.25;font-family:sans-serif;fill:#e3dedb;fill-opacity:1;stroke:none;stroke-width:0.264583">
      <path
         d="m 4.4784871,70.781368 q -0.2039495,0 -0.3224607,0.159853 -0.1185111,0.158474 -0.1185111,0.435459 0,0.276986 0.1171331,0.436838 0.1185112,0.158474 0.3238387,0.158474 0.2025715,0 0.3210827,-0.159852 0.1185112,-0.159852 0.1185112,-0.43546 0,-0.274229 -0.1185112,-0.434081 -0.1185112,-0.161231 -0.3210827,-0.161231 z m 0,-0.214973 q 0.330729,0 0.51952,0.214973 0.1887911,0.214974 0.1887911,0.595312 0,0.378961 -0.1887911,0.595312 -0.188791,0.214974 -0.51952,0.214974 -0.3321069,0 -0.520898,-0.214974 Q 3.770176,71.755641 3.770176,71.37668 q 0,-0.380338 0.1874131,-0.595312 0.1887911,-0.214973 0.520898,-0.214973 z"
         style="font-size:2.82222px;fill:#e3dedb;stroke-width:0.264583"
         id="path242" />
      <path
         d="m 5.5809168,71.537911 v -0.934309 h 0.2535589 v 0.924662 q 0,0.219108 0.085438,0.329351 0.085438,0.108865 0.2563149,0.108865 0.2053275,0 0.3238387,-0.130913 0.1198892,-0.130914 0.1198892,-0.356912 v -0.875053 h 0.2535589 v 1.543401 H 6.6199568 v -0.237022 q -0.092328,0.14056 -0.2149738,0.209461 -0.1212672,0.06752 -0.2824976,0.06752 -0.2659611,0 -0.4037649,-0.165364 Q 5.5809168,71.856237 5.5809168,71.537911 Z M 6.218948,70.566395 Z"
         style="font-size:2.82222px;fill:#e3dedb;stroke-width:0.264583"
         id="path244" />
      <path
         d="m 7.6465945,70.165386 v 0.438216 h 0.5222761 v 0.197059 H 7.6465945 v 0.837846 q 0,0.188792 0.050987,0.242535 0.052365,0.05374 0.2108397,0.05374 h 0.260449 v 0.212218 h -0.260449 q -0.2935219,0 -0.4051429,-0.108865 -0.111621,-0.110243 -0.111621,-0.399631 V 70.800661 H 7.2056226 v -0.197059 h 0.1860351 v -0.438216 z"
         style="font-size:2.82222px;fill:#e3dedb;stroke-width:0.264583"
         id="path246" />
      <path
         d="m 22.660308,71.371168 q -0.307302,0 -0.425813,0.07028 -0.118511,0.07028 -0.118511,0.239779 0,0.135047 0.08819,0.214973 0.08957,0.07855 0.242534,0.07855 0.21084,0 0.33762,-0.148828 0.128157,-0.150207 0.128157,-0.398253 v -0.0565 z m 0.50574,-0.104731 v 0.880566 h -0.253559 v -0.234266 q -0.08682,0.14056 -0.216352,0.208083 -0.129535,0.06615 -0.316948,0.06615 -0.237023,0 -0.377583,-0.132291 -0.139181,-0.13367 -0.139181,-0.356912 0,-0.260449 0.173632,-0.392741 0.175011,-0.132291 0.520898,-0.132291 h 0.355534 v -0.02481 q 0,-0.17501 -0.115755,-0.270095 -0.114377,-0.09646 -0.322461,-0.09646 -0.132291,0 -0.257693,0.03169 -0.125401,0.03169 -0.241156,0.09508 v -0.234267 q 0.139182,-0.05374 0.270095,-0.07993 0.130914,-0.02756 0.254937,-0.02756 0.334863,0 0.500227,0.173632 0.165365,0.173633 0.165365,0.52641 z"
         style="font-size:2.82222px;fill:#e3dedb;stroke-width:0.264583"
         id="path248" />
      <path
         d="m 24.796266,71.37668 q 0,-0.279741 -0.115755,-0.438215 -0.114377,-0.159853 -0.315571,-0.159853 -0.201193,0 -0.316948,0.159853 -0.114377,0.158474 -0.114377,0.438215 0,0.279742 0.114377,0.439594 0.115755,0.158475 0.316948,0.158475 0.201194,0 0.315571,-0.158475 0.115755,-0.159852 0.115755,-0.439594 z m -0.862651,-0.538812 q 0.07993,-0.137804 0.201193,-0.20395 0.122646,-0.06752 0.292144,-0.06752 0.28112,0 0.45613,0.223242 0.176389,0.223242 0.176389,0.587043 0,0.363802 -0.176389,0.587044 -0.17501,0.223242 -0.45613,0.223242 -0.169498,0 -0.292144,-0.06615 -0.121267,-0.06752 -0.201193,-0.205327 v 0.23151 h -0.254937 v -2.144226 h 0.254937 z"
         style="font-size:2.82222px;fill:#e3dedb;stroke-width:0.264583"
         id="path250" />
      <path
         d="m 26.463691,70.649077 v 0.239778 q -0.107487,-0.05512 -0.223242,-0.08268 -0.115755,-0.02756 -0.239778,-0.02756 -0.188791,0 -0.283876,0.05788 -0.09371,0.05788 -0.09371,0.173633 0,0.08819 0.06752,0.139181 0.06752,0.04961 0.271474,0.09508 l 0.08682,0.01929 q 0.270095,0.05788 0.383094,0.163987 0.114378,0.104731 0.114378,0.293522 0,0.214973 -0.170877,0.340375 -0.169499,0.125401 -0.467155,0.125401 -0.124023,0 -0.259071,-0.0248 -0.133669,-0.02343 -0.282497,-0.07166 v -0.261827 q 0.14056,0.07304 0.276985,0.110243 0.136426,0.03583 0.270096,0.03583 0.179144,0 0.275607,-0.06063 0.09646,-0.06201 0.09646,-0.173633 0,-0.103353 -0.07028,-0.158474 -0.0689,-0.05512 -0.304547,-0.106109 l -0.08819,-0.02067 q -0.235644,-0.04961 -0.340375,-0.151585 -0.104731,-0.103352 -0.104731,-0.282497 0,-0.21773 0.15434,-0.336241 0.15434,-0.118511 0.438216,-0.118511 0.14056,0 0.264583,0.02067 0.124024,0.02067 0.228754,0.06201 z"
         style="font-size:2.82222px;fill:#e3dedb;stroke-width:0.264583"
         id="path252" />
    </g>
    <g
       aria-label="out               abs"
       id="text216-5"
       style="font-style:normal;font-weight:normal;font-size:2.82222px;line-height:1.25;font-family:sans-serif;fill:#e3dedb;fill-opacity:1;stroke:none;stroke-width:0.264583">
      <path
         d="m 4.4784871,120.78158 q -0.2039495,0 -0.3224607,0.15985 -0.1185111,0.15848 -0.1185111,0.43546 0,0.27699 0.1171331,0.43684 0.1185112,0.15848 0.3238387,0.15848 0.2025715,0 0.3210827,-0.15986 0.1185112,-0.15985 0.1185112,-0.43546 0,-0.27423 -0.1185112,-0.43408 -0.1185112,-0.16123 -0.3210827,-0.16123 z m 0,-0.21497 q 0.330729,0 0.51952,0.21497 0.1887911,0.21498 0.1887911,0.59531 0,0.37896 -0.1887911,0.59532 -0.188791,0.21497 -0.51952,0.21497 -0.3321069,0 -0.520898,-0.21497 -0.1874131,-0.21636 -0.1874131,-0.59532 0,-0.38033 0.1874131,-0.59531 0.1887911,-0.21497 0.520898,-0.21497 z"
         style="font-size:2.82222px;fill:#e3dedb;stroke-width:0.264583"
         id="path255" />
      <path
         d="m 5.5809168,121.53812 v -0.9343 h 0.2535589 v 0.92466 q 0,0.21911 0.085438,0.32935 0.085438,0.10886 0.2563149,0.10886 0.2053275,0 0.3238387,-0.13091 0.1198892,-0.13091 0.1198892,-0.35691 v -0.87505 h 0.2535589 v 1.5434 H 6.6199568 v -0.23703 q -0.092328,0.14056 -0.2149738,0.20947 -0.1212672,0.0675 -0.2824976,0.0675 -0.2659611,0 -0.4037649,-0.16536 -0.1378037,-0.16537 -0.1378037,-0.4837 z m 0.6380312,-0.97151 z"
         style="font-size:2.82222px;fill:#e3dedb;stroke-width:0.264583"
         id="path257" />
      <path
         d="m 7.6465945,120.1656 v 0.43822 h 0.5222761 v 0.19705 H 7.6465945 v 0.83785 q 0,0.18879 0.050987,0.24254 0.052365,0.0537 0.2108397,0.0537 h 0.260449 v 0.21222 h -0.260449 q -0.2935219,0 -0.4051429,-0.10887 -0.111621,-0.11024 -0.111621,-0.39963 v -0.83785 H 7.2056226 v -0.19705 h 0.1860351 v -0.43822 z"
         style="font-size:2.82222px;fill:#e3dedb;stroke-width:0.264583"
         id="path259" />
      <path
         d="m 22.660308,121.37138 q -0.307302,0 -0.425813,0.0703 -0.118511,0.0703 -0.118511,0.23978 0,0.13505 0.08819,0.21497 0.08957,0.0785 0.242534,0.0785 0.21084,0 0.33762,-0.14883 0.128157,-0.1502 0.128157,-0.39825 v -0.0565 z m 0.50574,-0.10473 v 0.88057 h -0.253559 v -0.23427 q -0.08682,0.14056 -0.216352,0.20808 -0.129535,0.0661 -0.316948,0.0661 -0.237023,0 -0.377583,-0.13229 -0.139181,-0.13367 -0.139181,-0.35691 0,-0.26045 0.173632,-0.39274 0.175011,-0.1323 0.520898,-0.1323 h 0.355534 v -0.0248 q 0,-0.17501 -0.115755,-0.2701 -0.114377,-0.0965 -0.322461,-0.0965 -0.132291,0 -0.257693,0.0317 -0.125401,0.0317 -0.241156,0.0951 v -0.23426 q 0.139182,-0.0537 0.270095,-0.0799 0.130914,-0.0276 0.254937,-0.0276 0.334863,0 0.500227,0.17363 0.165365,0.17363 0.165365,0.52641 z"
         style="font-size:2.82222px;fill:#e3dedb;stroke-width:0.264583"
         id="path261" />
      <path
         d="m 24.796266,121.37689 q 0,-0.27974 -0.115755,-0.43821 -0.114377,-0.15985 -0.315571,-0.15985 -0.201193,0 -0.316948,0.15985 -0.114377,0.15847 -0.114377,0.43821 0,0.27975 0.114377,0.4396 0.115755,0.15847 0.316948,0.15847 0.201194,0 0.315571,-0.15847 0.115755,-0.15985 0.115755,-0.4396 z m -0.862651,-0.53881 q 0.07993,-0.1378 0.201193,-0.20395 0.122646,-0.0675 0.292144,-0.0675 0.28112,0 0.45613,0.22324 0.176389,0.22324 0.176389,0.58704 0,0.36381 -0.176389,0.58705 -0.17501,0.22324 -0.45613,0.22324 -0.169498,0 -0.292144,-0.0661 -0.121267,-0.0675 -0.201193,-0.20532 v 0.23151 h -0.254937 v -2.14423 h 0.254937 z"
         style="font-size:2.82222px;fill:#e3dedb;stroke-width:0.264583"
         id="path263" />
      <path
         d="m 26.463691,120.64929 v 0.23978 q -0.107487,-0.0551 -0.223242,-0.0827 -0.115755,-0.0276 -0.239778,-0.0276 -0.188791,0 -0.283876,0.0579 -0.09371,0.0579 -0.09371,0.17364 0,0.0882 0.06752,0.13918 0.06752,0.0496 0.271474,0.0951 l 0.08682,0.0193 q 0.270095,0.0579 0.383094,0.16399 0.114378,0.10473 0.114378,0.29352 0,0.21498 -0.170877,0.34038 -0.169499,0.1254 -0.467155,0.1254 -0.124023,0 -0.259071,-0.0248 -0.133669,-0.0234 -0.282497,-0.0717 v -0.26183 q 0.14056,0.073 0.276985,0.11024 0.136426,0.0358 0.270096,0.0358 0.179144,0 0.275607,-0.0606 0.09646,-0.062 0.09646,-0.17363 0,-0.10336 -0.07028,-0.15848 -0.0689,-0.0551 -0.304547,-0.10611 l -0.08819,-0.0207 q -0.235644,-0.0496 -0.340375,-0.15158 -0.104731,-0.10335 -0.104731,-0.2825 0,-0.21773 0.15434,-0.33624 0.15434,-0.11851 0.438216,-0.11851 0.14056,0 0.264583,0.0207 0.124024,0.0207 0.228754,0.062 z"
         style="font-size:2.82222px;fill:#e3dedb;stroke-width:0.264583"
         id="path265" />
    </g>
  </g>
</svg>
