<?xml version="1.0" encoding="UTF-8" standalone="no"?>
<svg
   width="20mm"
   height="128.5mm"
   viewBox="0 0 20.000002 128.50002"
   version="1.1"
   id="svg8"
   inkscape:version="1.1 (c4e8f9ed74, 2021-05-24)"
   sodipodi:docname="Modulo.svg"
   xmlns:inkscape="http://www.inkscape.org/namespaces/inkscape"
   xmlns:sodipodi="http://sodipodi.sourceforge.net/DTD/sodipodi-0.dtd"
   xmlns:xlink="http://www.w3.org/1999/xlink"
   xmlns="http://www.w3.org/2000/svg"
   xmlns:svg="http://www.w3.org/2000/svg"
   xmlns:rdf="http://www.w3.org/1999/02/22-rdf-syntax-ns#"
   xmlns:cc="http://creativecommons.org/ns#"
   xmlns:dc="http://purl.org/dc/elements/1.1/">
  <defs
     id="defs2">
    <linearGradient
       inkscape:collect="always"
       id="linearGradient2078">
      <stop
         style="stop-color:#000000;stop-opacity:1;"
         offset="0"
         id="stop2074" />
      <stop
         style="stop-color:#1a1a1a;stop-opacity:1"
         offset="1"
         id="stop2076" />
    </linearGradient>
    <filter
       x="-0.30000001"
       width="1.6"
       y="-0.30000001"
       height="1.6"
       style="color-interpolation-filters:sRGB"
       inkscape:label="Felt Feather"
       id="filter3728">
      <feGaussianBlur
         stdDeviation="15 15"
         result="blur"
         id="feGaussianBlur3712" />
      <feComposite
         in="SourceGraphic"
         in2="blur"
         operator="atop"
         result="composite1"
         id="feComposite3714" />
      <feComposite
         in2="composite1"
         operator="in"
         result="composite2"
         id="feComposite3716" />
      <feComposite
         in2="composite2"
         operator="in"
         result="composite3"
         id="feComposite3718" />
      <feTurbulence
         type="fractalNoise"
         numOctaves="3"
         seed="1"
         baseFrequency="0.05 0.05"
         result="turbulence"
         id="feTurbulence3720" />
      <feDisplacementMap
         in="composite3"
         in2="turbulence"
         xChannelSelector="R"
         scale="30"
         yChannelSelector="G"
         result="map"
         id="feDisplacementMap3722" />
      <feColorMatrix
         values="1 0 0 0 0 0 1 0 0 0 0 0 1 0 0 0 0 0 1 -0 "
         result="colormatrix"
         id="feColorMatrix3724" />
      <feComposite
         in="composite3"
         in2="colormatrix"
         operator="atop"
         result="composite4"
         id="feComposite3726" />
    </filter>
    <filter
       inkscape:collect="always"
       style="color-interpolation-filters:sRGB"
       id="filter1927"
       x="-0.0010343177"
       width="1.0020686"
       y="-0.0003863599"
       height="1.0007727">
      <feGaussianBlur
         inkscape:collect="always"
         stdDeviation="0.020686142"
         id="feGaussianBlur1929" />
    </filter>
    <linearGradient
       inkscape:collect="always"
       xlink:href="#linearGradient2078"
       id="linearGradient2080"
       x1="7.3314171"
       y1="128.48169"
       x2="10.758283"
       y2="18.124126"
       gradientUnits="userSpaceOnUse"
       gradientTransform="matrix(1.057419,0,0,1.0085236,-0.5741901,-0.54755657)" />
  </defs>
  <sodipodi:namedview
     id="base"
     pagecolor="#ffffff"
     bordercolor="#666666"
     borderopacity="1.0"
     inkscape:pageopacity="0.0"
     inkscape:pageshadow="2"
     inkscape:zoom="2.0000001"
     inkscape:cx="65.749998"
     inkscape:cy="153.75"
     inkscape:document-units="mm"
     inkscape:current-layer="layer4"
     showgrid="false"
     units="mm"
     inkscape:snap-bbox="true"
     inkscape:snap-page="true"
     inkscape:bbox-nodes="false"
     inkscape:snap-bbox-edge-midpoints="false"
     inkscape:window-width="1366"
     inkscape:window-height="768"
     inkscape:window-x="0"
     inkscape:window-y="0"
     inkscape:window-maximized="0"
     inkscape:snap-bbox-midpoints="true"
     inkscape:snap-nodes="false"
     inkscape:document-rotation="0"
     fit-margin-top="0"
     fit-margin-left="0"
     fit-margin-right="0"
     fit-margin-bottom="0"
     showguides="true"
     inkscape:pagecheckerboard="0"
     width="20mm" />
  <metadata
     id="metadata5">
    <rdf:RDF>
      <cc:Work
         rdf:about="">
        <dc:format>image/svg+xml</dc:format>
        <dc:type
           rdf:resource="http://purl.org/dc/dcmitype/StillImage" />
      </cc:Work>
    </rdf:RDF>
  </metadata>
  <g
     inkscape:groupmode="layer"
     id="layer4"
     inkscape:label="back 1"
     transform="translate(0,0.00971522)">
    <rect
       style="fill:url(#linearGradient2080);fill-opacity:1;stroke:none;stroke-width:1.12151;stroke-opacity:0"
       id="rect1094"
       width="20"
       height="128.5"
       x="0"
       y="-0.00971522" />
    <path
       style="fill:#ffffff;stroke-width:0.0163008"
       d="m 8.9669536,117.83049 v -1.91272 h 1.6649434 1.664944 v 1.91272 1.91271 H 10.631897 8.9669536 Z m 2.9077054,1.5963 c 0.14676,-0.0293 0.157014,-0.0337 0.14595,-0.0639 -0.03318,-0.0903 -0.04322,-0.10286 -0.07383,-0.0928 -0.09222,0.0304 -0.278045,0.0552 -0.347479,0.0464 -0.207541,-0.0263 -0.378952,-0.29526 -0.51426,-0.80678 -0.04853,-0.18342 -0.08791,-0.51965 -0.06986,-0.59615 0.01215,-0.0516 7.37e-4,-0.0632 -0.13113,-0.13408 l -0.09324,-0.0503 0.113775,-0.10206 c 0.12051,-0.10811 0.23934,-0.26381 0.284547,-0.37263 0.01549,-0.0373 0.02727,-0.11569 0.02727,-0.18139 0,-0.15121 -0.05706,-0.25068 -0.23892,-0.41648 -0.07317,-0.0667 -0.133035,-0.1344 -0.133035,-0.15024 0,-0.028 -0.02469,-0.0293 -0.772529,-0.0397 -0.4248897,-0.007 -0.7745247,-0.008 -0.7769637,-0.007 -0.0024,0.003 -0.0087,0.0737 -0.01395,0.15824 l -0.0096,0.15377 h 0.142545 0.142545 l -0.01155,0.68632 c -0.0063,0.37746 -0.0165,0.85568 -0.022605,1.06274 l -0.0111,0.37645 0.11157,0.009 c 0.061365,0.007 0.113475,0.008 0.115785,0.007 0.00225,-0.003 0.01005,-0.26957 0.017265,-0.59442 l 0.01305,-0.59061 0.3119187,0.007 c 0.352886,0.008 0.455651,0.0285 0.657308,0.12832 l 0.115125,0.0572 0.0111,0.20177 c 0.02583,0.46676 0.236714,1.02821 0.455981,1.21391 0.143205,0.12128 0.280938,0.14336 0.554217,0.0892 z m -1.419883,-1.80111 c -0.0341,-0.008 -0.204651,-0.0181 -0.379013,-0.0231 l -0.3170187,-0.009 0.01155,-0.2028 c 0.0063,-0.11155 0.01155,-0.29613 0.01155,-0.41017 v -0.20731 l 0.5092247,0.009 0.509224,0.009 0.0503,0.0393 c 0.08858,0.0692 0.14328,0.16454 0.14328,0.24945 0,0.13904 -0.166183,0.36746 -0.358645,0.49289 -0.05872,0.0383 -0.109365,0.0688 -0.112545,0.068 -0.0031,-8e-4 -0.03368,-0.008 -0.06777,-0.016 z m 2.562229,1.75749 c -0.01527,-0.0219 -0.04784,-0.0984 -0.07236,-0.17014 -0.042,-0.12272 -0.04566,-0.16231 -0.06303,-0.68142 -0.02538,-0.75823 -0.06477,-1.18976 -0.178194,-1.95255 -0.02874,-0.19324 -0.04863,-0.35438 -0.04424,-0.35813 0.0117,-0.009 0.224273,-0.06 0.408128,-0.096 0.12567,-0.0248 0.213205,-0.0309 0.413538,-0.0296 0.259216,10e-4 0.339873,-0.0114 0.411141,-0.0659 0.02325,-0.0179 0.136095,-0.0251 0.574812,-0.0369 0.300236,-0.008 0.548222,-0.0128 0.551078,-0.0114 0.0088,0.007 0.10932,0.50245 0.146745,0.7232 0.11334,0.66824 0.14679,1.30286 0.11394,2.16161 l -0.01155,0.30141 -0.249678,0.0263 c -0.34484,0.0361 -0.489425,0.0625 -0.674408,0.12304 l -0.159046,0.0519 -0.09534,-0.0396 c -0.183993,-0.0763 -0.516337,-0.0596 -0.873124,0.0433 l -0.170683,0.0495 z m 1.256162,-0.4088 c -0.0053,-0.0763 -0.01395,-0.21639 -0.01937,-0.3113 -0.0054,-0.0948 -0.02933,-0.30416 -0.05317,-0.46504 -0.08977,-0.60544 -0.10074,-0.78687 -0.04823,-0.7985 0.01716,-0.003 0.172943,-0.0265 0.34619,-0.0504 0.293781,-0.0407 0.314424,-0.0456 0.306526,-0.0736 -0.0046,-0.0165 -0.01846,-0.0863 -0.03068,-0.15506 l -0.0222,-0.12512 -0.08084,0.009 c -0.04446,0.005 -0.23626,0.0337 -0.426223,0.0629 -0.393378,0.0601 -0.65447,0.0757 -0.867766,0.0516 -0.08124,-0.009 -0.150835,-0.0144 -0.154668,-0.0114 -0.0074,0.007 -0.05796,0.29937 -0.05241,0.30368 0.01395,0.0114 0.355265,0.0355 0.491667,0.0355 l 0.169592,5e-5 0.0212,0.24006 c 0.0117,0.132 0.04087,0.36661 0.06492,0.5213 0.03607,0.23203 0.0777,0.68571 0.07916,0.86258 l 3.35e-4,0.0413 h 0.14277 0.14277 z m -8.1998004,0.0431 c -0.259365,-1.43491 -0.3118403,-1.87304 -0.3121388,-2.60609 l -1.755e-4,-0.42901 0.2169728,-0.0399 c 0.448998,-0.0825 0.8226675,-0.12432 1.4302583,-0.15968 0.2922045,-0.0169 0.83976,-0.0425 0.843669,-0.0393 0.00127,8e-4 -0.00585,0.14033 -0.015765,0.30946 -0.028695,0.48741 0.00225,0.84408 0.1628607,1.87356 0.06342,0.40661 0.086743,0.58348 0.11619,0.88081 l 0.0105,0.10652 -0.3417756,0.0467 c -0.357606,0.0489 -0.597732,0.0725 -1.2450968,0.12304 -0.377385,0.0293 -0.66819,0.0623 -0.780792,0.0884 l -0.0546,0.0128 z m 1.2755633,-0.24624 c 0.026415,-0.21222 0.029685,-0.65019 0.0063,-0.83573 -0.00945,-0.0743 -0.022455,-0.26835 -0.029055,-0.4313 l -0.012,-0.29629 h 0.1788345 0.1788345 l 0.01155,0.0649 c 0.01806,0.10194 0.021135,0.10354 0.156777,0.0793 0.065595,-0.0114 0.12417,-0.0252 0.130155,-0.0304 0.006,-0.005 -0.00735,-0.0817 -0.029565,-0.17041 -0.022245,-0.0887 -0.04464,-0.22029 -0.049755,-0.29248 l -0.0093,-0.13121 h -0.13926 -0.139245 v 0.0525 0.0525 H 6.9389941 6.2747881 v 0.18753 0.18751 h 0.336531 0.336531 l 4.695e-4,0.13873 c 4.26e-4,0.1296 0.0117,0.30482 0.05061,0.78382 0.01035,0.12688 0.00915,0.27102 -0.00345,0.41257 -0.0105,0.11968 -0.019635,0.25464 -0.02016,0.30002 l -9.75e-4,0.0825 0.1682663,0.016 c 0.09255,0.008 0.171909,0.0128 0.1763625,0.0114 0.0045,-0.001 0.01794,-0.084 0.02997,-0.18055 z m -2.4206088,0.23209 c -0.102435,-0.0349 -0.230811,-0.0847 -0.2852895,-0.11075 l -0.099045,-0.0473 -0.1176585,0.0361 -0.11766,0.0361 -0.133245,-0.0667 -0.133245,-0.0667 -0.265662,0.0205 -0.2656621,0.0204 -0.08376,-0.0736 -0.08376,-0.0736 -0.2214007,0.0199 c -0.12177,0.0114 -0.224334,0.0179 -0.2279175,0.016 -0.0036,-0.003 0.067965,-0.62554 0.159006,-1.38507 l 0.1655227,-1.38095 0.1686675,0.008 c 0.4267261,0.0207 0.6970711,0.0456 1.3698459,0.12689 0.397623,0.0479 0.7276666,0.0912 0.7334311,0.096 0.0057,0.005 -0.05016,0.47981 -0.12429,1.05537 -0.074115,0.57558 -0.1514641,1.19164 -0.1718731,1.36904 -0.04725,0.41072 -0.05532,0.46521 -0.068775,0.46432 -0.006,-3.6e-4 -0.094815,-0.0293 -0.1972395,-0.0641 z m -0.186351,-0.62473 0.1224,-0.10446 -0.034155,-0.0344 c -0.018795,-0.0189 -0.06798,-0.0659 -0.109305,-0.10469 -0.084795,-0.0793 -0.118455,-0.13536 -0.209904,-0.34967 -0.03522,-0.0825 -0.07947,-0.17271 -0.098325,-0.20042 -0.02091,-0.0307 -0.028275,-0.0571 -0.01887,-0.0675 0.00855,-0.009 0.1308285,-0.13857 0.2718862,-0.28713 0.1410601,-0.1485 0.2620081,-0.27797 0.2687671,-0.28769 0.01215,-0.0175 -0.2326936,-0.19987 -0.2682931,-0.19987 -0.00945,0 -0.111255,0.0993 -0.2261872,0.22071 l -0.2089575,0.22071 -0.04092,-0.0744 c -0.04116,-0.0749 -0.04563,-0.16015 -0.01395,-0.26572 0.00945,-0.0313 0.006,-0.0413 -0.01425,-0.0413 -0.08277,0 -0.2640975,-0.0669 -0.384597,-0.14177 -0.073065,-0.0455 -0.1448101,-0.0827 -0.1594501,-0.0829 -0.025185,-3.6e-4 -0.195645,0.2175 -0.1940385,0.24791 7.5e-4,0.0144 0.2151255,0.1461 0.3106726,0.18989 0.04449,0.0203 0.05757,0.0377 0.06525,0.0863 0.00975,0.0615 0.087165,0.21068 0.1521075,0.29327 l 0.035385,0.0449 -0.3352231,0.35067 c -0.1843725,0.19285 -0.335223,0.35275 -0.335223,0.35531 0,0.0114 0.264444,0.18662 0.2806965,0.18662 0.00975,0 0.1307701,-0.11857 0.2688391,-0.26353 0.138075,-0.14497 0.2537025,-0.26128 0.256956,-0.25852 0.0033,0.003 0.03441,0.0717 0.06924,0.15312 0.03483,0.0815 0.08844,0.18534 0.11913,0.23076 0.05139,0.0762 0.2694727,0.28813 0.2963212,0.28813 0.00645,0 0.06669,-0.0471 0.1340251,-0.10446 z m 10.9378959,-0.78055 v -1.42517 h 1.10701 1.107009 v 1.42517 1.42517 h -1.107009 -1.10701 z m 1.886779,1.13879 c 0.117135,-0.0627 0.126645,-0.072 0.09875,-0.0969 -0.0095,-0.008 -0.0098,-0.1344 -9e-4,-0.30679 0.0083,-0.1609 0.01548,-0.58449 0.01595,-0.94136 l 9e-4,-0.64881 H 17.5511 17.420855 l -0.0114,0.11472 c -0.0063,0.0632 -0.0114,0.38717 -0.0114,0.7201 0,0.33686 -0.0069,0.60531 -0.01554,0.60531 -0.0085,0 -0.03187,-0.0321 -0.05185,-0.0715 -0.188826,-0.37178 -0.451156,-0.80509 -0.619702,-1.02363 -0.05409,-0.0701 -0.09748,-0.1392 -0.09643,-0.15344 0.0011,-0.0144 -0.02348,-0.0408 -0.05453,-0.0592 -0.03103,-0.0183 -0.10632,-0.0721 -0.167309,-0.12 -0.119055,-0.0932 -0.200187,-0.12144 -0.398349,-0.13888 l -0.10185,-0.009 v 0.11075 c 0,0.0609 -0.0048,0.1312 -0.01065,0.156 -0.01065,0.0449 -0.01005,0.0453 0.08413,0.0552 0.05215,0.007 0.111675,0.0169 0.13227,0.0256 0.0366,0.016 0.03684,0.0177 0.01035,0.10675 -0.02223,0.0747 -0.02338,0.10628 -0.0064,0.17573 0.01395,0.0573 0.02064,0.30848 0.02064,0.77757 v 0.69291 h 0.12177 0.12177 l 0.0111,-0.0469 c 0.0061,-0.0257 0.0111,-0.37368 0.0111,-0.77311 0,-0.7131 6.71e-4,-0.72595 0.03421,-0.71071 0.05892,0.0267 0.26375,0.33223 0.452934,0.67561 0.266468,0.48364 0.351293,0.62971 0.455192,0.78384 0.05979,0.0887 0.11154,0.16128 0.114975,0.16128 0.0035,0 0.05788,-0.0276 0.12096,-0.0613 z"
       id="path365-3" />
    <circle
       id="path1588"
       style="fill:#ffffff;stroke:#000000;stroke-width:0.264583"
       cx="2.7394834"
       cy="18.503786"
       r="0.028035238" />
    <circle
       id="path1590"
       style="fill:#ffffff;stroke:#000000;stroke-width:0.264583"
       cx="2.7394834"
       cy="18.503786"
       r="0.028035238" />
    <path
       style="fill:none;stroke:#ffffff;stroke-width:0.306652;stroke-linecap:butt;stroke-linejoin:miter;stroke-miterlimit:4;stroke-dasharray:none;stroke-opacity:1"
       d="M 2,32.143611 H 18"
       id="path1627-6-7" />
    <path
       style="fill:none;stroke:#ffffff;stroke-width:0.306652;stroke-linecap:butt;stroke-linejoin:miter;stroke-miterlimit:4;stroke-dasharray:none;stroke-opacity:1"
       d="M 1.9999999,55.143611 H 18"
       id="path1627-6-7-9" />
    <path
       style="fill:none;stroke:#ffffff;stroke-width:0.306652;stroke-linecap:butt;stroke-linejoin:miter;stroke-miterlimit:4;stroke-dasharray:none;stroke-opacity:1"
       d="M 1.9999994,87.143611 H 18"
       id="path1627-6-7-9-6-7-5" />
    <path
       style="fill:none;stroke:#ffffff;stroke-width:0.306652;stroke-linecap:butt;stroke-linejoin:miter;stroke-miterlimit:4;stroke-dasharray:none;stroke-opacity:1"
       d="M 1.9999996,104.14361 H 18"
       id="path1627-6-7-9-6-7-5-1" />
    <path
       style="fill:none;stroke:#ffffff;stroke-width:0.306652;stroke-linecap:butt;stroke-linejoin:miter;stroke-miterlimit:4;stroke-dasharray:none;stroke-opacity:1"
       d="M 2,15.143611 H 18"
       id="path1627-6-7-5" />
    <g
       aria-label="MODULO"
       id="text15303"
       style="font-weight:600;font-size:3.52777px;line-height:1.25;font-family:'URW Gothic';-inkscape-font-specification:'URW Gothic, Semi-Bold';fill:#ffffff;stroke-width:0.264583"
       transform="matrix(1,0,0,1.1785132,0,-4.9850054)">
      <path
         d="m 2.6138331,13.406849 h 0.4833045 v -1.954385 l 0.6808596,1.954385 h 0.3951103 l 0.6808596,-1.954385 v 1.954385 H 5.3372716 V 10.799827 H 4.6740508 L 3.9790801,12.775378 3.2770539,10.799827 H 2.6138331 Z"
         id="path17450" />
      <path
         d="m 7.0305998,10.753966 c -0.7761094,0 -1.3758303,0.589137 -1.3758303,1.351136 0,0.754943 0.6067764,1.347608 1.3723025,1.347608 0.7584706,0 1.3440804,-0.589138 1.3440804,-1.347608 0,-0.751415 -0.5961931,-1.351136 -1.3405526,-1.351136 z m -0.00706,0.465665 c 0.4833045,0 0.8607759,0.388055 0.8607759,0.888999 0,0.504471 -0.366888,0.878414 -0.8607759,0.878414 -0.4938878,0 -0.8819425,-0.388054 -0.8819425,-0.881942 0,-0.504471 0.3809992,-0.885471 0.8819425,-0.885471 z"
         id="path17452" />
      <path
         d="m 8.7521455,13.406849 h 0.6067764 c 0.3951103,0 0.6314708,-0.03881 0.8431371,-0.144639 0.402166,-0.197555 0.638526,-0.627943 0.638526,-1.15358 0,-0.497416 -0.20461,-0.90311 -0.567971,-1.121831 -0.20461,-0.123472 -0.5150541,-0.186972 -0.9242754,-0.186972 H 8.7521455 Z M 9.23545,12.944711 V 11.261965 H 9.3307 c 0.3104438,0 0.4727212,0.02822 0.6244153,0.105833 0.2469437,0.127 0.3986377,0.405693 0.3986377,0.740832 0,0.313971 -0.144639,0.592665 -0.377471,0.719665 -0.1446386,0.07761 -0.3457215,0.116416 -0.6349986,0.116416 z"
         id="path17454" />
      <path
         d="m 11.22158,10.799827 v 1.650996 c 0,0.278694 0.04233,0.45861 0.141111,0.613832 0.151694,0.239889 0.433916,0.388055 0.737304,0.388055 0.285749,0 0.550332,-0.127 0.705554,-0.335138 0.123472,-0.169333 0.176388,-0.363361 0.176388,-0.666749 v -1.650996 h -0.483304 v 1.650996 c 0,0.194028 -0.01411,0.275166 -0.0635,0.359833 -0.06703,0.109361 -0.190499,0.176388 -0.335138,0.176388 -0.141111,0 -0.264583,-0.06703 -0.33161,-0.176388 -0.04939,-0.08467 -0.0635,-0.165805 -0.0635,-0.359833 v -1.650996 z"
         id="path17456" />
      <path
         d="m 13.479352,13.406849 h 1.28058 v -0.462138 h -0.797276 v -2.144884 h -0.483304 z"
         id="path17458" />
      <path
         d="m 16.185141,10.753966 c -0.77611,0 -1.375831,0.589137 -1.375831,1.351136 0,0.754943 0.606777,1.347608 1.372303,1.347608 0.758471,0 1.34408,-0.589138 1.34408,-1.347608 0,-0.751415 -0.596193,-1.351136 -1.340552,-1.351136 z m -0.0071,0.465665 c 0.483305,0 0.860776,0.388055 0.860776,0.888999 0,0.504471 -0.366888,0.878414 -0.860776,0.878414 -0.493888,0 -0.881942,-0.388054 -0.881942,-0.881942 0,-0.504471 0.380999,-0.885471 0.881942,-0.885471 z"
         id="path17460" />
    </g>
    <g
       aria-label="MOD:"
       id="text19301"
       style="font-weight:600;font-size:3.52777px;line-height:1.25;font-family:'URW Gothic';-inkscape-font-specification:'URW Gothic, Semi-Bold';fill:#ffffff;stroke-width:0.264583"
       transform="translate(-3.214264,17.431376)">
      <g
         aria-label="RANGE:"
         id="text35166"
         style="stroke-width:0.0700042">
        <path
           d="m 6.1772277,20.211792 h 0.4833045 v -0.998359 l 0.6843874,0.998359 h 0.5961931 l -0.705554,-0.963081 c 0.2010829,-0.04939 0.2998604,-0.09525 0.4127491,-0.1905 0.1799162,-0.151694 0.2681105,-0.356305 0.2681105,-0.61736 0,-0.26811 -0.09525,-0.49036 -0.2751661,-0.642054 C 7.4719193,17.654159 7.2849475,17.60477 6.9286427,17.60477 h -0.751415 z m 0.4833045,-1.361719 v -0.783165 h 0.2151939 c 0.2257773,0 0.3492493,0.02469 0.4268602,0.09172 0.084666,0.06703 0.1269997,0.169333 0.1269997,0.296333 0,0.275166 -0.1587496,0.39511 -0.5326932,0.39511 z"
           id="path891" />
        <path
           d="M 8.0857486,20.211792 H 8.6184419 L 8.907719,19.537988 h 0.9278036 l 0.2786934,0.673804 H 10.64691 L 9.553301,17.60477 H 9.1723018 Z m 0.9983589,-1.135942 0.2786939,-0.79022 0.2786938,0.79022 z"
           id="path893" />
        <path
           d="m 10.911492,20.211792 h 0.483304 v -1.894413 l 1.090081,1.894413 h 0.539749 V 17.60477 h -0.483305 v 1.89794 l -1.079497,-1.89794 h -0.550332 z"
           id="path895" />
        <path
           d="m 14.478065,19.333377 h 1.079498 c -0.137583,0.289277 -0.419805,0.45861 -0.765526,0.45861 -0.511527,0 -0.903109,-0.380999 -0.903109,-0.881942 0,-0.225777 0.09525,-0.472721 0.243416,-0.631471 0.151694,-0.162277 0.380999,-0.253999 0.631471,-0.253999 0.303388,0 0.557387,0.123472 0.716137,0.345721 h 0.567971 c -0.169333,-0.469193 -0.705554,-0.811387 -1.273525,-0.811387 -0.765526,0 -1.372303,0.592665 -1.372303,1.34408 0,0.765526 0.61736,1.354664 1.418164,1.354664 0.39511,0 0.730248,-0.137583 0.987776,-0.402166 0.239888,-0.250471 0.373943,-0.575026 0.373943,-0.910164 v -0.0635 h -1.703913 z"
           id="path897" />
        <path
           d="m 16.499471,20.211792 h 1.400525 v -0.462138 h -0.91722 v -0.606776 h 0.878415 V 18.68074 h -0.878415 v -0.613832 h 0.91722 V 17.60477 h -1.400525 z"
           id="path899" />
        <path
           d="m 18.348018,20.211792 h 0.469193 v -0.451555 h -0.469193 z m 0,-1.301747 h 0.469193 v -0.469194 h -0.469193 z"
           id="path901" />
      </g>
    </g>
    <g
       aria-label="OFFSET:"
       id="text23757"
       style="font-weight:600;font-size:3.52777px;line-height:1.25;font-family:'URW Gothic';-inkscape-font-specification:'URW Gothic, Semi-Bold';fill:#ffffff;stroke-width:0.264583"
       transform="translate(0,6.9999988)">
      <path
         d="m 4.5857503,49.990286 c -0.7761094,0 -1.3758303,0.589138 -1.3758303,1.351136 0,0.754943 0.6067764,1.347608 1.3723025,1.347608 0.7584706,0 1.3440804,-0.589137 1.3440804,-1.347608 0,-0.751415 -0.5961931,-1.351136 -1.3405526,-1.351136 z m -0.00706,0.465666 c 0.4833044,0 0.8607758,0.388055 0.8607758,0.888998 0,0.504471 -0.366888,0.878415 -0.8607758,0.878415 -0.4938879,0 -0.8819426,-0.388055 -0.8819426,-0.881943 0,-0.504471 0.3809992,-0.88547 0.8819426,-0.88547 z"
         id="path47658" />
      <path
         d="M 6.307296,52.643169 H 6.7906005 V 51.574255 H 7.594932 V 51.112117 H 6.7906005 v -0.613832 h 0.843137 V 50.036147 H 6.307296 Z"
         id="path47660" />
      <path
         d="M 8.0006239,52.643169 H 8.4839284 V 51.574255 H 9.2882599 V 51.112117 H 8.4839284 v -0.613832 h 0.843137 V 50.036147 H 8.0006239 Z"
         id="path47662" />
      <path
         d="m 9.4752253,51.89881 c 0.017639,0.204611 0.0635,0.335138 0.169333,0.476249 0.1552219,0.197555 0.4092217,0.313971 0.6879147,0.313971 0.469194,0 0.832554,-0.36336 0.832554,-0.836081 0,-0.218722 -0.07761,-0.402166 -0.232833,-0.543277 -0.102305,-0.09525 -0.183444,-0.137583 -0.440971,-0.23636 -0.246944,-0.09172 -0.253999,-0.09525 -0.289277,-0.116417 -0.09525,-0.05997 -0.144639,-0.14111 -0.144639,-0.23636 0,-0.155222 0.109361,-0.264583 0.268111,-0.264583 0.162277,0 0.261055,0.09878 0.275166,0.275166 h 0.500943 c -0.01058,-0.197555 -0.05644,-0.33161 -0.162277,-0.462138 -0.141111,-0.176388 -0.366888,-0.278694 -0.610304,-0.278694 -0.4233327,0 -0.7584709,0.328083 -0.7584709,0.740832 0,0.328083 0.1904996,0.578554 0.5432769,0.709082 0.349249,0.130527 0.373943,0.141111 0.451554,0.201083 0.07761,0.0635 0.119944,0.155222 0.119944,0.264582 0,0.186972 -0.144638,0.3175 -0.352777,0.3175 -0.215194,0 -0.33161,-0.105833 -0.3527765,-0.324555 z"
         id="path47664" />
      <path
         d="m 11.50016,52.643169 h 1.400525 v -0.462137 h -0.91722 v -0.606777 h 0.878415 v -0.462138 h -0.878415 v -0.613832 h 0.91722 V 50.036147 H 11.50016 Z"
         id="path47666" />
      <path
         d="m 13.613284,52.643169 h 0.483304 v -2.144884 h 0.483305 v -0.462138 h -1.449914 v 0.462138 h 0.483305 z"
         id="path47668" />
      <path
         d="m 14.886798,52.643169 h 0.469193 v -0.451554 h -0.469193 z m 0,-1.301747 h 0.469193 v -0.469193 h -0.469193 z"
         id="path47670" />
    </g>
    <g
       aria-label="OUT:"
       id="text30978-3-3"
       style="font-weight:600;font-size:3.52777px;line-height:1.25;font-family:'URW Gothic';-inkscape-font-specification:'URW Gothic, Semi-Bold';fill:#ffffff;stroke-width:0.264583"
       transform="translate(-1.413189,-5.9999982)">
      <path
         d="m 7.7890193,94.990283 c -0.7761094,0 -1.3758303,0.589137 -1.3758303,1.351135 0,0.754943 0.6067764,1.347609 1.3723025,1.347609 0.7584706,0 1.3440804,-0.589138 1.3440804,-1.347609 0,-0.751415 -0.5961931,-1.351135 -1.3405526,-1.351135 z m -0.00706,0.465665 c 0.4833045,0 0.8607758,0.388055 0.8607758,0.888998 0,0.504471 -0.366888,0.878415 -0.8607758,0.878415 -0.4938878,0 -0.8819426,-0.388055 -0.8819426,-0.881943 0,-0.504471 0.3809992,-0.88547 0.8819426,-0.88547 z"
         id="path47724-5" />
      <path
         d="m 9.510565,95.036144 v 1.650996 c 0,0.278694 0.042333,0.45861 0.1411108,0.613832 0.1516941,0.239888 0.4339152,0.388055 0.7373042,0.388055 0.285749,0 0.550332,-0.127 0.705554,-0.335139 0.123472,-0.169333 0.176388,-0.36336 0.176388,-0.666748 v -1.650996 h -0.483304 v 1.650996 c 0,0.194027 -0.01411,0.275166 -0.0635,0.359832 -0.06703,0.109361 -0.1905,0.176389 -0.335138,0.176389 -0.141111,0 -0.264583,-0.06703 -0.331611,-0.176389 C 10.007979,96.962302 9.99387,96.881167 9.99387,96.68714 v -1.650996 z"
         id="path47726-6" />
      <path
         d="m 12.018804,97.643166 h 0.483304 v -2.144885 h 0.483305 v -0.462137 h -1.449914 v 0.462137 h 0.483305 z"
         id="path47728-2" />
      <path
         d="m 13.292317,97.643166 h 0.469194 v -0.451555 h -0.469194 z m 0,-1.301748 h 0.469194 v -0.469193 h -0.469194 z"
         id="path47730-9" />
    </g>
    <g
       aria-label="IN:"
       id="text3456"
       style="font-weight:600;font-size:3.52777px;line-height:1.25;font-family:'URW Gothic';-inkscape-font-specification:'URW Gothic, Semi-Bold';fill:#ffffff;stroke-width:0.264583"
       transform="translate(-1.7129828,1.9999998)">
      <path
         d="M 6.7129828,17.597307 H 7.1962873 V 14.990285 H 6.7129828 Z"
         id="path12732" />
      <path
         d="m 7.7007542,17.597307 h 0.4833045 v -1.894412 l 1.0900809,1.894412 H 9.8138884 V 14.990285 H 9.3305839 v 1.89794 L 8.2510863,14.990285 H 7.7007542 Z"
         id="path12734" />
      <path
         d="m 10.325414,17.597307 h 0.469194 v -0.451554 h -0.469194 z m 0,-1.301747 h 0.469194 v -0.469193 h -0.469194 z"
         id="path12736" />
    </g>
  </g>
  <g
     inkscape:groupmode="layer"
     id="layer3"
     inkscape:label="back"
     style="filter:url(#filter1927)"
     transform="translate(0,0.00971522)" />
  <g
     inkscape:groupmode="layer"
     id="layer5"
     inkscape:label="Layer 2">
    <path
       style="fill:#ffffff;stroke-width:0.0210438"
       d="m 28.494221,125.62625 v -2.3908 h 2.219925 2.219925 v 2.3908 2.3908 h -2.219925 -2.219925 z m 3.87694,1.9953 c 0.19568,-0.0365 0.209352,-0.0421 0.1946,-0.0797 -0.04424,-0.11286 -0.05762,-0.12861 -0.09844,-0.11597 -0.12296,0.038 -0.370726,0.0691 -0.463304,0.0581 -0.276722,-0.0329 -0.50527,-0.36907 -0.68568,-1.00843 -0.0647,-0.22926 -0.117219,-0.64955 -0.09314,-0.74517 0.0162,-0.0643 9.82e-4,-0.0789 -0.17484,-0.16757 l -0.12432,-0.0627 0.1517,-0.12768 c 0.16068,-0.13524 0.319119,-0.32976 0.379395,-0.46578 0.02066,-0.0466 0.03636,-0.1445 0.03636,-0.22671 0,-0.18902 -0.07608,-0.31334 -0.318559,-0.52059 -0.09756,-0.0834 -0.17738,-0.16793 -0.17738,-0.1879 0,-0.0351 -0.03292,-0.0367 -1.03004,-0.0496 -0.566519,-0.007 -1.032699,-0.0108 -1.035951,-0.008 -0.0032,0.003 -0.0116,0.0921 -0.0186,0.19785 l -0.0128,0.1922 h 0.19006 0.19006 l -0.0154,0.85788 c -0.0084,0.47179 -0.022,1.06957 -0.03014,1.32837 l -0.0148,0.47054 0.14876,0.0123 c 0.08182,0.007 0.1513,0.0102 0.15438,0.008 0.003,-0.003 0.0134,-0.33694 0.02302,-0.74298 l 0.0174,-0.73826 0.415892,0.009 c 0.470514,0.0104 0.607534,0.0355 0.87641,0.16033 l 0.1535,0.0713 0.0148,0.2522 c 0.03444,0.58343 0.315619,1.28521 0.607975,1.51734 0.19094,0.1516 0.374584,0.17927 0.738956,0.11135 z m -1.893177,-2.25129 c -0.04546,-0.01 -0.272868,-0.0227 -0.50535,-0.0288 l -0.422692,-0.0111 0.0154,-0.25351 c 0.0084,-0.13943 0.0154,-0.37013 0.0154,-0.51267 v -0.25915 l 0.678966,0.0114 0.678966,0.0114 0.06706,0.0492 c 0.1181,0.0866 0.19104,0.20567 0.19104,0.3118 0,0.17383 -0.221578,0.45931 -0.478194,0.61609 -0.0783,0.0478 -0.14582,0.0861 -0.15006,0.0851 -0.0042,-0.001 -0.0449,-0.01 -0.09036,-0.0197 z m 3.416306,2.19677 c -0.02036,-0.0274 -0.06378,-0.12306 -0.09648,-0.21266 -0.056,-0.15344 -0.06088,-0.20288 -0.08404,-0.85175 -0.03384,-0.94774 -0.08636,-1.48714 -0.237592,-2.4406 -0.03832,-0.24153 -0.06484,-0.44296 -0.05898,-0.44763 0.0156,-0.0124 0.29903,-0.0749 0.54417,-0.12006 0.16756,-0.0309 0.284274,-0.0387 0.551384,-0.037 0.345621,0.002 0.453165,-0.014 0.548189,-0.0823 0.031,-0.0223 0.18146,-0.0313 0.766416,-0.0462 0.400314,-0.0102 0.730961,-0.016 0.734769,-0.013 0.0118,0.009 0.14576,0.62803 0.19566,0.90396 0.15112,0.83527 0.19572,1.62851 0.15192,2.70191 l -0.0154,0.37674 -0.332904,0.0328 c -0.459785,0.0453 -0.652565,0.0783 -0.899209,0.15384 l -0.212062,0.0649 -0.12712,-0.0494 c -0.245324,-0.0954 -0.688449,-0.0747 -1.164165,0.0543 l -0.227578,0.0617 z m 1.674883,-0.51098 c -0.007,-0.0954 -0.0186,-0.27049 -0.02582,-0.3891 -0.0072,-0.1186 -0.0391,-0.38018 -0.0709,-0.58129 -0.1197,-0.75677 -0.13432,-0.98355 -0.0643,-0.99809 0.02288,-0.005 0.23059,-0.0332 0.461586,-0.0631 0.391708,-0.0508 0.419232,-0.057 0.408702,-0.092 -0.0062,-0.0206 -0.02462,-0.10784 -0.0409,-0.1938 l -0.0296,-0.15631 -0.10778,0.0126 c -0.05928,0.007 -0.315014,0.0423 -0.568298,0.0787 -0.524504,0.0753 -0.872627,0.0946 -1.157021,0.0643 -0.10832,-0.0116 -0.201114,-0.0177 -0.206224,-0.0136 -0.0098,0.008 -0.07728,0.37419 -0.06988,0.37958 0.0186,0.0135 0.473686,0.0443 0.655556,0.0443 l 0.226123,6e-5 0.02826,0.30005 c 0.0156,0.16503 0.0545,0.45826 0.08656,0.65161 0.0481,0.29003 0.1036,0.8571 0.10554,1.07818 l 4.46e-4,0.0516 h 0.19036 0.19036 z m -10.933068,0.0539 c -0.34582,-1.79358 -0.415787,-2.34122 -0.416185,-3.25749 l -2.34e-4,-0.53624 0.289297,-0.0499 c 0.598664,-0.10319 1.09689,-0.15536 1.907011,-0.19966 0.389606,-0.0213 1.11968,-0.0533 1.124892,-0.0493 0.0017,0.001 -0.0078,0.17539 -0.02102,0.38681 -0.03826,0.60923 0.003,1.05506 0.217148,2.34186 0.08456,0.50826 0.115659,0.72934 0.154919,1.10097 l 0.014,0.13321 -0.455701,0.0584 c -0.476808,0.0611 -0.796976,0.0907 -1.660129,0.15375 -0.50318,0.0367 -0.89092,0.0778 -1.041056,0.11036 l -0.0728,0.0158 z m 1.700751,-0.30778 c 0.03522,-0.26526 0.03958,-0.8127 0.0084,-1.04463 -0.0126,-0.0928 -0.02994,-0.33542 -0.03874,-0.53911 l -0.016,-0.37034 h 0.238446 0.238446 l 0.0154,0.0813 c 0.02408,0.1275 0.02818,0.12944 0.209036,0.0993 0.08746,-0.0145 0.16556,-0.0316 0.17354,-0.038 0.008,-0.006 -0.0098,-0.10219 -0.03942,-0.21302 -0.02966,-0.11082 -0.05952,-0.27533 -0.06634,-0.36558 l -0.0124,-0.16407 h -0.18568 -0.18566 v 0.0656 0.0656 h -0.885609 -0.885608 v 0.23439 0.23439 h 0.448708 0.448708 l 6.26e-4,0.17345 c 5.68e-4,0.16195 0.0156,0.38103 0.06748,0.97976 0.0138,0.15862 0.0122,0.33875 -0.0046,0.51567 -0.014,0.14954 -0.02618,0.3183 -0.02688,0.37503 l -0.0013,0.10313 0.224355,0.0194 c 0.1234,0.0107 0.229212,0.0167 0.23515,0.0133 0.006,-0.003 0.02392,-0.10491 0.03996,-0.22568 z m -3.227478,0.2901 c -0.13658,-0.0436 -0.307748,-0.10583 -0.380386,-0.13838 l -0.13206,-0.0592 -0.156879,0.0452 -0.15688,0.0452 -0.17766,-0.0834 -0.17766,-0.0834 -0.354216,0.0256 -0.354216,0.0256 -0.11168,-0.0919 -0.11168,-0.0919 -0.295201,0.0248 c -0.16236,0.0136 -0.299112,0.0225 -0.30389,0.0196 -0.0048,-0.003 0.09062,-0.78191 0.212008,-1.73128 l 0.220697,-1.72612 0.22489,0.0102 c 0.568968,0.0258 0.929428,0.0571 1.826461,0.1585 0.530164,0.0599 0.970222,0.11396 0.977908,0.12006 0.0076,0.006 -0.06688,0.59973 -0.16572,1.31917 -0.09882,0.71943 -0.201952,1.48949 -0.229164,1.71122 -0.063,0.51338 -0.07376,0.5815 -0.0917,0.58039 -0.008,-4.6e-4 -0.12642,-0.0365 -0.262986,-0.0801 z m -0.248468,-0.78089 0.1632,-0.13059 -0.04554,-0.0429 c -0.02506,-0.0236 -0.09064,-0.0824 -0.14574,-0.1308 -0.11306,-0.0992 -0.15794,-0.16931 -0.279872,-0.4371 -0.04696,-0.10313 -0.105959,-0.21587 -0.131099,-0.25052 -0.02788,-0.0384 -0.0377,-0.0713 -0.02516,-0.0844 0.0114,-0.0118 0.174439,-0.17326 0.362515,-0.3589 0.18808,-0.18564 0.349344,-0.34744 0.358356,-0.35957 0.0162,-0.0218 -0.310258,-0.24985 -0.357724,-0.24985 -0.0126,0 -0.14834,0.12415 -0.301583,0.27588 l -0.27861,0.27589 -0.05456,-0.0931 c -0.05488,-0.0936 -0.06084,-0.20019 -0.0186,-0.33214 0.0126,-0.0392 0.008,-0.0516 -0.019,-0.0516 -0.11036,0 -0.35213,-0.0836 -0.512796,-0.17723 -0.09742,-0.0568 -0.19308,-0.10344 -0.2126,-0.10366 -0.03358,-4.6e-4 -0.26086,0.27187 -0.258718,0.30989 0.001,0.0188 0.286834,0.18249 0.41423,0.23733 0.05932,0.0255 0.07676,0.0471 0.087,0.10777 0.013,0.0767 0.11622,0.26334 0.20281,0.36658 l 0.04718,0.0562 -0.446964,0.43831 c -0.24583,0.24107 -0.446964,0.44093 -0.446964,0.44414 0,0.0135 0.352592,0.23326 0.374262,0.23326 0.013,0 0.17436,-0.14823 0.358452,-0.3294 0.1841,-0.18118 0.33827,-0.32659 0.342608,-0.32315 0.0044,0.003 0.04588,0.0896 0.09232,0.19147 0.04644,0.10186 0.11792,0.23167 0.15884,0.28845 0.06852,0.0951 0.359297,0.36015 0.395095,0.36015 0.0086,0 0.08892,-0.0588 0.1787,-0.13059 z m 14.58386,-0.97575 v -1.78138 h 1.476015 1.476011 v 1.78138 1.78139 H 38.920785 37.44477 Z m 2.515707,1.42343 c 0.156179,-0.0783 0.168859,-0.09 0.131659,-0.12114 -0.0126,-0.0105 -0.013,-0.16803 -0.0012,-0.38347 0.011,-0.20111 0.02064,-0.7306 0.02126,-1.17665 l 0.0012,-0.811 h -0.173659 -0.17366 l -0.0152,0.14346 c -0.0084,0.0789 -0.0152,0.48394 -0.0152,0.90007 0,0.42107 -0.0092,0.75661 -0.02072,0.75661 -0.0114,0 -0.0425,-0.0402 -0.06914,-0.0894 -0.251768,-0.4647 -0.601542,-1.00632 -0.82627,-1.27948 -0.07212,-0.0877 -0.12998,-0.17397 -0.12858,-0.19178 0.0015,-0.0178 -0.0313,-0.0511 -0.0727,-0.0739 -0.04138,-0.0228 -0.14176,-0.0903 -0.223078,-0.14997 -0.158739,-0.11648 -0.266917,-0.15184 -0.531133,-0.17358 l -0.1358,-0.0112 v 0.13846 c 0,0.0761 -0.0064,0.16391 -0.0142,0.19502 -0.0142,0.0562 -0.0134,0.0566 0.11218,0.069 0.06954,0.007 0.1489,0.0212 0.17636,0.032 0.0488,0.0191 0.04912,0.0221 0.0138,0.13336 -0.02964,0.0934 -0.03118,0.13283 -0.0086,0.21966 0.0186,0.0716 0.02752,0.38559 0.02752,0.97192 v 0.86612 h 0.16236 0.162359 l 0.0148,-0.0586 c 0.0082,-0.0322 0.0148,-0.46709 0.0148,-0.96636 0,-0.89133 8.94e-4,-0.9074 0.04562,-0.88836 0.07856,0.0334 0.351666,0.41529 0.603912,0.84449 0.35529,0.60453 0.46839,0.78711 0.606922,0.97976 0.07972,0.11087 0.14872,0.20158 0.1533,0.20158 0.0046,0 0.07718,-0.0345 0.16128,-0.0767 z"
       id="path365" />
  </g>
  <g
     inkscape:label="Layer 1"
     inkscape:groupmode="layer"
     id="layer1"
     transform="translate(0,-168.49025)"
     style="display:inline">
    <g
       aria-label="Pitch"
       style="font-style:normal;font-variant:normal;font-weight:300;font-stretch:normal;font-size:4.93889px;line-height:6.61458px;font-family:'Gotham Rounded';-inkscape-font-specification:'Gotham Rounded Light';font-variant-ligatures:normal;font-variant-caps:normal;font-variant-numeric:normal;font-feature-settings:normal;text-align:center;letter-spacing:0px;word-spacing:0px;writing-mode:lr-tb;text-anchor:middle;display:inline;fill:#000000;fill-opacity:1;stroke:#000000;stroke-width:0.264583px;stroke-linecap:butt;stroke-linejoin:miter;stroke-opacity:1"
       id="text4944"
       transform="translate(0,10.583334)" />
    <text
       xml:space="preserve"
       style="font-style:normal;font-weight:normal;font-size:10.5833px;line-height:1.25;font-family:sans-serif;fill:#000000;fill-opacity:1;stroke:#000000;stroke-width:0.264583"
       x="10.375626"
       y="254.64096"
       id="text72"><tspan
         sodipodi:role="line"
         id="tspan70"
         x="10.375626"
         y="254.64096"
         style="fill:#000000;stroke:#000000;stroke-width:0.264583" /></text>
  </g>
  <g
     inkscape:groupmode="layer"
     id="layer2"
     inkscape:label="components"
     transform="translate(0,0.00972625)">
    <text
       xml:space="preserve"
       style="font-style:normal;font-weight:normal;font-size:10.5833px;line-height:1.25;font-family:sans-serif;fill:#000000;fill-opacity:1;stroke:#000000;stroke-width:0.264583"
       x="-65.249954"
       y="111.72212"
       id="text144"><tspan
         sodipodi:role="line"
         id="tspan142"
         x="-65.249954"
         y="111.72212"
         style="fill:#000000;stroke:#000000;stroke-width:0.264583" /></text>
    <text
       xml:space="preserve"
       style="font-size:3.52777px;line-height:1.25;font-family:sans-serif;fill:#000000;stroke:#000000;stroke-width:0.264583"
       x="17.94903"
       y="75.780609"
       id="text1055"><tspan
         sodipodi:role="line"
         id="tspan1053"
         x="17.94903"
         y="75.780609"
         style="fill:#000000;stroke:#000000;stroke-width:0.264583" /></text>
    <text
       xml:space="preserve"
       style="font-size:3.52777px;line-height:1.25;font-family:sans-serif;fill:#000000;stroke:#000000;stroke-width:0.264583"
       x="5.6367397"
       y="125.28948"
       id="text1388"><tspan
         sodipodi:role="line"
         id="tspan1386"
         x="5.6367397"
         y="125.28948"
         style="fill:#000000;stroke:#000000;stroke-width:0.264583" /></text>
    <text
       xml:space="preserve"
       style="font-weight:600;font-size:3.52777px;line-height:1.25;font-family:'URW Gothic';-inkscape-font-specification:'URW Gothic, Semi-Bold';fill:#ffffff;stroke-width:0.264583"
       x="3.3458118"
       y="78.44635"
       id="text123"><tspan
         sodipodi:role="line"
         id="tspan121"
         x="3.3458118"
         y="78.44635"
         style="fill:#ffffff;stroke-width:0.264583" /></text>
  </g>
</svg>
