<?xml version="1.0" encoding="UTF-8" standalone="no"?>
<svg
   width="48mm"
   height="128.5mm"
   viewBox="0 0 48.000005 128.50002"
   version="1.1"
   id="svg8"
   inkscape:version="1.1 (c4e8f9ed74, 2021-05-24)"
   sodipodi:docname="Opabinia.svg"
   xmlns:inkscape="http://www.inkscape.org/namespaces/inkscape"
   xmlns:sodipodi="http://sodipodi.sourceforge.net/DTD/sodipodi-0.dtd"
   xmlns:xlink="http://www.w3.org/1999/xlink"
   xmlns="http://www.w3.org/2000/svg"
   xmlns:svg="http://www.w3.org/2000/svg"
   xmlns:rdf="http://www.w3.org/1999/02/22-rdf-syntax-ns#"
   xmlns:cc="http://creativecommons.org/ns#"
   xmlns:dc="http://purl.org/dc/elements/1.1/">
  <defs
     id="defs2">
    <linearGradient
       inkscape:collect="always"
       id="linearGradient23685">
      <stop
         style="stop-color:#0d0d0d;stop-opacity:1"
         offset="0"
         id="stop23681" />
      <stop
         style="stop-color:#262626;stop-opacity:1"
         offset="1"
         id="stop23683" />
    </linearGradient>
    <linearGradient
       inkscape:collect="always"
       xlink:href="#linearGradient23685"
       id="linearGradient23687"
       x1="23.279552"
       y1="247.81659"
       x2="20.027756"
       y2="177.86371"
       gradientUnits="userSpaceOnUse" />
  </defs>
  <sodipodi:namedview
     id="base"
     pagecolor="#ffffff"
     bordercolor="#666666"
     borderopacity="1.0"
     inkscape:pageopacity="0.0"
     inkscape:pageshadow="2"
     inkscape:zoom="1.4"
     inkscape:cx="186.07143"
     inkscape:cy="301.78571"
     inkscape:document-units="mm"
     inkscape:current-layer="layer1"
     showgrid="false"
     units="mm"
     inkscape:snap-bbox="true"
     inkscape:snap-page="true"
     inkscape:bbox-nodes="false"
     inkscape:snap-bbox-edge-midpoints="false"
     inkscape:window-width="1366"
     inkscape:window-height="768"
     inkscape:window-x="0"
     inkscape:window-y="0"
     inkscape:window-maximized="0"
     inkscape:snap-bbox-midpoints="true"
     inkscape:snap-nodes="false"
     inkscape:document-rotation="0"
     fit-margin-top="0"
     fit-margin-left="0"
     fit-margin-right="0"
     fit-margin-bottom="0"
     inkscape:pagecheckerboard="0" />
  <metadata
     id="metadata5">
    <rdf:RDF>
      <cc:Work
         rdf:about="">
        <dc:format>image/svg+xml</dc:format>
        <dc:type
           rdf:resource="http://purl.org/dc/dcmitype/StillImage" />
        <dc:title />
      </cc:Work>
    </rdf:RDF>
  </metadata>
  <g
     inkscape:label="Layer 1"
     inkscape:groupmode="layer"
     id="layer1"
     transform="translate(0,-168.49997)">
    <rect
       style="display:inline;opacity:1;vector-effect:none;fill:url(#linearGradient23687);fill-opacity:1;fill-rule:evenodd;stroke:none;stroke-width:0.814886;stroke-linecap:butt;stroke-linejoin:miter;stroke-miterlimit:4;stroke-dasharray:none;stroke-dashoffset:0;stroke-opacity:1;paint-order:normal"
       id="rect420"
       width="48"
       height="128.5"
       x="5.9211732e-17"
       y="168.49997" />
    <g
       aria-label="Pitch"
       style="font-style:normal;font-variant:normal;font-weight:300;font-stretch:normal;font-size:4.93889px;line-height:6.61458px;font-family:'Gotham Rounded';-inkscape-font-specification:'Gotham Rounded Light';font-variant-ligatures:normal;font-variant-caps:normal;font-variant-numeric:normal;font-feature-settings:normal;text-align:center;letter-spacing:0px;word-spacing:0px;writing-mode:lr-tb;text-anchor:middle;display:inline;fill:#000000;fill-opacity:1;stroke:none;stroke-width:0.264583px;stroke-linecap:butt;stroke-linejoin:miter;stroke-opacity:1"
       id="text4944"
       transform="translate(0,10.583334)" />
    <text
       xml:space="preserve"
       style="font-style:normal;font-weight:normal;font-size:10.5833px;line-height:1.25;font-family:sans-serif;fill:#000000;fill-opacity:1;stroke:none;stroke-width:0.264583"
       x="10.375626"
       y="254.64096"
       id="text72"><tspan
         sodipodi:role="line"
         id="tspan70"
         x="10.375626"
         y="254.64096"
         style="stroke-width:0.264583" /></text>
    <g
       aria-label="low"
       transform="scale(0.99251426,1.0075422)"
       id="text1286"
       style="font-size:3.84732px;line-height:1.25;font-family:sans-serif;fill:#ffffff;stroke-width:0.288549">
      <path
         d="m 21.158385,271.45261 h 0.345658 v 2.92306 h -0.345658 z"
         style="fill:#ffffff;stroke-width:0.288549"
         id="path1033" />
      <path
         d="m 23.042595,272.514 q -0.278029,0 -0.439586,0.21792 -0.161558,0.21603 -0.161558,0.59363 0,0.37759 0.159679,0.59551 0.161558,0.21603 0.441465,0.21603 0.276151,0 0.437708,-0.21791 0.161557,-0.21792 0.161557,-0.59363 0,-0.37384 -0.161557,-0.59175 -0.161557,-0.2198 -0.437708,-0.2198 z m 0,-0.29305 q 0.450858,0 0.708223,0.29305 0.257364,0.29306 0.257364,0.81155 0,0.51661 -0.257364,0.81154 -0.257365,0.29306 -0.708223,0.29306 -0.452736,0 -0.710101,-0.29306 -0.255486,-0.29493 -0.255486,-0.81154 0,-0.51849 0.255486,-0.81155 0.257365,-0.29305 0.710101,-0.29305 z"
         style="fill:#ffffff;stroke-width:0.288549"
         id="path1035" />
      <path
         d="m 24.38014,272.27167 h 0.345658 l 0.432072,1.64187 0.430193,-1.64187 h 0.407651 l 0.432072,1.64187 0.430193,-1.64187 h 0.345658 l -0.550422,2.104 h -0.407651 l -0.452736,-1.72453 -0.454615,1.72453 h -0.407651 z"
         style="fill:#ffffff;stroke-width:0.288549"
         id="path1037" />
    </g>
    <g
       aria-label="OBAPINIA"
       transform="scale(0.90270257,1.1077846)"
       id="text20793"
       style="font-weight:600;font-size:5.90001px;line-height:1.25;font-family:'URW Gothic';-inkscape-font-specification:'URW Gothic, Semi-Bold';fill:#ffffff;stroke-width:0.147501">
      <path
         d="m 14.27199,154.06031 c -1.298003,0 -2.301004,0.9853 -2.301004,2.2597 0,1.2626 1.014801,2.25381 2.295104,2.25381 1.268502,0 2.247903,-0.98531 2.247903,-2.25381 0,-1.2567 -0.997101,-2.2597 -2.242003,-2.2597 z m -0.0118,0.7788 c 0.808301,0 1.439602,0.649 1.439602,1.4868 0,0.8437 -0.613601,1.4691 -1.439602,1.4691 -0.826002,0 -1.475003,-0.649 -1.475003,-1.475 0,-0.8437 0.637201,-1.4809 1.475003,-1.4809 z"
         id="path45551" />
      <path
         d="m 17.151184,158.49712 h 1.162302 c 0.483801,0 0.837801,-0.0767 1.103302,-0.2419 0.3599,-0.2183 0.566401,-0.60771 0.566401,-1.05611 0,-0.2773 -0.0767,-0.5369 -0.212401,-0.7139 -0.1239,-0.1652 -0.2478,-0.2478 -0.531,-0.3658 0.354,-0.1829 0.4838,-0.4071 0.4838,-0.8201 0,-0.4071 -0.177,-0.7493 -0.4956,-0.9499 -0.259601,-0.1652 -0.531001,-0.2124 -1.180002,-0.2124 h -0.896802 z m 0.808301,-0.77291 v -1.1151 h 0.383501 c 0.560501,0 0.826001,0.1829 0.826001,0.5664 0,0.3835 -0.2419,0.5487 -0.808301,0.5487 z m 0,-1.9057 v -0.8909 h 0.330401 c 0.424801,0 0.625401,0.1416 0.625401,0.4425 0,0.3127 -0.2065,0.4484 -0.696201,0.4484 z"
         id="path45553" />
      <path
         d="m 20.101183,158.49712 h 0.890902 l 0.483801,-1.12691 h 1.551702 l 0.466101,1.12691 h 0.890902 l -1.829004,-4.36011 h -0.637201 z m 1.669703,-1.89981 0.466101,-1.3216 0.466101,1.3216 z"
         id="path45555" />
      <path
         d="m 24.827089,158.49712 h 0.808301 v -1.65791 h 0.259601 c 0.619501,0 0.902701,-0.0472 1.144602,-0.1947 0.354,-0.2242 0.572301,-0.6608 0.572301,-1.1623 0,-0.5015 -0.212401,-0.9145 -0.590001,-1.1446 -0.247801,-0.1475 -0.542801,-0.2006 -1.115102,-0.2006 h -1.079702 z m 0.808301,-2.43081 v -1.1564 h 0.271401 c 0.2655,0 0.3894,0.0118 0.5133,0.0413 0.236001,0.0649 0.377601,0.2714 0.377601,0.5428 0,0.2124 -0.0944,0.3776 -0.2655,0.472 -0.123901,0.0649 -0.342201,0.1003 -0.660801,0.1003 z"
         id="path45557" />
      <path
         d="m 28.11339,158.49712 h 0.808302 v -4.36011 H 28.11339 Z"
         id="path45559" />
      <path
         d="m 29.765386,158.49712 h 0.808301 v -3.16831 l 1.823104,3.16831 h 0.902701 v -4.36011 h -0.808301 v 3.1742 l -1.805403,-3.1742 h -0.920402 z"
         id="path45561" />
      <path
         d="m 34.131391,158.49712 h 0.808301 v -4.36011 h -0.808301 z"
         id="path45563" />
      <path
         d="m 35.382176,158.49712 h 0.890901 l 0.483801,-1.12691 h 1.551703 l 0.466101,1.12691 h 0.890901 l -1.829003,-4.36011 h -0.637201 z m 1.669703,-1.89981 0.4661,-1.3216 0.466101,1.3216 z"
         id="path45565" />
    </g>
  </g>
  <g
     inkscape:groupmode="layer"
     id="layer2"
     inkscape:label="components"
     transform="translate(0,1.1035156e-5)">
    <g
       aria-label="NUMBER"
       id="text41452"
       style="font-weight:600;font-size:3.52777px;line-height:1.25;font-family:'URW Gothic';-inkscape-font-specification:'URW Gothic, Semi-Bold';fill:#ffffff;stroke-width:0.264583"
       transform="translate(0,-1.0583333)">
      <path
         d="M 5.5567352,30.986452 H 6.0400397 V 29.09204 l 1.0900809,1.894412 H 7.6698695 V 28.37943 H 7.186565 v 1.89794 L 6.1070673,28.37943 H 5.5567352 Z"
         id="path45054" />
      <path
         d="m 8.1672842,28.37943 v 1.650996 c 0,0.278694 0.042333,0.458611 0.1411108,0.613832 0.1516941,0.239889 0.4339157,0.388055 0.7373039,0.388055 0.2857494,0 0.5503322,-0.127 0.705554,-0.335138 0.123472,-0.169333 0.1763885,-0.36336 0.1763885,-0.666749 V 28.37943 H 9.4443369 v 1.650996 c 0,0.194028 -0.014111,0.275166 -0.0635,0.359833 -0.067028,0.109361 -0.1904996,0.176388 -0.3351382,0.176388 -0.1411108,0 -0.2645827,-0.06703 -0.3316104,-0.176388 -0.049389,-0.08467 -0.0635,-0.165805 -0.0635,-0.359833 V 28.37943 Z"
         id="path45056" />
      <path
         d="m 10.425055,30.986452 h 0.483304 v -1.954385 l 0.68086,1.954385 h 0.39511 l 0.68086,-1.954385 v 1.954385 h 0.483304 V 28.37943 h -0.663221 l -0.69497,1.975551 -0.702027,-1.975551 h -0.66322 z"
         id="path45058" />
      <path
         d="m 13.600046,30.986452 h 0.694971 c 0.289277,0 0.500943,-0.04586 0.659693,-0.144638 0.215194,-0.130528 0.338666,-0.363361 0.338666,-0.631471 0,-0.165805 -0.04586,-0.321027 -0.127,-0.42686 -0.07408,-0.09878 -0.148166,-0.148167 -0.317499,-0.218722 0.211666,-0.109361 0.289277,-0.243416 0.289277,-0.49036 0,-0.243416 -0.105833,-0.448027 -0.296333,-0.567971 -0.155221,-0.09878 -0.317499,-0.127 -0.705554,-0.127 h -0.536221 z m 0.483305,-0.462138 v -0.666748 h 0.229305 c 0.335138,0 0.493888,0.109361 0.493888,0.338666 0,0.229305 -0.144639,0.328082 -0.483305,0.328082 z m 0,-1.139469 v -0.532694 h 0.197555 c 0.253999,0 0.373944,0.08467 0.373944,0.264583 0,0.186972 -0.123472,0.268111 -0.416277,0.268111 z"
         id="path45060" />
      <path
         d="m 15.646153,30.986452 h 1.400524 v -0.462138 h -0.91722 v -0.606776 h 0.878415 V 29.4554 h -0.878415 v -0.613832 h 0.91722 V 28.37943 h -1.400524 z"
         id="path45062" />
      <path
         d="m 17.480588,30.986452 h 0.483305 v -0.998359 l 0.684387,0.998359 h 0.596193 l -0.705554,-0.963081 c 0.201083,-0.04939 0.299861,-0.09525 0.412749,-0.1905 0.179917,-0.151694 0.268111,-0.356304 0.268111,-0.617359 0,-0.268111 -0.09525,-0.49036 -0.275166,-0.642055 -0.169333,-0.144638 -0.356305,-0.194027 -0.71261,-0.194027 h -0.751415 z m 0.483305,-1.361719 v -0.783165 h 0.215194 c 0.225777,0 0.349249,0.02469 0.42686,0.09172 0.08467,0.06703 0.126999,0.169333 0.126999,0.296333 0,0.275166 -0.158749,0.39511 -0.532693,0.39511 z"
         id="path45064" />
    </g>
    <text
       xml:space="preserve"
       style="font-style:normal;font-weight:normal;font-size:10.5833px;line-height:1.25;font-family:sans-serif;fill:#000000;fill-opacity:1;stroke:none;stroke-width:0.264583"
       x="-65.249954"
       y="101.62212"
       id="text144"><tspan
         sodipodi:role="line"
         id="tspan142"
         x="-65.249954"
         y="101.62212"
         style="stroke-width:0.264583" /></text>
    <path
       style="fill:#e5ffd5;stroke:#fffff2;stroke-width:0.994356px;stroke-linecap:butt;stroke-linejoin:miter;stroke-opacity:1"
       d="m 24.002778,90.97029 -0.0056,-21.070169"
       id="path1029-5" />
    <text
       xml:space="preserve"
       style="font-size:3.52777px;line-height:1.25;font-family:sans-serif;stroke-width:0.264583"
       x="17.94903"
       y="65.680611"
       id="text1055"><tspan
         sodipodi:role="line"
         id="tspan1053"
         x="17.94903"
         y="65.680611"
         style="stroke-width:0.264583" /></text>
    <path
       style="fill:#e5ffd5;stroke:#fffff2;stroke-width:0.994356px;stroke-linecap:butt;stroke-linejoin:miter;stroke-opacity:1"
       d="m 36.002778,90.97029 -0.0056,-21.070169"
       id="path1029-5-7" />
    <path
       style="fill:#e5ffd5;stroke:#fffff2;stroke-width:0.994356px;stroke-linecap:butt;stroke-linejoin:miter;stroke-opacity:1"
       d="m 12.002778,90.97029 -0.0056,-21.070169"
       id="path1029-5-5" />
    <path
       style="fill:#e5ffd5;stroke:#fffff2;stroke-width:0.994356px;stroke-linecap:butt;stroke-linejoin:miter;stroke-opacity:1"
       d="m 12.002778,55.97029 -0.0056,-21.070169"
       id="path1029-5-5-3" />
    <path
       style="fill:#e5ffd5;stroke:#fffff2;stroke-width:0.994356px;stroke-linecap:butt;stroke-linejoin:miter;stroke-opacity:1"
       d="m 24.002778,56.46529 -0.0056,-21.070169"
       id="path1029-5-5-5" />
    <path
       style="fill:#e5ffd5;stroke:#fffff2;stroke-width:0.994356px;stroke-linecap:butt;stroke-linejoin:miter;stroke-opacity:1"
       d="m 36.002778,56.46529 -0.0056,-21.070169"
       id="path1029-5-5-6" />
    <path
       id="rect179-7-2"
       style="fill:#000000;stroke-width:0.304695"
       d="M 13.5,99.89999 H 44 v 12 H 13.5 Z" />
    <text
       xml:space="preserve"
       style="font-size:3.52777px;line-height:1.25;font-family:sans-serif;stroke-width:0.264583"
       x="5.6367397"
       y="115.18948"
       id="text1388"><tspan
         sodipodi:role="line"
         id="tspan1386"
         x="5.6367397"
         y="115.18948"
         style="stroke-width:0.264583" /></text>
    <path
       id="rect179-7-2-3"
       style="fill:#000000;stroke-width:0.19112"
       d="M 30,13.899989 H 42 V 25.89999 H 30 Z" />
    <g
       aria-label="in"
       transform="matrix(0.83159737,0,0,0.80166908,-0.69163843,-9.6000001)"
       id="text338"
       style="font-size:3.28364px;line-height:1.25;font-family:sans-serif;fill:#ffffff;stroke-width:0.246273">
      <path
         d="m 28.058418,45.605352 h 0.295015 v 1.795741 h -0.295015 z m 0,-0.699056 h 0.295015 v 0.373578 h -0.295015 z"
         style="fill:#ffffff;stroke-width:0.246273"
         id="path368" />
      <path
         d="m 30.463428,46.317235 v 1.083858 h -0.295014 v -1.074238 q 0,-0.254931 -0.09941,-0.381595 -0.09941,-0.126664 -0.298222,-0.126664 -0.238897,0 -0.376785,0.152317 -0.137887,0.152318 -0.137887,0.415265 v 1.014915 h -0.296618 v -1.795741 h 0.296618 v 0.278981 q 0.105821,-0.161937 0.248518,-0.242104 0.144301,-0.08017 0.331891,-0.08017 0.309445,0 0.468175,0.192401 0.158731,0.190797 0.158731,0.562772 z"
         style="fill:#ffffff;stroke-width:0.246273"
         id="path370" />
    </g>
    <g
       aria-label="distorted"
       transform="matrix(0.94374292,0,0,1.0596106,0,-10.1)"
       id="text382"
       style="font-size:2.43884px;line-height:1.25;font-family:sans-serif;fill:#ffffff;stroke-width:0.182913">
      <path
         d="m 33.29104,35.168255 v -0.721649 h 0.219115 v 1.852947 H 33.29104 v -0.200061 q -0.06907,0.119084 -0.175053,0.177435 -0.104794,0.05716 -0.252458,0.05716 -0.241741,0 -0.394168,-0.192916 -0.151237,-0.192916 -0.151237,-0.507298 0,-0.314381 0.151237,-0.507297 0.152427,-0.192916 0.394168,-0.192916 0.147664,0 0.252458,0.05835 0.105985,0.05716 0.175053,0.176245 z m -0.746656,0.465618 q 0,0.241741 0.09884,0.379878 0.10003,0.136947 0.273893,0.136947 0.173862,0 0.273893,-0.136947 0.10003,-0.138137 0.10003,-0.379878 0,-0.24174 -0.10003,-0.378687 -0.100031,-0.138137 -0.273893,-0.138137 -0.173863,0 -0.273893,0.138137 -0.09884,0.136947 -0.09884,0.378687 z"
         style="fill:#ffffff;stroke-width:0.182913"
         id="path384" />
      <path
         d="m 33.961483,34.965812 h 0.219115 v 1.333741 h -0.219115 z m 0,-0.519206 h 0.219115 v 0.277466 h -0.219115 z"
         style="fill:#ffffff;stroke-width:0.182913"
         id="path386" />
      <path
         d="m 35.489331,35.00511 v 0.207206 q -0.09289,-0.04763 -0.192916,-0.07145 -0.100031,-0.02382 -0.207206,-0.02382 -0.163145,0 -0.245313,0.05002 -0.08098,0.05002 -0.08098,0.150046 0,0.07621 0.05835,0.120275 0.05835,0.04287 0.234595,0.08217 l 0.07502,0.01667 q 0.233405,0.05001 0.331053,0.14171 0.09884,0.0905 0.09884,0.253648 0,0.185771 -0.147664,0.294138 -0.146473,0.108366 -0.403695,0.108366 -0.107175,0 -0.223878,-0.02143 -0.115511,-0.02024 -0.244122,-0.06192 V 36.02448 q 0.121466,0.06311 0.239359,0.09527 0.117893,0.03096 0.233405,0.03096 0.154809,0 0.238168,-0.0524 0.08336,-0.05359 0.08336,-0.150046 0,-0.08931 -0.06073,-0.136946 -0.05954,-0.04763 -0.263176,-0.0917 l -0.07621,-0.01786 q -0.203633,-0.04287 -0.294137,-0.130992 -0.0905,-0.08931 -0.0905,-0.244122 0,-0.188153 0.133374,-0.290565 0.133374,-0.102412 0.378687,-0.102412 0.121466,0 0.228641,0.01786 0.107176,0.01786 0.19768,0.05359 z"
         style="fill:#ffffff;stroke-width:0.182913"
         id="path388" />
      <path
         d="m 36.12643,34.587125 v 0.378687 h 0.451328 v 0.17029 H 36.12643 v 0.724031 q 0,0.163145 0.04406,0.209588 0.04525,0.04644 0.182199,0.04644 h 0.225068 V 36.29955 H 36.35269 q -0.253649,0 -0.350107,-0.09408 -0.09646,-0.09527 -0.09646,-0.345344 v -0.724031 h -0.160764 v -0.17029 h 0.160764 v -0.378687 z"
         style="fill:#ffffff;stroke-width:0.182913"
         id="path390" />
      <path
         d="m 37.382766,35.119431 q -0.176244,0 -0.278657,0.138137 -0.102412,0.136947 -0.102412,0.376305 0,0.239359 0.101222,0.377497 0.102412,0.136946 0.279847,0.136946 0.175053,0 0.277466,-0.138137 0.102412,-0.138138 0.102412,-0.376306 0,-0.236977 -0.102412,-0.375114 -0.102413,-0.139328 -0.277466,-0.139328 z m 0,-0.185771 q 0.285801,0 0.448947,0.185771 0.163145,0.185771 0.163145,0.514442 0,0.327481 -0.163145,0.514443 -0.163146,0.185771 -0.448947,0.185771 -0.286992,0 -0.450138,-0.185771 -0.161954,-0.186962 -0.161954,-0.514443 0,-0.328671 0.161954,-0.514442 0.163146,-0.185771 0.450138,-0.185771 z"
         style="fill:#ffffff;stroke-width:0.182913"
         id="path392" />
      <path
         d="m 39.130919,35.170637 q -0.03692,-0.02143 -0.08098,-0.03096 -0.04287,-0.01072 -0.09527,-0.01072 -0.185771,0 -0.285802,0.121466 -0.09884,0.120275 -0.09884,0.346534 v 0.702596 h -0.220306 v -1.333741 h 0.220306 v 0.207206 q 0.06907,-0.121465 0.179816,-0.179816 0.110748,-0.05954 0.26913,-0.05954 0.02263,0 0.05002,0.0036 0.02739,0.0024 0.06073,0.0083 z"
         style="fill:#ffffff;stroke-width:0.182913"
         id="path394" />
      <path
         d="m 39.577484,34.587125 v 0.378687 h 0.451328 v 0.17029 h -0.451328 v 0.724031 q 0,0.163145 0.04406,0.209588 0.04525,0.04644 0.182198,0.04644 h 0.225069 v 0.183389 h -0.225069 q -0.253648,0 -0.350106,-0.09408 -0.09646,-0.09527 -0.09646,-0.345344 v -0.724031 h -0.160764 v -0.17029 h 0.160764 v -0.378687 z"
         style="fill:#ffffff;stroke-width:0.182913"
         id="path396" />
      <path
         d="m 41.45782,35.577904 v 0.107176 h -1.007451 q 0.01429,0.226259 0.135756,0.345343 0.122656,0.117893 0.34058,0.117893 0.126229,0 0.244122,-0.03096 0.119084,-0.03096 0.235786,-0.09288 v 0.207206 q -0.117893,0.05001 -0.24174,0.07621 -0.123847,0.0262 -0.251267,0.0262 -0.319145,0 -0.506107,-0.185771 -0.185771,-0.185771 -0.185771,-0.502534 0,-0.327481 0.176244,-0.519206 0.177435,-0.192916 0.477527,-0.192916 0.26913,0 0.42513,0.173862 0.157191,0.172672 0.157191,0.470382 z m -0.219115,-0.0643 q -0.0024,-0.179817 -0.101221,-0.286993 -0.09765,-0.107175 -0.259603,-0.107175 -0.18339,0 -0.294138,0.103603 -0.109557,0.103603 -0.126229,0.291755 z"
         style="fill:#ffffff;stroke-width:0.182913"
         id="path398" />
      <path
         d="m 42.695103,35.168255 v -0.721649 h 0.219114 v 1.852947 h -0.219114 v -0.200061 q -0.06907,0.119084 -0.175054,0.177435 -0.104794,0.05716 -0.252458,0.05716 -0.24174,0 -0.394168,-0.192916 -0.151236,-0.192916 -0.151236,-0.507298 0,-0.314381 0.151236,-0.507297 0.152428,-0.192916 0.394168,-0.192916 0.147664,0 0.252458,0.05835 0.105985,0.05716 0.175054,0.176245 z m -0.746657,0.465618 q 0,0.241741 0.09884,0.379878 0.10003,0.136947 0.273893,0.136947 0.173863,0 0.273893,-0.136947 0.100031,-0.138137 0.100031,-0.379878 0,-0.24174 -0.100031,-0.378687 -0.10003,-0.138137 -0.273893,-0.138137 -0.173863,0 -0.273893,0.138137 -0.09884,0.136947 -0.09884,0.378687 z"
         style="fill:#ffffff;stroke-width:0.182913"
         id="path400" />
    </g>
    <g
       aria-label="trig, lenv, senv, out"
       transform="matrix(0.66622924,0,0,1.0006557,7.6666712,-10.1)"
       id="text405"
       style="font-size:3.09787px;line-height:1.25;font-family:sans-serif;fill:#ffffff;stroke-width:0.23234">
      <path
         d="m 8.4892879,122.84642 v 0.48102 h 0.5732875 v 0.2163 H 8.4892879 v 0.91968 q 0,0.20723 0.055967,0.26623 0.05748,0.059 0.2314327,0.059 H 9.062575 v 0.23294 H 8.776688 q -0.3221906,0 -0.4447138,-0.11949 -0.1225232,-0.12101 -0.1225232,-0.43867 v -0.91968 H 8.0052457 v -0.2163 H 8.209451 v -0.48102 z"
         style="fill:#ffffff;stroke-width:0.23234"
         id="path407" />
      <path
         d="m 10.41033,123.58761 q -0.04689,-0.0272 -0.102859,-0.0393 -0.05445,-0.0136 -0.12101,-0.0136 -0.2359707,0 -0.3630318,0.15428 -0.1255485,0.15278 -0.1255485,0.44018 v 0.89245 H 9.4180438 v -1.69414 h 0.2798369 v 0.26319 q 0.087733,-0.15428 0.2284075,-0.2284 0.1406748,-0.0756 0.3418548,-0.0756 0.02874,0 0.06353,0.005 0.03479,0.003 0.07714,0.0106 z"
         style="fill:#ffffff;stroke-width:0.23234"
         id="path409" />
      <path
         d="m 10.702268,123.32744 h 0.278325 v 1.69414 h -0.278325 z m 0,-0.65951 h 0.278325 v 0.35244 h -0.278325 z"
         style="fill:#ffffff;stroke-width:0.23234"
         id="path411" />
      <path
         d="m 12.677766,124.15485 q 0,-0.30253 -0.125549,-0.46892 -0.124036,-0.16639 -0.349418,-0.16639 -0.223869,0 -0.349418,0.16639 -0.124036,0.16639 -0.124036,0.46892 0,0.30101 0.124036,0.4674 0.125549,0.16639 0.349418,0.16639 0.225382,0 0.349418,-0.16639 0.125549,-0.16639 0.125549,-0.4674 z m 0.278324,0.65648 q 0,0.43261 -0.192104,0.64287 -0.192105,0.21176 -0.588414,0.21176 -0.146725,0 -0.276812,-0.0227 -0.130086,-0.0212 -0.252609,-0.0666 v -0.27076 q 0.122523,0.0666 0.242021,0.0983 0.119498,0.0318 0.243534,0.0318 0.273786,0 0.409923,-0.1437 0.136137,-0.14218 0.136137,-0.4311 v -0.13764 q -0.08622,0.14975 -0.220845,0.22386 -0.134624,0.0741 -0.32219,0.0741 -0.311602,0 -0.502194,-0.23748 -0.190592,-0.23748 -0.190592,-0.62925 0,-0.39329 0.190592,-0.63077 0.190592,-0.23749 0.502194,-0.23749 0.187566,0 0.32219,0.0741 0.134625,0.0741 0.220845,0.22387 v -0.25714 h 0.278324 z"
         style="fill:#ffffff;stroke-width:0.23234"
         id="path413" />
      <path
         d="m 13.600471,124.63738 h 0.319166 v 0.26017 l -0.248072,0.48404 h -0.19513 l 0.124036,-0.48404 z"
         style="fill:#ffffff;stroke-width:0.23234"
         id="path415" />
      <path
         d="m 15.498824,122.66793 h 0.278325 v 2.35365 h -0.278325 z"
         style="fill:#ffffff;stroke-width:0.23234"
         id="path417" />
      <path
         d="m 17.808613,124.10493 v 0.13614 h -1.279686 q 0.01815,0.2874 0.17244,0.43866 0.155801,0.14975 0.432613,0.14975 0.160338,0 0.310089,-0.0393 0.151263,-0.0393 0.299501,-0.11798 v 0.26319 q -0.14975,0.0635 -0.307064,0.0968 -0.157314,0.0333 -0.319165,0.0333 -0.405386,0 -0.642869,-0.23597 -0.235971,-0.23597 -0.235971,-0.63833 0,-0.41598 0.22387,-0.65951 0.225382,-0.24505 0.606565,-0.24505 0.341855,0 0.54001,0.22085 0.199667,0.21933 0.199667,0.59749 z m -0.278324,-0.0817 q -0.003,-0.22841 -0.128574,-0.36455 -0.124035,-0.13613 -0.329753,-0.13613 -0.232946,0 -0.37362,0.13159 -0.139163,0.1316 -0.160339,0.3706 z"
         style="fill:#ffffff;stroke-width:0.23234"
         id="path419" />
      <path
         d="m 19.673688,123.99904 v 1.02254 h -0.278324 v -1.01346 q 0,-0.24051 -0.09378,-0.36001 -0.09378,-0.11949 -0.281349,-0.11949 -0.225383,0 -0.355469,0.1437 -0.130086,0.1437 -0.130086,0.39177 v 0.95749 h -0.27984 v -1.69414 h 0.279837 v 0.26319 q 0.09983,-0.15277 0.234458,-0.2284 0.136136,-0.0756 0.313114,-0.0756 0.291938,0 0.441689,0.18152 0.14975,0.18 0.14975,0.53093 z"
         style="fill:#ffffff;stroke-width:0.23234"
         id="path421" />
      <path
         d="m 20.029157,123.32744 h 0.294963 l 0.529421,1.42187 0.529421,-1.42187 h 0.294964 l -0.635306,1.69414 h -0.378158 z"
         style="fill:#ffffff;stroke-width:0.23234"
         id="path423" />
      <path
         d="m 22.133228,124.63738 h 0.319165 v 0.26017 l -0.248071,0.48404 h -0.19513 l 0.124036,-0.48404 z"
         style="fill:#ffffff;stroke-width:0.23234"
         id="path425" />
      <path
         d="m 25.1116,123.37735 v 0.2632 q -0.117986,-0.0605 -0.245047,-0.0908 -0.127061,-0.0302 -0.263198,-0.0302 -0.20723,0 -0.311602,0.0635 -0.102859,0.0635 -0.102859,0.19059 0,0.0968 0.07412,0.15278 0.07412,0.0545 0.297989,0.10437 l 0.0953,0.0212 q 0.296475,0.0635 0.420511,0.18 0.125549,0.11496 0.125549,0.32219 0,0.23597 -0.187567,0.37362 -0.186053,0.13765 -0.512782,0.13765 -0.136137,0 -0.284375,-0.0272 -0.146725,-0.0257 -0.310089,-0.0786 v -0.2874 q 0.154288,0.0802 0.304039,0.12101 0.14975,0.0393 0.296476,0.0393 0.196642,0 0.302526,-0.0665 0.105884,-0.0681 0.105884,-0.19059 0,-0.11345 -0.07714,-0.17396 -0.07563,-0.0605 -0.334292,-0.11647 l -0.09681,-0.0227 q -0.25866,-0.0545 -0.37362,-0.16639 -0.11496,-0.11344 -0.11496,-0.31009 0,-0.23899 0.169415,-0.36908 0.169414,-0.13009 0.481017,-0.13009 0.154288,0 0.290425,0.0227 0.136137,0.0227 0.251097,0.0681 z"
         style="fill:#ffffff;stroke-width:0.23234"
         id="path427" />
      <path
         d="m 27.09466,124.10493 v 0.13614 h -1.279686 q 0.01815,0.2874 0.17244,0.43866 0.155801,0.14975 0.432612,0.14975 0.160339,0 0.31009,-0.0393 0.151263,-0.0393 0.299501,-0.11798 v 0.26319 q -0.14975,0.0635 -0.307064,0.0968 -0.157314,0.0333 -0.319165,0.0333 -0.405386,0 -0.642869,-0.23597 -0.235971,-0.23597 -0.235971,-0.63833 0,-0.41598 0.22387,-0.65951 0.225382,-0.24505 0.606565,-0.24505 0.341855,0 0.54001,0.22085 0.199667,0.21933 0.199667,0.59749 z m -0.278324,-0.0817 q -0.003,-0.22841 -0.128574,-0.36455 -0.124035,-0.13613 -0.329753,-0.13613 -0.232946,0 -0.37362,0.13159 -0.139163,0.1316 -0.160339,0.3706 z"
         style="fill:#ffffff;stroke-width:0.23234"
         id="path429" />
      <path
         d="m 28.959735,123.99904 v 1.02254 h -0.278324 v -1.01346 q 0,-0.24051 -0.09378,-0.36001 -0.09378,-0.11949 -0.28135,-0.11949 -0.225382,0 -0.355468,0.1437 -0.130086,0.1437 -0.130086,0.39177 v 0.95749 H 27.54089 v -1.69414 h 0.279837 v 0.26319 q 0.09983,-0.15277 0.234458,-0.2284 0.136136,-0.0756 0.313114,-0.0756 0.291938,0 0.441689,0.18152 0.14975,0.18 0.14975,0.53093 z"
         style="fill:#ffffff;stroke-width:0.23234"
         id="path431" />
      <path
         d="m 29.315204,123.32744 h 0.294963 l 0.529421,1.42187 0.529421,-1.42187 h 0.294964 l -0.635306,1.69414 h -0.378158 z"
         style="fill:#ffffff;stroke-width:0.23234"
         id="path433" />
      <path
         d="m 31.419276,124.63738 h 0.319165 v 0.26017 l -0.248071,0.48404 h -0.19513 l 0.124036,-0.48404 z"
         style="fill:#ffffff;stroke-width:0.23234"
         id="path435" />
      <path
         d="m 33.974111,123.52257 q -0.22387,0 -0.353956,0.17546 -0.130086,0.17395 -0.130086,0.47799 0,0.30404 0.128573,0.47951 0.130087,0.17395 0.355469,0.17395 0.222357,0 0.352443,-0.17547 0.130086,-0.17546 0.130086,-0.47799 0,-0.30101 -0.130086,-0.47648 -0.130086,-0.17697 -0.352443,-0.17697 z m 0,-0.23598 q 0.363031,0 0.570262,0.23598 0.207231,0.23597 0.207231,0.65345 0,0.41598 -0.207231,0.65346 -0.207231,0.23597 -0.570262,0.23597 -0.364545,0 -0.571775,-0.23597 -0.205718,-0.23748 -0.205718,-0.65346 0,-0.41748 0.205718,-0.65345 0.20723,-0.23598 0.571775,-0.23598 z"
         style="fill:#ffffff;stroke-width:0.23234"
         id="path437" />
      <path
         d="m 35.184215,124.353 v -1.02556 h 0.278324 v 1.01497 q 0,0.24051 0.09378,0.36152 0.09378,0.1195 0.281349,0.1195 0.225382,0 0.355469,-0.1437 0.131599,-0.1437 0.131599,-0.39177 v -0.96052 h 0.278324 v 1.69414 h -0.27832 v -0.26017 q -0.101347,0.15429 -0.235971,0.22992 -0.133112,0.0741 -0.31009,0.0741 -0.291938,0 -0.443201,-0.18152 -0.151263,-0.18151 -0.151263,-0.53093 z m 0.700349,-1.06641 z"
         style="fill:#ffffff;stroke-width:0.23234"
         id="path439" />
      <path
         d="m 37.451652,122.84642 v 0.48102 h 0.573288 v 0.2163 h -0.573288 v 0.91968 q 0,0.20723 0.05597,0.26623 0.05748,0.059 0.231433,0.059 h 0.285888 v 0.23294 h -0.285888 q -0.32219,0 -0.444714,-0.11949 -0.122523,-0.12101 -0.122523,-0.43867 v -0.91968 H 36.96761 v -0.2163 h 0.204205 v -0.48102 z"
         style="fill:#ffffff;stroke-width:0.23234"
         id="path441" />
    </g>
    <path
       style="fill:#e5ffd5;stroke:#fffff2;stroke-width:0.996569px;stroke-linecap:butt;stroke-linejoin:miter;stroke-opacity:1"
       d="M 4.0016712,54.899923 3.998285,19.900054"
       id="path1029-5-5-3-3" />
    <path
       id="rect284"
       style="fill:#ffffff;fill-opacity:1;stroke:#fbffff;stroke-width:0.0733949;stroke-miterlimit:4;stroke-dasharray:none"
       d="m 3.5366976,54.936682 h 7.9266054 v 0.926605 H 3.5366976 Z" />
    <path
       id="rect284-7"
       style="fill:#ffffff;fill-opacity:1;stroke:#fbffff;stroke-width:0.0733949;stroke-miterlimit:4;stroke-dasharray:none"
       d="m 3.5366978,19.936686 h 7.9266052 v 0.926605 H 3.5366978 Z" />
    <g
       aria-label="LOW"
       id="text25426"
       style="font-weight:600;font-size:3.52777px;line-height:1.25;font-family:'URW Gothic';-inkscape-font-specification:'URW Gothic, Semi-Bold';fill:#ffffff;stroke-width:0.264583"
       transform="translate(0,1.5875)">
      <path
         d="m 20.825225,97.739288 h 1.280581 V 97.27715 H 21.30853 v -2.144884 h -0.483305 z"
         id="path45201" />
      <path
         d="m 23.531014,95.086405 c -0.776109,0 -1.37583,0.589138 -1.37583,1.351136 0,0.754943 0.606777,1.347608 1.372303,1.347608 0.75847,0 1.34408,-0.589137 1.34408,-1.347608 0,-0.751415 -0.596193,-1.351136 -1.340553,-1.351136 z m -0.0071,0.465666 c 0.483304,0 0.860776,0.388055 0.860776,0.888998 0,0.504471 -0.366888,0.878415 -0.860776,0.878415 -0.493888,0 -0.881943,-0.388055 -0.881943,-0.881943 0,-0.504471 0.381,-0.88547 0.881943,-0.88547 z"
         id="path45203" />
      <path
         d="m 25.721751,97.739288 h 0.380999 l 0.430388,-1.725079 0.419805,1.725079 h 0.384527 l 0.761998,-2.607022 H 27.60558 l -0.462138,1.82033 -0.437443,-1.82033 h -0.352777 l -0.444499,1.82033 -0.45861,-1.82033 h -0.493888 z"
         id="path45205" />
    </g>
    <g
       aria-label="DIST'R'N"
       id="text28052"
       style="font-weight:600;font-size:3.52777px;line-height:1.25;font-family:'URW Gothic';-inkscape-font-specification:'URW Gothic, Semi-Bold';fill:#ffffff;stroke-width:0.264583"
       transform="translate(0,1.5875)">
      <path
         d="m 3.7809116,97.602592 h 0.6067765 c 0.3951102,0 0.6314708,-0.0388 0.843137,-0.144638 0.4021658,-0.197555 0.6385264,-0.627943 0.6385264,-1.153581 0,-0.497415 -0.2046107,-0.903109 -0.567971,-1.121831 C 5.0967698,95.05907 4.7863261,94.99557 4.3771048,94.99557 H 3.7809116 Z m 0.4833045,-0.462137 v -1.682747 h 0.09525 c 0.3104438,0 0.4727212,0.02822 0.6244153,0.105833 0.2469439,0.127 0.398638,0.405694 0.398638,0.740832 0,0.313972 -0.1446386,0.592665 -0.3774714,0.719665 -0.1446385,0.07761 -0.3457214,0.116417 -0.6349986,0.116417 z"
         id="path45166" />
      <path
         d="M 6.2503466,97.602592 H 6.7336511 V 94.99557 H 6.2503466 Z"
         id="path45168" />
      <path
         d="m 7.0476183,96.858233 c 0.017639,0.204611 0.0635,0.335138 0.1693329,0.476249 0.1552219,0.197555 0.4092214,0.313971 0.6879152,0.313971 0.4691934,0 0.8325537,-0.36336 0.8325537,-0.836081 0,-0.218722 -0.077611,-0.402166 -0.2328328,-0.543277 -0.1023053,-0.09525 -0.183444,-0.137583 -0.4409712,-0.23636 -0.2469439,-0.09172 -0.2539995,-0.09525 -0.2892772,-0.116417 -0.09525,-0.05997 -0.1446386,-0.14111 -0.1446386,-0.23636 0,-0.155222 0.1093609,-0.264583 0.2681106,-0.264583 0.1622774,0 0.2610549,0.09878 0.275166,0.275166 H 8.6739203 C 8.663337,95.492986 8.617476,95.358931 8.5116429,95.228403 8.3705321,95.052015 8.1447548,94.949709 7.9013386,94.949709 c -0.4233324,0 -0.7584705,0.328083 -0.7584705,0.740832 0,0.328083 0.1904996,0.578554 0.5432766,0.709082 0.3492492,0.130527 0.3739436,0.141111 0.4515545,0.201083 0.077611,0.0635 0.1199442,0.155222 0.1199442,0.264583 0,0.186971 -0.1446386,0.317499 -0.352777,0.317499 -0.215194,0 -0.3316104,-0.105833 -0.352777,-0.324555 z"
         id="path45170" />
      <path
         d="M 9.3512411,97.602592 H 9.8345456 V 95.457708 H 10.31785 V 94.99557 H 8.8679366 v 0.462138 h 0.4833045 z"
         id="path45172" />
      <path
         d="M 10.914031,95.792846 V 94.99557 H 10.64592 v 0.797276 z"
         id="path45174" />
      <path
         d="m 11.400861,97.602592 h 0.483304 v -0.998358 l 0.684388,0.998358 h 0.596193 l -0.705554,-0.963081 c 0.201083,-0.04939 0.29986,-0.09525 0.412749,-0.190499 0.179916,-0.151694 0.268111,-0.356305 0.268111,-0.61736 0,-0.268111 -0.09525,-0.49036 -0.275166,-0.642054 -0.169333,-0.144639 -0.356305,-0.194028 -0.71261,-0.194028 h -0.751415 z m 0.483304,-1.361719 v -0.783165 h 0.215194 c 0.225778,0 0.34925,0.0247 0.426861,0.09172 0.08467,0.06703 0.126999,0.169333 0.126999,0.296333 0,0.275166 -0.158749,0.39511 -0.532693,0.39511 z"
         id="path45176" />
      <path
         d="M 13.813853,95.792846 V 94.99557 h -0.268111 v 0.797276 z"
         id="path45178" />
      <path
         d="m 14.300682,97.602592 h 0.483305 V 95.70818 l 1.090081,1.894412 h 0.539748 V 94.99557 h -0.483304 v 1.897941 L 14.851014,94.99557 h -0.550332 z"
         id="path45180" />
    </g>
    <g
       aria-label="SLIDE"
       id="text30030"
       style="font-weight:600;font-size:3.52777px;line-height:1.25;font-family:'URW Gothic';-inkscape-font-specification:'URW Gothic, Semi-Bold';fill:#ffffff;stroke-width:0.264583"
       transform="translate(0,1.5875)">
      <path
         d="m 32.971676,96.97436 c 0.01764,0.204611 0.0635,0.335138 0.169333,0.476249 0.155222,0.197555 0.409221,0.313971 0.687915,0.313971 0.469193,0 0.832554,-0.36336 0.832554,-0.836081 0,-0.218722 -0.07761,-0.402166 -0.232833,-0.543277 -0.102306,-0.09525 -0.183444,-0.137583 -0.440971,-0.23636 -0.246944,-0.09172 -0.254,-0.09525 -0.289278,-0.116417 -0.09525,-0.05997 -0.144638,-0.14111 -0.144638,-0.23636 0,-0.155222 0.109361,-0.264583 0.26811,-0.264583 0.162278,0 0.261055,0.09878 0.275166,0.275166 h 0.500944 c -0.01058,-0.197555 -0.05644,-0.33161 -0.162278,-0.462138 -0.14111,-0.176388 -0.366888,-0.278694 -0.610304,-0.278694 -0.423332,0 -0.75847,0.328083 -0.75847,0.740832 0,0.328083 0.190499,0.578554 0.543276,0.709082 0.349249,0.130527 0.373944,0.141111 0.451555,0.201083 0.07761,0.0635 0.119944,0.155222 0.119944,0.264583 0,0.186971 -0.144639,0.317499 -0.352777,0.317499 -0.215194,0 -0.33161,-0.105833 -0.352777,-0.324555 z"
         id="path45226" />
      <path
         d="m 34.996611,97.718719 h 1.28058 v -0.462137 h -0.797276 v -2.144885 h -0.483304 z"
         id="path45228" />
      <path
         d="m 36.548825,97.718719 h 0.483304 v -2.607022 h -0.483304 z"
         id="path45230" />
      <path
         d="m 37.536596,97.718719 h 0.606776 c 0.395111,0 0.631471,-0.0388 0.843137,-0.144638 0.402166,-0.197555 0.638527,-0.627943 0.638527,-1.153581 0,-0.497415 -0.204611,-0.903109 -0.567971,-1.121831 -0.204611,-0.123472 -0.515055,-0.186972 -0.924276,-0.186972 H 37.536596 Z M 38.0199,97.256582 v -1.682747 h 0.09525 c 0.310444,0 0.472721,0.02822 0.624416,0.105833 0.246943,0.127 0.398638,0.405694 0.398638,0.740832 0,0.313972 -0.144639,0.592665 -0.377472,0.719665 -0.144638,0.07761 -0.345721,0.116417 -0.634998,0.116417 z"
         id="path45232" />
      <path
         d="m 40.027193,97.718719 h 1.400524 v -0.462137 h -0.91722 v -0.606777 h 0.878415 v -0.462138 h -0.878415 v -0.613832 h 0.91722 v -0.462138 h -1.400524 z"
         id="path45234" />
    </g>
    <g
       aria-label="FOLD"
       id="text34102"
       style="font-weight:600;font-size:3.52777px;line-height:1.25;font-family:'URW Gothic';-inkscape-font-specification:'URW Gothic, Semi-Bold';fill:#ffffff;stroke-width:0.264583"
       transform="translate(0,1.5875)">
      <path
         d="M 7.7348162,62.688831 H 8.2181207 V 61.619917 H 9.0224523 V 61.157779 H 8.2181207 V 60.543947 H 9.0612578 V 60.081809 H 7.7348162 Z"
         id="path45085" />
      <path
         d="m 10.655803,60.035948 c -0.7761098,0 -1.3758308,0.589138 -1.3758308,1.351136 0,0.754943 0.6067765,1.347608 1.3723028,1.347608 0.75847,0 1.34408,-0.589137 1.34408,-1.347608 0,-0.751415 -0.596193,-1.351136 -1.340552,-1.351136 z m -0.0071,0.465666 c 0.483305,0 0.860776,0.388055 0.860776,0.888998 0,0.504471 -0.366888,0.878415 -0.860776,0.878415 -0.493888,0 -0.8819425,-0.388055 -0.8819425,-0.881943 0,-0.504471 0.3809995,-0.88547 0.8819425,-0.88547 z"
         id="path45087" />
      <path
         d="m 12.377348,62.688831 h 1.280581 v -0.462138 h -0.797276 v -2.144884 h -0.483305 z"
         id="path45089" />
      <path
         d="m 13.929562,62.688831 h 0.606777 c 0.39511,0 0.631471,-0.03881 0.843137,-0.144638 0.402166,-0.197555 0.638526,-0.627943 0.638526,-1.153581 0,-0.497416 -0.204611,-0.903109 -0.567971,-1.121831 -0.204611,-0.123472 -0.515054,-0.186972 -0.924276,-0.186972 h -0.596193 z m 0.483305,-0.462138 v -1.682746 h 0.09525 c 0.310443,0 0.472721,0.02822 0.624415,0.105833 0.246944,0.127 0.398638,0.405694 0.398638,0.740832 0,0.313971 -0.144639,0.592665 -0.377472,0.719665 -0.144638,0.07761 -0.345721,0.116416 -0.634998,0.116416 z"
         id="path45091" />
    </g>
    <g
       aria-label="HIGH"
       id="text36838"
       style="font-weight:600;font-size:3.52777px;line-height:1.25;font-family:'URW Gothic';-inkscape-font-specification:'URW Gothic, Semi-Bold';fill:#ffffff;stroke-width:0.264583"
       transform="translate(0,1.0583333)">
      <path
         d="m 20.106717,62.997173 h 0.483305 v -1.093608 h 0.931331 v 1.093608 h 0.483305 v -2.607022 h -0.483305 v 1.051276 h -0.931331 v -1.051276 h -0.483305 z"
         id="path45112" />
      <path
         d="M 22.533815,62.997173 H 23.01712 V 60.390151 H 22.533815 Z"
         id="path45114" />
      <path
         d="m 24.463501,62.118759 h 1.079498 c -0.137583,0.289277 -0.419805,0.45861 -0.765526,0.45861 -0.511527,0 -0.903109,-0.380999 -0.903109,-0.881943 0,-0.225777 0.09525,-0.472721 0.243416,-0.631471 0.151694,-0.162277 0.380999,-0.253999 0.631471,-0.253999 0.303388,0 0.557387,0.123472 0.716137,0.345721 h 0.567971 c -0.169333,-0.469193 -0.705554,-0.811387 -1.273525,-0.811387 -0.765526,0 -1.372303,0.592666 -1.372303,1.344081 0,0.765526 0.61736,1.354663 1.418164,1.354663 0.39511,0 0.730248,-0.137583 0.987775,-0.402165 0.239889,-0.250472 0.373944,-0.575027 0.373944,-0.910165 v -0.0635 h -1.703913 z"
         id="path45116" />
      <path
         d="m 26.506069,62.997173 h 0.483304 v -1.093608 h 0.931332 v 1.093608 h 0.483304 v -2.607022 h -0.483304 v 1.051276 h -0.931332 v -1.051276 h -0.483304 z"
         id="path45118" />
    </g>
    <g
       aria-label="LIFE"
       id="text38692"
       style="font-weight:600;font-size:3.52777px;line-height:1.25;font-family:'URW Gothic';-inkscape-font-specification:'URW Gothic, Semi-Bold';fill:#ffffff;stroke-width:0.264583"
       transform="translate(0,1.0583333)">
      <path
         d="m 33.505265,62.621433 h 1.280581 V 62.159295 H 33.98857 v -2.144884 h -0.483305 z"
         id="path45139" />
      <path
         d="m 35.057479,62.621433 h 0.483305 v -2.607022 h -0.483305 z"
         id="path45141" />
      <path
         d="m 36.045251,62.621433 h 0.483304 v -1.068914 h 0.804332 v -0.462138 h -0.804332 v -0.613832 h 0.843137 v -0.462138 h -1.326441 z"
         id="path45143" />
      <path
         d="m 37.738579,62.621433 h 1.400525 v -0.462138 h -0.917221 v -0.606776 h 0.878415 v -0.462138 h -0.878415 v -0.613832 h 0.917221 v -0.462138 h -1.400525 z"
         id="path45145" />
    </g>
    <path
       style="fill:#ffffff;stroke-width:0.0210438"
       d="m 21.496794,124.54326 v -2.3908 h 2.219925 2.219925 v 2.3908 2.39079 h -2.219925 -2.219925 z m 3.87694,1.9953 c 0.19568,-0.0365 0.209352,-0.0421 0.1946,-0.0797 -0.04424,-0.11286 -0.05762,-0.12861 -0.09844,-0.11597 -0.12296,0.038 -0.370726,0.0691 -0.463304,0.0581 -0.276722,-0.0329 -0.50527,-0.36907 -0.68568,-1.00843 -0.0647,-0.22926 -0.117219,-0.64955 -0.09314,-0.74517 0.0162,-0.0643 9.82e-4,-0.0789 -0.17484,-0.16757 l -0.12432,-0.0627 0.1517,-0.12768 c 0.16068,-0.13524 0.319119,-0.32976 0.379395,-0.46578 0.02066,-0.0466 0.03636,-0.1445 0.03636,-0.22671 0,-0.18902 -0.07608,-0.31334 -0.318559,-0.52059 -0.09756,-0.0834 -0.17738,-0.16793 -0.17738,-0.1879 0,-0.0351 -0.03292,-0.0367 -1.03004,-0.0496 -0.566519,-0.007 -1.032699,-0.0108 -1.035951,-0.008 -0.0032,0.003 -0.0116,0.0921 -0.0186,0.19785 l -0.0128,0.1922 h 0.19006 0.19006 l -0.0154,0.85788 c -0.0084,0.47179 -0.022,1.06957 -0.03014,1.32837 l -0.0148,0.47054 0.14876,0.0123 c 0.08182,0.007 0.1513,0.0102 0.15438,0.008 0.003,-0.003 0.0134,-0.33694 0.02302,-0.74298 l 0.0174,-0.73826 0.415892,0.009 c 0.470514,0.0104 0.607534,0.0355 0.87641,0.16033 l 0.1535,0.0713 0.0148,0.2522 c 0.03444,0.58343 0.315619,1.28521 0.607975,1.51734 0.19094,0.1516 0.374584,0.17927 0.738956,0.11135 z m -1.893177,-2.25129 c -0.04546,-0.01 -0.272868,-0.0227 -0.50535,-0.0288 l -0.422692,-0.0111 0.0154,-0.25351 c 0.0084,-0.13943 0.0154,-0.37013 0.0154,-0.51267 v -0.25915 l 0.678966,0.0114 0.678966,0.0114 0.06706,0.0492 c 0.1181,0.0866 0.19104,0.20567 0.19104,0.3118 0,0.17383 -0.221578,0.45931 -0.478194,0.61609 -0.0783,0.0478 -0.14582,0.0861 -0.15006,0.0851 -0.0042,-10e-4 -0.0449,-0.01 -0.09036,-0.0197 z m 3.416306,2.19677 c -0.02036,-0.0274 -0.06378,-0.12306 -0.09648,-0.21266 -0.056,-0.15344 -0.06088,-0.20288 -0.08404,-0.85175 -0.03384,-0.94774 -0.08636,-1.48714 -0.237592,-2.4406 -0.03832,-0.24153 -0.06484,-0.44296 -0.05898,-0.44763 0.0156,-0.0124 0.29903,-0.0749 0.54417,-0.12006 0.16756,-0.0309 0.284274,-0.0387 0.551384,-0.037 0.345621,0.002 0.453165,-0.014 0.548189,-0.0823 0.031,-0.0223 0.18146,-0.0313 0.766416,-0.0462 0.400314,-0.0102 0.730961,-0.016 0.734769,-0.013 0.0118,0.009 0.14576,0.62803 0.19566,0.90396 0.15112,0.83527 0.19572,1.62851 0.15192,2.70191 l -0.0154,0.37674 -0.332904,0.0328 c -0.459785,0.0453 -0.652565,0.0783 -0.899209,0.15384 l -0.212062,0.0649 -0.12712,-0.0494 c -0.245324,-0.0954 -0.688449,-0.0747 -1.164165,0.0543 l -0.227578,0.0617 z m 1.674883,-0.51098 c -0.007,-0.0954 -0.0186,-0.27049 -0.02582,-0.3891 -0.0072,-0.1186 -0.0391,-0.38018 -0.0709,-0.58129 -0.1197,-0.75677 -0.13432,-0.98355 -0.0643,-0.99809 0.02288,-0.005 0.23059,-0.0332 0.461586,-0.0631 0.391708,-0.0508 0.419232,-0.057 0.408702,-0.092 -0.0062,-0.0206 -0.02462,-0.10784 -0.0409,-0.1938 l -0.0296,-0.15631 -0.10778,0.0126 c -0.05928,0.007 -0.315014,0.0423 -0.568298,0.0787 -0.524504,0.0753 -0.872627,0.0946 -1.157021,0.0643 -0.10832,-0.0116 -0.201114,-0.0177 -0.206224,-0.0136 -0.0098,0.008 -0.07728,0.37419 -0.06988,0.37958 0.0186,0.0135 0.473686,0.0443 0.655556,0.0443 l 0.226123,6e-5 0.02826,0.30005 c 0.0156,0.16503 0.0545,0.45826 0.08656,0.65161 0.0481,0.29003 0.1036,0.8571 0.10554,1.07818 l 4.46e-4,0.0516 h 0.19036 0.19036 z m -10.933068,0.0539 c -0.34582,-1.79358 -0.415787,-2.34122 -0.416185,-3.25749 l -2.34e-4,-0.53624 0.289297,-0.0499 c 0.598664,-0.10319 1.09689,-0.15536 1.907011,-0.19966 0.389606,-0.0213 1.11968,-0.0533 1.124892,-0.0493 0.0017,0.001 -0.0078,0.17539 -0.02102,0.38681 -0.03826,0.60923 0.003,1.05506 0.217148,2.34186 0.08456,0.50826 0.115659,0.72934 0.154919,1.10097 l 0.014,0.13321 -0.455701,0.0584 c -0.476808,0.0611 -0.796976,0.0907 -1.660129,0.15375 -0.50318,0.0367 -0.89092,0.0778 -1.041056,0.11036 l -0.0728,0.0158 z m 1.700751,-0.30778 c 0.03522,-0.26526 0.03958,-0.8127 0.0084,-1.04463 -0.0126,-0.0928 -0.02994,-0.33542 -0.03874,-0.53911 l -0.016,-0.37034 h 0.238446 0.238446 l 0.0154,0.0813 c 0.02408,0.1275 0.02818,0.12944 0.209036,0.0993 0.08746,-0.0145 0.16556,-0.0316 0.17354,-0.038 0.008,-0.006 -0.0098,-0.10219 -0.03942,-0.21302 -0.02966,-0.11082 -0.05952,-0.27533 -0.06634,-0.36558 l -0.0124,-0.16407 h -0.18568 -0.18566 v 0.0656 0.0656 H 18.792848 17.90724 v 0.23439 0.23439 h 0.448708 0.448708 l 6.26e-4,0.17345 c 5.68e-4,0.16195 0.0156,0.38103 0.06748,0.97976 0.0138,0.15862 0.0122,0.33875 -0.0046,0.51567 -0.014,0.14954 -0.02618,0.3183 -0.02688,0.37503 l -0.0013,0.10313 0.224355,0.0194 c 0.1234,0.0107 0.229212,0.0167 0.23515,0.0133 0.006,-0.003 0.02392,-0.10491 0.03996,-0.22568 z m -3.227478,0.2901 c -0.13658,-0.0436 -0.307748,-0.10583 -0.380386,-0.13838 l -0.13206,-0.0592 -0.156879,0.0452 -0.15688,0.0452 -0.17766,-0.0834 -0.17766,-0.0834 -0.354216,0.0256 -0.354216,0.0256 -0.11168,-0.0919 -0.11168,-0.0919 -0.295201,0.0248 c -0.16236,0.0136 -0.299112,0.0225 -0.30389,0.0196 -0.0048,-0.003 0.09062,-0.78191 0.212008,-1.73128 l 0.220697,-1.72612 0.22489,0.0102 c 0.568968,0.0258 0.929428,0.0571 1.826461,0.1585 0.530164,0.0599 0.970222,0.11396 0.977908,0.12006 0.0076,0.006 -0.06688,0.59973 -0.16572,1.31917 -0.09882,0.71943 -0.201952,1.48949 -0.229164,1.71122 -0.063,0.51338 -0.07376,0.5815 -0.0917,0.58039 -0.008,-4.6e-4 -0.12642,-0.0365 -0.262986,-0.0801 z m -0.248468,-0.78089 0.1632,-0.13059 -0.04554,-0.0429 c -0.02506,-0.0236 -0.09064,-0.0824 -0.14574,-0.1308 -0.11306,-0.0992 -0.15794,-0.16931 -0.279872,-0.4371 -0.04696,-0.10313 -0.105959,-0.21587 -0.131099,-0.25052 -0.02788,-0.0384 -0.0377,-0.0713 -0.02516,-0.0844 0.0114,-0.0118 0.174439,-0.17326 0.362515,-0.3589 0.18808,-0.18564 0.349344,-0.34744 0.358356,-0.35957 0.0162,-0.0218 -0.310258,-0.24985 -0.357724,-0.24985 -0.0126,0 -0.14834,0.12415 -0.301583,0.27588 l -0.27861,0.27589 -0.05456,-0.0931 c -0.05488,-0.0936 -0.06084,-0.20019 -0.0186,-0.33214 0.0126,-0.0392 0.008,-0.0516 -0.019,-0.0516 -0.11036,0 -0.35213,-0.0836 -0.512796,-0.17723 -0.09742,-0.0568 -0.19308,-0.10344 -0.2126,-0.10366 -0.03358,-4.6e-4 -0.26086,0.27187 -0.258718,0.30989 10e-4,0.0188 0.286834,0.18249 0.41423,0.23733 0.05932,0.0255 0.07676,0.0471 0.087,0.10777 0.013,0.0767 0.11622,0.26334 0.20281,0.36658 l 0.04718,0.0562 -0.446964,0.43831 c -0.24583,0.24107 -0.446964,0.44093 -0.446964,0.44414 0,0.0135 0.352592,0.23326 0.374262,0.23326 0.013,0 0.17436,-0.14823 0.358452,-0.3294 0.1841,-0.18118 0.33827,-0.32659 0.342608,-0.32315 0.0044,0.003 0.04588,0.0896 0.09232,0.19147 0.04644,0.10186 0.11792,0.23167 0.15884,0.28845 0.06852,0.0951 0.359297,0.36015 0.395095,0.36015 0.0086,0 0.08892,-0.0588 0.1787,-0.13059 z m 14.58386,-0.97575 v -1.78138 h 1.476015 1.476011 v 1.78138 1.78139 h -1.476011 -1.476015 z m 2.515707,1.42343 c 0.156179,-0.0783 0.168859,-0.09 0.131659,-0.12114 -0.0126,-0.0105 -0.013,-0.16803 -0.0012,-0.38347 0.011,-0.20111 0.02064,-0.7306 0.02126,-1.17665 l 0.0012,-0.811 H 32.94231 32.76865 l -0.0152,0.14346 c -0.0084,0.0789 -0.0152,0.48394 -0.0152,0.90007 0,0.42107 -0.0092,0.75661 -0.02072,0.75661 -0.0114,0 -0.0425,-0.0402 -0.06914,-0.0894 -0.251768,-0.4647 -0.601542,-1.00632 -0.82627,-1.27948 -0.07212,-0.0877 -0.12998,-0.17397 -0.12858,-0.19178 0.0015,-0.0178 -0.0313,-0.0511 -0.0727,-0.0739 -0.04138,-0.0228 -0.14176,-0.0903 -0.223078,-0.14997 -0.158739,-0.11648 -0.266917,-0.15184 -0.531133,-0.17358 l -0.1358,-0.0112 v 0.13846 c 0,0.0761 -0.0064,0.16391 -0.0142,0.19502 -0.0142,0.0562 -0.0134,0.0566 0.11218,0.069 0.06954,0.007 0.1489,0.0212 0.17636,0.032 0.0488,0.0191 0.04912,0.0221 0.0138,0.13336 -0.02964,0.0934 -0.03118,0.13283 -0.0086,0.21966 0.0186,0.0716 0.02752,0.38559 0.02752,0.97192 v 0.86612 h 0.16236 0.162359 l 0.0148,-0.0586 c 0.0082,-0.0322 0.0148,-0.46709 0.0148,-0.96636 0,-0.89133 8.94e-4,-0.9074 0.04562,-0.88836 0.07856,0.0334 0.351666,0.41529 0.603912,0.84449 0.35529,0.60453 0.46839,0.78711 0.606922,0.97976 0.07972,0.11087 0.14872,0.20158 0.1533,0.20158 0.0046,0 0.07718,-0.0345 0.16128,-0.0767 z"
       id="path365" />
  </g>
</svg>
