<?xml version="1.0" encoding="UTF-8" standalone="no"?>
<svg
   xmlns:dc="http://purl.org/dc/elements/1.1/"
   xmlns:cc="http://creativecommons.org/ns#"
   xmlns:rdf="http://www.w3.org/1999/02/22-rdf-syntax-ns#"
   xmlns:svg="http://www.w3.org/2000/svg"
   xmlns="http://www.w3.org/2000/svg"
   xmlns:sodipodi="http://sodipodi.sourceforge.net/DTD/sodipodi-0.dtd"
   xmlns:inkscape="http://www.inkscape.org/namespaces/inkscape"
   width="30.48mm"
   height="128.5mm"
   viewBox="0 0 30.480002 128.50002"
   version="1.1"
   id="svg8"
   inkscape:version="1.0.2 (e86c870879, 2021-01-15, custom)"
   sodipodi:docname="Opabinia.svg">
  <defs
     id="defs2" />
  <sodipodi:namedview
     id="base"
     pagecolor="#ffffff"
     bordercolor="#666666"
     borderopacity="1.0"
     inkscape:pageopacity="0.0"
     inkscape:pageshadow="2"
     inkscape:zoom="1.4"
     inkscape:cx="206.81168"
     inkscape:cy="173.10322"
     inkscape:document-units="mm"
     inkscape:current-layer="layer2"
     showgrid="false"
     units="mm"
     inkscape:snap-bbox="true"
     inkscape:snap-page="true"
     inkscape:bbox-nodes="false"
     inkscape:snap-bbox-edge-midpoints="false"
     inkscape:window-width="1366"
     inkscape:window-height="768"
     inkscape:window-x="0"
     inkscape:window-y="0"
     inkscape:window-maximized="0"
     inkscape:snap-bbox-midpoints="true"
     inkscape:snap-nodes="false"
     inkscape:document-rotation="0" />
  <metadata
     id="metadata5">
    <rdf:RDF>
      <cc:Work
         rdf:about="">
        <dc:format>image/svg+xml</dc:format>
        <dc:type
           rdf:resource="http://purl.org/dc/dcmitype/StillImage" />
        <dc:title />
      </cc:Work>
    </rdf:RDF>
  </metadata>
  <g
     inkscape:label="Layer 1"
     inkscape:groupmode="layer"
     id="layer1"
     transform="translate(0,-168.49998)">
    <rect
       style="display:inline;opacity:1;vector-effect:none;fill:#333333;fill-opacity:1;fill-rule:evenodd;stroke:none;stroke-width:0.64935839;stroke-linecap:butt;stroke-linejoin:miter;stroke-miterlimit:4;stroke-dasharray:none;stroke-dashoffset:0;stroke-opacity:1;paint-order:normal"
       id="rect420"
       width="30.48"
       height="128.5"
       x="5.9211732e-17"
       y="168.49997" />
    <g
       aria-label="Pitch"
       style="font-style:normal;font-variant:normal;font-weight:300;font-stretch:normal;font-size:4.93888855px;line-height:6.61458302px;font-family:'Gotham Rounded';-inkscape-font-specification:'Gotham Rounded Light';font-variant-ligatures:normal;font-variant-caps:normal;font-variant-numeric:normal;font-feature-settings:normal;text-align:center;letter-spacing:0px;word-spacing:0px;writing-mode:lr-tb;text-anchor:middle;display:inline;fill:#000000;fill-opacity:1;stroke:none;stroke-width:0.26458332px;stroke-linecap:butt;stroke-linejoin:miter;stroke-opacity:1"
       id="text4944"
       transform="translate(0,10.583334)" />
    <g
       aria-label="XTRTN"
       id="text42"
       style="font-style:normal;font-weight:normal;font-size:10.5833px;line-height:1.25;font-family:sans-serif;fill:#ffffff;fill-opacity:1;stroke:none;stroke-width:0.264583"
       transform="translate(-0.23269329,4.27373)">
      <path
         d="m 7.2837105,177.12181 h 1.4746121 l -1.8132789,-2.58939 1.6157232,-2.30717 H 7.1284882 l -0.8184449,1.3335 -0.818445,-1.3335 H 4.0452085 l 1.6086677,2.34245 -1.7215567,2.55411 h 1.4181676 l 0.9313339,-1.60867 z"
         style="font-style:normal;font-variant:normal;font-weight:800;font-stretch:normal;font-size:7.05556px;font-family:Cantarell;-inkscape-font-specification:'Cantarell, Ultra-Bold';font-variant-ligatures:normal;font-variant-caps:normal;font-variant-numeric:normal;font-variant-east-asian:normal;fill:#ffffff;stroke-width:0.264583"
         id="path55" />
      <path
         d="m 10.204702,177.12181 h 1.199445 v -3.82411 h 1.524001 v -1.07245 H 8.6948123 v 1.07245 h 1.5098897 z"
         style="font-style:normal;font-variant:normal;font-weight:800;font-stretch:normal;font-size:7.05556px;font-family:Cantarell;-inkscape-font-specification:'Cantarell, Ultra-Bold';font-variant-ligatures:normal;font-variant-caps:normal;font-variant-numeric:normal;font-variant-east-asian:normal;fill:#ffffff;stroke-width:0.264583"
         id="path57" />
      <path
         d="m 13.478471,177.12181 h 1.220612 v -1.67217 h 0.543278 l 0.952501,1.67217 h 1.467556 l -1.220612,-1.92617 c 0.550334,-0.29633 0.881945,-0.8255 0.881945,-1.48872 0,-0.94545 -0.677334,-1.48167 -1.82739,-1.48167 h -2.01789 z m 1.220612,-2.70933 v -1.12184 h 0.627945 c 0.458611,0 0.726722,0.21872 0.726722,0.58561 0,0.33161 -0.197555,0.53623 -0.557389,0.53623 z"
         style="font-style:normal;font-variant:normal;font-weight:800;font-stretch:normal;font-size:7.05556px;font-family:Cantarell;-inkscape-font-specification:'Cantarell, Ultra-Bold';font-variant-ligatures:normal;font-variant-caps:normal;font-variant-numeric:normal;font-variant-east-asian:normal;fill:#ffffff;stroke-width:0.264583"
         id="path59" />
      <path
         d="m 19.271083,177.12181 h 1.199445 v -3.82411 h 1.524001 v -1.07245 h -4.233336 v 1.07245 h 1.50989 z"
         style="font-style:normal;font-variant:normal;font-weight:800;font-stretch:normal;font-size:7.05556px;font-family:Cantarell;-inkscape-font-specification:'Cantarell, Ultra-Bold';font-variant-ligatures:normal;font-variant-caps:normal;font-variant-numeric:normal;font-variant-east-asian:normal;fill:#ffffff;stroke-width:0.264583"
         id="path61" />
      <path
         d="m 22.544852,177.12181 h 1.157112 v -3.21733 l 2.032002,3.21733 h 1.368778 v -4.89656 h -1.171223 l -0.01411,3.18912 -1.975557,-3.18912 h -1.397001 z"
         style="font-style:normal;font-variant:normal;font-weight:800;font-stretch:normal;font-size:7.05556px;font-family:Cantarell;-inkscape-font-specification:'Cantarell, Ultra-Bold';font-variant-ligatures:normal;font-variant-caps:normal;font-variant-numeric:normal;font-variant-east-asian:normal;fill:#ffffff;stroke-width:0.264583"
         id="path63" />
    </g>
    <text
       xml:space="preserve"
       style="font-style:normal;font-weight:normal;font-size:10.5833px;line-height:1.25;font-family:sans-serif;fill:#000000;fill-opacity:1;stroke:none;stroke-width:0.264583"
       x="10.375626"
       y="254.64096"
       id="text72"><tspan
         sodipodi:role="line"
         id="tspan70"
         x="10.375626"
         y="254.64096"
         style="stroke-width:0.264583" /></text>
  </g>
  <g
     inkscape:groupmode="layer"
     id="layer2"
     inkscape:label="components">
    <text
       xml:space="preserve"
       style="font-style:normal;font-weight:normal;font-size:10.5833px;line-height:1.25;font-family:sans-serif;fill:#000000;fill-opacity:1;stroke:none;stroke-width:0.264583"
       x="-65.249954"
       y="111.72212"
       id="text144"><tspan
         sodipodi:role="line"
         id="tspan142"
         x="-65.249954"
         y="111.72212"
         style="stroke-width:0.264583" /></text>
    <path
       id="rect179-7"
       style="fill:#000000;stroke-width:0.191119"
       d="m 15.981234,108.989 h 12 v 12 h -12 z" />
    <g
       aria-label="opabinia"
       transform="matrix(0.98466464,0,0,1.0155742,0,-4.4998521)"
       id="text270"
       style="font-style:normal;font-weight:normal;font-size:5.26182px;line-height:1.25;font-family:sans-serif;fill:#008080;fill-opacity:1;stroke:none;stroke-width:0.131546">
      <path
         d="m 6.2640476,19.556508 q -0.3802487,0 -0.601204,0.298033 -0.2209554,0.295463 -0.2209554,0.811882 0,0.516419 0.2183861,0.814452 0.2209553,0.295463 0.6037733,0.295463 0.3776794,0 0.5986348,-0.298033 0.2209553,-0.298032 0.2209553,-0.811882 0,-0.51128 -0.2209553,-0.809313 Q 6.641727,19.556508 6.2640476,19.556508 Z m 0,-0.400803 q 0.6166195,0 0.9686065,0.400803 0.3519869,0.400802 0.3519869,1.109915 0,0.706543 -0.3519869,1.109915 -0.351987,0.400803 -0.9686065,0.400803 -0.6191888,0 -0.9711758,-0.400803 -0.3494177,-0.403372 -0.3494177,-1.109915 0,-0.709113 0.3494177,-1.109915 0.351987,-0.400803 0.9711758,-0.400803 z"
         style="fill:#008080;stroke-width:0.131546"
         id="path290" />
      <path
         d="m 8.8255877,21.670999 v 1.526133 H 8.3502768 v -3.972057 h 0.4753109 v 0.436772 q 0.1490164,-0.256925 0.3751102,-0.380249 0.2286631,-0.125893 0.5446806,-0.125893 0.5241265,0 0.8504215,0.416218 0.328863,0.416218 0.328863,1.0945 0,0.678281 -0.328863,1.0945 -0.326295,0.416218 -0.8504215,0.416218 -0.3160175,0 -0.5446806,-0.123324 -0.2260938,-0.125893 -0.3751102,-0.382818 z m 1.6083493,-1.004576 q 0,-0.521557 -0.215817,-0.817021 -0.213247,-0.298033 -0.5883577,-0.298033 -0.3751102,0 -0.590927,0.298033 -0.2132476,0.295464 -0.2132476,0.817021 0,0.521557 0.2132476,0.81959 0.2158168,0.295464 0.590927,0.295464 0.3751107,0 0.5883577,-0.295464 0.215817,-0.298033 0.215817,-0.81959 z"
         style="fill:#008080;stroke-width:0.131546"
         id="path292" />
      <path
         d="m 13.016031,20.656146 q -0.572942,0 -0.793898,0.131032 -0.220955,0.131031 -0.220955,0.447049 0,0.251786 0.164432,0.400802 0.167001,0.146448 0.452188,0.146448 0.393095,0 0.629465,-0.277479 0.23894,-0.280048 0.23894,-0.742513 v -0.105339 z m 0.942914,-0.195263 v 1.64175 H 13.486203 V 21.66586 q -0.161862,0.262064 -0.403371,0.387957 -0.24151,0.123324 -0.590927,0.123324 -0.441911,0 -0.703974,-0.246648 -0.259494,-0.249217 -0.259494,-0.665435 0,-0.485588 0.323725,-0.732236 0.326294,-0.246648 0.971176,-0.246648 h 0.662865 v -0.04625 q 0,-0.326295 -0.215816,-0.503573 -0.213248,-0.179847 -0.601204,-0.179847 -0.246648,0 -0.48045,0.05909 -0.233801,0.05909 -0.449618,0.177279 V 19.3561 q 0.259494,-0.1002 0.503572,-0.149016 0.244079,-0.05138 0.475311,-0.05138 0.624328,0 0.932637,0.323725 0.30831,0.323726 0.30831,0.981453 z"
         style="fill:#008080;stroke-width:0.131546"
         id="path294" />
      <path
         d="m 16.998366,20.666423 q 0,-0.521557 -0.215817,-0.817021 -0.213248,-0.298033 -0.588358,-0.298033 -0.37511,0 -0.590927,0.298033 -0.213248,0.295464 -0.213248,0.817021 0,0.521557 0.213248,0.81959 0.215817,0.295464 0.590927,0.295464 0.37511,0 0.588358,-0.295464 0.215817,-0.298033 0.215817,-0.81959 z m -1.60835,-1.004576 q 0.149017,-0.256925 0.37511,-0.380249 0.228664,-0.125893 0.544681,-0.125893 0.524127,0 0.850421,0.416218 0.328864,0.416218 0.328864,1.0945 0,0.678281 -0.328864,1.0945 -0.326294,0.416218 -0.850421,0.416218 -0.316017,0 -0.544681,-0.123324 -0.226093,-0.125893 -0.37511,-0.382818 v 0.431634 h -0.475311 v -3.99775 h 0.475311 z"
         style="fill:#008080;stroke-width:0.131546"
         id="path296" />
      <path
         d="m 18.272712,19.225075 h 0.472742 v 2.877558 h -0.472742 z m 0,-1.120192 h 0.472742 v 0.598634 h -0.472742 z"
         style="fill:#008080;stroke-width:0.131546"
         id="path298" />
      <path
         d="m 22.126585,20.365821 v 1.736812 h -0.472742 v -1.721397 q 0,-0.40851 -0.159293,-0.611481 -0.159294,-0.20297 -0.47788,-0.20297 -0.382818,0 -0.603774,0.244078 -0.220955,0.244079 -0.220955,0.665436 v 1.626334 H 19.71663 v -2.877558 h 0.475311 v 0.447049 q 0.16957,-0.259494 0.398233,-0.387956 0.231233,-0.128463 0.531835,-0.128463 0.495865,0 0.75022,0.30831 0.254356,0.30574 0.254356,0.901806 z"
         style="fill:#008080;stroke-width:0.131546"
         id="path300" />
      <path
         d="m 23.069499,19.225075 h 0.472742 v 2.877558 h -0.472742 z m 0,-1.120192 h 0.472742 v 0.598634 h -0.472742 z"
         style="fill:#008080;stroke-width:0.131546"
         id="path302" />
      <path
         d="m 25.839147,20.656146 q -0.572942,0 -0.793897,0.131032 -0.220956,0.131031 -0.220956,0.447049 0,0.251786 0.164432,0.400802 0.167001,0.146448 0.452188,0.146448 0.393095,0 0.629466,-0.277479 0.23894,-0.280048 0.23894,-0.742513 v -0.105339 z m 0.942914,-0.195263 v 1.64175 H 26.30932 V 21.66586 q -0.161863,0.262064 -0.403372,0.387957 -0.241509,0.123324 -0.590927,0.123324 -0.441911,0 -0.703974,-0.246648 -0.259494,-0.249217 -0.259494,-0.665435 0,-0.485588 0.323725,-0.732236 0.326295,-0.246648 0.971176,-0.246648 h 0.662866 v -0.04625 q 0,-0.326295 -0.215817,-0.503573 -0.213248,-0.179847 -0.601204,-0.179847 -0.246648,0 -0.480449,0.05909 -0.233802,0.05909 -0.449619,0.177279 V 19.3561 q 0.259494,-0.1002 0.503573,-0.149016 0.244078,-0.05138 0.475311,-0.05138 0.624327,0 0.932637,0.323725 0.308309,0.323726 0.308309,0.981453 z"
         style="fill:#008080;stroke-width:0.131546"
         id="path304" />
    </g>
    <g
       aria-label="trig"
       transform="matrix(1.0106849,0,0,0.98942807,1.6783161,-1.534261)"
       id="text90"
       style="font-style:normal;font-weight:normal;font-size:13.2426px;line-height:1.25;font-family:sans-serif;fill:#f9f9f9;fill-opacity:1;stroke:none;stroke-width:0.331066">
      <path
         d="m 4.3488577,122.78364 v 0.54833 H 5.002368 v 0.24657 H 4.3488577 v 1.04838 q 0,0.23623 0.063799,0.30347 0.065524,0.0673 0.2638182,0.0673 h 0.325893 v 0.26554 H 4.676475 q -0.3672763,0 -0.5069447,-0.13622 -0.1396685,-0.13794 -0.1396685,-0.50004 v -1.04838 H 3.7970811 v -0.24657 h 0.2327807 v -0.54833 z"
         style="font-size:3.53137px;fill:#f9f9f9;stroke-width:0.331066"
         id="path92" />
      <path
         d="m 6.5387208,123.62855 q -0.053453,-0.031 -0.1172525,-0.0448 -0.062075,-0.0155 -0.1379442,-0.0155 -0.268991,0 -0.4138324,0.17587 -0.143117,0.17416 -0.143117,0.50178 v 1.01733 H 5.4075789 v -1.93121 h 0.3189958 v 0.30002 q 0.1000095,-0.17587 0.2603695,-0.26037 0.1603601,-0.0862 0.3896922,-0.0862 0.032762,0 0.072421,0.005 0.039659,0.003 0.087939,0.0121 z"
         style="font-size:3.53137px;fill:#f9f9f9;stroke-width:0.331066"
         id="path94" />
      <path
         d="m 6.8715111,123.33197 h 0.3172715 v 1.93121 H 6.8715111 Z m 0,-0.7518 h 0.3172715 v 0.40176 H 6.8715111 Z"
         style="font-size:3.53137px;fill:#f9f9f9;stroke-width:0.331066"
         id="path96" />
      <path
         d="m 9.1234492,124.27516 q 0,-0.34486 -0.1431171,-0.53453 -0.1413927,-0.18968 -0.3983137,-0.18968 -0.2551966,0 -0.3983137,0.18968 -0.1413927,0.18967 -0.1413927,0.53453 0,0.34313 0.1413927,0.53281 0.1431171,0.18967 0.3983137,0.18967 0.256921,0 0.3983137,-0.18967 0.1431171,-0.18968 0.1431171,-0.53281 z m 0.3172715,0.74835 q 0,0.49315 -0.2189863,0.73282 -0.2189863,0.24141 -0.6707534,0.24141 -0.1672573,0 -0.3155472,-0.0259 -0.1482899,-0.0241 -0.2879584,-0.0759 v -0.30865 q 0.1396685,0.0759 0.2758883,0.11208 0.1362198,0.0362 0.2776126,0.0362 0.3120986,0 0.4672857,-0.16381 0.1551872,-0.16208 0.1551872,-0.49142 v -0.15691 q -0.098285,0.1707 -0.2517481,0.25519 -0.1534628,0.0845 -0.3672762,0.0845 -0.3552062,0 -0.5724682,-0.27071 -0.217262,-0.27072 -0.217262,-0.71731 0,-0.44832 0.217262,-0.71904 0.217262,-0.27071 0.5724682,-0.27071 0.2138134,0 0.3672762,0.0845 0.1534629,0.0845 0.2517481,0.2552 v -0.29313 h 0.3172715 z"
         style="font-size:3.53137px;fill:#f9f9f9;stroke-width:0.331066"
         id="path98" />
    </g>
    <g
       aria-label="fold"
       id="text140"
       style="font-size:3.52777px;line-height:1.25;font-family:sans-serif;fill:#f2f2f2;stroke-width:0.264583"
       transform="translate(0,2.99962)">
      <path
         d="m 19.957176,102.59738 v 0.26355 h -0.303168 q -0.170531,0 -0.237711,0.0689 -0.06546,0.0689 -0.06546,0.24805 v 0.17053 h 0.52193 v 0.24632 h -0.52193 v 1.68293 H 19.03217 v -1.68293 h -0.303168 v -0.24632 h 0.303168 v -0.13436 q 0,-0.32212 0.149861,-0.46853 0.149862,-0.14814 0.475422,-0.14814 z"
         style="fill:#f2f2f2;stroke-width:0.264583"
         id="path164" />
      <path
         d="m 20.970032,103.57062 q -0.254937,0 -0.403075,0.19981 -0.148139,0.19809 -0.148139,0.54432 0,0.34624 0.146416,0.54605 0.148139,0.19809 0.404798,0.19809 0.253214,0 0.401353,-0.19981 0.148138,-0.19982 0.148138,-0.54433 0,-0.34278 -0.148138,-0.5426 -0.148139,-0.20153 -0.401353,-0.20153 z m 0,-0.26872 q 0.413411,0 0.649399,0.26872 0.235989,0.26871 0.235989,0.74413 0,0.4737 -0.235989,0.74414 -0.235988,0.26872 -0.649399,0.26872 -0.415133,0 -0.651122,-0.26872 -0.234266,-0.27044 -0.234266,-0.74414 0,-0.47542 0.234266,-0.74413 0.235989,-0.26872 0.651122,-0.26872 z"
         style="fill:#f2f2f2;stroke-width:0.264583"
         id="path166" />
      <path
         d="m 22.380796,102.59738 h 0.316948 v 2.68028 h -0.316948 z"
         style="fill:#f2f2f2;stroke-width:0.264583"
         id="path168" />
      <path
         d="m 24.630438,103.64124 v -1.04386 h 0.316948 v 2.68028 h -0.316948 v -0.28939 q -0.09991,0.17225 -0.253214,0.25666 -0.151584,0.0827 -0.365179,0.0827 -0.349677,0 -0.570163,-0.27905 -0.218763,-0.27905 -0.218763,-0.73381 0,-0.45475 0.218763,-0.7338 0.220486,-0.27905 0.570163,-0.27905 0.213595,0 0.365179,0.0844 0.153306,0.0827 0.253214,0.25494 z m -1.080035,0.67351 q 0,0.34968 0.142971,0.5495 0.144694,0.19809 0.396185,0.19809 0.251491,0 0.396185,-0.19809 0.144694,-0.19982 0.144694,-0.5495 0,-0.34967 -0.144694,-0.54776 -0.144694,-0.19982 -0.396185,-0.19982 -0.251491,0 -0.396185,0.19982 -0.142971,0.19809 -0.142971,0.54776 z"
         style="fill:#f2f2f2;stroke-width:0.264583"
         id="path170" />
    </g>
    <g
       aria-label="squaring"
       transform="matrix(0.97873225,0,0,1.0217299,0,3.0000306)"
       id="text145"
       style="font-size:2.90379px;line-height:1.25;font-family:sans-serif;fill:#f9f9f9;stroke-width:0.217784">
      <path
         d="m 2.8967073,101.20522 v 0.24671 q -0.1105936,-0.0567 -0.2296943,-0.0851 -0.1191008,-0.0284 -0.2467088,-0.0284 -0.1942476,0 -0.2920804,0.0596 -0.096415,0.0596 -0.096415,0.17865 0,0.0907 0.069475,0.1432 0.069475,0.0511 0.2793197,0.0978 l 0.089326,0.0199 q 0.2779017,0.0596 0.3941668,0.16873 0.1176829,0.10776 0.1176829,0.30201 0,0.22118 -0.1758155,0.35021 -0.1743975,0.12903 -0.4806566,0.12903 -0.127608,0 -0.2665588,-0.0255 -0.1375331,-0.0241 -0.2906626,-0.0737 v -0.26939 q 0.1446223,0.0752 0.2849911,0.11343 0.1403687,0.0369 0.2779018,0.0369 0.1843226,0 0.2835732,-0.0624 0.099251,-0.0638 0.099251,-0.17865 0,-0.10634 -0.072311,-0.16306 -0.070893,-0.0567 -0.3133485,-0.10917 l -0.090743,-0.0213 q -0.2424551,-0.051 -0.350213,-0.15597 -0.1077578,-0.10634 -0.1077578,-0.29066 0,-0.22402 0.158801,-0.34596 0.158801,-0.12194 0.4508815,-0.12194 0.1446223,0 0.2722303,0.0213 0.127608,0.0213 0.2353658,0.0638 z"
         style="fill:#f9f9f9;stroke-width:0.217784"
         id="path147" />
      <path
         d="m 3.5531794,101.95385 q 0,0.28783 0.1176829,0.4523 0.1191007,0.16305 0.3261092,0.16305 0.2070085,0 0.3261092,-0.16305 0.1191008,-0.16447 0.1191008,-0.4523 0,-0.28783 -0.1191008,-0.45088 -0.1191007,-0.16447 -0.3261092,-0.16447 -0.2070085,0 -0.3261092,0.16447 -0.1176829,0.16305 -0.1176829,0.45088 z m 0.8890021,0.55439 q -0.082236,0.14178 -0.2084263,0.21126 -0.1247723,0.0681 -0.3005877,0.0681 -0.2878268,0 -0.4693137,-0.2297 -0.180069,-0.22969 -0.180069,-0.60401 0,-0.37432 0.180069,-0.60401 0.1814869,-0.2297 0.4693137,-0.2297 0.1758154,0 0.3005877,0.0695 0.12619,0.0681 0.2084263,0.20984 v -0.24103 h 0.2608874 v 2.19202 H 4.4421815 Z"
         style="fill:#f9f9f9;stroke-width:0.217784"
         id="path149" />
      <path
         d="m 5.2135007,102.11974 v -0.96131 h 0.2608874 v 0.95139 q 0,0.22544 0.087908,0.33887 0.087908,0.11201 0.2637231,0.11201 0.2112621,0 0.3331986,-0.1347 0.1233543,-0.1347 0.1233543,-0.36723 v -0.90034 h 0.2608874 v 1.58801 H 6.2825718 v -0.24388 q -0.094997,0.14463 -0.2211871,0.21552 -0.1247722,0.0695 -0.2906626,0.0695 -0.2736482,0 -0.4154348,-0.17015 -0.1417866,-0.17014 -0.1417866,-0.49767 z m 0.6564721,-0.9996 z"
         style="fill:#f9f9f9;stroke-width:0.217784"
         id="path151" />
      <path
         d="m 7.8025245,101.94818 q -0.3161842,0 -0.4381206,0.0723 -0.1219365,0.0723 -0.1219365,0.24671 0,0.13895 0.090743,0.22119 0.092161,0.0808 0.2495444,0.0808 0.2169336,0 0.3473773,-0.15313 0.1318615,-0.15454 0.1318615,-0.40976 v -0.0581 z m 0.5203569,-0.10776 v 0.90602 H 8.061994 v -0.24104 q -0.089326,0.14462 -0.222605,0.2141 -0.1332794,0.0681 -0.3261092,0.0681 -0.243873,0 -0.3884953,-0.13612 -0.1432045,-0.13753 -0.1432045,-0.36723 0,-0.26797 0.1786511,-0.40409 0.180069,-0.13611 0.5359534,-0.13611 H 8.061994 v -0.0255 q 0,-0.18006 -0.1191007,-0.2779 -0.1176829,-0.0992 -0.3317807,-0.0992 -0.1361152,0 -0.265141,0.0326 -0.1290258,0.0326 -0.2481266,0.0978 v -0.24104 q 0.1432045,-0.0553 0.2779018,-0.0822 0.1346973,-0.0284 0.2623052,-0.0284 0.3445415,0 0.5146855,0.17866 0.1701439,0.17865 0.1701439,0.54162 z"
         style="fill:#f9f9f9;stroke-width:0.217784"
         id="path153" />
      <path
         d="m 9.7804476,101.4023 q -0.043954,-0.0255 -0.096415,-0.0369 -0.051043,-0.0128 -0.1134293,-0.0128 -0.2211871,0 -0.3402879,0.14463 -0.1176829,0.1432 -0.1176829,0.4126 v 0.83654 H 8.8503274 v -1.58801 h 0.2623052 v 0.24671 q 0.082236,-0.14463 0.2140978,-0.2141 0.1318616,-0.0709 0.3204378,-0.0709 0.026939,0 0.05955,0.004 0.032611,0.003 0.072311,0.01 z"
         style="fill:#f9f9f9;stroke-width:0.217784"
         id="path155" />
      <path
         d="m 10.054096,101.15843 h 0.260888 v 1.58801 h -0.260888 z m 0,-0.61819 h 0.260888 v 0.33036 h -0.260888 z"
         style="fill:#f9f9f9;stroke-width:0.217784"
         id="path157" />
      <path
         d="m 12.180895,101.78796 v 0.95848 h -0.260887 v -0.94997 q 0,-0.22544 -0.08791,-0.33746 -0.08791,-0.11201 -0.263723,-0.11201 -0.211262,0 -0.333199,0.1347 -0.121936,0.1347 -0.121936,0.36723 v 0.89751 h -0.262305 v -1.58801 h 0.262305 v 0.24671 q 0.09358,-0.14321 0.219769,-0.2141 0.127608,-0.0709 0.293499,-0.0709 0.273648,0 0.414017,0.17015 0.140368,0.16872 0.140368,0.49767 z"
         style="fill:#f9f9f9;stroke-width:0.217784"
         id="path159" />
      <path
         d="m 13.746219,101.934 q 0,-0.28357 -0.117682,-0.43954 -0.116266,-0.15596 -0.327528,-0.15596 -0.209844,0 -0.327527,0.15596 -0.116265,0.15597 -0.116265,0.43954 0,0.28216 0.116265,0.43812 0.117683,0.15597 0.327527,0.15597 0.211262,0 0.327528,-0.15597 0.117682,-0.15596 0.117682,-0.43812 z m 0.260888,0.61535 q 0,0.40551 -0.180069,0.6026 -0.180069,0.1985 -0.55155,0.1985 -0.137533,0 -0.25947,-0.0213 -0.121936,-0.0198 -0.236783,-0.0624 V 103.013 q 0.114847,0.0624 0.226858,0.0922 0.112012,0.0298 0.228277,0.0298 0.256633,0 0.384241,-0.13469 0.127608,-0.13328 0.127608,-0.4041 v -0.12902 q -0.08082,0.14037 -0.207008,0.20984 -0.12619,0.0695 -0.302006,0.0695 -0.29208,0 -0.470731,-0.22261 -0.178651,-0.2226 -0.178651,-0.58983 0,-0.36865 0.178651,-0.59125 0.178651,-0.22261 0.470731,-0.22261 0.175816,0 0.302006,0.0695 0.12619,0.0695 0.207008,0.20984 v -0.24103 h 0.260888 z"
         style="fill:#f9f9f9;stroke-width:0.217784"
         id="path161" />
    </g>
    <path
       style="fill:#e5ffd5;stroke:#fffff2;stroke-width:1.37991px;stroke-linecap:butt;stroke-linejoin:miter;stroke-opacity:1"
       d="M 8.4824919,101.56492 8.4715843,80.569136"
       id="path1029" />
    <path
       style="fill:#e5ffd5;stroke:#fffff2;stroke-width:1.38227px;stroke-linecap:butt;stroke-linejoin:miter;stroke-opacity:1"
       d="M 22.186267,101.56503 22.17536,80.495063"
       id="path1029-5" />
    <text
       xml:space="preserve"
       style="font-size:3.52777px;line-height:1.25;font-family:sans-serif;stroke-width:0.264583"
       x="17.94903"
       y="75.780609"
       id="text1055"><tspan
         sodipodi:role="line"
         id="tspan1053"
         x="17.94903"
         y="75.780609"
         style="stroke-width:0.264583" /></text>
    <g
       aria-label="high       low"
       id="text1063"
       style="font-size:3.52777px;line-height:1.25;font-family:sans-serif;fill:#e5ffd5;stroke-width:0.264583"
       transform="translate(0,-2.6458334)">
      <path
         d="m 6.1508148,75.502713 v 1.164439 h -0.316948 v -1.154104 q 0,-0.273885 -0.1067978,-0.409966 -0.1067977,-0.13608 -0.3203931,-0.13608 -0.2566591,0 -0.4047979,0.163641 -0.1481388,0.163642 -0.1481388,0.446139 v 1.09037 H 4.5350686 v -2.680278 h 0.3186706 v 1.050752 q 0.1136879,-0.173977 0.2669944,-0.260104 0.1550289,-0.08613 0.3565666,-0.08613 0.3324509,0 0.5029828,0.206706 0.1705318,0.204982 0.1705318,0.604613 z"
         style="fill:#e5ffd5;stroke-width:0.264583"
         id="path1065" />
      <path
         d="m 6.7829884,74.737903 h 0.3169481 v 1.929249 H 6.7829884 Z m 0,-0.751029 h 0.3169481 v 0.401353 H 6.7829884 Z"
         style="fill:#e5ffd5;stroke-width:0.264583"
         id="path1067" />
      <path
         d="m 9.0326309,75.680135 q 0,-0.344509 -0.1429711,-0.533989 -0.1412486,-0.18948 -0.3979077,-0.18948 -0.2549365,0 -0.3979077,0.18948 -0.1412486,0.18948 -0.1412486,0.533989 0,0.342786 0.1412486,0.532266 0.1429712,0.18948 0.3979077,0.18948 0.2566591,0 0.3979077,-0.18948 0.1429711,-0.18948 0.1429711,-0.532266 z m 0.3169481,0.747584 q 0,0.492647 -0.2187631,0.732081 -0.2187631,0.241156 -0.6700696,0.241156 -0.1670868,0 -0.3152255,-0.02584 -0.1481388,-0.02412 -0.2876649,-0.07579 v -0.308335 q 0.1395261,0.07579 0.2756071,0.111965 0.1360809,0.03617 0.2773295,0.03617 0.3117805,0 0.4668094,-0.163641 0.155029,-0.161919 0.155029,-0.490925 v -0.156752 q -0.098185,0.170532 -0.2514914,0.254937 -0.1533064,0.0844 -0.3669019,0.0844 -0.354844,0 -0.5718846,-0.270439 -0.2170405,-0.270439 -0.2170405,-0.716578 0,-0.447862 0.2170405,-0.718301 0.2170406,-0.27044 0.5718846,-0.27044 0.2135955,0 0.3669019,0.08441 0.1533064,0.0844 0.2514914,0.254937 V 74.737903 H 9.349579 Z"
         style="fill:#e5ffd5;stroke-width:0.264583"
         id="path1069" />
      <path
         d="m 11.606111,75.502713 v 1.164439 h -0.316948 v -1.154104 q 0,-0.273885 -0.106797,-0.409966 -0.106798,-0.13608 -0.320394,-0.13608 -0.256659,0 -0.404797,0.163641 -0.148139,0.163642 -0.148139,0.446139 v 1.09037 H 9.9903651 v -2.680278 h 0.3186709 v 1.050752 q 0.113688,-0.173977 0.266994,-0.260104 0.155029,-0.08613 0.356567,-0.08613 0.332451,0 0.502983,0.206706 0.170531,0.204982 0.170531,0.604613 z"
         style="fill:#e5ffd5;stroke-width:0.264583"
         id="path1071" />
      <path
         d="m 20.087918,73.986874 h 0.316948 v 2.680278 h -0.316948 z"
         style="fill:#e5ffd5;stroke-width:0.264583"
         id="path1073" />
      <path
         d="m 21.81563,74.960111 q -0.254936,0 -0.403075,0.199815 -0.148139,0.198093 -0.148139,0.544324 0,0.346232 0.146416,0.546047 0.148139,0.198092 0.404798,0.198092 0.253214,0 0.401353,-0.199815 0.148139,-0.199815 0.148139,-0.544324 0,-0.342786 -0.148139,-0.542601 -0.148139,-0.201538 -0.401353,-0.201538 z m 0,-0.268717 q 0.413411,0 0.649399,0.268717 0.235989,0.268717 0.235989,0.744139 0,0.4737 -0.235989,0.744139 -0.235988,0.268717 -0.649399,0.268717 -0.415133,0 -0.651121,-0.268717 -0.234266,-0.270439 -0.234266,-0.744139 0,-0.475422 0.234266,-0.744139 0.235988,-0.268717 0.651121,-0.268717 z"
         style="fill:#e5ffd5;stroke-width:0.264583"
         id="path1075" />
      <path
         d="m 23.042082,74.737903 h 0.316948 l 0.396185,1.505504 0.394463,-1.505504 h 0.373792 l 0.396185,1.505504 0.394463,-1.505504 h 0.316948 l -0.504706,1.929249 h -0.373792 l -0.415133,-1.581295 -0.416855,1.581295 h -0.373793 z"
         style="fill:#e5ffd5;stroke-width:0.264583"
         id="path1077" />
    </g>
    <path
       style="fill:#e5ffd5;stroke:#fffff2;stroke-width:1.38227px;stroke-linecap:butt;stroke-linejoin:miter;stroke-opacity:1"
       d="M 22.055189,67.59836 22.044282,46.528393"
       id="path1029-5-3" />
    <path
       style="fill:#e5ffd5;stroke:#fffff2;stroke-width:1.37991px;stroke-linecap:butt;stroke-linejoin:miter;stroke-opacity:1"
       d="M 8.5527063,67.214085 8.5417987,46.218301"
       id="path1029-56" />
    <g
       aria-label="life"
       id="text975"
       style="font-size:3.52777px;line-height:1.25;font-family:sans-serif;fill:#f9f9f9;stroke-width:0.264583"
       transform="translate(-0.34308739,-4.5924904)">
      <path
         d="m 6.3784562,40.099549 h 0.3169481 v 2.680278 H 6.3784562 Z"
         style="fill:#f9f9f9;stroke-width:0.264583"
         id="path992" />
      <path
         d="m 7.3585837,40.850578 h 0.3169481 v 1.929249 H 7.3585837 Z m 0,-0.751029 h 0.3169481 v 0.401352 H 7.3585837 Z"
         style="fill:#f9f9f9;stroke-width:0.264583"
         id="path994" />
      <path
         d="m 9.3153937,40.099549 v 0.263549 H 9.012226 q -0.1705319,0 -0.2377111,0.0689 -0.065457,0.0689 -0.065457,0.248046 v 0.170532 H 9.230989 V 41.0969 H 8.7090582 v 1.682925 H 8.3903876 V 41.096902 H 8.0872198 v -0.246324 h 0.3031678 v -0.134359 q 0,-0.322115 0.1498613,-0.468532 0.1498613,-0.148138 0.4754221,-0.148138 z"
         style="fill:#f9f9f9;stroke-width:0.264583"
         id="path996" />
      <path
         d="m 11.230863,41.735965 v 0.155029 H 9.7735904 q 0.02067,0.327284 0.19637,0.499538 0.1774216,0.170532 0.4926476,0.170532 0.18259,0 0.353121,-0.04479 0.172255,-0.04479 0.341064,-0.134359 v 0.299723 q -0.170532,0.07235 -0.349676,0.110243 -0.179145,0.0379 -0.363457,0.0379 -0.4616418,0 -0.7320812,-0.268717 Q 9.442862,42.292347 9.442862,41.83415 q 0,-0.473699 0.2549365,-0.751029 0.256659,-0.279052 0.6907405,-0.279052 0.389295,0 0.614948,0.251492 0.227376,0.249768 0.227376,0.680404 z m -0.316949,-0.09302 q -0.0034,-0.260104 -0.146416,-0.415133 -0.141248,-0.155029 -0.375514,-0.155029 -0.265272,0 -0.4254687,0.149861 -0.158474,0.149862 -0.1825896,0.422024 z"
         style="fill:#f9f9f9;stroke-width:0.264583"
         id="path998" />
    </g>
    <g
       aria-label="slide"
       id="text979"
       style="font-size:3.52777px;line-height:1.25;font-family:sans-serif;fill:#f9f9f9;stroke-width:0.264583"
       transform="translate(-0.03005999,-4.8203931)">
      <path
         d="m 19.598349,41.084119 v 0.299722 q -0.134359,-0.0689 -0.279053,-0.103352 -0.144693,-0.03445 -0.299722,-0.03445 -0.235989,0 -0.354844,0.07235 -0.117133,0.07235 -0.117133,0.21704 0,0.110243 0.0844,0.173977 0.08441,0.06201 0.339342,0.118856 l 0.10852,0.02412 q 0.337618,0.07235 0.478867,0.204983 0.142971,0.130913 0.142971,0.366902 0,0.268717 -0.213595,0.425468 -0.211873,0.156752 -0.583943,0.156752 -0.155029,0 -0.323838,-0.03101 -0.167087,-0.02928 -0.353121,-0.08957 v -0.327284 q 0.175699,0.0913 0.346231,0.137804 0.170532,0.04479 0.337619,0.04479 0.22393,0 0.344508,-0.07579 0.120578,-0.07751 0.120578,-0.217041 0,-0.12919 -0.08785,-0.198092 -0.08613,-0.0689 -0.380683,-0.132636 l -0.110242,-0.02584 q -0.294555,-0.06201 -0.425469,-0.18948 -0.130913,-0.129191 -0.130913,-0.353122 0,-0.272161 0.192925,-0.4203 0.192925,-0.148139 0.547769,-0.148139 0.175699,0 0.330728,0.02584 0.155029,0.02584 0.285943,0.07751 z"
         style="fill:#f9f9f9;stroke-width:0.264583"
         id="path981" />
      <path
         d="m 20.206407,40.276245 h 0.316948 v 2.680279 h -0.316948 z"
         style="fill:#f9f9f9;stroke-width:0.264583"
         id="path983" />
      <path
         d="m 21.186534,41.027275 h 0.316948 v 1.929249 h -0.316948 z m 0,-0.75103 h 0.316948 v 0.401353 h -0.316948 z"
         style="fill:#f9f9f9;stroke-width:0.264583"
         id="path985" />
      <path
         d="m 23.436177,41.320107 v -1.043862 h 0.316948 v 2.680279 h -0.316948 v -0.289387 q -0.09991,0.172254 -0.253214,0.256659 -0.151584,0.08268 -0.36518,0.08268 -0.349676,0 -0.570162,-0.279052 -0.218763,-0.279053 -0.218763,-0.733804 0,-0.454752 0.218763,-0.733804 0.220486,-0.279052 0.570162,-0.279052 0.213596,0 0.36518,0.0844 0.153306,0.08268 0.253214,0.254936 z m -1.080036,0.673515 q 0,0.349676 0.142972,0.549491 0.144693,0.198093 0.396185,0.198093 0.251491,0 0.396185,-0.198093 0.144694,-0.199815 0.144694,-0.549491 0,-0.349677 -0.144694,-0.547769 -0.144694,-0.199815 -0.396185,-0.199815 -0.251492,0 -0.396185,0.199815 -0.142972,0.198092 -0.142972,0.547769 z"
         style="fill:#f9f9f9;stroke-width:0.264583"
         id="path987" />
      <path
         d="m 26.056166,41.912662 v 0.155029 h -1.457272 q 0.02067,0.327284 0.19637,0.499538 0.177422,0.170532 0.492647,0.170532 0.18259,0 0.353122,-0.04479 0.172254,-0.04479 0.341064,-0.134359 v 0.299723 q -0.170532,0.07235 -0.349677,0.110243 -0.179144,0.0379 -0.363457,0.0379 -0.461641,0 -0.732081,-0.268717 -0.268717,-0.268717 -0.268717,-0.726914 0,-0.473699 0.254937,-0.751029 0.256659,-0.279052 0.69074,-0.279052 0.389295,0 0.614948,0.251491 0.227376,0.249769 0.227376,0.680405 z m -0.316948,-0.09302 q -0.0034,-0.260104 -0.146416,-0.415133 -0.141249,-0.155029 -0.375515,-0.155029 -0.265272,0 -0.425468,0.149861 -0.158474,0.149861 -0.18259,0.422023 z"
         style="fill:#f9f9f9;stroke-width:0.264583"
         id="path989" />
    </g>
  </g>
</svg>
