<?xml version="1.0" encoding="UTF-8" standalone="no"?>
<svg
   width="40.011112mm"
   height="128.52271mm"
   viewBox="0 0 40.011116 128.52273"
   version="1.1"
   id="svg8"
   inkscape:version="1.1 (c4e8f9ed74, 2021-05-24)"
   sodipodi:docname="Pureneura.svg"
   xmlns:inkscape="http://www.inkscape.org/namespaces/inkscape"
   xmlns:sodipodi="http://sodipodi.sourceforge.net/DTD/sodipodi-0.dtd"
   xmlns:xlink="http://www.w3.org/1999/xlink"
   xmlns="http://www.w3.org/2000/svg"
   xmlns:svg="http://www.w3.org/2000/svg"
   xmlns:rdf="http://www.w3.org/1999/02/22-rdf-syntax-ns#"
   xmlns:cc="http://creativecommons.org/ns#"
   xmlns:dc="http://purl.org/dc/elements/1.1/">
  <defs
     id="defs2">
    <linearGradient
       inkscape:collect="always"
       id="linearGradient16355">
      <stop
         style="stop-color:#262626;stop-opacity:1"
         offset="0"
         id="stop16351" />
      <stop
         style="stop-color:#0d0d0d;stop-opacity:1"
         offset="1"
         id="stop16353" />
    </linearGradient>
    <filter
       x="-0.30000001"
       width="1.6"
       y="-0.30000001"
       height="1.6"
       style="color-interpolation-filters:sRGB"
       inkscape:label="Felt Feather"
       id="filter3728">
      <feGaussianBlur
         stdDeviation="15 15"
         result="blur"
         id="feGaussianBlur3712" />
      <feComposite
         in="SourceGraphic"
         in2="blur"
         operator="atop"
         result="composite1"
         id="feComposite3714" />
      <feComposite
         in2="composite1"
         operator="in"
         result="composite2"
         id="feComposite3716" />
      <feComposite
         in2="composite2"
         operator="in"
         result="composite3"
         id="feComposite3718" />
      <feTurbulence
         type="fractalNoise"
         numOctaves="3"
         seed="1"
         baseFrequency="0.05 0.05"
         result="turbulence"
         id="feTurbulence3720" />
      <feDisplacementMap
         in="composite3"
         in2="turbulence"
         xChannelSelector="R"
         scale="30"
         yChannelSelector="G"
         result="map"
         id="feDisplacementMap3722" />
      <feColorMatrix
         values="1 0 0 0 0 0 1 0 0 0 0 0 1 0 0 0 0 0 1 -0 "
         result="colormatrix"
         id="feColorMatrix3724" />
      <feComposite
         in="composite3"
         in2="colormatrix"
         operator="atop"
         result="composite4"
         id="feComposite3726" />
    </filter>
    <filter
       inkscape:collect="always"
       style="color-interpolation-filters:sRGB"
       id="filter1927"
       x="-0.0010343177"
       width="1.0020686"
       y="-0.0003863599"
       height="1.0007727">
      <feGaussianBlur
         inkscape:collect="always"
         stdDeviation="0.020686142"
         id="feGaussianBlur1929" />
    </filter>
    <filter
       inkscape:collect="always"
       style="color-interpolation-filters:sRGB"
       id="filter12807"
       x="-0.0010343177"
       width="1.0020686"
       y="-0.00038635989"
       height="1.0007727">
      <feGaussianBlur
         inkscape:collect="always"
         stdDeviation="0.020686144"
         id="feGaussianBlur12805" />
    </filter>
    <linearGradient
       inkscape:collect="always"
       xlink:href="#linearGradient16355"
       id="linearGradient16349"
       x1="14.979209"
       y1="-11.974414"
       x2="11.963202"
       y2="67.196983"
       gradientUnits="userSpaceOnUse" />
  </defs>
  <sodipodi:namedview
     id="base"
     pagecolor="#ffffff"
     bordercolor="#666666"
     borderopacity="1.0"
     inkscape:pageopacity="0.0"
     inkscape:pageshadow="2"
     inkscape:zoom="1.4142136"
     inkscape:cx="46.315493"
     inkscape:cy="410.47548"
     inkscape:document-units="mm"
     inkscape:current-layer="layer4"
     showgrid="false"
     units="mm"
     inkscape:snap-bbox="true"
     inkscape:snap-page="true"
     inkscape:bbox-nodes="false"
     inkscape:snap-bbox-edge-midpoints="false"
     inkscape:window-width="1366"
     inkscape:window-height="768"
     inkscape:window-x="0"
     inkscape:window-y="0"
     inkscape:window-maximized="0"
     inkscape:snap-bbox-midpoints="true"
     inkscape:snap-nodes="false"
     inkscape:document-rotation="0"
     fit-margin-top="0"
     fit-margin-left="0"
     fit-margin-right="0"
     fit-margin-bottom="0"
     showguides="false"
     inkscape:pagecheckerboard="0" />
  <metadata
     id="metadata5">
    <rdf:RDF>
      <cc:Work
         rdf:about="">
        <dc:format>image/svg+xml</dc:format>
        <dc:type
           rdf:resource="http://purl.org/dc/dcmitype/StillImage" />
      </cc:Work>
    </rdf:RDF>
  </metadata>
  <g
     inkscape:groupmode="layer"
     id="layer4"
     inkscape:label="back 1"
     transform="translate(0.02065398,0.01120977)">
    <rect
       style="fill:url(#linearGradient16349);fill-opacity:1;stroke:#000000;stroke-width:0;stroke-opacity:1;filter:url(#filter12807)"
       id="rect1921"
       width="47.999996"
       height="128.5"
       x="0.03112038"
       y="0.048966013"
       transform="matrix(0.83184413,0,0,0.99940448,-0.00524252,-0.01052894)" />
    <rect
       style="fill:#ffffff;fill-opacity:0;stroke:#ffffff;stroke-width:0.147433;stroke-miterlimit:4;stroke-dasharray:none"
       id="rect22401"
       width="10.352567"
       height="10.352567"
       x="26.803062"
       y="33.812508" />
    <rect
       style="fill:#ffffff;fill-opacity:0;stroke:#ffffff;stroke-width:0.147433;stroke-miterlimit:4;stroke-dasharray:none"
       id="rect22401-3"
       width="10.352567"
       height="10.352567"
       x="26.803062"
       y="45.812508" />
    <rect
       style="fill:#ffffff;fill-opacity:0;stroke:#ffffff;stroke-width:0.147433;stroke-miterlimit:4;stroke-dasharray:none"
       id="rect22401-3-6"
       width="10.352567"
       height="10.352567"
       x="26.803062"
       y="57.812508" />
    <rect
       style="fill:#ffffff;fill-opacity:0;stroke:#ffffff;stroke-width:0.147433;stroke-miterlimit:4;stroke-dasharray:none"
       id="rect22401-3-6-7"
       width="10.352567"
       height="10.352567"
       x="26.803062"
       y="69.812508" />
    <rect
       style="fill:#ffffff;fill-opacity:0;stroke:#ffffff;stroke-width:0.248707;stroke-miterlimit:4;stroke-dasharray:none"
       id="rect22401-3-6-7-5"
       width="29.751293"
       height="10.251292"
       x="5.6036997"
       y="91.863144" />
    <text
       xml:space="preserve"
       style="font-weight:600;font-size:3.52777px;line-height:1.25;font-family:'URW Gothic';-inkscape-font-specification:'URW Gothic, Semi-Bold';stroke-width:0.264583"
       x="-108.7295"
       y="48.709389"
       id="text7898"><tspan
         sodipodi:role="line"
         id="tspan7896"
         style="stroke-width:0.264583"
         x="-108.7295"
         y="48.709389" /></text>
    <g
       aria-label="GATE/MULTI/OUT:"
       id="text9825"
       style="font-weight:600;font-size:3.52777px;line-height:1.25;font-family:'URW Gothic';-inkscape-font-specification:'URW Gothic, Semi-Bold';text-align:center;text-anchor:middle;fill:#ffffff;stroke-width:0.264583"
       transform="translate(0,1.8420802)">
      <path
         d="m 7.1077455,25.921178 h 1.0794976 c -0.137583,0.289277 -0.4198046,0.45861 -0.7655261,0.45861 -0.5115266,0 -0.9031091,-0.380999 -0.9031091,-0.881942 0,-0.225777 0.09525,-0.472721 0.2434161,-0.631471 0.1516941,-0.162277 0.3809992,-0.253999 0.6314709,-0.253999 0.3033882,0 0.5573876,0.123471 0.7161373,0.345721 h 0.567971 c -0.169333,-0.469193 -0.705554,-0.811387 -1.273525,-0.811387 -0.7655261,0 -1.3723026,0.592665 -1.3723026,1.34408 0,0.765526 0.6173598,1.354664 1.4181636,1.354664 0.3951102,0 0.7302484,-0.137583 0.9877756,-0.402166 0.2398884,-0.250471 0.3739436,-0.575026 0.3739436,-0.910164 v -0.0635 H 7.1077455 Z"
         id="path12569" />
      <path
         d="m 8.7834278,26.799593 h 0.5326933 l 0.2892771,-0.673804 h 0.9278038 l 0.278694,0.673804 h 0.532693 L 10.25098,24.192571 H 9.8699809 Z m 0.9983589,-1.135942 0.2786943,-0.79022 0.278693,0.79022 z"
         id="path12571" />
      <path
         d="m 11.732642,26.799593 h 0.483304 v -2.144884 h 0.483305 v -0.462138 h -1.449914 v 0.462138 h 0.483305 z"
         id="path12573" />
      <path
         d="m 12.946188,26.799593 h 1.400524 v -0.462138 h -0.91722 v -0.606776 h 0.878415 v -0.462138 h -0.878415 v -0.613832 h 0.91722 v -0.462138 h -1.400524 z"
         id="path12575" />
      <path
         d="m 14.632456,27.251148 h 0.331611 l 1.13947,-3.058577 h -0.331611 z"
         id="path12577" />
      <path
         d="m 16.495113,26.799593 h 0.483304 v -1.954385 l 0.68086,1.954385 h 0.39511 l 0.68086,-1.954385 v 1.954385 h 0.483304 V 24.192571 H 18.55533 l -0.69497,1.975551 -0.702027,-1.975551 h -0.66322 z"
         id="path12579" />
      <path
         d="m 19.670104,24.192571 v 1.650996 c 0,0.278694 0.04233,0.45861 0.141111,0.613832 0.151694,0.239889 0.433916,0.388055 0.737304,0.388055 0.285749,0 0.550332,-0.127 0.705554,-0.335138 0.123472,-0.169333 0.176389,-0.36336 0.176389,-0.666749 v -1.650996 h -0.483305 v 1.650996 c 0,0.194028 -0.01411,0.275166 -0.0635,0.359833 -0.06703,0.109361 -0.190499,0.176388 -0.335138,0.176388 -0.141111,0 -0.264583,-0.06703 -0.33161,-0.176388 -0.04939,-0.08467 -0.0635,-0.165805 -0.0635,-0.359833 v -1.650996 z"
         id="path12581" />
      <path
         d="m 21.927876,26.799593 h 1.28058 V 26.337455 H 22.41118 v -2.144884 h -0.483304 z"
         id="path12583" />
      <path
         d="m 23.600028,26.799593 h 0.483304 v -2.144884 h 0.483305 v -0.462138 h -1.449914 v 0.462138 h 0.483305 z"
         id="path12585" />
      <path
         d="m 24.813574,26.799593 h 0.483305 v -2.607022 h -0.483305 z"
         id="path12587" />
      <path
         d="m 25.653178,27.251148 h 0.33161 l 1.13947,-3.058577 h -0.33161 z"
         id="path12589" />
      <path
         d="m 28.665891,24.14671 c -0.776109,0 -1.37583,0.589137 -1.37583,1.351136 0,0.754943 0.606777,1.347608 1.372303,1.347608 0.75847,0 1.34408,-0.589138 1.34408,-1.347608 0,-0.751415 -0.596193,-1.351136 -1.340553,-1.351136 z m -0.0071,0.465666 c 0.483304,0 0.860776,0.388054 0.860776,0.888998 0,0.504471 -0.366888,0.878414 -0.860776,0.878414 -0.493888,0 -0.881943,-0.388054 -0.881943,-0.881942 0,-0.504471 0.381,-0.88547 0.881943,-0.88547 z"
         id="path12591" />
      <path
         d="m 30.387436,24.192571 v 1.650996 c 0,0.278694 0.04233,0.45861 0.141111,0.613832 0.151694,0.239889 0.433916,0.388055 0.737304,0.388055 0.285749,0 0.550332,-0.127 0.705554,-0.335138 0.123472,-0.169333 0.176388,-0.36336 0.176388,-0.666749 v -1.650996 h -0.483304 v 1.650996 c 0,0.194028 -0.01411,0.275166 -0.0635,0.359833 -0.06703,0.109361 -0.190499,0.176388 -0.335138,0.176388 -0.141111,0 -0.264583,-0.06703 -0.33161,-0.176388 -0.04939,-0.08467 -0.0635,-0.165805 -0.0635,-0.359833 v -1.650996 z"
         id="path12593" />
      <path
         d="m 32.895676,26.799593 h 0.483305 v -2.144884 h 0.483304 v -0.462138 h -1.449913 v 0.462138 h 0.483304 z"
         id="path12595" />
      <path
         d="m 34.169188,26.799593 h 0.469194 v -0.451555 h -0.469194 z m 0,-1.301747 h 0.469194 v -0.469194 h -0.469194 z"
         id="path12597" />
    </g>
    <text
       xml:space="preserve"
       style="font-weight:600;font-size:3.52777px;line-height:1.25;font-family:'URW Gothic';-inkscape-font-specification:'URW Gothic, Semi-Bold';text-align:center;text-anchor:middle;fill:#ffffff;stroke-width:0.264583"
       x="9.0217934"
       y="85.662231"
       id="text35018"><tspan
         sodipodi:role="line"
         id="tspan35016"
         style="fill:#ffffff;stroke-width:0.264583"
         x="9.0217934"
         y="85.662231" /></text>
    <g
       aria-label="PRODUCT 2/3/4:"
       id="text1919"
       style="font-weight:600;font-size:3.52777px;line-height:1.25;font-family:'URW Gothic';-inkscape-font-specification:'URW Gothic, Semi-Bold';text-align:center;text-anchor:middle;fill:#ffffff;stroke-width:0.264583"
       transform="translate(0,8.1910512)">
      <path
         d="M 6.5919556,82.450623 H 7.0752601 V 81.459319 H 7.230482 c 0.3704158,0 0.5397488,-0.02822 0.6843874,-0.116416 0.2116662,-0.134055 0.3421937,-0.39511 0.3421937,-0.694971 0,-0.29986 -0.1269998,-0.546804 -0.352777,-0.684387 C 7.7561197,79.87535 7.5797312,79.8436 7.2375375,79.8436 H 6.5919556 Z m 0.4833045,-1.453442 v -0.691443 h 0.1622774 c 0.1587497,0 0.2328328,0.0071 0.306916,0.02469 0.1411108,0.0388 0.2257773,0.162277 0.2257773,0.324555 0,0.126999 -0.056444,0.225777 -0.1587497,0.282221 -0.074083,0.03881 -0.2046106,0.05997 -0.3951102,0.05997 z"
         id="path10987" />
      <path
         d="m 8.5569207,82.450623 h 0.4833045 v -0.998359 l 0.6843874,0.998359 H 10.320806 L 9.6152517,81.487541 c 0.2010829,-0.04939 0.2998605,-0.09525 0.4127493,-0.190499 0.179916,-0.151694 0.26811,-0.356305 0.26811,-0.61736 0,-0.268111 -0.09525,-0.49036 -0.275166,-0.642054 C 9.8516123,79.892989 9.6646405,79.8436 9.3083357,79.8436 h -0.751415 z m 0.4833045,-1.36172 v -0.783165 h 0.215194 c 0.2257773,0 0.3492492,0.02469 0.4268602,0.09172 0.084666,0.06703 0.1269997,0.169333 0.1269997,0.296333 0,0.275166 -0.1587497,0.39511 -0.5326933,0.39511 z"
         id="path10989" />
      <path
         d="m 11.858912,79.797739 c -0.776109,0 -1.37583,0.589138 -1.37583,1.351136 0,0.754943 0.606777,1.347609 1.372303,1.347609 0.75847,0 1.34408,-0.589138 1.34408,-1.347609 0,-0.751415 -0.596193,-1.351136 -1.340553,-1.351136 z m -0.0071,0.465666 c 0.483304,0 0.860776,0.388055 0.860776,0.888998 0,0.504471 -0.366888,0.878415 -0.860776,0.878415 -0.493888,0 -0.881943,-0.388055 -0.881943,-0.881943 0,-0.504471 0.381,-0.88547 0.881943,-0.88547 z"
         id="path10991" />
      <path
         d="m 13.580458,82.450623 h 0.606777 c 0.39511,0 0.63147,-0.03881 0.843137,-0.144639 0.402165,-0.197555 0.638526,-0.627943 0.638526,-1.153581 0,-0.497415 -0.204611,-0.903109 -0.567971,-1.121831 C 14.896316,79.9071 14.585873,79.8436 14.176651,79.8436 h -0.596193 z m 0.483305,-0.462138 v -1.682747 h 0.09525 c 0.310444,0 0.472722,0.02822 0.624416,0.105833 0.246944,0.127 0.398638,0.405694 0.398638,0.740832 0,0.313972 -0.144639,0.592666 -0.377472,0.719665 -0.144638,0.07761 -0.345721,0.116417 -0.634998,0.116417 z"
         id="path10993" />
      <path
         d="m 16.049893,79.8436 v 1.650997 c 0,0.278694 0.04233,0.45861 0.141111,0.613832 0.151694,0.239888 0.433915,0.388055 0.737304,0.388055 0.285749,0 0.550332,-0.127 0.705554,-0.335139 0.123472,-0.169333 0.176388,-0.36336 0.176388,-0.666748 V 79.8436 h -0.483304 v 1.650997 c 0,0.194027 -0.01411,0.275166 -0.0635,0.359832 -0.06703,0.109361 -0.1905,0.176389 -0.335138,0.176389 -0.141111,0 -0.264583,-0.06703 -0.331611,-0.176389 -0.04939,-0.08467 -0.0635,-0.165805 -0.0635,-0.359832 V 79.8436 Z"
         id="path10995" />
      <path
         d="m 20.180909,81.723902 c -0.215194,0.222249 -0.39511,0.306916 -0.645582,0.306916 -0.483304,0 -0.874887,-0.402166 -0.874887,-0.888998 0,-0.211666 0.08114,-0.437444 0.215194,-0.592665 0.15875,-0.186972 0.384527,-0.28575 0.64911,-0.28575 0.303388,0 0.507999,0.09878 0.684387,0.328083 H 20.74888 C 20.646575,80.36571 20.554853,80.242239 20.378464,80.0976 20.138576,79.903573 19.83166,79.797739 19.514161,79.797739 c -0.737304,0 -1.340553,0.603249 -1.340553,1.340553 0,0.754943 0.610304,1.358192 1.372303,1.358192 0.536221,0 0.998359,-0.296333 1.202969,-0.772582 z"
         id="path10997" />
      <path
         d="m 21.323898,82.450623 h 0.483305 v -2.144885 h 0.483304 V 79.8436 h -1.449913 v 0.462138 h 0.483304 z"
         id="path10999" />
      <path
         d="m 23.42291,82.450623 h 1.686274 v -0.440972 h -1.026581 l 0.532694,-0.483304 c 0.380999,-0.342194 0.504471,-0.560916 0.504471,-0.881943 0,-0.483304 -0.363361,-0.846665 -0.850193,-0.846665 -0.303388,0 -0.578554,0.144639 -0.726721,0.381 -0.09878,0.155222 -0.137583,0.313971 -0.137583,0.564443 h 0.462138 c 0,-0.310444 0.162278,-0.515055 0.405694,-0.515055 0.215194,0 0.377471,0.176389 0.377471,0.409222 0,0.169333 -0.08467,0.321027 -0.29986,0.52211 l -0.927804,0.878414 z"
         id="path11001" />
      <path
         d="m 25.352599,82.902177 h 0.33161 l 1.13947,-3.058577 h -0.33161 z"
         id="path11003" />
      <path
         d="m 27.652701,81.194736 h 0.07761 c 0.313972,0 0.511527,0.172861 0.511527,0.437444 0,0.250472 -0.172861,0.433916 -0.409222,0.433916 -0.229305,0 -0.391582,-0.15875 -0.423332,-0.405694 h -0.472721 c 0.02822,0.49036 0.398638,0.836082 0.899581,0.836082 0.504471,0 0.874887,-0.370416 0.874887,-0.874887 0,-0.328083 -0.134055,-0.550333 -0.405693,-0.673804 0.151694,-0.109361 0.218721,-0.246944 0.218721,-0.448027 0,-0.402166 -0.29986,-0.702027 -0.702026,-0.702027 -0.204611,0 -0.391582,0.08114 -0.52211,0.22225 -0.109361,0.119944 -0.151694,0.232833 -0.169333,0.444499 h 0.476249 c 0.02117,-0.165805 0.08819,-0.236361 0.218722,-0.236361 0.134055,0 0.229305,0.102306 0.229305,0.246944 0,0.112889 -0.05292,0.194028 -0.151694,0.232833 -0.05997,0.02469 -0.123472,0.03175 -0.250472,0.03528 z"
         id="path11005" />
      <path
         d="m 28.950919,82.902177 h 0.33161 l 1.13947,-3.058577 h -0.33161 z"
         id="path11007" />
      <path
         d="m 30.481967,81.678041 v 0.380999 h 1.125359 v 0.391583 h 0.469193 V 82.05904 h 0.275166 V 81.639235 H 32.076519 V 79.8436 h -0.39511 z m 1.125359,-0.03881 h -0.64911 l 0.64911,-1.005414 z"
         id="path11009" />
      <path
         d="m 32.711516,82.450623 h 0.469194 v -0.451555 h -0.469194 z m 0,-1.301748 h 0.469194 v -0.469193 h -0.469194 z"
         id="path11011" />
    </g>
    <g
       aria-label="BASE:"
       id="text27693"
       style="font-weight:600;font-size:3.52777px;line-height:1.25;font-family:'URW Gothic';-inkscape-font-specification:'URW Gothic, Semi-Bold';text-align:center;text-anchor:middle;fill:#ffffff;stroke-width:0.264583"
       transform="translate(0,-5.5833336)">
      <path
         d="m 4.9793457,112.64167 h 0.6949707 c 0.2892771,0 0.5009433,-0.0459 0.659693,-0.14464 0.2151939,-0.13053 0.3386659,-0.36336 0.3386659,-0.63147 0,-0.1658 -0.045861,-0.32103 -0.1269997,-0.42686 -0.074083,-0.0988 -0.1481664,-0.14817 -0.3174993,-0.21872 0.2116662,-0.10936 0.2892771,-0.24342 0.2892771,-0.49036 0,-0.24342 -0.1058331,-0.44803 -0.2963327,-0.56797 -0.1552219,-0.0988 -0.3174993,-0.127 -0.705554,-0.127 h -0.536221 z m 0.4833045,-0.46214 v -0.66675 h 0.229305 c 0.3351382,0 0.4938878,0.10936 0.4938878,0.33867 0,0.2293 -0.1446386,0.32808 -0.4833045,0.32808 z m 0,-1.13947 v -0.53269 h 0.1975551 c 0.2539994,0 0.3739436,0.0847 0.3739436,0.26458 0,0.18697 -0.1234719,0.26811 -0.4162769,0.26811 z"
         id="path41363" />
      <path
         d="m 6.7432269,112.64167 h 0.5326933 l 0.2892771,-0.6738 h 0.9278035 l 0.2786939,0.6738 H 9.3043879 L 8.2107792,110.03465 H 7.8297801 Z m 0.9983589,-1.13594 0.2786938,-0.79022 0.2786939,0.79022 z"
         id="path41365" />
      <path
         d="m 9.3467179,111.89731 c 0.017639,0.20461 0.0635,0.33514 0.169333,0.47625 0.1552218,0.19755 0.4092213,0.31397 0.6879151,0.31397 0.469193,0 0.832554,-0.36336 0.832554,-0.83608 0,-0.21872 -0.07761,-0.40217 -0.232833,-0.54328 -0.102305,-0.0953 -0.183444,-0.13758 -0.440971,-0.23636 -0.246944,-0.0917 -0.254,-0.0952 -0.289277,-0.11641 -0.09525,-0.06 -0.144639,-0.14111 -0.144639,-0.23636 0,-0.15523 0.109361,-0.26459 0.26811,-0.26459 0.162278,0 0.261055,0.0988 0.275167,0.27517 h 0.500943 c -0.01058,-0.19756 -0.05644,-0.33161 -0.162278,-0.46214 -0.14111,-0.17639 -0.366888,-0.27869 -0.610304,-0.27869 -0.4233322,0 -0.7584703,0.32808 -0.7584703,0.74083 0,0.32808 0.1904996,0.57855 0.5432766,0.70908 0.3492497,0.13053 0.3739437,0.14111 0.4515547,0.20108 0.07761,0.0635 0.119944,0.15523 0.119944,0.26459 0,0.18697 -0.144639,0.3175 -0.352777,0.3175 -0.215194,0 -0.3316104,-0.10584 -0.352777,-0.32456 z"
         id="path41367" />
      <path
         d="m 11.371652,112.64167 h 1.400525 v -0.46214 h -0.91722 v -0.60677 h 0.878415 v -0.46214 h -0.878415 v -0.61383 h 0.91722 v -0.46214 h -1.400525 z"
         id="path41369" />
      <path
         d="m 13.220199,112.64167 h 0.469193 v -0.45155 h -0.469193 z m 0,-1.30175 h 0.469193 v -0.46919 h -0.469193 z"
         id="path41371" />
    </g>
    <g
       aria-label="PURENEURA"
       id="text7325"
       style="font-weight:600;font-size:5.64444px;line-height:1.25;font-family:'URW Gothic';-inkscape-font-specification:'URW Gothic, Semi-Bold';text-align:center;text-anchor:middle;stroke-width:0.264583"
       transform="translate(0,1.5875)">
      <g
         aria-label="MONONEURA"
         id="text10291"
         style="font-size:4.93889px;stroke-width:0.0700042">
        <path
           d="m 4.1989336,9.0960369 h 0.6766279 v -2.736145 l 0.9532058,2.736145 h 0.5531556 l 0.9532058,-2.736145 v 2.736145 H 8.0117566 V 5.4461972 H 7.0832453 L 6.110284,8.2119756 5.1274449,5.4461972 H 4.1989336 Z"
           style="fill:#ffffff"
           id="path17165" />
        <path
           d="m 10.382422,5.3819916 c -1.0865557,0 -1.926167,0.8247947 -1.926167,1.8915949 0,1.0569225 0.8494891,1.886656 1.921228,1.886656 1.061862,0 1.881717,-0.8247946 1.881717,-1.886656 0,-1.0519836 -0.834672,-1.8915949 -1.876778,-1.8915949 z m -0.0099,0.6519335 c 0.676628,0 1.205089,0.5432779 1.205089,1.2446003 0,0.7062613 -0.513644,1.2297836 -1.205089,1.2297836 -0.6914443,0 -1.2347222,-0.5432779 -1.2347222,-1.2347225 0,-0.7062613 0.5334001,-1.2396614 1.2347222,-1.2396614 z"
           style="fill:#ffffff"
           id="path17167" />
        <path
           d="M 12.792592,9.0960369 H 13.46922 V 6.443853 l 1.526117,2.6521839 h 0.75565 V 5.4461972 H 15.074359 V 8.10332 l -1.5113,-2.6571228 h -0.770467 z"
           style="fill:#ffffff"
           id="path17169" />
        <path
           d="m 18.205612,5.3819916 c -1.086556,0 -1.926167,0.8247947 -1.926167,1.8915949 0,1.0569225 0.849489,1.886656 1.921228,1.886656 1.061862,0 1.881717,-0.8247946 1.881717,-1.886656 0,-1.0519836 -0.834672,-1.8915949 -1.876778,-1.8915949 z m -0.0099,0.6519335 c 0.676628,0 1.20509,0.5432779 1.20509,1.2446003 0,0.7062613 -0.513645,1.2297836 -1.20509,1.2297836 -0.691444,0 -1.234722,-0.5432779 -1.234722,-1.2347225 0,-0.7062613 0.5334,-1.2396614 1.234722,-1.2396614 z"
           style="fill:#ffffff"
           id="path17171" />
        <path
           d="m 20.615783,9.0960369 h 0.676628 V 6.443853 l 1.526117,2.6521839 h 0.75565 V 5.4461972 H 22.89755 V 8.10332 l -1.5113,-2.6571228 h -0.770467 z"
           style="fill:#ffffff"
           id="path17173" />
        <path
           d="M 24.27056,9.0960369 H 26.2313 V 8.4490423 H 24.947188 V 7.5995532 h 1.229784 V 6.9525587 H 24.947188 V 6.0931918 H 26.2313 V 5.4461972 h -1.96074 z"
           style="fill:#ffffff"
           id="path17175" />
        <path
           d="m 26.838775,5.4461972 v 2.3114005 c 0,0.3901723 0.05927,0.6420557 0.197555,0.8593669 0.212373,0.3358445 0.607484,0.5432779 1.032228,0.5432779 0.40005,0 0.770467,-0.1778001 0.987778,-0.4691946 0.172861,-0.2370667 0.246945,-0.5087056 0.246945,-0.9334502 V 5.4461972 h -0.676628 v 2.3114005 c 0,0.271639 -0.01976,0.3852334 -0.0889,0.5037668 -0.09384,0.1531056 -0.2667,0.2469445 -0.469195,0.2469445 -0.197555,0 -0.370416,-0.093839 -0.464255,-0.2469445 -0.06915,-0.1185334 -0.0889,-0.2321278 -0.0889,-0.5037668 V 5.4461972 Z"
           style="fill:#ffffff"
           id="path17177" />
        <path
           d="m 29.999661,9.0960369 h 0.676628 V 7.698331 l 0.958145,1.3977059 h 0.834672 l -0.987778,-1.348317 c 0.281517,-0.069144 0.419806,-0.13335 0.577851,-0.2667 0.251883,-0.2123723 0.375355,-0.4988279 0.375355,-0.8643058 0,-0.3753556 -0.13335,-0.6865057 -0.385233,-0.8988779 -0.237067,-0.2024945 -0.498828,-0.271639 -0.997656,-0.271639 H 29.999661 Z M 30.676289,7.1896254 V 6.0931918 h 0.301273 c 0.316089,0 0.48895,0.034572 0.597605,0.1284111 0.118534,0.093839 0.1778,0.2370668 0.1778,0.4148668 0,0.3852334 -0.22225,0.5531557 -0.745772,0.5531557 z"
           style="fill:#ffffff"
           id="path17179" />
        <path
           d="m 32.671599,9.0960369 h 0.745772 l 0.404989,-0.943328 h 1.298928 l 0.390172,0.943328 h 0.745773 L 34.726177,5.4461972 h -0.5334 z m 1.397705,-1.5903226 0.390173,-1.1063113 0.390172,1.1063113 z"
           style="fill:#ffffff"
           id="path17181" />
      </g>
    </g>
    <g
       aria-label="CLOCK:"
       id="text3090"
       style="font-weight:600;font-size:3.52777px;line-height:1.25;font-family:'URW Gothic';-inkscape-font-specification:'URW Gothic, Semi-Bold';text-align:center;text-anchor:middle;stroke-width:0.264583">
      <path
         d="m 4.740164,18.937067 c -0.215194,0.22225 -0.3951102,0.306916 -0.6455819,0.306916 -0.4833045,0 -0.874887,-0.402166 -0.874887,-0.888998 0,-0.211666 0.081139,-0.437443 0.215194,-0.592665 0.1587497,-0.186972 0.3845269,-0.28575 0.6491097,-0.28575 0.3033882,0 0.5079989,0.09878 0.6843874,0.328083 H 5.308135 C 5.2058297,17.578876 5.1141076,17.455404 4.9377191,17.310765 4.6978308,17.116738 4.3909148,17.010905 4.0734155,17.010905 c -0.737304,0 -1.3405526,0.603248 -1.3405526,1.340552 0,0.754943 0.6103042,1.358192 1.3723025,1.358192 0.5362211,0 0.9983589,-0.296333 1.2029696,-0.772582 z"
         style="fill:#ffffff"
         id="path6802" />
      <path
         d="M 5.6185744,19.663788 H 6.8991549 V 19.20165 H 6.1018789 V 17.056766 H 5.6185744 Z"
         style="fill:#ffffff"
         id="path6804" />
      <path
         d="m 8.3243638,17.010905 c -0.7761094,0 -1.3758304,0.589137 -1.3758304,1.351136 0,0.754942 0.6067765,1.347608 1.3723026,1.347608 0.7584706,0 1.3440804,-0.589138 1.3440804,-1.347608 0,-0.751415 -0.5961932,-1.351136 -1.3405526,-1.351136 z m -0.00706,0.465665 c 0.4833045,0 0.8607759,0.388055 0.8607759,0.888998 0,0.504472 -0.3668881,0.878415 -0.8607759,0.878415 -0.4938878,0 -0.8819425,-0.388054 -0.8819425,-0.881942 0,-0.504471 0.3809992,-0.885471 0.8819425,-0.885471 z"
         style="fill:#ffffff"
         id="path6806" />
      <path
         d="m 11.919155,18.937067 c -0.215194,0.22225 -0.39511,0.306916 -0.645582,0.306916 -0.483304,0 -0.874887,-0.402166 -0.874887,-0.888998 0,-0.211666 0.08114,-0.437443 0.215194,-0.592665 0.15875,-0.186972 0.384527,-0.28575 0.64911,-0.28575 0.303388,0 0.507999,0.09878 0.684387,0.328083 h 0.539749 c -0.102305,-0.225777 -0.194027,-0.349249 -0.370416,-0.493888 -0.239888,-0.194027 -0.546804,-0.29986 -0.864303,-0.29986 -0.737304,0 -1.3405528,0.603248 -1.3405528,1.340552 0,0.754943 0.6103038,1.358192 1.3723028,1.358192 0.536221,0 0.998359,-0.296333 1.202969,-0.772582 z"
         style="fill:#ffffff"
         id="path6808" />
      <path
         d="m 12.811676,19.663788 h 0.483304 v -1.146525 l 0.807859,1.146525 h 0.582082 l -0.98072,-1.326442 0.98072,-1.28058 h -0.582082 l -0.807859,1.125358 v -1.125358 h -0.483304 z"
         style="fill:#ffffff"
         id="path6810" />
      <path
         d="m 15.013001,19.663788 h 0.469193 v -0.451555 h -0.469193 z m 0,-1.301747 h 0.469193 v -0.469194 h -0.469193 z"
         style="fill:#ffffff"
         id="path6812" />
    </g>
    <g
       aria-label="GATE"
       id="text22010"
       style="font-weight:600;font-size:2.82222px;line-height:1.25;font-family:'URW Gothic';-inkscape-font-specification:'URW Gothic, Semi-Bold';text-align:center;text-anchor:middle;fill:#ffffff;stroke-width:0.264583"
       transform="translate(0.52916667,-10.583334)">
      <path
         d="m 27.01961,118.90554 h 0.863599 c -0.110066,0.23143 -0.335844,0.36689 -0.612421,0.36689 -0.409222,0 -0.722489,-0.3048 -0.722489,-0.70555 0,-0.18062 0.0762,-0.37818 0.194734,-0.50518 0.121355,-0.12982 0.304799,-0.2032 0.505177,-0.2032 0.242711,0 0.445911,0.0988 0.572911,0.27658 h 0.454377 c -0.135467,-0.37536 -0.564444,-0.64911 -1.018821,-0.64911 -0.612422,0 -1.097844,0.47413 -1.097844,1.07526 0,0.61242 0.493888,1.08374 1.134532,1.08374 0.316089,0 0.5842,-0.11007 0.790222,-0.32174 0.191911,-0.20038 0.299155,-0.46002 0.299155,-0.72813 v -0.0508 H 27.01961 Z"
         id="path26888" />
      <path
         d="m 28.360158,119.60828 h 0.426155 l 0.231422,-0.53905 h 0.742244 l 0.222955,0.53905 h 0.426155 l -0.874888,-2.08562 h -0.3048 z m 0.798688,-0.90876 0.222955,-0.63218 0.222956,0.63218 z"
         id="path26890" />
      <path
         d="m 30.719532,119.60828 h 0.386644 v -1.71591 h 0.386644 v -0.36971 h -1.159932 v 0.36971 h 0.386644 z"
         id="path26892" />
      <path
         d="m 31.690371,119.60828 h 1.120421 v -0.36971 h -0.733777 v -0.48543 h 0.702733 v -0.36971 h -0.702733 v -0.49106 h 0.733777 v -0.36971 h -1.120421 z"
         id="path26894" />
    </g>
  </g>
  <g
     inkscape:groupmode="layer"
     id="layer3"
     inkscape:label="back"
     style="filter:url(#filter1927)"
     transform="translate(0.02065398,0.01120977)" />
  <g
     inkscape:groupmode="layer"
     id="layer5"
     inkscape:label="Layer 2"
     transform="translate(0.02065398,0.00149455)">
    <path
       style="fill:#ffffff;stroke-width:0.0189395"
       d="m 18.267028,124.307 v -2.15173 h 1.997932 1.997933 v 2.15173 2.15174 H 20.26496 18.267028 Z m 3.489246,1.79579 c 0.176112,-0.0328 0.188417,-0.0379 0.17514,-0.0717 -0.03982,-0.10158 -0.05186,-0.11576 -0.0886,-0.10437 -0.110664,0.0342 -0.333653,0.0622 -0.416974,0.0523 -0.249049,-0.0296 -0.454743,-0.33216 -0.617112,-0.90759 -0.05823,-0.20634 -0.105497,-0.5846 -0.08383,-0.67066 0.01458,-0.0578 8.84e-4,-0.071 -0.157356,-0.15081 l -0.111888,-0.0564 0.13653,-0.11491 c 0.144612,-0.12172 0.287208,-0.29679 0.341456,-0.41921 0.01859,-0.0419 0.03272,-0.13005 0.03272,-0.20404 0,-0.17012 -0.06847,-0.28201 -0.286703,-0.46853 -0.0878,-0.0751 -0.159642,-0.15114 -0.159642,-0.16911 0,-0.0316 -0.02963,-0.033 -0.927036,-0.0446 -0.509867,-0.007 -0.929429,-0.01 -0.932356,-0.007 -0.0029,0.003 -0.01044,0.0829 -0.01674,0.17807 l -0.01152,0.17298 h 0.171054 0.171054 l -0.01386,0.7721 c -0.0076,0.42461 -0.0198,0.96262 -0.02713,1.19554 l -0.01332,0.42349 0.133884,0.0111 c 0.07364,0.007 0.13617,0.009 0.138942,0.007 0.0027,-0.003 0.01206,-0.30325 0.02072,-0.66869 l 0.01566,-0.66443 0.374303,0.008 c 0.423462,0.009 0.54678,0.032 0.788769,0.14429 l 0.13815,0.0641 0.01332,0.22698 c 0.031,0.5251 0.284057,1.1567 0.547177,1.36562 0.171846,0.13644 0.337126,0.16134 0.665061,0.10021 z m -1.703859,-2.02617 c -0.04091,-0.009 -0.245582,-0.0204 -0.454815,-0.026 l -0.380423,-0.01 0.01386,-0.22816 c 0.0076,-0.12549 0.01386,-0.33312 0.01386,-0.46141 v -0.23324 l 0.611069,0.0102 0.61107,0.0102 0.06035,0.0443 c 0.10629,0.0779 0.171936,0.18511 0.171936,0.28063 0,0.15644 -0.199421,0.41338 -0.430375,0.55448 -0.07047,0.043 -0.131238,0.0775 -0.135054,0.0766 -0.0038,-9e-4 -0.04041,-0.009 -0.08132,-0.0177 z m 3.074675,1.9771 c -0.01832,-0.0247 -0.0574,-0.11076 -0.08683,-0.19139 -0.0504,-0.1381 -0.05479,-0.18259 -0.07564,-0.76659 -0.03046,-0.85297 -0.07772,-1.33843 -0.213833,-2.19655 -0.03449,-0.21737 -0.05836,-0.39867 -0.05308,-0.40287 0.01404,-0.0112 0.269127,-0.0674 0.489753,-0.10806 0.150804,-0.0278 0.255847,-0.0348 0.496246,-0.0333 0.311059,0.002 0.407849,-0.0126 0.49337,-0.0741 0.0279,-0.0201 0.163314,-0.0282 0.689775,-0.0415 0.360282,-0.009 0.657864,-0.0144 0.661292,-0.0117 0.01062,0.008 0.131184,0.56522 0.176094,0.81356 0.136008,0.75175 0.176148,1.46567 0.136728,2.43174 l -0.01386,0.33907 -0.299614,0.0295 c -0.413806,0.0408 -0.587308,0.0705 -0.809288,0.13846 l -0.190856,0.0584 -0.114408,-0.0444 c -0.220791,-0.0859 -0.619604,-0.0672 -1.047748,0.0488 l -0.204821,0.0555 z m 1.507395,-0.45989 c -0.0063,-0.0859 -0.01674,-0.24343 -0.02324,-0.35019 -0.0065,-0.10673 -0.03519,-0.34216 -0.06381,-0.52316 -0.10773,-0.6811 -0.120888,-0.88521 -0.05787,-0.89828 0.02059,-0.005 0.207531,-0.0299 0.415427,-0.0568 0.352538,-0.0457 0.377309,-0.0513 0.367832,-0.0828 -0.0056,-0.0186 -0.02216,-0.0971 -0.03681,-0.17442 l -0.02664,-0.14068 -0.097,0.0113 c -0.05335,0.007 -0.283512,0.0381 -0.511468,0.0709 -0.472054,0.0678 -0.785364,0.0851 -1.041319,0.0579 -0.09749,-0.0104 -0.181003,-0.0159 -0.185602,-0.0123 -0.0088,0.008 -0.06955,0.33677 -0.06289,0.34162 0.01674,0.0122 0.426318,0.0398 0.590001,0.0398 l 0.203511,6e-5 0.02543,0.27004 c 0.01404,0.14853 0.04905,0.41244 0.0779,0.58645 0.04329,0.26103 0.09324,0.77139 0.09499,0.97037 l 4.01e-4,0.0464 h 0.171324 0.171324 z m -9.839762,0.0486 c -0.311238,-1.61423 -0.374208,-2.10711 -0.374566,-2.93176 l -2.11e-4,-0.48262 0.260368,-0.0449 c 0.538797,-0.0929 0.987201,-0.13983 1.71631,-0.17971 0.350645,-0.0191 1.007712,-0.048 1.012402,-0.0443 0.0015,9e-4 -0.007,0.15785 -0.01892,0.34813 -0.03443,0.54831 0.0027,0.94955 0.195434,2.10768 0.0761,0.45744 0.104093,0.65641 0.139427,0.99089 l 0.0126,0.11989 -0.410131,0.0526 c -0.429127,0.055 -0.717279,0.0817 -1.494116,0.13838 -0.452862,0.033 -0.801828,0.07 -0.936951,0.0993 l -0.06552,0.0143 z m 1.530676,-0.277 c 0.0317,-0.23874 0.03562,-0.73144 0.0076,-0.94018 -0.01134,-0.0835 -0.02695,-0.30188 -0.03487,-0.4852 l -0.0144,-0.3333 h 0.214602 0.214601 l 0.01386,0.0731 c 0.02167,0.11476 0.02536,0.11651 0.188133,0.0894 0.07871,-0.013 0.149004,-0.0284 0.156186,-0.0342 0.0072,-0.006 -0.0088,-0.092 -0.03548,-0.19172 -0.02669,-0.0997 -0.05357,-0.24779 -0.05971,-0.32902 l -0.01116,-0.14767 h -0.167142 -0.167094 v 0.0591 0.0591 h -0.797049 -0.797047 v 0.21096 0.21095 h 0.403837 0.403838 l 5.63e-4,0.1561 c 5.11e-4,0.14576 0.01404,0.34293 0.06073,0.88179 0.01242,0.14276 0.01098,0.30488 -0.0041,0.4641 -0.0126,0.13459 -0.02356,0.28648 -0.02419,0.33754 l -0.0012,0.0928 0.20192,0.0174 c 0.11106,0.01 0.20629,0.015 0.211635,0.012 0.0054,-0.003 0.02153,-0.0944 0.03596,-0.20311 z m -2.90473,0.2611 c -0.122922,-0.0393 -0.276973,-0.0953 -0.342347,-0.12455 l -0.118854,-0.0533 -0.141192,0.0407 -0.141192,0.0407 -0.159894,-0.0751 -0.159894,-0.0751 -0.318794,0.0231 -0.318794,0.0231 -0.100512,-0.0827 -0.100512,-0.0827 -0.265681,0.0223 c -0.146124,0.0122 -0.269201,0.0203 -0.273501,0.0176 -0.0043,-0.003 0.08156,-0.70372 0.190807,-1.55816 l 0.198627,-1.55352 0.202401,0.009 c 0.512071,0.0232 0.836485,0.0514 1.643815,0.14265 0.477148,0.0539 0.8732,0.10256 0.880117,0.10806 0.0068,0.006 -0.06019,0.53976 -0.149148,1.18725 -0.08894,0.64749 -0.181756,1.34056 -0.206247,1.54012 -0.0567,0.46204 -0.06638,0.52335 -0.08253,0.52235 -0.0072,-4.2e-4 -0.113778,-0.0328 -0.236688,-0.0721 z m -0.223621,-0.70281 0.14688,-0.11754 -0.04099,-0.0386 c -0.02255,-0.0213 -0.08158,-0.0742 -0.131166,-0.11773 -0.101754,-0.0892 -0.142146,-0.15238 -0.251885,-0.39339 -0.04226,-0.0928 -0.09536,-0.19429 -0.117989,-0.22547 -0.02509,-0.0346 -0.03393,-0.0641 -0.02264,-0.0759 0.01026,-0.0106 0.156995,-0.15592 0.326263,-0.32301 0.169272,-0.16707 0.31441,-0.31269 0.322521,-0.32361 0.01458,-0.0196 -0.279232,-0.22487 -0.321952,-0.22487 -0.01134,0 -0.133506,0.11174 -0.271425,0.2483 l -0.250749,0.2483 -0.0491,-0.0838 c -0.04939,-0.0842 -0.05476,-0.18017 -0.01674,-0.29893 0.01134,-0.0353 0.0072,-0.0464 -0.0171,-0.0464 -0.09932,0 -0.316917,-0.0753 -0.461516,-0.15951 -0.08768,-0.0511 -0.173772,-0.0931 -0.19134,-0.0933 -0.03022,-4.1e-4 -0.234774,0.2447 -0.232846,0.27891 9e-4,0.0169 0.25815,0.16424 0.372807,0.2136 0.05339,0.023 0.06908,0.0424 0.0783,0.097 0.0117,0.069 0.104598,0.23701 0.182529,0.32992 l 0.04246,0.0506 -0.402268,0.39448 c -0.221247,0.21696 -0.402267,0.39684 -0.402267,0.39972 0,0.0122 0.317332,0.20994 0.336835,0.20994 0.0117,0 0.156924,-0.13341 0.322607,-0.29646 0.16569,-0.16306 0.304443,-0.29394 0.308347,-0.29084 0.004,0.003 0.04129,0.0806 0.08309,0.17233 0.0418,0.0917 0.106128,0.2085 0.142956,0.25961 0.06167,0.0856 0.323368,0.32413 0.355586,0.32413 0.0077,0 0.08003,-0.053 0.16083,-0.11753 z m 13.125474,-0.87819 v -1.60325 h 1.328414 1.32841 v 1.60325 1.60326 h -1.32841 -1.328414 z m 2.264137,1.2811 c 0.140561,-0.0705 0.151973,-0.081 0.118493,-0.10903 -0.01134,-0.009 -0.0117,-0.15123 -0.0011,-0.34513 0.0099,-0.18099 0.01858,-0.65754 0.01913,-1.05898 l 0.0011,-0.72991 h -0.156289 -0.156294 l -0.01368,0.12911 c -0.0076,0.071 -0.01368,0.43555 -0.01368,0.81007 0,0.37897 -0.0083,0.68095 -0.01865,0.68095 -0.01026,0 -0.03825,-0.0362 -0.06223,-0.0804 -0.226591,-0.41823 -0.541388,-0.90569 -0.743643,-1.15153 -0.06491,-0.0789 -0.116982,-0.15658 -0.115722,-0.17261 0.0014,-0.016 -0.02817,-0.046 -0.06543,-0.0665 -0.03724,-0.0205 -0.127584,-0.0813 -0.200771,-0.13497 -0.142865,-0.10483 -0.240225,-0.13666 -0.478019,-0.15623 l -0.12222,-0.0101 v 0.12461 c 0,0.0685 -0.0058,0.14752 -0.01278,0.17552 -0.01278,0.0506 -0.01206,0.0509 0.100962,0.0621 0.06259,0.007 0.13401,0.019 0.158724,0.0288 0.04392,0.0171 0.04421,0.0199 0.01242,0.12002 -0.02668,0.0841 -0.02806,0.11955 -0.0077,0.19769 0.01674,0.0644 0.02477,0.34704 0.02477,0.87474 v 0.77951 h 0.146124 0.146123 l 0.01332,-0.0527 c 0.0074,-0.029 0.01332,-0.42039 0.01332,-0.86973 0,-0.80221 8.04e-4,-0.81667 0.04106,-0.79953 0.0707,0.0301 0.316499,0.37376 0.543521,0.76004 0.319761,0.54409 0.421551,0.70841 0.54623,0.88179 0.07175,0.0998 0.133848,0.18143 0.13797,0.18143 0.0041,0 0.06946,-0.031 0.145152,-0.069 z"
       id="path365" />
  </g>
  <g
     inkscape:label="Layer 1"
     inkscape:groupmode="layer"
     id="layer1"
     transform="translate(0.02065398,-168.48876)"
     style="display:inline">
    <g
       aria-label="Pitch"
       style="font-style:normal;font-variant:normal;font-weight:300;font-stretch:normal;font-size:4.93889px;line-height:6.61458px;font-family:'Gotham Rounded';-inkscape-font-specification:'Gotham Rounded Light';font-variant-ligatures:normal;font-variant-caps:normal;font-variant-numeric:normal;font-feature-settings:normal;text-align:center;letter-spacing:0px;word-spacing:0px;writing-mode:lr-tb;text-anchor:middle;display:inline;fill:#000000;fill-opacity:1;stroke:#000000;stroke-width:0.264583px;stroke-linecap:butt;stroke-linejoin:miter;stroke-opacity:1"
       id="text4944"
       transform="translate(0,10.583334)" />
    <text
       xml:space="preserve"
       style="font-style:normal;font-weight:normal;font-size:10.5833px;line-height:1.25;font-family:sans-serif;fill:#000000;fill-opacity:1;stroke:#000000;stroke-width:0.264583"
       x="10.375626"
       y="254.64096"
       id="text72"><tspan
         sodipodi:role="line"
         id="tspan70"
         x="10.375626"
         y="254.64096"
         style="fill:#000000;stroke:#000000;stroke-width:0.264583" /></text>
  </g>
  <g
     inkscape:groupmode="layer"
     id="layer2"
     inkscape:label="components"
     transform="translate(0.02065398,0.0112208)">
    <text
       xml:space="preserve"
       style="font-style:normal;font-weight:normal;font-size:10.5833px;line-height:1.25;font-family:sans-serif;fill:#000000;fill-opacity:1;stroke:#000000;stroke-width:0.264583"
       x="-65.249954"
       y="111.72212"
       id="text144"><tspan
         sodipodi:role="line"
         id="tspan142"
         x="-65.249954"
         y="111.72212"
         style="fill:#000000;stroke:#000000;stroke-width:0.264583" /></text>
    <text
       xml:space="preserve"
       style="font-size:3.52777px;line-height:1.25;font-family:sans-serif;fill:#000000;stroke:#000000;stroke-width:0.264583"
       x="17.94903"
       y="75.780609"
       id="text1055"><tspan
         sodipodi:role="line"
         id="tspan1053"
         x="17.94903"
         y="75.780609"
         style="fill:#000000;stroke:#000000;stroke-width:0.264583" /></text>
    <text
       xml:space="preserve"
       style="font-size:3.52777px;line-height:1.25;font-family:sans-serif;fill:#000000;stroke:#000000;stroke-width:0.264583"
       x="5.6367397"
       y="125.28948"
       id="text1388"><tspan
         sodipodi:role="line"
         id="tspan1386"
         x="5.6367397"
         y="125.28948"
         style="fill:#000000;stroke:#000000;stroke-width:0.264583" /></text>
    <text
       xml:space="preserve"
       style="font-weight:600;font-size:3.52777px;line-height:1.25;font-family:'URW Gothic';-inkscape-font-specification:'URW Gothic, Semi-Bold';fill:#ffffff;stroke-width:0.264583"
       x="3.3458118"
       y="78.44635"
       id="text123"><tspan
         sodipodi:role="line"
         id="tspan121"
         x="3.3458118"
         y="78.44635"
         style="fill:#ffffff;stroke-width:0.264583" /></text>
  </g>
</svg>
