<?xml version="1.0" encoding="UTF-8" standalone="no"?>
<svg
   width="40mm"
   height="128.5mm"
   viewBox="0 0 40.000003 128.50002"
   version="1.1"
   id="svg8"
   inkscape:version="1.1 (c4e8f9ed74, 2021-05-24)"
   sodipodi:docname="Puzzlebox.svg"
   xmlns:inkscape="http://www.inkscape.org/namespaces/inkscape"
   xmlns:sodipodi="http://sodipodi.sourceforge.net/DTD/sodipodi-0.dtd"
   xmlns:xlink="http://www.w3.org/1999/xlink"
   xmlns="http://www.w3.org/2000/svg"
   xmlns:svg="http://www.w3.org/2000/svg"
   xmlns:rdf="http://www.w3.org/1999/02/22-rdf-syntax-ns#"
   xmlns:cc="http://creativecommons.org/ns#"
   xmlns:dc="http://purl.org/dc/elements/1.1/">
  <defs
     id="defs2">
    <linearGradient
       inkscape:collect="always"
       id="linearGradient915">
      <stop
         style="stop-color:#1a1a1a;stop-opacity:1;"
         offset="0"
         id="stop911" />
      <stop
         style="stop-color:#000000;stop-opacity:1"
         offset="1"
         id="stop913" />
    </linearGradient>
    <linearGradient
       inkscape:collect="always"
       xlink:href="#linearGradient915"
       id="linearGradient917"
       x1="21.843306"
       y1="184.90462"
       x2="28.992741"
       y2="254.86272"
       gradientUnits="userSpaceOnUse" />
  </defs>
  <sodipodi:namedview
     id="base"
     pagecolor="#ffffff"
     bordercolor="#666666"
     borderopacity="1.0"
     inkscape:pageopacity="0.0"
     inkscape:pageshadow="2"
     inkscape:zoom="1.4"
     inkscape:cx="142.5"
     inkscape:cy="102.5"
     inkscape:document-units="mm"
     inkscape:current-layer="layer1"
     showgrid="false"
     units="mm"
     inkscape:snap-bbox="true"
     inkscape:snap-page="true"
     inkscape:bbox-nodes="false"
     inkscape:snap-bbox-edge-midpoints="false"
     inkscape:window-width="1366"
     inkscape:window-height="768"
     inkscape:window-x="0"
     inkscape:window-y="0"
     inkscape:window-maximized="0"
     inkscape:snap-bbox-midpoints="true"
     inkscape:snap-nodes="false"
     inkscape:document-rotation="0"
     inkscape:bbox-paths="false"
     inkscape:snap-object-midpoints="false"
     inkscape:snap-center="false"
     showguides="false"
     inkscape:pagecheckerboard="0" />
  <metadata
     id="metadata5">
    <rdf:RDF>
      <cc:Work
         rdf:about="">
        <dc:format>image/svg+xml</dc:format>
        <dc:type
           rdf:resource="http://purl.org/dc/dcmitype/StillImage" />
        <dc:title />
      </cc:Work>
    </rdf:RDF>
  </metadata>
  <g
     inkscape:label="Layer 1"
     inkscape:groupmode="layer"
     id="layer1"
     transform="translate(0,-168.49998)">
    <rect
       style="display:inline;opacity:1;vector-effect:none;fill:url(#linearGradient917);fill-opacity:1;fill-rule:evenodd;stroke:none;stroke-width:0.749955;stroke-linecap:butt;stroke-linejoin:miter;stroke-miterlimit:4;stroke-dasharray:none;stroke-dashoffset:0;stroke-opacity:1;paint-order:normal"
       id="rect420"
       width="40.655247"
       height="128.5"
       x="5.9211732e-17"
       y="168.49997" />
    <g
       aria-label="Pitch"
       style="font-style:normal;font-variant:normal;font-weight:300;font-stretch:normal;font-size:4.93889px;line-height:6.61458px;font-family:'Gotham Rounded';-inkscape-font-specification:'Gotham Rounded Light';font-variant-ligatures:normal;font-variant-caps:normal;font-variant-numeric:normal;font-feature-settings:normal;text-align:center;letter-spacing:0px;word-spacing:0px;writing-mode:lr-tb;text-anchor:middle;display:inline;fill:#000000;fill-opacity:1;stroke:none;stroke-width:0.264583px;stroke-linecap:butt;stroke-linejoin:miter;stroke-opacity:1"
       id="text4944"
       transform="translate(0,10.583334)" />
    <path
       style="fill:#008080;fill-opacity:0.458824;stroke-width:0.05"
       d="m 34.782049,294.76162 c 0.08637,-0.0527 0.173657,-0.12263 0.193962,-0.15549 0.02031,-0.0329 0.145355,-0.1078 0.277889,-0.16655 0.28466,-0.12619 0.87174,-0.67794 0.918167,-0.86292 0.01985,-0.0791 0.0047,-0.17199 -0.03904,-0.23868 -0.09623,-0.14687 -0.81276,-0.5604 -1.040825,-0.60069 -0.100541,-0.0178 -0.731755,-0.0524 -1.402696,-0.077 -1.285578,-0.0471 -1.239923,-0.0393 -2.0645,-0.35462 -0.288651,-0.11039 -0.377551,-0.11607 -2.35,-0.15025 -1.20517,-0.0209 -2.117678,-0.0574 -2.214221,-0.0886 -0.09032,-0.0292 -0.235303,-0.11289 -0.322181,-0.18599 -0.08688,-0.0731 -0.21548,-0.15615 -0.28578,-0.18455 -0.07132,-0.0288 -0.792554,-0.0653 -1.631553,-0.0826 l -1.503734,-0.031 -0.196266,-0.13691 c -0.107946,-0.0753 -0.251203,-0.17655 -0.318349,-0.225 -0.103907,-0.075 -0.275122,-0.0919 -1.15,-0.11405 -0.565354,-0.0143 -1.061666,-0.0459 -1.102916,-0.0702 -0.04125,-0.0244 -0.169158,-0.11987 -0.28424,-0.21222 -0.25648,-0.20583 -0.536795,-0.26533 -1.236483,-0.26245 -0.559674,0.002 -0.745807,-0.0475 -1.009824,-0.27013 -0.233616,-0.19702 -0.378919,-0.23399 -0.919453,-0.23399 -0.574446,0 -0.695124,-0.0367 -0.977747,-0.29719 -0.205258,-0.18921 -0.217183,-0.19302 -0.703026,-0.22507 -0.647531,-0.0427 -0.687601,-0.053 -0.887598,-0.22863 -0.241112,-0.21169 -0.48273,-0.29911 -0.826768,-0.29911 -0.375155,0 -0.531247,-0.0587 -0.768286,-0.28903 -0.181117,-0.17597 -0.209096,-0.18538 -0.721464,-0.24264 l -0.533042,-0.0595 -0.210612,-0.22939 c -0.196811,-0.21435 -0.227141,-0.22938 -0.46278,-0.22938 -0.324668,0 -0.491883,-0.0654 -0.710532,-0.27773 -0.147882,-0.14364 -0.245472,-0.18554 -0.595694,-0.25578 -0.365198,-0.0733 -0.449532,-0.11127 -0.658502,-0.29687 -0.183691,-0.16314 -0.295632,-0.22092 -0.479306,-0.24739 -0.389525,-0.0562 -0.548265,-0.14411 -0.66186,-0.36678 -0.113574,-0.22262 -0.229121,-0.30545 -0.426101,-0.30545 -0.07144,0 -0.209386,-0.0332 -0.306544,-0.0738 -0.157544,-0.0658 -0.174947,-0.0915 -0.160894,-0.2375 0.01442,-0.14985 0.03581,-0.16864 0.252965,-0.22224 0.325069,-0.0802 0.531429,-0.0154 0.67895,0.21325 l 0.116159,0.18006 0.383841,-0.0314 c 0.455638,-0.0373 0.588318,0.0143 0.733841,0.28521 l 0.1,0.18617 h 0.484245 c 0.563946,0 0.686787,0.0376 0.96574,0.29478 l 0.206038,0.18992 0.571988,0.0352 c 0.731155,0.045 0.868892,0.0839 1.164932,0.32905 l 0.242945,0.20117 h 0.612731 c 0.762286,0 1.091278,0.0595 1.314395,0.23774 0.345828,0.27627 0.355248,0.27799 1.69512,0.30953 l 1.258135,0.0296 0.416865,0.22406 0.416864,0.22406 h 4.775 c 4.290303,0 4.790226,-0.008 4.925,-0.0804 0.0825,-0.0442 0.27375,-0.14442 0.425,-0.22273 l 0.275,-0.14237 1.309944,-0.0333 1.309944,-0.0333 0.324406,-0.15646 c 0.393283,-0.18968 0.50741,-0.19296 0.984449,-0.0283 0.501737,0.17315 1.425259,0.2403 2.771257,0.2015 1.10923,-0.032 1.256735,-0.0553 1.775,-0.28034 0.456052,-0.19806 0.929415,-0.24928 2.303618,-0.24928 h 1.196382 v 3.65 3.65 h -3.1875 c -3.161833,0 -3.186235,-9.5e-4 -3.030455,-0.0959 z m -12.307045,-9.68518 c -0.11,-0.0118 -0.515,-0.0696 -0.9,-0.1284 -0.629958,-0.0963 -0.990175,-0.1102 -3.6,-0.13928 -3.111147,-0.0347 -3.099549,-0.0337 -3.471773,-0.2987 -0.286215,-0.20381 -0.396316,-0.21834 -1.879676,-0.24814 l -1.451449,-0.0292 -0.372072,-0.225 -0.372072,-0.225 -1.106303,-0.0273 c -1.219598,-0.0301 -1.053401,0.007 -1.834101,-0.40837 -0.160727,-0.0855 -0.335353,-0.1056 -1.225,-0.14108 -0.570653,-0.0228 -1.088177,-0.0568 -1.150052,-0.0756 -0.109072,-0.0332 -0.1125,-0.0539 -0.1125,-0.67841 v -0.64417 l 2.5125,6.5e-4 c 2.739075,7.5e-4 3.721666,0.0533 5.017008,0.26856 0.646721,0.10746 0.974036,0.12842 2.47049,0.15818 l 1.725,0.0343 0.401817,-0.15538 c 0.220999,-0.0854 0.513499,-0.18016 0.65,-0.21046 0.144053,-0.032 1.17124,-0.07 2.448183,-0.0906 1.21,-0.0195 2.245,-0.0543 2.3,-0.0772 0.055,-0.023 0.213257,-0.11781 0.351682,-0.21079 0.327622,-0.22006 0.626719,-0.26668 1.713301,-0.26704 0.896333,-5e-4 1.047291,-0.0289 1.213658,-0.22992 0.160119,-0.19347 0.446088,-0.26813 1.031398,-0.26927 0.723774,-0.001 1.012031,-0.0648 1.268133,-0.27875 0.263119,-0.21983 0.465497,-0.27173 1.060868,-0.27207 l 0.489041,-5e-4 0.242231,-0.25 c 0.239743,-0.24743 0.245507,-0.25003 0.56096,-0.25298 0.568742,-0.005 0.790114,-0.0637 0.932785,-0.246 0.158596,-0.20265 0.386205,-0.301 0.696837,-0.3011 0.247046,0 0.426411,-0.0744 0.756467,-0.31359 0.132496,-0.096 0.31046,-0.15937 0.578466,-0.20597 0.346345,-0.0602 0.409536,-0.0893 0.600262,-0.27652 0.186064,-0.18261 0.253471,-0.21491 0.530151,-0.25402 0.278056,-0.0393 0.33889,-0.0687 0.495371,-0.23942 0.120669,-0.13164 0.267369,-0.22375 0.453389,-0.28467 0.15125,-0.0495 0.35375,-0.1514 0.45,-0.22637 0.09625,-0.075 0.292317,-0.19546 0.435704,-0.26776 0.143388,-0.0723 0.284332,-0.17561 0.313208,-0.22957 0.02888,-0.054 0.20406,-0.19999 0.389296,-0.32452 0.771437,-0.51863 1.111053,-0.89484 1.111536,-1.2313 4.5e-4,-0.29781 -0.15214,-0.39459 -0.706542,-0.44822 -0.257511,-0.0249 -2.324452,-0.0466 -4.593202,-0.0482 -2.323238,-0.002 -4.286353,-0.0239 -4.494406,-0.0509 -0.203173,-0.0264 -0.494901,-0.10541 -0.648285,-0.17562 -0.153383,-0.0702 -0.369651,-0.1514 -0.480594,-0.18039 -0.110943,-0.029 -0.966715,-0.0686 -1.901715,-0.0879 -1.838676,-0.0381 -1.935275,-0.0525 -2.228764,-0.33366 -0.194288,-0.18609 -0.39638,-0.22134 -1.270906,-0.22164 -0.440182,0 -0.886298,-0.0242 -0.991369,-0.0533 -0.105072,-0.0292 -0.282774,-0.13593 -0.394894,-0.23723 l -0.203855,-0.18417 -0.680106,-0.0288 c -0.740567,-0.0314 -0.893025,-0.0756 -1.217673,-0.35332 -0.182287,-0.15593 -0.204287,-0.1613 -0.781573,-0.19061 -0.627962,-0.0319 -0.656563,-0.0423 -0.915077,-0.3324 -0.13316,-0.14944 -0.156779,-0.15618 -0.641236,-0.18288 -0.538985,-0.0297 -0.64842,-0.0722 -0.894256,-0.34734 -0.120558,-0.13493 -0.178369,-0.15645 -0.499411,-0.18587 -0.352956,-0.0323 -0.369088,-0.0398 -0.579054,-0.26852 -0.193852,-0.21112 -0.238312,-0.23526 -0.433903,-0.23551 -0.325316,-5e-4 -0.563498,-0.083 -0.793634,-0.27532 -0.113543,-0.0949 -0.300457,-0.19667 -0.415364,-0.22625 -0.422989,-0.10888 -0.546143,-0.16194 -0.710199,-0.30598 -0.09224,-0.081 -0.308804,-0.20254 -0.481265,-0.27013 -0.172461,-0.0676 -0.381941,-0.18775 -0.465512,-0.26703 -0.08646,-0.082 -0.275974,-0.17944 -0.439713,-0.22605 -0.237166,-0.0675 -0.310336,-0.11602 -0.416123,-0.27587 -0.133432,-0.20163 -0.26232,-0.27329 -0.589365,-0.32766 -0.135702,-0.0226 -0.259501,-0.0974 -0.415704,-0.25143 -0.122347,-0.12061 -0.262944,-0.23215 -0.312438,-0.24786 -0.04949,-0.0157 -0.184391,-0.14052 -0.299772,-0.27735 -0.115381,-0.13684 -0.240826,-0.24879 -0.278767,-0.24879 -0.03794,0 -0.173647,-0.0906 -0.301571,-0.20131 -0.127923,-0.11071 -0.324729,-0.24831 -0.437347,-0.30576 -0.321543,-0.16404 -1.308618,-1.2003 -1.504143,-1.5791 -0.135864,-0.26293 -0.332004,-0.841 -0.332004,-0.97821 0,-0.16979 0.332693,-0.4535 0.629115,-0.53649 0.226452,-0.0634 0.4085,-0.0572 1.420885,0.0487 0.26125,0.0273 0.880591,0.0503 1.376312,0.051 1.150214,0.002 1.645431,0.0634 2.095487,0.26092 0.192677,0.0846 0.418469,0.17495 0.501761,0.20085 0.226881,0.0705 5.779476,0.1352 8.376438,0.0976 1.25125,-0.0181 2.375062,-0.019 2.497359,-0.002 0.185407,0.0259 0.25482,0.0695 0.417703,0.2625 0.193938,0.22977 0.197596,0.23143 0.508163,0.23143 0.172049,0 0.418151,-0.0144 0.546892,-0.0321 l 0.234073,-0.0321 -0.263329,-0.13158 c -0.318794,-0.15929 -0.43813,-0.33574 -0.353175,-0.5222 0.116839,-0.25643 0.296851,-0.29925 1.412314,-0.3359 0.56375,-0.0185 1.031128,-0.0365 1.038617,-0.0399 0.0075,-0.003 0.11659,-0.10114 0.242446,-0.21715 l 0.228829,-0.21093 0.634133,-0.0315 c 0.655126,-0.0325 0.749364,-0.0593 1.055975,-0.30062 0.210536,-0.16568 0.483003,-0.2454 0.839983,-0.24578 0.274637,-5e-4 0.490579,-0.0812 0.613659,-0.2299 0.118366,-0.14302 0.455811,-0.26811 0.726397,-0.26928 0.353099,-0.001 0.558467,-0.0838 0.649801,-0.26046 0.09355,-0.18089 0.338593,-0.29064 0.648976,-0.29064 0.211605,0 0.250504,-0.0201 0.441965,-0.22865 0.196127,-0.21361 0.2321,-0.2314 0.546784,-0.27042 0.312612,-0.0388 0.351975,-0.058 0.547141,-0.26653 0.196181,-0.20968 0.232105,-0.22699 0.535294,-0.25807 0.17875,-0.0183 1.507272,-0.0261 2.95227,-0.0173 2.431156,0.0148 2.637532,0.0227 2.764732,0.10611 0.194537,0.12753 0.249082,0.2996 0.161452,0.50933 -0.09095,0.21768 -0.240495,0.25787 -1.128454,0.30328 -0.37125,0.019 -0.689419,0.0428 -0.707041,0.053 -0.01762,0.0102 0.0555,0.10599 0.1625,0.21299 0.240391,0.24039 0.253452,0.40509 0.04839,0.61015 -0.118519,0.11852 -0.188979,0.14616 -0.372647,0.14616 -0.294397,0 -0.427402,0.0664 -0.584704,0.29186 -0.09952,0.14265 -0.192977,0.20452 -0.414326,0.2743 -0.157201,0.0496 -0.358123,0.15355 -0.446494,0.23111 -0.08837,0.0776 -0.242084,0.17501 -0.341584,0.21656 -0.0995,0.0416 -0.24533,0.16001 -0.324066,0.26324 -0.25646,0.33624 -0.08814,0.32292 -4.082296,0.32292 h -3.615483 l -0.259347,0.29464 c -0.244397,0.27765 -0.252964,0.29634 -0.148622,0.32431 0.0609,0.0163 0.394241,0.03 0.740762,0.0304 0.346521,5e-4 0.698903,0.0247 0.783071,0.054 0.08657,0.0302 0.209553,0.13876 0.28317,0.25 0.07158,0.10816 0.169195,0.19929 0.21693,0.20252 0.04773,0.003 0.41304,0.01 0.81179,0.014 0.798644,0.009 0.955174,0.0512 1.051319,0.28329 0.14844,0.35837 -0.115001,0.64629 -0.591637,0.64663 -0.234982,0 -0.282148,0.0186 -0.4125,0.16133 -0.08095,0.0888 -0.147185,0.1752 -0.147185,0.19215 0,0.062 -0.259918,0.14688 -0.45,0.14688 -0.199703,0 -0.45,0.0858 -0.45,0.15418 0,0.021 -0.06696,0.10509 -0.148797,0.18693 -0.119398,0.1194 -0.208867,0.15577 -0.452834,0.18409 -0.237189,0.0275 -0.330896,0.0642 -0.426202,0.16703 -0.06719,0.0725 -0.122167,0.14791 -0.122167,0.16765 0,0.0197 -0.09878,0.0938 -0.219503,0.16454 -0.247223,0.14489 -0.580497,0.54124 -0.580497,0.69037 0,0.0541 0.09563,0.19393 0.2125,0.31073 0.171365,0.17125 0.269103,0.22409 0.504908,0.27298 0.210364,0.0436 0.346086,0.10913 0.483725,0.23347 0.105224,0.0951 0.265992,0.19427 0.357262,0.22045 0.09127,0.0262 0.616094,0.0475 1.166275,0.0474 0.730672,0 1.229464,0.0289 1.85033,0.10789 0.885376,0.11258 1.063144,0.10804 2.25,-0.0575 0.165,-0.023 0.98625,-0.0439 1.825,-0.0463 1.766262,-0.005 2.050616,-0.0366 2.271412,-0.25022 0.274068,-0.26524 0.4424,-0.30371 1.328848,-0.30371 h 0.803471 l 0.218675,-0.225 c 0.120271,-0.12375 0.248807,-0.2253 0.285634,-0.22568 0.03683,-5e-4 0.117585,-0.0143 0.17946,-0.0308 l 0.1125,-0.0302 v 4.93083 4.93083 h -0.522049 c -0.287127,0 -0.534767,0.0206 -0.550311,0.0457 -0.01554,0.0251 0.05178,0.0952 0.149602,0.15565 0.449913,0.27806 0.399313,0.54083 -0.1464,0.76029 -0.188932,0.076 -0.428454,0.21488 -0.53227,0.30867 -0.132642,0.11983 -0.272383,0.18789 -0.470052,0.22893 -0.203978,0.0423 -0.343082,0.11186 -0.506089,0.25295 -0.214298,0.18547 -0.372849,0.25147 -0.778654,0.32411 -0.178911,0.032 -0.23548,0.0624 -0.632579,0.33977 -0.159924,0.11171 -0.282901,0.14884 -0.590124,0.17818 -0.334872,0.032 -0.398932,0.0538 -0.467087,0.1589 -0.157731,0.24326 -0.296273,0.34681 -0.464214,0.34696 -0.840738,7.6e-4 -2.245054,0.0472 -2.291282,0.0758 -0.03568,0.0221 0.01596,0.0693 0.13426,0.12289 0.317256,0.14366 0.419847,0.30581 0.353073,0.55807 -0.06686,0.25256 -0.318852,0.30375 -1.610824,0.32724 -0.6325,0.0115 -1.202586,0.0319 -1.266857,0.0454 -0.113539,0.0238 -0.112119,0.0277 0.05,0.13684 0.308398,0.2076 0.36346,0.5516 0.114409,0.71479 -0.06334,0.0415 -0.341944,0.10495 -0.619115,0.141 -0.482162,0.0627 -0.51347,0.0743 -0.724204,0.26856 -0.131969,0.12164 -0.287191,0.21374 -0.387244,0.22976 -0.09184,0.0147 -0.875739,0.0364 -1.741989,0.0482 -1.301225,0.0177 -1.687986,0.0401 -2.225,0.12852 -0.631,0.10393 -2.291201,0.17595 -2.8,0.12144 z m 13.43974,-24.47404 c -0.355176,-0.1027 -0.419322,-0.4592 -0.131473,-0.73068 0.145694,-0.1374 0.168759,-0.18203 0.112501,-0.21764 -0.03892,-0.0246 -0.397018,-0.0455 -0.795768,-0.0463 -0.780916,-0.002 -0.921014,-0.0357 -1.043356,-0.25365 -0.100774,-0.17953 -0.0379,-0.47359 0.123932,-0.57963 0.110014,-0.0721 0.329126,-0.0831 1.736218,-0.0871 l 1.610314,-0.005 0.873946,-0.88906 c 1.378844,-1.4027 1.32883,-1.34064 1.423552,-1.76639 0.0452,-0.20317 0.06804,-0.41393 0.05077,-0.46836 -0.05646,-0.17789 -0.338357,-0.21807 -1.158695,-0.16516 l -0.745832,0.0481 -0.341098,0.20573 c -0.361549,0.21805 -0.44977,0.23804 -1.254749,0.28434 -0.346535,0.0199 -0.553713,0.0573 -0.675,0.12178 -0.753008,0.40028 -0.625887,0.36936 -1.650694,0.40153 l -0.940064,0.0295 -0.267121,0.18319 c -0.146916,0.10075 -0.368371,0.20809 -0.492121,0.23853 -0.158106,0.0389 -1.51084,0.051 -4.55,0.0408 -4.710003,-0.0158 -4.411278,0.004 -4.740181,-0.30805 l -0.165181,-0.15649 -0.859819,-0.0264 c -0.87615,-0.0269 -0.979178,-0.049 -1.16026,-0.2491 -0.172155,-0.19023 -0.349776,-0.24622 -0.922294,-0.29072 -0.446068,-0.0347 -0.586064,-0.0647 -0.70448,-0.15103 -0.08128,-0.0593 -0.216848,-0.15815 -0.301259,-0.21974 -0.116838,-0.0852 -0.250278,-0.11908 -0.558992,-0.14177 l -0.405517,-0.0298 -0.203508,-0.23349 c -0.195378,-0.22418 -0.217969,-0.23531 -0.565436,-0.27849 -0.31917,-0.0397 -0.38826,-0.0682 -0.584819,-0.24117 -0.160192,-0.141 -0.302864,-0.21409 -0.507185,-0.25982 -0.211897,-0.0474 -0.340423,-0.11536 -0.504706,-0.26679 -0.163012,-0.15026 -0.281734,-0.21337 -0.455887,-0.24237 -0.129512,-0.0216 -1.77376,-0.0395 -3.653885,-0.0399 -3.040026,-6e-4 -3.431844,-0.009 -3.539776,-0.0802 -0.270549,-0.17727 -0.273517,-0.48444 -0.0071,-0.73332 0.0847,-0.0791 0.141339,-0.15652 0.125866,-0.17199 -0.02452,-0.0245 -0.89844,-0.0655 -1.450365,-0.0681 -0.399508,-0.002 -0.59492,-0.48334 -0.306259,-0.75465 l 0.128968,-0.12122 2.791915,-0.025 c 1.535553,-0.0137 2.810606,-0.0437 2.833452,-0.0666 0.02285,-0.0229 -0.0034,-0.0731 -0.05838,-0.11164 -0.753531,-0.52829 -1.932685,-1.66805 -2.165215,-2.09286 -0.262606,-0.47976 -0.105754,-0.45195 -2.638317,-0.4679 L 5,249.10472 v -0.4485 c 0,-0.24668 0.0056,-0.45315 0.0125,-0.45882 0.0069,-0.006 0.83346,-0.0225 1.836855,-0.0375 2.029122,-0.0302 1.986807,-0.0215 1.700451,-0.35218 -0.08424,-0.0973 -0.194959,-0.31932 -0.249334,-0.5 -0.05379,-0.17875 -0.168096,-0.41005 -0.254007,-0.51399 -0.125049,-0.1513 -0.164918,-0.25841 -0.199906,-0.53706 -0.05031,-0.40068 0.0014,-0.75862 0.130263,-0.90097 0.115226,-0.12732 0.443198,-0.21445 0.697656,-0.18535 0.110287,0.0126 0.346772,0.0913 0.525522,0.17491 0.17875,0.0836 0.511601,0.18704 0.739668,0.22988 0.355914,0.0669 0.44623,0.10568 0.637422,0.27397 0.219252,0.19299 0.392401,0.25861 0.682447,0.25861 0.186918,0 0.3208,0.0692 0.541445,0.27981 0.153491,0.14652 0.226982,0.17485 0.575,0.22166 0.527431,0.0709 0.553752,0.0805 0.775769,0.28106 0.224149,0.2025 0.419175,0.26747 0.802956,0.26747 0.349881,0 0.577227,0.074 0.770291,0.2507 0.242516,0.22198 0.340517,0.2493 0.894252,0.2493 0.656411,0 0.991903,0.0694 1.19719,0.24765 0.33195,0.28824 0.199547,0.27553 3.058558,0.29355 1.4575,0.009 2.875899,-0.004 3.151998,-0.0292 0.459087,-0.042 0.524577,-0.0614 0.766165,-0.22761 0.346913,-0.23864 0.529137,-0.28378 1.14682,-0.28411 0.524455,-5e-4 0.714632,-0.0501 0.860017,-0.22528 0.132478,-0.15963 0.379142,-0.24295 0.814718,-0.27521 l 0.439718,-0.0326 0.210282,-0.23488 c 0.199559,-0.2229 0.226855,-0.23651 0.535282,-0.26699 0.298689,-0.0295 0.341745,-0.0493 0.531831,-0.24482 0.163747,-0.1684 0.252277,-0.21826 0.425,-0.23939 0.446912,-0.0547 1.33679,-0.0721 1.524237,-0.0298 0.390084,0.0879 0.491093,0.45604 0.212278,0.7736 -0.08616,0.0981 -0.141478,0.19359 -0.122931,0.21214 0.01855,0.0185 0.398417,0.0366 0.844154,0.0401 1.296221,0.0102 1.275223,0.008 1.412703,0.14553 0.275635,0.27564 0.09931,0.66878 -0.350773,0.78212 -0.130155,0.0328 -0.332946,0.14212 -0.463229,0.24978 -0.268559,0.22192 -0.296266,0.22894 -1.075872,0.27246 -0.572468,0.0319 -0.756725,0.0821 -0.519884,0.14157 0.06425,0.0161 0.176598,0.0891 0.249655,0.16215 0.252565,0.25257 0.117912,0.63319 -0.244573,0.69133 -0.08118,0.013 -0.230608,0.0366 -0.332067,0.0525 -0.140201,0.0219 -0.209801,0.0698 -0.290021,0.19957 -0.05805,0.0939 -0.18879,0.22134 -0.290529,0.28312 -0.101738,0.0618 -0.267759,0.1963 -0.368935,0.29893 -0.141908,0.14394 -0.239051,0.19476 -0.425,0.22233 -0.192984,0.0286 -0.289296,0.0817 -0.483046,0.2661 -0.573027,0.54544 -0.887247,0.88833 -0.916267,0.99987 -0.06062,0.233 0.03919,0.37142 0.364374,0.50536 0.16708,0.0688 0.388195,0.19588 0.491368,0.28237 0.103174,0.0865 0.255637,0.17087 0.338807,0.1875 0.08317,0.0166 1.02663,0.0302 2.096576,0.0302 2.11983,0 2.107798,0.001 2.479138,-0.2941 0.235674,-0.18755 0.302226,-0.20187 1.038556,-0.22341 0.614987,-0.018 0.821945,-0.0734 0.978091,-0.26212 0.127642,-0.15423 0.455822,-0.26812 0.775905,-0.26927 0.290538,-10e-4 0.315225,-0.0112 0.536694,-0.22039 0.239855,-0.22656 0.304544,-0.24942 0.88052,-0.31121 0.277235,-0.0297 0.349886,-0.0602 0.525,-0.21991 0.251609,-0.22952 0.34528,-0.27837 0.621547,-0.32416 0.139345,-0.0231 0.284024,-0.0946 0.4,-0.19758 0.09993,-0.0888 0.272459,-0.21151 0.383395,-0.27276 0.110936,-0.0613 0.245818,-0.17701 0.299737,-0.25723 0.109479,-0.1629 0.242283,-0.2264 0.573561,-0.27428 0.178876,-0.0259 0.272877,-0.0803 0.458556,-0.26555 0.128455,-0.12817 0.32533,-0.32012 0.4375,-0.42657 l 0.203944,-0.19348 v 5.85021 5.8502 l -0.1125,0.0302 c -0.182561,0.0489 -4.797629,0.0268 -4.97276,-0.0238 z m -5.349612,-14.70361 c -0.06043,-0.0297 -0.146342,-0.13082 -0.190916,-0.22475 -0.10975,-0.23129 -0.04587,-0.40463 0.213636,-0.57975 0.112855,-0.0762 0.252363,-0.21479 0.310017,-0.30808 0.14231,-0.23026 0.315959,-0.27845 1.003346,-0.27845 0.322459,0 0.657221,-0.0142 0.743916,-0.0315 l 0.157626,-0.0315 -0.201376,-0.17237 c -0.170384,-0.1459 -0.201377,-0.20202 -0.201377,-0.36473 0,-0.15643 0.0288,-0.21399 0.154367,-0.3086 0.182994,-0.13787 0.35095,-0.30462 0.537085,-0.53323 l 0.13591,-0.16692 1.317539,0.006 c 0.724647,0.003 1.42704,0.0298 1.560874,0.0585 0.385764,0.0827 0.549711,0.37124 0.362691,0.63824 -0.162764,0.23238 -0.320238,0.25585 -1.71686,0.25585 -1.256733,0 -1.304622,0.004 -1.389106,0.10396 -0.04813,0.0572 -0.172822,0.19217 -0.277105,0.3 -0.104283,0.10782 -0.183033,0.19934 -0.175,0.20338 0.008,0.004 0.517225,0.0209 1.131537,0.0375 l 1.116933,0.0302 0.120567,0.14029 c 0.226282,0.26329 0.172565,0.41684 -0.284642,0.81368 -0.06588,0.0572 -0.178455,0.18093 -0.250158,0.275 l -0.130368,0.17103 -1.969632,0.01 c -1.328156,0.007 -2.005415,-0.008 -2.079504,-0.044 z m 3.704855,-3.71243 c -0.276016,-0.12016 -0.301375,-0.41451 -0.05748,-0.66721 0.303793,-0.31479 0.335031,-0.31139 -2.865314,-0.31139 -2.791069,0 -2.835682,-0.002 -2.965443,-0.10363 -0.103028,-0.081 -0.131743,-0.14715 -0.131743,-0.30328 0,-0.26216 0.0635,-0.37059 0.256405,-0.43783 0.111452,-0.0389 1.570332,-0.0552 4.913556,-0.0551 4.603849,0 4.760054,0.003 4.912767,0.0964 0.296607,0.18086 0.264162,0.57015 -0.06364,0.76356 -0.12587,0.0743 -0.217657,0.18629 -0.295991,0.36127 -0.125655,0.28067 -0.421919,0.59399 -0.638854,0.67564 -0.220339,0.0829 -2.868007,0.067 -3.064262,-0.0184 z m -10.98812,-2.60184 c -0.106225,-0.0379 -0.252475,-0.12413 -0.325,-0.1917 -0.203699,-0.18977 -0.308757,-0.22692 -0.735716,-0.2602 -0.570931,-0.0445 -0.595092,-0.0532 -0.83879,-0.30035 -0.177586,-0.18014 -0.25554,-0.22451 -0.394385,-0.22451 -0.278884,0 -0.47667,-0.0949 -0.59425,-0.28516 -0.108085,-0.17489 -0.348329,-0.31484 -0.540447,-0.31484 -0.05496,0 -0.213939,-0.10125 -0.353275,-0.225 -0.139336,-0.12375 -0.277323,-0.225 -0.306638,-0.225 -0.02932,0 -0.2404,-0.19093 -0.469076,-0.42429 -0.31418,-0.32061 -0.435645,-0.48411 -0.497095,-0.66912 -0.104095,-0.3134 -0.197229,-0.39402 -0.527553,-0.45666 -0.170545,-0.0323 -2.001436,-0.0506 -5.021523,-0.0499 -2.614211,5.5e-4 -4.84976,7.5e-4 -4.967885,5.1e-4 -0.277709,-6.9e-4 -0.460228,-0.16691 -0.460228,-0.41918 0,-0.2422 0.04082,-0.32405 0.203577,-0.40821 0.12122,-0.0627 0.816694,-0.0731 4.86119,-0.0731 4.5089,0 4.723428,-0.004 4.802482,-0.0914 0.101478,-0.11213 0.106392,-0.31849 0.01187,-0.49855 -0.09928,-0.18911 -0.426128,-0.49352 -0.600326,-0.55911 -0.101362,-0.0382 -1.090514,-0.053 -3.224999,-0.0483 -2.306067,0.005 -3.11192,-0.008 -3.21078,-0.0534 -0.256137,-0.11681 -0.317089,-0.45744 -0.122371,-0.68387 l 0.120643,-0.14029 3.231203,-0.025 c 2.797109,-0.0216 3.238057,-0.0351 3.282219,-0.1 0.07133,-0.10487 0.02377,-0.80288 -0.08331,-1.22272 -0.08446,-0.33115 -0.08456,-0.36814 -0.0021,-0.77587 0.09409,-0.46548 0.07686,-0.58926 -0.08727,-0.62665 -0.05884,-0.0134 -0.674639,-0.0301 -1.368438,-0.0371 l -1.261453,-0.0127 -0.138546,-0.13864 c -0.129584,-0.12971 -0.138592,-0.16621 -0.138592,-0.56145 0,-0.39526 0.009,-0.43174 0.138557,-0.56137 l 0.138557,-0.13863 1.369782,-0.0147 1.369783,-0.0147 0.232495,-0.27214 c 0.127873,-0.14967 0.218417,-0.29491 0.201209,-0.32276 -0.02083,-0.0337 -2.02701,-0.0506 -6.003333,-0.0506 H 5.000006 v -0.44465 c 0,-0.35934 0.01517,-0.45048 0.07909,-0.475 0.0435,-0.0167 2.845772,-0.0303 6.227273,-0.0303 h 6.148182 l 0.122727,-0.12273 c 0.148796,-0.1488 0.156493,-0.29351 0.02273,-0.42727 -0.09859,-0.0986 -0.166666,-0.1 -4.828845,-0.1 H 8.042314 l -0.152319,-0.15232 c -0.131114,-0.13112 -0.148204,-0.17769 -0.122754,-0.33451 0.01626,-0.10021 0.0759,-0.22854 0.132527,-0.28518 0.101925,-0.10195 0.145475,-0.10324 4.322459,-0.12799 2.320722,-0.0137 4.234757,-0.0403 4.25341,-0.0589 0.01865,-0.0187 -0.03652,-0.0974 -0.122596,-0.175 -0.220799,-0.19901 -0.254905,-0.45016 -0.08756,-0.64482 l 0.12572,-0.14624 1.65922,-0.025 1.659221,-0.025 0.119935,-0.15 c 0.06596,-0.0825 0.120046,-0.16327 0.120183,-0.17948 4.5e-4,-0.0557 0.246483,-0.14158 0.502739,-0.17557 0.183789,-0.0244 0.290679,-0.0709 0.377013,-0.16398 0.06627,-0.0715 0.120496,-0.1482 0.120496,-0.17051 0,-0.0745 0.344027,-0.18546 0.574934,-0.18546 0.20744,0 0.249633,-0.0222 0.464889,-0.24434 l 0.236744,-0.24433 0.574217,-0.0352 c 0.315818,-0.0193 1.44215,-0.0275 2.502958,-0.0182 l 1.928742,0.017 0.196258,0.13698 c 0.107942,0.0753 0.252508,0.18098 0.321258,0.23477 0.07615,0.0596 0.298901,0.12698 0.570031,0.1725 0.404967,0.068 0.463483,0.0925 0.65,0.27229 0.112733,0.10867 0.276931,0.23376 0.364884,0.27797 0.08795,0.0442 0.219326,0.15827 0.291939,0.25347 0.07261,0.0952 0.169401,0.18389 0.215085,0.19708 0.04568,0.0132 0.177242,0.0483 0.292352,0.078 0.135943,0.0351 0.276126,0.12486 0.4,0.2561 0.10489,0.11114 0.260829,0.24564 0.346533,0.29889 0.0857,0.0533 0.212135,0.18123 0.280961,0.28438 0.06883,0.10315 0.203736,0.27024 0.299801,0.37132 0.100827,0.10608 0.197729,0.27518 0.229224,0.4 0.03001,0.11892 0.08753,0.26123 0.127824,0.31623 0.07153,0.0976 0.139186,0.10032 2.854155,0.11373 l 2.780892,0.0137 0.300402,-0.29855 0.300404,-0.29854 -0.189743,-0.0297 c -0.428607,-0.0671 -0.55621,-0.12505 -0.665731,-0.30226 -0.05937,-0.0961 -0.149461,-0.19688 -0.200195,-0.22403 -0.0538,-0.0288 -0.62407,-0.0494 -1.368179,-0.0494 -0.828614,0 -1.318648,-0.0195 -1.397773,-0.0555 -0.246452,-0.11229 -0.303392,-0.4569 -0.112223,-0.67919 l 0.120643,-0.14029 2.516857,-0.0153 c 1.384271,-0.008 2.635716,-0.001 2.780989,0.0163 0.378849,0.0453 0.502704,0.16991 0.570437,0.57397 0.06612,0.39442 -0.01806,0.65255 -0.257175,0.78863 -0.187682,0.10681 -0.18888,0.13416 -0.01049,0.23954 0.07805,0.0461 0.195859,0.17112 0.261803,0.27783 0.06594,0.1067 0.13471,0.194 0.152809,0.194 0.0181,0 0.102789,0.0653 0.188197,0.14506 0.278695,0.26034 0.200151,0.53499 -0.224404,0.78469 -0.08424,0.0495 -0.07517,0.0633 0.0955,0.14424 0.248058,0.11771 0.334188,0.2969 0.334188,0.69527 0,0.70959 -0.07873,0.74677 -1.531319,0.72306 -0.984007,-0.0161 -1.071745,-0.025 -1.202565,-0.12201 -0.165097,-0.12247 -0.259336,-0.35881 -0.263294,-0.6603 -0.0033,-0.25114 0.0921,-0.45943 0.277052,-0.60491 0.121957,-0.0959 0.124851,-0.1066 0.0385,-0.14192 -0.05136,-0.021 -1.285873,-0.0382 -2.743373,-0.0382 -1.4575,0 -2.692018,0.0172 -2.743373,0.0382 -0.08635,0.0353 -0.08346,0.046 0.0385,0.14192 0.167679,0.13189 0.279874,0.34803 0.279874,0.53916 0,0.21976 0.08131,0.39647 0.246309,0.5353 0.30358,0.25545 0.227979,0.63868 -0.156888,0.7953 l -0.214421,0.0872 0.196684,0.0695 c 0.253711,0.0897 0.36479,0.19297 0.40518,0.37686 0.04339,0.19755 -0.05279,0.41427 -0.217743,0.49064 -0.09957,0.0461 -0.565587,0.06 -1.809121,0.054 -1.835145,-0.009 -1.824755,-0.007 -1.992288,-0.31242 -0.183052,-0.33348 -0.462349,-0.63451 -0.644471,-0.69461 -0.182676,-0.0603 -1.886057,-0.04 -1.94928,0.0232 -0.01523,0.0152 0.04161,0.0924 0.126313,0.17154 0.0847,0.0791 0.169086,0.20397 0.187526,0.27744 0.04662,0.18575 -0.05973,0.41203 -0.22602,0.48091 -0.09559,0.0396 -0.718466,0.0607 -1.974724,0.0668 -2.102258,0.0103 -1.977056,-0.0197 -1.977056,0.4735 0,0.2429 -0.01799,0.28844 -0.176667,0.44711 -0.09717,0.0972 -0.16282,0.19055 -0.145896,0.2075 0.01692,0.017 0.968299,0.0421 2.114167,0.0558 2.174718,0.0261 2.242373,0.0332 2.35725,0.24786 0.07762,0.14504 0.06124,0.76584 -0.03321,1.25855 -0.08101,0.42259 -0.0807,0.44408 0.0077,0.54181 0.114453,0.12647 0.460899,0.13765 0.703165,0.0227 0.153462,-0.0728 0.256776,-0.17319 0.85805,-0.83355 0.190525,-0.20925 0.238909,-0.31707 0.336098,-0.74895 0.01691,-0.0751 0.09416,-0.21012 0.171678,-0.3 0.07752,-0.0899 0.192533,-0.25672 0.25559,-0.37076 0.121178,-0.21916 0.272233,-0.31765 0.487173,-0.31765 0.09255,0 0.197204,0.0726 0.360281,0.25 l 0.229837,0.25 h 1.289849 c 1.680178,0 1.685113,0.002 1.684605,0.75921 -5e-4,0.71927 -0.15441,1.01788 -0.601197,1.16628 -0.136688,0.0454 -0.248524,0.0942 -0.248524,0.10847 0,0.0143 0.0675,0.089 0.15,0.16604 0.121183,0.1132 0.15,0.18097 0.15,0.35274 0,0.18348 -0.02705,0.23759 -0.197408,0.39486 -0.207139,0.19123 -0.302592,0.37518 -0.302592,0.58314 0,0.16157 -0.122273,0.39543 -0.235651,0.4507 -0.04914,0.024 -1.848114,0.0548 -3.997716,0.0686 -2.149602,0.0137 -3.924471,0.0411 -3.944154,0.0608 -0.01968,0.0197 0.03471,0.11611 0.120867,0.21424 0.20901,0.23805 0.211221,0.45931 0.0069,0.692 l -0.149738,0.17054 0.155988,0.0312 c 0.08579,0.0172 1.392406,0.0312 2.903584,0.0312 h 2.747596 l 0.146154,0.14615 c 0.204316,0.20432 0.195429,0.39902 -0.02958,0.64807 -0.144364,0.1598 -0.161483,0.19998 -0.09591,0.22515 0.143522,0.0551 6.131942,0.0341 6.334615,-0.0221 0.250802,-0.0696 0.327796,-0.2042 0.386948,-0.67618 0.06513,-0.5197 0.122364,-0.64584 0.342192,-0.75418 0.161911,-0.0798 0.329126,-0.09 1.457887,-0.0891 1.09593,8.5e-4 1.296972,0.0127 1.431441,0.0848 0.175025,0.0937 0.218559,0.17383 0.218559,0.40205 0,0.12141 -0.05032,0.20259 -0.225,0.36296 -0.221614,0.20347 -0.225007,0.2114 -0.225489,0.52703 -7.44e-4,0.48708 -0.160181,0.79199 -0.503644,0.96314 l -0.265502,0.13231 h -5.753012 c -3.491758,0 -5.818239,0.0187 -5.918958,0.0476 -0.09127,0.0262 -0.251625,0.125 -0.356345,0.21961 -0.127225,0.11494 -0.276101,0.19039 -0.448687,0.22741 -0.391499,0.084 -2.825587,0.0698 -3.0715,-0.0179 z m 4.789693,-10.89306 c 0.08555,-0.0626 0.08186,-0.0763 -0.06544,-0.2441 -0.253513,-0.28874 -0.178458,-0.51551 0.221125,-0.66811 0.125072,-0.0478 0.209117,-0.10514 0.186767,-0.12749 -0.05223,-0.0522 -1.507925,-0.11892 -1.675832,-0.0768 -0.195952,0.0492 -0.206956,0.16865 -0.03891,0.42235 0.08291,0.12517 0.150735,0.29224 0.150735,0.37127 0,0.0859 0.04936,0.19306 0.122728,0.26643 0.111822,0.11182 0.162065,0.12273 0.565443,0.12273 0.288782,0 0.474242,-0.023 0.533385,-0.0663 z m 9.928444,6.7358 c -0.371632,-0.13288 -0.477464,-0.32767 -0.396693,-0.73011 0.137543,-0.6853 0.146878,-0.68939 1.57257,-0.68939 1.17667,0 1.331123,0.0304 1.426271,0.28065 0.07068,0.18591 0.05811,0.64802 -0.02291,0.84193 -0.119355,0.28566 -0.189551,0.30131 -1.404233,0.31308 -0.605,0.006 -1.13375,-0.001 -1.175,-0.0162 z m 0.01474,-2.12486 c -0.235629,-0.0681 -0.31474,-0.21474 -0.31474,-0.58325 0,-0.37635 0.08968,-0.57599 0.313347,-0.69756 0.135892,-0.0739 0.326058,-0.0906 1.193338,-0.10513 1.370153,-0.023 1.443315,0.0134 1.443315,0.7163 0,0.69005 -0.07422,0.72665 -1.460894,0.72049 -0.557759,-0.002 -1.086223,-0.0254 -1.174365,-0.0508 z m 0.575492,-2.60189 c -0.541754,-0.0777 -0.710523,-0.4749 -0.324066,-0.76265 0.132328,-0.0985 0.203216,-0.1051 1.13225,-0.1051 0.894844,0 1.00103,0.009 1.0935,0.0927 0.22435,0.20304 0.174683,0.62189 -0.08657,0.7301 -0.151502,0.0628 -1.464428,0.0953 -1.81511,0.045 z m -1.739126,-6.87789 c -0.213197,-0.11017 -0.295663,-0.33658 -0.203573,-0.55891 0.100837,-0.24344 0.272008,-0.28101 1.277466,-0.28042 0.818364,5e-4 0.921519,0.0104 1.137238,0.10957 0.296357,0.13621 0.389186,0.30397 0.269384,0.48681 -0.173345,0.26456 -0.325427,0.30011 -1.356622,0.31713 -0.836023,0.0138 -0.970863,0.005 -1.123893,-0.0742 z m -1.070142,-2.06658 c -0.206823,-0.0619 -0.380964,-0.24369 -0.380964,-0.39764 0,-0.13785 0.17576,-0.33719 0.398885,-0.45239 0.117758,-0.0608 0.118994,-0.0659 0.025,-0.10259 -0.05439,-0.0212 -1.820135,-0.0405 -3.923885,-0.0429 -2.953353,-0.003 -3.853141,-0.0185 -3.948488,-0.0667 -0.292795,-0.14816 -0.330047,-0.59952 -0.06387,-0.77392 0.12398,-0.0812 0.443937,-0.0871 4.735163,-0.0871 4.574359,0 4.603409,6.5e-4 4.802199,0.10472 0.222952,0.11674 0.330545,0.3203 0.243349,0.46042 -0.02905,0.0467 -0.148087,0.15801 -0.264535,0.24741 -0.247418,0.18996 -0.233683,0.19869 0.353356,0.22477 0.479458,0.0213 0.662464,0.10142 0.748645,0.32779 0.07969,0.20932 -0.0039,0.42023 -0.206923,0.52231 -0.150675,0.0757 -0.320755,0.0869 -1.273892,0.0832 -0.605,-0.002 -1.164815,-0.0236 -1.244035,-0.0473 z m -2.184811,-2.74444 c -0.153874,-0.15387 -0.177136,-0.26584 -0.0983,-0.47319 0.09581,-0.25201 0.246002,-0.28065 1.47141,-0.28065 0.618325,0 1.179782,0.0211 1.247681,0.0469 0.397928,0.1513 0.445427,0.59068 0.08406,0.77755 -0.118415,0.0612 -0.37419,0.0755 -1.352364,0.0755 h -1.20633 z m -1.500965,-1.4725 c -0.0989,-0.0353 -0.267646,-0.13472 -0.375,-0.22082 -0.107354,-0.0861 -0.294497,-0.1915 -0.415873,-0.23421 -0.383422,-0.13491 -0.499533,-0.3128 -0.400342,-0.61335 0.09869,-0.29904 0.187665,-0.31306 1.98192,-0.31222 1.735045,8e-4 1.753814,0.004 1.947525,0.29105 0.06128,0.0909 0.202101,0.23103 0.312933,0.31131 0.329031,0.23835 0.329343,0.59229 6.7e-4,0.75932 -0.151511,0.077 -0.332997,0.0872 -1.522023,0.0853 -0.968492,-0.002 -1.400814,-0.0203 -1.529811,-0.0664 z m -4.545188,-2.6369 c -0.06875,-0.0271 -0.206775,-0.13815 -0.306724,-0.24683 -0.168198,-0.1829 -0.201692,-0.19763 -0.45,-0.19789 -0.147552,-1.5e-4 -0.358276,-0.0248 -0.468276,-0.0547 -0.222852,-0.0606 -0.475,-0.2703 -0.475,-0.39506 0,-0.0945 0.203326,-0.29698 0.440616,-0.43875 l 0.165617,-0.099 -0.165617,-0.0286 c -0.09109,-0.0157 -2.348347,-0.0303 -5.016129,-0.0324 -5.169259,-0.004 -5.111751,-0.007 -5.458366,0.23499 -0.244843,0.17061 -0.470013,0.21832 -1.258726,0.2667 -0.647124,0.0397 -0.815854,0.0674 -1.074999,0.17681 -0.638467,0.26944 -0.690994,0.28094 -1.307395,0.28618 -0.51133,0.004 -0.634465,-0.0106 -0.833223,-0.10078 -0.286076,-0.12987 -0.358459,-0.25633 -0.355031,-0.62027 0.0023,-0.24237 0.03963,-0.35043 0.266646,-0.77154 0.145195,-0.26934 0.358856,-0.59652 0.474803,-0.72707 0.115946,-0.13055 0.249172,-0.3023 0.296056,-0.38167 0.04688,-0.0794 0.161783,-0.19675 0.255332,-0.26085 0.09355,-0.0641 0.216998,-0.19245 0.274331,-0.28521 0.05733,-0.0928 0.123135,-0.16867 0.146225,-0.16867 0.02309,0 0.201349,-0.14625 0.39613,-0.325 0.19478,-0.17875 0.37134,-0.325 0.392355,-0.325 0.02102,0 0.148203,-0.0909 0.282639,-0.20199 0.134437,-0.11109 0.353233,-0.24879 0.486212,-0.30599 0.152984,-0.0658 0.278934,-0.16413 0.342941,-0.26769 0.05564,-0.09 0.18518,-0.20328 0.287871,-0.25167 0.102692,-0.0484 0.276712,-0.16472 0.386712,-0.25849 0.11901,-0.10145 0.31863,-0.20352 0.492949,-0.25204 0.227409,-0.0633 0.326668,-0.12351 0.443665,-0.2691 0.157015,-0.19538 0.354784,-0.29303 0.593495,-0.29303 0.200116,0 0.358504,-0.0843 0.469891,-0.25 0.122174,-0.18178 0.251226,-0.23996 0.661006,-0.29799 0.248988,-0.0353 0.374458,-0.0839 0.521445,-0.20199 0.25551,-0.20533 0.4917,-0.29975 0.753443,-0.30121 0.349901,-0.002 0.602895,-0.0817 0.705399,-0.22245 0.166019,-0.22791 0.354514,-0.28595 1.060059,-0.32644 0.692387,-0.0397 0.775843,-0.0629 0.968501,-0.26888 0.06592,-0.0705 0.196285,-0.15336 0.289703,-0.18419 0.09342,-0.0308 0.714484,-0.0721 1.380147,-0.0917 l 1.210297,-0.0356 0.35453,-0.15806 c 0.541174,-0.24127 0.925546,-0.28646 2.39547,-0.2816 1.441289,0.005 1.731957,0.0412 2.223151,0.2788 l 0.326849,0.1581 1.37559,0.036 c 1.461676,0.0382 1.563744,0.0549 1.911891,0.31233 0.251777,0.18616 0.314821,0.19981 1.072825,0.23238 0.631067,0.0271 0.727303,0.0431 0.862665,0.14316 0.440828,0.32592 0.498707,0.35065 0.890331,0.38044 0.572277,0.0435 0.8081,0.11397 1.052824,0.31451 0.19584,0.16047 0.261935,0.18399 0.601935,0.21419 0.399914,0.0355 0.6172,0.11823 0.778358,0.29631 0.100773,0.11136 0.441634,0.22433 0.837418,0.27755 0.12861,0.0173 0.30861,0.0858 0.4,0.15226 0.09139,0.0665 0.214082,0.15614 0.272649,0.1993 0.05857,0.0432 0.248173,0.10129 0.421346,0.12918 0.173174,0.0279 0.33338,0.0622 0.356015,0.0761 0.02263,0.014 0.04055,0.99723 0.03981,2.18498 l -0.0013,2.15955 -0.145045,-0.175 -0.145046,-0.175 -3.498393,-0.025 c -3.350957,-0.0239 -3.502826,-0.029 -3.603609,-0.12025 -0.105541,-0.0955 -0.142849,-0.3735 -0.07416,-0.55251 0.08445,-0.22008 0.17471,-0.22724 2.863507,-0.22724 1.84083,0 2.559236,-0.0157 2.58444,-0.0565 0.03549,-0.0574 -0.198502,-0.30656 -0.429657,-0.45746 -0.06911,-0.0451 -0.24526,-0.10769 -0.39145,-0.13904 -0.194868,-0.0418 -0.330275,-0.11427 -0.50741,-0.27159 -0.213212,-0.18936 -0.278866,-0.21862 -0.558551,-0.24897 -0.516413,-0.056 -0.690251,-0.11905 -0.87011,-0.31538 -0.157789,-0.17224 -0.188431,-0.18385 -0.572206,-0.21683 -0.330658,-0.0284 -0.443003,-0.0611 -0.60876,-0.17705 -0.49391,-0.34552 -0.469103,-0.33788 -1.164319,-0.35901 -0.698834,-0.0212 -0.796925,-0.0494 -1.144168,-0.32841 L 32.5398,209.2326 h -2.161247 -2.161247 l -0.192059,0.15 c -0.105632,0.0825 -0.35139,0.22875 -0.546128,0.325 -0.3323,0.16424 -0.354998,0.18608 -0.369151,0.35516 -0.01572,0.18777 0.08578,0.33346 0.540081,0.77529 0.09625,0.0936 0.265,0.25956 0.375,0.36878 0.154251,0.15316 0.262904,0.21153 0.475,0.25515 0.337315,0.0694 0.5,0.20623 0.5,0.42062 0,0.1836 -0.147846,0.34459 -0.39584,0.43104 -0.267726,0.0933 -0.09927,0.12824 0.77084,0.15973 1.057942,0.0383 1.225,0.1026 1.225,0.47159 0,0.15775 -0.19582,0.37748 -0.388226,0.43562 -0.231886,0.0701 -0.04609,0.11432 0.574549,0.1368 0.680059,0.0246 0.735078,0.0407 1.054636,0.30767 0.120928,0.10103 0.309364,0.19664 0.457666,0.23222 0.368103,0.0883 0.539434,0.36267 0.420316,0.67309 -0.08399,0.21888 -0.186052,0.22741 -2.678958,0.22407 -1.425804,-0.002 -2.414623,-0.0227 -2.489983,-0.0524 z m 12.725,-10.30609 c -0.385,-0.37765 -0.817145,-0.79953 -0.960322,-0.9375 l -0.260321,-0.25085 h -1.595436 c -1.538349,0 -1.600149,-0.004 -1.727178,-0.10363 -0.106883,-0.0841 -0.131743,-0.1454 -0.131743,-0.325 0,-0.24212 0.110515,-0.39972 0.311228,-0.44383 0.06257,-0.0138 0.477564,-0.0312 0.9222,-0.0388 0.444635,-0.008 0.827135,-0.0331 0.85,-0.0567 0.02286,-0.0236 -0.01468,-0.0799 -0.08343,-0.125 -0.06875,-0.0451 -0.208484,-0.16641 -0.31052,-0.26953 l -0.18552,-0.1875 h -3.428586 c -3.715012,0 -3.708981,4e-4 -3.831545,-0.26858 -0.08461,-0.18569 -0.01383,-0.466 0.143742,-0.5693 0.121311,-0.0795 0.360861,-0.0884 2.747663,-0.10171 1.739014,-0.01 2.614766,-0.0317 2.614766,-0.0657 0,-0.0281 -0.06504,-0.10587 -0.144542,-0.17276 -0.0795,-0.0669 -0.158727,-0.17814 -0.176061,-0.2472 -0.03945,-0.1572 0.07855,-0.39486 0.252703,-0.50897 0.119511,-0.0783 0.122458,-0.0882 0.03646,-0.12196 -0.05146,-0.0202 -0.476207,-0.0383 -0.943889,-0.0403 -0.467681,-0.002 -0.927748,-0.0257 -1.02237,-0.0529 -0.09821,-0.0282 -0.260951,-0.14618 -0.379218,-0.275 -0.189371,-0.20626 -0.227414,-0.22566 -0.442613,-0.22566 -0.228823,0 -0.530469,-0.11031 -0.530469,-0.19398 0,-0.0228 -0.05518,-0.10095 -0.122613,-0.17372 -0.09244,-0.0998 -0.170875,-0.1323 -0.31875,-0.1323 -0.34776,0 -0.495416,-0.0564 -0.72079,-0.27549 -0.20548,-0.19971 -0.24515,-0.21697 -0.566894,-0.24666 -0.629081,-0.058 -0.675762,-0.0736 -0.894434,-0.29862 -0.206873,-0.21285 -0.20786,-0.21322 -0.654352,-0.2424 -0.541082,-0.0354 -0.690227,-0.0875 -0.937067,-0.32731 l -0.189899,-0.18452 -0.637354,-0.025 c -0.493801,-0.0194 -0.667637,-0.0448 -0.771807,-0.11313 -0.256012,-0.16782 -0.24153,-0.52661 0.02718,-0.67346 0.143841,-0.0786 0.347024,-0.0901 1.832785,-0.10345 1.17059,-0.0105 1.712297,0.002 1.808877,0.0421 0.07583,0.0314 0.196068,0.14506 0.267201,0.25254 0.07113,0.10749 0.168388,0.19759 0.216123,0.20022 0.04773,0.003 0.82929,0.002 1.73679,-9.6e-4 0.913477,-0.003 1.739276,0.0158 1.85,0.0426 0.185316,0.0448 0.35294,0.18369 0.466446,0.38652 0.03242,0.0579 0.151967,0.0959 0.390146,0.12399 0.329575,0.0388 0.352471,0.0505 0.568408,0.29001 0.12375,0.13724 0.285978,0.26379 0.360508,0.28122 0.189412,0.0443 0.389492,0.24392 0.389492,0.38863 0,0.12464 -0.341451,0.48321 -0.460144,0.48321 -0.03725,0 -0.04192,0.0169 -0.01236,0.0447 0.02613,0.0246 0.48625,0.0551 1.0225,0.0678 1.03896,0.0246 1.197575,0.0577 1.294487,0.27044 0.09499,0.20848 0.06253,0.32595 -0.144487,0.52288 -0.11,0.10464 -0.2,0.1989 -0.2,0.20947 0,0.0106 0.32529,0.0333 0.722866,0.0504 0.772869,0.0334 0.995612,0.09 1.156239,0.29402 0.05274,0.067 0.163395,0.16386 0.245895,0.21529 0.299912,0.18695 0.375,0.28333 0.375,0.48135 0,0.15166 -0.03599,0.22383 -0.18267,0.36628 -0.100468,0.0976 -0.173593,0.17983 -0.1625,0.18278 0.01109,0.003 0.283117,0.0203 0.604497,0.0385 0.321379,0.0182 0.597278,0.0461 0.613108,0.0619 0.01583,0.0158 0.02288,0.87038 0.01567,1.899 l -0.01311,1.87023 z m -2.3,-3.18835 c 0.01798,-0.0291 -0.03183,-0.05 -0.119098,-0.05 -0.0825,0 -0.163906,0.0225 -0.180902,0.05 -0.01798,0.0291 0.03183,0.05 0.119099,0.05 0.0825,0 0.163905,-0.0225 0.180901,-0.05 z m -13.788939,-4.86853 c -0.259126,-0.0724 -0.486061,-0.25019 -0.486061,-0.38083 0,-0.1067 0.222824,-0.31313 0.475,-0.44005 l 0.2,-0.10066 -0.225,-0.0334 c -0.18027,-0.0267 -1.40489,-0.0202 -3.9,0.0208 -0.06875,0.001 -1.16,-0.0182 -2.425,-0.0429 -2.454439,-0.0479 -2.949316,-0.0919 -3.675,-0.32634 -0.20625,-0.0666 -0.567329,-0.17831 -0.802399,-0.24816 -0.269282,-0.08 -0.469648,-0.17197 -0.541598,-0.24856 -0.146783,-0.15624 -0.188059,-0.45828 -0.09337,-0.68318 0.0963,-0.22872 0.562545,-0.77472 0.772202,-0.90429 0.09147,-0.0565 0.261681,-0.18294 0.378238,-0.2809 0.116557,-0.0979 0.324422,-0.22874 0.461922,-0.29064 0.1375,-0.0619 0.327312,-0.19327 0.421804,-0.29194 0.109862,-0.11472 0.236052,-0.19012 0.35,-0.20913 0.337347,-0.0563 0.485845,-0.12365 0.653196,-0.29631 0.178122,-0.18378 0.329285,-0.2472 0.712729,-0.29905 0.157846,-0.0213 0.311153,-0.0882 0.456236,-0.19894 0.318573,-0.24317 0.385188,-0.27087 0.789206,-0.32817 0.329611,-0.0467 0.386933,-0.0723 0.573737,-0.25562 0.199857,-0.19614 0.22393,-0.20534 0.650316,-0.24846 0.567885,-0.0574 0.803191,-0.12408 0.868443,-0.24601 0.104871,-0.19595 0.341558,-0.26557 1.006835,-0.29616 0.626897,-0.0288 0.634872,-0.0307 0.9,-0.21276 0.147123,-0.10102 0.334998,-0.20944 0.417498,-0.24094 0.0825,-0.0315 0.568375,-0.0724 1.079722,-0.0909 0.902294,-0.0326 0.935484,-0.0376 1.125001,-0.1685 0.455152,-0.31437 0.399774,-0.30751 2.770277,-0.34323 1.514411,-0.0228 2.425569,-0.0593 3,-0.12028 0.513037,-0.0544 0.995162,-0.0769 1.275,-0.0594 0.2475,0.0154 0.95625,0.0619 1.575,0.10332 0.675198,0.0452 2.394443,0.0889 4.3,0.10945 1.74625,0.0188 3.304386,0.0368 3.462523,0.0399 l 0.287523,0.006 -2.3e-5,1.98845 -2.3e-5,1.98845 -0.1375,-0.0329 c -0.21348,-0.051 -0.324501,-0.1186 -0.494244,-0.3008 l -0.156743,-0.16824 -0.768256,-3e-4 c -0.878408,-3e-4 -1.048062,-0.0344 -1.321525,-0.26571 -0.108202,-0.0915 -0.241732,-0.18598 -0.296732,-0.20993 -0.055,-0.024 -0.955,-0.0593 -2,-0.0786 -1.365423,-0.0252 -2.033644,-0.0575 -2.375,-0.11491 -0.618278,-0.10391 -0.917769,-0.10086 -1.825,0.0186 -0.53549,0.0705 -1.045807,0.0991 -1.784245,0.0998 -0.589398,5.8e-4 -1.092816,0.0233 -1.170419,0.0528 -0.07489,0.0285 -0.210903,0.11739 -0.302239,0.19758 -0.09502,0.0834 -0.313939,0.18985 -0.511738,0.24875 -0.271607,0.0809 -0.384315,0.14572 -0.526016,0.30257 -0.09919,0.10979 -0.180343,0.23591 -0.180343,0.28027 0,0.13705 0.351438,0.56776 0.543115,0.66562 0.100037,0.0511 0.25607,0.18524 0.346741,0.29815 0.131297,0.1635 0.197523,0.20529 0.32533,0.20529 0.291629,0 0.501614,0.0936 0.68348,0.30481 0.16568,0.19237 0.198843,0.20784 0.515548,0.24062 0.40897,0.0423 0.545786,0.14925 0.545786,0.4265 0,0.22399 -0.113236,0.36035 -0.354996,0.42751 -0.106902,0.0297 -1.053153,0.0504 -2.330004,0.051 -1.1825,5.3e-4 -2.199701,0.0143 -2.260447,0.0306 -0.106649,0.0286 -0.1045,0.0352 0.0625,0.19272 0.140653,0.13265 0.172947,0.20006 0.172947,0.36099 0,0.31423 -0.165577,0.43555 -0.615664,0.45111 -0.197635,0.007 -0.466859,-0.0176 -0.598275,-0.0543 z m 16.51242,-10.09397 c -0.143274,-0.11688 -0.367155,-0.28 -0.497512,-0.3625 -0.130359,-0.0825 -0.32667,-0.24563 -0.43625,-0.3625 -0.10958,-0.11688 -0.233302,-0.2125 -0.274938,-0.2125 -0.04164,0 -0.176562,-0.0888 -0.299834,-0.19729 -0.135961,-0.11968 -0.315271,-0.22024 -0.455809,-0.25563 -0.220211,-0.0554 -0.314296,-0.12298 -0.571024,-0.40987 -0.06154,-0.0688 -0.209218,-0.14954 -0.328179,-0.17949 -0.118961,-0.03 -0.32253,-0.13558 -0.452374,-0.23473 -0.129846,-0.0991 -0.342165,-0.21541 -0.471822,-0.25838 -0.567817,-0.18815 -0.620064,-0.52687 -0.130728,-0.84749 l 0.136698,-0.0896 -0.120854,-0.0338 c -0.06647,-0.0186 -0.527904,-0.036 -1.025408,-0.0388 -1.03437,-0.006 -1.271844,-0.0543 -1.566362,-0.32034 -0.191918,-0.17339 -0.265642,-0.20013 -0.714733,-0.25921 -0.194029,-0.0255 -0.273053,-0.0702 -0.447432,-0.25322 -0.192389,-0.20186 -0.233472,-0.22221 -0.448597,-0.22221 -0.313375,0 -0.468823,-0.0647 -0.726679,-0.30236 -0.117926,-0.1087 -0.254288,-0.19924 -0.303027,-0.20119 -0.04874,-0.002 -0.29014,-0.0212 -0.536446,-0.0427 l -0.44783,-0.0391 -0.193286,-0.2178 -0.193286,-0.21781 -0.558884,-0.0308 c -0.612479,-0.0337 -0.710241,-0.0672 -0.858885,-0.29433 -0.133006,-0.20323 -0.301279,-0.25385 -0.844961,-0.25418 -0.544454,-3.5e-4 -0.778519,-0.0581 -0.993906,-0.24512 -0.262972,-0.22838 -0.353638,-0.2546 -0.880385,-0.2546 -0.602221,0 -0.945911,-0.0668 -1.166421,-0.22663 -0.40427,-0.29306 -0.405688,-0.29338 -1.414327,-0.3234 -1.014785,-0.0302 -1.080471,-0.0453 -1.575,-0.36255 -0.164276,-0.10539 -0.247006,-0.11425 -1.35,-0.1446 -1.233296,-0.0339 -1.337562,-0.051 -1.915274,-0.31257 -0.363672,-0.16468 -0.792984,-0.22789 -1.559726,-0.22964 -0.772358,-0.002 -1.134396,-0.063 -1.612597,-0.27276 -0.213071,-0.0935 -0.567629,-0.20397 -0.787907,-0.24557 -0.653327,-0.12338 -0.89658,-0.25656 -1.177913,-0.64493 -0.181489,-0.25054 -0.18835,-0.45931 -0.02552,-0.77651 0.148829,-0.28993 0.757199,-0.84753 1.131275,-1.03687 0.149962,-0.0759 0.358741,-0.2116 0.463953,-0.30153 0.130192,-0.1113 0.30036,-0.19026 0.532751,-0.24721 0.225267,-0.0552 0.381354,-0.12639 0.458706,-0.2092 0.179022,-0.19167 0.381123,-0.27639 0.757986,-0.31776 0.287839,-0.0316 0.369231,-0.0625 0.501438,-0.19046 0.216801,-0.20982 0.438813,-0.2915 0.907825,-0.334 0.428259,-0.0388 0.591699,-0.0986 0.750118,-0.27443 0.14589,-0.16192 0.291995,-0.2037 0.8555,-0.24466 0.479623,-0.0349 0.516895,-0.0458 0.725,-0.2135 0.301267,-0.24274 0.475339,-0.29136 1.169382,-0.32666 0.594545,-0.0302 0.601363,-0.032 0.75,-0.19078 0.253819,-0.27119 0.335296,-0.29261 1.225641,-0.32221 l 0.82564,-0.0275 0.310676,-0.20746 c 0.170872,-0.1141 0.403313,-0.22311 0.516536,-0.24224 0.113223,-0.0191 0.67314,-0.05 1.24426,-0.0686 l 1.038401,-0.0338 0.319423,-0.16147 c 0.175682,-0.0888 0.398173,-0.1865 0.494423,-0.21709 0.09625,-0.0306 0.72625,-0.0701 1.4,-0.0879 l 1.225,-0.0323 0.375443,-0.18666 c 0.501844,-0.24952 0.749619,-0.23896 1.165758,0.0497 l 0.199905,0.13865 1.457462,0.025 c 1.186948,0.0204 1.47674,0.0389 1.561328,0.1 0.05712,0.0413 0.188963,0.1425 0.292972,0.225 l 0.189107,0.15 1.004012,0.0289 c 1.074833,0.0309 1.267601,0.0714 1.529013,0.32057 0.201833,0.19242 0.366397,0.22553 1.120794,0.22553 0.392856,0 0.785141,0.0247 0.871745,0.0549 l 0.157461,0.055 v 1.19511 1.19511 h -1.138812 c -1.316437,0 -1.866325,-0.0559 -2.286188,-0.23219 -0.642297,-0.26977 -0.686831,-0.27652 -2,-0.30305 -1.572859,-0.0318 -2.186685,0.0209 -2.658996,0.22822 -0.543986,0.23875 -0.75207,0.26726 -2.194948,0.30067 l -1.353945,0.0314 -0.186888,0.15 c -0.3049,0.24472 -0.489559,0.3247 -0.755223,0.32712 -0.365399,0.003 -0.575324,0.0975 -0.945065,0.42417 -0.422486,0.37323 -0.424258,0.43414 -0.02473,0.85021 0.248539,0.25882 0.36226,0.33689 0.6125,0.42048 0.230841,0.0771 0.352228,0.15473 0.487904,0.31202 0.169342,0.19632 0.201578,0.21155 0.516728,0.24417 0.292464,0.0303 0.359921,0.0575 0.51939,0.2099 0.249877,0.23874 0.32578,0.26995 0.758272,0.31172 0.20625,0.0199 0.448268,0.0664 0.537818,0.1033 0.328607,0.13537 0.31505,0.51443 -0.0267,0.74666 l -0.17408,0.11829 0.168983,0.0268 c 0.09294,0.0147 0.652733,0.0363 1.243983,0.048 0.59125,0.0116 1.152468,0.0458 1.247152,0.0759 0.09468,0.0301 0.258022,0.13864 0.362973,0.24113 0.173845,0.16975 0.222852,0.18926 0.550941,0.21933 0.352446,0.0323 0.364505,0.0381 0.565658,0.26994 0.197737,0.22793 0.218465,0.23825 0.546296,0.27219 0.323891,0.0335 0.350014,0.0461 0.527666,0.25445 0.180271,0.21141 0.199505,0.22035 0.541865,0.25173 0.277297,0.0254 0.400437,0.0643 0.562815,0.1775 0.415584,0.28985 0.470922,0.31776 0.693389,0.34975 0.316755,0.0455 0.549928,0.14982 0.734526,0.32847 0.110597,0.10704 0.253143,0.1751 0.473167,0.22593 0.238614,0.0551 0.366087,0.11994 0.526264,0.26759 0.116258,0.10716 0.274583,0.21005 0.351833,0.22863 0.250491,0.0603 0.518139,0.22078 0.574548,0.34459 0.06971,0.153 -0.02757,0.31647 -0.281851,0.47362 -0.09783,0.0605 -0.165147,0.13051 -0.149602,0.15566 0.01554,0.0252 0.263184,0.0457 0.550311,0.0457 h 0.522049 v 1.8 c 0,0.99 -0.0092,1.8 -0.02051,1.8 -0.01128,0 -0.137735,-0.0956 -0.281009,-0.2125 z"
       id="path2522" />
    <text
       xml:space="preserve"
       style="font-style:normal;font-weight:normal;font-size:10.5833px;line-height:1.25;font-family:sans-serif;fill:#000000;fill-opacity:1;stroke:none;stroke-width:0.264583"
       x="10.375626"
       y="254.64096"
       id="text72"><tspan
         sodipodi:role="line"
         id="tspan70"
         x="10.375626"
         y="254.64096"
         style="stroke-width:0.264583" /></text>
    <g
       id="path78"
       style="opacity:1;fill:#ffffff;fill-opacity:0.60000002">
      <path
         style="color:#000000;font-style:normal;font-variant:normal;font-weight:normal;font-stretch:normal;font-size:medium;line-height:normal;font-family:sans-serif;font-variant-ligatures:normal;font-variant-position:normal;font-variant-caps:normal;font-variant-numeric:normal;font-variant-alternates:normal;font-variant-east-asian:normal;font-feature-settings:normal;font-variation-settings:normal;text-indent:0;text-align:start;text-decoration:none;text-decoration-line:none;text-decoration-style:solid;text-decoration-color:#000000;letter-spacing:normal;word-spacing:normal;text-transform:none;writing-mode:lr-tb;direction:ltr;text-orientation:mixed;dominant-baseline:auto;baseline-shift:baseline;text-anchor:start;white-space:normal;shape-padding:0;shape-margin:0;inline-size:0;clip-rule:nonzero;display:inline;overflow:visible;visibility:visible;isolation:auto;mix-blend-mode:normal;color-interpolation:sRGB;color-interpolation-filters:linearRGB;solid-color:#000000;solid-opacity:1;vector-effect:none;fill:#ffffff;fill-opacity:0.60000002;fill-rule:nonzero;stroke:none;stroke-width:2;stroke-linecap:butt;stroke-linejoin:miter;stroke-miterlimit:4;stroke-dasharray:none;stroke-dashoffset:0;stroke-opacity:1;color-rendering:auto;image-rendering:auto;shape-rendering:auto;text-rendering:auto;enable-background:accumulate;stop-color:#000000;stop-opacity:1"
         d="M 29.942999,268.38158 10.057958,258.61839"
         id="path913" />
      <path
         style="color:#000000;font-style:normal;font-variant:normal;font-weight:normal;font-stretch:normal;font-size:medium;line-height:normal;font-family:sans-serif;font-variant-ligatures:normal;font-variant-position:normal;font-variant-caps:normal;font-variant-numeric:normal;font-variant-alternates:normal;font-variant-east-asian:normal;font-feature-settings:normal;font-variation-settings:normal;text-indent:0;text-align:start;text-decoration:none;text-decoration-line:none;text-decoration-style:solid;text-decoration-color:#000000;letter-spacing:normal;word-spacing:normal;text-transform:none;writing-mode:lr-tb;direction:ltr;text-orientation:mixed;dominant-baseline:auto;baseline-shift:baseline;text-anchor:start;white-space:normal;shape-padding:0;shape-margin:0;inline-size:0;clip-rule:nonzero;display:inline;overflow:visible;visibility:visible;isolation:auto;mix-blend-mode:normal;color-interpolation:sRGB;color-interpolation-filters:linearRGB;solid-color:#000000;solid-opacity:1;vector-effect:none;fill:#ffffff;fill-opacity:0.60000002;fill-rule:nonzero;stroke:none;stroke-linecap:butt;stroke-linejoin:miter;stroke-miterlimit:4;stroke-dasharray:none;stroke-dashoffset:0;stroke-opacity:1;color-rendering:auto;image-rendering:auto;shape-rendering:auto;text-rendering:auto;enable-background:accumulate;stop-color:#000000;stop-opacity:1"
         d="M 10.498047 257.7207 L 9.6171875 259.51562 L 29.501953 269.2793 L 30.382812 267.48438 L 10.498047 257.7207 z "
         id="path915" />
    </g>
    <g
       id="path903"
       style="opacity:1;fill:#ffffff;fill-opacity:0.60000002">
      <path
         style="color:#000000;font-style:normal;font-variant:normal;font-weight:normal;font-stretch:normal;font-size:medium;line-height:normal;font-family:sans-serif;font-variant-ligatures:normal;font-variant-position:normal;font-variant-caps:normal;font-variant-numeric:normal;font-variant-alternates:normal;font-variant-east-asian:normal;font-feature-settings:normal;font-variation-settings:normal;text-indent:0;text-align:start;text-decoration:none;text-decoration-line:none;text-decoration-style:solid;text-decoration-color:#000000;letter-spacing:normal;word-spacing:normal;text-transform:none;writing-mode:lr-tb;direction:ltr;text-orientation:mixed;dominant-baseline:auto;baseline-shift:baseline;text-anchor:start;white-space:normal;shape-padding:0;shape-margin:0;inline-size:0;clip-rule:nonzero;display:inline;overflow:visible;visibility:visible;isolation:auto;mix-blend-mode:normal;color-interpolation:sRGB;color-interpolation-filters:linearRGB;solid-color:#000000;solid-opacity:1;vector-effect:none;fill:#ffffff;fill-opacity:0.60000002;fill-rule:nonzero;stroke:none;stroke-width:2;stroke-linecap:butt;stroke-linejoin:miter;stroke-miterlimit:4;stroke-dasharray:none;stroke-dashoffset:0;stroke-opacity:1;color-rendering:auto;image-rendering:auto;shape-rendering:auto;text-rendering:auto;enable-background:accumulate;stop-color:#000000;stop-opacity:1"
         d="m 25.135734,243.52791 5.727696,24.89608 -0.360484,-0.57858"
         id="path907" />
      <path
         style="color:#000000;font-style:normal;font-variant:normal;font-weight:normal;font-stretch:normal;font-size:medium;line-height:normal;font-family:sans-serif;font-variant-ligatures:normal;font-variant-position:normal;font-variant-caps:normal;font-variant-numeric:normal;font-variant-alternates:normal;font-variant-east-asian:normal;font-feature-settings:normal;font-variation-settings:normal;text-indent:0;text-align:start;text-decoration:none;text-decoration-line:none;text-decoration-style:solid;text-decoration-color:#000000;letter-spacing:normal;word-spacing:normal;text-transform:none;writing-mode:lr-tb;direction:ltr;text-orientation:mixed;dominant-baseline:auto;baseline-shift:baseline;text-anchor:start;white-space:normal;shape-padding:0;shape-margin:0;inline-size:0;clip-rule:nonzero;display:inline;overflow:visible;visibility:visible;isolation:auto;mix-blend-mode:normal;color-interpolation:sRGB;color-interpolation-filters:linearRGB;solid-color:#000000;solid-opacity:1;vector-effect:none;fill:#ffffff;fill-opacity:0.60000002;fill-rule:nonzero;stroke:none;stroke-linecap:butt;stroke-linejoin:miter;stroke-miterlimit:4;stroke-dasharray:none;stroke-dashoffset:0;stroke-opacity:1;color-rendering:auto;image-rendering:auto;shape-rendering:auto;text-rendering:auto;enable-background:accumulate;stop-color:#000000;stop-opacity:1"
         d="M 26.109375 243.30273 L 24.162109 243.75195 L 29.804688 268.28125 L 29.654297 268.375 L 30.015625 268.95312 L 31.837891 268.19922 L 26.109375 243.30273 z "
         id="path909" />
    </g>
    <path
       id="rect917"
       style="fill:#000000;stroke:#000000;stroke-width:1.43297;stroke-miterlimit:4;stroke-dasharray:none;stroke-opacity:1"
       d="m 25.216484,263.71646 h 9.567031 v 9.56703 h -9.567031 z" />
    <g
       id="path90"
       style="opacity:1;fill:#800080"
       transform="translate(15,-65.00002)">
      <path
         style="color:#000000;font-style:normal;font-variant:normal;font-weight:normal;font-stretch:normal;font-size:medium;line-height:normal;font-family:sans-serif;font-variant-ligatures:normal;font-variant-position:normal;font-variant-caps:normal;font-variant-numeric:normal;font-variant-alternates:normal;font-variant-east-asian:normal;font-feature-settings:normal;font-variation-settings:normal;text-indent:0;text-align:start;text-decoration:none;text-decoration-line:none;text-decoration-style:solid;text-decoration-color:#000000;letter-spacing:normal;word-spacing:normal;text-transform:none;writing-mode:lr-tb;direction:ltr;text-orientation:mixed;dominant-baseline:auto;baseline-shift:baseline;text-anchor:start;white-space:normal;shape-padding:0;shape-margin:0;inline-size:0;clip-rule:nonzero;display:inline;overflow:visible;visibility:visible;isolation:auto;mix-blend-mode:normal;color-interpolation:sRGB;color-interpolation-filters:linearRGB;solid-color:#000000;solid-opacity:1;vector-effect:none;fill:#800080;fill-opacity:0;fill-rule:nonzero;stroke:none;stroke-width:1.20645;stroke-linecap:butt;stroke-linejoin:miter;stroke-miterlimit:4;stroke-dasharray:none;stroke-dashoffset:0;stroke-opacity:1;color-rendering:auto;image-rendering:auto;shape-rendering:auto;text-rendering:auto;enable-background:accumulate;stop-color:#000000;stop-opacity:1"
         d="m 21.396777,283.49997 c 0,3.53284 -2.863934,6.39677 -6.396776,6.39677 -3.532842,0 -6.3967758,-2.86393 -6.3967758,-6.39677 0,-3.53284 2.8639338,-6.39678 6.3967758,-6.39678 3.532842,0 6.396776,2.86394 6.396776,6.39678 z"
         id="path917" />
      <path
         style="color:#000000;font-style:normal;font-variant:normal;font-weight:normal;font-stretch:normal;font-size:medium;line-height:normal;font-family:sans-serif;font-variant-ligatures:normal;font-variant-position:normal;font-variant-caps:normal;font-variant-numeric:normal;font-variant-alternates:normal;font-variant-east-asian:normal;font-feature-settings:normal;font-variation-settings:normal;text-indent:0;text-align:start;text-decoration:none;text-decoration-line:none;text-decoration-style:solid;text-decoration-color:#000000;letter-spacing:normal;word-spacing:normal;text-transform:none;writing-mode:lr-tb;direction:ltr;text-orientation:mixed;dominant-baseline:auto;baseline-shift:baseline;text-anchor:start;white-space:normal;shape-padding:0;shape-margin:0;inline-size:0;clip-rule:nonzero;display:inline;overflow:visible;visibility:visible;isolation:auto;mix-blend-mode:normal;color-interpolation:sRGB;color-interpolation-filters:linearRGB;solid-color:#000000;solid-opacity:1;vector-effect:none;fill:#800080;fill-opacity:1;fill-rule:nonzero;stroke:none;stroke-linecap:butt;stroke-linejoin:miter;stroke-miterlimit:4;stroke-dasharray:none;stroke-dashoffset:0;stroke-opacity:1;color-rendering:auto;image-rendering:auto;shape-rendering:auto;text-rendering:auto;enable-background:accumulate;stop-color:#000000;stop-opacity:1"
         d="m 15,276.5 c -3.858849,0 -7,3.14115 -7,7 0,3.85885 3.141151,7 7,7 3.858849,0 7,-3.14115 7,-7 0,-3.85885 -3.141151,-7 -7,-7 z m 0,1.20703 c 3.206835,0 5.792969,2.58614 5.792969,5.79297 0,3.20683 -2.586134,5.79297 -5.792969,5.79297 -3.206835,0 -5.7929688,-2.58614 -5.7929688,-5.79297 0,-3.20683 2.5861338,-5.79297 5.7929688,-5.79297 z"
         id="path919" />
    </g>
    <g
       id="path90-3"
       transform="translate(-5,-2e-5)"
       style="fill:#800000">
      <path
         style="color:#000000;font-style:normal;font-variant:normal;font-weight:normal;font-stretch:normal;font-size:medium;line-height:normal;font-family:sans-serif;font-variant-ligatures:normal;font-variant-position:normal;font-variant-caps:normal;font-variant-numeric:normal;font-variant-alternates:normal;font-variant-east-asian:normal;font-feature-settings:normal;font-variation-settings:normal;text-indent:0;text-align:start;text-decoration:none;text-decoration-line:none;text-decoration-style:solid;text-decoration-color:#000000;letter-spacing:normal;word-spacing:normal;text-transform:none;writing-mode:lr-tb;direction:ltr;text-orientation:mixed;dominant-baseline:auto;baseline-shift:baseline;text-anchor:start;white-space:normal;shape-padding:0;shape-margin:0;inline-size:0;clip-rule:nonzero;display:inline;overflow:visible;visibility:visible;isolation:auto;mix-blend-mode:normal;color-interpolation:sRGB;color-interpolation-filters:linearRGB;solid-color:#000000;solid-opacity:1;vector-effect:none;fill:#800000;fill-opacity:0;fill-rule:nonzero;stroke:none;stroke-width:1.20645;stroke-linecap:butt;stroke-linejoin:miter;stroke-miterlimit:4;stroke-dasharray:none;stroke-dashoffset:0;stroke-opacity:1;color-rendering:auto;image-rendering:auto;shape-rendering:auto;text-rendering:auto;enable-background:accumulate;stop-color:#000000;stop-opacity:1"
         d="m 21.396777,283.49997 c 0,3.53284 -2.863934,6.39677 -6.396776,6.39677 -3.532842,0 -6.3967758,-2.86393 -6.3967758,-6.39677 0,-3.53284 2.8639338,-6.39678 6.3967758,-6.39678 3.532842,0 6.396776,2.86394 6.396776,6.39678 z"
         id="path917-6" />
      <path
         style="color:#000000;font-style:normal;font-variant:normal;font-weight:normal;font-stretch:normal;font-size:medium;line-height:normal;font-family:sans-serif;font-variant-ligatures:normal;font-variant-position:normal;font-variant-caps:normal;font-variant-numeric:normal;font-variant-alternates:normal;font-variant-east-asian:normal;font-feature-settings:normal;font-variation-settings:normal;text-indent:0;text-align:start;text-decoration:none;text-decoration-line:none;text-decoration-style:solid;text-decoration-color:#000000;letter-spacing:normal;word-spacing:normal;text-transform:none;writing-mode:lr-tb;direction:ltr;text-orientation:mixed;dominant-baseline:auto;baseline-shift:baseline;text-anchor:start;white-space:normal;shape-padding:0;shape-margin:0;inline-size:0;clip-rule:nonzero;display:inline;overflow:visible;visibility:visible;isolation:auto;mix-blend-mode:normal;color-interpolation:sRGB;color-interpolation-filters:linearRGB;solid-color:#000000;solid-opacity:1;vector-effect:none;fill:#800000;fill-opacity:1;fill-rule:nonzero;stroke:none;stroke-linecap:butt;stroke-linejoin:miter;stroke-miterlimit:4;stroke-dasharray:none;stroke-dashoffset:0;stroke-opacity:1;color-rendering:auto;image-rendering:auto;shape-rendering:auto;text-rendering:auto;enable-background:accumulate;stop-color:#000000;stop-opacity:1"
         d="m 15,276.5 c -3.858849,0 -7,3.14115 -7,7 0,3.85885 3.141151,7 7,7 3.858849,0 7,-3.14115 7,-7 0,-3.85885 -3.141151,-7 -7,-7 z m 0,1.20703 c 3.206835,0 5.792969,2.58614 5.792969,5.79297 0,3.20683 -2.586134,5.79297 -5.792969,5.79297 -3.206835,0 -5.7929688,-2.58614 -5.7929688,-5.79297 0,-3.20683 2.5861338,-5.79297 5.7929688,-5.79297 z"
         id="path919-7" />
    </g>
    <g
       id="path90-35"
       style="fill:#808000"
       transform="translate(-5,-65.00002)">
      <path
         style="color:#000000;font-style:normal;font-variant:normal;font-weight:normal;font-stretch:normal;font-size:medium;line-height:normal;font-family:sans-serif;font-variant-ligatures:normal;font-variant-position:normal;font-variant-caps:normal;font-variant-numeric:normal;font-variant-alternates:normal;font-variant-east-asian:normal;font-feature-settings:normal;font-variation-settings:normal;text-indent:0;text-align:start;text-decoration:none;text-decoration-line:none;text-decoration-style:solid;text-decoration-color:#000000;letter-spacing:normal;word-spacing:normal;text-transform:none;writing-mode:lr-tb;direction:ltr;text-orientation:mixed;dominant-baseline:auto;baseline-shift:baseline;text-anchor:start;white-space:normal;shape-padding:0;shape-margin:0;inline-size:0;clip-rule:nonzero;display:inline;overflow:visible;visibility:visible;isolation:auto;mix-blend-mode:normal;color-interpolation:sRGB;color-interpolation-filters:linearRGB;solid-color:#000000;solid-opacity:1;vector-effect:none;fill:#808000;fill-opacity:0;fill-rule:nonzero;stroke:none;stroke-width:1.20645;stroke-linecap:butt;stroke-linejoin:miter;stroke-miterlimit:4;stroke-dasharray:none;stroke-dashoffset:0;stroke-opacity:1;color-rendering:auto;image-rendering:auto;shape-rendering:auto;text-rendering:auto;enable-background:accumulate;stop-color:#000000;stop-opacity:1"
         d="m 21.396777,283.49997 c 0,3.53284 -2.863934,6.39677 -6.396776,6.39677 -3.532842,0 -6.3967758,-2.86393 -6.3967758,-6.39677 0,-3.53284 2.8639338,-6.39678 6.3967758,-6.39678 3.532842,0 6.396776,2.86394 6.396776,6.39678 z"
         id="path917-62" />
      <path
         style="color:#000000;font-style:normal;font-variant:normal;font-weight:normal;font-stretch:normal;font-size:medium;line-height:normal;font-family:sans-serif;font-variant-ligatures:normal;font-variant-position:normal;font-variant-caps:normal;font-variant-numeric:normal;font-variant-alternates:normal;font-variant-east-asian:normal;font-feature-settings:normal;font-variation-settings:normal;text-indent:0;text-align:start;text-decoration:none;text-decoration-line:none;text-decoration-style:solid;text-decoration-color:#000000;letter-spacing:normal;word-spacing:normal;text-transform:none;writing-mode:lr-tb;direction:ltr;text-orientation:mixed;dominant-baseline:auto;baseline-shift:baseline;text-anchor:start;white-space:normal;shape-padding:0;shape-margin:0;inline-size:0;clip-rule:nonzero;display:inline;overflow:visible;visibility:visible;isolation:auto;mix-blend-mode:normal;color-interpolation:sRGB;color-interpolation-filters:linearRGB;solid-color:#000000;solid-opacity:1;vector-effect:none;fill:#808000;fill-opacity:1;fill-rule:nonzero;stroke:none;stroke-linecap:butt;stroke-linejoin:miter;stroke-miterlimit:4;stroke-dasharray:none;stroke-dashoffset:0;stroke-opacity:1;color-rendering:auto;image-rendering:auto;shape-rendering:auto;text-rendering:auto;enable-background:accumulate;stop-color:#000000;stop-opacity:1"
         d="m 15,276.5 c -3.858849,0 -7,3.14115 -7,7 0,3.85885 3.141151,7 7,7 3.858849,0 7,-3.14115 7,-7 0,-3.85885 -3.141151,-7 -7,-7 z m 0,1.20703 c 3.206835,0 5.792969,2.58614 5.792969,5.79297 0,3.20683 -2.586134,5.79297 -5.792969,5.79297 -3.206835,0 -5.7929688,-2.58614 -5.7929688,-5.79297 0,-3.20683 2.5861338,-5.79297 5.7929688,-5.79297 z"
         id="path919-9" />
    </g>
    <path
       id="rect917-3"
       style="fill:#800000;stroke:#800000;stroke-width:1.43297;stroke-miterlimit:4;stroke-dasharray:none;stroke-opacity:1"
       d="m 5.2164856,233.71647 h 9.5670314 v 9.56703 H 5.2164856 Z" />
    <path
       id="rect917-3-6"
       style="fill:#008000;stroke:#008000;stroke-width:1.43297;stroke-miterlimit:4;stroke-dasharray:none;stroke-opacity:1"
       d="m 15.216485,183.71647 h 9.567032 v 9.56703 h -9.567032 z" />
    <path
       style="fill:#ffffff;stroke-width:0.0194014"
       d="m 18.382819,293.92269 v -2.3908 h 1.886939 1.886931 v 2.3908 2.3908 h -1.886931 -1.886939 z m 3.295397,1.9953 c 0.166327,-0.0365 0.177955,-0.0421 0.165409,-0.0797 -0.03757,-0.11286 -0.04896,-0.12861 -0.08364,-0.11597 -0.104516,0.038 -0.315112,0.0691 -0.393805,0.0581 -0.235212,-0.0329 -0.429479,-0.36907 -0.582828,-1.00843 -0.055,-0.22926 -0.09964,-0.64955 -0.07914,-0.74517 0.01377,-0.0643 8.33e-4,-0.0789 -0.148613,-0.16757 l -0.105672,-0.0627 0.128945,-0.12768 c 0.136577,-0.13524 0.271251,-0.32976 0.322489,-0.46578 0.0176,-0.0466 0.03094,-0.1445 0.03094,-0.22671 0,-0.18902 -0.06469,-0.31334 -0.270775,-0.52059 -0.08296,-0.0834 -0.150773,-0.16793 -0.150773,-0.1879 0,-0.0351 -0.02796,-0.0367 -0.875534,-0.0496 -0.481541,-0.007 -0.877794,-0.0108 -0.880556,-0.008 -0.0025,0.003 -0.0099,0.0921 -0.01581,0.19785 l -0.01088,0.1922 h 0.161551 0.161559 l -0.01309,0.85788 c -0.0068,0.47179 -0.0187,1.06957 -0.02567,1.32837 l -0.01258,0.47054 0.126446,0.0123 c 0.06953,0.007 0.128605,0.0102 0.131223,0.008 0.0025,-0.003 0.01139,-0.33694 0.01955,-0.74298 l 0.01479,-0.73826 0.353506,0.009 c 0.399933,0.0104 0.5164,0.0355 0.744948,0.16033 l 0.130475,0.0713 0.01258,0.2522 c 0.02924,0.58343 0.268276,1.28521 0.516774,1.51734 0.162299,0.1516 0.318401,0.17927 0.628115,0.11135 z m -1.609193,-2.25129 c -0.03868,-0.01 -0.23194,-0.0227 -0.429548,-0.0288 l -0.359286,-0.0111 0.01309,-0.25351 c 0.0068,-0.13943 0.01309,-0.37013 0.01309,-0.51267 v -0.25915 l 0.577116,0.0114 0.577124,0.0114 0.05703,0.0492 c 0.100385,0.0866 0.162383,0.20567 0.162383,0.3118 0,0.17383 -0.188342,0.45931 -0.406469,0.61609 -0.06656,0.0478 -0.123947,0.0861 -0.127551,0.0851 -0.0034,-0.001 -0.03816,-0.01 -0.07684,-0.0197 z m 2.903852,2.19677 c -0.01734,-0.0274 -0.05423,-0.12306 -0.08203,-0.21266 -0.0476,-0.15344 -0.05176,-0.20288 -0.0714,-0.85175 -0.02873,-0.94774 -0.07344,-1.48714 -0.201951,-2.4406 -0.03256,-0.24153 -0.05508,-0.44296 -0.05015,-0.44763 0.01326,-0.0124 0.254175,-0.0749 0.462544,-0.12006 0.142426,-0.0309 0.241638,-0.0387 0.468681,-0.037 0.293777,0.002 0.385186,-0.014 0.465953,-0.0823 0.02635,-0.0223 0.154241,-0.0313 0.651456,-0.0462 0.340263,-0.0102 0.621316,-0.016 0.624554,-0.013 0.01003,0.009 0.123896,0.62803 0.166311,0.90396 0.128452,0.83527 0.166362,1.62851 0.129132,2.70191 l -0.01309,0.37674 -0.282973,0.0328 c -0.390813,0.0453 -0.554676,0.0783 -0.76432,0.15384 l -0.180259,0.0649 -0.108052,-0.0494 c -0.208522,-0.0954 -0.585182,-0.0747 -0.989535,0.0543 l -0.193443,0.0617 z m 1.423655,-0.51098 c -0.006,-0.0954 -0.01581,-0.27049 -0.02193,-0.3891 -0.0059,-0.1186 -0.03324,-0.38018 -0.06027,-0.58129 -0.101745,-0.75677 -0.114172,-0.98355 -0.05466,-0.99809 0.01947,-0.005 0.196002,-0.0332 0.392343,-0.0631 0.332953,-0.0508 0.356345,-0.057 0.347395,-0.092 -0.0051,-0.0206 -0.02091,-0.10784 -0.03477,-0.1938 l -0.02516,-0.15631 -0.09161,0.0126 c -0.0504,0.007 -0.267758,0.0423 -0.483046,0.0787 -0.445833,0.0753 -0.741735,0.0946 -0.983475,0.0643 -0.09207,-0.0116 -0.170943,-0.0177 -0.175287,-0.0136 -0.0085,0.008 -0.06571,0.37419 -0.05942,0.37958 0.01581,0.0135 0.402637,0.0443 0.557226,0.0443 l 0.192202,6e-5 0.02405,0.30005 c 0.01326,0.16503 0.04632,0.45826 0.07361,0.65161 0.04088,0.29003 0.08806,0.8571 0.08971,1.07818 l 3.82e-4,0.0516 h 0.161806 0.161806 z m -9.293101,0.0539 c -0.293947,-1.79358 -0.353421,-2.34122 -0.353761,-3.25749 l -1.96e-4,-0.53624 0.245905,-0.0499 c 0.50886,-0.10319 0.932356,-0.15536 1.620957,-0.19966 0.33116,-0.0213 0.951727,-0.0533 0.956156,-0.0493 0.0017,10e-4 -0.0068,0.17539 -0.01785,0.38681 -0.03256,0.60923 0.0025,1.05506 0.184577,2.34186 0.07191,0.50826 0.09831,0.72934 0.131682,1.10097 l 0.0119,0.13321 -0.387345,0.0584 c -0.405288,0.0611 -0.677432,0.0907 -1.411109,0.15375 -0.427703,0.0367 -0.757281,0.0778 -0.8849,0.11036 l -0.06188,0.0158 z m 1.445636,-0.30778 c 0.02992,-0.26526 0.03366,-0.8127 0.0068,-1.04463 -0.01071,-0.0928 -0.02541,-0.33542 -0.03289,-0.53911 l -0.0136,-0.37034 h 0.202682 0.202674 l 0.01309,0.0813 c 0.02048,0.1275 0.02397,0.12944 0.177684,0.0993 0.07437,-0.0145 0.140726,-0.0316 0.147509,-0.038 0.0068,-0.006 -0.0085,-0.10219 -0.03349,-0.21302 -0.02524,-0.11082 -0.05058,-0.27533 -0.05635,-0.36558 l -0.01054,-0.16407 h -0.157828 -0.157811 v 0.0656 0.0656 H 16.084227 15.33146 v 0.23439 0.23439 h 0.381403 0.381403 l 5.27e-4,0.17345 c 4.84e-4,0.16195 0.01326,0.38103 0.05738,0.97976 0.01173,0.15862 0.01037,0.33875 -0.0043,0.51567 -0.0119,0.14954 -0.02227,0.3183 -0.02286,0.37503 l -8.5e-4,0.10313 0.190706,0.0194 c 0.10489,0.0107 0.194828,0.0167 0.199877,0.0133 0.0051,-0.003 0.02032,-0.10491 0.034,-0.22568 z m -2.743356,0.2901 c -0.116092,-0.0436 -0.261587,-0.10583 -0.323322,-0.13838 l -0.11226,-0.0592 -0.133339,0.0452 -0.133348,0.0452 -0.151011,-0.0834 -0.151011,-0.0834 -0.301086,0.0256 -0.301087,0.0256 -0.09493,-0.0919 -0.09493,-0.0919 -0.25092,0.0248 c -0.138006,0.0136 -0.254243,0.0225 -0.258306,0.0196 -0.0043,-0.003 0.07701,-0.78191 0.180208,-1.73128 l 0.187595,-1.72612 0.191156,0.0102 c 0.483625,0.0258 0.790015,0.0571 1.55249,0.1585 0.450636,0.0599 0.824686,0.11396 0.831223,0.12006 0.0068,0.006 -0.05687,0.59973 -0.140862,1.31917 -0.08398,0.71943 -0.171657,1.48949 -0.194794,1.71122 -0.05355,0.51338 -0.06273,0.5815 -0.07794,0.58039 -0.0068,-4.6e-4 -0.107457,-0.0365 -0.223533,-0.0801 z m -0.211199,-0.78089 0.13872,-0.13059 -0.03867,-0.0429 c -0.02134,-0.0236 -0.07701,-0.0824 -0.123879,-0.1308 -0.0961,-0.0992 -0.134249,-0.16931 -0.237889,-0.4371 -0.03995,-0.10313 -0.09007,-0.21587 -0.111435,-0.25052 -0.02372,-0.0384 -0.03205,-0.0713 -0.02142,-0.0844 0.0097,-0.0118 0.148274,-0.17326 0.308142,-0.3589 0.159868,-0.18564 0.296938,-0.34744 0.304597,-0.35957 0.01377,-0.0218 -0.263721,-0.24985 -0.304062,-0.24985 -0.01071,0 -0.126089,0.12415 -0.256343,0.27588 l -0.236818,0.27589 -0.04641,-0.0931 c -0.04667,-0.0936 -0.05168,-0.20019 -0.01581,-0.33214 0.01071,-0.0392 0.0068,-0.0516 -0.01615,-0.0516 -0.09381,0 -0.29931,-0.0836 -0.435879,-0.17723 -0.08279,-0.0568 -0.164118,-0.10344 -0.18071,-0.10366 -0.02856,-4.6e-4 -0.221731,0.27187 -0.219912,0.30989 8.5e-4,0.0188 0.243814,0.18249 0.352095,0.23733 0.0504,0.0255 0.06528,0.0471 0.07395,0.10777 0.01105,0.0767 0.09879,0.26334 0.172388,0.36658 l 0.04012,0.0562 -0.379915,0.43831 c -0.208956,0.24107 -0.379925,0.44093 -0.379925,0.44414 0,0.0135 0.29971,0.23326 0.31813,0.23326 0.01105,0 0.148206,-0.14823 0.304682,-0.3294 0.156485,-0.18118 0.287529,-0.32659 0.291218,-0.32315 0.0034,0.003 0.03902,0.0896 0.07845,0.19147 0.03944,0.10186 0.100232,0.23167 0.135014,0.28845 0.05823,0.0951 0.305396,0.36015 0.335826,0.36015 0.0076,0 0.07556,-0.0588 0.151895,-0.13059 z m 12.39627,-0.97575 v -1.78138 h 1.254616 1.254608 v 1.78138 1.78139 H 27.245396 25.99078 Z m 2.138352,1.42343 c 0.132753,-0.0783 0.143531,-0.09 0.111911,-0.12114 -0.01071,-0.0105 -0.01105,-0.16803 -8.5e-4,-0.38347 0.0094,-0.20111 0.01751,-0.7306 0.0181,-1.17665 l 8.5e-4,-0.811 h -0.147611 -0.147611 l -0.01292,0.14346 c -0.0068,0.0789 -0.01292,0.48394 -0.01292,0.90007 0,0.42107 -0.0077,0.75661 -0.0176,0.75661 -0.0097,0 -0.03613,-0.0402 -0.05874,-0.0894 -0.214004,-0.4647 -0.511308,-1.00632 -0.702329,-1.27948 -0.06128,-0.0877 -0.110482,-0.17397 -0.109292,-0.19178 8.5e-4,-0.0178 -0.0266,-0.0511 -0.0618,-0.0739 -0.03519,-0.0228 -0.120496,-0.0903 -0.189618,-0.14997 -0.134929,-0.11648 -0.226874,-0.15184 -0.45146,-0.17358 l -0.11543,-0.0112 v 0.13846 c 0,0.0761 -0.0051,0.16391 -0.01207,0.19502 -0.01207,0.0562 -0.01139,0.0566 0.09535,0.069 0.05907,0.007 0.126565,0.0212 0.149906,0.032 0.04148,0.0191 0.04173,0.0221 0.01173,0.13336 -0.02516,0.0934 -0.02652,0.13283 -0.0076,0.21966 0.01581,0.0716 0.02337,0.38559 0.02337,0.97192 v 0.86612 h 0.138006 0.138006 l 0.01258,-0.0586 c 0.0068,-0.0322 0.01258,-0.46709 0.01258,-0.96636 0,-0.89133 7.57e-4,-0.9074 0.03876,-0.88836 0.06681,0.0334 0.298911,0.41529 0.513323,0.84449 0.301996,0.60453 0.398131,0.78711 0.515882,0.97976 0.06774,0.11087 0.126412,0.20158 0.130305,0.20158 0.0042,0 0.06562,-0.0345 0.137088,-0.0767 z"
       id="path365" />
    <g
       aria-label="PUZZLEBOX"
       transform="matrix(1.0547833,0,0,0.94806199,0,2.1166667)"
       id="text3405"
       style="font-weight:600;font-size:5.51521px;line-height:1.25;font-family:'URW Gothic';-inkscape-font-specification:'URW Gothic, Semi-Bold';fill:#ffffff;stroke-width:0.413641">
      <path
         d="m 4.7403102,187.15233 h 0.7555837 v -1.54978 h 0.2426693 c 0.5790971,0 0.8438271,-0.0441 1.0699508,-0.182 0.3309126,-0.20958 0.5349753,-0.6177 0.5349753,-1.08649 0,-0.4688 -0.1985475,-0.85486 -0.551521,-1.06995 -0.2316388,-0.13788 -0.5073993,-0.18752 -1.0423747,-0.18752 H 4.7403102 Z m 0.7555837,-2.27227 v -1.08098 h 0.2536997 c 0.2481845,0 0.3640039,0.011 0.4798233,0.0386 0.2206084,0.0607 0.3529734,0.2537 0.3529734,0.5074 0,0.19854 -0.088243,0.35297 -0.2481844,0.44121 -0.1158194,0.0607 -0.3198822,0.0938 -0.6177036,0.0938 z"
         id="path10102" />
      <path
         d="m 7.7957308,183.07659 v 2.58112 c 0,0.4357 0.066183,0.71697 0.2206084,0.95964 0.237154,0.37504 0.6783708,0.60668 1.1526789,0.60668 0.446732,0 0.8603729,-0.19855 1.1030419,-0.52395 0.193033,-0.26473 0.275761,-0.56807 0.275761,-1.04237 v -2.58112 H 9.7922369 v 2.58112 c 0,0.30333 -0.022061,0.43018 -0.099274,0.56255 -0.104789,0.17097 -0.2978214,0.27576 -0.523945,0.27576 -0.2206084,0 -0.4136407,-0.10479 -0.5184297,-0.27576 -0.077213,-0.13237 -0.099274,-0.25922 -0.099274,-0.56255 v -2.58112 z"
         id="path10104" />
      <path
         d="m 11.011085,186.51256 v 0.63977 h 2.548027 v -0.72249 h -1.638018 l 1.533229,-2.67488 v -0.67837 h -2.36051 v 0.72249 h 1.461531 z"
         id="path10106" />
      <path
         d="m 13.851404,186.51256 v 0.63977 h 2.548027 v -0.72249 h -1.638018 l 1.533229,-2.67488 v -0.67837 h -2.36051 v 0.72249 h 1.461531 z"
         id="path10108" />
      <path
         d="m 16.884759,187.15233 h 2.002022 v -0.72249 h -1.246438 v -3.35325 h -0.755584 z"
         id="path10110" />
      <path
         d="m 19.311444,187.15233 h 2.189538 v -0.72249 h -1.433954 v -0.94862 h 1.373287 v -0.72249 h -1.373287 v -0.95965 h 1.433954 v -0.72249 h -2.189538 z"
         id="path10112" />
      <path
         d="m 22.179346,187.15233 h 1.086496 c 0.452247,0 0.78316,-0.0717 1.031344,-0.22613 0.336428,-0.20406 0.52946,-0.56806 0.52946,-0.98722 0,-0.25921 -0.0717,-0.50188 -0.198547,-0.66734 -0.11582,-0.15442 -0.231639,-0.23164 -0.496369,-0.34194 0.330913,-0.17097 0.452247,-0.38055 0.452247,-0.76662 0,-0.38054 -0.165456,-0.70043 -0.463277,-0.88794 -0.24267,-0.15443 -0.496369,-0.19855 -1.103042,-0.19855 h -0.838312 z m 0.755583,-0.72249 v -1.04238 h 0.358489 c 0.523945,0 0.772129,0.17097 0.772129,0.52946 0,0.35849 -0.226123,0.51292 -0.755583,0.51292 z m 0,-1.78142 v -0.83279 h 0.308852 c 0.397095,0 0.584612,0.13236 0.584612,0.41364 0,0.2923 -0.193032,0.41915 -0.650794,0.41915 z"
         id="path10114" />
      <path
         d="m 27.325032,183.00489 c -1.213346,0 -2.150932,0.92104 -2.150932,2.11233 0,1.18025 0.948616,2.10681 2.145417,2.10681 1.18577,0 2.101295,-0.92104 2.101295,-2.10681 0,-1.17474 -0.932071,-2.11233 -2.09578,-2.11233 z m -0.01103,0.72801 c 0.755584,0 1.345712,0.60667 1.345712,1.38983 0,0.78868 -0.573582,1.37329 -1.345712,1.37329 -0.772129,0 -1.378802,-0.60667 -1.378802,-1.3788 0,-0.78868 0.595643,-1.38432 1.378802,-1.38432 z"
         id="path10116" />
      <path
         d="m 29.481467,187.15233 h 0.89898 l 0.948616,-1.40638 0.976192,1.40638 h 0.876918 l -1.411893,-2.0296 1.411893,-2.04614 h -0.876918 l -0.976192,1.42292 -0.948616,-1.42292 h -0.89898 l 1.400864,2.04614 z"
         id="path10118" />
    </g>
    <g
       aria-label="TURN ALL
3 LIGHTS
GREEN"
       id="text8441"
       style="font-weight:600;font-size:3.52777px;line-height:1.25;font-family:'URW Gothic';-inkscape-font-specification:'URW Gothic, Semi-Bold';text-align:center;text-anchor:middle;fill:#ffffff;stroke-width:0.264583">
      <path
         d="m 22.661665,279.4906 h 0.483304 v -2.14488 h 0.483305 v -0.46214 H 22.17836 v 0.46214 h 0.483305 z"
         id="path14961" />
      <path
         d="m 23.875211,276.88358 v 1.65099 c 0,0.2787 0.04233,0.45862 0.141111,0.61384 0.151694,0.23989 0.433915,0.38805 0.737304,0.38805 0.285749,0 0.550332,-0.127 0.705554,-0.33514 0.123472,-0.16933 0.176388,-0.36336 0.176388,-0.66675 v -1.65099 h -0.483304 v 1.65099 c 0,0.19403 -0.01411,0.27517 -0.0635,0.35984 -0.06703,0.10936 -0.1905,0.17639 -0.335138,0.17639 -0.141111,0 -0.264583,-0.067 -0.331611,-0.17639 -0.04939,-0.0847 -0.0635,-0.16581 -0.0635,-0.35984 v -1.65099 z"
         id="path14963" />
      <path
         d="m 26.132982,279.4906 h 0.483304 v -0.99836 l 0.684387,0.99836 h 0.596194 l -0.705554,-0.96308 c 0.201082,-0.0494 0.29986,-0.0952 0.412749,-0.1905 0.179916,-0.15169 0.26811,-0.3563 0.26811,-0.61736 0,-0.26811 -0.09525,-0.49036 -0.275166,-0.64205 -0.169333,-0.14464 -0.356305,-0.19403 -0.712609,-0.19403 h -0.751415 z m 0.483304,-1.36172 v -0.78316 h 0.215194 c 0.225777,0 0.349249,0.0247 0.42686,0.0917 0.08467,0.067 0.127,0.16933 0.127,0.29633 0,0.27517 -0.15875,0.39511 -0.532693,0.39511 z"
         id="path14965" />
      <path
         d="m 28.228477,279.4906 h 0.483304 v -1.89441 l 1.090081,1.89441 h 0.539749 v -2.60702 h -0.483304 v 1.89794 l -1.079498,-1.89794 h -0.550332 z"
         id="path14967" />
      <path
         d="m 31.611603,279.4906 h 0.532693 l 0.289277,-0.6738 h 0.927804 l 0.278694,0.6738 h 0.532693 l -1.093609,-2.60702 h -0.380999 z m 0.998359,-1.13594 0.278694,-0.79022 0.278693,0.79022 z"
         id="path14969" />
      <path
         d="m 34.437346,279.4906 h 1.28058 v -0.46214 H 34.92065 v -2.14488 h -0.483304 z"
         id="path14971" />
      <path
         d="m 35.98956,279.4906 h 1.280581 v -0.46214 h -0.797276 v -2.14488 H 35.98956 Z"
         id="path14973" />
      <path
         d="m 23.391924,282.64443 h 0.07761 c 0.313972,0 0.511527,0.17286 0.511527,0.43744 0,0.25047 -0.172861,0.43392 -0.409221,0.43392 -0.229305,0 -0.391583,-0.15875 -0.423333,-0.4057 h -0.472721 c 0.02822,0.49036 0.398638,0.83608 0.899581,0.83608 0.504472,0 0.874887,-0.37041 0.874887,-0.87488 0,-0.32809 -0.134055,-0.55033 -0.405693,-0.67381 0.151694,-0.10936 0.218722,-0.24694 0.218722,-0.44802 0,-0.40217 -0.299861,-0.70203 -0.702027,-0.70203 -0.20461,0 -0.391582,0.0811 -0.52211,0.22225 -0.109361,0.11994 -0.151694,0.23283 -0.169333,0.4445 h 0.476249 c 0.02117,-0.16581 0.08819,-0.23636 0.218722,-0.23636 0.134055,0 0.229305,0.1023 0.229305,0.24694 0,0.11289 -0.05292,0.19403 -0.151694,0.23283 -0.05997,0.0247 -0.123472,0.0317 -0.250472,0.0353 z"
         id="path14975" />
      <path
         d="m 25.82608,283.90031 h 1.28058 v -0.46213 h -0.797276 v -2.14489 H 25.82608 Z"
         id="path14977" />
      <path
         d="m 27.378294,283.90031 h 0.483304 v -2.60702 h -0.483304 z"
         id="path14979" />
      <path
         d="m 29.307979,283.0219 h 1.079498 c -0.137583,0.28928 -0.419805,0.45861 -0.765526,0.45861 -0.511527,0 -0.903109,-0.381 -0.903109,-0.88194 0,-0.22578 0.09525,-0.47273 0.243416,-0.63147 0.151694,-0.16228 0.380999,-0.254 0.631471,-0.254 0.303388,0 0.557387,0.12347 0.716137,0.34572 h 0.567971 c -0.169333,-0.4692 -0.705554,-0.81139 -1.273525,-0.81139 -0.765526,0 -1.372303,0.59267 -1.372303,1.34408 0,0.76553 0.61736,1.35466 1.418164,1.35466 0.39511,0 0.730248,-0.13758 0.987776,-0.40216 0.239888,-0.25047 0.373943,-0.57503 0.373943,-0.91017 v -0.0635 h -1.703913 z"
         id="path14981" />
      <path
         d="m 31.350547,283.90031 h 0.483305 v -1.09361 h 0.931331 v 1.09361 h 0.483304 v -2.60702 h -0.483304 v 1.05128 h -0.931331 v -1.05128 h -0.483305 z"
         id="path14983" />
      <path
         d="m 33.996367,283.90031 h 0.483304 v -2.14488 h 0.483305 v -0.46214 h -1.449914 v 0.46214 h 0.483305 z"
         id="path14985" />
      <path
         d="m 35.047634,283.15595 c 0.01764,0.20461 0.0635,0.33514 0.169333,0.47625 0.155222,0.19756 0.409221,0.31397 0.687915,0.31397 0.469194,0 0.832554,-0.36336 0.832554,-0.83608 0,-0.21872 -0.07761,-0.40216 -0.232833,-0.54327 -0.102305,-0.0953 -0.183444,-0.13759 -0.440971,-0.23636 -0.246944,-0.0917 -0.254,-0.0953 -0.289277,-0.11642 -0.09525,-0.06 -0.144639,-0.14111 -0.144639,-0.23636 0,-0.15522 0.109361,-0.26458 0.268111,-0.26458 0.162277,0 0.261055,0.0988 0.275166,0.27516 h 0.500943 c -0.01058,-0.19755 -0.05644,-0.33161 -0.162277,-0.46214 -0.141111,-0.17638 -0.366888,-0.27869 -0.610305,-0.27869 -0.423332,0 -0.75847,0.32808 -0.75847,0.74083 0,0.32808 0.190499,0.57856 0.543276,0.70908 0.34925,0.13053 0.373944,0.14111 0.451555,0.20109 0.07761,0.0635 0.119944,0.15522 0.119944,0.26458 0,0.18697 -0.144638,0.3175 -0.352777,0.3175 -0.215194,0 -0.33161,-0.10583 -0.352777,-0.32456 z"
         id="path14987" />
      <path
         d="m 25.240461,287.43161 h 1.079498 c -0.137583,0.28928 -0.419805,0.45861 -0.765527,0.45861 -0.511526,0 -0.903109,-0.381 -0.903109,-0.88194 0,-0.22578 0.09525,-0.47272 0.243416,-0.63147 0.151695,-0.16228 0.381,-0.254 0.631471,-0.254 0.303389,0 0.557388,0.12347 0.716138,0.34572 h 0.567971 c -0.169333,-0.46919 -0.705554,-0.81139 -1.273525,-0.81139 -0.765526,0 -1.372303,0.59267 -1.372303,1.34408 0,0.76553 0.61736,1.35467 1.418164,1.35467 0.39511,0 0.730248,-0.13759 0.987775,-0.40217 0.239889,-0.25047 0.373944,-0.57503 0.373944,-0.91016 v -0.0635 h -1.703913 z"
         id="path14989" />
      <path
         d="m 27.261867,288.31003 h 0.483305 v -0.99836 l 0.684387,0.99836 h 0.596193 l -0.705554,-0.96309 c 0.201083,-0.0494 0.299861,-0.0953 0.412749,-0.1905 0.179916,-0.15169 0.268111,-0.3563 0.268111,-0.61735 0,-0.26812 -0.09525,-0.49036 -0.275166,-0.64206 -0.169333,-0.14464 -0.356305,-0.19403 -0.71261,-0.19403 h -0.751415 z m 0.483305,-1.36172 v -0.78317 h 0.215194 c 0.225777,0 0.349249,0.0247 0.42686,0.0917 0.08467,0.067 0.126999,0.16934 0.126999,0.29634 0,0.27516 -0.158749,0.39511 -0.532693,0.39511 z"
         id="path14991" />
      <path
         d="m 29.357362,288.31003 h 1.400525 v -0.46214 h -0.91722 v -0.60678 h 0.878415 v -0.46214 h -0.878415 v -0.61383 h 0.91722 V 285.703 h -1.400525 z"
         id="path14993" />
      <path
         d="m 31.191797,288.31003 h 1.400525 v -0.46214 h -0.91722 v -0.60678 h 0.878415 v -0.46214 h -0.878415 v -0.61383 h 0.91722 V 285.703 h -1.400525 z"
         id="path14995" />
      <path
         d="m 33.026232,288.31003 h 0.483305 v -1.89442 l 1.090081,1.89442 h 0.539749 V 285.703 h -0.483305 v 1.89794 L 33.576564,285.703 h -0.550332 z"
         id="path14997" />
    </g>
  </g>
  <g
     inkscape:groupmode="layer"
     id="layer2"
     inkscape:label="components">
    <text
       xml:space="preserve"
       style="font-style:normal;font-weight:normal;font-size:10.5833px;line-height:1.25;font-family:sans-serif;fill:#000000;fill-opacity:1;stroke:none;stroke-width:0.264583"
       x="-65.249954"
       y="111.72212"
       id="text144"><tspan
         sodipodi:role="line"
         id="tspan142"
         x="-65.249954"
         y="111.72212"
         style="stroke-width:0.264583" /></text>
  </g>
</svg>
