<?xml version="1.0" encoding="UTF-8" standalone="no"?>
<!-- Created with Inkscape (http://www.inkscape.org/) -->

<svg
   width="10.0004mm"
   height="10.000431mm"
   viewBox="0 0 10.000399 10.000431"
   version="1.1"
   id="svg111794"
   inkscape:version="1.1 (c4e8f9ed74, 2021-05-24)"
   sodipodi:docname="RoundBlackKnob.svg"
   xmlns:inkscape="http://www.inkscape.org/namespaces/inkscape"
   xmlns:sodipodi="http://sodipodi.sourceforge.net/DTD/sodipodi-0.dtd"
   xmlns="http://www.w3.org/2000/svg"
   xmlns:svg="http://www.w3.org/2000/svg"
   xmlns:rdf="http://www.w3.org/1999/02/22-rdf-syntax-ns#"
   xmlns:cc="http://creativecommons.org/ns#"
   xmlns:dc="http://purl.org/dc/elements/1.1/">
  <defs
     id="defs111788" />
  <sodipodi:namedview
     id="base"
     pagecolor="#ffffff"
     bordercolor="#666666"
     borderopacity="1.0"
     inkscape:pageopacity="0.0"
     inkscape:pageshadow="2"
     inkscape:zoom="11.2"
     inkscape:cx="27.633929"
     inkscape:cy="21.473214"
     inkscape:document-units="mm"
     inkscape:current-layer="layer1"
     showgrid="false"
     fit-margin-top="0"
     fit-margin-left="0"
     fit-margin-right="0"
     fit-margin-bottom="0"
     inkscape:window-width="1366"
     inkscape:window-height="768"
     inkscape:window-x="0"
     inkscape:window-y="0"
     inkscape:window-maximized="0"
     inkscape:pagecheckerboard="0" />
  <metadata
     id="metadata111791">
    <rdf:RDF>
      <cc:Work
         rdf:about="">
        <dc:format>image/svg+xml</dc:format>
        <dc:type
           rdf:resource="http://purl.org/dc/dcmitype/StillImage" />
        <dc:title />
      </cc:Work>
    </rdf:RDF>
  </metadata>
  <g
     inkscape:label="Layer 1"
     inkscape:groupmode="layer"
     id="layer1"
     transform="translate(-135.80716,-61.39592)">
    <path
       inkscape:connector-curvature="0"
       style="fill:#000000;fill-opacity:1;fill-rule:nonzero;stroke:none;stroke-width:0.35277775"
       d="m 145.80756,66.395451 c 0,2.761586 -2.23791,5.0009 -4.99949,5.0009 -2.76162,0 -5.00091,-2.239314 -5.00091,-5.0009 0,-2.76159 2.23929,-4.999524 5.00091,-4.999524 2.76158,0 4.99949,2.237934 4.99949,4.999524"
       id="path110594" />
    <path
       inkscape:connector-curvature="0"
       style="fill:#3f714e;fill-opacity:1;fill-rule:nonzero;stroke:none;stroke-width:0.317487"
       d="m 145.30716,66.395301 c 0,2.485322 -2.01404,4.500619 -4.49936,4.500619 -2.48536,0 -4.50064,-2.015297 -4.50064,-4.500619 0,-2.485326 2.01528,-4.499381 4.50064,-4.499381 2.48532,0 4.49936,2.014055 4.49936,4.499381"
       id="path110594-2" />
    <path
       inkscape:connector-curvature="0"
       style="fill:#1a1a1a;fill-opacity:1;fill-rule:nonzero;stroke:none;stroke-width:0.282211"
       d="m 144.80716,66.39537 c 0,2.209175 -1.79026,4.00055 -3.99943,4.00055 -2.20921,0 -4.00057,-1.791375 -4.00057,-4.00055 0,-2.209179 1.79136,-3.99945 4.00057,-3.99945 2.20917,0 3.99943,1.790271 3.99943,3.99945"
       id="path110594-2-7" />
    <path
       inkscape:connector-curvature="0"
       style="fill:#0e0e0e;fill-opacity:1;fill-rule:nonzero;stroke:none;stroke-width:0.246934"
       d="m 144.30716,66.395439 c 0,1.933028 -1.56648,3.500481 -3.4995,3.500481 -1.93306,0 -3.5005,-1.567453 -3.5005,-3.500481 0,-1.933032 1.56744,-3.499519 3.5005,-3.499519 1.93302,0 3.4995,1.566487 3.4995,3.499519"
       id="path110594-2-7-0" />
    <path
       inkscape:connector-curvature="0"
       style="fill:#000000;fill-opacity:1;fill-rule:nonzero;stroke:none;stroke-width:0.211657"
       d="m 143.80716,66.395508 c 0,1.656881 -1.3427,3.000412 -2.99957,3.000412 -1.65691,0 -3.00043,-1.343531 -3.00043,-3.000412 0,-1.656885 1.34352,-2.999588 3.00043,-2.999588 1.65687,0 2.99957,1.342703 2.99957,2.999588"
       id="path110594-2-7-0-9" />
    <path
       inkscape:connector-curvature="0"
       style="fill:#ffffff;fill-opacity:1;fill-rule:evenodd;stroke:none;stroke-width:0.35277775"
       d="m 140.97479,61.41522 c -0.0551,-0.01242 -0.11024,-0.0193 -0.16672,-0.0193 -0.0579,0 -0.11162,0.0069 -0.16676,0.0193 v 5.043618 h 0.33348 z m 0,0"
       id="path110596" />
  </g>
</svg>
