<?xml version="1.0" encoding="UTF-8" standalone="no"?>
<svg
   width="36mm"
   height="128.5mm"
   viewBox="0 0 36.000004 128.50002"
   version="1.1"
   id="svg8"
   inkscape:version="1.1 (c4e8f9ed74, 2021-05-24)"
   sodipodi:docname="Splitterburst.svg"
   xmlns:inkscape="http://www.inkscape.org/namespaces/inkscape"
   xmlns:sodipodi="http://sodipodi.sourceforge.net/DTD/sodipodi-0.dtd"
   xmlns:xlink="http://www.w3.org/1999/xlink"
   xmlns="http://www.w3.org/2000/svg"
   xmlns:svg="http://www.w3.org/2000/svg"
   xmlns:rdf="http://www.w3.org/1999/02/22-rdf-syntax-ns#"
   xmlns:cc="http://creativecommons.org/ns#"
   xmlns:dc="http://purl.org/dc/elements/1.1/">
  <defs
     id="defs2">
    <linearGradient
       inkscape:collect="always"
       id="linearGradient1015">
      <stop
         style="stop-color:#0d0d0d;stop-opacity:1"
         offset="0"
         id="stop1011" />
      <stop
         style="stop-color:#1d1d1d;stop-opacity:1"
         offset="1"
         id="stop1013" />
    </linearGradient>
    <linearGradient
       inkscape:collect="always"
       xlink:href="#linearGradient1015"
       id="linearGradient1017"
       x1="12.198136"
       y1="265.34753"
       x2="20.689831"
       y2="177.88016"
       gradientUnits="userSpaceOnUse" />
  </defs>
  <sodipodi:namedview
     id="base"
     pagecolor="#ffffff"
     bordercolor="#666666"
     borderopacity="1.0"
     inkscape:pageopacity="0.0"
     inkscape:pageshadow="2"
     inkscape:zoom="0.9899495"
     inkscape:cx="42.931483"
     inkscape:cy="275.26657"
     inkscape:document-units="mm"
     inkscape:current-layer="layer2"
     showgrid="false"
     units="mm"
     inkscape:snap-bbox="true"
     inkscape:snap-page="true"
     inkscape:bbox-nodes="false"
     inkscape:snap-bbox-edge-midpoints="false"
     inkscape:window-width="1366"
     inkscape:window-height="768"
     inkscape:window-x="0"
     inkscape:window-y="0"
     inkscape:window-maximized="0"
     inkscape:snap-bbox-midpoints="true"
     inkscape:snap-nodes="false"
     inkscape:document-rotation="0"
     fit-margin-top="0"
     fit-margin-left="0"
     fit-margin-right="0"
     fit-margin-bottom="0"
     inkscape:lockguides="true"
     showguides="true"
     inkscape:pagecheckerboard="0" />
  <metadata
     id="metadata5">
    <rdf:RDF>
      <cc:Work
         rdf:about="">
        <dc:format>image/svg+xml</dc:format>
        <dc:type
           rdf:resource="http://purl.org/dc/dcmitype/StillImage" />
      </cc:Work>
    </rdf:RDF>
  </metadata>
  <g
     inkscape:label="Layer 1"
     inkscape:groupmode="layer"
     id="layer1"
     transform="translate(0,-168.49997)">
    <rect
       style="display:inline;opacity:1;vector-effect:none;fill:url(#linearGradient1017);fill-opacity:1;fill-rule:evenodd;stroke:none;stroke-width:0.705712;stroke-linecap:butt;stroke-linejoin:miter;stroke-miterlimit:4;stroke-dasharray:none;stroke-dashoffset:0;stroke-opacity:1;paint-order:normal"
       id="rect420"
       width="36"
       height="128.5"
       x="5.9211732e-17"
       y="168.49997" />
    <g
       aria-label="Pitch"
       style="font-style:normal;font-variant:normal;font-weight:300;font-stretch:normal;font-size:4.93889px;line-height:6.61458px;font-family:'Gotham Rounded';-inkscape-font-specification:'Gotham Rounded Light';font-variant-ligatures:normal;font-variant-caps:normal;font-variant-numeric:normal;font-feature-settings:normal;text-align:center;letter-spacing:0px;word-spacing:0px;writing-mode:lr-tb;text-anchor:middle;display:inline;fill:#000000;fill-opacity:1;stroke:none;stroke-width:0.264583px;stroke-linecap:butt;stroke-linejoin:miter;stroke-opacity:1"
       id="text4944"
       transform="translate(0,10.583334)" />
    <text
       xml:space="preserve"
       style="font-style:normal;font-weight:normal;font-size:10.5833px;line-height:1.25;font-family:sans-serif;fill:#000000;fill-opacity:1;stroke:none;stroke-width:0.264583"
       x="10.375626"
       y="254.64096"
       id="text72"><tspan
         sodipodi:role="line"
         id="tspan70"
         x="10.375626"
         y="254.64096"
         style="stroke-width:0.264583" /></text>
    <g
       aria-label="x4"
       id="text1113"
       style="font-weight:600;font-size:3.52777px;line-height:1.25;font-family:'URW Gothic';-inkscape-font-specification:'URW Gothic, Semi-Bold';fill:#ffffff;stroke-width:0.264583">
      <path
         d="m 30.139121,264.75232 h 0.564443 l 0.409222,-0.67028 0.409221,0.67028 h 0.564443 l -0.69497,-1.00894 0.596193,-0.94545 h -0.529166 l -0.345721,0.58914 -0.352777,-0.58914 h -0.529166 l 0.599721,0.94545 z"
         style="fill:#ffffff;stroke-width:0.264583"
         id="path1115" />
      <path
         d="m 32.111143,263.97974 v 0.381 h 1.125358 v 0.39158 h 0.469194 v -0.39158 h 0.275166 v -0.41981 h -0.275166 v -1.79563 h -0.39511 z m 1.125358,-0.0388 h -0.649109 l 0.649109,-1.00541 z"
         style="fill:#ffffff;stroke-width:0.264583"
         id="path1117" />
    </g>
  </g>
  <g
     inkscape:groupmode="layer"
     id="layer2"
     inkscape:label="components"
     transform="translate(0,1.1035156e-5)">
    <g
       aria-label="SPLITTERBURST"
       id="text3475"
       style="font-weight:600;font-size:3.52777px;line-height:1.25;font-family:'URW Gothic';-inkscape-font-specification:'URW Gothic, Semi-Bold';fill:#ffffff;stroke-width:0.264583"
       transform="matrix(1.3050914,0,0,1.1857367,-5.9830942,-1.1144186)">
      <path
         d="m 6.4999999,7.9085126 c 0.017639,0.2046107 0.0635,0.3351382 0.169333,0.476249 0.1552218,0.1975551 0.4092213,0.3139715 0.6879151,0.3139715 0.4691934,0 0.8325537,-0.3633603 0.8325537,-0.8360815 0,-0.2187217 -0.077611,-0.4021658 -0.2328328,-0.5432766 C 7.8546636,7.2241252 7.7735249,7.181792 7.5159977,7.0830144 7.2690538,6.9912924 7.2619982,6.9877646 7.2267205,6.966598 7.1314707,6.9066259 7.082082,6.8254872 7.082082,6.7302374 c 0,-0.1552219 0.1093608,-0.2645827 0.2681105,-0.2645827 0.1622774,0 0.261055,0.098777 0.275166,0.275166 H 8.1263019 C 8.1157186,6.5432656 8.0698576,6.4092103 7.9640245,6.2786828 7.8229137,6.1022943 7.5971364,5.999989 7.3537202,5.999989 c -0.4233324,0 -0.7584705,0.3280826 -0.7584705,0.7408317 0,0.3280826 0.1904996,0.5785543 0.5432766,0.7090818 0.3492492,0.1305275 0.3739436,0.1411108 0.4515545,0.2010829 0.077611,0.0635 0.1199442,0.1552219 0.1199442,0.2645827 0,0.1869719 -0.1446386,0.3174994 -0.352777,0.3174994 -0.215194,0 -0.3316104,-0.1058332 -0.352777,-0.3245549 z"
         id="path6599" />
      <path
         d="M 8.5249348,8.6528721 H 9.0082393 V 7.6615687 h 0.1552219 c 0.3704159,0 0.5397488,-0.028222 0.6843874,-0.1164164 C 10.059515,7.411097 10.190042,7.150042 10.190042,6.8501816 10.190042,6.5503211 10.063043,6.3033772 9.8372653,6.1657942 9.6890989,6.0776 9.5127104,6.04585 9.1705167,6.04585 H 8.5249348 Z M 9.0082393,7.1994308 V 6.5079879 h 0.1622774 c 0.1587497,0 0.2328329,0.00706 0.306916,0.024694 0.1411108,0.038805 0.2257773,0.1622774 0.2257773,0.3245548 0,0.1269998 -0.056444,0.2257773 -0.1587496,0.2822216 -0.074083,0.038806 -0.2046107,0.059972 -0.3951103,0.059972 z"
         id="path6601" />
      <path
         d="m 10.4899,8.6528721 h 1.28058 V 8.1907342 H 10.973204 V 6.04585 H 10.4899 Z"
         id="path6603" />
      <path
         d="m 12.042114,8.6528721 h 0.483304 V 6.04585 h -0.483304 z"
         id="path6605" />
      <path
         d="m 13.276827,8.6528721 h 0.483305 V 6.5079879 h 0.483304 V 6.04585 h -1.449913 v 0.4621379 h 0.483304 z"
         id="path6607" />
      <path
         d="m 14.864313,8.6528721 h 0.483305 V 6.5079879 h 0.483304 V 6.04585 h -1.449913 v 0.4621379 h 0.483304 z"
         id="path6609" />
      <path
         d="m 16.077859,8.6528721 h 1.400525 V 8.1907342 h -0.91722 V 7.5839578 h 0.878414 V 7.1218199 h -0.878414 v -0.613832 h 0.91722 V 6.04585 h -1.400525 z"
         id="path6611" />
      <path
         d="m 17.912295,8.6528721 h 0.483304 V 7.6545132 l 0.684387,0.9983589 H 19.67618 L 18.970626,7.6897909 c 0.201082,-0.049389 0.29986,-0.09525 0.412749,-0.1904996 0.179916,-0.1516941 0.26811,-0.3563048 0.26811,-0.6173598 0,-0.2681105 -0.09525,-0.49036 -0.275166,-0.6420541 C 19.206986,6.0952388 19.020014,6.04585 18.66371,6.04585 H 17.912295 Z M 18.395599,7.2911528 V 6.5079879 h 0.215194 c 0.225777,0 0.349249,0.024694 0.42686,0.091722 0.08467,0.067028 0.127,0.169333 0.127,0.2963327 0,0.2751661 -0.15875,0.3951102 -0.532693,0.3951102 z"
         id="path6613" />
      <path
         d="m 20.00779,8.6528721 h 0.69497 c 0.289278,0 0.500944,-0.045861 0.659693,-0.1446386 0.215194,-0.1305275 0.338666,-0.3633603 0.338666,-0.6314708 0,-0.1658052 -0.04586,-0.3210271 -0.126999,-0.4268602 -0.07408,-0.098778 -0.148167,-0.1481663 -0.3175,-0.2187217 0.211667,-0.1093609 0.289278,-0.2434162 0.289278,-0.4903601 0,-0.2434161 -0.105834,-0.4480268 -0.296333,-0.567971 C 21.094343,6.0740722 20.932066,6.04585 20.544011,6.04585 H 20.00779 Z M 20.491094,8.1907342 V 7.5239857 h 0.229305 c 0.335138,0 0.493888,0.1093608 0.493888,0.3386659 0,0.229305 -0.144638,0.3280826 -0.483304,0.3280826 z m 0,-1.1394697 V 6.5185712 h 0.197555 c 0.254,0 0.373944,0.084666 0.373944,0.2645828 0,0.1869718 -0.123472,0.2681105 -0.416277,0.2681105 z"
         id="path6615" />
      <path
         d="m 22.053896,6.04585 v 1.6509964 c 0,0.2786938 0.04233,0.4586101 0.141111,0.613832 0.151694,0.2398884 0.433916,0.3880547 0.737304,0.3880547 0.285749,0 0.550332,-0.1269997 0.705554,-0.3351382 0.123472,-0.1693329 0.176388,-0.3633603 0.176388,-0.6667485 V 6.04585 h -0.483304 v 1.6509964 c 0,0.1940274 -0.01411,0.2751661 -0.0635,0.3598325 -0.06703,0.1093609 -0.1905,0.1763886 -0.335138,0.1763886 -0.141111,0 -0.264583,-0.067028 -0.331611,-0.1763886 C 22.55131,7.9720129 22.5372,7.8908738 22.5372,7.6968464 V 6.04585 Z"
         id="path6617" />
      <path
         d="m 24.311668,8.6528721 h 0.483304 V 7.6545132 l 0.684387,0.9983589 h 0.596194 L 25.369999,7.6897909 c 0.201083,-0.049389 0.29986,-0.09525 0.412749,-0.1904996 0.179916,-0.1516941 0.26811,-0.3563048 0.26811,-0.6173598 0,-0.2681105 -0.09525,-0.49036 -0.275166,-0.6420541 C 25.606359,6.0952388 25.419387,6.04585 25.063083,6.04585 H 24.311668 Z M 24.794972,7.2911528 V 6.5079879 h 0.215194 c 0.225777,0 0.349249,0.024694 0.42686,0.091722 0.08467,0.067028 0.127,0.169333 0.127,0.2963327 0,0.2751661 -0.15875,0.3951102 -0.532693,0.3951102 z"
         id="path6619" />
      <path
         d="m 26.216663,7.9085126 c 0.01764,0.2046107 0.0635,0.3351382 0.169333,0.476249 0.155222,0.1975551 0.409222,0.3139715 0.687915,0.3139715 0.469194,0 0.832554,-0.3633603 0.832554,-0.8360815 0,-0.2187217 -0.07761,-0.4021658 -0.232833,-0.5432766 C 27.571327,7.224125 27.490188,7.181792 27.232661,7.0830144 26.985717,6.9912924 26.978662,6.9877644 26.943384,6.966598 26.848134,6.906626 26.798745,6.8254872 26.798745,6.7302374 c 0,-0.1552219 0.109361,-0.2645827 0.268111,-0.2645827 0.162277,0 0.261055,0.098777 0.275166,0.275166 h 0.500943 C 27.832382,6.5432656 27.786521,6.4092103 27.680688,6.2786828 27.539577,6.1022943 27.3138,5.999989 27.070384,5.999989 c -0.423333,0 -0.758471,0.3280826 -0.758471,0.7408317 0,0.3280826 0.1905,0.5785543 0.543277,0.7090818 0.349249,0.1305275 0.373943,0.1411108 0.451554,0.2010829 0.07761,0.0635 0.119944,0.1552219 0.119944,0.2645827 0,0.1869719 -0.144638,0.3174994 -0.352777,0.3174994 -0.215194,0 -0.33161,-0.1058332 -0.352777,-0.3245549 z"
         id="path6621" />
      <path
         d="m 28.520286,8.6528721 h 0.483305 V 6.5079879 h 0.483304 V 6.04585 h -1.449913 v 0.4621379 h 0.483304 z"
         id="path6623" />
    </g>
    <text
       xml:space="preserve"
       style="font-style:normal;font-weight:normal;font-size:10.5833px;line-height:1.25;font-family:sans-serif;fill:#000000;fill-opacity:1;stroke:none;stroke-width:0.264583"
       x="-65.249954"
       y="101.72212"
       id="text144"><tspan
         sodipodi:role="line"
         id="tspan142"
         x="-65.249954"
         y="101.72212"
         style="stroke-width:0.264583" /></text>
    <path
       style="fill:#e5ffd5;stroke:#fffff2;stroke-width:0.989353px;stroke-linecap:butt;stroke-linejoin:miter;stroke-opacity:1"
       d="M 24.005261,90.99986 23.994676,80.000121"
       id="path1029-5" />
    <text
       xml:space="preserve"
       style="font-size:3.52777px;line-height:1.25;font-family:sans-serif;stroke-width:0.264583"
       x="17.94903"
       y="65.780609"
       id="text1055"><tspan
         sodipodi:role="line"
         id="tspan1053"
         x="17.94903"
         y="65.780609"
         style="stroke-width:0.264583" /></text>
    <path
       style="fill:#e5ffd5;stroke:#fffff2;stroke-width:0.989363px;stroke-linecap:butt;stroke-linejoin:miter;stroke-opacity:1"
       d="M 12.005231,90.99976 11.994681,80.000214"
       id="path1029-5-5" />
    <path
       id="rect179-7-2"
       style="fill:#ffffff;fill-opacity:0;stroke:#ffffff;stroke-width:0.3;stroke-miterlimit:4;stroke-dasharray:none;stroke-opacity:1"
       d="m 6,104.99999 h 24 v 12 H 6 Z" />
    <text
       xml:space="preserve"
       style="font-size:3.52777px;line-height:1.25;font-family:sans-serif;stroke-width:0.264583"
       x="5.6367397"
       y="115.28948"
       id="text1388"><tspan
         sodipodi:role="line"
         id="tspan1386"
         x="5.6367397"
         y="115.28948"
         style="stroke-width:0.264583" /></text>
    <path
       id="rect179-7-2-7"
       style="fill:none;stroke:#ffffff;stroke-width:0.3;stroke-miterlimit:4;stroke-dasharray:none;stroke-opacity:1"
       d="m 22.5,19.499989 h 11 v 11 h -11 z" />
    <path
       id="rect179-7-2-7-5"
       style="fill:#000000;fill-opacity:0;stroke:#ffffff;stroke-width:0.3;stroke-miterlimit:4;stroke-dasharray:none;stroke-opacity:1"
       d="m 12.5,48.499989 h 21 v 11 h -21 z" />
    <path
       style="fill:#ffffff;stroke:#fbffff;stroke-width:1.00544;stroke-linecap:butt;stroke-linejoin:miter;stroke-miterlimit:4;stroke-dasharray:none;stroke-opacity:1"
       d="M 12.097354,80.564497 5.4235468,70.27082"
       id="path302" />
    <path
       style="fill:#ffffff;stroke:#fbffff;stroke-width:1.00544;stroke-linecap:butt;stroke-linejoin:miter;stroke-miterlimit:4;stroke-dasharray:none;stroke-opacity:1"
       d="M 23.921822,80.564497 30.595629,70.27082"
       id="path302-3" />
    <path
       id="rect179-7-2-7-6"
       style="fill:#000000;fill-opacity:0;stroke:#ffffff;stroke-width:0.3;stroke-miterlimit:4;stroke-dasharray:none;stroke-opacity:1"
       d="m 12.5,63.499989 h 11 v 11 h -11 z" />
    <g
       aria-label="ON/OFF/TOGGLE:"
       id="text19554"
       style="font-weight:600;font-size:2.82222px;line-height:1.25;font-family:'URW Gothic';-inkscape-font-specification:'URW Gothic, Semi-Bold';fill:#ffffff;stroke-width:0.264583">
      <path
         d="m 7.5244914,31.765424 c -0.6208884,0 -1.1006658,0.471311 -1.1006658,1.08091 0,0.603955 0.4854219,1.078088 1.0978436,1.078088 0.6067773,0 1.0752659,-0.47131 1.0752659,-1.078088 0,-0.601133 -0.4769552,-1.08091 -1.0724437,-1.08091 z m -0.00564,0.372533 c 0.3866442,0 0.6886217,0.310444 0.6886217,0.711199 0,0.403578 -0.2935109,0.702733 -0.6886217,0.702733 -0.3951108,0 -0.705555,-0.310444 -0.705555,-0.705555 0,-0.403577 0.3047998,-0.708377 0.705555,-0.708377 z"
         id="path27932" />
      <path
         d="M 8.9017298,33.887733 H 9.288374 v -1.515532 l 0.872066,1.515532 h 0.4318 v -2.08562 h -0.386645 v 1.518354 L 9.3419961,31.802113 H 8.9017298 Z"
         id="path27934" />
      <path
         d="m 10.871639,34.248978 h 0.265289 l 0.911577,-2.446865 h -0.265289 z"
         id="path27936" />
      <path
         d="m 13.281812,31.765424 c -0.620888,0 -1.100666,0.471311 -1.100666,1.08091 0,0.603955 0.485422,1.078088 1.097844,1.078088 0.606777,0 1.075266,-0.47131 1.075266,-1.078088 0,-0.601133 -0.476955,-1.08091 -1.072444,-1.08091 z m -0.0056,0.372533 c 0.386644,0 0.688622,0.310444 0.688622,0.711199 0,0.403578 -0.293511,0.702733 -0.688622,0.702733 -0.395111,0 -0.705555,-0.310444 -0.705555,-0.705555 0,-0.403577 0.3048,-0.708377 0.705555,-0.708377 z"
         id="path27938" />
      <path
         d="m 14.65905,33.887733 h 0.386644 v -0.855132 h 0.643467 V 32.66289 h -0.643467 v -0.491066 h 0.674511 V 31.802113 H 14.65905 Z"
         id="path27940" />
      <path
         d="m 16.013715,33.887733 h 0.386644 v -0.855132 h 0.643466 V 32.66289 h -0.643466 v -0.491066 h 0.674511 v -0.369711 h -1.061155 z"
         id="path27942" />
      <path
         d="m 17.249846,34.248978 h 0.265288 l 0.911577,-2.446865 h -0.265288 z"
         id="path27944" />
      <path
         d="m 18.943173,33.887733 h 0.386645 v -1.715909 h 0.386644 v -0.369711 h -1.159933 v 0.369711 h 0.386644 z"
         id="path27946" />
      <path
         d="m 20.848162,31.765424 c -0.620889,0 -1.100666,0.471311 -1.100666,1.08091 0,0.603955 0.485422,1.078088 1.097844,1.078088 0.606777,0 1.075265,-0.47131 1.075265,-1.078088 0,-0.601133 -0.476955,-1.08091 -1.072443,-1.08091 z m -0.0056,0.372533 c 0.386645,0 0.688622,0.310444 0.688622,0.711199 0,0.403578 -0.293511,0.702733 -0.688622,0.702733 -0.39511,0 -0.705555,-0.310444 -0.705555,-0.705555 0,-0.403577 0.3048,-0.708377 0.705555,-0.708377 z"
         id="path27948" />
      <path
         d="m 22.978933,33.185001 h 0.863599 c -0.110066,0.231422 -0.335844,0.366888 -0.612421,0.366888 -0.409222,0 -0.722489,-0.3048 -0.722489,-0.705555 0,-0.180622 0.0762,-0.378177 0.194733,-0.505177 0.121356,-0.129822 0.3048,-0.2032 0.505178,-0.2032 0.242711,0 0.445911,0.09878 0.57291,0.276578 h 0.454378 c -0.135467,-0.375356 -0.564444,-0.649111 -1.018822,-0.649111 -0.612421,0 -1.097843,0.474133 -1.097843,1.075266 0,0.612422 0.493888,1.083732 1.134532,1.083732 0.316089,0 0.5842,-0.110066 0.790222,-0.321733 0.191911,-0.200377 0.299155,-0.460022 0.299155,-0.728133 v -0.0508 h -1.363132 z"
         id="path27950" />
      <path
         d="m 25.349594,33.185001 h 0.863599 c -0.110066,0.231422 -0.335844,0.366888 -0.612422,0.366888 -0.409222,0 -0.722488,-0.3048 -0.722488,-0.705555 0,-0.180622 0.0762,-0.378177 0.194733,-0.505177 0.121356,-0.129822 0.3048,-0.2032 0.505178,-0.2032 0.24271,0 0.44591,0.09878 0.57291,0.276578 h 0.454378 c -0.135467,-0.375356 -0.564444,-0.649111 -1.018822,-0.649111 -0.612422,0 -1.097843,0.474133 -1.097843,1.075266 0,0.612422 0.493888,1.083732 1.134532,1.083732 0.316089,0 0.5842,-0.110066 0.790222,-0.321733 0.191911,-0.200377 0.299155,-0.460022 0.299155,-0.728133 v -0.0508 h -1.363132 z"
         id="path27952" />
      <path
         d="m 26.96672,33.887733 h 1.024466 v -0.36971 h -0.637822 v -1.71591 H 26.96672 Z"
         id="path27954" />
      <path
         d="m 28.208493,33.887733 h 1.120422 v -0.36971 H 28.595138 V 33.032601 H 29.29787 V 32.66289 h -0.702732 v -0.491066 h 0.733777 v -0.369711 h -1.120422 z"
         id="path27956" />
      <path
         d="m 29.687333,33.887733 h 0.375355 v -0.361244 h -0.375355 z m 0,-1.041399 h 0.375355 v -0.375355 h -0.375355 z"
         id="path27958" />
    </g>
    <g
       aria-label="STEP(IN/OUT)/GATE:"
       id="text29125"
       style="font-weight:600;font-size:2.82222px;line-height:1.25;font-family:'URW Gothic';-inkscape-font-specification:'URW Gothic, Semi-Bold';fill:#ffffff;stroke-width:0.264583">
      <path
         d="m 4.4769357,46.613084 c 0.014111,0.163689 0.0508,0.268111 0.1354666,0.381 0.1241777,0.158044 0.3273775,0.251177 0.5503329,0.251177 0.3753553,0 0.666044,-0.290688 0.666044,-0.668866 0,-0.174978 -0.062089,-0.321733 -0.1862666,-0.434622 -0.081844,-0.0762 -0.1467554,-0.110066 -0.3527775,-0.189089 -0.1975554,-0.07338 -0.2031998,-0.0762 -0.231422,-0.09313 -0.0762,-0.04798 -0.115711,-0.112889 -0.115711,-0.189089 0,-0.124177 0.087489,-0.211666 0.2144887,-0.211666 0.1298221,0 0.2088443,0.07902 0.2201331,0.220133 H 5.7779792 C 5.7695125,45.520885 5.7328237,45.41364 5.6481571,45.309218 5.5352683,45.168107 5.3546462,45.086263 5.159913,45.086263 c -0.3386664,0 -0.6067773,0.262466 -0.6067773,0.592666 0,0.262467 0.1523999,0.462844 0.4346219,0.567266 0.2793998,0.104422 0.2991553,0.112889 0.3612441,0.160867 0.062089,0.0508 0.095956,0.124178 0.095956,0.211666 0,0.149578 -0.115711,0.254 -0.282222,0.254 -0.1721554,0 -0.2652887,-0.08467 -0.282222,-0.259644 z"
         id="path69668" />
      <path
         d="M 6.3198367,47.208572 H 6.7064809 V 45.492663 H 7.093125 V 45.122952 H 5.9331925 v 0.369711 h 0.3866442 z"
         id="path69670" />
      <path
         d="m 7.2906754,47.208572 h 1.1204214 v -0.36971 H 7.6773195 V 46.35344 H 8.3800523 V 45.983729 H 7.6773195 V 45.492663 H 8.4110968 V 45.122952 H 7.2906754 Z"
         id="path69672" />
      <path
         d="m 8.7582257,47.208572 h 0.3866441 v -0.793043 h 0.1241777 c 0.2963331,0 0.4317997,-0.02258 0.5475107,-0.09313 0.1693332,-0.107244 0.2737558,-0.316088 0.2737558,-0.555977 0,-0.239889 -0.1016004,-0.437444 -0.2822225,-0.547511 -0.1185332,-0.07055 -0.2596442,-0.09596 -0.5333996,-0.09596 H 8.7582257 Z m 0.3866441,-1.162754 v -0.553155 h 0.1298221 c 0.1269999,0 0.1862666,0.0056 0.2455332,0.01975 0.1128888,0.03105 0.1806221,0.129822 0.1806221,0.259644 0,0.1016 -0.045155,0.180622 -0.1269999,0.225778 -0.059267,0.03104 -0.1636888,0.04798 -0.3160887,0.04798 z"
         id="path69674" />
      <path
         d="M 11.131711,47.185995 C 10.900289,47.036417 10.7366,46.692106 10.7366,46.359084 c 0,-0.338666 0.138289,-0.632177 0.395111,-0.829733 v -0.406399 c -0.149578,0.06209 -0.231422,0.112889 -0.341489,0.211666 -0.270933,0.242711 -0.434622,0.626533 -0.434622,1.027288 0,0.352778 0.132645,0.697089 0.361245,0.953911 0.135466,0.146755 0.242711,0.220133 0.414866,0.2794 z"
         id="path69676" />
      <path
         d="m 11.411109,47.208572 h 0.386644 v -2.08562 h -0.386644 z"
         id="path69678" />
      <path
         d="m 12.201327,47.208572 h 0.386644 V 45.69304 l 0.872066,1.515532 h 0.431799 v -2.08562 h -0.386644 v 1.518354 l -0.863599,-1.518354 h -0.440266 z"
         id="path69680" />
      <path
         d="m 14.171236,47.569817 h 0.265289 l 0.911577,-2.446865 h -0.265289 z"
         id="path69682" />
      <path
         d="m 16.58141,45.086263 c -0.620889,0 -1.100666,0.471311 -1.100666,1.08091 0,0.603955 0.485422,1.078088 1.097843,1.078088 0.606778,0 1.075266,-0.471311 1.075266,-1.078088 0,-0.601133 -0.476955,-1.08091 -1.072443,-1.08091 z m -0.0056,0.372533 c 0.386644,0 0.688622,0.310444 0.688622,0.711199 0,0.403578 -0.293511,0.702733 -0.688622,0.702733 -0.395111,0 -0.705555,-0.310444 -0.705555,-0.705555 0,-0.403577 0.3048,-0.708377 0.705555,-0.708377 z"
         id="path69684" />
      <path
         d="m 17.958648,45.122952 v 1.320799 c 0,0.222955 0.03387,0.366888 0.112889,0.491066 0.121355,0.191911 0.347133,0.310444 0.589844,0.310444 0.2286,0 0.440266,-0.1016 0.564444,-0.268111 0.09878,-0.135466 0.141111,-0.290688 0.141111,-0.533399 v -1.320799 h -0.386644 v 1.320799 c 0,0.155222 -0.01129,0.220133 -0.0508,0.287866 -0.05362,0.08749 -0.1524,0.141111 -0.268111,0.141111 -0.112889,0 -0.211667,-0.05362 -0.265289,-0.141111 -0.03951,-0.06773 -0.0508,-0.132644 -0.0508,-0.287866 v -1.320799 z"
         id="path69686" />
      <path
         d="m 19.965241,47.208572 h 0.386645 v -1.715909 h 0.386644 v -0.369711 h -1.159933 v 0.369711 h 0.386644 z"
         id="path69688" />
      <path
         d="m 20.921966,45.532174 c 0.231422,0.149577 0.395111,0.493888 0.395111,0.824088 0,0.341489 -0.138289,0.634999 -0.395111,0.832555 v 0.4064 c 0.149578,-0.06209 0.234244,-0.115711 0.341489,-0.211667 0.270933,-0.242711 0.434622,-0.629355 0.434622,-1.027288 0,-0.352778 -0.132645,-0.697088 -0.361245,-0.95391 -0.135466,-0.146756 -0.24271,-0.220134 -0.414866,-0.2794 z"
         id="path69690" />
      <path
         d="m 21.963363,47.569817 h 0.265288 l 0.911578,-2.446865 H 22.87494 Z"
         id="path69692" />
      <path
         d="m 24.133647,46.50584 h 0.863599 c -0.110067,0.231422 -0.335844,0.366888 -0.612422,0.366888 -0.409222,0 -0.722488,-0.3048 -0.722488,-0.705555 0,-0.180622 0.0762,-0.378177 0.194733,-0.505177 0.121355,-0.129822 0.3048,-0.2032 0.505177,-0.2032 0.242711,0 0.445911,0.09878 0.572911,0.276578 h 0.454378 c -0.135467,-0.375356 -0.564444,-0.649111 -1.018822,-0.649111 -0.612422,0 -1.097844,0.474133 -1.097844,1.075266 0,0.612421 0.493889,1.083732 1.134533,1.083732 0.316089,0 0.584199,-0.110066 0.790222,-0.321733 0.191911,-0.200377 0.299155,-0.460022 0.299155,-0.728133 v -0.0508 h -1.363132 z"
         id="path69694" />
      <path
         d="m 25.474196,47.208572 h 0.426155 l 0.231422,-0.539044 h 0.742244 l 0.222955,0.539044 h 0.426155 l -0.874888,-2.08562 h -0.3048 z m 0.798688,-0.908754 0.222955,-0.632178 0.222956,0.632178 z"
         id="path69696" />
      <path
         d="m 27.833569,47.208572 h 0.386644 v -1.715909 h 0.386644 v -0.369711 h -1.159933 v 0.369711 h 0.386645 z"
         id="path69698" />
      <path
         d="m 28.804407,47.208572 h 1.120422 v -0.36971 H 29.191051 V 46.35344 h 0.702733 v -0.369711 h -0.702733 v -0.491066 h 0.733778 v -0.369711 h -1.120422 z"
         id="path69700" />
      <path
         d="m 30.283247,47.208572 h 0.375355 v -0.361244 h -0.375355 z m 0,-1.041399 h 0.375355 v -0.375355 h -0.375355 z"
         id="path69702" />
    </g>
    <g
       aria-label="CLOCK/GATE/PLAIN:"
       id="text42375"
       style="font-weight:600;font-size:2.82222px;line-height:1.25;font-family:'URW Gothic';-inkscape-font-specification:'URW Gothic, Semi-Bold';fill:#ffffff;stroke-width:0.264583">
      <path
         d="m 6.1500345,17.859483 c -0.1721555,0.1778 -0.3160887,0.245534 -0.5164663,0.245534 -0.3866442,0 -0.6999106,-0.321734 -0.6999106,-0.7112 0,-0.169333 0.064911,-0.349955 0.1721554,-0.474133 0.1269999,-0.149578 0.307622,-0.2286 0.5192885,-0.2286 0.242711,0 0.4063997,0.07902 0.5475107,0.262467 H 6.6044119 C 6.5225675,16.772929 6.4491898,16.674151 6.3080788,16.55844 6.1161678,16.403218 5.8706347,16.318551 5.6166349,16.318551 c -0.589844,0 -1.0724437,0.4826 -1.0724437,1.072444 0,0.603955 0.4882441,1.086555 1.0978436,1.086555 0.4289775,0 0.7986883,-0.237067 0.9623771,-0.618067 z"
         id="path69597" />
      <path
         d="M 6.8527639,18.440861 H 7.8772298 V 18.07115 H 7.239408 V 16.35524 H 6.8527639 Z"
         id="path69599" />
      <path
         d="m 9.0173985,16.318551 c -0.6208884,0 -1.1006658,0.471311 -1.1006658,1.080911 0,0.603955 0.4854218,1.078088 1.0978436,1.078088 0.6067773,0 1.0752657,-0.471311 1.0752657,-1.078088 0,-0.601133 -0.4769551,-1.080911 -1.0724435,-1.080911 z m -0.00564,0.372533 c 0.3866441,0 0.6886217,0.310445 0.6886217,0.7112 0,0.403577 -0.2935109,0.702733 -0.6886217,0.702733 -0.3951109,0 -0.7055551,-0.310445 -0.7055551,-0.705555 0,-0.403578 0.3047998,-0.708378 0.7055551,-0.708378 z"
         id="path69601" />
      <path
         d="m 11.893236,17.859483 c -0.172156,0.1778 -0.316089,0.245534 -0.516467,0.245534 -0.386644,0 -0.69991,-0.321734 -0.69991,-0.7112 0,-0.169333 0.06491,-0.349955 0.172155,-0.474133 0.127,-0.149578 0.307622,-0.2286 0.519289,-0.2286 0.242711,0 0.406399,0.07902 0.54751,0.262467 h 0.4318 c -0.08184,-0.180622 -0.155222,-0.2794 -0.296333,-0.395111 -0.191911,-0.155222 -0.437444,-0.239889 -0.691444,-0.239889 -0.589844,0 -1.072444,0.4826 -1.072444,1.072444 0,0.603955 0.488245,1.086555 1.097844,1.086555 0.428978,0 0.798688,-0.237067 0.962377,-0.618067 z"
         id="path69603" />
      <path
         d="m 12.607253,18.440861 h 0.386644 v -0.917222 l 0.646288,0.917222 h 0.465667 l -0.784577,-1.061155 0.784577,-1.024466 h -0.465667 l -0.646288,0.900288 V 16.35524 h -0.386644 z"
         id="path69605" />
      <path
         d="m 14.238494,18.802105 h 0.265288 l 0.911577,-2.446865 h -0.265288 z"
         id="path69607" />
      <path
         d="m 16.408777,17.738128 h 0.8636 c -0.110067,0.231422 -0.335845,0.366889 -0.612422,0.366889 -0.409222,0 -0.722488,-0.3048 -0.722488,-0.705555 0,-0.180623 0.0762,-0.378178 0.194733,-0.505178 0.121355,-0.129822 0.3048,-0.2032 0.505177,-0.2032 0.242711,0 0.445911,0.09878 0.572911,0.276578 h 0.454377 c -0.135466,-0.375355 -0.564444,-0.649111 -1.018821,-0.649111 -0.612422,0 -1.097844,0.474133 -1.097844,1.075266 0,0.612422 0.493889,1.083733 1.134533,1.083733 0.316088,0 0.584199,-0.110067 0.790221,-0.321733 0.191911,-0.200378 0.299156,-0.460022 0.299156,-0.728133 v -0.0508 h -1.363133 z"
         id="path69609" />
      <path
         d="m 17.749325,18.440861 h 0.426156 l 0.231422,-0.539044 h 0.742244 l 0.222955,0.539044 h 0.426155 L 18.923369,16.35524 h -0.3048 z m 0.798689,-0.908755 0.222955,-0.632177 0.222956,0.632177 z"
         id="path69611" />
      <path
         d="m 20.108699,18.440861 h 0.386644 v -1.71591 h 0.386645 V 16.35524 h -1.159933 v 0.369711 h 0.386644 z"
         id="path69613" />
      <path
         d="m 21.079538,18.440861 h 1.120421 V 18.07115 h -0.733777 v -0.485422 h 0.702733 v -0.369711 h -0.702733 v -0.491066 h 0.733777 V 16.35524 h -1.120421 z"
         id="path69615" />
      <path
         d="m 22.428555,18.802105 h 0.265289 l 0.911577,-2.446865 h -0.265289 z"
         id="path69617" />
      <path
         d="m 23.845308,18.440861 h 0.386644 v -0.793044 h 0.124178 c 0.296333,0 0.4318,-0.02258 0.547511,-0.09313 0.169333,-0.107245 0.273755,-0.316089 0.273755,-0.555978 0,-0.239888 -0.1016,-0.437444 -0.282222,-0.54751 -0.118533,-0.07056 -0.259644,-0.09596 -0.5334,-0.09596 h -0.516466 z m 0.386644,-1.162755 v -0.553155 h 0.129822 c 0.127,0 0.186267,0.0056 0.245533,0.01975 0.112889,0.03104 0.180623,0.129823 0.180623,0.259645 0,0.1016 -0.04516,0.180622 -0.127,0.225777 -0.05927,0.03104 -0.163689,0.04798 -0.316089,0.04798 z"
         id="path69619" />
      <path
         d="m 25.417282,18.440861 h 1.024466 V 18.07115 h -0.637822 v -1.71591 h -0.386644 z"
         id="path69621" />
      <path
         d="m 26.557453,18.440861 h 0.426155 l 0.231422,-0.539044 h 0.742244 l 0.222955,0.539044 h 0.426156 L 27.731496,16.35524 h -0.304799 z m 0.798688,-0.908755 0.222956,-0.632177 0.222955,0.632177 z"
         id="path69623" />
      <path
         d="m 28.818052,18.440861 h 0.386644 V 16.35524 h -0.386644 z"
         id="path69625" />
      <path
         d="m 29.60827,18.440861 h 0.386645 v -1.515532 l 0.872066,1.515532 H 31.29878 V 16.35524 h -0.386644 v 1.518355 L 30.048537,16.35524 H 29.60827 Z"
         id="path69627" />
      <path
         d="m 31.708001,18.440861 h 0.375355 v -0.361244 h -0.375355 z m 0,-1.041399 h 0.375355 v -0.375356 h -0.375355 z"
         id="path69629" />
    </g>
    <g
       aria-label="E.O.B.:"
       transform="translate(1.5875,-0.52916667)"
       id="text49567"
       style="font-weight:600;font-size:2.82222px;line-height:1.25;font-family:'URW Gothic';-inkscape-font-specification:'URW Gothic, Semi-Bold';white-space:pre;fill:#ffffff;stroke-width:0.264583">
      <path
         d="m 12.375765,62.800938 h 1.120421 v -0.369711 h -0.733777 v -0.485422 h 0.702733 v -0.369711 h -0.702733 v -0.491066 h 0.733777 v -0.369711 h -1.120421 z"
         id="path69723" />
      <path
         d="M 13.854604,62.800938 H 14.22996 V 62.439693 H 13.854604 Z"
         id="path69725" />
      <path
         d="m 15.626955,60.678628 c -0.620888,0 -1.100666,0.471311 -1.100666,1.08091 0,0.603956 0.485422,1.078089 1.097844,1.078089 0.606777,0 1.075266,-0.471311 1.075266,-1.078089 0,-0.601132 -0.476955,-1.08091 -1.072444,-1.08091 z m -0.0056,0.372533 c 0.386644,0 0.688621,0.310444 0.688621,0.7112 0,0.403577 -0.29351,0.702732 -0.688621,0.702732 -0.395111,0 -0.705555,-0.310444 -0.705555,-0.705555 0,-0.403577 0.304799,-0.708377 0.705555,-0.708377 z"
         id="path69727" />
      <path
         d="m 16.947749,62.800938 h 0.375355 v -0.361245 h -0.375355 z"
         id="path69729" />
      <path
         d="m 17.726678,62.800938 h 0.555977 c 0.231423,0 0.400756,-0.03669 0.527756,-0.115711 0.172155,-0.104423 0.270933,-0.290689 0.270933,-0.505178 0,-0.132644 -0.03669,-0.256822 -0.1016,-0.341488 -0.05927,-0.07902 -0.118533,-0.118534 -0.254,-0.174978 0.169333,-0.08749 0.231422,-0.194733 0.231422,-0.392289 0,-0.194733 -0.08467,-0.358422 -0.237066,-0.454377 -0.124178,-0.07902 -0.254,-0.1016 -0.564444,-0.1016 h -0.428978 z m 0.386644,-0.369711 v -0.5334 h 0.183445 c 0.26811,0 0.39511,0.08749 0.39511,0.270933 0,0.183445 -0.115711,0.262467 -0.386644,0.262467 z m 0,-0.911577 v -0.426156 h 0.158045 c 0.203199,0 0.299155,0.06773 0.299155,0.211667 0,0.149578 -0.09878,0.214489 -0.333022,0.214489 z"
         id="path69731" />
      <path
         d="m 19.374854,62.800938 h 0.375355 v -0.361245 h -0.375355 z"
         id="path69733" />
      <path
         d="m 20.165072,62.800938 h 0.375356 v -0.361245 h -0.375356 z m 0,-1.0414 h 0.375356 v -0.375355 h -0.375356 z"
         id="path69735" />
    </g>
    <g
       aria-label="STEPS   MULTI"
       id="text57949"
       style="font-weight:600;font-size:2.82222px;line-height:1.25;font-family:'URW Gothic';-inkscape-font-specification:'URW Gothic, Semi-Bold';fill:#ffffff;stroke-width:0.264583"
       transform="translate(-0.52916667)">
      <path
         d="m 9.7481807,98.265657 c 0.014111,0.163688 0.0508,0.26811 0.1354666,0.380999 0.1241777,0.158045 0.3273777,0.251178 0.5503327,0.251178 0.375355,0 0.666044,-0.290689 0.666044,-0.668866 0,-0.174978 -0.06209,-0.321733 -0.186266,-0.434622 -0.08184,-0.0762 -0.146756,-0.110067 -0.352778,-0.189089 -0.197555,-0.07338 -0.2032,-0.0762 -0.231422,-0.09313 -0.0762,-0.04798 -0.115711,-0.112889 -0.115711,-0.189089 0,-0.124178 0.08749,-0.211666 0.214489,-0.211666 0.129822,0 0.208844,0.07902 0.220133,0.220133 h 0.400755 c -0.0085,-0.158045 -0.04516,-0.265289 -0.129822,-0.369711 -0.112889,-0.141111 -0.293511,-0.222955 -0.488244,-0.222955 -0.338666,0 -0.6067773,0.262466 -0.6067773,0.592666 0,0.262466 0.1523999,0.462844 0.4346223,0.567266 0.279399,0.104422 0.299155,0.112889 0.361244,0.160867 0.06209,0.0508 0.09595,0.124177 0.09595,0.211666 0,0.149578 -0.115711,0.254 -0.282222,0.254 -0.172155,0 -0.265288,-0.08467 -0.282222,-0.259644 z"
         id="path69756" />
      <path
         d="m 11.591082,98.861145 h 0.386644 v -1.71591 h 0.386644 v -0.369711 h -1.159932 v 0.369711 h 0.386644 z"
         id="path69758" />
      <path
         d="m 12.56192,98.861145 h 1.120422 v -0.369711 h -0.733777 v -0.485422 h 0.702732 v -0.36971 h -0.702732 v -0.491067 h 0.733777 V 96.775524 H 12.56192 Z"
         id="path69760" />
      <path
         d="m 14.029471,98.861145 h 0.386644 v -0.793044 h 0.124178 c 0.296333,0 0.431799,-0.02258 0.54751,-0.09313 0.169333,-0.107244 0.273756,-0.316089 0.273756,-0.555977 0,-0.239889 -0.1016,-0.437445 -0.282222,-0.547511 -0.118534,-0.07056 -0.259645,-0.09596 -0.5334,-0.09596 h -0.516466 z m 0.386644,-1.162755 v -0.553155 h 0.129822 c 0.127,0 0.186266,0.0056 0.245533,0.01976 0.112889,0.03104 0.180622,0.129822 0.180622,0.259644 0,0.1016 -0.04515,0.180622 -0.127,0.225778 -0.05927,0.03104 -0.163688,0.04798 -0.316088,0.04798 z"
         id="path69762" />
      <path
         d="m 15.4688,98.265657 c 0.01411,0.163688 0.0508,0.26811 0.135467,0.380999 0.124178,0.158045 0.327378,0.251178 0.550333,0.251178 0.375355,0 0.666044,-0.290689 0.666044,-0.668866 0,-0.174978 -0.06209,-0.321733 -0.186267,-0.434622 -0.08184,-0.0762 -0.146755,-0.110067 -0.352777,-0.189089 -0.197556,-0.07338 -0.2032,-0.0762 -0.231422,-0.09313 -0.0762,-0.04798 -0.115711,-0.112889 -0.115711,-0.189089 0,-0.124178 0.08749,-0.211666 0.214488,-0.211666 0.129823,0 0.208845,0.07902 0.220134,0.220133 h 0.400755 c -0.0085,-0.158045 -0.04516,-0.265289 -0.129822,-0.369711 -0.112889,-0.141111 -0.293511,-0.222955 -0.488244,-0.222955 -0.338667,0 -0.606778,0.262466 -0.606778,0.592666 0,0.262466 0.1524,0.462844 0.434622,0.567266 0.2794,0.104422 0.299156,0.112889 0.361244,0.160867 0.06209,0.0508 0.09596,0.124177 0.09596,0.211666 0,0.149578 -0.115711,0.254 -0.282222,0.254 -0.172156,0 -0.265289,-0.08467 -0.282222,-0.259644 z"
         id="path69764" />
      <path
         d="m 19.459405,98.861145 h 0.386644 v -1.56351 l 0.544689,1.56351 h 0.316088 l 0.544689,-1.56351 v 1.56351 h 0.386644 v -2.085621 h -0.530577 l -0.555978,1.580444 -0.561621,-1.580444 h -0.530578 z"
         id="path69766" />
      <path
         d="m 21.999402,96.775524 v 1.320799 c 0,0.222956 0.03387,0.366889 0.112889,0.491067 0.121356,0.191911 0.347133,0.310444 0.589844,0.310444 0.2286,0 0.440266,-0.1016 0.564444,-0.268111 0.09878,-0.135467 0.141111,-0.290689 0.141111,-0.5334 v -1.320799 h -0.386644 v 1.320799 c 0,0.155222 -0.01129,0.220134 -0.0508,0.287867 -0.05362,0.08749 -0.1524,0.141111 -0.268111,0.141111 -0.112889,0 -0.211666,-0.05362 -0.265289,-0.141111 -0.03951,-0.06773 -0.0508,-0.132645 -0.0508,-0.287867 v -1.320799 z"
         id="path69768" />
      <path
         d="m 23.805621,98.861145 h 1.024466 v -0.369711 h -0.637821 v -1.71591 h -0.386645 z"
         id="path69770" />
      <path
         d="m 25.143345,98.861145 h 0.386644 v -1.71591 h 0.386644 v -0.369711 h -1.159932 v 0.369711 h 0.386644 z"
         id="path69772" />
      <path
         d="m 26.114185,98.861145 h 0.386644 v -2.085621 h -0.386644 z"
         id="path69774" />
    </g>
    <g
       aria-label="SOLO/OUT:"
       id="text66851"
       style="font-weight:600;font-size:3.52777px;line-height:1.25;font-family:'URW Gothic';-inkscape-font-specification:'URW Gothic, Semi-Bold';fill:#ffffff;stroke-width:0.264583"
       transform="translate(0,-5.000131)">
      <path
         d="m 8.8315858,107.23564 c 0.017639,0.20461 0.0635,0.33514 0.1693329,0.47625 0.1552219,0.19756 0.4092214,0.31397 0.6879152,0.31397 0.4691931,0 0.8325541,-0.36336 0.8325541,-0.83608 0,-0.21872 -0.07761,-0.40216 -0.232833,-0.54327 -0.102306,-0.0953 -0.183444,-0.13759 -0.4409714,-0.23636 -0.246944,-0.0917 -0.2539995,-0.0953 -0.2892772,-0.11642 -0.09525,-0.06 -0.1446386,-0.14111 -0.1446386,-0.23636 0,-0.15522 0.1093609,-0.26458 0.2681106,-0.26458 0.1622774,0 0.2610549,0.0988 0.275166,0.27516 h 0.5009436 c -0.01058,-0.19755 -0.05645,-0.33161 -0.162278,-0.46214 -0.14111,-0.17638 -0.3668877,-0.27869 -0.6103039,-0.27869 -0.4233324,0 -0.7584705,0.32808 -0.7584705,0.74083 0,0.32808 0.1904996,0.57856 0.5432766,0.70908 0.3492492,0.13053 0.3739436,0.14111 0.4515545,0.20109 0.077611,0.0635 0.1199443,0.15522 0.1199443,0.26458 0,0.18697 -0.1446387,0.3175 -0.3527771,0.3175 -0.215194,0 -0.3316104,-0.10583 -0.352777,-0.32456 z"
         id="path69795" />
      <path
         d="m 12.108873,105.32712 c -0.776109,0 -1.37583,0.58914 -1.37583,1.35114 0,0.75494 0.606776,1.3476 1.372302,1.3476 0.758471,0 1.344081,-0.58913 1.344081,-1.3476 0,-0.75142 -0.596193,-1.35114 -1.340553,-1.35114 z m -0.0071,0.46567 c 0.483304,0 0.860776,0.38805 0.860776,0.88899 0,0.50448 -0.366889,0.87842 -0.860776,0.87842 -0.493888,0 -0.881943,-0.38806 -0.881943,-0.88194 0,-0.50447 0.380999,-0.88547 0.881943,-0.88547 z"
         id="path69797" />
      <path
         d="m 13.830419,107.98 h 1.28058 v -0.46213 h -0.797276 v -2.14489 h -0.483304 z"
         id="path69799" />
      <path
         d="m 16.536208,105.32712 c -0.776109,0 -1.37583,0.58914 -1.37583,1.35114 0,0.75494 0.606776,1.3476 1.372303,1.3476 0.75847,0 1.34408,-0.58913 1.34408,-1.3476 0,-0.75142 -0.596193,-1.35114 -1.340553,-1.35114 z m -0.0071,0.46567 c 0.483304,0 0.860776,0.38805 0.860776,0.88899 0,0.50448 -0.366888,0.87842 -0.860776,0.87842 -0.493888,0 -0.881943,-0.38806 -0.881943,-0.88194 0,-0.50447 0.380999,-0.88547 0.881943,-0.88547 z"
         id="path69801" />
      <path
         d="m 18.109587,108.43156 h 0.331611 l 1.139469,-3.05858 h -0.33161 z"
         id="path69803" />
      <path
         d="m 21.1223,105.32712 c -0.77611,0 -1.37583,0.58914 -1.37583,1.35114 0,0.75494 0.606776,1.3476 1.372302,1.3476 0.758471,0 1.34408,-0.58913 1.34408,-1.3476 0,-0.75142 -0.596193,-1.35114 -1.340552,-1.35114 z m -0.0071,0.46567 c 0.483305,0 0.860776,0.38805 0.860776,0.88899 0,0.50448 -0.366888,0.87842 -0.860776,0.87842 -0.493887,0 -0.881942,-0.38806 -0.881942,-0.88194 0,-0.50447 0.380999,-0.88547 0.881942,-0.88547 z"
         id="path69805" />
      <path
         d="m 22.843846,105.37298 v 1.651 c 0,0.27869 0.04233,0.45861 0.14111,0.61383 0.151694,0.23989 0.433916,0.38805 0.737304,0.38805 0.28575,0 0.550332,-0.127 0.705554,-0.33513 0.123472,-0.16934 0.176389,-0.36336 0.176389,-0.66675 v -1.651 h -0.483305 v 1.651 c 0,0.19403 -0.01411,0.27516 -0.0635,0.35983 -0.06703,0.10936 -0.190499,0.17639 -0.335138,0.17639 -0.141111,0 -0.264582,-0.067 -0.33161,-0.17639 -0.04939,-0.0847 -0.0635,-0.1658 -0.0635,-0.35983 v -1.651 z"
         id="path69807" />
      <path
         d="m 25.352084,107.98 h 0.483304 v -2.14488 h 0.483305 v -0.46214 h -1.449914 v 0.46214 h 0.483305 z"
         id="path69809" />
      <path
         d="m 26.625598,107.98 h 0.469193 v -0.45155 h -0.469193 z m 0,-1.30174 h 0.469193 v -0.4692 h -0.469193 z"
         id="path69811" />
    </g>
    <path
       style="fill:#ffffff;stroke-width:0.0210438"
       d="m 16.042744,121.35382 v -2.3908 h 2.219925 2.219925 v 2.3908 2.3908 h -2.219925 -2.219925 z m 3.87694,1.9953 c 0.19568,-0.0365 0.209352,-0.0421 0.1946,-0.0797 -0.04424,-0.11286 -0.05762,-0.12861 -0.09844,-0.11597 -0.12296,0.038 -0.370726,0.0691 -0.463304,0.0581 -0.276722,-0.0329 -0.50527,-0.36907 -0.68568,-1.00843 -0.0647,-0.22926 -0.117219,-0.64955 -0.09314,-0.74517 0.0162,-0.0643 9.82e-4,-0.0789 -0.17484,-0.16757 l -0.12432,-0.0627 0.1517,-0.12768 c 0.16068,-0.13524 0.319119,-0.32976 0.379395,-0.46578 0.02066,-0.0466 0.03636,-0.1445 0.03636,-0.22671 0,-0.18902 -0.07608,-0.31334 -0.318559,-0.52059 -0.09756,-0.0834 -0.17738,-0.16793 -0.17738,-0.1879 0,-0.0351 -0.03292,-0.0367 -1.03004,-0.0496 -0.566519,-0.007 -1.032699,-0.0108 -1.035951,-0.008 -0.0032,0.003 -0.0116,0.0921 -0.0186,0.19785 l -0.0128,0.1922 h 0.19006 0.19006 l -0.0154,0.85788 c -0.0084,0.47179 -0.022,1.06957 -0.03014,1.32837 l -0.0148,0.47054 0.14876,0.0123 c 0.08182,0.007 0.1513,0.0102 0.15438,0.008 0.003,-0.003 0.0134,-0.33694 0.02302,-0.74298 l 0.0174,-0.73826 0.415892,0.009 c 0.470514,0.0104 0.607534,0.0355 0.87641,0.16033 l 0.1535,0.0713 0.0148,0.2522 c 0.03444,0.58343 0.315619,1.28521 0.607975,1.51734 0.19094,0.1516 0.374584,0.17927 0.738956,0.11135 z m -1.893177,-2.25129 c -0.04546,-0.01 -0.272868,-0.0227 -0.50535,-0.0288 l -0.422692,-0.0111 0.0154,-0.25351 c 0.0084,-0.13943 0.0154,-0.37013 0.0154,-0.51267 v -0.25915 l 0.678966,0.0114 0.678966,0.0114 0.06706,0.0492 c 0.1181,0.0866 0.19104,0.20567 0.19104,0.3118 0,0.17383 -0.221578,0.45931 -0.478194,0.61609 -0.0783,0.0478 -0.14582,0.0861 -0.15006,0.0851 -0.0042,-0.001 -0.0449,-0.01 -0.09036,-0.0197 z m 3.416306,2.19677 c -0.02036,-0.0274 -0.06378,-0.12306 -0.09648,-0.21266 -0.056,-0.15344 -0.06088,-0.20288 -0.08404,-0.85175 -0.03384,-0.94774 -0.08636,-1.48714 -0.237592,-2.4406 -0.03832,-0.24153 -0.06484,-0.44296 -0.05898,-0.44763 0.0156,-0.0124 0.29903,-0.0749 0.54417,-0.12006 0.16756,-0.0309 0.284274,-0.0387 0.551384,-0.037 0.345621,0.002 0.453165,-0.014 0.548189,-0.0823 0.031,-0.0223 0.18146,-0.0313 0.766416,-0.0462 0.400314,-0.0102 0.730961,-0.016 0.734769,-0.013 0.0118,0.009 0.14576,0.62803 0.19566,0.90396 0.15112,0.83527 0.19572,1.62851 0.15192,2.70191 l -0.0154,0.37674 -0.332904,0.0328 c -0.459785,0.0453 -0.652565,0.0783 -0.899209,0.15384 l -0.212062,0.0649 -0.12712,-0.0494 c -0.245324,-0.0954 -0.688449,-0.0747 -1.164165,0.0543 l -0.227578,0.0617 z m 1.674883,-0.51098 c -0.007,-0.0954 -0.0186,-0.27049 -0.02582,-0.3891 -0.0072,-0.1186 -0.0391,-0.38018 -0.0709,-0.58129 -0.1197,-0.75677 -0.13432,-0.98355 -0.0643,-0.99809 0.02288,-0.005 0.23059,-0.0332 0.461586,-0.0631 0.391708,-0.0508 0.419232,-0.057 0.408702,-0.092 -0.0062,-0.0206 -0.02462,-0.10784 -0.0409,-0.1938 l -0.0296,-0.15631 -0.10778,0.0126 c -0.05928,0.007 -0.315014,0.0423 -0.568298,0.0787 -0.524504,0.0753 -0.872627,0.0946 -1.157021,0.0643 -0.10832,-0.0116 -0.201114,-0.0177 -0.206224,-0.0136 -0.0098,0.008 -0.07728,0.37419 -0.06988,0.37958 0.0186,0.0135 0.473686,0.0443 0.655556,0.0443 l 0.226123,6e-5 0.02826,0.30005 c 0.0156,0.16503 0.0545,0.45826 0.08656,0.65161 0.0481,0.29003 0.1036,0.8571 0.10554,1.07818 l 4.46e-4,0.0516 h 0.19036 0.19036 z m -10.933068,0.0539 c -0.34582,-1.79358 -0.415787,-2.34122 -0.416185,-3.25749 l -2.34e-4,-0.53624 0.289297,-0.0499 c 0.598664,-0.10319 1.09689,-0.15536 1.907011,-0.19966 0.389606,-0.0213 1.11968,-0.0533 1.124892,-0.0493 0.0017,0.001 -0.0078,0.17539 -0.02102,0.38681 -0.03826,0.60923 0.003,1.05506 0.217148,2.34186 0.08456,0.50826 0.115659,0.72934 0.154919,1.10097 l 0.014,0.13321 -0.455701,0.0584 c -0.476808,0.0611 -0.796976,0.0907 -1.660129,0.15375 -0.50318,0.0367 -0.89092,0.0778 -1.041056,0.11036 l -0.0728,0.0158 z m 1.700751,-0.30778 c 0.03522,-0.26526 0.03958,-0.8127 0.0084,-1.04463 -0.0126,-0.0928 -0.02994,-0.33542 -0.03874,-0.53911 l -0.016,-0.37034 h 0.238446 0.238446 l 0.0154,0.0813 c 0.02408,0.1275 0.02818,0.12944 0.209036,0.0993 0.08746,-0.0145 0.16556,-0.0316 0.17354,-0.038 0.008,-0.006 -0.0098,-0.10219 -0.03942,-0.21302 -0.02966,-0.11082 -0.05952,-0.27533 -0.06634,-0.36558 l -0.0124,-0.16407 h -0.18568 -0.18566 v 0.0656 0.0656 H 13.338798 12.45319 v 0.23439 0.23439 h 0.448708 0.448708 l 6.26e-4,0.17345 c 5.68e-4,0.16195 0.0156,0.38103 0.06748,0.97976 0.0138,0.15862 0.0122,0.33875 -0.0046,0.51567 -0.014,0.14954 -0.02618,0.3183 -0.02688,0.37503 l -0.0013,0.10313 0.224355,0.0194 c 0.1234,0.0107 0.229212,0.0167 0.23515,0.0133 0.006,-0.003 0.02392,-0.10491 0.03996,-0.22568 z m -3.227478,0.2901 c -0.13658,-0.0436 -0.307748,-0.10583 -0.380386,-0.13838 l -0.13206,-0.0592 -0.1568787,0.0452 -0.15688,0.0452 -0.17766,-0.0834 -0.17766,-0.0834 -0.3542164,0.0256 -0.354216,0.0256 -0.11168,-0.0919 -0.11168,-0.0919 -0.295201,0.0248 c -0.16236,0.0136 -0.299112,0.0225 -0.30389,0.0196 -0.0048,-0.003 0.09062,-0.78191 0.212008,-1.73128 l 0.220697,-1.72612 0.22489,0.0102 c 0.568968,0.0258 0.9294284,0.0571 1.8264611,0.1585 0.530164,0.0599 0.970222,0.11396 0.977908,0.12006 0.0076,0.006 -0.06688,0.59973 -0.16572,1.31917 -0.09882,0.71943 -0.201952,1.48949 -0.229164,1.71122 -0.063,0.51338 -0.07376,0.5815 -0.0917,0.58039 -0.008,-4.6e-4 -0.12642,-0.0365 -0.262986,-0.0801 z m -0.248468,-0.78089 0.1632,-0.13059 -0.04554,-0.0429 c -0.02506,-0.0236 -0.09064,-0.0824 -0.14574,-0.1308 -0.11306,-0.0992 -0.15794,-0.16931 -0.279872,-0.4371 -0.04696,-0.10313 -0.1059587,-0.21587 -0.1310987,-0.25052 -0.02788,-0.0384 -0.0377,-0.0713 -0.02516,-0.0844 0.0114,-0.0118 0.1744387,-0.17326 0.3625147,-0.3589 0.18808,-0.18564 0.349344,-0.34744 0.358356,-0.35957 0.0162,-0.0218 -0.310258,-0.24985 -0.357724,-0.24985 -0.0126,0 -0.14834,0.12415 -0.301583,0.27588 l -0.2786097,0.27589 -0.05456,-0.0931 c -0.05488,-0.0936 -0.06084,-0.20019 -0.0186,-0.33214 0.0126,-0.0392 0.008,-0.0516 -0.019,-0.0516 -0.11036,0 -0.3521307,-0.0836 -0.5127967,-0.17723 -0.09742,-0.0568 -0.19308,-0.10344 -0.2126,-0.10366 -0.03358,-4.6e-4 -0.26086,0.27187 -0.258718,0.30989 10e-4,0.0188 0.286834,0.18249 0.41423,0.23733 0.05932,0.0255 0.07676,0.0471 0.087,0.10777 0.013,0.0767 0.11622,0.26334 0.20281,0.36658 l 0.04718,0.0562 -0.446964,0.43831 c -0.24583,0.24107 -0.446964,0.44093 -0.446964,0.44414 0,0.0135 0.352592,0.23326 0.374262,0.23326 0.013,0 0.17436,-0.14823 0.358452,-0.3294 0.1841,-0.18118 0.3382707,-0.32659 0.3426087,-0.32315 0.0044,0.003 0.04588,0.0896 0.09232,0.19147 0.04644,0.10186 0.11792,0.23167 0.15884,0.28845 0.06852,0.0951 0.3592967,0.36015 0.3950947,0.36015 0.0086,0 0.08892,-0.0588 0.1787,-0.13059 z m 14.58386,-0.97575 v -1.78138 h 1.476015 1.476011 v 1.78138 1.78139 h -1.476011 -1.476015 z m 2.515707,1.42343 c 0.156179,-0.0783 0.168859,-0.09 0.131659,-0.12114 -0.0126,-0.0105 -0.013,-0.16803 -0.0012,-0.38347 0.011,-0.20111 0.02064,-0.7306 0.02126,-1.17665 l 0.0012,-0.811 H 27.48826 27.3146 l -0.0152,0.14346 c -0.0084,0.0789 -0.0152,0.48394 -0.0152,0.90007 0,0.42107 -0.0092,0.75661 -0.02072,0.75661 -0.0114,0 -0.0425,-0.0402 -0.06914,-0.0894 -0.251768,-0.4647 -0.601542,-1.00632 -0.82627,-1.27948 -0.07212,-0.0877 -0.12998,-0.17397 -0.12858,-0.19178 0.0015,-0.0178 -0.0313,-0.0511 -0.0727,-0.0739 -0.04138,-0.0228 -0.14176,-0.0903 -0.223078,-0.14997 -0.158739,-0.11648 -0.266917,-0.15184 -0.531133,-0.17358 l -0.1358,-0.0112 v 0.13846 c 0,0.0761 -0.0064,0.16391 -0.0142,0.19502 -0.0142,0.0562 -0.0134,0.0566 0.11218,0.069 0.06954,0.007 0.1489,0.0212 0.17636,0.032 0.0488,0.0191 0.04912,0.0221 0.0138,0.13336 -0.02964,0.0934 -0.03118,0.13283 -0.0086,0.21966 0.0186,0.0716 0.02752,0.38559 0.02752,0.97192 v 0.86612 h 0.16236 0.162359 l 0.0148,-0.0586 c 0.0082,-0.0322 0.0148,-0.46709 0.0148,-0.96636 0,-0.89133 8.94e-4,-0.9074 0.04562,-0.88836 0.07856,0.0334 0.351666,0.41529 0.603912,0.84449 0.35529,0.60453 0.46839,0.78711 0.606922,0.97976 0.07972,0.11087 0.14872,0.20158 0.1533,0.20158 0.0046,0 0.07718,-0.0345 0.16128,-0.0767 z"
       id="path365" />
  </g>
</svg>
