<?xml version="1.0" encoding="UTF-8" standalone="no"?>
<svg
   xmlns:dc="http://purl.org/dc/elements/1.1/"
   xmlns:cc="http://creativecommons.org/ns#"
   xmlns:rdf="http://www.w3.org/1999/02/22-rdf-syntax-ns#"
   xmlns:svg="http://www.w3.org/2000/svg"
   xmlns="http://www.w3.org/2000/svg"
   xmlns:sodipodi="http://sodipodi.sourceforge.net/DTD/sodipodi-0.dtd"
   xmlns:inkscape="http://www.inkscape.org/namespaces/inkscape"
   width="36mm"
   height="128.5mm"
   viewBox="0 0 36.000004 128.50002"
   version="1.1"
   id="svg8"
   inkscape:version="1.0.2 (e86c870879, 2021-01-15, custom)"
   sodipodi:docname="Splitterburst.svg">
  <defs
     id="defs2" />
  <sodipodi:namedview
     id="base"
     pagecolor="#ffffff"
     bordercolor="#666666"
     borderopacity="1.0"
     inkscape:pageopacity="0.0"
     inkscape:pageshadow="2"
     inkscape:zoom="2.8"
     inkscape:cx="39.773623"
     inkscape:cy="57.016734"
     inkscape:document-units="mm"
     inkscape:current-layer="layer2"
     showgrid="false"
     units="mm"
     inkscape:snap-bbox="true"
     inkscape:snap-page="true"
     inkscape:bbox-nodes="false"
     inkscape:snap-bbox-edge-midpoints="false"
     inkscape:window-width="1366"
     inkscape:window-height="768"
     inkscape:window-x="0"
     inkscape:window-y="0"
     inkscape:window-maximized="0"
     inkscape:snap-bbox-midpoints="true"
     inkscape:snap-nodes="false"
     inkscape:document-rotation="0"
     fit-margin-top="0"
     fit-margin-left="0"
     fit-margin-right="0"
     fit-margin-bottom="0"
     inkscape:lockguides="true"
     showguides="true" />
  <metadata
     id="metadata5">
    <rdf:RDF>
      <cc:Work
         rdf:about="">
        <dc:format>image/svg+xml</dc:format>
        <dc:type
           rdf:resource="http://purl.org/dc/dcmitype/StillImage" />
        <dc:title />
      </cc:Work>
    </rdf:RDF>
  </metadata>
  <g
     inkscape:label="Layer 1"
     inkscape:groupmode="layer"
     id="layer1"
     transform="translate(0,-168.49997)">
    <rect
       style="display:inline;opacity:1;vector-effect:none;fill:#333333;fill-opacity:1;fill-rule:evenodd;stroke:none;stroke-width:0.705712;stroke-linecap:butt;stroke-linejoin:miter;stroke-miterlimit:4;stroke-dasharray:none;stroke-dashoffset:0;stroke-opacity:1;paint-order:normal"
       id="rect420"
       width="36"
       height="128.5"
       x="5.9211732e-17"
       y="168.49997" />
    <g
       aria-label="Pitch"
       style="font-style:normal;font-variant:normal;font-weight:300;font-stretch:normal;font-size:4.93889px;line-height:6.61458px;font-family:'Gotham Rounded';-inkscape-font-specification:'Gotham Rounded Light';font-variant-ligatures:normal;font-variant-caps:normal;font-variant-numeric:normal;font-feature-settings:normal;text-align:center;letter-spacing:0px;word-spacing:0px;writing-mode:lr-tb;text-anchor:middle;display:inline;fill:#000000;fill-opacity:1;stroke:none;stroke-width:0.264583px;stroke-linecap:butt;stroke-linejoin:miter;stroke-opacity:1"
       id="text4944"
       transform="translate(0,10.583334)" />
    <g
       aria-label="XTRTN"
       id="text42"
       style="font-style:normal;font-weight:normal;font-size:10.5833px;line-height:1.25;font-family:sans-serif;fill:#ffffff;fill-opacity:1;stroke:none;stroke-width:0.264583"
       transform="matrix(0.60421854,0,0,0.81690003,8.1240197,29.809158)">
      <path
         d="m 7.2837105,177.12181 h 1.4746121 l -1.8132789,-2.58939 1.6157232,-2.30717 H 7.1284882 l -0.8184449,1.3335 -0.818445,-1.3335 H 4.0452085 l 1.6086677,2.34245 -1.7215567,2.55411 h 1.4181676 l 0.9313339,-1.60867 z"
         style="font-style:normal;font-variant:normal;font-weight:800;font-stretch:normal;font-size:7.05556px;font-family:Cantarell;-inkscape-font-specification:'Cantarell, Ultra-Bold';font-variant-ligatures:normal;font-variant-caps:normal;font-variant-numeric:normal;font-variant-east-asian:normal;fill:#ffffff;stroke-width:0.264583"
         id="path55" />
      <path
         d="m 10.204702,177.12181 h 1.199445 v -3.82411 h 1.524001 v -1.07245 H 8.6948123 v 1.07245 h 1.5098897 z"
         style="font-style:normal;font-variant:normal;font-weight:800;font-stretch:normal;font-size:7.05556px;font-family:Cantarell;-inkscape-font-specification:'Cantarell, Ultra-Bold';font-variant-ligatures:normal;font-variant-caps:normal;font-variant-numeric:normal;font-variant-east-asian:normal;fill:#ffffff;stroke-width:0.264583"
         id="path57" />
      <path
         d="m 13.478471,177.12181 h 1.220612 v -1.67217 h 0.543278 l 0.952501,1.67217 h 1.467556 l -1.220612,-1.92617 c 0.550334,-0.29633 0.881945,-0.8255 0.881945,-1.48872 0,-0.94545 -0.677334,-1.48167 -1.82739,-1.48167 h -2.01789 z m 1.220612,-2.70933 v -1.12184 h 0.627945 c 0.458611,0 0.726722,0.21872 0.726722,0.58561 0,0.33161 -0.197555,0.53623 -0.557389,0.53623 z"
         style="font-style:normal;font-variant:normal;font-weight:800;font-stretch:normal;font-size:7.05556px;font-family:Cantarell;-inkscape-font-specification:'Cantarell, Ultra-Bold';font-variant-ligatures:normal;font-variant-caps:normal;font-variant-numeric:normal;font-variant-east-asian:normal;fill:#ffffff;stroke-width:0.264583"
         id="path59" />
      <path
         d="m 19.271083,177.12181 h 1.199445 v -3.82411 h 1.524001 v -1.07245 h -4.233336 v 1.07245 h 1.50989 z"
         style="font-style:normal;font-variant:normal;font-weight:800;font-stretch:normal;font-size:7.05556px;font-family:Cantarell;-inkscape-font-specification:'Cantarell, Ultra-Bold';font-variant-ligatures:normal;font-variant-caps:normal;font-variant-numeric:normal;font-variant-east-asian:normal;fill:#ffffff;stroke-width:0.264583"
         id="path61" />
      <path
         d="m 22.544852,177.12181 h 1.157112 v -3.21733 l 2.032002,3.21733 h 1.368778 v -4.89656 h -1.171223 l -0.01411,3.18912 -1.975557,-3.18912 h -1.397001 z"
         style="font-style:normal;font-variant:normal;font-weight:800;font-stretch:normal;font-size:7.05556px;font-family:Cantarell;-inkscape-font-specification:'Cantarell, Ultra-Bold';font-variant-ligatures:normal;font-variant-caps:normal;font-variant-numeric:normal;font-variant-east-asian:normal;fill:#ffffff;stroke-width:0.264583"
         id="path63" />
    </g>
    <text
       xml:space="preserve"
       style="font-style:normal;font-weight:normal;font-size:10.5833px;line-height:1.25;font-family:sans-serif;fill:#000000;fill-opacity:1;stroke:none;stroke-width:0.264583"
       x="10.375626"
       y="254.64096"
       id="text72"><tspan
         sodipodi:role="line"
         id="tspan70"
         x="10.375626"
         y="254.64096"
         style="stroke-width:0.264583" /></text>
  </g>
  <g
     inkscape:groupmode="layer"
     id="layer2"
     inkscape:label="components"
     transform="translate(0,1.1035156e-5)">
    <text
       xml:space="preserve"
       style="font-style:normal;font-weight:normal;font-size:10.5833px;line-height:1.25;font-family:sans-serif;fill:#000000;fill-opacity:1;stroke:none;stroke-width:0.264583"
       x="-65.249954"
       y="111.72212"
       id="text144"><tspan
         sodipodi:role="line"
         id="tspan142"
         x="-65.249954"
         y="111.72212"
         style="stroke-width:0.264583" /></text>
    <path
       style="fill:#e5ffd5;stroke:#fffff2;stroke-width:0.989353px;stroke-linecap:butt;stroke-linejoin:miter;stroke-opacity:1"
       d="M 24.005261,100.99986 23.994676,90.000121"
       id="path1029-5" />
    <text
       xml:space="preserve"
       style="font-size:3.52777px;line-height:1.25;font-family:sans-serif;stroke-width:0.264583"
       x="17.94903"
       y="75.780609"
       id="text1055"><tspan
         sodipodi:role="line"
         id="tspan1053"
         x="17.94903"
         y="75.780609"
         style="stroke-width:0.264583" /></text>
    <path
       style="fill:#e5ffd5;stroke:#fffff2;stroke-width:0.989363px;stroke-linecap:butt;stroke-linejoin:miter;stroke-opacity:1"
       d="M 12.005231,100.99976 11.994681,90.000214"
       id="path1029-5-5" />
    <path
       id="rect179-7-2"
       style="fill:#000000;stroke-width:0.270284"
       d="m 6,109.99999 h 24 v 12 H 6 Z" />
    <text
       xml:space="preserve"
       style="font-size:3.52777px;line-height:1.25;font-family:sans-serif;stroke-width:0.264583"
       x="5.6367397"
       y="125.28948"
       id="text1388"><tspan
         sodipodi:role="line"
         id="tspan1386"
         x="5.6367397"
         y="125.28948"
         style="stroke-width:0.264583" /></text>
    <g
       aria-label="splitterburst"
       id="text93"
       style="font-size:3.52777px;line-height:1.25;font-family:sans-serif;fill:#008080;stroke-width:0.264583"
       transform="matrix(0.93915206,0,0,1.171618,-4.7068045,-3.1385603)">
      <path
         d="M 14.368827,9.461333 V 9.7610557 Q 14.234468,9.6921537 14.089775,9.657703 13.945081,9.623252 13.790052,9.623252 q -0.235988,0 -0.354844,0.072347 -0.117133,0.072347 -0.117133,0.2170406 0,0.1102424 0.08441,0.1739764 0.0844,0.06201 0.339341,0.118856 l 0.10852,0.02412 q 0.337619,0.07235 0.478867,0.204982 0.142971,0.130914 0.142971,0.366902 0,0.268717 -0.213595,0.425469 -0.211873,0.156751 -0.583942,0.156751 -0.155029,0 -0.323839,-0.03101 -0.167086,-0.02928 -0.353121,-0.08957 v -0.327283 q 0.175699,0.0913 0.346231,0.137803 0.170532,0.04479 0.337619,0.04479 0.223931,0 0.344509,-0.07579 0.120578,-0.07751 0.120578,-0.21704 0,-0.129191 -0.08785,-0.198093 -0.08613,-0.0689 -0.380682,-0.132636 l -0.110243,-0.02584 q -0.294555,-0.06201 -0.425468,-0.18948 -0.130914,-0.12919 -0.130914,-0.3531211 0,-0.2721619 0.192925,-0.4203007 0.192925,-0.1481388 0.547769,-0.1481388 0.1757,0 0.330729,0.025838 0.155028,0.025838 0.285942,0.077514 z"
         style="fill:#008080;stroke-width:0.264583"
         id="path180" />
      <path
         d="m 15.283498,11.044351 v 1.023191 H 14.964827 V 9.4044891 h 0.318671 v 0.2928325 q 0.09991,-0.1722544 0.251491,-0.2549365 0.153306,-0.084405 0.365179,-0.084405 0.351399,0 0.570162,0.2790521 0.220486,0.2790521 0.220486,0.7338038 0,0.454752 -0.220486,0.733804 -0.218763,0.279052 -0.570162,0.279052 -0.211873,0 -0.365179,-0.08268 -0.151584,-0.08441 -0.251491,-0.256659 z m 1.078312,-0.673515 q 0,-0.349676 -0.144694,-0.5477687 -0.142971,-0.1998151 -0.394462,-0.1998151 -0.251491,0 -0.396185,0.1998151 -0.142971,0.1980927 -0.142971,0.5477687 0,0.349677 0.142971,0.549492 0.144694,0.198092 0.396185,0.198092 0.251491,0 0.394462,-0.198092 0.144694,-0.199815 0.144694,-0.549492 z"
         style="fill:#008080;stroke-width:0.264583"
         id="path182" />
      <path
         d="M 17.216192,8.6534599 H 17.53314 V 11.333738 H 17.216192 Z"
         style="fill:#008080;stroke-width:0.264583"
         id="path184" />
      <path
         d="m 18.19632,9.4044891 h 0.316948 V 11.333738 H 18.19632 Z m 0,-0.7510292 h 0.316948 V 9.0548127 H 18.19632 Z"
         style="fill:#008080;stroke-width:0.264583"
         id="path186" />
      <path
         d="m 19.48995,8.8567201 v 0.547769 h 0.652844 V 9.6508129 H 19.48995 V 10.69812 q 0,0.235988 0.06373,0.303167 0.06546,0.06718 0.263549,0.06718 h 0.325561 v 0.265271 h -0.325561 q -0.366901,0 -0.506428,-0.136081 -0.139526,-0.137803 -0.139526,-0.499537 V 9.6508129 H 18.938736 V 9.4044891 h 0.232543 v -0.547769 z"
         style="fill:#008080;stroke-width:0.264583"
         id="path188" />
      <path
         d="m 20.873153,8.8567201 v 0.547769 h 0.652844 V 9.6508129 H 20.873153 V 10.69812 q 0,0.235988 0.06373,0.303167 0.06546,0.06718 0.263549,0.06718 h 0.325561 v 0.265271 h -0.325561 q -0.366902,0 -0.506428,-0.136081 -0.139526,-0.137803 -0.139526,-0.499537 V 9.6508129 H 20.321939 V 9.4044891 h 0.232543 v -0.547769 z"
         style="fill:#008080;stroke-width:0.264583"
         id="path190" />
      <path
         d="m 23.59305,10.289877 v 0.155029 h -1.457272 q 0.02067,0.327283 0.19637,0.499537 0.177422,0.170532 0.492648,0.170532 0.182589,0 0.353121,-0.04479 0.172255,-0.04479 0.341064,-0.134358 v 0.299722 q -0.170532,0.07235 -0.349677,0.110243 -0.179144,0.0379 -0.363456,0.0379 -0.461642,0 -0.732082,-0.268717 -0.268716,-0.268717 -0.268716,-0.726913 0,-0.4736999 0.254936,-0.7510295 0.256659,-0.2790521 0.69074,-0.2790521 0.389295,0 0.614948,0.2514914 0.227376,0.2497689 0.227376,0.6804052 z m -0.316948,-0.09302 q -0.0034,-0.2601038 -0.146416,-0.4151328 -0.141249,-0.1550289 -0.375515,-0.1550289 -0.265271,0 -0.425468,0.1498613 -0.158474,0.1498613 -0.18259,0.4220234 z"
         style="fill:#008080;stroke-width:0.264583"
         id="path192" />
      <path
         d="m 25.231189,9.7007666 q -0.0534,-0.031006 -0.117133,-0.044786 -0.06201,-0.015503 -0.137804,-0.015503 -0.268717,0 -0.41341,0.1756995 Q 24.41987,9.990154 24.41987,10.317437 v 1.016301 H 24.1012 V 9.4044891 h 0.31867 v 0.2997226 q 0.09991,-0.1756994 0.260104,-0.2601041 0.160197,-0.086127 0.389295,-0.086127 0.03273,0 0.07235,0.00517 0.03962,0.00345 0.08785,0.012058 z"
         style="fill:#008080;stroke-width:0.264583"
         id="path194" />
      <path
         d="m 26.948565,10.370836 q 0,-0.349676 -0.144694,-0.5477687 -0.142971,-0.1998151 -0.394462,-0.1998151 -0.251492,0 -0.396185,0.1998151 -0.142971,0.1980927 -0.142971,0.5477687 0,0.349677 0.142971,0.549492 0.144693,0.198092 0.396185,0.198092 0.251491,0 0.394462,-0.198092 0.144694,-0.199815 0.144694,-0.549492 z M 25.870253,9.6973216 q 0.09991,-0.1722544 0.251491,-0.2549365 0.153306,-0.084405 0.365179,-0.084405 0.351399,0 0.570162,0.2790521 0.220486,0.2790521 0.220486,0.7338038 0,0.454752 -0.220486,0.733804 -0.218763,0.279052 -0.570162,0.279052 -0.211873,0 -0.365179,-0.08268 -0.151584,-0.08441 -0.251491,-0.256659 V 11.33374 H 25.551582 V 8.6534599 h 0.318671 z"
         style="fill:#008080;stroke-width:0.264583"
         id="path196" />
      <path
         d="M 27.770219,10.572374 V 9.4044891 h 0.316948 v 1.1558269 q 0,0.273885 0.106798,0.411688 0.106797,0.136081 0.320393,0.136081 0.256659,0 0.404798,-0.163642 0.149861,-0.163641 0.149861,-0.446138 V 9.4044891 h 0.316948 v 1.9292489 h -0.316948 v -0.296277 q -0.11541,0.175699 -0.268717,0.261826 -0.151584,0.08441 -0.353121,0.08441 -0.332451,0 -0.504706,-0.206705 -0.172254,-0.206705 -0.172254,-0.604613 z m 0.797538,-1.2143936 z"
         style="fill:#008080;stroke-width:0.264583"
         id="path198" />
      <path
         d="m 31.156741,9.7007666 q -0.0534,-0.031006 -0.117133,-0.044786 -0.06201,-0.015503 -0.137804,-0.015503 -0.268716,0 -0.41341,0.1756995 -0.142971,0.1739769 -0.142971,0.5012599 v 1.016301 H 30.026752 V 9.4044891 h 0.318671 v 0.2997226 q 0.09991,-0.1756994 0.260104,-0.2601041 0.160196,-0.086127 0.389295,-0.086127 0.03273,0 0.07235,0.00517 0.03962,0.00345 0.08785,0.012058 z"
         style="fill:#008080;stroke-width:0.264583"
         id="path200" />
      <path
         d="M 32.719089,9.461333 V 9.7610557 Q 32.58473,9.6921539 32.440036,9.657703 32.295343,9.623252 32.140314,9.623252 q -0.235989,0 -0.354844,0.072347 -0.117133,0.072347 -0.117133,0.2170406 0,0.1102424 0.0844,0.1739764 0.08441,0.06201 0.339342,0.118856 l 0.10852,0.02412 q 0.337618,0.07235 0.478867,0.204982 0.142971,0.130914 0.142971,0.366902 0,0.268717 -0.213595,0.425469 -0.211873,0.156751 -0.583943,0.156751 -0.155029,0 -0.323838,-0.03101 -0.167087,-0.02928 -0.353121,-0.08957 v -0.327283 q 0.175699,0.0913 0.346231,0.137803 0.170532,0.04479 0.337618,0.04479 0.223931,0 0.344509,-0.07579 0.120578,-0.07751 0.120578,-0.21704 0,-0.129191 -0.08785,-0.198093 -0.08613,-0.0689 -0.380683,-0.132636 l -0.110242,-0.02584 q -0.294555,-0.06201 -0.425469,-0.18948 -0.130913,-0.12919 -0.130913,-0.3531211 0,-0.2721619 0.192925,-0.4203007 0.192925,-0.1481388 0.547769,-0.1481388 0.175699,0 0.330728,0.025838 0.155029,0.025838 0.285943,0.077514 z"
         style="fill:#008080;stroke-width:0.264583"
         id="path202" />
      <path
         d="m 33.640649,8.8567201 v 0.547769 h 0.652844 V 9.6508129 H 33.640649 V 10.69812 q 0,0.235988 0.06373,0.303167 0.06546,0.06718 0.263549,0.06718 h 0.325561 v 0.265271 h -0.325561 q -0.366902,0 -0.506428,-0.136081 -0.139526,-0.137803 -0.139526,-0.499537 V 9.6508129 H 33.089435 V 9.4044891 h 0.232543 v -0.547769 z"
         style="fill:#008080;stroke-width:0.264583"
         id="path204" />
    </g>
    <g
       aria-label="clock"
       transform="matrix(0.96172648,0,0,1.0397967,-8.9999992,1.9999977)"
       id="text174"
       style="font-size:2.48532px;line-height:1.25;font-family:sans-serif;fill:#ffffff;stroke-width:0.186399">
      <path
         d="m 17.711938,39.050334 v 0.208728 q -0.09465,-0.05218 -0.190525,-0.07767 -0.09465,-0.0267 -0.191738,-0.0267 -0.217223,0 -0.337363,0.138343 -0.12014,0.137129 -0.12014,0.385904 0,0.248775 0.12014,0.387118 0.12014,0.137129 0.337363,0.137129 0.09708,0 0.191738,-0.02548 0.09587,-0.0267 0.190525,-0.07888 v 0.206301 q -0.09344,0.04369 -0.194165,0.06553 -0.09951,0.02184 -0.212369,0.02184 -0.307024,0 -0.487841,-0.192952 -0.180817,-0.192952 -0.180817,-0.520607 0,-0.332509 0.18203,-0.523034 0.183244,-0.190525 0.50119,-0.190525 0.103151,0 0.201447,0.02184 0.0983,0.02063 0.190525,0.0631 z"
         style="fill:#ffffff;stroke-width:0.186399"
         id="path193" />
      <path
         d="m 18.10027,38.46905 h 0.22329 v 1.888261 h -0.22329 z"
         style="fill:#ffffff;stroke-width:0.186399"
         id="path195" />
      <path
         d="m 19.317445,39.154698 q -0.179603,0 -0.283967,0.14077 -0.104364,0.139556 -0.104364,0.383477 0,0.243921 0.103151,0.384691 0.104364,0.139556 0.28518,0.139556 0.17839,0 0.282754,-0.14077 0.104364,-0.14077 0.104364,-0.383477 0,-0.241493 -0.104364,-0.382264 -0.104364,-0.141983 -0.282754,-0.141983 z m 0,-0.189312 q 0.291249,0 0.457503,0.189312 0.166255,0.189311 0.166255,0.524247 0,0.333722 -0.166255,0.524247 -0.166254,0.189312 -0.457503,0.189312 -0.292462,0 -0.458716,-0.189312 -0.165041,-0.190525 -0.165041,-0.524247 0,-0.334936 0.165041,-0.524247 0.166254,-0.189312 0.458716,-0.189312 z"
         style="fill:#ffffff;stroke-width:0.186399"
         id="path197" />
      <path
         d="m 21.28944,39.050334 v 0.208728 q -0.09466,-0.05218 -0.190525,-0.07767 -0.09466,-0.0267 -0.191739,-0.0267 -0.217222,0 -0.337362,0.138343 -0.12014,0.137129 -0.12014,0.385904 0,0.248775 0.12014,0.387118 0.12014,0.137129 0.337362,0.137129 0.09708,0 0.191739,-0.02548 0.09587,-0.0267 0.190525,-0.07888 v 0.206301 q -0.09344,0.04369 -0.194166,0.06553 -0.09951,0.02184 -0.212368,0.02184 -0.307025,0 -0.487841,-0.192952 -0.180817,-0.192952 -0.180817,-0.520607 0,-0.332509 0.18203,-0.523034 0.183244,-0.190525 0.50119,-0.190525 0.103151,0 0.201447,0.02184 0.0983,0.02063 0.190525,0.0631 z"
         style="fill:#ffffff;stroke-width:0.186399"
         id="path199" />
      <path
         d="m 21.669277,38.46905 h 0.224504 v 1.115239 l 0.666231,-0.586137 h 0.28518 l -0.72084,0.635892 0.751179,0.723267 h -0.291249 l -0.690501,-0.663804 v 0.663804 h -0.224504 z"
         style="fill:#ffffff;stroke-width:0.186399"
         id="path201" />
    </g>
    <g
       aria-label="on"
       transform="matrix(1.0192495,0,0,0.98111404,-2.9999997,0)"
       id="text178"
       style="font-size:3.55004px;line-height:1.25;font-family:sans-serif;fill:#ffffff;stroke-width:0.266253">
      <path
         d="m 10.702117,56.329126 q -0.256546,0 -0.40562,0.201077 -0.149074,0.199343 -0.149074,0.54776 0,0.348417 0.147341,0.549494 0.149074,0.199343 0.407353,0.199343 0.254812,0 0.403886,-0.201077 0.149074,-0.201076 0.149074,-0.54776 0,-0.34495 -0.149074,-0.546027 -0.149074,-0.20281 -0.403886,-0.20281 z m 0,-0.270413 q 0.41602,0 0.653499,0.270413 0.237478,0.270414 0.237478,0.748837 0,0.47669 -0.237478,0.748837 -0.237479,0.270413 -0.653499,0.270413 -0.417754,0 -0.655232,-0.270413 -0.2357448,-0.272147 -0.2357448,-0.748837 0,-0.478423 0.2357448,-0.748837 0.237478,-0.270413 0.655232,-0.270413 z"
         style="fill:#ffffff;stroke-width:0.266253"
         id="path205" />
      <path
         d="m 13.735598,56.875153 v 1.171791 H 13.41665 v -1.16139 q 0,-0.275614 -0.107472,-0.412554 -0.107472,-0.13694 -0.322416,-0.13694 -0.258279,0 -0.407353,0.164675 -0.149074,0.164675 -0.149074,0.448955 v 1.097254 h -0.320683 v -1.941428 h 0.320683 v 0.301614 q 0.114405,-0.175075 0.26868,-0.261746 0.156007,-0.08667 0.358817,-0.08667 0.33455,0 0.506158,0.20801 0.171608,0.206277 0.171608,0.608429 z"
         style="fill:#ffffff;stroke-width:0.266253"
         id="path207" />
    </g>
    <g
       aria-label="step"
       transform="matrix(1.1529143,0,0,1.3010516,-10.529157,-35.000069)"
       id="text182"
       style="font-size:2.53344px;line-height:1.25;font-family:sans-serif;fill:#ffffff;stroke-width:0.190009">
      <path
         d="m 19.199388,81.138188 v 0.215244 q -0.09649,-0.04948 -0.200399,-0.07422 -0.103911,-0.02474 -0.215244,-0.02474 -0.169473,0 -0.254828,0.05196 -0.08412,0.05195 -0.08412,0.155866 0,0.07917 0.06061,0.12494 0.06061,0.04453 0.243695,0.08535 l 0.07793,0.01732 q 0.242458,0.05196 0.343895,0.147207 0.102673,0.09402 0.102673,0.263488 0,0.192977 -0.153391,0.305547 -0.152155,0.112569 -0.419354,0.112569 -0.111333,0 -0.232562,-0.02227 -0.119992,-0.02103 -0.253591,-0.06433 v -0.235036 q 0.126177,0.06556 0.248643,0.09896 0.122466,0.03216 0.242458,0.03216 0.160814,0 0.247406,-0.05443 0.08659,-0.05567 0.08659,-0.155866 0,-0.09278 -0.06309,-0.142258 -0.06185,-0.04948 -0.273384,-0.09525 l -0.07917,-0.01856 q -0.211532,-0.04453 -0.305547,-0.136074 -0.09401,-0.09278 -0.09401,-0.253591 0,-0.195451 0.138547,-0.301836 0.138548,-0.106384 0.393376,-0.106384 0.126178,0 0.23751,0.01855 0.111333,0.01856 0.205348,0.05567 z"
         style="fill:#ffffff;stroke-width:0.190009"
         id="path228" />
      <path
         d="m 19.861199,80.70399 v 0.393376 h 0.468835 v 0.176896 h -0.468835 v 0.752115 q 0,0.169473 0.04577,0.217717 0.04701,0.04824 0.189265,0.04824 h 0.233799 v 0.190502 h -0.233799 q -0.263487,0 -0.363687,-0.09772 -0.100199,-0.09896 -0.100199,-0.358739 v -0.752115 h -0.167 v -0.176896 h 0.167 V 80.70399 Z"
         style="fill:#ffffff;stroke-width:0.190009"
         id="path230" />
      <path
         d="m 21.814472,81.733201 v 0.111332 h -1.046529 q 0.01485,0.235036 0.141022,0.358739 0.127414,0.122467 0.353791,0.122467 0.131125,0 0.253591,-0.03216 0.123703,-0.03216 0.244933,-0.09649 v 0.215244 q -0.122467,0.05196 -0.251118,0.07917 -0.128651,0.02721 -0.261013,0.02721 -0.331525,0 -0.525739,-0.192976 -0.192977,-0.192977 -0.192977,-0.522028 0,-0.340183 0.183081,-0.539345 0.184318,-0.200399 0.49605,-0.200399 0.279569,0 0.44162,0.180606 0.163288,0.17937 0.163288,0.488628 z m -0.227614,-0.0668 q -0.0025,-0.186792 -0.105148,-0.298125 -0.101436,-0.111333 -0.269672,-0.111333 -0.190503,0 -0.305547,0.107622 -0.113807,0.107622 -0.131125,0.303073 z"
         style="fill:#ffffff;stroke-width:0.190009"
         id="path232" />
      <path
         d="m 22.408247,82.27502 v 0.734797 h -0.228851 v -1.912451 h 0.228851 v 0.210296 q 0.07175,-0.123703 0.180606,-0.183081 0.110096,-0.06061 0.262251,-0.06061 0.252354,0 0.409457,0.200399 0.15834,0.200399 0.15834,0.526975 0,0.326576 -0.15834,0.526975 -0.157103,0.200399 -0.409457,0.200399 -0.152155,0 -0.262251,-0.05938 -0.108858,-0.06061 -0.180606,-0.184319 z m 0.774381,-0.483679 q 0,-0.251117 -0.10391,-0.393376 -0.102674,-0.143496 -0.28328,-0.143496 -0.180607,0 -0.284518,0.143496 -0.102673,0.142259 -0.102673,0.393376 0,0.251117 0.102673,0.394613 0.103911,0.142259 0.284518,0.142259 0.180606,0 0.28328,-0.142259 0.10391,-0.143496 0.10391,-0.394613 z"
         style="fill:#ffffff;stroke-width:0.190009"
         id="path234" />
    </g>
    <g
       aria-label="off"
       transform="matrix(1.1063162,0,0,0.90390071,-5.9999993,0)"
       id="text186"
       style="font-size:2.85897px;line-height:1.25;font-family:sans-serif;fill:#ffffff;stroke-width:0.214424">
      <path
         d="m 20.60335,61.63611 q -0.206606,0 -0.32666,0.161934 -0.120054,0.160538 -0.120054,0.44113 0,0.280592 0.118658,0.442526 0.120054,0.160538 0.328056,0.160538 0.205209,0 0.325263,-0.161934 0.120055,-0.161934 0.120055,-0.44113 0,-0.2778 -0.120055,-0.439734 -0.120054,-0.16333 -0.325263,-0.16333 z m 0,-0.217773 q 0.335035,0 0.526285,0.217773 0.191249,0.217773 0.191249,0.603064 0,0.383895 -0.191249,0.603064 -0.19125,0.217773 -0.526285,0.217773 -0.336432,0 -0.527681,-0.217773 -0.189854,-0.219169 -0.189854,-0.603064 0,-0.385291 0.189854,-0.603064 0.191249,-0.217773 0.527681,-0.217773 z"
         style="fill:#ffffff;stroke-width:0.214424"
         id="path210" />
      <path
         d="m 23.501407,60.84738 v 0.213586 h -0.245693 q -0.138202,0 -0.192645,0.05584 -0.05305,0.05584 -0.05305,0.201021 v 0.138202 h 0.422982 v 0.199626 h -0.422982 v 1.363873 h -0.258257 v -1.363873 h -0.704971 v 1.363873 h -0.258256 v -1.363873 h -0.245693 v -0.199626 h 0.245693 v -0.108886 q 0,-0.261049 0.12145,-0.379707 0.121451,-0.120055 0.385291,-0.120055 h 0.242901 v 0.213586 h -0.245693 q -0.138202,0 -0.192645,0.05584 -0.05305,0.05584 -0.05305,0.201021 v 0.138202 h 0.704971 v -0.108886 q 0,-0.261049 0.12145,-0.379707 0.121451,-0.120055 0.385291,-0.120055 z"
         style="fill:#ffffff;stroke-width:0.214424"
         id="path212" />
    </g>
    <g
       aria-label="toggle"
       transform="matrix(0.91441514,0,0,1.0935952,14,-15.00001)"
       id="text190"
       style="font-size:2.83459px;line-height:1.25;font-family:sans-serif;fill:#ffffff;stroke-width:0.212595">
      <path
         d="m 9.1916659,64.172379 v 0.440136 h 0.5245652 v 0.197923 H 9.1916659 v 0.841519 q 0,0.189619 0.051211,0.243598 0.052595,0.05398 0.2117638,0.05398 h 0.2615905 v 0.213148 H 9.4546406 q -0.2948085,0 -0.4069187,-0.109343 Q 8.9356116,65.942613 8.9356116,65.651957 V 64.810438 H 8.7487612 v -0.197923 h 0.1868504 v -0.440136 z"
         style="fill:#ffffff;stroke-width:0.212595"
         id="path215" />
      <path
         d="m 10.651867,64.791061 q -0.204843,0 -0.323874,0.160553 -0.11903,0.159169 -0.11903,0.437368 0,0.2782 0.117646,0.438753 0.119031,0.159169 0.325258,0.159169 0.20346,0 0.32249,-0.160553 0.119031,-0.160553 0.119031,-0.437369 0,-0.275431 -0.119031,-0.435984 -0.11903,-0.161937 -0.32249,-0.161937 z m 0,-0.215916 q 0.332179,0 0.521797,0.215916 0.189619,0.215916 0.189619,0.597921 0,0.380622 -0.189619,0.597922 -0.189618,0.215916 -0.521797,0.215916 -0.333562,0 -0.523181,-0.215916 -0.1882343,-0.2173 -0.1882343,-0.597922 0,-0.382005 0.1882343,-0.597921 0.189619,-0.215916 0.523181,-0.215916 z"
         style="fill:#ffffff;stroke-width:0.212595"
         id="path217" />
      <path
         d="m 12.805491,65.369605 q 0,-0.276815 -0.114878,-0.429064 -0.113494,-0.152248 -0.319722,-0.152248 -0.204843,0 -0.319722,0.152248 -0.113494,0.152249 -0.113494,0.429064 0,0.275432 0.113494,0.42768 0.114879,0.152249 0.319722,0.152249 0.206228,0 0.319722,-0.152249 0.114878,-0.152248 0.114878,-0.42768 z m 0.254671,0.60069 q 0,0.395846 -0.175778,0.588233 -0.175778,0.19377 -0.538406,0.19377 -0.134256,0 -0.253286,-0.02076 -0.119031,-0.01938 -0.231141,-0.0609 v -0.24775 q 0.11211,0.0609 0.221452,0.08997 0.109342,0.02907 0.222836,0.02907 0.250518,0 0.375085,-0.131488 0.124567,-0.130103 0.124567,-0.394462 v -0.125951 q -0.07889,0.137024 -0.202075,0.204844 -0.123183,0.06782 -0.294808,0.06782 -0.28512,0 -0.459514,-0.217301 -0.174394,-0.2173 -0.174394,-0.575776 0,-0.35986 0.174394,-0.57716 0.174394,-0.2173 0.459514,-0.2173 0.171625,0 0.294808,0.06782 0.123183,0.06782 0.202075,0.204843 v -0.235293 h 0.254671 z"
         style="fill:#ffffff;stroke-width:0.212595"
         id="path219" />
      <path
         d="m 14.604792,65.369605 q 0,-0.276815 -0.114879,-0.429064 -0.113494,-0.152248 -0.319722,-0.152248 -0.204843,0 -0.319722,0.152248 -0.113494,0.152249 -0.113494,0.429064 0,0.275432 0.113494,0.42768 0.114879,0.152249 0.319722,0.152249 0.206228,0 0.319722,-0.152249 0.114879,-0.152248 0.114879,-0.42768 z m 0.25467,0.60069 q 0,0.395846 -0.175778,0.588233 -0.175778,0.19377 -0.538406,0.19377 -0.134256,0 -0.253286,-0.02076 -0.119031,-0.01938 -0.231141,-0.0609 v -0.24775 q 0.11211,0.0609 0.221452,0.08997 0.109342,0.02907 0.222837,0.02907 0.250518,0 0.375085,-0.131488 0.124567,-0.130103 0.124567,-0.394462 v -0.125951 q -0.07889,0.137024 -0.202076,0.204844 -0.123183,0.06782 -0.294808,0.06782 -0.28512,0 -0.459514,-0.217301 Q 13.474,65.72809 13.474,65.369614 q 0,-0.35986 0.174394,-0.57716 0.174394,-0.2173 0.459514,-0.2173 0.171625,0 0.294808,0.06782 0.123183,0.06782 0.202076,0.204843 v -0.235293 h 0.25467 z"
         style="fill:#ffffff;stroke-width:0.212595"
         id="path221" />
      <path
         d="m 15.384027,64.009058 h 0.254671 v 2.153624 h -0.254671 z"
         style="fill:#ffffff;stroke-width:0.212595"
         id="path223" />
      <path
         d="m 17.497513,65.323931 v 0.124567 h -1.17093 q 0.01661,0.262974 0.157785,0.401382 0.14256,0.137024 0.395846,0.137024 0.146712,0 0.283736,-0.03599 0.138408,-0.03599 0.274047,-0.107958 v 0.240829 q -0.137023,0.05813 -0.280967,0.08858 -0.143944,0.03045 -0.292041,0.03045 -0.370932,0 -0.588232,-0.215916 -0.215916,-0.215916 -0.215916,-0.584081 0,-0.380621 0.204843,-0.603457 0.206228,-0.224221 0.555015,-0.224221 0.312801,0 0.494116,0.202075 0.182698,0.200692 0.182698,0.546711 z m -0.25467,-0.07474 q -0.0028,-0.208996 -0.117647,-0.333563 -0.113494,-0.124567 -0.301729,-0.124567 -0.213148,0 -0.341867,0.120415 -0.127335,0.120415 -0.146712,0.339099 z"
         style="fill:#ffffff;stroke-width:0.212595"
         id="path225" />
    </g>
    <g
       aria-label="steps"
       transform="scale(0.9697137,1.0312322)"
       id="text239"
       style="font-size:3.19631px;line-height:1.25;font-family:sans-serif;fill:#ffffff;stroke-width:0.239724">
      <path
         d="m 9.4921734,102.36773 v 0.27156 q -0.1217344,-0.0624 -0.2528331,-0.0936 -0.1310986,-0.0312 -0.2715615,-0.0312 -0.2138157,0 -0.3215038,0.0655 -0.1061275,0.0655 -0.1061275,0.19665 0,0.0999 0.076474,0.15763 0.076474,0.0562 0.3074576,0.10769 l 0.098324,0.0219 q 0.3058969,0.0656 0.4338742,0.18572 0.1295379,0.11862 0.1295379,0.33243 0,0.24347 -0.1935266,0.3855 -0.1919658,0.14202 -0.5290767,0.14202 -0.1404628,0 -0.2934112,-0.0281 -0.1513878,-0.0265 -0.3199432,-0.0812 v -0.29653 q 0.1591912,0.0827 0.3137004,0.12485 0.1545091,0.0406 0.3058968,0.0406 0.2028908,0 0.3121397,-0.0687 0.1092489,-0.0702 0.1092489,-0.19665 0,-0.11705 -0.079596,-0.17948 -0.078035,-0.0624 -0.3449143,-0.12017 l -0.099885,-0.0234 q -0.2668794,-0.0562 -0.3854924,-0.17168 -0.1186131,-0.11705 -0.1186131,-0.31994 0,-0.24659 0.1747982,-0.38081 0.1747982,-0.13422 0.496302,-0.13422 0.1591913,0 0.2996541,0.0234 0.1404629,0.0234 0.2590759,0.0702 z"
         style="fill:#ffffff;stroke-width:0.239724"
         id="path245" />
      <path
         d="m 10.327147,101.81992 v 0.49631 h 0.591505 v 0.22318 h -0.591505 v 0.9489 q 0,0.21382 0.05775,0.27468 0.05931,0.0609 0.238787,0.0609 h 0.294972 v 0.24035 H 10.62368 q -0.332429,0 -0.458846,-0.1233 -0.126416,-0.12485 -0.126416,-0.4526 v -0.9489 H 9.8277236 v -0.22318 h 0.2106944 v -0.49631 z"
         style="fill:#ffffff;stroke-width:0.239724"
         id="path247" />
      <path
         d="m 12.791489,103.11843 v 0.14046 h -1.32035 q 0.01873,0.29653 0.177919,0.4526 0.160752,0.15451 0.44636,0.15451 0.165434,0 0.319943,-0.0406 0.15607,-0.0406 0.309018,-0.12173 v 0.27156 q -0.154509,0.0656 -0.316821,0.0999 -0.162313,0.0343 -0.329308,0.0343 -0.418267,0 -0.663296,-0.24347 -0.243469,-0.24347 -0.243469,-0.65861 0,-0.4292 0.230983,-0.68047 0.232544,-0.25283 0.62584,-0.25283 0.352718,0 0.557169,0.22786 0.206012,0.2263 0.206012,0.61648 z m -0.287168,-0.0843 q -0.0031,-0.23567 -0.132659,-0.37613 -0.127978,-0.14046 -0.340233,-0.14046 -0.240347,0 -0.385492,0.13578 -0.143584,0.13578 -0.165434,0.38237 z"
         style="fill:#ffffff;stroke-width:0.239724"
         id="path249" />
      <path
         d="m 13.540625,103.80201 v 0.92706 h -0.28873 v -2.41284 h 0.28873 v 0.26532 q 0.09052,-0.15607 0.227862,-0.23099 0.138902,-0.0765 0.330868,-0.0765 0.318382,0 0.516591,0.25283 0.199769,0.25283 0.199769,0.66486 0,0.41202 -0.199769,0.66486 -0.198209,0.25283 -0.516591,0.25283 -0.191966,0 -0.330868,-0.0749 -0.137342,-0.0765 -0.227862,-0.23255 z m 0.976997,-0.61023 q 0,-0.31682 -0.131099,-0.4963 -0.129538,-0.18104 -0.3574,-0.18104 -0.227862,0 -0.35896,0.18104 -0.129538,0.17948 -0.129538,0.4963 0,0.31682 0.129538,0.49786 0.131098,0.17948 0.35896,0.17948 0.227862,0 0.3574,-0.17948 0.131099,-0.18104 0.131099,-0.49786 z"
         style="fill:#ffffff;stroke-width:0.239724"
         id="path251" />
      <path
         d="m 16.406067,102.36773 v 0.27156 q -0.121735,-0.0624 -0.252833,-0.0936 -0.131099,-0.0312 -0.271562,-0.0312 -0.213816,0 -0.321504,0.0655 -0.106127,0.0655 -0.106127,0.19665 0,0.0999 0.07647,0.15763 0.07647,0.0562 0.307457,0.10769 l 0.09832,0.0219 q 0.305897,0.0656 0.433875,0.18572 0.129538,0.11862 0.129538,0.33243 0,0.24347 -0.193527,0.3855 -0.191966,0.14202 -0.529077,0.14202 -0.140463,0 -0.293411,-0.0281 -0.151388,-0.0265 -0.319943,-0.0812 v -0.29653 q 0.159191,0.0827 0.3137,0.12485 0.154509,0.0406 0.305897,0.0406 0.202891,0 0.31214,-0.0687 0.109249,-0.0702 0.109249,-0.19665 0,-0.11705 -0.0796,-0.17948 -0.07803,-0.0624 -0.344914,-0.12017 l -0.09989,-0.0234 q -0.266879,-0.0562 -0.385493,-0.17168 -0.118613,-0.11705 -0.118613,-0.31994 0,-0.24659 0.174799,-0.38081 0.174798,-0.13422 0.496302,-0.13422 0.159191,0 0.299654,0.0234 0.140463,0.0234 0.259076,0.0702 z"
         style="fill:#ffffff;stroke-width:0.239724"
         id="path253" />
    </g>
    <g
       aria-label="multi"
       transform="scale(1.0219978,0.97847566)"
       id="text243"
       style="font-size:3.30134px;line-height:1.25;font-family:sans-serif;fill:#ffffff;stroke-width:0.247602">
      <path
         d="m 20.986445,108.35916 q 0.111227,-0.19989 0.265977,-0.295 0.154751,-0.0951 0.364308,-0.0951 0.282097,0 0.435236,0.19827 0.153138,0.19666 0.153138,0.56097 v 1.0897 h -0.298217 v -1.08003 q 0,-0.25953 -0.09188,-0.38526 -0.09188,-0.12574 -0.280485,-0.12574 -0.230513,0 -0.364308,0.15314 -0.133794,0.15314 -0.133794,0.41751 V 109.818 H 20.7382 v -1.08003 q 0,-0.26114 -0.09188,-0.38526 -0.09188,-0.12574 -0.283709,-0.12574 -0.22729,0 -0.361084,0.15475 -0.133795,0.15314 -0.133795,0.4159 v 1.02038 h -0.298216 v -1.80542 h 0.298216 v 0.28049 q 0.101555,-0.16604 0.24341,-0.24503 0.141854,-0.079 0.336904,-0.079 0.196662,0 0.33368,0.0999 0.138631,0.0999 0.204722,0.29016 z"
         style="fill:#ffffff;stroke-width:0.247602"
         id="path256" />
      <path
         d="m 22.766074,109.1055 v -1.09292 h 0.296605 v 1.08164 q 0,0.25631 0.09994,0.38526 0.09994,0.12735 0.299829,0.12735 0.240186,0 0.378816,-0.15314 0.140243,-0.15314 0.140243,-0.4175 v -1.02361 h 0.296604 v 1.80542 h -0.296604 v -0.27726 q -0.108003,0.16442 -0.25147,0.24502 -0.141854,0.079 -0.330456,0.079 -0.311113,0 -0.472311,-0.19344 -0.161198,-0.19344 -0.161198,-0.56581 z m 0.746348,-1.13644 z"
         style="fill:#ffffff;stroke-width:0.247602"
         id="path258" />
      <path
         d="m 24.889055,107.30976 h 0.296604 v 2.50824 h -0.296604 z"
         style="fill:#ffffff;stroke-width:0.247602"
         id="path260" />
      <path
         d="m 26.099654,107.49997 v 0.51261 h 0.610941 v 0.23051 h -0.610941 v 0.98009 q 0,0.22084 0.05964,0.28371 0.06126,0.0629 0.246633,0.0629 h 0.304665 V 109.818 H 26.40593 q -0.343352,0 -0.473923,-0.12735 -0.13057,-0.12895 -0.13057,-0.46747 v -0.98009 h -0.217618 v -0.23051 h 0.217618 v -0.51261 z"
         style="fill:#ffffff;stroke-width:0.247602"
         id="path262" />
      <path
         d="M 27.100695,108.01258 H 27.3973 v 1.80542 h -0.296605 z m 0,-0.70282 H 27.3973 v 0.37559 h -0.296605 z"
         style="fill:#ffffff;stroke-width:0.247602"
         id="path264" />
    </g>
    <g
       aria-label="solo, out"
       transform="scale(1.1162977,0.89581838)"
       id="text180"
       style="font-size:3.18587px;line-height:1.25;font-family:sans-serif;fill:#ffffff;stroke-width:0.23894">
      <path
         d="m 10.196442,137.47602 v 0.27068 q -0.121337,-0.0622 -0.2520076,-0.0933 -0.1306705,-0.0311 -0.2706745,-0.0311 -0.2131173,0 -0.3204537,0.0653 -0.1057809,0.0653 -0.1057809,0.196 0,0.0996 0.076225,0.15712 0.076224,0.056 0.3064533,0.10733 l 0.098003,0.0218 q 0.3048981,0.0653 0.4324571,0.18512 0.129115,0.11822 0.129115,0.33134 0,0.24267 -0.192895,0.38423 -0.1913386,0.14156 -0.5273484,0.14156 -0.140004,0 -0.2924529,-0.028 -0.1508932,-0.0264 -0.3188981,-0.0809 v -0.29556 q 0.1586713,0.0824 0.3126757,0.12445 0.1540045,0.0404 0.3048978,0.0404 0.202228,0 0.3111201,-0.0684 0.108892,-0.07 0.108892,-0.19601 0,-0.11667 -0.079336,-0.17889 -0.07778,-0.0622 -0.3437877,-0.11979 l -0.099558,-0.0233 q -0.2660077,-0.056 -0.3842333,-0.17112 -0.1182257,-0.11667 -0.1182257,-0.31889 0,-0.24579 0.1742273,-0.37957 0.1742273,-0.13378 0.494681,-0.13378 0.1586712,0 0.2986753,0.0233 0.140004,0.0233 0.25823,0.07 z"
         style="fill:#ffffff;stroke-width:0.23894"
         id="path183" />
      <path
         d="m 11.420699,137.62536 q -0.230229,0 -0.36401,0.18045 -0.133782,0.1789 -0.133782,0.49157 0,0.31268 0.132226,0.49313 0.133782,0.17889 0.365566,0.17889 0.228674,0 0.362455,-0.18045 0.133782,-0.18045 0.133782,-0.49157 0,-0.30956 -0.133782,-0.49001 -0.133781,-0.18201 -0.362455,-0.18201 z m 0,-0.24267 q 0.373344,0 0.586462,0.24267 0.213117,0.24268 0.213117,0.67202 0,0.42779 -0.213117,0.67202 -0.213118,0.24267 -0.586462,0.24267 -0.374899,0 -0.588017,-0.24267 -0.211561,-0.24423 -0.211561,-0.67202 0,-0.42934 0.211561,-0.67202 0.213118,-0.24267 0.588017,-0.24267 z"
         style="fill:#ffffff;stroke-width:0.23894"
         id="path185" />
      <path
         d="m 12.694736,136.74645 h 0.286231 v 2.42051 h -0.286231 z"
         style="fill:#ffffff;stroke-width:0.23894"
         id="path187" />
      <path
         d="m 14.255004,137.62536 q -0.230229,0 -0.364011,0.18045 -0.133782,0.1789 -0.133782,0.49157 0,0.31268 0.132227,0.49313 0.133781,0.17889 0.365566,0.17889 0.228673,0 0.362455,-0.18045 0.133781,-0.18045 0.133781,-0.49157 0,-0.30956 -0.133781,-0.49001 -0.133782,-0.18201 -0.362455,-0.18201 z m 0,-0.24267 q 0.373344,0 0.586461,0.24267 0.213117,0.24268 0.213117,0.67202 0,0.42779 -0.213117,0.67202 -0.213117,0.24267 -0.586461,0.24267 -0.3749,0 -0.588017,-0.24267 -0.211562,-0.24423 -0.211562,-0.67202 0,-0.42934 0.211562,-0.67202 0.213117,-0.24267 0.588017,-0.24267 z"
         style="fill:#ffffff;stroke-width:0.23894"
         id="path189" />
      <path
         d="m 15.602153,138.77184 h 0.328232 v 0.26756 l -0.255118,0.49779 h -0.200673 l 0.127559,-0.49779 z"
         style="fill:#ffffff;stroke-width:0.23894"
         id="path191" />
      <path
         d="m 18.229562,137.62536 q -0.230228,0 -0.36401,0.18045 -0.133782,0.1789 -0.133782,0.49157 0,0.31268 0.132226,0.49313 0.133782,0.17889 0.365566,0.17889 0.228674,0 0.362455,-0.18045 0.133782,-0.18045 0.133782,-0.49157 0,-0.30956 -0.133782,-0.49001 -0.133781,-0.18201 -0.362455,-0.18201 z m 0,-0.24267 q 0.373345,0 0.586462,0.24267 0.213117,0.24268 0.213117,0.67202 0,0.42779 -0.213117,0.67202 -0.213117,0.24267 -0.586462,0.24267 -0.374899,0 -0.588017,-0.24267 -0.211561,-0.24423 -0.211561,-0.67202 0,-0.42934 0.211561,-0.67202 0.213118,-0.24267 0.588017,-0.24267 z"
         style="fill:#ffffff;stroke-width:0.23894"
         id="path203" />
      <path
         d="m 19.474044,138.47939 v -1.0547 h 0.28623 v 1.04381 q 0,0.24734 0.09645,0.37179 0.09645,0.12289 0.289342,0.12289 0.231785,0 0.365566,-0.14778 0.135337,-0.14779 0.135337,-0.4029 v -0.98781 h 0.286231 v 1.74227 h -0.286231 v -0.26756 q -0.104225,0.15867 -0.242673,0.23645 -0.136893,0.0762 -0.318898,0.0762 -0.300231,0 -0.455791,-0.18667 -0.15556,-0.18667 -0.15556,-0.54601 z m 0.720243,-1.0967 z"
         style="fill:#ffffff;stroke-width:0.23894"
         id="path206" />
      <path
         d="m 21.805888,136.93001 v 0.49468 h 0.589573 v 0.22245 h -0.589573 v 0.94581 q 0,0.21311 0.05756,0.27378 0.05911,0.0607 0.238007,0.0607 h 0.294009 v 0.23956 h -0.294009 q -0.331343,0 -0.457346,-0.12289 -0.126004,-0.12445 -0.126004,-0.45112 v -0.94581 h -0.210006 v -0.22245 h 0.210006 v -0.49468 z"
         style="fill:#ffffff;stroke-width:0.23894"
         id="path208" />
    </g>
    <g
       aria-label="gate"
       transform="matrix(0.92089181,0,0,0.90491776,0,-16.333195)"
       id="text198"
       style="font-size:3.03539px;line-height:1.25;font-family:sans-serif;fill:#ffffff;stroke-width:0.227654">
      <path
         d="m 17.499454,65.744455 q 0,-0.296425 -0.123017,-0.459459 -0.121534,-0.163033 -0.34237,-0.163033 -0.219354,0 -0.342371,0.163033 -0.121534,0.163034 -0.121534,0.459459 0,0.294942 0.121534,0.457976 0.123017,0.163034 0.342371,0.163034 0.220836,0 0.34237,-0.163034 0.123017,-0.163034 0.123017,-0.457976 z m 0.272711,0.643242 q 0,0.423887 -0.18823,0.629902 -0.18823,0.207498 -0.576546,0.207498 -0.143766,0 -0.271229,-0.02223 -0.127463,-0.02075 -0.247515,-0.06521 v -0.2653 q 0.120052,0.06521 0.23714,0.09634 0.117088,0.03113 0.238622,0.03113 0.268264,0 0.401656,-0.140802 0.133391,-0.13932 0.133391,-0.422405 v -0.134874 q -0.08448,0.146731 -0.21639,0.219355 -0.131909,0.07262 -0.315693,0.07262 -0.305317,0 -0.492065,-0.232694 -0.186747,-0.232693 -0.186747,-0.616563 0,-0.385352 0.186747,-0.618046 0.186748,-0.232693 0.492065,-0.232693 0.183784,0 0.315693,0.07262 0.131909,0.07262 0.21639,0.219354 v -0.251961 h 0.272711 z"
         style="fill:#ffffff;stroke-width:0.227654"
         id="path244" />
      <path
         d="m 19.088291,65.759276 q -0.330514,0 -0.457977,0.07559 -0.127462,0.07559 -0.127462,0.25789 0,0.145248 0.09486,0.231211 0.09634,0.08448 0.260853,0.08448 0.226765,0 0.363121,-0.160069 0.137837,-0.161552 0.137837,-0.428334 v -0.06077 z m 0.543939,-0.112641 v 0.947077 h -0.272711 v -0.251961 q -0.09337,0.151176 -0.232693,0.2238 -0.13932,0.07114 -0.340889,0.07114 -0.254925,0 -0.406102,-0.142283 -0.149694,-0.143766 -0.149694,-0.383871 0,-0.280121 0.186748,-0.422405 0.188229,-0.142284 0.560242,-0.142284 h 0.382388 v -0.02668 q 0,-0.18823 -0.124498,-0.290496 -0.123016,-0.103749 -0.346817,-0.103749 -0.142284,0 -0.277157,0.03409 -0.134874,0.03409 -0.259372,0.102266 v -0.251961 q 0.149695,-0.0578 0.290496,-0.08596 0.140802,-0.02964 0.274193,-0.02964 0.360156,0 0.538011,0.186747 0.177855,0.186748 0.177855,0.566172 z"
         style="fill:#ffffff;stroke-width:0.227654"
         id="path246" />
      <path
         d="m 20.463702,64.462418 v 0.471315 h 0.561725 v 0.211944 h -0.561725 v 0.901131 q 0,0.203051 0.05484,0.260854 0.05632,0.0578 0.226765,0.0578 h 0.280122 v 0.228247 h -0.280122 q -0.315692,0 -0.435744,-0.117088 -0.120052,-0.11857 -0.120052,-0.429816 V 65.145674 H 19.989424 V 64.93373 h 0.200087 v -0.471315 z"
         style="fill:#ffffff;stroke-width:0.227654"
         id="path248" />
      <path
         d="m 22.803975,65.695545 v 0.133391 h -1.253877 q 0.01779,0.281603 0.168963,0.429816 0.152658,0.14673 0.423887,0.14673 0.157105,0 0.303835,-0.03854 0.148213,-0.03853 0.293461,-0.115606 v 0.25789 q -0.14673,0.06225 -0.300871,0.09486 -0.154141,0.03261 -0.312728,0.03261 -0.39721,0 -0.629903,-0.231211 -0.231211,-0.231211 -0.231211,-0.625456 0,-0.407584 0.219354,-0.646206 0.220836,-0.240104 0.594332,-0.240104 0.33496,0 0.529118,0.21639 0.19564,0.214908 0.19564,0.585439 z m -0.272711,-0.08003 q -0.003,-0.223801 -0.12598,-0.357192 -0.121534,-0.133391 -0.323103,-0.133391 -0.228247,0 -0.366085,0.128945 -0.136355,0.128945 -0.157105,0.36312 z"
         style="fill:#ffffff;stroke-width:0.227654"
         id="path250" />
    </g>
    <g
       aria-label="gate"
       transform="scale(0.92089181,1.0859039)"
       id="text198-3"
       style="font-size:3.03539px;line-height:1.25;font-family:sans-serif;fill:#ffffff;stroke-width:0.227654">
      <path
         d="m 27.272588,65.744455 q 0,-0.296425 -0.123016,-0.459459 -0.121534,-0.163033 -0.342371,-0.163033 -0.219354,0 -0.342371,0.163033 -0.121534,0.163034 -0.121534,0.459459 0,0.294942 0.121534,0.457976 0.123017,0.163034 0.342371,0.163034 0.220837,0 0.342371,-0.163034 0.123016,-0.163034 0.123016,-0.457976 z m 0.272711,0.643242 q 0,0.423887 -0.18823,0.629902 -0.18823,0.207498 -0.576546,0.207498 -0.143766,0 -0.271229,-0.02223 -0.127462,-0.02075 -0.247515,-0.06521 v -0.2653 q 0.120053,0.06521 0.23714,0.09634 0.117088,0.03113 0.238622,0.03113 0.268265,0 0.401656,-0.140802 0.133391,-0.13932 0.133391,-0.422405 v -0.134874 q -0.08448,0.146731 -0.21639,0.219355 -0.131909,0.07262 -0.315692,0.07262 -0.305318,0 -0.492066,-0.232694 -0.186747,-0.232693 -0.186747,-0.616563 0,-0.385352 0.186747,-0.618046 0.186748,-0.232693 0.492066,-0.232693 0.183783,0 0.315692,0.07262 0.131909,0.07262 0.21639,0.219354 v -0.251961 h 0.272711 z"
         style="fill:#ffffff;stroke-width:0.227654"
         id="path254" />
      <path
         d="m 28.861425,65.759276 q -0.330514,0 -0.457976,0.07559 -0.127463,0.07559 -0.127463,0.25789 0,0.145248 0.09486,0.231211 0.09634,0.08448 0.260854,0.08448 0.226765,0 0.36312,-0.160069 0.137838,-0.161552 0.137838,-0.428334 v -0.06077 z m 0.543939,-0.112641 v 0.947077 h -0.27271 v -0.251961 q -0.09337,0.151176 -0.232694,0.2238 -0.13932,0.07114 -0.340888,0.07114 -0.254926,0 -0.406102,-0.142283 -0.149695,-0.143766 -0.149695,-0.383871 0,-0.280121 0.186748,-0.422405 0.188229,-0.142284 0.560243,-0.142284 h 0.382388 v -0.02668 q 0,-0.18823 -0.124499,-0.290496 -0.123016,-0.103749 -0.346817,-0.103749 -0.142284,0 -0.277157,0.03409 -0.134873,0.03409 -0.259372,0.102266 v -0.251961 q 0.149695,-0.0578 0.290497,-0.08596 0.140801,-0.02964 0.274193,-0.02964 0.360156,0 0.538011,0.186747 0.177854,0.186748 0.177854,0.566172 z"
         style="fill:#ffffff;stroke-width:0.227654"
         id="path257" />
      <path
         d="m 30.236836,64.462418 v 0.471315 h 0.561725 v 0.211944 h -0.561725 v 0.901131 q 0,0.203051 0.05484,0.260854 0.05632,0.0578 0.226765,0.0578 h 0.280122 v 0.228247 h -0.280122 q -0.315692,0 -0.435744,-0.117088 -0.120052,-0.11857 -0.120052,-0.429816 v -0.901131 h -0.200087 v -0.211944 h 0.200087 v -0.471315 z"
         style="fill:#ffffff;stroke-width:0.227654"
         id="path259" />
      <path
         d="m 32.57711,65.695545 v 0.133391 h -1.253877 q 0.01778,0.281603 0.168962,0.429816 0.152659,0.14673 0.423887,0.14673 0.157105,0 0.303836,-0.03854 0.148212,-0.03853 0.29346,-0.115606 v 0.25789 q -0.14673,0.06225 -0.300871,0.09486 -0.154141,0.03261 -0.312728,0.03261 -0.397209,0 -0.629903,-0.231211 -0.231211,-0.231211 -0.231211,-0.625456 0,-0.407584 0.219354,-0.646206 0.220837,-0.240104 0.594332,-0.240104 0.33496,0 0.529118,0.21639 0.195641,0.214908 0.195641,0.585439 z m -0.272711,-0.08003 q -0.003,-0.223801 -0.125981,-0.357192 -0.121534,-0.133391 -0.323103,-0.133391 -0.228247,0 -0.366084,0.128945 -0.136356,0.128945 -0.157106,0.36312 z"
         style="fill:#ffffff;stroke-width:0.227654"
         id="path261" />
    </g>
    <path
       id="rect179-7-2-7"
       style="fill:#000000;stroke-width:0.175193"
       d="m 22.5,29.499989 h 11 v 11 h -11 z" />
    <g
       aria-label="plain"
       transform="matrix(1.0134916,0,0,0.98668801,0,2.0000014)"
       id="text266"
       style="font-size:2.6181px;line-height:1.25;font-family:sans-serif;fill:#ffffff;stroke-width:0.196358">
      <path
         d="m 23.917011,42.314027 v 0.759352 H 23.680512 V 41.09702 h 0.236499 v 0.217323 q 0.07415,-0.127837 0.186641,-0.189199 0.113775,-0.06264 0.271015,-0.06264 0.260787,0 0.42314,0.207096 0.163631,0.207096 0.163631,0.544585 0,0.337489 -0.163631,0.544585 -0.162353,0.207096 -0.42314,0.207096 -0.15724,0 -0.271015,-0.06136 -0.112496,-0.06264 -0.186641,-0.190477 z m 0.800259,-0.499842 q 0,-0.259509 -0.107383,-0.406521 -0.106105,-0.148291 -0.292747,-0.148291 -0.186642,0 -0.294025,0.148291 -0.106104,0.147012 -0.106104,0.406521 0,0.259509 0.106104,0.4078 0.107383,0.147012 0.294025,0.147012 0.186642,0 0.292747,-0.147012 0.107383,-0.148291 0.107383,-0.4078 z"
         style="fill:#ffffff;stroke-width:0.196358"
         id="path268" />
      <path
         d="m 25.351341,40.539651 h 0.23522 v 1.989142 h -0.23522 z"
         style="fill:#ffffff;stroke-width:0.196358"
         id="path270" />
      <path
         d="m 26.729423,41.809072 q -0.285077,0 -0.395017,0.0652 -0.109939,0.0652 -0.109939,0.222437 0,0.12528 0.08181,0.199425 0.08309,0.07287 0.224993,0.07287 0.195591,0 0.313201,-0.138064 0.118888,-0.139342 0.118888,-0.369448 v -0.05241 z m 0.469161,-0.09716 v 0.816878 h -0.23522 v -0.217322 q -0.08054,0.130393 -0.200704,0.193033 -0.120167,0.06136 -0.294025,0.06136 -0.219879,0 -0.350273,-0.122723 -0.129115,-0.124002 -0.129115,-0.331098 0,-0.241612 0.161074,-0.364335 0.162353,-0.122724 0.483224,-0.122724 h 0.329819 v -0.02301 q 0,-0.162353 -0.107383,-0.250561 -0.106105,-0.08949 -0.299138,-0.08949 -0.122724,0 -0.239055,0.0294 -0.116332,0.0294 -0.223715,0.08821 v -0.217323 q 0.129115,-0.04986 0.25056,-0.07415 0.121445,-0.02557 0.236499,-0.02557 0.310643,0 0.464048,0.161074 0.153404,0.161075 0.153404,0.488337 z"
         style="fill:#ffffff;stroke-width:0.196358"
         id="path272" />
      <path
         d="m 27.683086,41.09702 h 0.23522 v 1.431773 h -0.23522 z m 0,-0.557369 h 0.23522 v 0.29786 h -0.23522 z"
         style="fill:#ffffff;stroke-width:0.196358"
         id="path274" />
      <path
         d="m 29.600639,41.664616 v 0.864177 H 29.36542 v -0.856507 q 0,-0.203261 -0.07926,-0.304252 -0.07926,-0.100991 -0.237777,-0.100991 -0.190477,0 -0.300417,0.121445 -0.10994,0.121445 -0.10994,0.331098 v 0.809207 H 28.401529 V 41.09702 h 0.236498 v 0.222436 q 0.08437,-0.129115 0.198148,-0.193034 0.115053,-0.06392 0.264622,-0.06392 0.246725,0 0.373284,0.153404 0.126558,0.152126 0.126558,0.448708 z"
         style="fill:#ffffff;stroke-width:0.196358"
         id="path276" />
    </g>
    <path
       id="rect179-7-2-7-5"
       style="fill:#000000;stroke-width:0.242064"
       d="m 12.5,58.499989 h 21 v 11 h -21 z" />
    <path
       style="fill:#008080;stroke-width:0.0620483"
       d="M 9.85301,27.819146 C 9.83425,27.717979 9.79979,27.510923 9.7764,27.359011 9.71594,26.966076 9.645597,26.866688 9.193955,26.535945 8.973166,26.374256 8.792516,26.20575 8.792516,26.161487 c 0,-0.117802 0.297148,-0.160451 0.736696,-0.105749 0.94762,0.117939 1.25268,0.04755 3.054774,-0.704744 0.457757,-0.191094 0.855718,-0.347095 0.884353,-0.346666 0.05106,7.64e-4 0.313547,0.62193 0.275523,0.652027 -0.01063,0.0085 -0.5857,0.263721 -1.277878,0.567304 -0.692176,0.303583 -1.316446,0.592569 -1.387263,0.642191 -0.07081,0.04962 -0.265629,0.268498 -0.432912,0.486389 -0.523688,0.682121 -0.73033,0.80382 -0.792797,0.466907 z m 14.968907,0.06653 c -0.10125,-0.06627 -0.272107,-0.264323 -0.379693,-0.440141 -0.107575,-0.175819 -0.313089,-0.41146 -0.456674,-0.523644 -0.143585,-0.112187 -0.812084,-0.439304 -1.485554,-0.72693 -0.67347,-0.287627 -1.233209,-0.529928 -1.243862,-0.538447 -0.03416,-0.02732 0.221761,-0.651373 0.267462,-0.652182 0.0242,-4.53e-4 0.639919,0.227544 1.368256,0.506603 1.468778,0.562758 1.786807,0.644877 2.193612,0.566423 0.366107,-0.07061 0.799682,-0.06822 1.032552,0.0057 0.191504,0.06077 0.191504,0.06077 -0.296265,0.445766 -0.445706,0.351792 -0.491262,0.408776 -0.528291,0.660811 -0.08077,0.549806 -0.141824,0.777131 -0.213931,0.796634 -0.04044,0.01096 -0.156367,-0.03432 -0.257611,-0.100582 z m -8.34233,-1.11096 c -0.894303,-0.128631 -1.521697,-0.436674 -2.007456,-0.985641 -0.453509,-0.512518 -0.526821,-0.764277 -0.54187,-1.860825 -0.01187,-0.85892 -0.02738,-0.966139 -0.194329,-1.336828 -0.210787,-0.468008 -0.211911,-0.474209 -0.0859,-0.474209 0.171949,0 0.687255,1.349866 0.826292,2.164502 0.03539,0.207362 0.09774,0.306479 0.273552,0.434906 0.666973,0.487197 1.469506,0.686316 2.78414,0.690786 0.980743,0.0034 1.4292,-0.07008 2.109491,-0.345327 0.66019,-0.267118 0.775642,-0.403653 0.924295,-1.093096 0.209364,-0.971005 0.642922,-1.908366 0.882677,-1.908366 0.02581,0 -0.0478,0.222843 -0.163553,0.495207 -0.199417,0.469194 -0.210949,0.542765 -0.219534,1.400724 -0.0098,0.981948 -0.06885,1.228092 -0.398785,1.662648 -0.433735,0.571299 -1.079218,0.937365 -1.956103,1.109349 -0.403374,0.07912 -1.802707,0.108053 -2.232909,0.04617 z m 0.05103,-1.587186 c -0.09496,-0.01794 -0.11905,-0.08304 -0.11905,-0.321764 0,-0.288709 0.006,-0.29832 0.170068,-0.272228 0.153412,0.02439 0.170069,0.05379 0.170069,0.300084 0,0.289299 -0.03055,0.329905 -0.221089,0.293908 z m 0.470522,0.0047 c -0.02494,-0.02081 -0.04535,-0.148148 -0.04535,-0.283033 0,-0.234763 0.0087,-0.245245 0.204081,-0.245245 0.199547,0 0.204082,0.0064 0.204082,0.282975 0,0.258719 -0.01361,0.282975 -0.158731,0.282975 -0.08731,0 -0.179139,-0.01698 -0.204081,-0.03773 z m 0.634921,-0.238705 c 0,-0.249159 0.01659,-0.279015 0.168469,-0.303171 0.22314,-0.03549 0.239693,-0.01436 0.239693,0.306006 0,0.266206 -0.0055,0.273542 -0.204081,0.273542 -0.198896,0 -0.204081,-0.007 -0.204081,-0.276377 z m 0.657596,0.238647 c -0.02494,-0.02076 -0.04535,-0.160824 -0.04535,-0.311272 0,-0.254049 0.01212,-0.273542 0.170068,-0.273542 0.158233,0 0.170068,0.01927 0.170068,0.276918 0,0.200308 -0.02976,0.286424 -0.107612,0.311273 -0.133238,0.04253 -0.131959,0.04256 -0.187179,-0.0034 z m -2.375284,-0.114477 c -0.09445,-0.02053 -0.11905,-0.08772 -0.11905,-0.325156 0,-0.288709 0.006,-0.29832 0.170068,-0.272227 0.156319,0.02486 0.170069,0.05169 0.170069,0.33172 0,0.167571 -0.02295,0.30172 -0.05102,0.29811 -0.02805,-0.0036 -0.104588,-0.01822 -0.170068,-0.03245 z m 2.906138,-0.20718 c -0.05389,-0.298957 -0.02525,-0.353409 0.205101,-0.390044 0.165541,-0.02633 0.171074,-0.01739 0.171074,0.276216 0,0.166885 -0.02811,0.303425 -0.06246,0.303425 -0.03435,0 -0.10865,0.01474 -0.165095,0.03277 -0.07868,0.02513 -0.113362,-0.02677 -0.148617,-0.222361 z m -3.555798,-0.0481 c -0.0449,-0.03735 -0.08164,-0.166463 -0.08164,-0.286911 0,-0.194737 0.01695,-0.216995 0.153061,-0.200912 0.130613,0.01544 0.1561,0.05751 0.173794,0.28691 0.02141,0.277617 -0.06648,0.349622 -0.245223,0.200913 z m 4.217363,-0.194731 c 0.01676,-0.212337 0.05005,-0.27161 0.173794,-0.309449 0.145453,-0.04448 0.153061,-0.03313 0.153061,0.228292 0,0.198643 -0.0299,0.284643 -0.1076,0.309449 -0.207276,0.06618 -0.239823,0.03229 -0.21925,-0.228292 z m -2.499259,-0.477107 c -0.02476,-0.03335 -0.0247,-0.17341 1.36e-4,-0.311273 0.03924,-0.217683 0.06701,-0.250658 0.21108,-0.250658 0.15574,0 0.1659,0.01906 0.1659,0.311271 0,0.292287 -0.01012,0.311273 -0.166052,0.311273 -0.09134,0 -0.186318,-0.02728 -0.211081,-0.06061 z m 0.649244,-0.25066 c 0,-0.314382 0.0026,-0.318543 0.187074,-0.300881 0.176268,0.01687 0.187075,0.03425 0.187075,0.300881 0,0.266629 -0.01075,0.284011 -0.187075,0.300882 -0.184488,0.01767 -0.187074,0.0135 -0.187074,-0.300882 z m -1.22449,-0.0283 c 0,-0.26411 0.01125,-0.282974 0.170067,-0.282974 0.15873,0 0.170069,0.01886 0.170069,0.282974 0,0.26411 -0.01125,0.282975 -0.170069,0.282975 -0.158728,0 -0.170067,-0.01886 -0.170067,-0.282975 z m 1.836734,0 c 0,-0.26411 0.01125,-0.282974 0.170068,-0.282974 0.158729,0 0.170068,0.01886 0.170068,0.282974 0,0.26411 -0.01125,0.282975 -0.170068,0.282975 -0.15873,0 -0.170068,-0.01886 -0.170068,-0.282975 z m -2.329932,0.187367 c -0.09076,-0.01974 -0.11905,-0.0854 -0.11905,-0.276409 0,-0.2295 0.01428,-0.250527 0.170068,-0.250527 0.15873,0 0.170069,0.01886 0.170069,0.282974 0,0.155636 -0.02295,0.28002 -0.05102,0.276409 -0.02805,-0.0036 -0.104588,-0.01822 -0.170068,-0.03245 z m 2.903944,-0.03463 c -0.02166,-0.04695 -0.02956,-0.17057 -0.01758,-0.274697 0.01831,-0.159035 0.05173,-0.192185 0.208875,-0.207229 0.179911,-0.01722 0.187074,-0.008 0.187074,0.240529 0,0.14214 -0.02811,0.258435 -0.06246,0.258435 -0.03435,0 -0.110625,0.01538 -0.169495,0.03417 -0.0626,0.01998 -0.123375,-0.0012 -0.146411,-0.05121 z m -3.516189,-0.157271 c -0.0777,-0.03765 -0.11905,-0.126878 -0.11905,-0.256892 0,-0.174212 0.01921,-0.196937 0.153062,-0.18112 0.127237,0.01503 0.15659,0.05866 0.17398,0.258612 0.02174,0.250065 -0.0084,0.276099 -0.207994,0.1794 z m 4.179799,-0.180031 c 0.01754,-0.201485 0.0461,-0.24287 0.178366,-0.258464 0.143445,-0.01691 0.155574,2.26e-4 0.136054,0.191955 -0.01621,0.159351 -0.05957,0.222177 -0.178366,0.258465 -0.149985,0.04582 -0.15601,0.03732 -0.136054,-0.191956 z m -6.88388,-0.535278 C 12.134354,22.958188 11.223762,22.592453 10.578504,22.339029 9.405307,21.878259 9.405307,21.878259 8.596477,21.91869 7.779166,21.959575 7.5,21.934647 7.5,21.820792 c 0,-0.03432 0.19898,-0.233868 0.442176,-0.443441 0.404871,-0.348897 0.442315,-0.401802 0.4438,-0.627076 0.0019,-0.291434 0.09715,-0.662104 0.189899,-0.739277 0.117975,-0.09815 0.421,0.129062 0.628736,0.471426 0.340933,0.561883 0.517564,0.68246 1.751823,1.195883 0.624472,0.259766 1.390242,0.570006 1.701715,0.689422 0.420155,0.161086 0.583541,0.254826 0.633077,0.363219 0.09111,0.199377 0.211645,0.67834 0.183811,0.730429 -0.01251,0.02332 -0.40531,-0.115997 -0.872996,-0.309579 z m 8.91805,0.267083 c 0.0076,-0.24377 0.2269,-0.806939 0.33365,-0.856757 0.05613,-0.0262 0.821429,-0.340959 1.70068,-0.699487 1.737845,-0.708633 1.836105,-0.770081 2.172189,-1.358395 0.215426,-0.377104 0.590296,-0.664793 0.690806,-0.530149 0.08349,0.111838 0.19823,0.587306 0.19823,0.821413 0,0.170325 0.0671,0.258627 0.442178,0.581844 C 27.30102,21.586932 27.5,21.786481 27.5,21.820799 c 0,0.12788 -0.437496,0.159822 -1.294956,0.09456 -0.473825,-0.03607 -0.548519,-0.02617 -0.986395,0.130638 -1.010594,0.361924 -3.605548,1.393712 -3.652983,1.452476 -0.02749,0.03405 -0.048,-0.0017 -0.04557,-0.07958 z m -5.244581,0.01741 c -0.130953,-0.01158 -0.394833,-0.04684 -0.586401,-0.07832 -0.34731,-0.05709 -0.348425,-0.05797 -0.389885,-0.309618 -0.1079,-0.655 -0.641532,-1.08378 -1.722363,-1.383977 -0.734655,-0.204048 -0.895425,-0.298705 -1.110307,-0.653714 -0.242228,-0.400184 -0.26245,-0.959582 -0.06348,-1.755792 0.223072,-0.892636 0.21194,-1.715992 -0.03091,-2.285696 -0.234099,-0.549184 -0.301554,-1.115112 -0.160876,-1.349715 0.09812,-0.16363 0.09517,-0.179068 -0.05702,-0.29801 -0.132585,-0.103633 -0.178504,-0.113008 -0.264043,-0.05395 -0.294988,0.203676 -0.298623,1.060396 -0.0075,1.773685 0.198998,0.48761 0.275065,0.959457 0.207954,1.289928 -0.04658,0.229298 -0.0549,0.236608 -0.151255,0.132601 -0.193584,-0.208966 -0.569646,-0.937881 -0.707961,-1.372229 -0.0984,-0.308985 -0.140483,-0.624978 -0.144721,-1.086537 -0.0051,-0.569339 0.01736,-0.707538 0.180367,-1.103601 0.575099,-1.397316 1.727686,-2.227596 3.647871,-2.627784 1.951179,-0.406649 3.911538,-0.359422 5.744603,0.13839 0.943069,0.256115 1.255609,0.410606 1.879819,0.929217 0.466588,0.387654 0.640427,0.581328 0.867,0.965931 0.41157,0.698631 0.517576,1.090304 0.513138,1.89593 -0.0031,0.575204 -0.0311,0.748428 -0.182487,1.131899 -0.177295,0.449084 -0.61147,1.1036 -0.732078,1.1036 -0.03452,0 -0.06279,-0.190703 -0.06279,-0.423785 0,-0.311045 0.05289,-0.563234 0.198785,-0.947965 0.279982,-0.738293 0.306065,-1.410251 0.06739,-1.735968 -0.141486,-0.193078 -0.141486,-0.193078 -0.299745,-0.0283 -0.110975,0.115561 -0.13787,0.185323 -0.09001,0.23354 0.143365,0.144423 0.06628,0.910419 -0.147518,1.465657 -0.261351,0.678775 -0.267576,1.151638 -0.0291,2.21123 0.191025,0.848773 0.189368,1.307361 -0.0061,1.696621 -0.191663,0.381627 -0.438025,0.521206 -1.471513,0.8337 -0.554423,0.16764 -1.024664,0.481564 -1.232354,0.822695 -0.102888,0.169 -0.187075,0.389867 -0.187075,0.490816 0,0.157949 -0.03171,0.192254 -0.227461,0.245999 -0.511285,0.140382 -2.321922,0.21495 -3.241927,0.133515 z m 0.816326,-1.234196 c 0.165238,-0.140067 0.34891,-0.254673 0.40816,-0.254673 0.05925,0 0.242923,0.114615 0.408164,0.254678 0.377019,0.319595 0.578354,0.33598 0.717756,0.05841 0.22049,-0.439021 0.07773,-1.195433 -0.319874,-1.694823 -0.216001,-0.271298 -0.678741,-0.599089 -0.845732,-0.599089 -0.16894,0 -0.78364,0.564991 -0.956539,0.879184 -0.226556,0.411698 -0.29348,1.090025 -0.138004,1.398762 0.148324,0.294532 0.34189,0.283215 0.726065,-0.04245 z m -2.008069,-1.78223 c 0.409157,-0.164783 1.319943,-1.200733 1.4268,-1.622878 0.05939,-0.234587 -0.0626,-0.599971 -0.265785,-0.796162 -0.144638,-0.139658 -0.204911,-0.155815 -0.558893,-0.149825 -0.600147,0.01021 -1.941588,0.187669 -2.111409,0.279403 -0.260136,0.140521 -0.42823,0.324359 -0.500366,0.547229 -0.0619,0.191251 -0.04167,0.274823 0.178702,0.738168 0.293226,0.616521 0.596181,0.913936 1.049389,1.030199 0.412042,0.105712 0.458035,0.104168 0.781562,-0.02614 z m 5.807727,-0.0256 c 0.3322,-0.144828 0.609685,-0.452542 0.854842,-0.94797 0.279443,-0.564721 0.285494,-0.614018 0.11395,-0.928275 -0.20306,-0.371978 -0.455462,-0.463304 -1.644151,-0.59489 -0.851498,-0.09426 -1.069855,-0.102126 -1.236875,-0.04458 -0.50185,0.172939 -0.611883,0.786312 -0.244053,1.360452 0.284457,0.444007 0.920235,1.070239 1.215378,1.197124 0.259922,0.111751 0.625915,0.09546 0.940915,-0.04187 z"
       id="path451" />
    <path
       style="fill:#ffffff;stroke:#fbffff;stroke-width:1.00544;stroke-linecap:butt;stroke-linejoin:miter;stroke-miterlimit:4;stroke-dasharray:none;stroke-opacity:1"
       d="M 12.097354,90.564497 5.4235468,80.27082"
       id="path302" />
    <path
       style="fill:#ffffff;stroke:#fbffff;stroke-width:1.00544;stroke-linecap:butt;stroke-linejoin:miter;stroke-miterlimit:4;stroke-dasharray:none;stroke-opacity:1"
       d="M 23.921822,90.564497 30.595629,80.27082"
       id="path302-3" />
    <path
       id="rect179-7-2-7-6"
       style="fill:#000000;stroke-width:0.175193"
       d="m 12.5,73.499989 h 11 v 11 h -11 z" />
    <g
       aria-label="eob"
       id="text1169"
       style="font-size:3.52777px;line-height:1.25;font-family:sans-serif;fill:#ffffff;stroke-width:0.264583"
       transform="matrix(0.80899761,0,0,0.73253821,3.7857005,22.70703)">
      <path
         d="m 16.06723,86.534637 v 0.155029 h -1.457272 q 0.02067,0.327284 0.19637,0.499538 0.177422,0.170532 0.492648,0.170532 0.182589,0 0.353121,-0.04479 0.172255,-0.04479 0.341064,-0.134359 v 0.299723 q -0.170532,0.07235 -0.349676,0.110243 -0.179145,0.0379 -0.363457,0.0379 -0.461642,0 -0.732081,-0.268717 -0.268717,-0.268717 -0.268717,-0.726914 0,-0.473699 0.254936,-0.751029 0.256659,-0.279052 0.69074,-0.279052 0.389295,0 0.614949,0.251491 0.227375,0.249769 0.227375,0.680405 z m -0.316948,-0.09302 q -0.0034,-0.260104 -0.146416,-0.415133 -0.141248,-0.155029 -0.375514,-0.155029 -0.265272,0 -0.425469,0.149861 -0.158474,0.149861 -0.182589,0.422023 z"
         style="fill:#ffffff;stroke-width:0.264583"
         id="path1171" />
      <path
         d="m 17.335023,85.871458 q -0.254937,0 -0.403076,0.199815 -0.148138,0.198092 -0.148138,0.544324 0,0.346231 0.146416,0.546046 0.148139,0.198093 0.404798,0.198093 0.253214,0 0.401353,-0.199815 0.148138,-0.199815 0.148138,-0.544324 0,-0.342786 -0.148138,-0.542602 -0.148139,-0.201537 -0.401353,-0.201537 z m 0,-0.268717 q 0.41341,0 0.649399,0.268717 0.235988,0.268717 0.235988,0.744139 0,0.473699 -0.235988,0.744139 -0.235989,0.268717 -0.649399,0.268717 -0.415133,0 -0.651122,-0.268717 -0.234266,-0.27044 -0.234266,-0.744139 0,-0.475422 0.234266,-0.744139 0.235989,-0.268717 0.651122,-0.268717 z"
         style="fill:#ffffff;stroke-width:0.264583"
         id="path1173" />
      <path
         d="m 20.130712,86.615597 q 0,-0.349677 -0.144694,-0.547769 -0.142971,-0.199815 -0.394463,-0.199815 -0.251491,0 -0.396185,0.199815 -0.142971,0.198092 -0.142971,0.547769 0,0.349676 0.142971,0.549491 0.144694,0.198093 0.396185,0.198093 0.251492,0 0.394463,-0.198093 0.144694,-0.199815 0.144694,-0.549491 z m -1.078313,-0.673515 q 0.09991,-0.172254 0.251492,-0.254936 0.153306,-0.08441 0.365179,-0.08441 0.351399,0 0.570162,0.279052 0.220486,0.279052 0.220486,0.733804 0,0.454751 -0.220486,0.733803 -0.218763,0.279053 -0.570162,0.279053 -0.211873,0 -0.365179,-0.08268 -0.151584,-0.08441 -0.251492,-0.25666 v 0.289388 h -0.31867 V 84.89822 h 0.31867 z"
         style="fill:#ffffff;stroke-width:0.264583"
         id="path1175" />
    </g>
  </g>
</svg>
