<?xml version="1.0" encoding="UTF-8" standalone="no"?>
<!-- Created with Inkscape (http://www.inkscape.org/) -->

<svg
   width="389.99582mm"
   height="191.55833mm"
   viewBox="0 0 389.99582 191.55833"
   version="1.1"
   id="svg939"
   inkscape:version="1.1 (c4e8f9ed74, 2021-05-24)"
   sodipodi:docname="wasp.svg"
   xmlns:inkscape="http://www.inkscape.org/namespaces/inkscape"
   xmlns:sodipodi="http://sodipodi.sourceforge.net/DTD/sodipodi-0.dtd"
   xmlns="http://www.w3.org/2000/svg"
   xmlns:svg="http://www.w3.org/2000/svg">
  <sodipodi:namedview
     id="namedview941"
     pagecolor="#ffffff"
     bordercolor="#666666"
     borderopacity="1.0"
     inkscape:pageshadow="2"
     inkscape:pageopacity="0.0"
     inkscape:pagecheckerboard="0"
     inkscape:document-units="mm"
     showgrid="false"
     fit-margin-top="0"
     fit-margin-left="0"
     fit-margin-right="0"
     fit-margin-bottom="0"
     inkscape:zoom="0.24632085"
     inkscape:cx="1077.8625"
     inkscape:cy="440.48241"
     inkscape:window-width="1366"
     inkscape:window-height="768"
     inkscape:window-x="0"
     inkscape:window-y="0"
     inkscape:window-maximized="1"
     inkscape:current-layer="layer1" />
  <defs
     id="defs936" />
  <g
     inkscape:label="Layer 1"
     inkscape:groupmode="layer"
     id="layer1"
     transform="translate(47.450188,-35.924316)">
    <path
       style="fill:#000000;stroke-width:0.264583"
       d="m 101.524,218.81374 c -0.31988,-0.25143 -0.82167,-1.02269 -1.11508,-1.71391 -0.58389,-1.37554 -0.56837,-1.36698 -1.82515,-1.00654 -0.73282,0.21017 -0.95983,0.1629 -1.41803,-0.29529 -0.45229,-0.4523 -0.52327,-0.77705 -0.41535,-1.9002 0.10716,-1.11529 0.26453,-1.44882 0.8906,-1.88751 0.41824,-0.29307 1.58555,-1.35255 2.59401,-2.35441 1.00847,-1.00185 2.55628,-2.34851 3.43959,-2.99257 0.8833,-0.64407 2.49898,-2.05 3.59038,-3.12431 4.33608,-4.26813 8.93321,-8.23566 10.62779,-9.17224 1.11792,-0.61787 3.13055,-2.77684 3.13055,-3.35817 0,-0.98617 -1.49839,-1.80328 -5.15938,-2.81355 -1.69716,-0.46835 -2.11667,-0.68364 -2.11667,-1.08628 0,-0.37325 0.27168,-0.55793 1.05834,-0.71943 2.4832,-0.50979 2.39052,-0.42056 2.29768,-2.21195 -0.0803,-1.54975 -0.0464,-1.64856 0.87015,-2.53874 1.31633,-1.27841 1.99154,-3.69352 1.99154,-7.12343 0,-1.41245 0.13389,-2.90111 0.29753,-3.30814 0.16364,-0.40703 0.39979,-0.97818 0.52478,-1.26922 1.31,-3.05037 2.0894,-5.63693 2.09963,-6.96801 0.006,-0.82426 0.13298,-2.03444 0.28143,-2.68928 0.14845,-0.65484 0.36813,-1.87286 0.48818,-2.7067 0.12005,-0.83385 0.48501,-2.02447 0.81103,-2.64584 0.32602,-0.62136 0.68517,-1.4468 0.79813,-1.83429 0.27882,-0.95651 -0.33721,-1.809 -1.30722,-1.809 -0.40646,0 -3.46557,0.78303 -6.79802,1.74006 -11.42983,3.2825 -16.91567,4.82688 -21.40484,6.02589 -0.87312,0.23321 -4.56406,1.14488 -8.20208,2.02593 -3.63802,0.88106 -7.2099,1.77061 -7.9375,1.97679 -2.86418,0.8116 -4.80943,1.43695 -5.82083,1.87126 -0.59057,0.2536 -1.62473,0.43613 -2.33981,0.41299 -0.70481,-0.0228 -1.89543,0.12944 -2.64583,0.33834 -6.12082,1.70394 -6.52374,1.76373 -6.52374,0.96803 0,-0.96756 1.56657,-1.80211 4.77194,-2.54214 4.59028,-1.05977 4.8025,-1.195 6.41157,-4.0859 0.75738,-1.36072 1.93266,-1.92985 3.87519,-1.87656 1.34267,0.0368 1.87463,0.37582 1.87463,1.19458 0,0.78828 0.48864,1.21114 1.39954,1.21114 0.688,0 6.32437,-1.27789 11.56505,-2.62205 1.0914,-0.27993 2.75828,-0.70207 3.70416,-0.93809 2.85851,-0.71327 8.49028,-2.27334 10.31875,-2.85843 0.94589,-0.30268 2.96995,-0.86888 4.49792,-1.25825 1.52797,-0.38935 4.20687,-1.14807 5.95312,-1.68603 1.74625,-0.53797 3.71078,-1.0924 4.36563,-1.23208 1.98425,-0.42323 3.87712,-1.2996 4.15287,-1.9227 1.27746,-2.88664 2.19773,-6.91589 2.338,-10.23653 0.0386,-0.9126 0.31875,-1.99782 0.75146,-2.91042 0.3795,-0.80036 0.69116,-1.71535 0.69258,-2.0333 0.004,-0.8145 -0.4771,-2.0119 -0.9534,-2.37467 -0.22164,-0.16882 -1.31761,-1.18428 -2.43548,-2.25659 -1.11787,-1.07231 -2.28414,-2.12482 -2.59171,-2.3389 -0.67766,-0.47169 -1.68739,-2.07459 -1.68875,-2.68083 -5.3e-4,-0.24173 -0.38794,-0.76615 -0.86089,-1.16539 -1.99189,-1.68148 -4.12346,-2.07102 -7.10498,-1.29843 -1.36517,0.35375 -1.64948,0.35646 -2.28714,0.0218 -0.96019,-0.50392 -2.54137,-2.18609 -3.1034,-3.30162 -0.24703,-0.4903 -0.8343,-1.4428 -1.30503,-2.11666 -1.13058,-1.61845 -2.69972,-4.71682 -2.92266,-5.77099 -0.0979,-0.46288 -0.33188,-0.96933 -0.51998,-1.12544 -0.59519,-0.49396 -1.98266,-0.0116 -2.71016,0.94219 -0.51154,0.67065 -0.81807,0.85244 -1.25322,0.74323 -0.88182,-0.22133 -2.01061,0.3097 -2.01061,0.94586 0,0.61803 0.70554,1.82462 1.34454,2.29938 0.56409,0.41911 0.85414,3.7716 0.49458,5.71663 -0.46314,2.50533 -1.46353,4.64501 -2.86414,6.12596 -0.71635,0.75743 -1.62534,2.02214 -2.01998,2.81047 -0.90794,1.81369 -1.58639,2.55312 -2.53339,2.76112 -0.41219,0.0905 -1.10647,0.57124 -1.54284,1.06824 -0.43638,0.49701 -0.92092,0.93513 -1.07676,0.9736 -0.38663,0.0955 -0.56787,-5.43627 -0.22254,-6.792 0.34254,-1.34475 1.96494,-3.7255 3.431,-5.03474 1.54025,-1.37549 1.79047,-1.86641 1.82549,-3.58142 0.0163,-0.80037 0.17923,-1.93146 0.36197,-2.51355 0.28922,-0.92121 0.26699,-1.22973 -0.17154,-2.38125 -0.6356,-1.66895 -0.80824,-1.83843 -1.49713,-1.46975 -0.30734,0.16449 -1.17331,0.35928 -1.92436,0.43289 -0.75106,0.0736 -1.45357,0.18821 -1.56114,0.2547 -0.10757,0.0665 -0.6944,-0.29589 -1.30408,-0.80525 -0.60967,-0.50937 -1.20819,-0.92612 -1.33003,-0.92612 -0.12184,0 -0.47357,0.35396 -0.78163,0.78658 l -0.56009,0.78658 -1.37615,-0.95986 c -0.75689,-0.52792 -2.5239,-2.16628 -3.9267,-3.64082 -1.4028,-1.47453 -3.02634,-3.01068 -3.60786,-3.41368 -0.77788,-0.53907 -1.13972,-1.02706 -1.36914,-1.84648 -0.17151,-0.61257 -0.93152,-1.945242 -1.68892,-2.961482 -1.2119,-1.62609 -1.54606,-1.90204 -2.78583,-2.30059 -1.26274,-0.40594 -1.47172,-0.41161 -2.01635,-0.0548 -0.46964,0.30772 -0.64762,0.74097 -0.78383,1.90808 -0.22211,1.902982 -0.59311,3.096472 -1.09102,3.509702 -0.5759,0.47795 -1.43671,-0.39601 -1.43671,-1.45865 0,-2.176452 -2.12195,-1.817642 -2.27667,0.38496 -0.35319,5.02817 -0.40544,5.25838 -1.46737,6.46479 -0.95328,1.08298 -1.01846,1.26462 -1.01846,2.83797 0,2.31842 -0.29137,3.14403 -1.85292,5.25045 -1.139923,1.53767 -1.57021,1.90577 -2.738819,2.34301 -2.426893,0.90801 -3.950472,1.96019 -4.861409,3.35728 -0.469805,0.72052 -1.203515,1.78629 -1.630471,2.36838 -0.844706,1.15161 -3.742089,7.51859 -4.282048,9.40977 -0.184288,0.64546 -0.833776,2.36418 -1.443307,3.81939 -0.609532,1.45521 -1.750068,4.60658 -2.534529,7.00305 l -1.426289,4.35721 -2.513542,2.65784 c -1.382448,1.46182 -2.809917,3.21975 -3.172155,3.90652 l -0.658614,1.24866 0.569862,0.56986 0.569862,0.56987 2.695654,-1.35911 c 1.482612,-0.74751 2.843713,-1.35911 3.024667,-1.35911 0.632531,0 1.997808,0.83588 1.997808,1.22315 0,1.46012 -1.692633,2.60359 -2.898606,1.95817 -0.564351,-0.30203 -2.291887,-0.11949 -2.53102,0.26744 -0.315389,0.51031 -4.868815,2.5782 -6.002091,2.72579 -1.368134,0.17818 -1.709899,-0.0577 -1.271209,-0.87741 0.230952,-0.43154 0.205562,-0.53464 -0.131654,-0.53464 -0.22978,0 -0.389221,-0.14882 -0.354314,-0.33073 0.03491,-0.1819 -0.02524,-0.59173 -0.133668,-0.91074 -0.239837,-0.70565 0.287652,-1.58827 3.097339,-5.18261 2.819011,-3.60627 3.375824,-4.7973 3.65624,-7.82073 0.36811,-3.96894 1.532374,-6.82253 5.916816,-14.50199 1.231816,-2.15756 2.239666,-4.0321 2.239666,-4.16564 0,-0.13355 0.322824,-0.66606 0.717384,-1.18335 0.623882,-0.81796 0.710909,-1.15911 0.667689,-2.61745 -0.106431,-3.59141 2.299798,-7.22244 6.209323,-9.36995 2.957211,-1.6244 4.357418,-3.51796 5.489099,-7.42316 0.364834,-1.25896 0.9036,-2.6831 1.197263,-3.16477 0.293661,-0.48166 0.534377,-1.20317 0.534919,-1.60335 7.94e-4,-0.6041 -0.113723,-0.727612 -0.674817,-0.727612 -0.394245,0 -1.028089,0.338352 -1.521354,0.812092 -1.139381,1.0943 -1.810621,1.3237 -3.36632,1.15048 -1.170424,-0.13033 -1.315686,-0.0906 -1.315686,0.35967 0,0.89258 -0.900374,1.45443 -2.033992,1.26925 -0.554794,-0.0906 -1.425435,-0.0353 -1.934758,0.12304 -2.095709,0.65136 -6.174446,1.57714 -6.948437,1.57714 -3.470775,0 -9.258281,-1.50477 -11.842196,-3.079 -0.803236,-0.48936 -1.64523,-0.88975 -1.871097,-0.88975 -0.66412,0 -2.919809,-0.78767 -4.267485,-1.490172 -1.127062,-0.58751 -1.359318,-0.62137 -2.378824,-0.34685 -0.6214,0.16733 -1.457518,0.53758 -1.858042,0.822772 -0.882618,0.62848 -1.261001,0.44923 -1.261001,-0.597372 0,-1.16354 0.605703,-2.31549 2.068378,-3.93374 l 1.305467,-1.44433 2.480265,0.33835 c 4.429807,0.60428 5.910341,0.87265 6.449015,1.16899 0.291041,0.16012 1.243541,0.31061 2.116666,0.33444 0.873125,0.0238 1.825625,0.0905 2.116667,0.14822 0.873405,0.17314 0.532029,-1.30796 -0.561274,-2.43515 -0.720222,-0.74255 -0.88814,-1.09509 -0.761645,-1.59908 0.112921,-0.44992 0.0092,-0.78505 -0.341051,-1.10202 -0.477441,-0.43208 -0.538176,-0.42809 -1.181201,0.0777 -0.770231,0.60586 -1.460029,0.66996 -2.434047,0.22616 -0.995101,-0.4534 -0.99291,-1.25008 0.0062,-2.24918 0.35355,-0.35355 0.642819,-0.791 0.642819,-0.97211 0,-0.18111 -0.46268,-0.84055 -1.028174,-1.46541 -0.565496,-0.62487 -1.233352,-1.63214 -1.484122,-2.23837 -0.752141,-1.8183 -0.910233,-2.12167 -1.594411,-3.0596 -0.360685,-0.49447 -0.655793,-1.19309 -0.655793,-1.55249 0,-0.81178 -1.827104,-2.70787 -2.609353,-2.70787 -0.305215,0 -1.034325,0.19182 -1.620239,0.42625 -0.986954,0.3949 -1.115396,0.39342 -1.74652,-0.0201 -0.981004,-0.64277 -1.432221,-0.35575 -1.432221,0.91106 0,0.78062 -0.155409,1.19351 -0.575757,1.52966 -1.420768,1.13618 -4.517721,4.027 -6.7002852,6.25432 -1.309687,1.33655 -2.8575,2.84768 -3.439583,3.35809 -0.582084,0.5104 -1.458156,1.39845 -1.946828,1.97343 -0.488675,0.57498 -2.081959,2.25968 -3.54063004,3.74378 -1.458675,1.4841 -2.90432096,3.11215 -3.21254696,3.6179 -0.308227,0.50574 -1.751036,2.153912 -3.206245,3.662592 -1.455208,1.50868 -3.241146,3.56091 -3.96875,4.56051 -0.7276038,0.9996 -1.8877878,2.36389 -2.5781868,3.03176 -0.690398,0.66787 -1.642898,1.76874 -2.116666,2.44637 -1.716352,2.45492 -2.739422,3.78397 -4.102542,5.32952 -0.763984,0.86623 -1.389062,1.68343 -1.389062,1.81598 0,0.13256 -0.590159,1.08137 -1.311463,2.10848 -0.721307,1.0271 -1.493779,2.49459 -1.716606,3.26109 -0.222827,0.7665 -0.584436,1.73743 -0.803574,2.15763 -0.219136,0.42019 -0.399164,1.16352 -0.400061,1.65184 -7.93e-4,0.48832 -0.175339,1.55988 -0.38765,2.38125 -0.470373,1.81973 -0.355348,5.76925 0.214193,7.35454 0.217087,0.60425 0.685005,1.55675 1.039817,2.11666 0.354811,0.55992 0.960231,1.57624 1.345374,2.2585 0.391343,0.69325 1.387721,1.78058 2.258616,2.46479 1.448289,1.13784 2.10249,2.07263 2.894234,4.13556 0.362019,0.94326 3.058205,2.97462 4.678106,3.52459 1.419349,0.48187 3.0369298,1.38951 3.0369298,1.70404 0,0.39038 2.084144,1.27853 3.571875,1.52214 0.814911,0.13344 1.44876,0.39765 4.91452596,2.04855 1.102262,0.52506 2.23335604,0.95517 2.51354204,0.9558 0.280188,5.3e-4 1.342869,0.29578 2.361515,0.65588 1.018645,0.3601 2.042149,0.65724 2.274453,0.66031 0.652677,0.009 2.091653,0.80111 2.087121,1.14943 -0.0131,1.00654 -1.806149,1.53629 -3.470831,1.02546 -5.86023704,-1.79832 -8.315393,-2.64754 -9.80078,-3.38999 -0.97146,-0.48557 -2.638335,-1.11718 -3.704167,-1.40359 -2.5576738,-0.68728 -5.4495028,-2.00641 -6.4357958,-2.93573 -0.858578,-0.80899 -4.538778,-2.89688 -5.116848,-2.90295 -0.442444,-0.005 -7.518016,-4.04697 -8.773776,-5.01252 -0.509323,-0.39162 -1.784614,-1.26979 -2.833979,-1.9515 -2.799964,-1.81896 -7.014387,-5.28238 -8.187398,-6.72842 -1.580574,-1.94846 -3.430464,-4.81463 -4.232772,-6.55814 -1.341329,-2.91487 -1.312381,-9.07193 0.05981,-12.72112 0.796658,-2.11863 2.792353,-5.96726 3.690177,-7.11639 2.331527,-2.98414 5.737017,-5.95455 8.35751,-7.28977 1.197642,-0.61024 2.429172,-1.59078 5.491186,-4.37206 0.973463,-0.884222 2.362224,-1.944962 3.086138,-2.357222 0.723913,-0.41225 1.851985,-1.18564 2.506829,-1.71864 1.196136,-0.97358 2.871501,-1.91577 4.960937,-2.78994 0.708427,-0.29639 1.124479,-0.63984 1.124479,-0.92828 0,-0.49806 3.316883,-3.09063 5.1197028,-4.0017 1.194104,-0.60345 3.885015,-2.4749 4.921856,-3.42301 0.356867,-0.32633 1.593416,-1.17303 2.747885,-1.88158 1.15446696,-0.70854 2.58055796,-1.70042 3.169087,-2.20418 0.588528,-0.50375 1.165378,-0.91592 1.281888,-0.91592 0.116512,0 1.222065,-0.47996 2.456783,-1.06657 1.23472,-0.58661 3.027905,-1.25979 3.984858,-1.49594 1.2973792,-0.32016 1.8680402,-0.60931 2.2436852,-1.13685 0.277077,-0.38912 0.986507,-1.19022 1.576514,-1.78023 0.677487,-0.67749 1.07274,-1.31463 1.07274,-1.72924 0,-0.85983 1.148202,-1.9852 2.350524,-2.30378 0.526222,-0.13943 1.861629,-0.3641 2.967569,-0.49926 3.080076,-0.37642 3.135149,-0.43017 3.097567,-3.02297 -0.04691,-3.23624 0.87213,-4.56943 4.416631,-6.4069 1.018646,-0.52807 2.14974,-1.23864 2.513542,-1.57905 1.553017,-1.45316 3.226469,-2.18962 5.358709,-2.35827 2.049092,-0.16207 2.052243,-0.16132 2.778125,0.66555 0.39969,0.45529 1.324033,1.09488 2.054098,1.4213 0.730065,0.32642 1.829811,1.01325 2.443882,1.52629 1.258477,1.05143 1.93421,1.04891 2.658483,-0.01 0.449374,-0.65695 1.65967,-2.09754 2.46348,-2.93224 0.234611,-0.24363 0.492707,-0.96041 0.573542,-1.59285 0.197292,-1.54355 1.856285,-3.54411 3.130566,-3.77512 0.493022,-0.0894 1.432187,-0.41418 2.087031,-0.72179 0.654844,-0.30761 1.508159,-0.56191 1.896255,-0.5651 0.388096,-0.003 1.459659,-0.40472 2.38125,-0.89227 2.349474,-1.24294 6.892629,-1.73896 7.865279,-0.85872 0.53931,0.48807 2.09379,0.55467 3.02656,0.12967 0.87351,-0.39799 3.29083,0.30916 4.13746,1.21036 0.69059,0.73509 1.22984,0.82489 2.22652,0.37077 0.48927,-0.22292 1.384,-0.2199 3.51818,0.0119 1.57412,0.17097 3.87407,0.36703 5.11099,0.43569 2.42614,0.13467 5.35048,0.68531 7.67292,1.44478 1.56355,0.5113 4.93335,0.65343 12.7,0.53564 2.25557,-0.0342 5.52979,-0.0827 7.27604,-0.10776 2.15311,-0.0309 3.38709,-0.16458 3.83395,-0.41533 0.88707,-0.49777 1.45922,-0.57281 5.16188,-0.67695 3.98791,-0.11216 11.25945,-0.79182 12.9052,-1.20623 0.68546,-0.1726 2.0508,-0.25713 3.03409,-0.18784 0.98328,0.0693 2.74029,-0.0311 3.90446,-0.22307 1.17644,-0.194 5.17241,-0.40233 8.99583,-0.46901 3.78355,-0.066 8.78417,-0.20813 11.1125,-0.31588 4.97049,-0.23002 9.65472,-0.2205 19.97604,0.0406 7.51746,0.19015 10.57533,0.2176 17.5948,0.15789 4.02567,-0.0342 6.59735,0.25602 8.86354,1.00041 0.80036,0.2629 2.4077,0.68063 3.57187,0.92827 1.16417,0.24765 2.65245,0.57598 3.30729,0.72962 0.65485,0.15364 2.26219,0.30634 3.57188,0.33932 1.41203,0.0356 3.23614,0.28942 4.48159,0.62367 1.20597,0.32365 2.896,0.56371 3.96875,0.56374 1.02764,2e-5 2.80162,0.17862 3.94221,0.39687 1.14059,0.21826 2.7699,0.39683 3.62072,0.39683 1.8057,0 4.82735,0.58998 6.81696,1.33102 0.76944,0.28659 2.00258,0.52106 2.74026,0.52106 1.18335,0 2.67642,0.26859 6.08616,1.09483 0.53073,0.12861 1.03632,0.41976 1.12353,0.64701 0.21341,0.55612 -0.24704,1.35888 -0.89789,1.56546 -0.29136,0.0925 -0.6645,0.41997 -0.82926,0.72779 -0.2513,0.46959 -0.20397,0.63704 0.29419,1.04042 0.32652,0.26441 0.75234,0.48074 0.94626,0.48074 0.63754,0 1.16853,1.05049 0.8663,1.71382 -0.46781,1.02676 -1.66786,1.3636 -4.58478,1.28691 -2.29868,-0.0604 -6.18882,-0.77251 -7.0172,-1.28449 -0.13415,-0.0829 -0.52949,0.0364 -0.87853,0.2651 -0.68304,0.44755 -1.67454,0.53444 -2.97262,0.26051 -0.67934,-0.14336 -0.88632,-0.0617 -1.24973,0.49289 -0.58475,0.89246 -1.31786,1.08132 -2.27536,0.58619 -0.43659,-0.22578 -1.48434,-0.41699 -2.32831,-0.42492 -0.84399,-0.008 -2.3432,-0.21844 -3.33158,-0.4678 -1.402,-0.3537 -1.86917,-0.59775 -2.12492,-1.11006 -0.27646,-0.55384 -0.47157,-0.63798 -1.24561,-0.53727 -1.2483,0.16242 -2.09214,0.14362 -4.9527,-0.11035 -1.42328,-0.12636 -2.44388,-0.11836 -2.43899,0.0191 0.0175,0.49146 0.71266,1.13412 1.41836,1.31124 0.92794,0.2329 1.19099,0.87599 0.55004,1.34467 -0.74232,0.54278 -1.98864,0.42407 -3.16744,-0.30168 -1.9168,-1.18012 -2.74213,-1.45635 -4.35132,-1.45635 -1.26422,0 -1.99565,-0.18983 -3.56814,-0.92605 -1.08787,-0.50932 -2.14765,-0.92604 -2.35508,-0.92604 -0.20742,0 -1.0412,-0.30402 -1.85284,-0.6756 -1.06942,-0.4896 -1.71561,-0.6308 -2.34708,-0.51288 -0.47925,0.0895 -2.8359,0.19377 -5.23699,0.23171 -3.97413,0.0628 -4.55544,0.13434 -6.48227,0.79779 -1.32567,0.45645 -2.38855,0.67177 -2.84427,0.57618 -0.4002,-0.0839 -1.07072,-0.22359 -1.49005,-0.31034 -1.02586,-0.21222 -1.19466,0.17486 -0.7051,1.61683 0.22506,0.66287 0.40919,1.59081 0.40919,2.06208 0,0.71431 0.30709,1.15266 1.8458,2.63482 1.01519,0.97787 2.09219,2.26093 2.39334,2.85122 0.30115,0.5903 1.47199,2.46633 2.60187,4.16896 1.12987,1.70263 2.45073,3.81007 2.93522,4.68319 0.48449,0.87313 1.38449,2.36141 1.99999,3.30729 1.61644,2.48411 6.48337,12.23037 6.48121,12.97893 -5.3e-4,0.22618 0.35124,0.96694 0.78199,1.64616 0.43075,0.67922 1.04604,1.863392 1.36731,2.631492 0.32128,0.7681 0.72943,1.57514 0.90702,1.79342 0.17757,0.21829 0.58081,0.99219 0.89609,1.7198 0.31527,0.7276 0.67652,1.56104 0.80278,1.85208 0.12627,0.29104 0.72373,1.60073 1.32769,2.91042 0.60397,1.30968 1.20544,2.94672 1.33661,3.63785 0.13116,0.69113 0.40426,1.5841 0.60688,1.98438 0.20261,0.40027 0.44954,1.20402 0.54871,1.7861 0.0992,0.58208 0.41335,1.77271 0.69815,2.64583 1.54834,4.7468 1.83805,6.14568 1.8436,8.90181 0.003,1.50692 0.16492,3.50081 0.35974,4.43087 0.28316,1.35178 0.28974,1.90908 0.0328,2.77812 -0.17678,0.59792 -0.39187,2.37321 -0.47797,3.94509 -0.13054,2.383 -0.0913,2.88301 0.2361,3.00864 0.21595,0.0829 3.03736,0.0109 6.2698,-0.15984 6.23017,-0.32918 15.27519,-0.66107 25.72089,-0.94379 8.17568,-0.22128 15.54165,-0.55947 19.71146,-0.905 8.9072,-0.7381 24.75738,-0.86471 34.66041,-0.27686 2.54662,0.15117 7.54724,0.3901 11.1125,0.53095 3.56526,0.14086 8.86354,0.42781 11.77396,0.63768 2.91042,0.20987 6.48229,0.46323 7.9375,0.56304 1.79517,0.12312 3.1137,0.37326 4.10104,0.77798 0.80037,0.32809 1.95025,0.67806 2.5553,0.77774 0.60502,0.0997 1.31939,0.3445 1.58749,0.54407 0.47215,0.35149 0.47086,0.39438 -0.0417,1.36993 -0.59052,1.12385 -0.52789,1.10488 -5.61033,1.6996 -1.95051,0.22824 -4.59433,0.25229 -9.525,0.0867 -3.7538,-0.12609 -7.53946,-0.20089 -8.41258,-0.16621 -0.87313,0.0347 -7.06438,0.0897 -13.75833,0.1222 -14.08211,0.0684 -20.60956,0.32107 -32.01459,1.23903 -1.74625,0.14055 -5.31812,0.30986 -7.9375,0.37624 -4.32564,0.10962 -7.76766,0.25134 -13.75833,0.56648 -1.16417,0.0612 -10.80823,0.14543 -21.43125,0.18709 -14.54359,0.057 -19.47797,-0.002 -19.97604,-0.23978 -0.3638,-0.17353 -1.2141,-0.50695 -1.88956,-0.74092 -0.67545,-0.23396 -1.89768,-1.01133 -2.71605,-1.72747 -0.81838,-0.71614 -1.99214,-1.65107 -2.60836,-2.07762 -1.42361,-0.98544 -2.05626,-1.69548 -2.98065,-3.34531 -1.06997,-1.90966 -1.68617,-2.51354 -2.56479,-2.51354 -0.41851,0 -2.15392,0.37777 -3.85648,0.83948 -2.54758,0.69088 -3.58736,0.8401 -5.87369,0.84297 -2.38505,0.003 -2.94659,-0.0829 -3.96875,-0.60686 -0.65485,-0.33569 -1.60735,-0.81997 -2.11667,-1.07618 -2.4347,-1.22475 -4.2832,-1.16622 -8.20208,0.25971 -1.23693,0.45007 -2.96334,1.00137 -3.83646,1.22511 -1.89607,0.48588 -2.77813,1.00679 -2.77813,1.64067 0,0.52497 2.00468,2.55462 3.49293,3.53644 1.48273,0.97818 6.27076,5.48569 6.69165,6.29961 0.48769,0.94307 0.25252,1.74934 -0.9015,3.09078 -0.52179,0.60652 -1.36542,2.07776 -1.87474,3.26941 -0.79189,1.85276 -1.27386,2.52191 -3.32692,4.61895 -1.61532,1.64994 -2.82275,2.63894 -3.69027,3.02268 -0.70917,0.3137 -2.02461,1.25127 -2.92321,2.08348 -3.4189,3.16634 -5.05994,4.49223 -6.59606,5.32932 -0.87312,0.4758 -2.18281,1.40654 -2.91042,2.06833 -0.7276,0.66178 -2.16787,1.75162 -3.2006,2.42186 -2.18149,1.41578 -4.68556,3.20825 -6.32266,4.5259 -0.6328,0.50933 -2.38035,1.91288 -3.88344,3.11902 -1.50308,1.20613 -3.72335,2.99207 -4.93393,3.96875 -5.31476,4.28786 -6.36421,5.02418 -8.13773,5.70965 -1.24394,0.48078 -2.52047,1.27951 -3.97656,2.48815 -7.13542,5.92278 -11.09354,9.7598 -11.47145,11.12048 -0.14944,0.53808 -0.27238,1.18579 -0.27319,1.43935 -7.9e-4,0.25356 -0.52689,1.50371 -1.16907,2.77812 -0.64217,1.27441 -1.41248,3.01713 -1.7118,3.87271 -0.97481,2.78644 -1.6217,3.31567 -2.86158,2.34112 z m 22.38833,-32.64146 c 0.81213,-0.45715 2.15623,-1.29164 2.98688,-1.85442 0.83065,-0.56277 1.80428,-1.135 2.1636,-1.27162 0.35933,-0.13662 1.58471,-0.83167 2.72306,-1.54456 1.13835,-0.71289 3.02223,-1.8047 4.18639,-2.42623 1.16417,-0.62154 2.3548,-1.34192 2.64584,-1.60085 0.47333,-0.4211 4.43644,-3.06636 11.19245,-7.4706 1.28355,-0.83675 2.42029,-1.52136 2.5261,-1.52136 0.29787,0 4.76995,-3.05471 5.15983,-3.52449 0.19043,-0.22945 0.7832,-0.5529 1.31726,-0.71877 0.68953,-0.21416 1.84501,-1.19601 3.98593,-3.38698 3.63065,-3.71553 4.40543,-4.78947 4.08914,-5.66805 -0.30481,-0.84666 -2.17176,-2.47858 -3.43043,-2.99856 -0.56528,-0.23352 -1.20638,-0.57932 -1.42466,-0.76844 -0.54414,-0.47143 -4.55671,-2.51262 -4.94067,-2.51331 -0.17076,-2.7e-4 -0.82601,-0.38752 -1.45612,-0.86046 -3.21498,-2.41306 -3.94156,-2.75429 -6.3664,-2.98987 -1.84439,-0.17919 -2.06865,-0.13221 -12.10764,2.53617 -3.41974,0.90898 -6.54693,1.88343 -6.94931,2.16546 -0.88577,0.62084 -1.38798,1.56151 -1.61053,3.01666 -0.0917,0.59972 -0.40332,1.61175 -0.69244,2.24896 -0.28913,0.63721 -0.5283,1.52775 -0.53149,1.97897 -0.003,0.45123 -0.11704,1.1656 -0.25298,1.5875 -0.13594,0.4219 -0.30819,1.30287 -0.38279,1.95771 -0.27815,2.44199 -1.22597,5.11562 -2.4676,6.96067 -0.49269,0.73214 -0.87119,1.63159 -0.87119,2.07025 0,0.42661 -0.18745,1.21832 -0.41656,1.75935 -0.55632,1.31377 -1.6095,5.37483 -1.95539,7.54004 -0.1534,0.96022 -0.5159,2.29875 -0.80556,2.9745 -0.67717,1.57977 -0.70993,3.85353 -0.0636,4.41654 1.09372,0.95278 1.92612,0.93186 3.74892,-0.0942 z m 13.64743,-40.82599 c 6.79174,-1.77045 7.01146,-1.86248 7.01146,-2.93677 0,-0.42921 -0.33108,-0.81494 -1.12448,-1.31005 -2.55681,-1.59557 -4.78624,-2.83779 -5.57598,-3.1069 -0.46209,-0.15745 -1.12411,-0.50535 -1.47116,-0.77311 -0.34704,-0.26775 -0.87345,-0.48682 -1.16979,-0.48682 -0.59401,0 -1.5065,0.70831 -1.5065,1.16941 0,0.1615 -0.2545,0.76812 -0.56555,1.34805 -0.94735,1.76624 -1.8157,4.31965 -1.8157,5.33911 0,1.2935 0.66946,2.0158 1.71442,1.8497 0.43952,-0.0699 2.46599,-0.56154 4.50328,-1.09262 z m -166.716106,-3.13604 c 0.445666,-0.32588 0.43398,-0.46297 -0.231182,-2.71198 -0.385317,-1.30281 -0.742315,-3.08313 -0.793329,-3.95625 -0.137105,-2.34662 0.347064,-6.93551 0.907268,-8.59896 0.269541,-0.80036 0.571124,-1.81211 0.670184,-2.24833 0.325781,-1.43461 2.732808,-6.06011 3.851394,-7.4011 0.603326,-0.72328 1.311903,-1.73531 1.574615,-2.24896 0.262716,-0.51364 0.948116,-1.46968 1.523117,-2.12453 0.575,-0.65484 1.222031,-1.53027 1.437843,-1.94539 0.353007,-0.67904 1.988463,-2.46278 6.892314,-7.51725 0.884428,-0.91159 1.891501,-2.04269 2.237943,-2.51355 0.346443,-0.47085 2.8581958,-3.166022 5.5816738,-5.989262 2.723478,-2.82324 5.22205696,-5.49875 5.55239996,-5.94558 0.33034,-0.44683 0.776827,-0.91103 0.99219304,-1.03155 0.444254,-0.24862 1.230979,-1.64647 1.036248,-1.8412 -0.301429,-0.30143 -1.45498804,0.17938 -2.71080904,1.12987 -0.74286796,0.56226 -1.68322096,1.20697 -2.08967096,1.4327 -0.406451,0.22573 -1.631969,1.06476 -2.723375,1.86453 -1.091406,0.79976 -2.423022,1.69077 -2.959145,1.98001 -0.536123,0.28925 -1.29435,0.82208 -1.6849458,1.18408 -0.390596,0.36199 -1.261636,0.9763 -1.935647,1.36514 -0.674007,0.38884 -1.642189,1.11794 -2.151512,1.62022 -0.509322,0.50229 -1.34276,1.14499 -1.852083,1.42822 -2.494251,1.38704 -5.599096,3.613842 -11.486856,8.238402 -0.88551,0.69553 -2.140094,1.5885 -2.787965,1.98438 -1.585528,0.96883 -6.369668,5.60743 -7.948178,7.70639 -0.701072,0.93222 -1.455013,2.30144 -1.675424,3.04271 -0.22041,0.74127 -0.64386,2.01639 -0.940999,2.83359 -0.460949,1.26773 -0.520728,1.90856 -0.407236,4.36563 0.111617,2.41647 0.26772,3.22033 0.970265,4.99646 1.289201,3.25926 3.450125,5.93718 6.832088,8.46666 0.389129,0.29104 1.328822,1.03518 2.088207,1.65365 1.537593,1.25226 1.570635,1.26383 2.230604,0.78125 z m 195.423396,-5.0877 c 7.07045,-2.31379 7.27799,-2.40532 9.26042,-4.08408 0.80037,-0.67777 1.75287,-1.35817 2.11667,-1.51199 0.3638,-0.15382 1.16112,-0.68247 1.77181,-1.17478 0.6107,-0.4923 1.41437,-1.10902 1.78594,-1.37047 0.76301,-0.53689 0.87246,-1.4093 0.31543,-2.51433 -0.19808,-0.39296 -0.43454,-1.55085 -0.52547,-2.57311 -0.19478,-2.1897 -1.13691,-4.75603 -2.27224,-6.1895 -0.44599,-0.56311 -0.8114,-1.12576 -0.81202,-1.25034 -5.3e-4,-0.12459 -0.3573,-0.7623 -0.79262,-1.41714 -0.48858,-0.73497 -0.79192,-1.53455 -0.79262,-2.0893 -5.3e-4,-0.49427 -0.36336,-2.04209 -0.80609,-3.43958 -1.2465,-3.93468 -2.00461,-5.27381 -3.74811,-6.62066 -1.58005,-1.22058 -7.37627,-6.125502 -9.01527,-7.628962 -0.69588,-0.63833 -1.94603,-1.46334 -2.77813,-1.83335 -0.8321,-0.37002 -2.10183,-0.95701 -2.82162,-1.30441 -0.7198,-0.34741 -1.49371,-0.63107 -1.71979,-0.63035 -0.22609,8e-4 -0.94686,-0.17004 -1.6017,-0.37946 -0.65485,-0.20943 -1.69595,-0.51224 -2.31357,-0.67293 -0.81787,-0.21278 -1.23239,-0.50381 -1.52583,-1.07126 -0.47725,-0.92291 -1.67739,-1.61179 -2.45413,-1.40867 -0.31929,0.0835 -1.20468,-0.16022 -2.09106,-0.5756 -0.84551,-0.39623 -2.19213,-0.87439 -2.99249,-1.06258 -2.23029,-0.52442 -5.14076,-1.63854 -6.54193,-2.50424 -0.69481,-0.42927 -2.09672,-0.97993 -3.11537,-1.22367 -3.85143,-0.92157 -4.63178,-1.1838 -5.34281,-1.7954 -0.72304,-0.62194 -0.72765,-0.64595 -0.41265,-2.14772 0.17521,-0.83532 0.25491,-1.62173 0.17713,-1.7476 -0.33271,-0.53833 -1.08843,-0.12718 -1.78405,0.97062 -0.74639,1.17791 -4.5321,4.58679 -6.27124,5.64699 -0.50515,0.30795 -1.18635,0.56035 -1.51377,0.56089 -0.76642,0.001 -1.65407,0.89025 -1.65217,1.65464 0.004,1.56662 0.5992,2.65512 2.47091,4.51792 1.70953,1.7014 3.08386,3.68098 3.08386,4.44198 0,0.15318 0.36463,1.18911 0.81028,2.30207 1.11654,2.78843 1.57097,5.177622 1.57097,8.259372 0,2.99181 0.44638,4.34504 1.52233,4.61509 0.35658,0.0895 1.72677,-0.11049 3.04487,-0.44441 1.85188,-0.46914 2.42244,-0.5307 2.51045,-0.27083 0.12964,0.38274 1.44213,1.11891 1.99487,1.11891 0.20215,0 0.50316,-0.29765 0.66892,-0.66146 0.3802,-0.83444 0.85865,-0.83583 1.84561,-0.005 1.25895,1.05933 1.53492,2.03045 0.9857,3.46856 -0.60274,1.57826 -0.78293,7.67553 -0.27296,9.2368 0.19012,0.58208 0.43226,1.98949 0.53808,3.12758 0.15223,1.63731 0.32852,2.23102 0.84453,2.84427 0.35868,0.42626 0.82279,0.77502 1.03137,0.77502 0.89505,0 7.4282,3.68227 11.68715,6.58722 0.76878,0.52437 1.89284,1.22341 2.49791,1.55342 0.60506,0.33001 1.28928,0.77122 1.52049,0.98046 0.23121,0.20924 0.83356,0.56712 1.33855,0.79528 1.65197,0.74638 3.75922,0.37704 10.57546,-1.85356 z M 51.230844,99.536078 c -0.08639,-1.5426 0.259606,-1.99787 1.933794,-2.54452 0.863399,-0.28191 1.169649,-0.57983 1.712841,-1.66621 0.572953,-1.1459 0.662345,-1.68141 0.668078,-4.0022 0.0046,-1.83868 0.117578,-2.81299 0.360275,-3.10542 0.485802,-0.58536 0.16029,-1.70789 -0.59505,-2.05205 -0.335735,-0.15297 -0.815433,-0.62517 -1.06599,-1.04933 -0.250561,-0.42417 -0.560822,-0.77121 -0.689473,-0.77121 -0.128651,0 -1.11389,-0.81593 -2.189422,-1.81317 -2.355752,-2.18428 -4.108129,-2.99955 -5.164555,-2.40274 -0.36943,0.2087 -1.251638,1.15336 -1.960462,2.09925 -0.708826,0.94588 -1.642356,2.11856 -2.074513,2.60594 -0.432155,0.48739 -0.837099,1.14223 -0.899877,1.45521 -0.06278,0.31298 -0.181107,0.8873 -0.262956,1.27627 -0.08185,0.38896 -0.452136,1.06768 -0.82286,1.50827 -0.439697,0.52255 -0.721587,1.24255 -0.810794,2.07091 -0.07521,0.69842 -0.258985,1.5885 -0.408384,1.97795 -0.555353,1.44768 0.629713,2.65102 1.835179,1.8635 0.331962,-0.21688 0.662188,-0.3357 0.733832,-0.26405 0.268901,0.2689 -0.206862,0.8908 -1.218329,1.59255 -1.09682,0.76096 -1.326507,1.49012 -0.647031,2.05404 0.483783,0.4015 6.060757,0.83174 7.976587,0.61535 l 1.36321,-0.15397 0.729882,1.10292 c 1.011827,1.528982 1.595215,1.374052 1.496018,-0.39729 z m 70.204296,-27.93234 c 1.44698,-1.55073 3.78311,-3.78125 5.19139,-4.95669 1.40828,-1.17545 2.6385,-2.38292 2.73383,-2.68328 0.38378,-1.20917 -0.0875,-1.31446 -5.88386,-1.31446 -5.3948,0 -5.4231,-0.003 -6.20561,-0.66146 -0.97575,-0.82103 -1.11304,-0.82016 -2.68569,0.017 -0.70099,0.37317 -2.11135,0.83794 -3.13415,1.03282 -1.02279,0.19488 -1.98145,0.47617 -2.13035,0.62506 -0.55507,0.55507 0.13941,1.79016 2.03052,3.61123 1.06099,1.02169 2.30632,2.47003 2.76738,3.21853 0.4899,0.79528 1.15461,1.49191 1.59933,1.67612 0.41856,0.17337 1.18833,0.79123 1.71061,1.37302 0.52228,0.58178 1.04548,1.01815 1.16267,0.9697 0.11718,-0.0485 1.39695,-1.35687 2.84393,-2.90761 z m 122.09025,-10.76241 c 0,-0.3728 -0.29803,-0.54383 -0.68734,-0.39444 -0.55216,0.21189 -0.44849,0.61492 0.15817,0.61492 0.29104,0 0.52917,-0.0992 0.52917,-0.22048 z M 74.10655,58.239708 c 1.41193,-0.97243 1.87132,-1.92351 0.94541,-1.95729 -2.01822,-0.0736 -2.97657,-0.44875 -2.97657,-1.16512 0,-0.68693 -0.9826,-1.17674 -2.71714,-1.35445 -1.66268,-0.17035 -1.84883,-0.13417 -2.83841,0.5516 -0.58247,0.40365 -1.05903,0.82704 -1.05903,0.94087 0,0.11383 -0.0705,0.39078 -0.15675,0.61544 -0.15735,0.41004 0.71328,1.39507 1.96992,2.22875 0.58507,0.38815 3.35821,1.01477 4.78205,1.08055 0.35315,0.0163 1.27589,-0.40684 2.05052,-0.94035 z M 24.913418,163.69895 c -0.632847,-0.3686 -0.58097,-1.13636 0.132291,-1.95788 0.496134,-0.57144 0.738569,-0.65655 1.455209,-0.51085 1.037378,0.2109 1.154665,0.98549 0.311525,2.05737 -0.578741,0.73575 -1.135152,0.85628 -1.899025,0.41136 z m 50.932292,-6.78021 c -0.5648,-0.2081 -0.3777,-0.84328 1.06467,-3.6145 0.76747,-1.47453 1.62424,-3.21675 1.90393,-3.8716 0.27968,-0.65484 0.70922,-1.48828 0.95454,-1.85208 0.24531,-0.3638 0.64043,-1.23626 0.87805,-1.93881 0.72153,-2.13331 1.21161,-2.87614 3.21575,-4.87421 1.05823,-1.05503 1.99257,-1.91823 2.0763,-1.91823 0.28392,0 0.95311,1.91224 0.95311,2.72353 0,1.11411 -0.98176,3.51331 -3.5952,8.78585 -1.22622,2.47385 -2.22862,4.62447 -2.22756,4.77914 0.001,0.15468 -0.34521,0.61381 -0.76949,1.0203 -0.65392,0.62648 -1.02672,0.74999 -2.4474,0.81077 -0.92178,0.0394 -1.8248,0.0169 -2.0067,-0.0502 z m -32.199777,-1.8725 c -0.08004,-0.08 -0.145537,-0.64169 -0.145537,-1.24809 0,-1.04414 0.0801,-1.15745 1.511755,-2.13871 0.831466,-0.5699 2.289982,-1.72924 3.241146,-2.57632 0.951164,-0.84707 2.43727,-1.9583 3.302455,-2.46939 0.865185,-0.51109 1.855398,-1.18724 2.200476,-1.50256 1.410274,-1.28868 4.078531,-4.82919 4.836747,-6.41789 0.735693,-1.5415 1.084276,-1.85727 1.906895,-1.72738 0.10914,0.0172 0.19844,-0.1572 0.19844,-0.38762 0,-0.23042 0.81616,-1.64809 1.8137,-3.15037 l 1.8137,-2.73144 0.22034,-3.79493 c 0.12118,-2.08722 0.24182,-7.48587 0.26807,-11.99702 0.0459,-7.89479 0.25491,-10.54753 0.93024,-11.80939 0.29272,-0.54696 0.33915,-0.55645 0.64907,-0.13261 0.18359,0.25107 0.40933,0.95713 0.50166,1.56904 0.0923,0.6119 0.32405,1.56543 0.51497,2.11896 0.28905,0.83808 0.28585,1.23636 -0.0191,2.38125 -0.47057,1.76652 -0.45586,4.89158 0.0402,8.53895 0.21618,1.58952 0.37336,3.54489 0.34929,4.34526 -0.0345,1.14765 0.11281,1.74284 0.69714,2.81616 1.02181,1.87693 1.05167,1.80729 -2.6375,6.15051 -0.44624,0.52536 -1.19605,1.59128 -1.66623,2.3687 -0.47018,0.77742 -1.3997,1.98377 -2.06559,2.68077 -0.66589,0.69699 -1.19027,1.34396 -1.16529,1.4377 0.0805,0.30201 -1.359437,2.76745 -1.690478,2.89449 -0.176078,0.0676 -1.055801,1.35441 -1.954946,2.85965 -1.927817,3.22733 -2.048054,3.38511 -3.081522,4.04355 -1.132583,0.72159 -4.176223,3.43515 -6.050875,5.39467 -0.880997,0.92087 -1.841688,1.8027 -2.134868,1.9596 -0.707744,0.37877 -2.20147,0.70733 -2.384345,0.52446 z M 12.307279,124.31996 c -0.260392,-0.16488 -0.323697,-0.53397 -0.214855,-1.25272 0.08487,-0.56043 0.400947,-2.68585 0.702403,-4.72314 0.301455,-2.03729 0.716475,-4.5376 0.922266,-5.55625 0.205793,-1.01864 0.515305,-3.0691 0.687805,-4.55656 0.255744,-2.2053 0.428067,-2.82796 0.933601,-3.37344 0.687245,-0.74155 1.226997,-0.84631 1.66171,-0.32251 0.311732,0.37561 0.258136,1.86498 -0.248674,6.91053 -0.245202,2.44112 -0.245803,3.51981 -0.0026,4.7625 0.258361,1.32038 0.245743,1.84222 -0.07084,2.92948 -0.21186,0.72761 -0.462021,1.81001 -0.555908,2.40535 -0.140663,0.8919 -0.394155,1.25283 -1.440157,2.05052 -1.30784,0.99737 -1.738502,1.12908 -2.374701,0.72624 z"
       id="path1030" />
  </g>
</svg>
