<?xml version="1.0" encoding="UTF-8" standalone="no"?>
<svg
   width="20mm"
   height="128.5mm"
   viewBox="0 0 20.000002 128.50002"
   version="1.1"
   id="svg8"
   inkscape:version="1.1.1 (3bf5ae0d25, 2021-09-20)"
   sodipodi:docname="XtrtnBlank.svg"
   xmlns:inkscape="http://www.inkscape.org/namespaces/inkscape"
   xmlns:sodipodi="http://sodipodi.sourceforge.net/DTD/sodipodi-0.dtd"
   xmlns:xlink="http://www.w3.org/1999/xlink"
   xmlns="http://www.w3.org/2000/svg"
   xmlns:svg="http://www.w3.org/2000/svg"
   xmlns:rdf="http://www.w3.org/1999/02/22-rdf-syntax-ns#"
   xmlns:cc="http://creativecommons.org/ns#"
   xmlns:dc="http://purl.org/dc/elements/1.1/">
  <defs
     id="defs2">
    <rect
       x="-198.76338"
       y="109.26004"
       width="70.831148"
       height="29.567442"
       id="rect28418" />
    <linearGradient
       inkscape:collect="always"
       id="linearGradient2078">
      <stop
         style="stop-color:#000000;stop-opacity:1;"
         offset="0"
         id="stop2074" />
      <stop
         style="stop-color:#1a1a1a;stop-opacity:1"
         offset="1"
         id="stop2076" />
    </linearGradient>
    <filter
       x="-0.30000001"
       width="1.6"
       y="-0.30000001"
       height="1.6"
       style="color-interpolation-filters:sRGB"
       inkscape:label="Felt Feather"
       id="filter3728">
      <feGaussianBlur
         stdDeviation="15 15"
         result="blur"
         id="feGaussianBlur3712" />
      <feComposite
         in="SourceGraphic"
         in2="blur"
         operator="atop"
         result="composite1"
         id="feComposite3714" />
      <feComposite
         in2="composite1"
         operator="in"
         result="composite2"
         id="feComposite3716" />
      <feComposite
         in2="composite2"
         operator="in"
         result="composite3"
         id="feComposite3718" />
      <feTurbulence
         type="fractalNoise"
         numOctaves="3"
         seed="1"
         baseFrequency="0.05 0.05"
         result="turbulence"
         id="feTurbulence3720" />
      <feDisplacementMap
         in="composite3"
         in2="turbulence"
         xChannelSelector="R"
         scale="30"
         yChannelSelector="G"
         result="map"
         id="feDisplacementMap3722" />
      <feColorMatrix
         values="1 0 0 0 0 0 1 0 0 0 0 0 1 0 0 0 0 0 1 -0 "
         result="colormatrix"
         id="feColorMatrix3724" />
      <feComposite
         in="composite3"
         in2="colormatrix"
         operator="atop"
         result="composite4"
         id="feComposite3726" />
    </filter>
    <filter
       inkscape:collect="always"
       style="color-interpolation-filters:sRGB"
       id="filter1927"
       x="-0.0010343177"
       width="1.0020686"
       y="-0.0003863599"
       height="1.0007727">
      <feGaussianBlur
         inkscape:collect="always"
         stdDeviation="0.020686142"
         id="feGaussianBlur1929" />
    </filter>
    <linearGradient
       inkscape:collect="always"
       xlink:href="#linearGradient2078"
       id="linearGradient2080"
       x1="7.3314171"
       y1="128.48169"
       x2="10.758283"
       y2="18.124126"
       gradientUnits="userSpaceOnUse"
       gradientTransform="matrix(1.057419,0,0,1.0085236,-0.5741901,-0.54755657)" />
  </defs>
  <sodipodi:namedview
     id="base"
     pagecolor="#ffffff"
     bordercolor="#666666"
     borderopacity="1.0"
     inkscape:pageopacity="0.0"
     inkscape:pageshadow="2"
     inkscape:zoom="1.4142137"
     inkscape:cx="-32.526909"
     inkscape:cy="321.02645"
     inkscape:document-units="mm"
     inkscape:current-layer="layer4"
     showgrid="false"
     units="mm"
     inkscape:snap-bbox="true"
     inkscape:snap-page="true"
     inkscape:bbox-nodes="false"
     inkscape:snap-bbox-edge-midpoints="false"
     inkscape:window-width="1334"
     inkscape:window-height="708"
     inkscape:window-x="13"
     inkscape:window-y="13"
     inkscape:window-maximized="0"
     inkscape:snap-bbox-midpoints="true"
     inkscape:snap-nodes="false"
     inkscape:document-rotation="0"
     fit-margin-top="0"
     fit-margin-left="0"
     fit-margin-right="0"
     fit-margin-bottom="0"
     showguides="true"
     inkscape:pagecheckerboard="0"
     width="20mm" />
  <metadata
     id="metadata5">
    <rdf:RDF>
      <cc:Work
         rdf:about="">
        <dc:format>image/svg+xml</dc:format>
        <dc:type
           rdf:resource="http://purl.org/dc/dcmitype/StillImage" />
      </cc:Work>
    </rdf:RDF>
  </metadata>
  <g
     inkscape:groupmode="layer"
     id="layer4"
     inkscape:label="back 1"
     transform="translate(0,0.00971522)">
    <rect
       style="fill:url(#linearGradient2080);fill-opacity:1;stroke:none;stroke-width:1.12151;stroke-opacity:0"
       id="rect1094"
       width="20"
       height="128.5"
       x="0"
       y="-0.00971522" />
    <path
       style="fill:#ffffff;stroke-width:0.0163008"
       d="m 8.9669536,117.83049 v -1.91272 h 1.6649434 1.664944 v 1.91272 1.91271 H 10.631897 8.9669536 Z m 2.9077054,1.5963 c 0.14676,-0.0293 0.157014,-0.0337 0.14595,-0.0639 -0.03318,-0.0903 -0.04322,-0.10286 -0.07383,-0.0928 -0.09222,0.0304 -0.278045,0.0552 -0.347479,0.0464 -0.207541,-0.0263 -0.378952,-0.29526 -0.51426,-0.80678 -0.04853,-0.18342 -0.08791,-0.51965 -0.06986,-0.59615 0.01215,-0.0516 7.37e-4,-0.0632 -0.13113,-0.13408 l -0.09324,-0.0503 0.113775,-0.10206 c 0.12051,-0.10811 0.23934,-0.26381 0.284547,-0.37263 0.01549,-0.0373 0.02727,-0.11569 0.02727,-0.18139 0,-0.15121 -0.05706,-0.25068 -0.23892,-0.41648 -0.07317,-0.0667 -0.133035,-0.1344 -0.133035,-0.15024 0,-0.028 -0.02469,-0.0293 -0.772529,-0.0397 -0.4248897,-0.007 -0.7745247,-0.008 -0.7769637,-0.007 -0.0024,0.003 -0.0087,0.0737 -0.01395,0.15824 l -0.0096,0.15377 h 0.142545 0.142545 l -0.01155,0.68632 c -0.0063,0.37746 -0.0165,0.85568 -0.022605,1.06274 l -0.0111,0.37645 0.11157,0.009 c 0.061365,0.007 0.113475,0.008 0.115785,0.007 0.00225,-0.003 0.01005,-0.26957 0.017265,-0.59442 l 0.01305,-0.59061 0.3119187,0.007 c 0.352886,0.008 0.455651,0.0285 0.657308,0.12832 l 0.115125,0.0572 0.0111,0.20177 c 0.02583,0.46676 0.236714,1.02821 0.455981,1.21391 0.143205,0.12128 0.280938,0.14336 0.554217,0.0892 z m -1.419883,-1.80111 c -0.0341,-0.008 -0.204651,-0.0181 -0.379013,-0.0231 l -0.3170187,-0.009 0.01155,-0.2028 c 0.0063,-0.11155 0.01155,-0.29613 0.01155,-0.41017 v -0.20731 l 0.5092247,0.009 0.509224,0.009 0.0503,0.0393 c 0.08858,0.0692 0.14328,0.16454 0.14328,0.24945 0,0.13904 -0.166183,0.36746 -0.358645,0.49289 -0.05872,0.0383 -0.109365,0.0688 -0.112545,0.068 -0.0031,-8e-4 -0.03368,-0.008 -0.06777,-0.016 z m 2.562229,1.75749 c -0.01527,-0.0219 -0.04784,-0.0984 -0.07236,-0.17014 -0.042,-0.12272 -0.04566,-0.16231 -0.06303,-0.68142 -0.02538,-0.75823 -0.06477,-1.18976 -0.178194,-1.95255 -0.02874,-0.19324 -0.04863,-0.35438 -0.04424,-0.35813 0.0117,-0.009 0.224273,-0.06 0.408128,-0.096 0.12567,-0.0248 0.213205,-0.0309 0.413538,-0.0296 0.259216,10e-4 0.339873,-0.0114 0.411141,-0.0659 0.02325,-0.0179 0.136095,-0.0251 0.574812,-0.0369 0.300236,-0.008 0.548222,-0.0128 0.551078,-0.0114 0.0088,0.007 0.10932,0.50245 0.146745,0.7232 0.11334,0.66824 0.14679,1.30286 0.11394,2.16161 l -0.01155,0.30141 -0.249678,0.0263 c -0.34484,0.0361 -0.489425,0.0625 -0.674408,0.12304 l -0.159046,0.0519 -0.09534,-0.0396 c -0.183993,-0.0763 -0.516337,-0.0596 -0.873124,0.0433 l -0.170683,0.0495 z m 1.256162,-0.4088 c -0.0053,-0.0763 -0.01395,-0.21639 -0.01937,-0.3113 -0.0054,-0.0948 -0.02933,-0.30416 -0.05317,-0.46504 -0.08977,-0.60544 -0.10074,-0.78687 -0.04823,-0.7985 0.01716,-0.003 0.172943,-0.0265 0.34619,-0.0504 0.293781,-0.0407 0.314424,-0.0456 0.306526,-0.0736 -0.0046,-0.0165 -0.01846,-0.0863 -0.03068,-0.15506 l -0.0222,-0.12512 -0.08084,0.009 c -0.04446,0.005 -0.23626,0.0337 -0.426223,0.0629 -0.393378,0.0601 -0.65447,0.0757 -0.867766,0.0516 -0.08124,-0.009 -0.150835,-0.0144 -0.154668,-0.0114 -0.0074,0.007 -0.05796,0.29937 -0.05241,0.30368 0.01395,0.0114 0.355265,0.0355 0.491667,0.0355 l 0.169592,5e-5 0.0212,0.24006 c 0.0117,0.132 0.04087,0.36661 0.06492,0.5213 0.03607,0.23203 0.0777,0.68571 0.07916,0.86258 l 3.35e-4,0.0413 h 0.14277 0.14277 z m -8.1998004,0.0431 c -0.259365,-1.43491 -0.3118403,-1.87304 -0.3121388,-2.60609 l -1.755e-4,-0.42901 0.2169728,-0.0399 c 0.448998,-0.0825 0.8226675,-0.12432 1.4302583,-0.15968 0.2922045,-0.0169 0.83976,-0.0425 0.843669,-0.0393 0.00127,8e-4 -0.00585,0.14033 -0.015765,0.30946 -0.028695,0.48741 0.00225,0.84408 0.1628607,1.87356 0.06342,0.40661 0.086743,0.58348 0.11619,0.88081 l 0.0105,0.10652 -0.3417756,0.0467 c -0.357606,0.0489 -0.597732,0.0725 -1.2450968,0.12304 -0.377385,0.0293 -0.66819,0.0623 -0.780792,0.0884 l -0.0546,0.0128 z m 1.2755633,-0.24624 c 0.026415,-0.21222 0.029685,-0.65019 0.0063,-0.83573 -0.00945,-0.0743 -0.022455,-0.26835 -0.029055,-0.4313 l -0.012,-0.29629 h 0.1788345 0.1788345 l 0.01155,0.0649 c 0.01806,0.10194 0.021135,0.10354 0.156777,0.0793 0.065595,-0.0114 0.12417,-0.0252 0.130155,-0.0304 0.006,-0.005 -0.00735,-0.0817 -0.029565,-0.17041 -0.022245,-0.0887 -0.04464,-0.22029 -0.049755,-0.29248 l -0.0093,-0.13121 h -0.13926 -0.139245 v 0.0525 0.0525 H 6.9389941 6.2747881 v 0.18753 0.18751 h 0.336531 0.336531 l 4.695e-4,0.13873 c 4.26e-4,0.1296 0.0117,0.30482 0.05061,0.78382 0.01035,0.12688 0.00915,0.27102 -0.00345,0.41257 -0.0105,0.11968 -0.019635,0.25464 -0.02016,0.30002 l -9.75e-4,0.0825 0.1682663,0.016 c 0.09255,0.008 0.171909,0.0128 0.1763625,0.0114 0.0045,-0.001 0.01794,-0.084 0.02997,-0.18055 z m -2.4206088,0.23209 c -0.102435,-0.0349 -0.230811,-0.0847 -0.2852895,-0.11075 l -0.099045,-0.0473 -0.1176585,0.0361 -0.11766,0.0361 -0.133245,-0.0667 -0.133245,-0.0667 -0.265662,0.0205 -0.2656621,0.0204 -0.08376,-0.0736 -0.08376,-0.0736 -0.2214007,0.0199 c -0.12177,0.0114 -0.224334,0.0179 -0.2279175,0.016 -0.0036,-0.003 0.067965,-0.62554 0.159006,-1.38507 l 0.1655227,-1.38095 0.1686675,0.008 c 0.4267261,0.0207 0.6970711,0.0456 1.3698459,0.12689 0.397623,0.0479 0.7276666,0.0912 0.7334311,0.096 0.0057,0.005 -0.05016,0.47981 -0.12429,1.05537 -0.074115,0.57558 -0.1514641,1.19164 -0.1718731,1.36904 -0.04725,0.41072 -0.05532,0.46521 -0.068775,0.46432 -0.006,-3.6e-4 -0.094815,-0.0293 -0.1972395,-0.0641 z m -0.186351,-0.62473 0.1224,-0.10446 -0.034155,-0.0344 c -0.018795,-0.0189 -0.06798,-0.0659 -0.109305,-0.10469 -0.084795,-0.0793 -0.118455,-0.13536 -0.209904,-0.34967 -0.03522,-0.0825 -0.07947,-0.17271 -0.098325,-0.20042 -0.02091,-0.0307 -0.028275,-0.0571 -0.01887,-0.0675 0.00855,-0.009 0.1308285,-0.13857 0.2718862,-0.28713 0.1410601,-0.1485 0.2620081,-0.27797 0.2687671,-0.28769 0.01215,-0.0175 -0.2326936,-0.19987 -0.2682931,-0.19987 -0.00945,0 -0.111255,0.0993 -0.2261872,0.22071 l -0.2089575,0.22071 -0.04092,-0.0744 c -0.04116,-0.0749 -0.04563,-0.16015 -0.01395,-0.26572 0.00945,-0.0313 0.006,-0.0413 -0.01425,-0.0413 -0.08277,0 -0.2640975,-0.0669 -0.384597,-0.14177 -0.073065,-0.0455 -0.1448101,-0.0827 -0.1594501,-0.0829 -0.025185,-3.6e-4 -0.195645,0.2175 -0.1940385,0.24791 7.5e-4,0.0144 0.2151255,0.1461 0.3106726,0.18989 0.04449,0.0203 0.05757,0.0377 0.06525,0.0863 0.00975,0.0615 0.087165,0.21068 0.1521075,0.29327 l 0.035385,0.0449 -0.3352231,0.35067 c -0.1843725,0.19285 -0.335223,0.35275 -0.335223,0.35531 0,0.0114 0.264444,0.18662 0.2806965,0.18662 0.00975,0 0.1307701,-0.11857 0.2688391,-0.26353 0.138075,-0.14497 0.2537025,-0.26128 0.256956,-0.25852 0.0033,0.003 0.03441,0.0717 0.06924,0.15312 0.03483,0.0815 0.08844,0.18534 0.11913,0.23076 0.05139,0.0762 0.2694727,0.28813 0.2963212,0.28813 0.00645,0 0.06669,-0.0471 0.1340251,-0.10446 z m 10.9378959,-0.78055 v -1.42517 h 1.10701 1.107009 v 1.42517 1.42517 h -1.107009 -1.10701 z m 1.886779,1.13879 c 0.117135,-0.0627 0.126645,-0.072 0.09875,-0.0969 -0.0095,-0.008 -0.0098,-0.1344 -9e-4,-0.30679 0.0083,-0.1609 0.01548,-0.58449 0.01595,-0.94136 l 9e-4,-0.64881 H 17.5511 17.420855 l -0.0114,0.11472 c -0.0063,0.0632 -0.0114,0.38717 -0.0114,0.7201 0,0.33686 -0.0069,0.60531 -0.01554,0.60531 -0.0085,0 -0.03187,-0.0321 -0.05185,-0.0715 -0.188826,-0.37178 -0.451156,-0.80509 -0.619702,-1.02363 -0.05409,-0.0701 -0.09748,-0.1392 -0.09643,-0.15344 0.0011,-0.0144 -0.02348,-0.0408 -0.05453,-0.0592 -0.03103,-0.0183 -0.10632,-0.0721 -0.167309,-0.12 -0.119055,-0.0932 -0.200187,-0.12144 -0.398349,-0.13888 l -0.10185,-0.009 v 0.11075 c 0,0.0609 -0.0048,0.1312 -0.01065,0.156 -0.01065,0.0449 -0.01005,0.0453 0.08413,0.0552 0.05215,0.007 0.111675,0.0169 0.13227,0.0256 0.0366,0.016 0.03684,0.0177 0.01035,0.10675 -0.02223,0.0747 -0.02338,0.10628 -0.0064,0.17573 0.01395,0.0573 0.02064,0.30848 0.02064,0.77757 v 0.69291 h 0.12177 0.12177 l 0.0111,-0.0469 c 0.0061,-0.0257 0.0111,-0.37368 0.0111,-0.77311 0,-0.7131 6.71e-4,-0.72595 0.03421,-0.71071 0.05892,0.0267 0.26375,0.33223 0.452934,0.67561 0.266468,0.48364 0.351293,0.62971 0.455192,0.78384 0.05979,0.0887 0.11154,0.16128 0.114975,0.16128 0.0035,0 0.05788,-0.0276 0.12096,-0.0613 z"
       id="path365-3" />
    <circle
       id="path1588"
       style="fill:#ffffff;stroke:#000000;stroke-width:0.233515"
       cx="3.7332809"
       cy="25.046858"
       rx="0.026420666"
       ry="0.02317249" />
    <circle
       id="path1590"
       style="fill:#ffffff;stroke:#000000;stroke-width:0.233515"
       cx="3.7332809"
       cy="25.046858"
       rx="0.026420666"
       ry="0.02317249" />
    <text
       xml:space="preserve"
       style="font-weight:600;font-size:3.52777px;line-height:1.25;font-family:'URW Gothic';-inkscape-font-specification:'URW Gothic Semi-Bold';stroke-width:0.264583;fill:#ffffff"
       x="1.0184577"
       y="93.868774"
       id="text5888"><tspan
         sodipodi:role="line"
         id="tspan5886"
         style="stroke-width:0.264583;fill:#ffffff"
         x="1.0184577"
         y="93.868774" /></text>
    <g
       aria-label="3600bpm"
       id="text15710"
       style="font-weight:bold;font-size:3.52777px;line-height:1.25;font-family:'Old English Five';-inkscape-font-specification:'Old English Five Bold';stroke-width:0.264583"
       transform="translate(0,1.5875)">
      <path
         d="m 1.6384487,107.88109 -0.3668881,0.34572 0.9066369,0.75141 0.045861,-0.0106 q 0.6491097,-0.17992 0.9278036,-0.39864 0.2786938,-0.22225 0.2786938,-0.55739 0,-0.28575 -0.2081384,-0.49741 -0.2046107,-0.2152 -0.5750266,-0.30692 0.6561653,-0.24341 0.6561653,-0.90311 v -0.0988 l -1.1006643,-0.49742 -0.7126095,0.53975 0.2928049,0.32103 0.4762489,-0.35278 q 0.038806,-0.0282 0.077611,-0.0564 0.038806,-0.0318 0.077611,-0.06 0.1093609,-0.0741 0.1763885,-0.0741 0.1375831,0 0.1375831,0.2293 0,0.43039 -0.2046107,0.64206 -0.2010829,0.20814 -0.6526375,0.24341 -0.024694,0.004 -0.035278,0.004 -0.010583,0 -0.014111,0 v 0.15875 l 0.059972,-0.004 q 0.059972,-0.004 0.1093609,-0.004 0.049389,-0.004 0.09525,-0.004 0.1728607,0 0.3139715,0.06 0.1411108,0.06 0.2398884,0.17639 0.1023053,0.11289 0.1552219,0.27517 0.052916,0.15875 0.052916,0.35983 0,0.40569 -0.229305,0.51858 z"
         style="fill:#ffffff"
         id="path22971" />
      <path
         d="m 5.4766595,106.56523 0.3457214,-0.4057 -0.8078593,-0.45155 q -0.6279431,0.46567 -0.9136925,0.91722 -0.2786938,0.44097 -0.2786938,0.97719 0,0.49036 0.2751661,0.8502 0.2786938,0.3563 0.7902205,0.52563 l 0.059972,-0.0353 q 0.9983589,-0.52917 0.9983589,-1.28764 0,-0.55386 -0.6244153,-0.82903 l -1.0406922,0.62442 v -0.0917 q 0,-0.6597 0.3739436,-1.23825 z m -0.1869719,2.0073 q -0.4021657,-0.10583 -0.6773318,-0.381 -0.2751661,-0.27517 -0.3174993,-0.61383 l 0.5997209,-0.37042 q 0.1516941,0.06 0.2716383,0.14464 0.1234719,0.0811 0.2081384,0.17992 0.088194,0.0988 0.1340553,0.20814 0.045861,0.10936 0.045861,0.21872 0,0.33866 -0.2645828,0.61383 z"
         style="fill:#ffffff"
         id="path22973" />
      <path
         d="m 6.2421825,107.45775 q 0,0.51506 0.2822216,0.91017 0.2857494,0.39511 0.8113871,0.6103 0.5009434,-0.27869 0.797276,-0.74436 0.2998605,-0.46919 0.2998605,-0.98072 0,-0.53622 -0.2822216,-0.9278 -0.2822216,-0.39511 -0.8149149,-0.61736 -1.0936087,0.75142 -1.0936087,1.74977 z m 1.8168016,0.17286 q 0,0.52917 -0.3457215,0.89253 -0.5291655,-0.20108 -0.8184426,-0.55386 -0.2892772,-0.3563 -0.2892772,-0.82903 0,-0.52211 0.3245549,-0.95955 0.5185822,0.127 0.8219704,0.52211 0.306916,0.39864 0.306916,0.9278 z"
         style="fill:#ffffff"
         id="path22975" />
      <path
         d="m 8.6975071,107.45775 q 0,0.51506 0.2822217,0.91017 0.2857493,0.39511 0.8113871,0.6103 0.5009431,-0.27869 0.7972761,-0.74436 0.29986,-0.46919 0.29986,-0.98072 0,-0.53622 -0.282221,-0.9278 -0.282222,-0.39511 -0.8149151,-0.61736 -1.0936088,0.75142 -1.0936088,1.74977 z m 1.8168019,0.17286 q 0,0.52917 -0.345722,0.89253 -0.5291653,-0.20108 -0.8184424,-0.55386 -0.2892771,-0.3563 -0.2892771,-0.82903 0,-0.52211 0.3245548,-0.95955 0.5185822,0.127 0.8219707,0.52211 0.306916,0.39864 0.306916,0.9278 z"
         style="fill:#ffffff"
         id="path22977" />
      <path
         d="m 11.286888,108.50197 v 0.0529 q 0.575026,0.0988 0.924275,0.42333 0.289277,-0.25752 0.751415,-0.42333 v -1.3723 q 0,-0.31045 -0.05644,-0.42686 -0.04939,-0.11642 -0.275166,-0.31397 l -0.716137,0.59619 v -0.85725 q 0,-0.26458 0.05292,-0.39158 0.05997,-0.127 0.218722,-0.22578 l -0.01411,-0.0529 q -0.09525,0.0176 -0.172861,0.0388 -0.07408,0.0212 -0.141111,0.0564 -0.06703,0.0318 -0.130527,0.0811 -0.05997,0.0494 -0.127,0.11995 -0.102305,-0.0811 -0.194027,-0.13406 -0.09172,-0.0564 -0.172861,-0.0811 l -0.03175,0.0635 q 0.141111,0.11642 0.179916,0.21873 0.03881,0.0882 0.03881,0.27163 v 1.88383 q 0,0.26459 -0.02117,0.3422 -0.02117,0.0776 -0.112888,0.13052 z m 0.627943,-0.15522 v -1.18886 l 0.398638,-0.34219 q 0.102305,0.0917 0.134055,0.19403 0.02117,0.0811 0.02117,0.24341 v 1.32997 z"
         style="fill:#ffffff"
         id="path22979" />
      <path
         d="m 13.262435,108.42084 v 0.16933 q 0.151694,0.007 0.296333,0.0353 v 0.30691 q 0,0.21872 -0.02822,0.31045 -0.04233,0.11641 -0.204611,0.24694 l 0.02469,0.0635 q 0.268111,-0.0988 0.398638,-0.22578 0.257528,0.22225 0.536221,0.30339 l 0.04233,-0.0882 q -0.148167,-0.0706 -0.208139,-0.18698 -0.05644,-0.11288 -0.05644,-0.33161 v -0.24341 q 0.169333,0.067 0.359832,0.19755 0.236361,-0.254 0.687916,-0.47625 v -1.22766 q 0,-0.32103 -0.08114,-0.46214 -0.07761,-0.13405 -0.405694,-0.37041 l -0.560915,0.52916 q -0.01058,-0.17991 -0.07055,-0.28928 -0.05645,-0.10583 -0.232833,-0.23988 l -0.483305,0.38805 0.04939,0.0635 q 0.07056,-0.0388 0.09878,-0.0388 0.134055,0 0.134055,0.30691 v 1.21003 q -0.08114,0.007 -0.155222,0.0212 -0.07056,0.0106 -0.141111,0.0282 z m 1.351136,0.13758 q -0.123472,-0.067 -0.261055,-0.10936 -0.137583,-0.0423 -0.289277,-0.067 v -1.25236 l 0.289277,-0.27869 q 0.179916,0.10936 0.218722,0.18344 0.04233,0.0706 0.04233,0.2787 z"
         style="fill:#ffffff"
         id="path22981" />
      <path
         d="m 15.975283,106.44176 -0.518582,0.41275 0.05997,0.0847 q 0.01058,-0.007 0.01411,-0.0106 0.0071,-0.004 0.01058,-0.007 0.08114,-0.0494 0.10936,-0.0494 0.08467,0 0.105834,0.10937 0.0035,0.0212 0.0035,0.067 0.0035,0.0423 0.0035,0.10936 v 1.29117 l -0.172861,0.17991 0.437444,0.34925 0.398638,-0.33161 -0.172861,-0.17991 v -1.34408 l 0.345722,-0.29281 0.03528,0.0388 q 0.109361,0.1023 0.134056,0.16933 0.02822,0.067 0.02822,0.20108 v 1.22767 l -0.162278,0.17991 0.42686,0.33161 0.405694,-0.33161 -0.176389,-0.17991 v -1.34408 l 0.359833,-0.31045 0.179916,0.20109 v 1.2453 q 0,0.3175 0.05645,0.4445 0.05997,0.13052 0.26811,0.27516 l 0.476249,-0.39511 -0.05644,-0.0811 q -0.09172,0.0706 -0.130528,0.0706 -0.08819,0 -0.109361,-0.13406 -0.0035,-0.0176 -0.0071,-0.067 0,-0.0529 0,-0.13406 v -1.01247 q 0,-0.1905 0.04586,-0.28575 0.04939,-0.1023 0.183444,-0.23283 l -0.0635,-0.067 -0.197555,0.1905 -0.352777,-0.38805 -0.666749,0.5715 q -0.0071,-0.0882 -0.02822,-0.16228 -0.02117,-0.0741 -0.0635,-0.14111 -0.0388,-0.067 -0.105833,-0.13053 -0.0635,-0.067 -0.151694,-0.13758 l -0.673804,0.5715 v -0.0917 q 0,-0.16933 -0.05292,-0.254 -0.02469,-0.0459 -0.08114,-0.0988 -0.05644,-0.0564 -0.144639,-0.127 z"
         style="fill:#ffffff"
         id="path22983" />
    </g>
    <text
       xml:space="preserve"
       style="font-weight:bold;font-size:7.05556px;line-height:1.25;font-family:'Old English Five';-inkscape-font-specification:'Old English Five Bold';stroke-width:0.264583"
       x="2.5012715"
       y="9.3254051"
       id="text21238"><tspan
         sodipodi:role="line"
         id="tspan21236"
         style="stroke-width:0.264583"
         x="2.5012715"
         y="9.3254051" /></text>
    <text
       xml:space="preserve"
       transform="matrix(0.26458333,0,0,0.26458333,0,-0.00971522)"
       id="text28416"
       style="line-height:1.25;font-family:'Old English Five';font-size:26.66666667px;-inkscape-font-specification:'Old English Five Bold';font-weight:bold;white-space:pre;shape-inside:url(#rect28418)" />
    <g
       aria-label="e
x
t
r
a
t
รถ
n
e"
       id="text36668"
       style="font-weight:bold;font-size:7.05556px;line-height:1.25;font-family:'Old English Five';-inkscape-font-specification:'Old English Five Bold';stroke-width:0.264583"
       transform="translate(0,-3.7041668)">
      <path
         d="m 10.020098,17.560639 1.460501,-0.973667 -0.09878,-0.141111 -0.719667,0.479778 Q 10.450487,16.805694 10.231764,16.699861 10.020098,16.594028 9.7943197,16.49525 v -0.917223 l 1.8132793,-1.516945 -1.213557,-1.57339 q -0.4515555,0.268111 -0.9101669,0.508 -0.4586114,0.232833 -0.9313339,0.437445 -0.035278,0.01411 -0.0635,0.02822 -0.021167,0.0071 -0.049389,0.02117 l 0.049389,0.105833 h 0.035278 q 0.1905001,0 0.2398891,0.09172 0.049389,0.09172 0.049389,0.472723 v 1.778001 q 0,0.352778 -0.035278,0.515056 -0.0635,0.254 -0.289278,0.381 v 0.09878 q 0.705556,0.112889 1.5310567,0.635 z M 10.81032,14.392693 9.7943197,15.23936 v -2.137835 z"
         style="fill:#ffffff"
         id="path52598" />
      <path
         d="m 8.6019301,25.025422 -0.3668891,0.846667 0.8890005,0.508 0.9736675,-2.039056 q 0.02822,0.0635 0.04233,0.105833 0.02117,0.03528 0.03528,0.04939 l 0.458611,0.924278 q 0.345723,0.677334 0.839612,0.959556 l 1.00189,-0.797278 -0.155223,-0.176389 q -0.204611,0.127 -0.310444,0.127 -0.373945,0 -1.375835,-2.370668 l 0.43039,-0.910167 0.762,0.416278 0.4445,-0.846667 -1.008945,-0.515056 -0.762,1.594556 Q 10.337598,22.555976 10.182376,22.301976 10.034209,22.04092 9.8930976,21.864531 9.6108752,21.504697 9.2439861,21.307142 l -1.0089451,0.903111 0.127,0.141112 q 0.014111,-0.0071 0.028222,-0.02117 0.014111,-0.01411 0.028222,-0.02822 0.1622779,-0.134056 0.2681113,-0.134056 0.2398891,0 0.5997226,0.536223 0.3598336,0.543278 0.6773338,1.354667 l -0.6208893,1.347612 z"
         style="fill:#ffffff"
         id="path52600" />
      <path
         d="m 9.8013753,28.835424 -1.411112,1.869724 v 0.169333 h 0.4233336 v 2.532946 q 0,0.479778 -0.056444,0.649112 -0.056445,0.162278 -0.2610557,0.3175 v 0.127 Q 9.173431,34.684484 9.6814313,35.19954 L 10.73271,34.331706 10.584543,34.162372 10.274098,34.409317 Q 10.168264,34.331706 10.04832,34.247039 9.9354309,34.162372 9.8013753,34.07065 V 30.874481 H 10.640987 V 30.331203 H 9.8013753 Z"
         style="fill:#ffffff"
         id="path52602" />
      <path
         d="m 9.1593193,38.946042 -1.0018895,0.853723 0.1199445,0.141111 0.2963335,-0.246945 q 0.1763891,0.134056 0.2187224,0.303389 0.021167,0.09878 0.021167,0.36689 v 2.01789 q 0,0.169333 -0.014111,0.296333 -0.014111,0.119945 -0.056444,0.218723 -0.035278,0.09172 -0.1058334,0.162278 -0.0635,0.07055 -0.1693335,0.134055 v 0.112889 q 0.6067782,0.105834 1.2276675,0.712612 L 10.909098,43.045322 10.767987,42.8901 10.30232,43.249934 9.822542,42.8901 v -2.822224 l 0.395111,-0.345722 0.585612,0.733778 0.684389,-0.627945 -0.719667,-0.896056 -0.9031117,0.811389 Q 9.6390974,39.214153 9.1593193,38.946042 Z"
         style="fill:#ffffff"
         id="path52604" />
      <path
         d="m 11.311265,52.83844 1.058334,-0.825501 -0.09878,-0.134055 q -0.183444,0.134055 -0.282222,0.134055 -0.211667,0 -0.261056,-0.282222 -0.02117,-0.105833 -0.02117,-0.4445 v -1.735668 q 0,-0.606778 0.0635,-0.853723 0.0635,-0.254 0.303389,-0.620889 l -0.141112,-0.09172 q -0.211666,0.225777 -0.451555,0.225777 -0.49389,0 -1.347612,-0.4445 -0.5432785,0.423334 -1.1782789,0.423334 -0.070556,0 -0.1340556,0 -0.0635,0 -0.1199446,-0.0071 l 0.8607784,1.531057 -0.1199446,0.134055 q -0.8184449,0.945445 -0.8184449,1.686279 0,0.726723 0.769056,1.305279 l 1.3264452,-1.06539 q 0.02822,0.183445 0.0635,0.331612 0.04233,0.148166 0.09878,0.246944 0.119945,0.204611 0.430389,0.486834 z m -1.6510009,-2.970391 1.0583339,0.4445 v 1.220612 l -0.642056,0.515056 Q 9.4556529,51.51905 9.4556529,50.933439 q 0,-0.536223 0.2046112,-1.06539 z m -0.642056,-1.50989 1.7003899,0.571501 v 1.185334 L 9.7660975,49.705771 Z"
         style="fill:#ffffff"
         id="path52606" />
      <path
         d="m 9.8013753,55.293775 -1.411112,1.869723 v 0.169334 h 0.4233336 v 2.532946 q 0,0.479778 -0.056444,0.649111 -0.056445,0.162278 -0.2610557,0.3175 v 0.127001 q 0.6773338,0.183444 1.1853341,0.6985 L 10.73271,60.790056 10.584543,60.620723 10.274098,60.867667 Q 10.168264,60.790056 10.04832,60.705389 9.9354309,60.620723 9.8013753,60.529 V 57.332832 H 10.640987 V 56.789554 H 9.8013753 Z"
         style="fill:#ffffff"
         id="path52608" />
      <path
         d="m 11.607599,69.701229 v -3.563058 q -0.430389,-0.112889 -0.825501,-0.289278 -0.388056,-0.183445 -0.747889,-0.444501 -0.6067784,0.55739 -1.4111122,0.825501 v 2.27189 q 0,0.49389 -0.021167,0.606779 -0.056445,0.338666 -0.2681113,0.500944 v 0.119945 q 0.9172228,0.07055 1.8344455,0.747889 0.49389,-0.395111 1.439335,-0.776111 z M 9.5897085,69.235562 v -3.040947 l 1.0442225,0.451556 v 3.033891 z m -0.2822224,-5.679726 -0.6279449,0.627945 0.6279449,0.627944 0.6208893,-0.627944 z m 1.8626679,0 -0.635,0.627945 0.635,0.627944 0.620889,-0.627944 z"
         style="fill:#ffffff"
         id="path52610" />
      <path
         d="m 9.2228194,74.223843 -0.9877784,0.747889 0.1128889,0.155222 q 0.1905001,-0.105833 0.2469446,-0.105833 0.070556,0 0.112889,0.02822 0.042333,0.02117 0.0635,0.09172 0.028222,0.0635 0.035278,0.190501 0.00706,0.127 0.00706,0.324555 V 78.21729 L 8.4255411,78.584179 9.2792639,79.29679 10.140042,78.605345 9.8013753,78.238456 v -2.751668 l 0.6914447,-0.571501 0.388056,0.402167 v 2.51178 q 0,0.635 0.07761,0.853723 0.07761,0.218722 0.423334,0.522111 0.01411,0.01411 0.04233,0.03528 0.02822,0.02822 0.0635,0.05644 l 1.051279,-0.839611 -0.119945,-0.197556 q -0.02822,0.02117 -0.04939,0.03528 -0.01411,0.01411 -0.02822,0.02822 -0.162278,0.112889 -0.232834,0.112889 -0.1905,0 -0.232833,-0.324556 -0.0071,-0.03528 -0.0071,-0.148167 0,-0.119944 0,-0.310444 v -1.70039 q 0,-0.522112 0.09172,-0.74789 0.09172,-0.239889 0.423333,-0.550333 l -0.148166,-0.155223 -0.465667,0.451556 -0.733779,-0.726722 -1.2347227,1.030111 q -0.00706,-0.03528 -0.00706,-0.127 0,-0.289278 -0.1128889,-0.465667 -0.084667,-0.127 -0.352778,-0.352778 -0.0635,-0.04939 -0.1058334,-0.08467 z"
         style="fill:#ffffff"
         id="path52612" />
      <path
         d="m 10.020098,88.11624 1.460501,-0.973667 -0.09878,-0.141111 -0.719667,0.479778 q -0.211667,-0.119944 -0.43039,-0.225778 -0.211666,-0.105833 -0.4374443,-0.204611 v -0.917223 l 1.8132793,-1.516945 -1.213557,-1.57339 q -0.4515555,0.268111 -0.9101669,0.508 -0.4586114,0.232834 -0.9313339,0.437445 -0.035278,0.01411 -0.0635,0.02822 -0.021167,0.0071 -0.049389,0.02117 l 0.049389,0.105833 h 0.035278 q 0.1905001,0 0.2398891,0.09172 0.049389,0.09172 0.049389,0.472723 v 1.778001 q 0,0.352778 -0.035278,0.515056 -0.0635,0.254 -0.289278,0.381 v 0.09878 q 0.705556,0.112889 1.5310567,0.635 z m 0.790222,-3.167946 -1.0160003,0.846667 v -2.137835 z"
         style="fill:#ffffff"
         id="path52614" />
    </g>
    <path
       style="fill:#ffffff;stroke-width:0.0205313"
       d="m 11.073219,102.98354 c 4.05e-4,-0.0321 0.0053,-0.0429 0.01078,-0.024 0.0056,0.019 0.0052,0.0453 -9.07e-4,0.0584 -0.0059,0.0132 -0.01038,-0.002 -0.01,-0.0345 z m -0.02166,-0.13635 c 4.12e-4,-0.0321 0.0053,-0.043 0.01078,-0.024 0.0056,0.019 0.0052,0.0453 -9.08e-4,0.0584 -0.0059,0.0132 -0.01038,-0.002 -0.01,-0.0345 z m -0.02081,-0.12661 c 0,-0.0375 0.0047,-0.0528 0.0098,-0.0341 0.0055,0.0187 0.0055,0.0494 0,0.0682 -0.0055,0.0187 -0.0098,0.003 -0.0098,-0.0341 z m -0.02327,-0.11687 c 0,-0.0268 0.0049,-0.0377 0.01092,-0.0244 0.006,0.0134 0.006,0.0353 0,0.0487 -0.006,0.0134 -0.01092,0.002 -0.01092,-0.0244 z m -0.09522,-0.45995 c -0.04454,-0.21305 -0.07534,-0.40928 -0.06846,-0.43607 0.0084,-0.0326 0.0059,-0.0404 -0.0074,-0.0235 -0.01354,0.0171 -0.03192,-0.0298 -0.05722,-0.14609 -0.129435,-0.5947 -0.466592,-1.876727 -0.621351,-2.362594 C 10.122007,99.063016 9.9954194,98.712829 9.8765564,98.397302 9.5578383,97.551276 9.2957023,96.751771 9.0268262,95.805719 8.966489,95.593421 8.9517137,95.558955 8.9501241,95.626823 8.9459514,95.797367 8.9273667,95.796137 8.7166764,95.611503 8.6116128,95.519423 8.4235065,95.375059 8.2986716,95.290693 8.1738321,95.206323 8.0581931,95.127855 8.041693,95.116309 c -0.01652,-0.01154 -0.00228,0.0271 0.031776,0.08586 0.050965,0.08815 0.0617,0.130704 0.061335,0.243198 -2.451e-4,0.07788 -0.01443,0.165354 -0.033119,0.203983 L 8.069028,95.71698 7.974996,95.590912 C 7.8502865,95.423717 7.5933169,95.199041 7.3674885,95.059757 L 7.18442,94.946842 7.17715,95.011062 c -0.00417,0.03533 0.00827,0.371003 0.027154,0.745964 0.018916,0.374962 0.044272,0.887738 0.056368,1.139497 0.012069,0.251763 0.036035,0.74262 0.053235,1.090799 0.017209,0.34818 0.037233,0.768917 0.044498,0.934967 l 0.013231,0.301917 -0.2513626,1.207664 c -0.1382455,0.66422 -0.2570068,1.22082 -0.2639086,1.23689 -0.00691,0.0161 -0.01443,0.0511 -0.016746,0.0779 -0.010779,0.12565 -0.063707,0.35061 -0.082514,0.35061 -0.011561,0 -0.015956,-0.0197 -0.00976,-0.0438 0.00617,-0.0241 0.023865,-0.12052 0.039368,-0.21426 0.015448,-0.0937 0.036362,-0.17044 0.046488,-0.17044 0.010125,0 0.012532,-0.008 0.00536,-0.0189 -0.017945,-0.0262 0.034554,-0.3521 0.054888,-0.34078 0.00899,0.005 0.01147,-0.008 0.00544,-0.0288 -0.00608,-0.0209 0.00934,-0.15014 0.034274,-0.28733 0.024883,-0.13719 0.1046484,-0.5869 0.1772166,-0.999357 0.1440457,-0.818747 0.1407755,-0.764857 0.08572,-1.412194 -0.011842,-0.13927 -0.046325,-0.560007 -0.07662,-0.934965 -0.030295,-0.374966 -0.069082,-0.852673 -0.086192,-1.061585 -0.017119,-0.208909 -0.041584,-0.520079 -0.054353,-0.691488 -0.012768,-0.171413 -0.029278,-0.33357 -0.036589,-0.360355 -0.011706,-0.04266 -0.015493,-0.03845 -0.030578,0.03401 -0.025255,0.121618 -0.1314998,0.307495 -0.2659011,0.465249 l -0.1183544,0.13892 0.065295,0.05587 c 0.1155228,0.09884 0.1746447,0.211665 0.1860427,0.355032 0.017019,0.214152 -0.09239,0.474557 -0.8441428,2.009042 -0.1600736,0.32675 -0.3235663,0.666227 -0.3633101,0.754377 -0.039731,0.0882 -0.075248,0.157597 -0.078909,0.154307 -0.012169,-0.0109 0.1134695,-0.325137 0.5190081,-1.298251 0.5485956,-1.316383 0.6136521,-1.515859 0.5448621,-1.6706 -0.047415,-0.106644 -0.1641255,-0.19934 -0.2510019,-0.19934 -0.079609,0 -0.2416347,-0.140461 -0.4080326,-0.353729 -0.1251955,-0.160459 -0.1051292,-0.19441 -0.184775,0.312575 -0.055142,0.350997 -0.061517,0.37213 -0.3190372,1.056081 -0.1445271,0.383854 -0.2661799,0.694853 -0.2703428,0.691103 -0.00417,-0.004 0.1006419,-0.316822 0.2328974,-0.695724 l 0.2404594,-0.688908 0.05181,-0.409056 c 0.028498,-0.224974 0.056822,-0.439727 0.062953,-0.47722 0.00617,-0.03751 0.00373,-0.05736 -0.00554,-0.04413 -0.010779,0.01551 -0.1070254,0.02866 -0.2718177,0.03713 l -0.2551376,0.0131 0.015638,0.530061 0.015638,0.530069 -0.3797276,0.806018 c -0.208847,0.44331 -0.4306659,0.917977 -0.4929327,1.054827 -0.062262,0.13684 -0.117082,0.24532 -0.1218235,0.24105 -0.00916,-0.008 0.2414266,-0.607167 0.6491993,-1.551651 l 0.2481712,-0.574825 -0.019335,-0.262751 c -0.010634,-0.144517 -0.0266,-0.37232 -0.035527,-0.506235 L 5.0419238,95.795935 4.78223,95.781885 C 4.2400513,95.752515 3.9514832,95.727855 3.7001759,95.689375 3.0041818,95.582803 2.3959342,95.394783 1.9037916,95.134084 1.7908079,95.074234 1.6983718,95.020999 1.6983718,95.015773 c 0,-0.0052 0.051128,0.0174 0.1136175,0.05025 0.3002478,0.157877 0.6171392,0.278081 1.0014411,0.379862 0.5425535,0.143696 1.0020976,0.202398 1.7056592,0.217884 l 0.5159369,0.01135 -0.014104,-0.20255 c -0.00772,-0.111401 -0.023221,-0.32088 -0.034318,-0.465509 -0.011152,-0.144628 -0.020306,-0.317404 -0.020351,-0.383948 L 4.96617,94.502123 4.7179204,94.257336 c -0.6691561,-0.659824 -1.20021,-1.360335 -1.4742243,-1.944643 -0.054461,-0.116131 -0.095166,-0.214625 -0.090451,-0.218868 0.00472,-0.0043 0.039413,0.06003 0.07711,0.142827 0.1564518,0.343626 0.4944966,0.829961 0.8782434,1.263496 0.2157163,0.2437 0.5973037,0.628896 0.7595559,0.766728 l 0.080243,0.06818 -0.012905,-0.126613 C 4.9230066,94.085842 4.9054704,93.8238 4.857956,93.049471 4.84547,92.845919 4.83191,92.659308 4.827797,92.634779 c -0.00417,-0.02455 4.631e-4,-0.04205 0.010358,-0.03897 0.00981,0.0033 0.2491613,0.184269 0.5319238,0.402588 0.4898523,0.378215 0.5148035,0.394618 0.5287915,0.347552 0.00808,-0.02715 0.043708,-0.100854 0.079226,-0.163737 0.080634,-0.142822 0.079807,-0.139033 0.1453499,-0.668414 0.1362748,-1.100788 0.2258566,-1.79681 0.2319347,-1.802056 0.00373,-0.0031 0.2057621,0.359396 0.4491649,0.805646 0.2433974,0.446249 0.4487989,0.818299 0.4564446,0.82678 0.00763,0.0085 0.1006557,-0.0072 0.2066874,-0.03491 0.2103746,-0.0549 0.5532116,-0.113171 0.6088734,-0.103479 0.019243,0.0033 -0.1322362,0.06609 -0.3366153,0.139416 -0.2043845,0.07333 -0.3779657,0.14259 -0.3857412,0.153918 -0.024192,0.03519 0.300336,-0.0019 0.4391862,-0.05015 0.069727,-0.02426 0.1900813,-0.05985 0.2674467,-0.07911 0.077374,-0.01925 0.1548145,-0.04148 0.1721056,-0.04934 0.017899,-0.0082 0.067076,-0.131012 0.114265,-0.285495 0.082668,-0.270636 0.4971847,-1.752596 0.57035,-2.039108 0.021232,-0.08318 0.045516,-0.144534 0.053935,-0.13635 0.00845,0.0082 0.1685247,0.518887 0.355789,1.134896 0.1872587,0.61601 0.4011904,1.319671 0.475401,1.563697 0.074214,0.244021 0.1389943,0.447342 0.1439664,0.451816 0.005,0.0047 0.076864,0.01788 0.1597654,0.0298 0.137124,0.01972 0.153671,0.01845 0.183327,-0.0141 0.01795,-0.01968 0.221818,-0.240497 0.453092,-0.49069 l 0.420495,-0.4549 0.333936,0.601557 c 0.183665,0.330861 0.33532,0.603048 0.337013,0.604869 0.0018,0.0019 0.178342,0.03074 0.39255,0.06432 2.514476,0.393933 3.96966,0.733449 4.200097,0.979939 0.129438,0.138456 4.34e-4,0.339889 -0.292787,0.457189 -0.687039,0.274836 -1.933236,0.22093 -3.298686,-0.142699 -0.141322,-0.03765 -0.261276,-0.06453 -0.266559,-0.05978 -0.0053,0.0048 0.01452,0.05116 0.04404,0.10311 0.05176,0.09114 0.07138,0.103659 0.558716,0.356487 0.277785,0.144118 0.750134,0.391738 1.049664,0.550272 0.29953,0.15853 0.554354,0.28824 0.566275,0.28824 0.01194,0 0.02493,0.0072 0.02891,0.01599 0.0041,0.0088 0.111906,0.07227 0.23986,0.141067 l 0.232643,0.125085 v 0.111704 c 0,0.132942 0.02086,0.1503 0.264175,0.219735 l 0.156947,0.04479 -0.08709,0.02109 c -0.05236,0.01268 -0.151128,0.06962 -0.24763,0.142736 -0.132126,0.100102 -0.177925,0.123435 -0.258731,0.131811 l -0.09819,0.01017 0.0013,0.09252 c 0.0013,0.08936 -9.08e-4,0.09252 -0.06129,0.09252 -0.08887,0 -0.356705,-0.08508 -0.619138,-0.196671 -0.286656,-0.121897 -0.295472,-0.122001 -0.28488,-0.0033 l 0.0037,0.04333 -0.120792,-0.04808 -0.120796,-0.04808 0.05725,0.102131 c 0.12267,0.218778 0.629526,1.053111 0.824613,1.357381 0.321498,0.501427 0.463268,0.685517 0.704287,0.914544 0.1231,0.11698 0.326517,0.325257 0.452041,0.462857 0.554812,0.608167 1.539471,1.767057 1.517892,1.786487 -0.0075,0.007 -0.0033,0.0122 0.0096,0.0122 0.01277,0 0.137783,0.13805 0.277832,0.30678 0.140054,0.16874 0.27847,0.33528 0.307599,0.3701 0.02915,0.0348 0.04752,0.0633 0.04085,0.0633 -0.01304,0 -0.602309,-0.67314 -0.602784,-0.68859 -1.58e-4,-0.005 -0.03308,-0.0429 -0.07316,-0.084 -0.04005,-0.0411 -0.293915,-0.32452 -0.564092,-0.62985 -0.759881,-0.858737 -1.222745,-1.346104 -1.516939,-1.597234 -0.08158,-0.0696 -0.217405,-0.218647 -0.301847,-0.331137 -0.206294,-0.27482 -0.662268,-0.963591 -1.069296,-1.615242 l -0.333665,-0.534191 -0.140742,-0.0583 c -0.170339,-0.07056 -0.365578,-0.09158 -0.409374,-0.04408 -0.02327,0.02526 -0.0236,0.03694 -0.0013,0.0609 0.03751,0.04072 -0.286807,-0.06354 -0.570139,-0.183243 -0.376613,-0.159113 -1.126899,-0.551016 -1.578127,-0.82432 -0.06845,-0.04143 -0.124437,-0.06929 -0.124437,-0.06186 0,0.0074 0.09905,0.338651 0.220097,0.736041 l 0.220097,0.722539 0.530676,0.633053 c 0.291865,0.348176 0.665732,0.793023 0.830807,0.988533 0.165077,0.19551 0.295787,0.355487 0.290464,0.355487 -0.0054,0 -0.188287,-0.203797 -0.40658,-0.452877 -0.218381,-0.249087 -0.601074,-0.685159 -0.850511,-0.969057 L 11.104211,97.062118 10.891228,96.419324 C 10.774086,96.065788 10.654302,95.705617 10.62504,95.618938 L 10.571917,95.46135 10.328099,95.308052 C 10.193997,95.223742 9.9051565,95.033386 9.6862304,94.885049 9.4673028,94.736708 9.2817878,94.622417 9.2739651,94.631058 c -0.00781,0.0087 -0.050683,0.05711 -0.095245,0.107703 l -0.081033,0.09198 0.077302,0.219676 c 0.04251,0.120819 0.083376,0.253826 0.090796,0.295567 0.013231,0.07452 0.012441,0.07566 -0.044408,0.06281 -0.051856,-0.01173 -0.056805,-0.0084 -0.047205,0.03122 0.2454561,1.01469 0.5969939,2.224347 0.8563269,2.946628 0.157667,0.439127 0.233178,0.681804 0.34244,1.100531 0.192453,0.737557 0.473139,2.036027 0.598819,2.770177 0.06178,0.36081 0.02498,0.29061 -0.05951,-0.11356 z M 6.9286811,101.1976 c -0.00691,-0.0156 -0.012024,-0.0109 -0.013086,0.0118 -9.081e-4,0.0205 0.00417,0.032 0.011379,0.0256 0.00717,-0.007 0.008,-0.0233 0.00182,-0.0373 z m 3.8090499,-0.0301 c -0.0055,-0.019 -0.01027,-0.008 -0.01078,0.024 -4.07e-4,0.0321 0.0041,0.0476 0.01,0.0345 0.0059,-0.0132 0.0062,-0.0395 9.09e-4,-0.0584 z m 6.347493,-0.10999 c 0,-0.004 -0.01702,-0.0194 -0.03788,-0.0341 -0.03432,-0.0242 -0.03511,-0.0236 -0.0082,0.007 0.02826,0.0324 0.04602,0.0428 0.04602,0.0267 z m -6.43472,-0.27019 c -0.006,-0.0134 -0.01092,-0.002 -0.01092,0.0244 0,0.0268 0.0049,0.0377 0.01092,0.0244 0.006,-0.0134 0.006,-0.0353 0,-0.0487 z m -3.6357095,-0.039 c -0.00599,-0.0134 -0.010916,-0.002 -0.010916,0.0244 0,0.0268 0.0049,0.0377 0.010916,0.0244 0.00599,-0.0134 0.00599,-0.0353 0,-0.0487 z m 3.6145185,-0.0377 c -0.0069,-0.0156 -0.01202,-0.0109 -0.01309,0.0118 -9.07e-4,0.0205 0.0041,0.032 0.01138,0.0256 0.0072,-0.007 0.0079,-0.0233 0.0018,-0.0373 z m 6.119004,-0.045 c -0.03177,-0.0375 -0.06267,-0.0682 -0.06867,-0.0682 -0.01069,0 0.01568,0.0346 0.07795,0.10226 0.05684,0.0618 0.0497,0.0355 -0.0092,-0.0341 z m -9.6411699,-0.35875 c 0.00228,-0.0681 -0.012261,-0.0434 -0.027571,0.0471 -0.00921,0.0543 -0.00717,0.0661 0.00645,0.039 0.010779,-0.0214 0.020306,-0.0601 0.021141,-0.086 z m 3.4355999,0.0337 c -0.0069,-0.0155 -0.01202,-0.0109 -0.01309,0.0118 -9.08e-4,0.0205 0.0041,0.032 0.01137,0.0256 0.0072,-0.007 0.0079,-0.0233 0.0018,-0.0373 z m 5.88982,-0.0353 c -0.04846,-0.059 -0.07708,-0.079 -0.04867,-0.0341 0.02018,0.0319 0.07819,0.0925 0.08856,0.0925 0.0047,0 -0.01346,-0.0263 -0.03987,-0.0584 z m -5.911913,-0.0633 c -0.006,-0.0134 -0.01092,-0.002 -0.01092,0.0244 0,0.0268 0.0049,0.0377 0.01092,0.0244 0.006,-0.0134 0.006,-0.0353 0,-0.0487 z m 5.570307,-0.312287 -0.07228,-0.0627 0.06179,0.0721 c 0.03401,0.0397 0.06652,0.0679 0.0723,0.0627 0.0058,-0.005 -0.02202,-0.0376 -0.06179,-0.0721 z m -8.8972481,-0.0708 c 0.00228,-0.0681 -0.01226,-0.0434 -0.027571,0.0471 -0.00921,0.0543 -0.00727,0.0661 0.00645,0.039 0.010779,-0.0214 0.020306,-0.0601 0.021141,-0.086 z m 3.2363051,0.013 c -0.0082,-0.0348 -0.0241,-0.0721 -0.03548,-0.0828 -0.01341,-0.0127 -0.01707,-0.009 -0.01036,0.01 0.0056,0.0161 0.01615,0.0533 0.02331,0.0828 0.0072,0.0295 0.01851,0.0536 0.02516,0.0536 0.0066,0 0.0054,-0.0285 -0.0028,-0.0633 z m 5.34223,-0.29614 c -0.0328,-0.037 -0.06358,-0.0637 -0.06838,-0.0594 -0.01155,0.0104 0.08885,0.12421 0.110866,0.1256 0.0094,4.7e-4 -0.0096,-0.0292 -0.04247,-0.0662 z M 7.2814685,99.401156 c 4.068e-4,-0.0749 -0.012069,-0.0593 -0.030068,0.0373 -0.010411,0.0558 -0.00827,0.0696 0.00763,0.0487 0.012169,-0.0161 0.02225,-0.0548 0.022431,-0.086 z m 3.0204665,-0.003 c -0.0082,-0.0391 -0.01971,-0.0667 -0.02563,-0.0613 -0.006,0.005 -0.0042,0.0417 0.0042,0.0808 0.0082,0.0391 0.01971,0.0667 0.02563,0.0613 0.006,-0.005 0.0042,-0.0417 -0.0042,-0.0808 z m 5.181846,-0.11214 c 0,-0.003 -0.03163,-0.0318 -0.07033,-0.0633 l -0.07033,-0.0572 0.06357,0.0633 c 0.05926,0.059 0.07711,0.0723 0.07711,0.0572 z M 7.2970712,98.936629 c -0.00518,-0.0241 -0.00939,-0.004 -0.00939,0.0438 0,0.0482 0.00417,0.0679 0.00939,0.0439 0.00518,-0.0241 0.00518,-0.0636 0,-0.0876 z m 2.8728028,0.0166 c -0.0081,-0.0386 -0.02433,-0.0702 -0.03617,-0.0702 -0.01184,0 -0.01558,0.014 -0.0084,0.031 0.0073,0.0171 0.01924,0.0525 0.02655,0.0788 0.02017,0.0724 0.03464,0.0404 0.01795,-0.0397 z m 4.947133,-0.0263 c -0.03446,-0.0533 -0.08027,-0.10226 -0.09569,-0.10226 -0.0077,0 0.008,0.0306 0.03483,0.0679 0.04911,0.0682 0.102084,0.0981 0.06084,0.0343 z m -7.8445963,-0.4873 c -0.027662,-0.0249 -0.037979,0.0177 -0.021006,0.0871 l 0.01809,0.0739 0.00763,-0.075 c 0.00417,-0.0412 0.00182,-0.08 -0.00463,-0.086 z m 2.7347903,0.0601 c -0.015031,-0.0409 -0.031595,-0.063 -0.03677,-0.049 -0.010453,0.028 0.038024,0.14683 0.054052,0.13242 0.0055,-0.005 -0.0023,-0.0425 -0.01726,-0.0834 z m 4.793317,-0.0153 c -0.05108,-0.0702 -0.0657,-0.0461 -0.01702,0.028 0.02183,0.0333 0.04288,0.0519 0.04676,0.0415 0.0037,-0.0104 -0.0094,-0.0417 -0.0297,-0.0695 z m -0.260684,-0.398437 c -0.02156,-0.0329 -0.04799,-0.0598 -0.0587,-0.0598 -0.01069,0 -0.0055,0.0197 0.01166,0.0439 0.01712,0.0241 0.03867,0.0554 0.04794,0.0695 0.0092,0.0141 0.02169,0.0213 0.02762,0.0159 0.0059,-0.005 -0.0069,-0.0366 -0.0285,-0.0695 z m -7.2796769,-0.0197 c 0,-0.0422 -0.00976,-0.0822 -0.021651,-0.0888 -0.013231,-0.007 -0.021651,0.0225 -0.021651,0.0768 0,0.0489 0.00976,0.0888 0.021651,0.0888 0.011888,0 0.021651,-0.0345 0.021651,-0.0768 z m 2.6099742,0.0457 c -0.00727,-0.0171 -0.019107,-0.0521 -0.026318,-0.0779 -0.00717,-0.0258 -0.022803,-0.0469 -0.034691,-0.0469 -0.011888,0 -0.015684,0.0139 -0.00836,0.031 0.00727,0.0171 0.019107,0.0521 0.026318,0.0779 0.00717,0.0258 0.022803,0.0469 0.034691,0.0469 0.011887,0 0.015683,-0.014 0.00836,-0.031 z m 4.4136217,-0.42749 c -0.02217,-0.03708 -0.04916,-0.0674 -0.05994,-0.0674 -0.01078,0 0.0022,0.03495 0.02891,0.0777 0.05894,0.09439 0.08793,0.08478 0.03104,-0.01031 z m -4.5800746,-0.06533 c -0.01462,-0.04389 -0.035436,-0.07981 -0.04626,-0.07981 -0.018962,0 -0.011007,0.03557 0.030023,0.134181 0.03173,0.07629 0.044962,0.03197 0.016238,-0.05437 z m -2.4804063,-0.01651 c -0.013649,-0.07961 -0.021605,-0.09507 -0.040249,-0.07828 -0.017627,0.01584 0.013649,0.151326 0.034926,0.151326 0.00981,0 0.012214,-0.03287 0.00536,-0.07304 z M 14.057109,97.3093 c -0.03104,-0.05078 -0.08675,-0.112447 -0.08752,-0.09687 -0.0013,0.03259 0.07294,0.149084 0.08949,0.139866 0.01,-0.0055 0.009,-0.02488 -0.0018,-0.04299 z M 9.56566,97.193613 c -0.0173,-0.08474 -0.054834,-0.131607 -0.054834,-0.06847 0,0.0494 0.036453,0.141512 0.055978,0.141512 0.00763,0 0.00699,-0.03287 -9.082e-4,-0.07304 z m -2.3704251,-0.05357 c 0,-0.04821 -0.00976,-0.08765 -0.021651,-0.08765 -0.023912,0 -0.030205,0.141634 -0.00717,0.162318 0.025582,0.02303 0.028861,0.01452 0.028861,-0.07466 z m 6.5904781,-0.281122 c -0.01887,-0.03287 -0.04404,-0.05976 -0.05587,-0.05976 -0.01184,0 -3.15e-4,0.03727 0.02563,0.08279 0.0259,0.04555 0.05106,0.07242 0.05587,0.05976 0.0048,-0.01268 -0.0067,-0.04992 -0.02563,-0.08279 z m -4.3399239,-0.05488 c -4.124e-4,-0.04602 -0.048341,-0.160114 -0.063707,-0.151572 -0.022667,0.01263 0.018734,0.166183 0.044825,0.166183 0.010453,0 0.018962,-0.0066 0.018872,-0.01462 z M 7.1735912,96.6823 c 0,-0.04285 -0.00976,-0.07791 -0.021651,-0.07791 -0.011888,0 -0.021651,0.03505 -0.021651,0.07791 0,0.04285 0.00976,0.07792 0.021651,0.07792 0.011888,0 0.021651,-0.03505 0.021651,-0.07792 z m 6.6005438,-0.176384 v -0.137427 l -0.120413,-0.04962 c -0.06623,-0.02729 -0.123462,-0.04654 -0.127185,-0.04276 -0.01235,0.01253 0.207751,0.367225 0.227864,0.367225 0.01087,0 0.01975,-0.06184 0.01975,-0.13743 z m 1.037447,0.09016 c 0.02018,-0.02185 0.01346,-0.05511 -0.03151,-0.156293 -0.04752,-0.106933 -0.05592,-0.152698 -0.05002,-0.272557 0.0084,-0.168552 0.0029,-0.167497 -0.144879,0.02677 -0.110204,0.145172 -0.14614,0.269266 -0.0943,0.325645 0.03729,0.04058 0.187629,0.103233 0.249045,0.103806 0.0253,2.17e-4 0.05757,-0.01206 0.07166,-0.02734 z m -1.26904,-0.137784 c -0.01989,-0.03751 -0.04404,-0.06818 -0.05375,-0.06818 -0.02484,0 -0.02225,0.01339 0.0154,0.07889 0.04681,0.08149 0.08201,0.07167 0.03835,-0.01069 z M 9.3160647,96.344325 c 0,-0.04692 -0.046933,-0.148994 -0.068501,-0.148994 -0.011515,0 -0.01591,0.01532 -0.00972,0.0341 0.00617,0.01873 0.017627,0.05819 0.025437,0.08765 0.014521,0.05484 0.052781,0.07459 0.052781,0.02724 z M 7.1340181,96.214808 c -0.00463,-0.04285 -0.016973,-0.07791 -0.027616,-0.07791 -0.010644,0 -0.01938,0.03505 -0.01938,0.07791 0,0.05021 0.00981,0.07792 0.027616,0.07792 0.019199,0 0.025119,-0.02384 0.019379,-0.07792 z m 5.5144459,-0.04385 c -1.7e-4,-0.06696 -0.0075,-0.13087 -0.01625,-0.142032 -0.02253,-0.02876 -0.332137,-0.149571 -0.347606,-0.135651 -0.007,0.0063 -0.01319,0.05612 -0.01369,0.110625 l -9.07e-4,0.0991 0.162308,0.09364 c 0.08927,0.0515 0.174483,0.09418 0.189359,0.09485 0.01892,9.45e-4 0.02698,-0.03533 0.02673,-0.120535 z m 0.648572,-0.13323 c -0.02419,-0.04266 -0.05328,-0.07235 -0.0647,-0.066 -0.01188,0.0066 -2.45e-4,0.04361 0.02734,0.08677 0.06263,0.09795 0.09456,0.0802 0.03733,-0.02076 z m 0.497414,0.07136 c 0.02018,-0.0219 0.01337,-0.05537 -0.0321,-0.157584 -0.04847,-0.109065 -0.05641,-0.152645 -0.04968,-0.272735 0.0094,-0.168879 9.08e-4,-0.166987 -0.146535,0.03283 -0.107086,0.144983 -0.142797,0.266341 -0.09396,0.319305 0.04232,0.04593 0.175167,0.10416 0.239765,0.105135 0.03126,4.73e-4 0.0684,-0.01164 0.08247,-0.02691 z M 9.1744981,95.818015 c -0.014104,-0.06762 -0.053208,-0.09991 -0.053208,-0.04394 0,0.06898 0.029006,0.14967 0.047768,0.132799 0.011107,-0.01 0.01355,-0.04998 0.00544,-0.08887 z m -2.065829,-0.06098 c 0,-0.04821 -0.00972,-0.08765 -0.021651,-0.08765 -0.011888,0 -0.021651,0.03945 -0.021651,0.08765 0,0.04821 0.00976,0.08766 0.021651,0.08766 0.011887,0 0.021651,-0.03945 0.021651,-0.08766 z m 4.4319679,-0.149992 -0.0064,-0.140259 -0.16777,-0.06747 c -0.09227,-0.03713 -0.171514,-0.06384 -0.176088,-0.0594 -0.0047,0.0043 -0.01494,0.05248 -0.02309,0.106762 l -0.01476,0.09869 0.180024,0.100438 c 0.09901,0.05525 0.187755,0.100679 0.197205,0.100968 0.0094,2.84e-4 0.01429,-0.0626 0.01082,-0.139733 z m 1.517233,0.02417 c -0.02651,-0.04243 -0.05598,-0.07276 -0.06557,-0.06744 -0.0261,0.01452 0.0494,0.144558 0.08389,0.144558 0.02225,0 0.01762,-0.01953 -0.01831,-0.07712 z m -0.331124,0.03027 c 0.0064,-0.01504 -0.0086,-0.08831 -0.03312,-0.162801 -0.02466,-0.07448 -0.04509,-0.178309 -0.04551,-0.23072 -9.09e-4,-0.109491 -0.05139,-0.193053 -0.08712,-0.143891 -0.149943,0.206286 -0.213445,0.363861 -0.176249,0.437343 0.04726,0.09335 0.311859,0.170775 0.342004,0.100069 z m -7.1223639,-0.04246 c 0.042737,-0.0096 0.046651,-0.02043 0.037697,-0.104259 -0.00781,-0.0731 0.00282,-0.119291 0.049003,-0.211802 l 0.058992,-0.118307 -0.191765,-0.162786 C 5.4528387,94.932339 5.3166566,94.817739 5.2556848,94.767196 l -0.1108604,-0.09189 0.00926,0.443483 c 0.00508,0.243916 0.014112,0.464459 0.020079,0.490099 0.010689,0.04607 0.013086,0.04645 0.1966681,0.03377 0.1022199,-0.007 0.2073114,-0.01769 0.2335394,-0.02365 z M 6.788711,95.501511 c 0.037606,-0.05814 0.037652,-0.0626 9.082e-4,-0.103262 l -0.038251,-0.04247 -0.1190064,0.07979 c -0.065458,0.04389 -0.1220497,0.0876 -0.1257649,0.09714 -0.00645,0.0167 0.11304,0.03552 0.200425,0.0315 0.023221,-9.46e-4 0.059883,-0.02928 0.081496,-0.06269 z M 8.8902508,95.2939 C 8.8588386,95.163556 8.8427914,95.134987 8.760106,95.061945 l -0.094305,-0.08331 0.1195377,0.211759 c 0.06575,0.116467 0.1195432,0.22514 0.1195432,0.241496 0,0.01637 0.00472,0.02545 0.010598,0.0202 0.00581,-0.0053 -0.00554,-0.07643 -0.025256,-0.158194 z m 0.1761113,0.09794 c -0.018362,-0.07712 -0.027753,-0.09252 -0.056269,-0.09252 -0.020216,0 -0.00735,0.102968 0.017627,0.141218 0.026691,0.04082 0.052282,0.0086 0.038622,-0.04869 z m -2.6486078,-0.148322 0.2130155,-0.15319 -0.054125,-0.04578 c -0.063606,-0.05379 -0.051538,-0.05865 -0.3241584,0.130751 l -0.1864259,0.129526 0.061426,0.04522 c 0.033764,0.02488 0.064986,0.04555 0.069337,0.04593 0.00417,3.83e-4 0.103764,-0.06824 0.2209254,-0.15249 z m 0.6692757,0.0558 c 0,-0.05627 -0.00899,-0.07791 -0.032475,-0.07791 -0.02234,0 -0.032474,0.0202 -0.032474,0.06493 0,0.03571 0.00645,0.07077 0.01443,0.07791 0.033447,0.03008 0.050501,0.0082 0.050501,-0.06493 z m 3.501721,-0.225939 c -0.0064,-0.0657 -0.01462,-0.07223 -0.168993,-0.133537 -0.179595,-0.07132 -0.185904,-0.06931 -0.197978,0.06306 l -0.0076,0.08342 0.183952,0.103616 0.183947,0.103616 0.0067,-0.07554 c 0.0037,-0.04153 0.0037,-0.10663 0,-0.144624 z m 2.254814,0.205492 c 0,-0.03467 -0.06481,-0.135382 -0.08712,-0.135382 -0.02826,0 -0.02702,0.0069 0.0154,0.08699 0.03511,0.06624 0.07174,0.09096 0.07174,0.04839 z m -1.164401,-0.106166 c -0.0037,-0.04285 -0.0086,-0.20604 -0.01082,-0.362635 l -0.0041,-0.284726 -0.09191,0.123325 c -0.136556,0.183238 -0.221888,0.34506 -0.221888,0.420789 0,0.105163 0.1299,0.194121 0.270513,0.185257 0.0618,-0.0038 0.0646,-0.0079 0.05832,-0.08201 z M 8.3164972,95.041003 c 0.005,-0.02336 -0.00663,-0.03387 -0.037606,-0.03387 -0.030949,0 -0.044871,0.01253 -0.044871,0.04039 0,0.04991 0.071634,0.04427 0.082496,-0.0065 z M 5.8391294,94.74905 c 0.020351,-0.163377 0.03677,-0.310697 0.036498,-0.327379 -2.452e-4,-0.0167 -0.061372,-0.07079 -0.1357617,-0.120232 -0.074395,-0.04945 -0.179081,-0.130723 -0.2326422,-0.180618 l -0.097386,-0.09072 0.2348809,0.111439 c 0.1882959,0.08934 0.2386704,0.106067 0.2539535,0.08434 0.048132,-0.06841 0.019199,-0.110437 -0.1696307,-0.246391 -0.2960751,-0.213168 -0.3106789,-0.239504 -0.073486,-0.132534 0.1113419,0.05021 0.2050684,0.08856 0.2082787,0.08521 0.00327,-0.0033 9.081e-4,-0.05541 -0.00472,-0.11571 L 5.8485677,93.706832 5.5344843,93.447898 C 5.3617404,93.305483 5.1913602,93.166965 5.1558574,93.140076 l -0.064541,-0.04888 0.013459,0.397967 c 0.00735,0.218877 0.019289,0.540954 0.026363,0.715721 l 0.012905,0.317754 0.3168405,0.261598 c 0.1742614,0.143876 0.3223266,0.261653 0.329034,0.261729 0.00673,8e-5 0.028861,-0.133537 0.049194,-0.29691 z m 3.1192956,0.194784 c -0.00818,-0.03481 -0.022758,-0.07095 -0.032474,-0.08029 -0.00972,-0.0093 -0.012905,-0.02819 -0.00707,-0.04186 0.016655,-0.03902 -0.036216,-0.05612 -0.072489,-0.02346 -0.029188,0.02625 -0.027799,0.03387 0.012905,0.07048 0.025074,0.02256 0.045607,0.06296 0.045607,0.08974 0,0.03141 0.012169,0.04869 0.034182,0.04869 0.027199,0 0.031132,-0.01296 0.01938,-0.0633 z M 6.8692495,94.805009 c -0.020124,-0.01684 -0.023085,-0.01069 -0.012678,0.02682 0.00745,0.02677 0.015176,0.06623 0.017209,0.08765 0.00182,0.02143 0.00781,0.0094 0.012678,-0.02682 0.005,-0.03661 -0.00282,-0.07548 -0.017209,-0.08765 z m 0.1832257,0.107778 c 0.016746,-0.02441 -0.011379,-0.15887 -0.033212,-0.15887 -0.010358,0 -0.018826,0.03945 -0.018826,0.08765 0,0.08004 0.023684,0.112471 0.052009,0.07122 z M 6.117927,94.733484 6.2586606,94.586444 6.1315691,94.526454 c -0.1467149,-0.06925 -0.1290215,-0.08759 -0.1686137,0.174691 -0.027988,0.185305 -0.02877,0.222241 -0.00417,0.197887 0.010231,-0.01017 0.081906,-0.08467 0.1593061,-0.165549 z m 6.487588,0.136337 c 0,-0.03467 -0.06482,-0.135381 -0.08712,-0.135381 -0.02826,0 -0.02707,0.0069 0.0154,0.08699 0.03511,0.06624 0.07174,0.09096 0.07174,0.04839 z m -4.6095591,-0.04866 c 0,-0.03528 -0.042328,-0.05642 -0.06752,-0.03372 -0.029324,0.02639 3.286e-4,0.08293 0.036871,0.07032 0.016883,-0.0058 0.030668,-0.02228 0.030668,-0.03656 z M 6.5351788,94.673458 c 0,-0.04991 -0.047886,-0.03126 -0.1623085,0.06313 l -0.1190246,0.09822 0.1406683,-0.06897 c 0.077364,-0.03793 0.1406648,-0.07951 0.1406648,-0.09239 z m 4.0888572,0.140817 c 0.0067,-0.0096 -0.0037,-0.08636 -0.02313,-0.17044 -0.03423,-0.148691 -0.03266,-0.424809 0.0029,-0.522967 0.02373,-0.06536 -0.07948,0.05402 -0.190631,0.220495 -0.114858,0.172038 -0.166857,0.318294 -0.131376,0.369546 0.05669,0.0819 0.30535,0.157007 0.342185,0.103366 z m -2.9526961,-0.06871 c 0,-0.01911 -0.2235943,-0.322773 -0.2376615,-0.322773 -0.00845,0 -0.033864,0.01849 -0.056549,0.04106 -0.041121,0.04096 -0.040749,0.04143 0.1102593,0.165042 0.1362239,0.111487 0.1839523,0.141758 0.1839523,0.116666 z m 1.99098,-0.175174 v -0.144576 l -0.079917,-0.02374 c -0.078563,-0.02332 -0.081124,-0.02247 -0.1511647,0.05205 -0.039177,0.04167 -0.071399,0.08189 -0.071571,0.08933 -2.442e-4,0.01083 0.2774899,0.171021 0.2972465,0.171409 0.00282,6.1e-5 0.00544,-0.06495 0.00544,-0.144473 z m -1.2884773,0.03566 c 0.016147,-0.09692 0.00862,-0.115956 -0.039086,-0.09946 -0.02877,0.0099 -0.060672,0.160043 -0.038305,0.180174 0.033119,0.0298 0.064424,-0.0028 0.077392,-0.08071 z m 7.1161374,0.07511 c -0.06205,-0.0038 -0.169177,-0.0038 -0.23805,-8.1e-5 -0.06887,0.0038 -0.01809,0.0071 0.112827,0.0071 0.130926,3.8e-5 0.187278,-0.0033 0.125223,-0.007 z m -0.482303,-0.01854 c -0.816924,-0.05516 -1.854067,-0.217652 -2.607754,-0.408562 -0.03173,-0.008 -0.03709,-0.0051 -0.02008,0.01116 0.02937,0.02795 0.428081,0.124782 0.816292,0.198218 0.610115,0.115403 1.395466,0.208996 1.735787,0.206858 0.09522,-4.73e-4 0.129308,-0.0043 0.07574,-0.0077 z M 7.7686981,94.55917 c 0.014249,-0.02076 -0.0528,-0.136389 -0.079109,-0.136389 -0.037698,0 -0.039459,0.04332 -0.00417,0.09735 0.040339,0.06148 0.061036,0.0712 0.083123,0.03902 z m 1.4599998,-0.127521 c -0.020587,-0.02232 -0.034328,-0.01688 -0.079162,0.03103 -0.035064,0.03751 -0.049112,0.07001 -0.039686,0.09185 0.012533,0.02914 0.023502,0.02483 0.079162,-0.03103 0.050738,-0.05092 0.059256,-0.07064 0.039686,-0.09185 z m 3.0215921,0.09175 c -0.0253,-0.04403 -0.06994,-0.0676 -0.220934,-0.116552 -0.104065,-0.03372 -0.192759,-0.05815 -0.19709,-0.05425 -0.0082,0.0074 0.403471,0.22031 0.432956,0.223938 0.0092,9.46e-4 0.0022,-0.0228 -0.01494,-0.05314 z m -3.3968043,-0.02516 c -0.00745,-0.03349 -0.013503,-0.07292 -0.013503,-0.08766 0,-0.01471 -0.01503,-0.02677 -0.033447,-0.02677 -0.026826,0 -0.030532,0.01447 -0.018781,0.07305 0.017482,0.08712 0.02581,0.102264 0.056223,0.102264 0.014294,0 0.0179,-0.02313 0.00953,-0.06087 z m 3.5139743,-0.03751 c 0,-0.03467 -0.06482,-0.135386 -0.08712,-0.135386 -0.02826,0 -0.02702,0.0069 0.0154,0.087 0.03511,0.06624 0.07174,0.09096 0.07174,0.04839 z m -5.3453576,-0.07695 c 0,-0.05627 -0.00899,-0.07792 -0.032474,-0.07792 -0.033583,0 -0.043945,0.06725 -0.019335,0.125019 0.024192,0.05672 0.051782,0.0316 0.051782,-0.04711 z m 1.1832282,-0.08927 c 0.032384,-0.196378 0.034137,-0.261347 0.00699,-0.261347 -0.047314,0 -0.4733106,0.185618 -0.4578794,0.199509 0.041719,0.03755 0.3845242,0.224998 0.4037669,0.220788 0.011888,-0.0024 0.033074,-0.07413 0.04707,-0.15895 z m 0.7837305,0.09642 c -0.037979,-0.0412 -0.057594,-0.03164 -0.046115,0.02251 0.00836,0.0394 0.016374,0.04465 0.040567,0.02663 0.022803,-0.01703 0.024147,-0.02899 0.00554,-0.04913 z m 6.3157279,0.05899 c -0.0072,-0.0065 -0.02586,-0.0072 -0.04149,-0.0014 -0.01725,0.0062 -0.01212,0.01083 0.01308,0.01178 0.0228,9.45e-4 0.03562,-0.0038 0.0284,-0.01022 z m -0.178087,-0.04058 c -0.05952,-0.01584 -0.166637,-0.04427 -0.23805,-0.06314 l -0.129849,-0.03434 0.119025,-0.02124 c 0.114746,-0.02048 0.11241,-0.02091 -0.06492,-0.0113 -0.168233,0.0091 -0.22092,0.0019 -0.616769,-0.08685 -0.238053,-0.05325 -0.656809,-0.141559 -0.930569,-0.196246 -0.656698,-0.131181 -0.639347,-0.1256 -0.432821,-0.13926 0.160627,-0.01064 0.15337,-0.01173 -0.100486,-0.01504 -0.150485,-0.0019 -0.348443,-0.0175 -0.439908,-0.03453 -0.09146,-0.01703 -0.171397,-0.02639 -0.177628,-0.02076 -0.01489,0.01338 0.03224,0.02365 0.858685,0.186676 0.770154,0.151937 0.690966,0.124679 1.055004,0.363099 0.0744,0.04872 0.135256,0.0851 0.135256,0.08084 0,-0.0043 -0.08278,-0.06678 -0.183952,-0.138948 -0.101173,-0.07216 -0.183947,-0.133712 -0.183947,-0.136773 0,-0.0072 0.802877,0.163122 1.125337,0.238743 0.256804,0.06022 0.397106,0.08004 0.205591,0.02904 z M 6.8489753,94.277846 c 0,-0.08133 -0.011797,-0.0887 -0.1649912,-0.102926 -0.1303999,-0.01211 -0.1586632,0.0033 -0.1592925,0.08779 -4.114e-4,0.0559 0.060473,0.07929 0.210666,0.08092 l 0.1136177,0.0014 z m 2.8529823,-0.04985 0.00717,-0.06818 -0.055869,0.0472 c -0.069927,0.05911 -0.073287,0.103805 -0.00717,0.09535 0.03816,-0.0049 0.050248,-0.02095 0.05587,-0.0744 z m 5.3981044,0.02616 c -0.01467,-0.0053 -0.04386,-0.0057 -0.06492,-4.73e-4 -0.02104,0.0049 -0.009,0.0093 0.02664,0.0097 0.03571,3.97e-4 0.05294,-0.0038 0.03831,-0.009 z m 0.470281,-0.02616 c -0.01786,-0.01041 -0.04218,-0.01887 -0.05411,-0.01887 -0.01188,0 -0.007,0.0085 0.01082,0.01887 0.01786,0.01041 0.04218,0.01887 0.05411,0.01887 0.01188,0 0.007,-0.0085 -0.01082,-0.01887 z m -8.056542,-0.03235 c 0.011888,-0.03207 -0.070435,-0.111903 -0.098995,-0.09601 -0.018781,0.01045 -0.015593,0.02923 0.012123,0.07146 0.036543,0.05569 0.071679,0.06562 0.086891,0.02455 z m 2.0146961,-0.0464 c 0.046597,-0.05311 0.048477,-0.09654 0.00417,-0.09654 -0.03025,0 -0.1124742,0.114661 -0.097672,0.136219 0.020724,0.03013 0.039087,0.02237 0.093501,-0.03968 z m -1.0885482,-0.03997 c 0.00926,-0.04938 0.00599,-0.08785 -0.00854,-0.100962 -0.033211,-0.02989 -0.043763,-0.01395 -0.059566,0.08976 -0.011333,0.07451 -0.00781,0.09098 0.019661,0.09098 0.02234,0 0.038487,-0.02653 0.048477,-0.07978 z m 3.6028951,0.06031 c 0,-0.01069 -0.0097,-0.01949 -0.02166,-0.01949 -0.01188,0 -0.0192,-0.01097 -0.01625,-0.02436 0.0037,-0.01575 -0.01702,-0.02289 -0.05826,-0.02015 -0.105876,0.007 -0.832634,-0.237234 -1.343001,-0.451239 -0.119025,-0.04991 -0.206563,-0.08184 -0.194532,-0.07095 0.06109,0.05526 0.846909,0.358558 1.363152,0.526131 0.265841,0.0863 0.270512,0.08733 0.270512,0.06006 z m 3.235346,-0.03197 c -0.175172,-0.05912 -0.748482,-0.200407 -1.201083,-0.296002 -0.636155,-0.134355 -2.117582,-0.397357 -2.140665,-0.380031 -0.02217,0.0166 0.04367,0.0306 0.572807,0.121783 1.264391,0.217884 2.172984,0.402896 2.628273,0.535184 0.178706,0.05193 0.277849,0.06536 0.140668,0.01906 z m -2.862035,-0.0402 c -0.02678,-0.0047 -0.07061,-0.0047 -0.09738,0 -0.02678,0.0047 -0.0048,0.0084 0.0487,0.0084 0.05356,0 0.07548,-0.0038 0.0487,-0.0084 z m -3.6508127,-0.03008 c -0.00463,-0.01339 -0.014203,-0.04845 -0.021368,-0.07791 -0.00717,-0.02947 -0.027154,-0.05357 -0.044408,-0.05357 -0.017254,0 -0.027616,0.01097 -0.02304,0.02436 0.00463,0.01338 0.014203,0.04845 0.021368,0.07791 0.00717,0.02947 0.027154,0.05357 0.044408,0.05357 0.017254,0 0.027616,-0.01097 0.02304,-0.02436 z m 3.3258727,-0.102912 c -0.02378,-0.04167 -0.04806,-0.06426 -0.05627,-0.0523 -0.02012,0.02933 0.05449,0.164896 0.07875,0.143068 0.01133,-0.01022 0.0018,-0.04768 -0.02247,-0.09077 z m -5.0907518,-0.04807 c 0,-0.05627 -0.00899,-0.07791 -0.032474,-0.07791 -0.023457,0 -0.032474,0.02166 -0.032474,0.07791 0,0.05627 0.00899,0.07792 0.032474,0.07792 0.023458,0 0.032474,-0.02166 0.032474,-0.07792 z m 2.5304251,-0.06799 c 0.087927,-0.09567 0.1383289,-0.169436 0.1464095,-0.214266 0.00682,-0.0376 0.00763,-0.06836 0.00182,-0.06836 -0.015357,0 -0.1990781,0.252166 -0.2528619,0.347056 -0.025391,0.04479 -0.042419,0.08147 -0.037843,0.08147 0.00463,0 0.068682,-0.06566 0.1424311,-0.145901 z m -3.1432343,0.06433 c -0.00691,-0.01556 -0.012024,-0.01093 -0.013086,0.01178 -9.08e-4,0.02053 0.00417,0.03202 0.011379,0.02559 0.00717,-0.0065 0.008,-0.02327 0.00182,-0.03732 z m 0.8720226,-0.05965 c -9.08e-4,-0.04172 -0.078609,-0.118459 -0.1051016,-0.103725 -0.018036,0.01003 -0.014568,0.0297 0.012533,0.07098 0.037933,0.05779 0.093467,0.07744 0.092583,0.03273 z M 6.2073988,93.413175 c 0.1196722,-0.265093 0.3754111,-0.506578 0.7056286,-0.666309 0.089751,-0.04342 0.138833,-0.07332 0.109075,-0.06647 -0.1308849,0.03013 -0.3865404,0.181147 -0.5423865,0.32035 -0.2581256,0.230565 -0.3688333,0.448416 -0.363519,0.715329 l 0.00327,0.151577 0.016464,-0.16605 c 0.010231,-0.103276 0.03738,-0.212312 0.071716,-0.288429 z m 0.2745792,0.021 c 0.036408,-0.07228 0.1105971,-0.182306 0.164875,-0.244508 0.1209862,-0.138636 0.1116196,-0.166859 -0.01304,-0.03935 -0.1602216,0.163831 -0.2870181,0.460964 -0.2806202,0.657611 9.081e-4,0.03283 0.015593,-0.0082 0.032285,-0.0913 0.0167,-0.08307 0.060118,-0.210165 0.096525,-0.282437 z m 3.3762976,0.344312 c 0.06802,-0.08597 0.02304,-0.117701 -0.052408,-0.03699 -0.053135,0.05684 -0.058884,0.09692 -0.013876,0.09692 0.010411,0 0.04024,-0.02696 0.066304,-0.05994 z m -3.0525833,-0.0082 c 0,-0.06114 -0.02156,-0.06095 -0.071344,4.73e-4 -0.038578,0.0477 -0.038442,0.04808 0.016238,0.04808 0.044363,0 0.055115,-0.0095 0.055115,-0.04869 z m 0.6713435,-0.0298 0.045752,-0.05785 H 7.4129074 7.3030323 l 0.048468,0.06655 c 0.053944,0.07407 0.0604,0.07362 0.1255243,-0.0087 z m 4.2942112,-0.01674 c -0.02166,-0.01826 -0.573346,-0.120246 -0.634328,-0.117257 -0.02937,0.0014 0.569457,0.126736 0.634328,0.132714 0.013,9.46e-4 0.013,-0.0047 0,-0.01547 z m -3.2695444,-0.08491 c 0.023039,-0.07731 0.015265,-0.131479 -0.018826,-0.131479 -0.017854,0 -0.032474,0.01206 -0.032474,0.02677 0,0.01471 -0.00608,0.05418 -0.013503,0.08765 -0.010358,0.04664 -0.0059,0.06087 0.019107,0.06087 0.017945,0 0.038532,-0.01972 0.045698,-0.04385 z m 0.1589728,-0.07465 c -0.012814,-0.08612 -0.024147,-0.105314 -0.052645,-0.08945 -0.033029,0.01835 -0.005,0.168973 0.031458,0.168973 0.026181,0 0.030578,-0.01655 0.021187,-0.07952 z m 3.2306796,0.05908 c 0,-0.03467 -0.06482,-0.135382 -0.08712,-0.135382 -0.03002,0 -0.02614,0.03212 0.01194,0.09836 0.03239,0.05634 0.07518,0.07743 0.07518,0.03703 z m -0.816952,-0.03141 c -0.01489,-0.0054 -0.03923,-0.0054 -0.05411,0 -0.01489,0.0054 -0.0029,0.0098 0.02707,0.0098 0.02974,0 0.04196,-0.0043 0.02706,-0.0098 z m -0.09784,-0.01835 c -0.0072,-0.0065 -0.02586,-0.0072 -0.04149,-0.0014 -0.01725,0.0062 -0.01213,0.01083 0.01308,0.01178 0.0228,9.46e-4 0.03562,-0.0038 0.0284,-0.01022 z m -3.9842264,-0.05571 c 0.010916,-0.02559 -0.072987,-0.158185 -0.090233,-0.142661 -0.00373,0.0033 -0.00137,0.04347 0.00527,0.08877 0.012351,0.0828 0.059865,0.112915 0.085029,0.05389 z m 3.1868174,-0.09075 c 0.03793,-0.04318 0.0452,-0.06442 0.02743,-0.08041 -0.01328,-0.01197 -0.02674,-0.01793 -0.02993,-0.01329 -0.0033,0.0047 -0.02868,0.03188 -0.05673,0.06057 -0.02803,0.02866 -0.0445,0.06154 -0.03659,0.07304 0.02174,0.03164 0.03941,0.02426 0.09583,-0.03992 z m 1.40922,-0.01575 c -0.03974,-0.02076 -1.030583,-0.162867 -1.06454,-0.152679 -0.01337,0.0038 0.14035,0.03216 0.341583,0.06254 0.201234,0.03041 0.429181,0.06636 0.506546,0.07994 0.173156,0.03037 0.263168,0.03462 0.216411,0.01022 z m -3.7650272,-0.14006 c 0.1072251,-0.05488 0.1990736,-0.105768 0.2041065,-0.113104 0.00508,-0.0073 -0.1607355,-0.03358 -0.3683803,-0.05835 -0.2950251,-0.03519 -0.384349,-0.03992 -0.4086844,-0.02176 -0.038769,0.02895 -0.1719113,0.214034 -0.1607401,0.223413 0.00463,0.0038 0.1250564,0.01982 0.2678907,0.03562 0.1428289,0.0158 0.2622003,0.02989 0.2652726,0.03136 0.00327,0.0014 0.093311,-0.04228 0.200535,-0.09716 z m 3.4901882,-0.353109 c -0.100803,-0.174091 -0.190386,-0.323222 -0.199068,-0.331409 -0.0087,-0.0082 -0.121023,0.10398 -0.249642,0.249257 -0.128623,0.145276 -0.230256,0.267258 -0.225848,0.27107 0.0087,0.0075 0.76439,0.123245 0.822466,0.125956 0.02618,0.0014 -0.01226,-0.08063 -0.147908,-0.314874 z m 0.34467,0.305617 c 0.01461,-0.01315 -0.042,-0.119707 -0.07264,-0.136744 -0.04056,-0.02256 -0.04242,0.0063 -0.0049,0.07707 0.03658,0.06903 0.05307,0.08172 0.07757,0.05968 z m -1.622167,-0.04082 c -0.01467,-0.0053 -0.043853,-0.0057 -0.064923,-9.46e-4 -0.021051,0.0049 -0.00908,0.0093 0.026644,0.0097 0.035708,3.97e-4 0.052936,-0.0038 0.038306,-0.009 z m -1.4570251,-0.06027 c -0.00182,-0.07433 -0.036216,-0.218206 -0.040849,-0.17044 -0.00182,0.02143 -0.011379,0.08059 -0.020724,0.13148 -0.015084,0.0824 -0.012578,0.09252 0.02294,0.09252 0.029324,0 0.039505,-0.01409 0.038578,-0.05356 z m 1.9272011,-0.06317 c 0.06826,-0.08627 0.02886,-0.120052 -0.04593,-0.0394 -0.0563,0.06069 -0.06352,0.0977 -0.01906,0.0977 0.01041,0 0.03964,-0.02625 0.06501,-0.0583 z m -1.5580525,0.01154 c 0,-0.01433 -0.1567807,-0.09131 -0.1670826,-0.08204 -0.00562,0.005 0.027289,0.02691 0.07306,0.04863 0.092427,0.04389 0.094018,0.04446 0.094018,0.03339 z m -2.0677208,-0.08874 c 0.024792,-0.02095 0.1267911,-0.08232 0.2266702,-0.136352 0.2184099,-0.118151 0.2105871,-0.127435 -0.016792,-0.01991 -0.1760096,0.08323 -0.3379521,0.192986 -0.2860327,0.193866 0.017072,2.83e-4 0.051356,-0.01665 0.076138,-0.0376 z m 2.8634041,-0.03491 c -0.061055,-0.206314 -0.7442863,-2.244886 -0.7523633,-2.244834 -0.00599,3.9e-5 -0.048358,0.151241 -0.094193,0.336005 -0.045843,0.184764 -0.1359142,0.531324 -0.2001797,0.770132 -0.06426,0.238806 -0.1168414,0.443191 -0.1168414,0.454188 0,0.01154 0.019471,0.01443 0.04598,0.0069 0.030949,-0.0088 0.041166,-0.0061 0.031177,0.0084 -0.00818,0.01187 -0.030068,0.02157 -0.048759,0.02157 -0.027753,0 -0.031313,0.01495 -0.019379,0.08205 0.008,0.04512 0.018362,0.08546 0.022985,0.08963 0.00463,0.0043 0.074786,-0.0014 0.1559061,-0.01268 0.2356535,-0.03235 0.3097997,-0.04016 0.3097997,-0.03264 0,0.0038 -0.083585,0.03543 -0.1857376,0.07014 -0.1118595,0.03798 -0.1742697,0.0684 -0.1569005,0.07643 0.015865,0.0073 0.1140525,0.02483 0.218201,0.03893 0.1041495,0.01405 0.1893592,0.03046 0.1893592,0.03647 0,0.006 -0.054552,0.06053 -0.1212359,0.121178 L 8.9004294,92.879515 9.092,92.903735 c 0.1053653,0.01329 0.2646114,0.03519 0.353879,0.04861 0.2473332,0.03722 0.3100958,0.03618 0.2979348,-0.0049 z M 6.4858822,92.726223 c 0.11043,-0.06538 0.2689542,-0.149685 0.3522734,-0.187329 0.083323,-0.03765 0.1548972,-0.07121 0.1590656,-0.0746 0.00417,-0.0033 -0.1076321,-0.235157 -0.2484494,-0.515039 -0.2071261,-0.411674 -0.2590273,-0.500287 -0.2717114,-0.463909 -0.01503,0.04307 -0.2126494,1.285157 -0.2124787,1.335421 4.18e-5,0.01338 0.00463,0.02436 0.010315,0.02436 0.00562,0 0.1005688,-0.0535 0.211003,-0.118884 z m 4.9053558,-0.0024 c -0.02877,-0.05077 -0.05183,-0.07169 -0.06547,-0.05942 -0.02979,0.02682 0.04371,0.160634 0.08116,0.147703 0.02253,-0.0078 0.01916,-0.02682 -0.01569,-0.08829 z m -0.517014,-0.09115 c 0,-0.03997 -0.05375,-0.01977 -0.106147,0.03983 -0.0403,0.04583 -0.04566,0.06275 -0.02382,0.0749 0.02923,0.01627 0.129994,-0.07267 0.129994,-0.114731 z m -3.5058608,0.09534 c 0.017854,-0.01041 0.022713,-0.01887 0.010825,-0.01887 -0.011888,0 -0.036263,0.0085 -0.054098,0.01887 -0.017854,0.0104 -0.022713,0.01887 -0.010825,0.01887 0.011888,0 0.036263,-0.0085 0.054098,-0.01887 z m 0.8301864,-0.243482 c 0.015357,-0.03604 -0.00282,-0.03604 -0.072751,0 l -0.054098,0.02786 0.057194,4.73e-4 c 0.031458,3.83e-4 0.062807,-0.01244 0.069654,-0.02852 z m 3.0002904,-0.09998 c 0,-0.01007 -0.04352,-0.08897 -0.05649,-0.102438 -0.01105,-0.01149 -0.09225,0.08353 -0.08294,0.09707 0.0097,0.01414 0.139439,0.01916 0.139439,0.0054 z M 6.6792655,102.46728 c 0,-0.0268 0.0049,-0.0377 0.010916,-0.0244 0.00599,0.0134 0.00599,0.0353 0,0.0487 -0.00599,0.0134 -0.010916,0.002 -0.010916,-0.0244 z m 0.022949,-0.10713 c -2.452e-4,-0.0321 0.00745,-0.0804 0.016927,-0.10714 l 0.017346,-0.0487 -4.068e-4,0.0487 c -2.453e-4,0.0268 -0.00781,0.075 -0.016927,0.10714 l -0.01651,0.0584 -4.077e-4,-0.0584 z m 11.4623155,-0.005 c -0.02691,-0.0309 -0.02614,-0.0316 0.0082,-0.007 0.03604,0.0255 0.04751,0.0414 0.0297,0.0414 -0.0047,0 -0.02156,-0.0153 -0.03788,-0.0341 z m -0.06519,-0.0779 c -0.06865,-0.0746 -0.09336,-0.1092 -0.06832,-0.0957 0.02766,0.0149 0.123784,0.12976 0.108636,0.12976 -0.0049,0 -0.02304,-0.0153 -0.04034,-0.0341 z m -5.25853,-3.233444 c -0.02691,-0.0309 -0.02614,-0.0316 0.0082,-0.007 0.02081,0.0147 0.03788,0.03 0.03788,0.0341 0,0.016 -0.01776,0.006 -0.04602,-0.0267 z m -8.674663,-0.0146 c 0,-0.0107 0.00944,-0.0326 0.021006,-0.0487 0.011515,-0.0161 0.020951,-0.0204 0.020951,-0.01 0,0.0107 -0.00944,0.0326 -0.020951,0.0487 -0.011515,0.0161 -0.021006,0.0204 -0.021006,0.01 z"
       id="path52400" />
  </g>
  <g
     inkscape:groupmode="layer"
     id="layer3"
     inkscape:label="back"
     style="filter:url(#filter1927)"
     transform="translate(0,0.00971522)" />
  <g
     inkscape:groupmode="layer"
     id="layer5"
     inkscape:label="Layer 2">
    <path
       style="fill:#ffffff;stroke-width:0.0210438"
       d="m 28.494221,125.62625 v -2.3908 h 2.219925 2.219925 v 2.3908 2.3908 h -2.219925 -2.219925 z m 3.87694,1.9953 c 0.19568,-0.0365 0.209352,-0.0421 0.1946,-0.0797 -0.04424,-0.11286 -0.05762,-0.12861 -0.09844,-0.11597 -0.12296,0.038 -0.370726,0.0691 -0.463304,0.0581 -0.276722,-0.0329 -0.50527,-0.36907 -0.68568,-1.00843 -0.0647,-0.22926 -0.117219,-0.64955 -0.09314,-0.74517 0.0162,-0.0643 9.82e-4,-0.0789 -0.17484,-0.16757 l -0.12432,-0.0627 0.1517,-0.12768 c 0.16068,-0.13524 0.319119,-0.32976 0.379395,-0.46578 0.02066,-0.0466 0.03636,-0.1445 0.03636,-0.22671 0,-0.18902 -0.07608,-0.31334 -0.318559,-0.52059 -0.09756,-0.0834 -0.17738,-0.16793 -0.17738,-0.1879 0,-0.0351 -0.03292,-0.0367 -1.03004,-0.0496 -0.566519,-0.007 -1.032699,-0.0108 -1.035951,-0.008 -0.0032,0.003 -0.0116,0.0921 -0.0186,0.19785 l -0.0128,0.1922 h 0.19006 0.19006 l -0.0154,0.85788 c -0.0084,0.47179 -0.022,1.06957 -0.03014,1.32837 l -0.0148,0.47054 0.14876,0.0123 c 0.08182,0.007 0.1513,0.0102 0.15438,0.008 0.003,-0.003 0.0134,-0.33694 0.02302,-0.74298 l 0.0174,-0.73826 0.415892,0.009 c 0.470514,0.0104 0.607534,0.0355 0.87641,0.16033 l 0.1535,0.0713 0.0148,0.2522 c 0.03444,0.58343 0.315619,1.28521 0.607975,1.51734 0.19094,0.1516 0.374584,0.17927 0.738956,0.11135 z m -1.893177,-2.25129 c -0.04546,-0.01 -0.272868,-0.0227 -0.50535,-0.0288 l -0.422692,-0.0111 0.0154,-0.25351 c 0.0084,-0.13943 0.0154,-0.37013 0.0154,-0.51267 v -0.25915 l 0.678966,0.0114 0.678966,0.0114 0.06706,0.0492 c 0.1181,0.0866 0.19104,0.20567 0.19104,0.3118 0,0.17383 -0.221578,0.45931 -0.478194,0.61609 -0.0783,0.0478 -0.14582,0.0861 -0.15006,0.0851 -0.0042,-0.001 -0.0449,-0.01 -0.09036,-0.0197 z m 3.416306,2.19677 c -0.02036,-0.0274 -0.06378,-0.12306 -0.09648,-0.21266 -0.056,-0.15344 -0.06088,-0.20288 -0.08404,-0.85175 -0.03384,-0.94774 -0.08636,-1.48714 -0.237592,-2.4406 -0.03832,-0.24153 -0.06484,-0.44296 -0.05898,-0.44763 0.0156,-0.0124 0.29903,-0.0749 0.54417,-0.12006 0.16756,-0.0309 0.284274,-0.0387 0.551384,-0.037 0.345621,0.002 0.453165,-0.014 0.548189,-0.0823 0.031,-0.0223 0.18146,-0.0313 0.766416,-0.0462 0.400314,-0.0102 0.730961,-0.016 0.734769,-0.013 0.0118,0.009 0.14576,0.62803 0.19566,0.90396 0.15112,0.83527 0.19572,1.62851 0.15192,2.70191 l -0.0154,0.37674 -0.332904,0.0328 c -0.459785,0.0453 -0.652565,0.0783 -0.899209,0.15384 l -0.212062,0.0649 -0.12712,-0.0494 c -0.245324,-0.0954 -0.688449,-0.0747 -1.164165,0.0543 l -0.227578,0.0617 z m 1.674883,-0.51098 c -0.007,-0.0954 -0.0186,-0.27049 -0.02582,-0.3891 -0.0072,-0.1186 -0.0391,-0.38018 -0.0709,-0.58129 -0.1197,-0.75677 -0.13432,-0.98355 -0.0643,-0.99809 0.02288,-0.005 0.23059,-0.0332 0.461586,-0.0631 0.391708,-0.0508 0.419232,-0.057 0.408702,-0.092 -0.0062,-0.0206 -0.02462,-0.10784 -0.0409,-0.1938 l -0.0296,-0.15631 -0.10778,0.0126 c -0.05928,0.007 -0.315014,0.0423 -0.568298,0.0787 -0.524504,0.0753 -0.872627,0.0946 -1.157021,0.0643 -0.10832,-0.0116 -0.201114,-0.0177 -0.206224,-0.0136 -0.0098,0.008 -0.07728,0.37419 -0.06988,0.37958 0.0186,0.0135 0.473686,0.0443 0.655556,0.0443 l 0.226123,6e-5 0.02826,0.30005 c 0.0156,0.16503 0.0545,0.45826 0.08656,0.65161 0.0481,0.29003 0.1036,0.8571 0.10554,1.07818 l 4.46e-4,0.0516 h 0.19036 0.19036 z m -10.933068,0.0539 c -0.34582,-1.79358 -0.415787,-2.34122 -0.416185,-3.25749 l -2.34e-4,-0.53624 0.289297,-0.0499 c 0.598664,-0.10319 1.09689,-0.15536 1.907011,-0.19966 0.389606,-0.0213 1.11968,-0.0533 1.124892,-0.0493 0.0017,0.001 -0.0078,0.17539 -0.02102,0.38681 -0.03826,0.60923 0.003,1.05506 0.217148,2.34186 0.08456,0.50826 0.115659,0.72934 0.154919,1.10097 l 0.014,0.13321 -0.455701,0.0584 c -0.476808,0.0611 -0.796976,0.0907 -1.660129,0.15375 -0.50318,0.0367 -0.89092,0.0778 -1.041056,0.11036 l -0.0728,0.0158 z m 1.700751,-0.30778 c 0.03522,-0.26526 0.03958,-0.8127 0.0084,-1.04463 -0.0126,-0.0928 -0.02994,-0.33542 -0.03874,-0.53911 l -0.016,-0.37034 h 0.238446 0.238446 l 0.0154,0.0813 c 0.02408,0.1275 0.02818,0.12944 0.209036,0.0993 0.08746,-0.0145 0.16556,-0.0316 0.17354,-0.038 0.008,-0.006 -0.0098,-0.10219 -0.03942,-0.21302 -0.02966,-0.11082 -0.05952,-0.27533 -0.06634,-0.36558 l -0.0124,-0.16407 h -0.18568 -0.18566 v 0.0656 0.0656 h -0.885609 -0.885608 v 0.23439 0.23439 h 0.448708 0.448708 l 6.26e-4,0.17345 c 5.68e-4,0.16195 0.0156,0.38103 0.06748,0.97976 0.0138,0.15862 0.0122,0.33875 -0.0046,0.51567 -0.014,0.14954 -0.02618,0.3183 -0.02688,0.37503 l -0.0013,0.10313 0.224355,0.0194 c 0.1234,0.0107 0.229212,0.0167 0.23515,0.0133 0.006,-0.003 0.02392,-0.10491 0.03996,-0.22568 z m -3.227478,0.2901 c -0.13658,-0.0436 -0.307748,-0.10583 -0.380386,-0.13838 l -0.13206,-0.0592 -0.156879,0.0452 -0.15688,0.0452 -0.17766,-0.0834 -0.17766,-0.0834 -0.354216,0.0256 -0.354216,0.0256 -0.11168,-0.0919 -0.11168,-0.0919 -0.295201,0.0248 c -0.16236,0.0136 -0.299112,0.0225 -0.30389,0.0196 -0.0048,-0.003 0.09062,-0.78191 0.212008,-1.73128 l 0.220697,-1.72612 0.22489,0.0102 c 0.568968,0.0258 0.929428,0.0571 1.826461,0.1585 0.530164,0.0599 0.970222,0.11396 0.977908,0.12006 0.0076,0.006 -0.06688,0.59973 -0.16572,1.31917 -0.09882,0.71943 -0.201952,1.48949 -0.229164,1.71122 -0.063,0.51338 -0.07376,0.5815 -0.0917,0.58039 -0.008,-4.6e-4 -0.12642,-0.0365 -0.262986,-0.0801 z m -0.248468,-0.78089 0.1632,-0.13059 -0.04554,-0.0429 c -0.02506,-0.0236 -0.09064,-0.0824 -0.14574,-0.1308 -0.11306,-0.0992 -0.15794,-0.16931 -0.279872,-0.4371 -0.04696,-0.10313 -0.105959,-0.21587 -0.131099,-0.25052 -0.02788,-0.0384 -0.0377,-0.0713 -0.02516,-0.0844 0.0114,-0.0118 0.174439,-0.17326 0.362515,-0.3589 0.18808,-0.18564 0.349344,-0.34744 0.358356,-0.35957 0.0162,-0.0218 -0.310258,-0.24985 -0.357724,-0.24985 -0.0126,0 -0.14834,0.12415 -0.301583,0.27588 l -0.27861,0.27589 -0.05456,-0.0931 c -0.05488,-0.0936 -0.06084,-0.20019 -0.0186,-0.33214 0.0126,-0.0392 0.008,-0.0516 -0.019,-0.0516 -0.11036,0 -0.35213,-0.0836 -0.512796,-0.17723 -0.09742,-0.0568 -0.19308,-0.10344 -0.2126,-0.10366 -0.03358,-4.6e-4 -0.26086,0.27187 -0.258718,0.30989 0.001,0.0188 0.286834,0.18249 0.41423,0.23733 0.05932,0.0255 0.07676,0.0471 0.087,0.10777 0.013,0.0767 0.11622,0.26334 0.20281,0.36658 l 0.04718,0.0562 -0.446964,0.43831 c -0.24583,0.24107 -0.446964,0.44093 -0.446964,0.44414 0,0.0135 0.352592,0.23326 0.374262,0.23326 0.013,0 0.17436,-0.14823 0.358452,-0.3294 0.1841,-0.18118 0.33827,-0.32659 0.342608,-0.32315 0.0044,0.003 0.04588,0.0896 0.09232,0.19147 0.04644,0.10186 0.11792,0.23167 0.15884,0.28845 0.06852,0.0951 0.359297,0.36015 0.395095,0.36015 0.0086,0 0.08892,-0.0588 0.1787,-0.13059 z m 14.58386,-0.97575 v -1.78138 h 1.476015 1.476011 v 1.78138 1.78139 H 38.920785 37.44477 Z m 2.515707,1.42343 c 0.156179,-0.0783 0.168859,-0.09 0.131659,-0.12114 -0.0126,-0.0105 -0.013,-0.16803 -0.0012,-0.38347 0.011,-0.20111 0.02064,-0.7306 0.02126,-1.17665 l 0.0012,-0.811 h -0.173659 -0.17366 l -0.0152,0.14346 c -0.0084,0.0789 -0.0152,0.48394 -0.0152,0.90007 0,0.42107 -0.0092,0.75661 -0.02072,0.75661 -0.0114,0 -0.0425,-0.0402 -0.06914,-0.0894 -0.251768,-0.4647 -0.601542,-1.00632 -0.82627,-1.27948 -0.07212,-0.0877 -0.12998,-0.17397 -0.12858,-0.19178 0.0015,-0.0178 -0.0313,-0.0511 -0.0727,-0.0739 -0.04138,-0.0228 -0.14176,-0.0903 -0.223078,-0.14997 -0.158739,-0.11648 -0.266917,-0.15184 -0.531133,-0.17358 l -0.1358,-0.0112 v 0.13846 c 0,0.0761 -0.0064,0.16391 -0.0142,0.19502 -0.0142,0.0562 -0.0134,0.0566 0.11218,0.069 0.06954,0.007 0.1489,0.0212 0.17636,0.032 0.0488,0.0191 0.04912,0.0221 0.0138,0.13336 -0.02964,0.0934 -0.03118,0.13283 -0.0086,0.21966 0.0186,0.0716 0.02752,0.38559 0.02752,0.97192 v 0.86612 h 0.16236 0.162359 l 0.0148,-0.0586 c 0.0082,-0.0322 0.0148,-0.46709 0.0148,-0.96636 0,-0.89133 8.94e-4,-0.9074 0.04562,-0.88836 0.07856,0.0334 0.351666,0.41529 0.603912,0.84449 0.35529,0.60453 0.46839,0.78711 0.606922,0.97976 0.07972,0.11087 0.14872,0.20158 0.1533,0.20158 0.0046,0 0.07718,-0.0345 0.16128,-0.0767 z"
       id="path365" />
  </g>
  <g
     inkscape:label="Layer 1"
     inkscape:groupmode="layer"
     id="layer1"
     transform="translate(0,-168.49025)"
     style="display:inline">
    <g
       aria-label="Pitch"
       style="font-style:normal;font-variant:normal;font-weight:300;font-stretch:normal;font-size:4.93889px;line-height:6.61458px;font-family:'Gotham Rounded';-inkscape-font-specification:'Gotham Rounded Light';font-variant-ligatures:normal;font-variant-caps:normal;font-variant-numeric:normal;font-feature-settings:normal;text-align:center;letter-spacing:0px;word-spacing:0px;writing-mode:lr-tb;text-anchor:middle;display:inline;fill:#000000;fill-opacity:1;stroke:#000000;stroke-width:0.264583px;stroke-linecap:butt;stroke-linejoin:miter;stroke-opacity:1"
       id="text4944"
       transform="translate(0,10.583334)" />
    <text
       xml:space="preserve"
       style="font-style:normal;font-weight:normal;font-size:10.5833px;line-height:1.25;font-family:sans-serif;fill:#000000;fill-opacity:1;stroke:#000000;stroke-width:0.264583"
       x="10.375626"
       y="254.64096"
       id="text72"><tspan
         sodipodi:role="line"
         id="tspan70"
         x="10.375626"
         y="254.64096"
         style="fill:#000000;stroke:#000000;stroke-width:0.264583" /></text>
  </g>
  <g
     inkscape:groupmode="layer"
     id="layer2"
     inkscape:label="components"
     transform="translate(0,0.00972625)">
    <text
       xml:space="preserve"
       style="font-style:normal;font-weight:normal;font-size:10.5833px;line-height:1.25;font-family:sans-serif;fill:#000000;fill-opacity:1;stroke:#000000;stroke-width:0.264583"
       x="-65.249954"
       y="111.72212"
       id="text144"><tspan
         sodipodi:role="line"
         id="tspan142"
         x="-65.249954"
         y="111.72212"
         style="fill:#000000;stroke:#000000;stroke-width:0.264583" /></text>
    <text
       xml:space="preserve"
       style="font-size:3.52777px;line-height:1.25;font-family:sans-serif;fill:#000000;stroke:#000000;stroke-width:0.264583"
       x="17.94903"
       y="75.780609"
       id="text1055"><tspan
         sodipodi:role="line"
         id="tspan1053"
         x="17.94903"
         y="75.780609"
         style="fill:#000000;stroke:#000000;stroke-width:0.264583" /></text>
    <text
       xml:space="preserve"
       style="font-size:3.52777px;line-height:1.25;font-family:sans-serif;fill:#000000;stroke:#000000;stroke-width:0.264583"
       x="5.6367397"
       y="125.28948"
       id="text1388"><tspan
         sodipodi:role="line"
         id="tspan1386"
         x="5.6367397"
         y="125.28948"
         style="fill:#000000;stroke:#000000;stroke-width:0.264583" /></text>
    <text
       xml:space="preserve"
       style="font-weight:600;font-size:3.52777px;line-height:1.25;font-family:'URW Gothic';-inkscape-font-specification:'URW Gothic, Semi-Bold';fill:#ffffff;stroke-width:0.264583"
       x="3.3458118"
       y="78.44635"
       id="text123"><tspan
         sodipodi:role="line"
         id="tspan121"
         x="3.3458118"
         y="78.44635"
         style="fill:#ffffff;stroke-width:0.264583" /></text>
  </g>
</svg>
