<?xml version="1.0" encoding="UTF-8" standalone="no"?>
<!-- Created with Inkscape (http://www.inkscape.org/) -->

<svg
   width="10.0004mm"
   height="10.000431mm"
   viewBox="0 0 10.000399 10.000431"
   version="1.1"
   id="svg111794"
   inkscape:version="1.1 (c4e8f9ed74, 2021-05-24)"
   sodipodi:docname="XtrtnKnob.svg"
   xmlns:inkscape="http://www.inkscape.org/namespaces/inkscape"
   xmlns:sodipodi="http://sodipodi.sourceforge.net/DTD/sodipodi-0.dtd"
   xmlns="http://www.w3.org/2000/svg"
   xmlns:svg="http://www.w3.org/2000/svg"
   xmlns:rdf="http://www.w3.org/1999/02/22-rdf-syntax-ns#"
   xmlns:cc="http://creativecommons.org/ns#"
   xmlns:dc="http://purl.org/dc/elements/1.1/">
  <defs
     id="defs111788" />
  <sodipodi:namedview
     id="base"
     pagecolor="#ffffff"
     bordercolor="#666666"
     borderopacity="1.0"
     inkscape:pageopacity="0.0"
     inkscape:pageshadow="2"
     inkscape:zoom="7.9195959"
     inkscape:cx="7.0079333"
     inkscape:cy="21.655145"
     inkscape:document-units="mm"
     inkscape:current-layer="layer1"
     showgrid="false"
     fit-margin-top="0"
     fit-margin-left="0"
     fit-margin-right="0"
     fit-margin-bottom="0"
     inkscape:window-width="1366"
     inkscape:window-height="768"
     inkscape:window-x="0"
     inkscape:window-y="0"
     inkscape:window-maximized="0"
     inkscape:pagecheckerboard="0" />
  <metadata
     id="metadata111791">
    <rdf:RDF>
      <cc:Work
         rdf:about="">
        <dc:format>image/svg+xml</dc:format>
        <dc:type
           rdf:resource="http://purl.org/dc/dcmitype/StillImage" />
      </cc:Work>
    </rdf:RDF>
  </metadata>
  <g
     inkscape:label="Layer 1"
     inkscape:groupmode="layer"
     id="layer1"
     transform="translate(-135.80716,-61.39592)">
    <path
       inkscape:connector-curvature="0"
       style="fill:#003432;fill-opacity:1;fill-rule:nonzero;stroke:none;stroke-width:0.35277775"
       d="m 145.80756,66.395451 c 0,2.761586 -2.23791,5.0009 -4.99949,5.0009 -2.76162,0 -5.00091,-2.239314 -5.00091,-5.0009 0,-2.76159 2.23929,-4.999524 5.00091,-4.999524 2.76158,0 4.99949,2.237934 4.99949,4.999524"
       id="path110594" />
    <path
       inkscape:connector-curvature="0"
       style="fill:#005047;fill-opacity:1;fill-rule:nonzero;stroke:none;stroke-width:0.326187"
       d="m 145.55716,66.395301 c 0,2.485322 -2.12593,4.500619 -4.74932,4.500619 -2.62344,0 -4.75068,-2.015297 -4.75068,-4.500619 0,-2.485326 2.12724,-4.499381 4.75068,-4.499381 2.62339,0 4.74932,2.014055 4.74932,4.499381"
       id="path110594-2" />
    <path
       inkscape:connector-curvature="0"
       style="fill:#000000;fill-opacity:1;fill-rule:nonzero;stroke:none;stroke-width:0.299849"
       d="m 145.05716,66.395336 c 0,2.347248 -1.90215,4.250584 -4.24939,4.250584 -2.34729,0 -4.25061,-1.903336 -4.25061,-4.250584 0,-2.347253 1.90332,-4.249416 4.25061,-4.249416 2.34724,0 4.24939,1.902163 4.24939,4.249416"
       id="path110594-2-7-0" />
    <path
       inkscape:connector-curvature="0"
       style="fill:#ffffff;fill-opacity:1;fill-rule:evenodd;stroke:none;stroke-width:0.35562"
       d="m 140.97479,61.333636 c -0.0551,-0.01261 -0.11024,-0.01961 -0.16672,-0.01961 -0.0579,0 -0.11162,0.007 -0.16676,0.01961 v 5.125202 h 0.33348 z m 0,0"
       id="path110596" />
  </g>
</svg>
