<?xml version="1.0" encoding="UTF-8" standalone="no"?>
<!-- Created with Inkscape (http://www.inkscape.org/) -->

<svg
   width="67.091576mm"
   height="21.75095mm"
   viewBox="0 0 67.091576 21.75095"
   version="1.1"
   id="svg513"
   inkscape:version="1.1 (c4e8f9ed74, 2021-05-24)"
   sodipodi:docname="XTRTN.svg"
   xmlns:inkscape="http://www.inkscape.org/namespaces/inkscape"
   xmlns:sodipodi="http://sodipodi.sourceforge.net/DTD/sodipodi-0.dtd"
   xmlns="http://www.w3.org/2000/svg"
   xmlns:svg="http://www.w3.org/2000/svg">
  <sodipodi:namedview
     id="namedview515"
     pagecolor="#ffffff"
     bordercolor="#666666"
     borderopacity="1.0"
     inkscape:pageshadow="2"
     inkscape:pageopacity="0.0"
     inkscape:pagecheckerboard="0"
     inkscape:document-units="mm"
     showgrid="false"
     fit-margin-top="0"
     fit-margin-left="0"
     fit-margin-right="0"
     fit-margin-bottom="0"
     inkscape:zoom="2.7868023"
     inkscape:cx="183.5437"
     inkscape:cy="61.181234"
     inkscape:window-width="1366"
     inkscape:window-height="768"
     inkscape:window-x="0"
     inkscape:window-y="0"
     inkscape:window-maximized="1"
     inkscape:current-layer="layer1" />
  <defs
     id="defs510" />
  <g
     inkscape:label="Layer 1"
     inkscape:groupmode="layer"
     id="layer1"
     transform="translate(-0.40323824,-0.06494172)">
    <path
       style="fill:#f2f2f2;stroke-width:0.0803888"
       d="M 27.566671,11.415442 V 1.0149913 h 7.44691 7.44692 v 10.4004507 10.40045 h -7.44692 -7.44691 z m 13.00551,8.67991 c 0.65646,-0.15869 0.70228,-0.18302 0.65281,-0.34668 -0.14841,-0.49094 -0.19326,-0.55945 -0.33024,-0.50449 -0.41245,0.16547 -1.24363,0.30057 -1.55419,0.25262 -0.92829,-0.14334 -1.69496,-1.60553 -2.30017,-4.38684 -0.21702,-0.99735 -0.39325,-2.82569 -0.31246,-3.24162 0.0544,-0.27986 0.003,-0.34337 -0.58655,-0.72896 l -0.41704,-0.27265 0.50889,-0.55546 c 0.53902,-0.5883303 1.07052,-1.4345003 1.27272,-2.0262203 0.0693,-0.20285 0.12198,-0.6286004 0.12198,-0.9862304 0,-0.82229 -0.2552,-1.3631 -1.06864,-2.26466 -0.32727,-0.36272 -0.59504,-0.73055 -0.59504,-0.81739 0,-0.15286 -0.1104,-0.15975 -3.45534,-0.2157 -1.90044,-0.0318 -3.46428,-0.0468 -3.47519,-0.0333 -0.0109,0.0135 -0.0391,0.4008 -0.0626,0.86067 l -0.0427,0.83611 h 0.63755 0.63755 l -0.0514,3.7319304 c -0.0283,2.0525603 -0.0738,4.6530403 -0.1011,5.7788603 l -0.0497,2.04693 0.49902,0.0537 c 0.27446,0.0295 0.50752,0.0445 0.5179,0.0332 0.0104,-0.0113 0.0451,-1.46575 0.0772,-3.23211 l 0.0583,-3.21155 1.39515,0.0402 c 1.57837,0.0454 2.03801,0.15446 2.93998,0.69744 l 0.51495,0.31 0.0499,1.0971 c 0.1155,2.53807 1.05877,5.59091 2.0395,6.60073 0.64049,0.65949 1.25657,0.77988 2.47888,0.4844 z m -6.35082,-9.79351 c -0.15251,-0.0425 -0.91536,-0.0989 -1.69524,-0.12531 l -1.41795,-0.0481 0.0514,-1.1028203 c 0.0282,-0.60655 0.0514,-1.6101404 0.0514,-2.2302004 v -1.12738 l 2.27765,0.0494 2.27764,0.0495 0.22493,0.21394 c 0.39615,0.37678 0.64086,0.89472 0.64086,1.35638 0,0.7562204 -0.7433,1.9981004 -1.60414,2.6801507 -0.26266,0.2081 -0.48918,0.37461 -0.50338,0.37002 -0.0142,-0.005 -0.1506,-0.0431 -0.30311,-0.0856 z m 11.46028,9.55636 c -0.0683,-0.11906 -0.21394,-0.53536 -0.32363,-0.9251 -0.18786,-0.66749 -0.20423,-0.8826 -0.28195,-3.70528 -0.11351,-4.12288 -0.28966,-6.4693603 -0.79702,-10.6170707 -0.12852,-1.0507 -0.21755,-1.92697 -0.19782,-1.94728 0.0523,-0.0538 1.00311,-0.32587 1.82546,-0.52228 0.56207,-0.13425 0.95362,-0.16834 1.84966,-0.16105 1.15942,0.009 1.52018,-0.0608 1.83894,-0.35779 0.10399,-0.0969 0.60875,-0.13633 2.57101,-0.20085 1.34289,-0.0442 2.45206,-0.0695 2.46484,-0.0564 0.0397,0.0409 0.48894,2.73208 0.65639,3.93239 0.50693,3.6336004 0.65654,7.0843207 0.5096,11.7538407 l -0.0516,1.63889 -1.11676,0.1428 c -1.54238,0.19723 -2.18908,0.34071 -3.01646,0.66921 l -0.71138,0.28246 -0.4264,-0.21498 c -0.82296,-0.41491 -2.30946,-0.32493 -3.90529,0.2364 l -0.76343,0.26853 z m 5.61852,-2.22288 c -0.0236,-0.415 -0.0625,-1.17668 -0.0867,-1.69262 -0.0241,-0.51595 -0.13113,-1.65388 -0.23785,-2.52874 -0.40155,-3.29208 -0.45057,-4.2786303 -0.21572,-4.3418703 0.0767,-0.0207 0.77354,-0.14424 1.54843,-0.27462 1.31402,-0.22109 1.40635,-0.24804 1.37103,-0.4002 -0.0208,-0.0897 -0.0826,-0.46912 -0.13717,-0.8431004 l -0.0993,-0.67995 -0.36156,0.0546 c -0.19886,0.03 -1.05674,0.18405 -1.9064,0.34225 -1.75949,0.3276 -2.92731,0.4117 -3.88133,0.2795 -0.36334,-0.0504 -0.67465,-0.0771 -0.69179,-0.0595 -0.033,0.034 -0.25924,1.6278104 -0.23439,1.6512404 0.0623,0.0588 1.58902,0.19256 2.1991,0.19275 l 0.75856,2.4e-4 0.0948,1.3053003 c 0.0521,0.71791 0.18279,1.9935 0.29035,2.83463 0.16132,1.2617 0.34754,3.72853 0.35406,4.69026 l 0.002,0.22431 h 0.63856 0.63856 z m -36.67586,0.23436 c -1.16007,-7.8024 -1.39479,-10.1847507 -1.39613,-14.1707207 l -7.8e-4,-2.33271 0.97048,-0.21694 c 2.00826,-0.44892001 3.6796,-0.67584001 6.39722,-0.86857001 1.30696,-0.0927 3.75605,-0.23177 3.77354,-0.2143 0.006,0.006 -0.026,0.76297 -0.0705,1.68270001 -0.12836,2.65029 0.0103,4.58973 0.72844,10.1875407 0.28364,2.21102 0.38799,3.17276 0.51966,4.78943 l 0.0472,0.57948 -1.52868,0.25389 c -1.5995,0.26566 -2.67352,0.39464 -5.56904,0.66882 -1.68796,0.15983 -2.98866,0.33866 -3.4923,0.48013 l -0.24418,0.0686 z m 5.70531,-1.33889 c 0.11817,-1.15394 0.13278,-3.53541 0.0279,-4.54434 -0.042,-0.40379 -0.10045,-1.45913 -0.12993,-2.3452003 l -0.0536,-1.61105 h 0.79988 0.79988 l 0.0515,0.35358 c 0.0808,0.55462 0.0945,0.56308 0.70124,0.43213 0.29341,-0.0633 0.55537,-0.13769 0.58213,-0.16524 0.0268,-0.0276 -0.0327,-0.44457 -0.13222,-0.9266904 -0.0995,-0.48212 -0.19963,-1.19777 -0.22256,-1.59034 l -0.0417,-0.71375 h -0.62279 -0.62279 v 0.2855 0.2855 h -2.97085 -2.97084 v 1.01965 1.0196604 h 1.50523 1.50522 l 0.002,0.75454 c 0.002,0.70451 0.0526,1.6575503 0.22639,4.2621503 0.046,0.68999 0.0408,1.47362 -0.0151,2.24323 -0.0472,0.65054 -0.0878,1.38469 -0.0902,1.63144 l -0.004,0.44865 0.75261,0.0844 c 0.41394,0.0464 0.76891,0.0725 0.78883,0.0579 0.0199,-0.0146 0.0802,-0.45639 0.13404,-0.98173 z m -10.8268403,1.26199 c -0.4581396,-0.18949 -1.0323596,-0.46039 -1.2760296,-0.60199 l -0.44303,-0.25745 -0.52624,0.19668 -0.52624,0.19668 -0.59595,-0.36279 -0.595954,-0.36278 -1.188245,0.11159 -1.188244,0.11159 -0.374659,-0.39995 -0.37466,-0.39994 -0.990281,0.10788 c -0.54465499,0.0593 -1.00339499,0.0978 -1.01942299,0.0855 -0.01603,-0.0123 0.304013,-3.40143 0.71120099,-7.5313703 l 0.740343,-7.5089604 0.754415,0.0444 c 1.908645,0.11233 3.117837,0.24841 6.127007,0.68952 1.7784799,0.26071 3.2546899,0.49574 3.2804799,0.52228 0.0258,0.0266 -0.22437,2.60893 -0.5559,5.7386204 -0.33153,3.1296903 -0.67747,6.4795503 -0.76876,7.4441403 -0.21135,2.2333 -0.24746,2.52961 -0.30762,2.52483 -0.0271,-0.002 -0.4240603,-0.15896 -0.8822103,-0.34846 z m -0.8334996,-3.39702 0.5474796,-0.56808 -0.1527996,-0.18646 c -0.084,-0.10256 -0.30405,-0.35862 -0.4889,-0.56903 -0.3793,-0.43172 -0.52979,-0.73651 -0.93885,-1.90146 -0.15754,-0.44865 -0.35544,-0.93906 -0.43977,-1.08981 -0.0935,-0.1671703 -0.12645,-0.3103503 -0.0844,-0.3670703 0.0379,-0.0512 0.58514,-0.75373 1.21608,-1.5613 0.63095,-0.8075604 1.1719096,-1.5114404 1.2021396,-1.5641604 0.0544,-0.0949 -1.0407796,-1.08693 -1.2000196,-1.08693 -0.0424,0 -0.49764,0.54007 -1.01168,1.20015 l -0.93462,1.2001504 -0.18304,-0.4048204 c -0.18407,-0.4071 -0.20412,-0.87087 -0.0625,-1.44487 0.0421,-0.1705 0.0268,-0.22432 -0.0637,-0.22432 -0.37023,0 -1.181245,-0.3635 -1.720216,-0.77101 -0.326793,-0.24708 -0.647725,-0.44999 -0.713181,-0.45091 -0.112653,-0.002 -0.875073,1.18266 -0.867892,1.34806 0.0035,0.0816 0.962211,0.79387 1.389567,1.03244 0.199002,0.11109 0.25748,0.20503 0.291843,0.46882 0.04347,0.33367 0.389849,1.1455704 0.680346,1.5947004 l 0.158285,0.24472 -1.499377,1.9067103 c -0.824657,1.0487 -1.499377,1.91815 -1.499377,1.9321 0,0.0588 1.1828,1.01473 1.255493,1.01473 0.04379,0 0.584891,-0.64484 1.202456,-1.43298 0.617565,-0.78815 1.134753,-1.42073 1.149303,-1.40574 0.0145,0.015 0.15392,0.38979 0.3097,0.83291 0.15579,0.44313 0.39556,1.0078 0.53283,1.25484 0.22985,0.41365 1.20529,1.56669 1.32538,1.56669 0.0286,0 0.29831,-0.25563 0.59943,-0.56807 z M 57.592001,10.151072 V 2.4017213 h 4.95141 4.9514 v 7.7493507 7.74936 h -4.9514 -4.95141 z m 8.43914,6.19218 c 0.5239,-0.34069 0.56644,-0.39144 0.44167,-0.52699 -0.042,-0.0457 -0.0436,-0.73095 -0.004,-1.66815 0.0371,-0.87486 0.0692,-3.17826 0.0713,-5.1186503 l 0.004,-3.5280004 h -0.58254 -0.58254 l -0.0512,0.6241 c -0.0282,0.34325 -0.0512,2.1052104 -0.0512,3.9154607 0,1.83171 -0.0308,3.29137 -0.0695,3.29137 -0.0382,0 -0.14257,-0.17496 -0.2319,-0.38879 -0.84458,-2.02149 -2.01792,-4.3776703 -2.77179,-5.5659807 -0.24193,-0.38135 -0.43602,-0.75677 -0.43131,-0.83427 0.005,-0.0775 -0.10503,-0.22211 -0.24386,-0.32136 -0.13883,-0.0992 -0.47558,-0.39282 -0.74833,-0.65237 -0.53249,-0.50674 -0.8954,-0.66055 -1.78173,-0.75513 l -0.45553,-0.0486 v 0.60231 c 0,0.33127 -0.0215,0.71305 -0.0478,0.84841 -0.0475,0.24456 -0.0452,0.24643 0.37631,0.30026 0.23326,0.0298 0.49947,0.0924 0.59159,0.13903 0.16374,0.083 0.16478,0.0959 0.0463,0.58014 -0.0994,0.40645 -0.10461,0.57783 -0.0288,0.9555304 0.0625,0.31157 0.0923,1.67739 0.0923,4.2280503 v 3.7678 h 0.54465 0.54466 l 0.0495,-0.25491 c 0.0272,-0.1402 0.0495,-2.03193 0.0495,-4.20384 0,-3.8774707 0.003,-3.9473907 0.15307,-3.8645707 0.26351,0.1452104 1.17969,1.8066104 2.02587,3.6737107 1.19185,2.62982 1.57125,3.42407 2.03597,4.26215 0.26743,0.48229 0.49886,0.8769 0.51428,0.8769 0.0154,0 0.2589,-0.15012 0.54105,-0.3336 z"
       id="path365" />
  </g>
</svg>
